<?xml version="1.0" encoding="UTF-8"?>
<svg width="18px" height="18px" viewBox="0 0 18 18" version="1.1" xmlns="http://www.w3.org/2000/svg" xmlns:xlink="http://www.w3.org/1999/xlink">
    <!-- Generator: Sketch 52.6 (67491) - http://www.bohemiancoding.com/sketch -->
    <title>placeholder-2</title>
    <desc>Created with Sketch.</desc>
    <g id="Welcome" stroke="none" stroke-width="1" fill="none" fill-rule="evenodd">
        <g id="Desktop_rez_new_2" transform="translate(-330.000000, -3683.000000)" fill="#000000" fill-rule="nonzero">
            <g id="placeholder-2" transform="translate(330.000000, 3683.000000)">
                <path d="M9,7.8 C10.158,7.8 11.1,6.8577 11.1,5.7 C11.1,4.5423 10.158,3.6 9,3.6 C7.842,3.6 6.9,4.5423 6.9,5.7 C6.9,6.8577 7.842,7.8 9,7.8 Z M9,4.2 C9.8271,4.2 10.5,4.8729 10.5,5.7 C10.5,6.5271 9.8271,7.2 9,7.2 C8.1729,7.2 7.5,6.5271 7.5,5.7 C7.5,4.8729 8.1729,4.2 9,4.2 Z" id="Shape"></path>
                <path d="M8.9469,16.4271 L13.5492,9.78 C15.2754,7.4787 15.0258,3.696 13.0149,1.6854 C11.9283,0.5985 10.4835,0 8.9469,0 C7.4103,0 5.9655,0.5985 4.8789,1.6851 C2.868,3.6957 2.6184,7.4784 4.3377,9.7707 L8.9469,16.4271 Z M5.3031,2.1093 C6.2766,1.1361 7.5705,0.6 8.9469,0.6 C10.3233,0.6 11.6172,1.1361 12.5907,2.1093 C14.4057,3.924 14.6292,7.3404 13.0626,9.429 L8.9469,15.3729 L4.8246,9.42 C3.2646,7.3404 3.4884,3.924 5.3031,2.1093 Z" id="Shape"></path>
                <path d="M12.6351,12.9021 C12.4701,12.882 12.3213,13.0002 12.3021,13.1649 C12.2829,13.3296 12.4005,13.4787 12.5649,13.4979 C15.7197,13.8693 17.4,14.8701 17.4,15.45 C17.4,16.2642 14.2044,17.4 9,17.4 C3.7956,17.4 0.6,16.2642 0.6,15.45 C0.6,14.8701 2.2803,13.8693 5.4351,13.4979 C5.5995,13.4787 5.7171,13.3293 5.6979,13.1649 C5.6784,13.0002 5.5296,12.8814 5.3649,12.9021 C2.2062,13.2741 0,14.3217 0,15.45 C0,16.7172 3.0915,18 9,18 C14.9085,18 18,16.7172 18,15.45 C18,14.3217 15.7938,13.2741 12.6351,12.9021 Z" id="Shape"></path>
            </g>
        </g>
    </g>
</svg>