<svg xmlns="http://www.w3.org/2000/svg" viewBox="0 0 618.84 782.52"><defs><style>.cls-1{fill:none;stroke:#002835;stroke-miterlimit:10;stroke-width:3px;}.cls-2{fill:#002835;}</style></defs><title>Ресурс 4</title><g id="Слой_2" data-name="Слой 2"><g id="Слой_1-2" data-name="Слой 1"><ellipse class="cls-1" cx="311.05" cy="383.22" rx="273.88" ry="338"/><path class="cls-2" d="M535.41,504.34c-5.35-7.73-8.27-17.17-5.92-26.51,1.87-7.46,7.43-13.29,11.11-19.88,8.3-14.87,6.89-31.65.68-47-6.74-16.64-18.34-30.61-26.64-46.42-9.6-18.28-10.38-37.05-10.14-57.31.41-34.19-6.63-67.23-23.19-97.35a183.87,183.87,0,0,0-67.26-69.72A190,190,0,0,0,306.64,114.1c-1.46.08-2.38,1.79-.38,1.67,69.34-4,136.8,32.44,171,92.88,17,30.1,24.7,63.54,24.32,98-.2,18.33-.29,36.31,7.5,53.33,7.31,16,18.72,29.63,26.41,45.4,8.66,17.75,11.78,37.65.79,55.14-4.27,6.8-9.43,13-10.37,21.28-1,8.57,2,16.74,6.79,23.71.57.83,3.38-.14,2.68-1.15Z"/><path class="cls-2" d="M196.24,436.94a105.12,105.12,0,0,1,3.34,48.88c-.23,1.38,2.72,1,2.93-.26a106.4,106.4,0,0,0-3.37-49.4c-.39-1.26-3.28-.46-2.9.78Z"/><path class="cls-2" d="M191.08,493.67c12.12,62,54.71,116.26,110.78,144.85a198.71,198.71,0,0,0,49.33,17.42c.68.14,3.18-1,2.38-1.13-61.68-12.95-115.19-56.19-142.93-112.53A197.76,197.76,0,0,1,194,492.9c-.12-.61-3,.06-2.9.77Z"/><ellipse class="cls-1" cx="311.05" cy="383.22" rx="306.29" ry="381.72"/><path class="cls-2" d="M490.53,299.53c.55-33.65,5-73.48-16.6-102.08-.79-1-3.55.09-2.65,1.27,21.4,28.29,16.86,67.75,16.31,101,0,1.5,2.92,1.06,2.94-.23Z"/><path class="cls-2" d="M450.54,591.42q23.55,19.53,45.36,41c1,.95,3.7-.26,2.65-1.3q-22-21.69-45.79-41.43c-1-.85-3.53.63-2.22,1.71Z"/><path class="cls-2" d="M182.39,507.65c-10,25.54,1.17,53.08,11.88,76.48a381.47,381.47,0,0,0,41.14,69.25c.53.72,3.33-.25,2.7-1.1a379.39,379.39,0,0,1-40.94-68.93c-10.66-23.27-21.8-50.69-11.9-76.11.33-.82-2.53-.49-2.88.41Z"/><path class="cls-2" d="M196.3,517.79c-4.06,31.3,12.28,61.18,27.49,87.31A454.71,454.71,0,0,0,277,678.41c.45.52,3.13-.51,2.73-1a452.74,452.74,0,0,1-53.91-74.65C211,577,195.21,547.77,199.19,517c0-.29-2.78-.07-2.89.77Z"/><path class="cls-2" d="M131,698.79c15-4.19,30.28-.81,45,2.71,13.71,3.27,27.41,6.51,41.19,9.47a752.51,752.51,0,0,0,76.49,12.85c51.84,5.65,104.15,2.76,154.37-11.81,8.3-2.41,16.34-5.55,24.46-8.49,4.67-1.7,9.35-3.38,14.1-4.85,3-.93,6.8-2.49,10-2.12,1.14.13,3.06-1.46,1.12-1.68-5.59-.63-12.29,2.5-17.4,4.24-7.88,2.69-15.65,5.69-23.5,8.47-24.48,8.68-50.84,13.37-76.63,15.78-54.18,5-108.35-2.62-161.26-14-15.63-3.36-31.13-7.24-46.71-10.76-13.79-3.13-27.85-5.17-41.7-1.3-1.72.48-1.35,2,.4,1.48Z"/><path class="cls-2" d="M108.24,745.54c33.67-24.07,75.69-1.8,110.06,8.29A310.11,310.11,0,0,0,327,765.89c24.12-1.73,48-6.85,71.58-12.18,24.5-5.54,48.81-11.9,73.19-18,2.59-.64,42.63-10.1,42.6-7.46,0,1.34,2.9.8,2.91-.3.07-5.83-26.09,1.33-28.53,1.89-24.19,5.54-48.15,12.06-72.27,17.85-26.31,6.33-52.88,12.46-79.81,15.46-38,4.23-77.27.06-114-10.33s-80.55-34-116.36-8.38c-1.6,1.14.82,1.78,1.85,1Z"/><path class="cls-2" d="M495.78,696.1c1,13.19,11.22,22.37,18.63,32.44.49.66,3.08-.54,2.9-.78-7.41-10.07-17.6-19.24-18.63-32.44,0-.45-3,0-2.9.78Z"/><path class="cls-2" d="M129.83,697.31c-6.24,16.84-18,31-24,48-.22.62,2.59.3,2.86-.49,6-17,17.71-31.1,24-47.95.23-.61-2.57-.3-2.86.49Z"/><path class="cls-2" d="M107.44,745.48c7.26-1.72,13.71,5.2,13.67,12l1.33-.86c-8.07,1.91-16.81-2.62-24.21-5.31l-19.52-7.09c-10.92-4-23-10.31-34.95-9.23C22.07,737,9.53,757.62,1.5,775.55c-.22.49,2.52.26,2.86-.5,4.61-10.29,10-20.67,18.22-28.6,5-4.8,11.14-8.72,18-9.88s13.57.84,20.09,3.16c11.43,4.07,22.81,8.29,34.21,12.44,9,3.26,18.07,7.73,27.77,5.44.37-.09,1.32-.36,1.32-.86,0-9-8.69-14.14-16.82-12.2-1.7.4-1.47,1.34.25.93Z"/><path class="cls-2" d="M1.79,774.94A27.09,27.09,0,0,0,0,782.24c-.06.72,2.52-.15,2.77-.46a67.39,67.39,0,0,1,26.92-20.36c1.89-.78.12-1.28-1-.8A71,71,0,0,0,.13,781.92l2.77-.46a26.35,26.35,0,0,1,1.76-7c.24-.64-2.57-.32-2.87.48Z"/><path class="cls-2" d="M122.18,715.79c-18.57-9.79-42.88-20-63.32-10-8.79,4.31-15.34,11.33-21.75,18.51-6.68,7.48-13.47,15.2-18.67,23.8-.63,1,2.23.69,2.67,0,4.07-6.73,9.18-12.85,14.3-18.81,5.65-6.59,11.42-13.69,18.52-18.76,11.46-8.17,23.86-8.52,37.08-5a139.08,139.08,0,0,1,28.84,11.63c.74.39,3.41-.73,2.33-1.3Z"/><path class="cls-2" d="M35.12,737.26c-3,7.51-8.95,15.68-7.4,24.15.13.7,3.05,0,2.9-.78C29.1,752.33,35,744.17,38,736.79c.24-.61-2.55-.32-2.87.47Z"/><path class="cls-2" d="M124.28,756.54c-1.39-7.36-.69-14.12,4.23-20,1.12-1.35-1.66-1.46-2.36-.61-5.26,6.34-6.27,13.49-4.76,21.44.21,1.12,3.12.4,2.89-.78Z"/><path class="cls-2" d="M514.45,728.41c.81,3.7-17,4.65-19.39,5.18-4.23.92-8.72,2.33-12.11,5.14-9.72,8,5.44,10.16,11.39,10,12.89-.41,25.24-5.57,37.95-7.36,9.15-1.29,39.6-6.27,41,8.32.08.78,3,.19,2.9-.78-1-10.22-16.63-10.5-24-10.41a157.15,157.15,0,0,0-37,5.06c-7.28,1.86-14.62,4-22.2,3.7-2.64-.09-9.7-.15-10.48-3.64-.91-4.11,7.14-7.21,9.79-8,6.68-2,13.75-1.85,20.54-3.27,2.79-.58,5.26-1.4,4.54-4.69-.18-.84-3.09-.12-2.9.78Z"/><path class="cls-2" d="M558.75,718.11c6,9.9,13,19.73,15.32,31.23.11.55,3-.13,2.9-.77-2.35-11.51-9.29-21.34-15.32-31.23-.41-.67-3.09.45-2.9.77Z"/><path class="cls-2" d="M506.94,717.85c8.8-.73,17.52-2.3,26.3-3.22,7.84-.82,20.16-3.71,25.61,3.64.53.72,3.34-.25,2.7-1.1-5-6.81-14.56-5.09-22-4.54-10.79.81-21.43,2.87-32.21,3.76-1.37.11-2.46,1.63-.43,1.46Z"/><path class="cls-2" d="M476.91,733.73c.95,3.37,2.54,6.52,2.66,10.08,0,.5,2.92,0,2.89-.78-.11-3.56-1.7-6.7-2.65-10.07-.19-.66-3.09.12-2.9.77Z"/><path class="cls-2" d="M185.71,401.7c2.49,11.93,8.13,32.48,22.6,34.62C219,437.9,228.87,430,228.53,419c0-.47-2.93,0-2.9.77.14,4.58-1.49,10.2-5.52,12.95L210,435.11l-1.45-.35a13.76,13.76,0,0,1-3.93-1.86,21.77,21.77,0,0,1-5.81-6c-5.24-7.63-8.29-17-10.16-26-.13-.58-3,.11-2.9.78Z"/><path class="cls-2" d="M432,274.56c17.08-12.27,40.2-4.12,47.05,15.33.41,1.14,3.29.33,2.9-.78-7.59-21.55-33.52-28.75-51.8-15.61-1.6,1.14.82,1.79,1.85,1.06Z"/><path class="cls-2" d="M361.49,270.16c-11.79-5.54-25.09-13.3-38.56-11.3a34.25,34.25,0,0,0-25,16.88c-.24.43,2.45.26,2.87-.49,5.28-9.44,15.49-16,26.52-15.49,10.84.51,21.84,6.89,31.45,11.41.78.37,3.12-.83,2.73-1Z"/><path class="cls-2" d="M380.89,364c-6.77,4.51-14.24,10.71-15.2,19.37-.76,6.84,2.92,13.92,9.83,15.6.7.17,3.25-.95,2.37-1.16-7-1.71-10.41-9.44-9.15-16.18,1.44-7.79,8.16-13.34,14.38-17.49,1.22-.81-1.67-.51-2.23-.14Z"/><path class="cls-2" d="M399.26,393.8c1.95-2.84.21-6.11-2.74-7.34a15.85,15.85,0,0,0-10.74,0c-2.67,1-5.43,3.22-4.41,6.37.91,2.8,3.51,3.48,6,2.48,1.88-.76.15-1.58-1.12-1.07-1.12.45-2.21-2.4-2.23-3.17-.08-3,3.31-3.88,5.73-3.94,3.22-.09,9.83,2.21,6.8,6.63-.7,1,2.18.73,2.68,0Z"/><path class="cls-2" d="M353.38,234.58c8.34-1.57,16.1,1.21,24.1,3.13a91.72,91.72,0,0,0,21,2.23c14,.1,28.16.05,41.89-2.89,1.77-.38,1.36-1.84-.4-1.47-14.81,3.17-30.7,3.23-45.8,2.58-13.49-.58-26.85-7.74-40.36-5.2-1.37.25-2.38,2-.39,1.62Z"/><path class="cls-2" d="M420.21,214.2h21.64c.57,0,3.26-1.09,1.91-1.09H422.11c-.57,0-3.25,1.09-1.9,1.09Z"/><path class="cls-2" d="M372.77,217A52.84,52.84,0,0,0,335.66,211c-1.1.22-2.6,1.37-.56,1A49.81,49.81,0,0,1,370,218c.69.4,3-.8,2.74-1Z"/><path class="cls-2" d="M359.41,315.29a29,29,0,0,0-29-16.08A32.4,32.4,0,0,0,316.49,304c-7.14,4.49-12.52,16.72-22,16.59-.63,0-3.29,1.18-1.87,1.2,11.93.16,16.22-10.72,24.8-16.84,13.73-9.82,31.92-3,39.08,11.16.36.71,3.13-.3,2.89-.78Z"/><path class="cls-2" d="M355.48,317.63c-8.54-.25-14.31,5.6-22,8.08-9.62,3.08-20.23-.58-26.57-8.23-.84-1-3.59.14-2.66,1.27a28,28,0,0,0,21,10.16,27.16,27.16,0,0,0,11.22-2.15c6-2.5,11.28-7.23,18.07-7,1.4,0,3-2,1-2.09Z"/><path class="cls-2" d="M355.71,320.23l7.91,2.66c.57.2,3.31-.2,2.5-1.27a21.23,21.23,0,0,0-6.85-5.86c-.84-.45-3.5.76-2.31,1.41a20,20,0,0,1,6.47,5.59l2.5-1.27L358,318.83a2.4,2.4,0,0,0-2.05.26c-.31.22-.95.91-.25,1.14Z"/><path class="cls-2" d="M311.64,450.26a21.48,21.48,0,0,1,14.05-18.19c1.93-.67.15-1.4-1.08-1a23.52,23.52,0,0,0-15.85,19.57c-.11,1,2.79.43,2.88-.42Z"/><path class="cls-2" d="M313.75,310.26c1.19,7.57,9.34,11.32,16.32,9.29,7.91-2.31,11.78-10.94,9-18.55-.22-.62-3.08.26-2.9.77,1.87,5.16.89,12-3.76,15.47-6.38,4.77-14.73-1-15.79-7.76-.08-.51-3,.11-2.9.78Z"/><path class="cls-2" d="M322.28,310.22c.69,3.65,5.64,5,8.44,2.86a4.94,4.94,0,0,0-.83-8.23c-1.26-.65-3.3,1.19-1.64,2,1.45.76,2,3.47.7,4.61-1.44,1.3-3.5-.64-3.77-2.06s-3.17-.67-2.9.78Z"/><path class="cls-2" d="M430.7,321.89c1.51-5.7,3.58-11.67,7.79-16,6.35-6.5,14.19-4.58,20.21,1C466,313.6,470,323,471.15,332.63c.14,1.13,3.05.45,2.9-.77C472.54,319.7,465.14,303.37,452,300c-13.59-3.5-21.38,11.56-24.19,22.21-.32,1.2,2.62.81,2.91-.3Z"/><path class="cls-2" d="M428.69,321.6c8.9,6.48,14.45,16,26.52,16.4a27.43,27.43,0,0,0,21.47-9.59c.72-.82-2.12-.55-2.67.07-6.17,7-15.61,10.15-24.53,6.62-7.38-2.92-11.84-10-18.08-14.57-.74-.54-3.34.61-2.71,1.07Z"/><path class="cls-2" d="M436.39,309.65c-1.76,9.62,3.86,21.38,15.13,19.43,9.87-1.71,14.33-13.5,8.4-21.57-.54-.74-3.16.41-2.9.77,4.6,6.26,3.11,21.53-8,19.58-8.33-1.47-11.13-11.45-9.81-18.7.14-.74-2.72-.26-2.86.49Z"/><path class="cls-2" d="M442,314.49c-.45,4.43,3.17,8.94,7.88,7.79,4.25-1,6.48-6,5-10-.42-1.12-3.3-.29-2.9.78.85,2.25.51,6.19-2,7.38-3.25,1.54-5.27-4-5-6.25.13-1.28-2.8-.79-2.91.31Z"/><path class="cls-2" d="M438.57,347.14c5.71,5.28,15.43,14.36,24,13.31S471,350,473.5,343.57c.24-.63-2.57-.33-2.87.47-1.09,2.84-1.45,5.8-2.32,8.7-.38,1.29-1.11,3.67-2.13,4.5l-6.71,1.27a29.1,29.1,0,0,1-3.56-1.71,71.6,71.6,0,0,1-14.62-10.68c-.6-.56-3.26.52-2.72,1Z"/><path class="cls-2" d="M434.92,298.45c9.65-7.86,26.76-9.54,31.2,4.95.42,1.38,3.31.59,2.89-.78-5.06-16.55-25.12-14.46-36-5.57-1.52,1.24.78,2.35,1.94,1.4Z"/><path class="cls-2" d="M360.89,299.28c-4.84-6.73-14.5-9.45-21.71-12.75-1.14-.52-3.35,1.12-1.69,1.88,6.9,3.15,16.12,5.69,20.74,12.11.72,1,3.5-.08,2.66-1.24Z"/><path class="cls-2" d="M339.6,283.34l-18.24,4.72c-3.58.93-7.24,1.84-10.25,4.11-3.24,2.44-5.33,6-7.67,9.22a30,30,0,0,1-16.62,11.86c-1.71.47-1.4,1.76.34,1.28,8.48-2.35,14.79-7.24,19.81-14.39,3.82-5.44,7.06-8.73,13.77-10.55,6.38-1.74,12.8-3.31,19.2-5,1.72-.44,1.39-1.72-.34-1.28Z"/><path class="cls-2" d="M304.94,330.4c9.51,12.17,28,15.79,39.74,4.54.73-.71-2.08-.48-2.66.08-10.56,10.15-26.36,4.57-34.37-5.68-.5-.66-3.29.31-2.71,1.06Z"/><path class="cls-2" d="M188.84,482.63a27.53,27.53,0,0,0-8.74-24.3c-1-.94-3.48.57-2.21,1.74a25.74,25.74,0,0,1,8,22.74c-.21,1.54,2.75,1.21,3-.18Z"/><path class="cls-2" d="M134.64,559.08c-24-6.23-42.5-25.88-50.44-49.05-9.34-27.3-3.84-57.42,8.42-82.84.72-1.5-2.2-1.55-2.78-.36-12.61,26.15-18.19,57.41-8,85.36,8.39,23.11,27,42.63,51.19,48.88,1.28.33,3.42-1.54,1.66-2Z"/><path class="cls-2" d="M83.66,447a46.5,46.5,0,0,1-8.83-44.33c3-9.1,9.29-16.83,14.72-24.6l17-24.24c.68-1-2.18-.67-2.67,0L85.19,380.52c-5.27,7.53-11,15-13.69,24A47.23,47.23,0,0,0,81,448.07c.57.68,3.34-.33,2.7-1.08Z"/><path class="cls-2" d="M96,364.77c-3.4-9.46,2.13-18.35,7.41-25.9,4.87-7,10-13.72,15-20.61,9.57-13.26,18.42-27.1,23.18-42.89.28-.93-2.61-.53-2.89.4-5.21,17.3-15.4,32.18-26,46.61-5,6.84-10.33,13.54-14.85,20.72-4.27,6.77-7.63,14.5-4.76,22.44.34.95,3.21.1,2.89-.77Z"/><path class="cls-2" d="M121.25,311.33c-1-14.82,9.7-26.38,17.22-38,8.27-12.78,11.77-27.65,17.95-41.41,11.67-26,29.45-48.92,50.29-68.24a288.73,288.73,0,0,1,38.81-30c1.64-1.07-.84-1.55-1.81-.92-24.2,15.77-46.42,34.75-64.42,57.43a199.58,199.58,0,0,0-23.58,37.37c-6.87,14.28-10.37,30.22-18.71,43.76C129.16,284,117.23,296,118.36,312.1c.07,1,3,.38,2.89-.77Z"/><path class="cls-2" d="M306.63,114.08c-21.87,1-45.28,7.31-63.8,19.16-1.65,1.06.84,1.6,1.83,1,17.89-11.45,40.49-17.48,61.61-18.41,1.48-.07,2.36-1.81.36-1.72Z"/><path class="cls-2" d="M125.9,559.4A57.28,57.28,0,0,0,179.39,561c1.77-.87.2-2.57-1.31-1.83a53.6,53.6,0,0,1-50-1.52c-1.17-.67-3.67.91-2.22,1.73Z"/><path class="cls-2" d="M116.46,333.26c3.11-4.19,6.36-8.26,9.84-12.16q2.79-3.14,5.76-6.13c.91-.92,5.29-6.27,6.71-6.13.88.08,3.38-1.39,1.78-1.54-5.07-.5-8.83,5.18-12,8.47a171.69,171.69,0,0,0-14.76,17.45c-.76,1,2.14.78,2.69,0Z"/><path class="cls-2" d="M115.39,355.53A160.35,160.35,0,0,1,141.25,318c1.2-1.31-1.59-1.58-2.39-.71a162.47,162.47,0,0,0-26.21,38c-.69,1.39,2.23,1.27,2.74.23Z"/><path class="cls-2" d="M121.27,376.59a202.9,202.9,0,0,1,18.16-29.42c.6-.81-2.2-.43-2.64.16a204.28,204.28,0,0,0-18.38,29.74c-.25.5,2.47.29,2.86-.48Z"/><path class="cls-2" d="M119.34,365.06A158.18,158.18,0,0,1,138,336.69c1.14-1.39-1.62-1.71-2.4-.76a160.81,160.81,0,0,0-19,28.87c-.72,1.4,2.21,1.32,2.75.26Z"/><path class="cls-2" d="M125.27,389.15a104.56,104.56,0,0,1,23.8-26.86c.6-.48-2.07-.23-2.63.22a105.93,105.93,0,0,0-24,27.14c-.21.34,2.41.22,2.86-.5Z"/><path class="cls-2" d="M129.9,403.9a167.77,167.77,0,0,1,18.5-27.15c.74-.89-2.12-.64-2.67,0A170.34,170.34,0,0,0,127,404.31c-.37.67,2.42.43,2.88-.41Z"/><path class="cls-2" d="M134,412.1a269.13,269.13,0,0,1,20.45-24.52c.61-.66-2.13-.34-2.63.19a272.23,272.23,0,0,0-20.68,24.82c-.22.29,2.34.21,2.86-.49Z"/><path class="cls-2" d="M142.27,429.79c-3.35-11.2,7.72-24.51,14.37-32.54.58-.69-2.17-.33-2.62.22-6.86,8.27-18.11,21.53-14.64,33.1.19.66,3.08-.15,2.89-.78Z"/><path class="cls-2" d="M153.54,438.3a58.79,58.79,0,0,1,6.67-30.5c.75-1.43-2.18-1.43-2.76-.31a59.71,59.71,0,0,0-6.84,31c.07,1.5,3,1,2.93-.23Z"/><path class="cls-2" d="M166.91,454.48a45.75,45.75,0,0,1-2.52-29.85c.37-1.46-2.61-1.15-2.94.19A46.7,46.7,0,0,0,164,455.25c.59,1.35,3.46.53,2.9-.77Z"/><path class="cls-2" d="M179.25,446.25a34.06,34.06,0,0,1-2-21.11c.17-.74-2.69-.3-2.87.48a34.62,34.62,0,0,0,1.95,21.4c.33.77,3.16-.16,2.9-.77Z"/><path class="cls-2" d="M85,493.55a77.1,77.1,0,0,1,10.59-44.49c.2-.34-2.43-.22-2.86.51a77.58,77.58,0,0,0-10.62,44.76c0,.51,3,0,2.89-.78Z"/><path class="cls-2" d="M92.62,503.84a83.34,83.34,0,0,1,5.75-39.93c.61-1.52-2.3-1.47-2.77-.31a85.45,85.45,0,0,0-5.87,41c.12,1.29,3,.6,2.89-.77Z"/><path class="cls-2" d="M99.74,505.86a60.2,60.2,0,0,1,5.51-32.34c.7-1.47-2.23-1.44-2.76-.3a62.08,62.08,0,0,0-5.65,33.42c.14,1.29,3,.59,2.9-.78Z"/><path class="cls-2" d="M176,481.2c5,.8,4.67,13.2,4.37,16.58a35.55,35.55,0,0,1-5.38,15.71c-.86,1.4,2.09,1.52,2.79.39a36.81,36.81,0,0,0,5.59-22c-.31-4.41-1-12-6.39-12.89-1.49-.24-2.92,1.89-1,2.2Z"/><path class="cls-2" d="M171.59,485.39a32.07,32.07,0,0,1-1.3,25.52c-.69,1.41,2.23,1.31,2.74.25a33.44,33.44,0,0,0,1.46-26.55c-.45-1.22-3.33-.4-2.9.78Z"/><path class="cls-2" d="M164.55,489.31a39.85,39.85,0,0,1-1.41,31.13c-.59,1.25,2.29.92,2.7.06a40.8,40.8,0,0,0,1.61-32c-.37-1-3.24-.17-2.9.78Z"/><path class="cls-2" d="M156.23,491.39a44.08,44.08,0,0,1,2.19,26.68c-.2.93,2.69.47,2.89-.42a45,45,0,0,0-2.18-27c-.37-.9-3.22,0-2.9.78Z"/><path class="cls-2" d="M148.33,493.6A89.8,89.8,0,0,1,151,522.39c0,.46,2.84.12,2.9-.77a89.78,89.78,0,0,0-2.63-28.79c-.18-.68-3.08.07-2.9.77Z"/><path class="cls-2" d="M143,493.44a264.36,264.36,0,0,0-.53,31.72c0,.79,3,.25,2.9-.78A258.07,258.07,0,0,1,145.9,493c.08-1.06-2.82-.48-2.89.4Z"/><path class="cls-2" d="M106.18,478.36c-2.75,5.27-2.67,11.76-3,17.58a172.42,172.42,0,0,0,.26,20.71c.11,1.53,3,1.1,2.94-.21a179.24,179.24,0,0,1-.35-18.83c.23-6.08,0-13.4,2.88-18.9.76-1.46-2.17-1.52-2.78-.35Z"/><path class="cls-2" d="M113.55,485.16a90.89,90.89,0,0,0-.11,34.48c.1.53,3-.13,2.9-.78a90.19,90.19,0,0,1,.06-34.23c.11-.56-2.72-.14-2.85.53Z"/><path class="cls-2" d="M120.91,489.92a255.76,255.76,0,0,0,.52,27.69c.09,1.24,3,.56,2.9-.78a248.54,248.54,0,0,1-.49-27.16c0-1.44-2.88-1-2.93.25Z"/><path class="cls-2" d="M127.86,494.28a248.65,248.65,0,0,1,2.55,31.55c0,.57,2.91.11,2.9-.78a252.38,252.38,0,0,0-2.55-31.55c-.1-.67-3-.05-2.9.78Z"/><path class="cls-2" d="M134.59,497.29A157.84,157.84,0,0,1,136,524.34c0,.4,2.87,0,2.89-.78a155.89,155.89,0,0,0-1.37-27c-.07-.53-3,.06-2.89.78Z"/><path class="cls-2" d="M522.92,398.84a65.29,65.29,0,0,1,12.63,44.21c-.09,1.17,2.82.61,2.9-.37a66.37,66.37,0,0,0-12.84-45c-.58-.79-3.39.2-2.69,1.14Z"/><path class="cls-2" d="M516.68,399.88a71.88,71.88,0,0,1,12.54,48.93c-.1,1,2.79.45,2.89-.42a72.68,72.68,0,0,0-12.72-49.59c-.49-.7-3.3.23-2.71,1.08Z"/><path class="cls-2" d="M508.84,402.4a71.23,71.23,0,0,1,10.5,48.11c-.14,1,2.76.45,2.88-.42a71.65,71.65,0,0,0-10.48-48.47c-.54-.85-3.28.18-2.9.78Z"/><path class="cls-2" d="M503.23,406.92c6.81,14,7.13,29.66,7.21,45,0,.45,2.9,0,2.9-.78-.08-15.31-.4-30.92-7.22-45-.33-.69-3.12.31-2.89.78Z"/><path class="cls-2" d="M496.26,407c7.15,17.89,7.29,37.15,7.19,56.14,0,1.47,2.93,1,2.93-.24.1-19.14,0-38.64-7.22-56.67-.51-1.27-3.38-.44-2.9.77Z"/><path class="cls-2" d="M491.9,427.63c4.18,13,4.34,25.53,4.16,39.08,0,1.25,2.89.67,2.9-.34.19-13.7.07-26.32-4.16-39.52-.34-1.06-3.23-.25-2.9.78Z"/><path class="cls-2" d="M507.86,514.13c-4.26,8.86.79,21.41,3.18,30.2.21.81,3.11,0,2.89-.78-2.35-8.67-7.36-21.19-3.19-29.86.3-.63-2.49-.38-2.88.44Z"/><path class="cls-2" d="M499.36,515.35a68.65,68.65,0,0,0,1.23,33.6c.35,1.2,3.25.42,2.9-.77a67.64,67.64,0,0,1-1.21-33.11c.27-1.29-2.67-.88-2.92.28Z"/><path class="cls-2" d="M491.13,515.48a85.42,85.42,0,0,0,1.4,31.18c.2.88,3.11.15,2.9-.78A84.28,84.28,0,0,1,494,515.07c.14-1-2.76-.48-2.89.41Z"/><path class="cls-2" d="M484.73,516.63a105.38,105.38,0,0,0,1.25,31.8c.14.74,3.06.06,2.89-.78a104.54,104.54,0,0,1-1.27-31.48c.1-.88-2.79-.32-2.87.46Z"/><path class="cls-2" d="M476.9,520a88.8,88.8,0,0,0,.72,31.85c.21,1,3.12.3,2.9-.77a87.39,87.39,0,0,1-.72-31.43c.18-1.14-2.74-.65-2.9.35Z"/><path class="cls-2" d="M470,520a60.27,60.27,0,0,0,2.36,32.45c.34,1,3.22.13,2.9-.77a59.54,59.54,0,0,1-2.37-32.06c.2-1-2.7-.57-2.89.38Z"/><path class="cls-2" d="M461.46,523.65A101.13,101.13,0,0,0,467,551.93c.4,1.13,3.28.31,2.9-.78a100.78,100.78,0,0,1-5.55-28.28c-.06-1.08-3-.45-2.9.78Z"/><path class="cls-2" d="M454.63,524.25a134.68,134.68,0,0,0,6.08,26.9c.43,1.28,3.32.48,2.89-.78a135.36,135.36,0,0,1-6.07-26.9c-.16-1.28-3.07-.58-2.9.78Z"/><path class="cls-2" d="M494.91,277.86a234.16,234.16,0,0,1-.74,39.63c0,.44,2.8.14,2.9-.77a235.22,235.22,0,0,0,.74-39.63c0-.58-2.95-.07-2.9.77Z"/><path class="cls-2" d="M486.71,287.07a135.14,135.14,0,0,1-.43,31.59c0,.33,2.79.1,2.9-.77a135.78,135.78,0,0,0,.43-31.6c-.05-.53-3,0-2.9.78Z"/><path class="cls-2" d="M175.92,557.72a36.34,36.34,0,0,1-33.44-3.37c-.8-.52-3.47.66-2.3,1.41a40.1,40.1,0,0,0,36.89,3.17c1.87-.75.17-1.74-1.15-1.21Z"/><path class="cls-2" d="M180.21,556.2A50.27,50.27,0,0,0,174,540.37c-.56-.92-3.37,0-2.68,1.19a48.61,48.61,0,0,1,6,15.42c.23,1.12,3.14.4,2.9-.78Z"/><path class="cls-2" d="M177.62,557.31q-5.84-6-11.47-12.1c-.86-.94-3.62.22-2.66,1.26q5.64,6.15,11.47,12.1c.9.91,3.64-.26,2.66-1.26Z"/><path class="cls-2" d="M174.9,557.29l-15.17-7.57c-.91-.45-3.55.85-2.28,1.48l15.17,7.56c.91.46,3.55-.84,2.28-1.47Z"/><path class="cls-2" d="M171.88,557.7c-7.92,1.6-14.57-3.52-20.39-8.06-.59-.46-3.06.7-2.74,1,6.72,5.24,13.71,9.84,22.55,8,1.09-.22,2.62-1.35.58-.94Z"/><path class="cls-2" d="M176,559.27a31.68,31.68,0,0,1-19.61,5.59c-4.91-.24-16.52-2.23-18.06-8.08-.36-1.35-3.26-.58-2.9.78,1.78,6.77,14.06,9.09,20,9.43A36,36,0,0,0,178,560.61c1.62-1.11-.74-2.16-1.92-1.34Z"/><path class="cls-2" d="M223.88,440.93a103.09,103.09,0,0,0,65.06,65.93c1.09.37,3.4-1.22,1.72-1.78a101.44,101.44,0,0,1-63.88-64.93c-.38-1.18-3.27-.38-2.9.78Z"/><path class="cls-2" d="M244.41,241.77c-5.91,23.08-20.35,42.54-29.12,64.48-.58,1.47,2.32,1.32,2.75.24,8.83-22.11,23.33-41.72,29.29-65,.33-1.28-2.62-.91-2.92.27Z"/><path class="cls-2" d="M244,217a202.33,202.33,0,0,1-34.16,40c-.61.55,2.09.28,2.63-.21a204,204,0,0,0,34.39-40.28c.21-.33-2.39-.22-2.86.51Z"/><path class="cls-2" d="M244.91,197.59A78.78,78.78,0,0,1,214.23,227c-1.72.91.87,1.24,1.77.76a81,81,0,0,0,31.6-30.16c.65-1.1-2.23-.78-2.69,0Z"/><path class="cls-2" d="M247,176.22c-5.95,4.77-12.77,8.54-18.17,14a41.22,41.22,0,0,0-10.31,17.65c-.14.48,2.64.17,2.85-.53a40.42,40.42,0,0,1,11.25-18.52c5.22-4.82,11.46-8.4,17-12.83.54-.43-2.07-.15-2.61.27Z"/><path class="cls-2" d="M261.69,157.23l-38.1,18.94c-1.73.86.89,1.14,1.76.71l38.1-18.94c1.73-.86-.89-1.14-1.76-.71Z"/><path class="cls-2" d="M285.83,143.66a62,62,0,0,0-44.91,6.94c-1.19.68,1.69.33,2.21,0a55.14,55.14,0,0,1,40.31-5.88c.65.15,3.15-.92,2.39-1.09Z"/><path class="cls-2" d="M304.58,139a55.6,55.6,0,0,0-26-5.81c-.58,0-3.26,1.14-1.9,1.12A53.73,53.73,0,0,1,301.84,140c.73.37,3-.83,2.74-1Z"/><path class="cls-2" d="M328.34,133.84c-8.65-6.94-18.33-13.94-30-12.53-1.61.19-2.22,2.37-.25,2.13,10.91-1.32,20,5.63,28,12.08,1,.81,3.54-.64,2.23-1.68Z"/><path class="cls-2" d="M340.84,130.41a85.2,85.2,0,0,0-13.66-9.67c-.71-.4-3,.79-2.74,1a84.81,84.81,0,0,1,13.66,9.68c.56.48,3.12-.64,2.74-1Z"/><path class="cls-2" d="M359.67,131.24a60.47,60.47,0,0,0-13.43-10.45c-1.16-.67-3.66.91-2.22,1.73a58.66,58.66,0,0,1,13,10c1,1,3.7-.22,2.65-1.3Z"/><path class="cls-2" d="M374,136.12A46.55,46.55,0,0,0,365,126c-.8-.66-3.5.47-2.69,1.14a46.55,46.55,0,0,1,9.07,10.08c.55.81,3.36-.14,2.69-1.14Z"/><path class="cls-2" d="M384.58,134,377.45,127c-.93-.93-3.67.27-2.65,1.28l7.13,7.07c.93.93,3.67-.27,2.65-1.28Z"/><path class="cls-2" d="M401.8,139.58,398.25,136a1.77,1.77,0,0,0-1.95-.14c-.39.18-1.22.85-.72,1.35l3.55,3.55a1.79,1.79,0,0,0,1.95.14c.4-.18,1.23-.85.72-1.35Z"/><path class="cls-2" d="M417.33,280.83c-3.15,19.46-1.93,39.23,2.13,58.46A227.13,227.13,0,0,0,427,366.53c3.26,9.43,7.21,18.65,6.53,28.84,0,.23,2.13,0,2.17-.58.68-10.19-3.27-19.41-6.53-28.84a227.61,227.61,0,0,1-7.57-27.24c-4.06-19.24-5.29-39-2.14-58.46,0-.17-2.07,0-2.17.58Z"/><path class="cls-2" d="M430.6,402a11.83,11.83,0,0,0,5.64-9.05c.08-1.06-2.82-.48-2.89.4a10.27,10.27,0,0,1-4.51,7.93c-1.64,1.05.91,1.28,1.76.72Z"/><path class="cls-2" d="M417.06,396.32c1.95-1.65,4.24-3.8,7-3.71,2.4.08,5.55,3.33,2.88,5.44-1.54,1.22.79,2.23,1.93,1.33a4.86,4.86,0,0,0-1.38-8.37c-4.57-1.9-9,1.16-12.33,4-1.49,1.27.82,2.27,1.93,1.32Z"/><path class="cls-2" d="M411.43,382.29a13.78,13.78,0,0,0,14.09.51c1.74-.95.15-2.16-1.21-1.43a10,10,0,0,1-10.6-.6c-.91-.6-3.54.69-2.28,1.52Z"/><path class="cls-2" d="M233.32,310.81A75.1,75.1,0,0,0,216,338.09c-3.95,11-5.79,22.91-12.64,32.62-9.59,13.61-35.51,29.55-22.77,49.33.75,1.16,3.5,0,2.65-1.31-12.93-20.07,17.19-36.74,25.37-51.53,4.82-8.71,6.64-18.63,9.9-27.94a73.67,73.67,0,0,1,17.22-27.51c1.28-1.31-1.49-1.92-2.45-.94Z"/><path class="cls-2" d="M214.08,382.43a14.16,14.16,0,0,1,4.23,12,14.33,14.33,0,0,1-1.47,4.83c-.49.94-1.19,2.43-2.17,3l-6.06,1a3.09,3.09,0,0,1-.69-3.6c.24-.73-2.6-.38-2.88.45-1,3.2,1.49,5.53,4.61,5.58a11.16,11.16,0,0,0,7.67-3.51c5.63-5.7,5.11-15.35-.53-20.77-.61-.59-3.3.48-2.71,1Z"/><path class="cls-2" d="M339.89,411.88a37.06,37.06,0,0,0,19-20.69c.6-1.61-2.3-1.7-2.79-.4A34.21,34.21,0,0,1,338.57,410c-1.78.85-.2,2.57,1.32,1.84Z"/><path class="cls-2" d="M455.2,424.47a56,56,0,0,1-6.74-18.65c-.12-.73-3-.07-2.9.77a56.27,56.27,0,0,0,6.74,18.66c.46.8,3.21-.24,2.9-.78Z"/><path class="cls-2" d="M357.91,444.46c8.5-.9,17-1.79,25.59-1.51,7.87.27,15,2.46,22.65,3.87,6.64,1.22,13.25,0,19.92.08,8.94.13,15.38,4.27,21.2,10.68.55.61,3.29-.41,2.71-1.05-4.68-5.15-10.06-9.45-17.1-10.58-8.74-1.41-17.53,1.17-26.27-.77-7.3-1.62-14.2-3.37-21.75-3.6-8.85-.27-17.67.66-26.47,1.59-1.27.14-2.51,1.5-.48,1.29Z"/><path class="cls-2" d="M388.41,461.5c4-.14,7.73,1.45,11.57,2.38a74.93,74.93,0,0,0,11.52,1.86,80.36,80.36,0,0,0,19.47-.83c1.3-.21,2.47-1.72.45-1.4a74.74,74.74,0,0,1-23.46.17c-6.11-.95-12.14-3.86-18.37-3.64-1,0-3.11,1.53-1.18,1.46Z"/><path class="cls-2" d="M401.69,424.13c6,5.27,14.86,5.05,21.06.25,1.31-1-1.57-1.08-2.33-.5-4.87,3.77-11.54,3.06-16-.89-.78-.68-3.49.44-2.69,1.14Z"/><path class="cls-2" d="M397.21,398.86a49.27,49.27,0,0,0,17.32,1.21c.8-.08,3.12-1.44,1.23-1.24a45.93,45.93,0,0,1-16.18-1.14c-.7-.18-3.25.94-2.37,1.17Z"/><path class="cls-2" d="M373.34,490.37a40.46,40.46,0,0,1,41.44-1.45c.77.42,3.2-.77,2.71-1a45.51,45.51,0,0,0-46.4,2.28c-1.24.81,1.66.59,2.25.2Z"/><path class="cls-2" d="M77.78,557.22a110,110,0,0,1,29.49-9.79c1.3-.24,2.45-1.81.44-1.45A118.12,118.12,0,0,0,76,556.5c-1.73.86.88,1.15,1.76.72Z"/><path class="cls-2" d="M432.32,438a87,87,0,0,1,13.92,18.87c.53,1,3.33,0,2.67-1.21A87.5,87.5,0,0,0,435,436.75c-.8-.83-3.56.29-2.67,1.21Z"/><path class="cls-2" d="M432.25,464.37l6.9-3.21c.37-.17.86-.45.37-.72s-1.6.18-2,.38l-6.9,3.21c-.37.17-.86.45-.37.72s1.6-.18,2-.38Z"/><path class="cls-2" d="M389.55,460a16.54,16.54,0,0,1-13.32-8.15c-.51-.85-3.26.17-2.9.78a17.82,17.82,0,0,0,14.4,8.77c.77.05,3.35-1.31,1.82-1.4Z"/><path class="cls-2" d="M358.44,443.3a65.17,65.17,0,0,0,26.25-6.46c1.8-.88.16-1.94-1.18-1.3a59.44,59.44,0,0,1-24,6c-1.13,0-3,1.81-1.1,1.74Z"/><path class="cls-2" d="M436.39,551.86c2.19,5.14,4.49,11.12,9.13,14.58,2,1.49,4.51,1.82,6.48,3.3,2.73,2.06,4.17,5.46,5.54,8.5,2.85,6.33,8.63,18.7,17.47,12.83,2.55-1.69,4.42-4.37,6.84-6.26a75.31,75.31,0,0,1,10.3-6.73c6.72-3.68,13.94-5.54,21.09-8.09,5.17-1.86,10.51-4.29,14.27-8.42,3.56-3.91,5.74-9,7.62-13.86,5.35-13.89,8.29-29.14,1.72-43.18-.49-1-3.33-.14-2.9.77,6.52,13.94,3.57,29-1.73,42.76-3,7.84-6.68,14.4-14.45,18.28-6.63,3.31-14,4.67-20.82,7.58a78,78,0,0,0-17.32,10.23c-3.67,2.87-7.25,9.19-12.52,4.55-2.8-2.48-4.35-6-5.85-9.38-1.82-4.05-3.66-9.28-7.74-11.63-3.18-1.83-6-2.44-8.47-5.58s-4.15-7.23-5.76-11c-.45-1-3.3-.17-2.9.78Z"/><path class="cls-2" d="M411.89,551.14c15-1.48,27.06-11,36.27-22.4a251.61,251.61,0,0,0,27.45-43.36c7.81-15.36,14-31.65,17.21-48.62,3.36-17.8,2.43-35.39.07-53.26-3-22.39-4.91-44.53-3.81-67.14,0-.64-2.85-.22-2.9.78a310.2,310.2,0,0,0,2.05,53.9c2.24,17.79,5.22,35.47,3.52,53.45-3.06,32.21-17.56,62.24-35.22,88.89-10.57,16-23.45,34.39-44.18,36.43-1.3.12-2.5,1.53-.46,1.33Z"/><path class="cls-2" d="M339,526.44A86.24,86.24,0,0,0,417.46,551c1.8-.35,1.31-2.06-.46-1.71-27.28,5.34-56.1-4-75.29-24.06-.8-.84-3.56.28-2.68,1.2Z"/><path class="cls-2" d="M406.92,601.85c15.88-18.1,24.57-40.65,32.89-62.9.21-.55-2.57-.26-2.86.5-8.27,22.11-16.87,44.61-32.66,62.6-.59.68,2.16.34,2.63-.2Z"/><path class="cls-2" d="M374.85,661.21c9.75,4.16,20.75,1.47,28.8-5.11,10.71-8.76,14.16-23.1,15.41-36.25.12-1.29-2.81-.8-2.92.31-1,10.11-3,20.5-9,29-6.6,9.41-18.89,15.33-30,10.57-1-.41-3.58.95-2.28,1.51Z"/><path class="cls-2" d="M430,656.81c4.68-20.86,7.42-43.15-3.2-62.72-.5-.92-3.31,0-2.68,1.18,10.43,19.23,7.56,41.39,3,61.85-.27,1.2,2.66.77,2.91-.31Z"/><path class="cls-2" d="M429.93,558.48c6.85,13.51,14,27.12,25.58,37.19.63.55,3.26-.56,2.72-1-11.54-10-18.6-23.52-25.4-36.94-.4-.78-3.18.21-2.9.78Z"/><path class="cls-2" d="M404.16,602.34c2.85,9.53-17.27,9.32-23.28,9.62A144.69,144.69,0,0,1,353,610.6a170.8,170.8,0,0,1-49.64-15.43c-29.75-14.38-54.33-36.33-73.18-63.34C219.82,517,211,501.19,202.49,485.3c-.39-.73-3.15.31-2.89.78,17,31.66,35.52,63,63.63,86.21,29.13,24,66.39,39.75,104.35,41a129.05,129.05,0,0,0,28.57-1.94c5.16-1,13-3,10.91-9.77-.21-.69-3.1.12-2.9.78Z"/><path class="cls-2" d="M412.32,592.51c5,10,4.77,19.83,3.33,30.68-.12.9,2.77.36,2.88-.45,1.45-10.94,1.76-20.81-3.32-31-.41-.82-3.21.15-2.89.78Z"/><path class="cls-2" d="M295.78,613.54c26.56,15.91,56.17,29.77,87.91,24.1,1.13-.2,2.59-1.39.55-1-30.85,5.51-60-8.63-85.73-24-.7-.42-3.07.77-2.73,1Z"/><path class="cls-2" d="M260,636.33a219.39,219.39,0,0,0,67.89,47.21c20.33,9,52.54,22.33,70.39,1.74.71-.82-2.13-.54-2.66.08-11.22,12.93-29.21,9.74-43.67,5.16a215.42,215.42,0,0,1-32.21-13.23,218.39,218.39,0,0,1-57-42c-.61-.62-3.33.43-2.71,1.06Z"/></g></g></svg>