<svg xmlns="http://www.w3.org/2000/svg" viewBox="0 0 1084.13 937.79"><title>Analitic_1</title><g id="Слой_2" data-name="Слой 2"><g id="Слой_1-2" data-name="Слой 1"><path d="M541.29,478.21C570,503.89,600,529,634.37,546.7c16.81,8.67,34.64,15.61,53.17,19.53,19.38,4.1,40.43,5.84,59.51-.61,18.25-6.16,34.15-20.29,38.71-39.49,1.79-7.51-9.78-10.71-11.57-3.19-8.94,37.58-55.89,38-85.88,31.19-34-7.69-64.64-25.39-92.39-46-16.07-11.94-31.24-25-46.14-38.39-5.74-5.14-14.25,3.32-8.49,8.48Z"/><path d="M536.38,476.9c6.92,33,17.1,65.35,31.43,95.92,13.19,28.12,29.72,55,53.57,75.34,22,18.77,48.86,31.87,77.92,34.34,15.78,1.34,32.73-.32,46.69-8.3,11.87-6.78,20.83-17.73,26.82-29.88,7.42-15.05,11-31.55,13.33-48.07a280.17,280.17,0,0,0,1.78-62.54c-.64-7.64-12.65-7.71-12,0,2.63,31.2,1.18,64.86-9.33,94.63-4.15,11.74-10.5,23.14-20.24,31.14-11.44,9.39-26.55,11.79-40.94,11.37-26.85-.78-52.61-12.34-73.2-29.22-22.3-18.28-37.81-42-50.54-67.64C565.91,542.3,555.2,508.29,548,473.71c-1.59-7.56-13.16-4.36-11.58,3.19Z"/><path d="M758.44,246.12c3.62-3.61,7-7.28,11.7-9.44a50.52,50.52,0,0,1,15.61-4.05,79.11,79.11,0,0,1,31,3.53c19.56,6,36.93,17.74,46.64,36.1,9,17.07,7.93,37.68,4,56.05-4.19,19.77-12.86,37-29,49.67-17.94,14.08-40.63,20.86-62.91,24-7.61,1.08-4.37,12.64,3.19,11.57,22.83-3.24,45.88-10.45,64.58-24.32,18.5-13.74,29.73-32.43,35-54.73,5-21.25,6.41-44.78-2.93-65-9.82-21.27-29.06-35.62-50.7-43.35-12.56-4.49-26.39-6.9-39.71-5.44a66.23,66.23,0,0,0-19.38,4.95c-6.27,2.73-10.83,7.19-15.61,12-5.48,5.46,3,14,8.48,8.49Z"/><path d="M626.15,262.12c-17.08-22.48-44-35.09-72.08-35.66a91.15,91.15,0,0,0-73.17,34.35c-18.08,22.69-26.48,52.27-22,81s22,54.09,45.13,71c13.77,10.07,30.23,17.32,47.17,19.81,20.45,3,38.2-3.69,54.28-16.09,2.58-2,3.9-5.14,2.15-8.21-1.45-2.54-5.65-4.13-8.21-2.15-12.45,9.6-25.86,16.38-42,15.17-13.69-1-27.28-6.31-39-13.33-21.8-13.07-39-34.27-45.75-58.91-13.33-48.4,19.18-105.46,71.11-110.32,26.76-2.5,55.41,7.54,72,29.35,4.61,6.07,15,.1,10.37-6.06Z"/><path d="M767.28,191.48a33.69,33.69,0,0,1-1.74-9.28l-.08-1.19c0-.4,0-.79,0-1.19l0-2.4c0-.8.14-1.58.22-2.38s.17-1.6.31-2.39a51.45,51.45,0,0,1,2.46-9.42,48.49,48.49,0,0,1,1.93-4.53l1.09-2.23c.39-.73.82-1.43,1.25-2.15.82-1.45,1.8-2.8,2.72-4.21.5-.67,1-1.32,1.55-2s1.06-1.32,1.63-1.94l1.68-1.91c.59-.62,1.22-1.18,1.83-1.78,1.21-1.2,2.55-2.26,3.85-3.39a57.46,57.46,0,0,1,8.59-5.67c1.49-.85,3.07-1.52,4.61-2.27s3.16-1.31,4.79-1.82a59.15,59.15,0,0,1,39.9.57,43,43,0,0,1,4.7,2.09,37.38,37.38,0,0,1,4.6,2.71,31.13,31.13,0,0,1,8,7.71,22,22,0,0,1,4,10.36,14.58,14.58,0,0,1-2.27,10l-1.47-.27a14.15,14.15,0,0,0-1.1-7.75,18.19,18.19,0,0,0-4.66-6.38c-4-3.57-9.21-5.54-14.53-6.7a60.17,60.17,0,0,0-32.36,1.89,58.48,58.48,0,0,0-14.64,7.26,60.85,60.85,0,0,0-12,11.11,62,62,0,0,0-4.82,6.66,64.09,64.09,0,0,0-3.86,7.28,59.44,59.44,0,0,0-4.74,15.8Z"/><path d="M569.48,193.72c-1.33-1-2.52-2.09-3.72-3.13s-2.4-2.06-3.52-3.1c-2.35-2-4.55-4-6.82-5.94-4.47-3.83-8.81-7.44-13.18-10.66-2.17-1.63-4.38-3.11-6.52-4.58-1.11-.67-2.21-1.34-3.26-2.06l-3.27-1.88A77.12,77.12,0,0,0,516,156.6a33.53,33.53,0,0,0-3.34-1,32.19,32.19,0,0,0-3.28-.83,42.6,42.6,0,0,0-6.07-.82,24.33,24.33,0,0,0-5.1.27c-.39.06-.76.15-1.13.24s-.73.28-1.14.37a10.58,10.58,0,0,0-1.18.45,6.48,6.48,0,0,0-1.17.6l-.6.33-.6.4a8.22,8.22,0,0,0-1.23.88c-.83.62-1.6,1.43-2.47,2.23a46.16,46.16,0,0,0-4.8,6.09c-1.6,2.3-3.11,4.83-4.67,7.48s-3.12,5.4-4.94,8.18l-1.49-.21a109.51,109.51,0,0,1,3.38-17.91,48.47,48.47,0,0,1,3.47-8.58,31.62,31.62,0,0,1,5.57-7.57,24.69,24.69,0,0,1,7.86-5.31,29.63,29.63,0,0,1,9.22-2.15,42.85,42.85,0,0,1,9.34.41,39.06,39.06,0,0,1,4.55.94,41,41,0,0,1,4.46,1.24c11.78,3.85,22.12,11.26,30.37,20.24a108.21,108.21,0,0,1,11.15,14.47,130.38,130.38,0,0,1,8.65,16Z"/><path d="M580.69,292.24c-4.26-8-13.05-12.62-22.08-12.31-9.27.31-17.58,5.91-22.89,13.29-13.06,18.13-8.38,45.23,1.62,63.67,4.85,8.95,12,18.75,21.68,22.89,9.8,4.21,16.57-1,20.59-9.86,9-19.82,17.17-50.05.36-68.17-7.35-7.93-20.08-11.42-29.74-5.51a18.5,18.5,0,0,0-7.1,23.43c.82,1.74,3.41.22,2.59-1.51-4-8.33,1.19-18.43,9.83-21,9.93-3,20,2.37,25.33,10.7,10.68,16.6,4.68,39.75-2.18,56.7-1.67,4.12-3.59,9.73-7.46,12.33-4.63,3.11-10.52.92-14.74-1.82-7.11-4.63-12.59-12.31-16.57-19.66-8.36-15.41-12.51-36.16-5.85-52.89,3.52-8.83,10.78-16.69,20.27-19,9.21-2.2,19.27,1.77,23.75,10.22.91,1.71,3.5.2,2.59-1.51Z"/><path d="M790.46,291.69c-.38,19.61-2.47,44.1,13.92,58.46,6.39,5.59,15,8.16,22.88,4.12,8.78-4.49,12.75-14,15.34-22.94,5.47-18.86,9.33-43.94-7.87-58.22-6.44-5.35-17.26-8.35-25.5-8.55-9.51-.24-17.22,6-21.73,14-5.38,9.59-6.82,23.29-5.48,34.06s6.36,20.75,15.24,27.24c1.56,1.15,3.06-1.46,1.51-2.59-15.74-11.52-16-32.75-11.48-49.95,2.39-9,9.15-18.5,19-19.61,7.3-.82,17.84,2.07,24.1,6,16.76,10.44,15.05,33.43,11.12,49.91-2,8.46-4.29,18.24-10.8,24.46-7.81,7.47-17.82,6.13-25.35-1-14.65-13.9-12.29-37-11.94-55.32,0-1.93-3-1.93-3,0Z"/><path d="M773.73,459.15c46.46-11.48,84.53-46.41,115.53-81.23,33.36-37.47,65.5-76.16,96.81-115.35,17.12-21.43,33.95-43.1,50.08-65.29,4.55-6.25-5.86-12.25-10.36-6.05-29.06,40-60.23,78.38-91.93,116.27q-22.9,27.38-46.37,54.29c-14.78,16.94-30.23,33.27-47.5,47.71-20.34,17-43.49,31.66-69.45,38.07-7.49,1.85-4.31,13.43,3.19,11.58Z"/><path d="M786,506.39c65.27-44.19,131.21-89.09,204.23-119.65A207.39,207.39,0,0,1,1022,375.87a100.43,100.43,0,0,1,16.52-2.64c2.73-.18,5.48-.26,8.22-.18q1.83,0,3.66.18l1.83.15q4.47,1.32.27-4.25l2.76-3.58,6,1.87v6.06l.23-.44c3.62-6.82-6.74-12.89-10.36-6.05-5,9.44,10.88,14.33,13.15,4.82,2.84-11.91-16.34-11-23-10.73-24,.9-46.6,10.49-68.22,20.12-43.79,19.5-85.22,43.88-125.47,69.8-22.77,14.67-45.2,29.84-67.62,45-6.36,4.31-.36,14.71,6.05,10.37Z"/><path d="M1025.79,191.23c-8.54,16-12.88,34.15-9.44,52.18a58.7,58.7,0,0,0,26.82,39c13.17,8.23,29.16,14.07,29.06,32.29-.11,17.81-10.82,35.35-18,51.12-3.16,7,7.18,13.09,10.36,6.06,7.39-16.29,16.84-33,19.14-51,2.19-17.19-5.15-30.93-19.53-40.11-6.47-4.14-13.67-7.24-19.74-12a44.69,44.69,0,0,1-14.1-19.66c-6.4-17.26-2.7-36,5.77-51.88,3.64-6.81-6.72-12.87-10.36-6.05Z"/><path d="M403.5,495.59a235.49,235.49,0,0,0-88.28-109.31c-39.83-26.79-85.48-42.78-128.81-62.79-22.1-10.21-50-21-61.9-43.84-3.58-6.85-13.94-.79-10.37,6.05,10.53,20.18,31.53,31.26,51.12,40.95C186.8,337.31,209,346.48,231,356.08c43.32,18.89,86.43,40.06,118.84,75.42a218.25,218.25,0,0,1,42.05,67.28c2.8,7.1,14.41,4,11.57-3.19Z"/><path d="M393.12,517.81c-12.6-20.46-25.74-41.69-44.69-56.95a100,100,0,0,0-65.6-21.94c-51.1,1.16-93.64,31.61-130.42,64.15-22.29,19.73-43.77,40.4-68.49,57.14-6.36,4.3-.36,14.7,6.06,10.36,41.43-28.05,73.8-67.67,116.21-94.29,37-23.23,87.91-37.34,127.31-11.57,21.81,14.26,35.89,37.44,49.26,59.16,4,6.57,14.42.55,10.36-6.06Z"/><path d="M117.73,276.89C102.16,281.05,91.15,303,92,318.24c1.38,25.11,25.21,39.56,32.63,62.05,7.54,22.85-8.11,45.13-19.63,63.61-13,20.84-23.27,42.92-29.18,66.85a195.72,195.72,0,0,0-6,39.91c-.34,10,3.33,21.71,14.89,22.5,7.71.53,7.67-11.48,0-12-5.44-.37-2.16-20.06-1.85-22.8a200,200,0,0,1,6.78-32.94c6.12-21,15.94-39.85,27.46-58.34,10.64-17.06,22.64-36.24,21.4-57.19-1.33-22.6-18.36-36.94-28.84-55.44-5.16-9.08-7.16-17.72-3.59-27.63,2.42-6.7,7.3-16.35,14.82-18.36s4.29-13.57-3.19-11.57Z"/><path d="M835.21,305.4c-.22-9.23-.81-19.14-6.05-27.09-4.75-7.22-13.19-12.22-22-11.56-20,1.48-23.78,29.62-22.69,45.27.61,8.83,3,17.68,8.14,25a39.83,39.83,0,0,0,9.27,9.5c.6.43,3.44,2.43,1.8.81-.88-.88.36.75.52,1a16.91,16.91,0,0,0,2.45,3.19,11.5,11.5,0,0,0,14.92,1.15c3.26-2.42,4.58-6,5.92-9.7,1-2.83-.79,1.15.73-1.43a47.75,47.75,0,0,0,2.5-5.2,58.68,58.68,0,0,0,3.92-12.25A64.78,64.78,0,0,0,822,271.32c-2.26-2.88-6.92-3.56-10.22-2.7-16.57,4.3-13.37,27-11.56,39.7,1.87,13.15,7.33,28.06,19.52,35.08,8.12,4.68,17.41.82,20.87-7.53,2.88-7,2.52-15.92,1.93-23.31-1.34-16.95-8.71-32.53-25.19-39.08-5.58-2.22-11.13,2.5-12.91,7.34a62.56,62.56,0,0,0-.39,41.3,60.35,60.35,0,0,0,9.73,18c5.72,7.23,16.18,10.81,23.53,3.53,5.37-5.31,6.21-14,6.73-21.15a69.93,69.93,0,0,0-2-21.66c-3.15-12.77-14.25-36.69-31.37-27-13.1,7.42-11.21,28.79-8.53,41.16a59.89,59.89,0,0,0,8.5,20.77c5.09,7.44,14.68,11.91,22.48,5.31,5.81-4.92,8.38-14.8,10.41-21.92s3.29-15,2.57-22.44-2.73-15.05-8.45-20.44c-4.87-4.59-11.57-8.25-18.4-8.09-9.38.23-14.6,8-17.42,16a85.35,85.35,0,0,0-5,25.31c-.58,17.34,7.41,34.29,21.86,44,4.41,3,12.07,1.15,14.37-3.77,9.75-20.82,5.19-45.7-13.64-59.75a32.3,32.3,0,0,0-12.78-6.19c-7.16-1.39-13.59,2.58-16.21,9.22-3.8,9.6-1.25,21.57,3.22,30.51,4.39,8.75,14,19.38,24.58,19.25,13.41-.16,16.47-15,16.35-25.56-.19-17.2-7-54.47-32.42-46.72-13.06,4-13.43,18.32-9.19,28.94,4,10.07,10,20.53,18.47,27.5,10,8.18,24.63,6.54,28.14-7.24,2.53-10,.42-21.41-3.54-30.66-3.82-8.93-12.14-22.76-23.7-20.24-11.89,2.6-15.4,19-15.92,29.36-.54,10.82,2.52,23.12,10.53,30.81,8.7,8.35,22.49,8.53,29.43-2.14,6.58-10.12,5-25.48,2-36.53-3.06-11.23-12.36-27.64-26.64-21.12-6,2.72-8.09,10.52-9.36,16.53a57.3,57.3,0,0,0-1.17,16.77,58.52,58.52,0,0,0,13,32.24c3.55,4.43,11.15,3.71,14.85,0,4.37-4.37,3.56-10.41,0-14.84-7.69-9.59-9.26-24.71-4.18-35.81l-6.27,4.83c-1.87-1.47-3-1.64-3.41-.51l.13.19c0,.08,1.76,3.81,1.83,4A48.21,48.21,0,0,1,819.4,302a39,39,0,0,1,.08,10.63s-.7,3-.76,2.94c-.57-.71,2.51-1.31,2.51-1.32-.05.16.51-.18.51-.19-.2.46-2.07-2.64-1.94-2.43a20.9,20.9,0,0,1-2.37-8,32.63,32.63,0,0,1,.11-7.65,29.32,29.32,0,0,1,1.43-5.6c.14-.45.29-.89.45-1.33q2-3.12-1.55,0h-5.59c-2-1.38-2.26-1.35-.67.09.35.42.72.84,1.1,1.24a27.33,27.33,0,0,1,2.18,3.27,32.6,32.6,0,0,1,4.56,15.82c0,1.31-.52,3.36-.17,4.62-.13.42-.24.85-.34,1.28l6.2-4.07c-.09-.91-3.82-4.08-4.53-5a55.7,55.7,0,0,1-5.64-8.82c-1.42-2.68-2.24-5.51-3.47-8.26,1.65,3.69-.47-1.63-.43-1.62,3.63.66-3,2.92-3,3s-.45.06-.54.29,1.51,2.7,1.61,2.92a53.78,53.78,0,0,1,2.94,10,60.91,60.91,0,0,1,1.35,9.69c.12,2.12-.67,8.37-.09,9.45s-.71.68,3.13-.44c4.17-1.21,2.35-.87.42-2.6a20.86,20.86,0,0,1-4.46-5.8,23,23,0,0,1-2.45-7,20.58,20.58,0,0,1-.29-3c-.19-5.47,1.3-.88-3.08-.1H801c6.24,1,11.56,7.27,14,12.76a27.45,27.45,0,0,1-.18,22.33l14.36-3.76c-6.36-4.28-10.19-12.05-11.26-19.52a43.09,43.09,0,0,1,1-15.34c.31-1.38,4.15-12.16,3.85-12.45.38.36-3.19,1.12-3.21,1.17a10.25,10.25,0,0,1,2.65,1.48c2.33,1.75,2.84,5.12,3,8.56.36,9-2.31,20.92-7.58,28.28l3.77-3.76.18,0h5.58c1.2,1.07,1.58,1.34,1.15.8-.58-.94-1.13-1.89-1.64-2.87a38.1,38.1,0,0,1-2-4.3,50.23,50.23,0,0,1-2.93-11,46.37,46.37,0,0,1-.16-11.71,26.82,26.82,0,0,0,.53-3.07c.26-1.34.4-1.68.4-1q-9.51-1-6.87,1.68c.05.8,1.76,2.75,2.21,3.6a38.23,38.23,0,0,1,2,4.21,51,51,0,0,1,2.93,11.15,53.14,53.14,0,0,1,.29,10.4,34.87,34.87,0,0,1-.7,5.39q-.27,1.41-.66,2.79a5.32,5.32,0,0,1,1.46-1.82l5.3-1.43c1-.11,1.76,1.6,1.68.67,0-.62-1.35-1.91-1.7-2.45a43.89,43.89,0,0,1-2.94-5.22,42.51,42.51,0,0,1-3.33-11.13,43.38,43.38,0,0,1,2.48-22.07l-12.92,7.33c5.43,2.16,8,9.27,9.12,14.44a52.6,52.6,0,0,1,.87,11.69c0,2.44-.18,4.87-.29,7.31.16-.83.09-.58-.2.74a6.18,6.18,0,0,1,3.3-3h5.58c-1.27-.2-4.12-4.05-5.34-6.32a40.19,40.19,0,0,1-3.65-11.5A80.31,80.31,0,0,1,820,295.21a57.22,57.22,0,0,1-.08-7c0-.07,0-1.84.11-1,.34-1.26.44-1.6.28-1a3.68,3.68,0,0,1-2.95,2.69l-10.22-2.7c6.09,7.76,8.28,18.22,7.79,27.87a40.49,40.49,0,0,1-2.86,13c-1.15,2.81-2.85,5.32-4,8.15-.34.88-.71,1.77-1,2.67-.58,2-.15-.15.72-.89l7.42-3.08-.57,0,5.3,1.43c2.17,2.35,2.71,2.69,1.61,1a18.83,18.83,0,0,0-2.18-3,25.34,25.34,0,0,0-4.5-3.49,20,20,0,0,1-6.11-6.67c-3.75-6.68-4-14.9-2.9-22.33.59-4,2.11-7.86,2.76-11.84-.53,3.26.83-2.18.38-1.53-.57.82-2.13-1.7.36.24,5,3.85,4.7,11.4,4.84,17.57.33,13.49,21.33,13.54,21,0Z"/><path d="M576.38,318c-2.63-7.43-6.45-15.73-12.93-20.58C555,291.12,543.73,294.64,541,305c-4,15-1,32.14,5.12,46.12,3,6.83,7.13,14.65,13.62,18.73,8.69,5.47,20,1.68,22.48-8.62,1.64-6.69,2.2-13.79,3.74-20.56,1.42-6.26,2.84-12.76,2.69-19.2-.3-12.47-7-24.42-15-33.76-4.83-5.62-11.21-8-18.52-6.45-9.91,2.12-12,10.73-13.38,19.5-2.67,16.55-3.09,34,.56,50.43,1.49,6.73,4.4,13.57,9.35,18.49.44.43,4.18,4,4.67,3.7-.52.3-3.05-4.3-.94-.14,1.7,3.36,4,6.22,7.84,7.3,10,2.85,14.51-7,15.58-14.89-.06.44.63-3.86.25-1.85-.29,1.49.19-.71.21-.76.45-1.87.77-3.77,1.05-5.66a87.51,87.51,0,0,0,1.09-12.2c.08-15.94-5.14-32.24-17.12-43.21-6.31-5.77-14.55-2.68-17.55,4.64a55.64,55.64,0,0,0-1.46,37.07c3.39,10.89,13.56,30,27.67,20.68,10.07-6.66,10.47-24.68,8.92-35.28-1.62-11-6.89-22.7-15.5-30.07-6-5.13-14.81-6.36-20.58-.07-4.49,4.9-5,12.95-5.31,19.27a62,62,0,0,0,9.64,36.07c4,6.14,9.77,11.28,17.66,9.61,7.16-1.51,11.75-7.59,13.85-14.32,3.84-12.32,2.44-28.83-5.84-39.09-3.64-4.51-8.95-7.76-14.94-7.53-8.49.34-13.93,7-16.48,14.43-4.25,12.41-2.32,26.92,4.53,38,3.14,5.08,7.5,10.31,13.58,11.83a17.42,17.42,0,0,0,16.69-4.77c3.14-3.42,4.7-8.34,6.35-12.57.63-1.6,1.26-3.2,1.83-4.81.25-.69,1.25-3.33-.14.19a33.46,33.46,0,0,0,1.9-5.47c1.24-5.75.18-11.83-1.56-17.37s-3.77-11.7-6.66-16.21c-3.42-5.35-10.22-7.58-15.85-4.15-2.56,1.57-3.58,3.91-5.53,6,.66-.72.63-.43-.38.18a27.32,27.32,0,0,0-3,1.52c-10.79,7.17-11.06,21.72-9.36,33.2,1.62,11,9.3,29.8,23.55,26.48,8.59-2,11.71-11.25,13.52-18.85a64.46,64.46,0,0,0,1.56-20.94c-1.23-12.77-6.49-34.82-22.61-35.4-20.42-.72-18.58,24.83-16.73,38.19,1.9,13.73,4.84,31.68,17.31,39.85,5.33,3.5,14.23.25,15.42-6.27,4.16-22.77-2.66-46.18-19.35-62.46-5.32-5.19-12.41-3.19-16.49,2.13-15.7,20.43-7.82,51.49,15.41,62.34,6.54,3.06,12.88.47,15.42-6.27a50,50,0,0,0-.33-35c-4.15-10.7-13.92-26.13-26.84-26.69-17.86-.78-18.64,22.69-16.25,35,2.78,14.31,11.36,26.45,19.85,37.93,7.18,9.71,21.13,3.92,19.19-8.09a205.74,205.74,0,0,0-6.6-28.36q-2.16-6.94-4.84-13.74c-1-2.54-2-5.06-3.13-7.56-.47-1.11-.89-2.28-1.45-3.34-1.45-2.74-.23-1.16-.17,1.36,0-1.68-.65,2.68-.09.4.22-.87.36-1.77.56-2.65.44-2,.94-3.92,1.41-5.88,1.37-5.63,2.43-10.64-1.71-15.54-2.28-2.7-6.93-3.77-10.22-2.7-6,1.95-8.46,8.06-10.4,13.54-2.3,6.48-.85,15.42-.19,22.16,1.51,15.62,5.27,30.69,15.54,42.94,3.64,4.35,11.08,3.77,14.85,0,4.3-4.3,3.65-10.49,0-14.85-5.86-7-8.06-17-9.16-25.86a146.92,146.92,0,0,1-1-16.11c0-.42.09-4.24-.21-2.08-.27,1.92.45-.75.68-1.24.77-1.69,2.78-3.81,0-.93l-4.63,2.7.08,0-10.21-2.7,0,.06-2.7-4.64c-.08-.49.47-6.14-.25-3.68-.22.76-.35,1.57-.54,2.35-.46,1.94-1,3.87-1.41,5.81-.92,3.95-2.16,8.32-1,12.34,1.3,4.54,4,9,5.7,13.4q2.28,6,4.18,12a205.74,205.74,0,0,1,6.6,28.36l19.19-8.09c-5.5-7.43-11.45-15.08-15-23.69a39.27,39.27,0,0,1-3-11.65,27.8,27.8,0,0,1,0-5.91,20.16,20.16,0,0,1,.72-3.05q-11,.72-5.95,3.42c1.67,2.33,4.08,4,5.66,6.48a32,32,0,0,1,4,9,30.55,30.55,0,0,1-1.21,19.19l15.43-6.27c-13.79-6.44-17.08-21.64-7.88-33.62l-16.49,2.13c11,10.77,16.75,26.69,14,42l15.43-6.27c-2-1.28-2.78-5.71-3.4-7.72a114.88,114.88,0,0,1-3.1-12.38,93.55,93.55,0,0,1-1.49-11.67,56.16,56.16,0,0,1-.23-7.1c.2-3.07.36-1.21-3.11-.9-4,.36-3-.52-2.41,1.56.48,1.71,1.58,3.42,2.14,5.14a43.5,43.5,0,0,1,2.17,10.22,46.74,46.74,0,0,1-.28,10.44c-.38,2.52-1.19,8.3-2.93,9.78l4.64-2.7-1.24.36h5.59c1.35.26,1.81,2.4.37-.23-.37-.68-.81-1.32-1.15-2a22.86,22.86,0,0,1-1.72-5.12,33.8,33.8,0,0,1-.81-11.53c.49-3.59.54-2.68,3.51-4.51a21.06,21.06,0,0,0,4.94-4.23c.79-.92,1.53-1.91,2.23-2.89,1.26-1.74-1.23,1-1.63,1.27l-5.3,1.43.36,0-5.3-1.43c-2.54-1.32-3.66-5.08-1.62-.21.17.42.36.85.53,1.27,1,2.54,2,5.1,2.84,7.73a20.84,20.84,0,0,1,1.14,5.68,8,8,0,0,1-.2,1.62c.32-2.57-.5,1.26-.82,2.05-.55,1.38-1,2.77-1.57,4.15-.33.87-.67,1.73-1,2.59-.17.42-1,2.36-.43,1.09-.32.72-.77,1.44-1,2.19-.58,1.65-.71.65.37-.07a2.76,2.76,0,0,1,3-1.12,3.31,3.31,0,0,1,1.59.21c.2-.24-.11.29-.67-1-1.85-4.24-4.17-7.38-4.64-12.21a23.89,23.89,0,0,1,.47-7.82c.18-.77,1-2.62,1-3.22a.24.24,0,0,0,.05-.16q.35-2.88-5.58.55c0-.52,1.73,2.8,1.69,2.7a24.63,24.63,0,0,1,1.63,7.25,28.94,28.94,0,0,1-.44,8.26c-.16.74-.51,1.92-.55,2.45-.2,2.31-1.13,0,.73-.31h5.59a1.85,1.85,0,0,1,1.38,1.39c-.62-.89-1.21-1.79-1.76-2.72a42.75,42.75,0,0,1-2.3-4.27,44.41,44.41,0,0,1-2.85-8.95,40.52,40.52,0,0,1-.83-9.26,39.2,39.2,0,0,1,.31-4.84c.28-1.91,2.23-4.68-.28-2.05l-4.63,2.7q-6.47-2.55-3.23.2a6.39,6.39,0,0,0,1.15,1.23,33.91,33.91,0,0,1,6.42,14.71c1,5.63.76,13.59-2.58,18.22l3.77-3.77.39-.18h5.59c1.14,1.06,1.58,1.26,1.33.6-.56-.86-1.09-1.73-1.58-2.62a28.88,28.88,0,0,1-1.54-3,36.64,36.64,0,0,1-2.49-9.1,38,38,0,0,1,2.94-19.7l-17.55,4.63c6.84,6.26,10.26,14.82,10.84,24a56.89,56.89,0,0,1-.81,14.51c-.46,2.34-.88,4.62-1.22,7-.43,3,.51-2.1-.2,1.25-.87,4.08-1.12-.42,2.84-2.16l8.09-1.06-.33-.14,4.63,2.7c1.88,2.28.34,0,0-.72a14,14,0,0,0-2-3.27c-1.52-1.93-3.88-3-5.29-4.52-3-3.31-3.78-9.4-4.37-13.76a123.13,123.13,0,0,1-.84-22.3c.33-7.11.67-15.54,3.38-22.18l-2.7,4.63a3.05,3.05,0,0,1-2.38,1c2.22,0,1.66-.25-1.69-.78-.67-.57-.72-.59-.16-.07a13,13,0,0,1,1.14,1.21c-.6-.7,1.16,1.65,1.4,2,.62,1,1.18,1.93,1.79,2.88,2.58,4.07,5.38,8.38,5.87,12.54.68,5.75-.7,10.56-2,16.22-.77,3.41-1.58,6.81-2.21,10.25-.51,2.79-.15,7.7-1.59,9.79l3.77-3.76,5.81.42-1-1a8,8,0,0,0-1.08-1.63,52.47,52.47,0,0,1-7.49-17.61c-1.67-7.08-2.72-16.44.1-23.35l-2.7,4.63-.28.2-5.3,1.43c-1.09,0-2.3-1.43-2.47-.88s2,3.05,2.31,3.5a32.69,32.69,0,0,1,2.77,5.86c1.9,5.34,7.17,8.91,12.92,7.33,5.17-1.42,9.24-7.54,7.33-12.91Z"/><path d="M584.91,398.63c11.84-8.23,18.47-23.38,22.54-36.74,4.55-14.93,7.43-32.14,6.45-47.76-.91-14.7-5.66-29-15.23-40.3-9.87-11.71-25.21-20.78-40.4-23-30.91-4.56-54.37,22.54-61.86,49.89a87.49,87.49,0,0,0,20.44,82.62C527.61,394.83,543,405.43,559,407c15.7,1.51,29.62-7.84,37.5-20.89,4-6.63-6.37-12.67-10.36-6.06-5.6,9.27-15.07,16-26.3,15-11.65-1-23.16-9.15-31.37-17a75,75,0,0,1-22.34-65.86c3.5-21.58,18.35-48.27,42.86-49.89,13-.86,26.38,6,35.83,14.53,9.25,8.34,14.58,19.5,16.47,31.72,2.19,14.15-.28,29.56-3.59,43.35A95.53,95.53,0,0,1,590,373.43c-2.78,5.37-6,11.31-11.11,14.83-6.29,4.38-.3,14.79,6.06,10.37Z"/><path d="M770.31,299.53C768.66,280,773.93,253,796,247.47c21.82-5.41,40.42,12.35,48.23,31.07,4.4,10.54,7.74,23.48,7.54,35-.1,5.67-1.56,11.2-2.94,16.66s-2.91,11.08-5.66,16.18c-5.09,9.44-14,18.49-23.62,23.24-10.39,5.09-19.49.87-27.8-5.95-7.76-6.36-11.72-18-14.69-27.19a147.79,147.79,0,0,1-7-39.89c-.29-7.7-12.29-7.73-12,0a160.94,160.94,0,0,0,7.2,42.32c3.37,10.67,7.85,22.85,15.71,31.13,8.38,8.84,21.31,15.6,33.61,13.66,13.48-2.13,25.56-12.77,33.66-23.24s12-23.59,14.35-36.59c2.65-14.36-.27-29.85-4.94-43.57-8.17-24-28.56-47.26-56-45.66-32.85,1.9-45.75,36.17-43.32,64.93.65,7.64,12.65,7.71,12,0Z"/><path d="M529.8,481.27c8.28,40.38,15.53,81.75,29.82,120.54,5.44,14.8,12.92,28.39,21.24,41.75,7.75,12.45,16.51,24.48,27.29,34.49a124.55,124.55,0,0,0,41.09,25c17,6.42,36.57,11.29,54.85,9.61,8.77-.81,17.79-2.09,26.22-4.74,8.82-2.77,16.45-8.33,23.4-14.28,14.82-12.69,25.81-29.66,33.21-47.6,17.1-41.5,14.05-89.78-5.29-129.94-3.35-6.95-13.7-.87-10.36,6.06,16.06,33.36,19.45,72.81,8.55,108.27a122.16,122.16,0,0,1-26.43,46.9c-6.24,6.76-13.61,13.11-21.86,17.26-6.62,3.34-14.72,4.44-22,5.44-17.69,2.45-35.18-1.12-52-6.73a112,112,0,0,1-38.47-21.54c-10.21-8.94-18.5-19.62-25.81-31-7.61-11.85-15-24.15-20.24-37.27-15.82-40-23.07-83.46-31.68-125.43-1.55-7.56-13.12-4.36-11.57,3.19Z"/><path d="M535.43,487.08c31,34.47,61.7,70.71,101.19,95.82,19.12,12.17,40.38,21.32,62.7,25.57,23.67,4.51,49.77,3.12,67.93-14.59,17.25-16.83,22.93-42.13,24.77-65.3.62-7.7-11.39-7.66-12,0-1.48,18.64-5.68,39.38-18.42,53.83-15.59,17.67-39.8,18.49-61.42,14C658.35,587.8,623.84,562,594,532.58c-17.48-17.25-33.68-35.73-50.1-54-5.17-5.76-13.64,2.75-8.48,8.48Z"/><path d="M261.55,314.58C274.22,306.22,282.87,295,292,283c10.6-13.9,20.4-28.39,29.73-43.17,17.72-28.05,33.81-57.14,52.8-84.38,19.76-28.35,43.17-53.71,68.91-76.73,24.58-22,52-41.76,82.87-54C583,2.27,653.5,8.1,692.56,59.49c19.56,25.74,29.92,57.2,38,88.12C740.05,184.14,746,221.49,750.26,259c4.26,37.71,6.91,75.59,9.76,113.43q4.49,59.19,9,118.39l2.18,28.85c.57,7.65,12.58,7.71,12,0-6-79.56-10.82-159.33-18.59-238.74-3.75-38.3-8.77-76.57-17.09-114.17-7.4-33.43-16.7-67.62-34-97.42C697.42,41.8,674,20.27,644,9.12,615-1.68,582.57-2.3,552.48,4.18c-32.69,7-62.93,23.33-89.58,43.18a446.26,446.26,0,0,0-75.71,71.76c-44.36,53.25-72.28,117.73-116.25,171.32a67.4,67.4,0,0,1-15.45,13.77c-6.42,4.24-.41,14.63,6.06,10.37Z"/><path d="M240.69,501.43c18.05,17.74,30.81,40.13,41.59,62.83,11.15,23.48,20.06,47.92,29.18,72.23a1034.61,1034.61,0,0,0,78.76,164.26c16.08,27.12,33.07,54.12,52.22,79.2,18.24,23.88,39.8,43.1,69.41,51,29.32,7.85,62.95,9.42,92.51,2.07,27.54-6.84,50.88-23.68,68.95-45.22,18.5-22.05,32.05-47.76,43.55-74A497.26,497.26,0,0,0,747,722c1.72-7.75,3.23-15.54,4.58-23.36,1.31-7.55-10.25-10.8-11.57-3.19a493.4,493.4,0,0,1-24.73,90.84c-10.19,26.89-22.49,53.54-38.67,77.39-14.79,21.81-34,41.57-58.51,52.18-28,12.13-61.33,11.61-90.91,6.22-14.67-2.67-28.88-7.28-41.38-15.57-11.55-7.66-21.2-17.92-29.84-28.66-19.07-23.71-35.4-50.08-51.11-76.09a998.38,998.38,0,0,1-79.15-161.51C308.15,594.12,292.34,545,261,506a150.69,150.69,0,0,0-11.82-13.07c-5.51-5.42-14,3.06-8.48,8.49Z"/><path d="M194.54,485.38c8.68,0,17.89-1.27,26,1.67,12,4.38,21.56,15.88,30,24.9,5.28,5.65,13.75-2.85,8.48-8.49-9.86-10.57-20.65-22.49-34.53-27.71-9.5-3.57-20-2.39-29.89-2.37-7.72,0-7.74,12,0,12Z"/><path d="M11.43,549c18.51-26.77,50.65-41.35,79.37-54.44,7-3.2.93-13.55-6-10.37C53.8,498.34,21,514.21,1.06,543c-4.4,6.37,6,12.37,10.37,6.06Z"/><path d="M22.1,124.49C38.16,190.55,52.79,260,45.87,328.32A226.59,226.59,0,0,1,37,372.76c-3.19,10.26-7.61,20-10.57,30.37-6.61,23-10.93,46.74-15.07,70.3-4.24,24.1-8,48.3-11.13,72.57-1,7.64,11,7.57,12,0,2.68-21,6-42,9.56-62.84,4.16-24.28,8.57-48.66,15-72.46,2.55-9.47,6.13-18.36,9.41-27.58a222,222,0,0,0,10.42-44.43c4.49-33,3.21-66.57-.64-99.61-4.63-39.73-12.88-78.94-22.32-117.78-1.82-7.5-13.4-4.33-11.57,3.19Z"/><path d="M22.71,125.92a627.49,627.49,0,0,0,83.17,126.77c15.38,18.2,31.59,36.08,50.48,50.71,17.52,13.58,39.42,26.51,62.3,26.11,25.25-.44,47.81-15.32,63.62-34.12,4.94-5.88-3.5-14.41-8.48-8.49-13.08,15.55-31.19,29.06-52.13,30.49-21.31,1.46-41.87-10.87-58.12-23.48-17.71-13.74-33-30.66-47.45-47.66a605,605,0,0,1-43-57,624.38,624.38,0,0,1-40-69.38c-3.43-6.92-13.78-.85-10.36,6.06Z"/></g></g></svg>