<svg xmlns="http://www.w3.org/2000/svg" viewBox="0 0 828.43 902.29"><title>Analitic</title><g id="Слой_2" data-name="Слой 2"><g id="Слой_1-2" data-name="Слой 1"><path d="M142.47,460.63c3.62,67.07,20.22,132.59,43,195.56,11.25,31.11,23.95,61.69,37.44,91.88,12.2,27.3,25.35,54.39,42.42,79,16.56,23.91,37.13,46.18,62.55,60.79,13,7.49,27.36,12.63,42.38,14,15.9,1.46,32.12-1.18,47.24-6.1,53.65-17.46,92.95-63.31,116.52-113,14.11-29.73,23.61-61.38,31.59-93.24,8.39-33.51,15.74-67.31,23.47-101L595,562.77c.86-3.76-4.92-5.37-5.79-1.6-7.6,33.14-15.14,66.3-22.83,99.42-7.17,30.92-14.82,61.85-25.94,91.63-19.66,52.62-52.73,103.54-104.28,129.44-27.18,13.65-59.29,19.73-88.48,9C320,880.46,297.11,858.83,279.22,836s-31.65-48.88-43.94-75.16C221.8,732,209.39,702.56,198,672.84c-23.14-60.58-41.39-123.58-47.77-188.3q-1.17-11.93-1.8-23.91c-.21-3.84-6.21-3.86-6,0Z"/><path d="M183.54,308.38c-2.35-7.59.05-15,2.24-22.36q3.58-12,7.39-23.87,7-22,14.72-43.71,15.92-44.94,34.74-88.76c21-48.81,49-105.64,105-120.48C362.16,5.35,377.33,5.46,392.2,7c15.48,1.59,31.35,4.11,45.84,10,25.76,10.49,46,32.08,61.53,54.56,15.94,23,27.59,48.77,37.08,75.06a682,682,0,0,1,25,86.85c7.46,34.46,11.16,69.42,12.17,104.64.51,17.55.43,35.11.06,52.66q-.28,13.67-.77,27.33-.23,6.82-.48,13.65l-.21,5.85-.15,3.9c-.61,2.33.49,3.91,3.28,4.72L573,447.71l.48,0c3.85.26,3.84-5.74,0-6l-.48,0a2.91,2.91,0,0,0-2.59,1.48c-1.48,3.13.67,7.25,4.49,6,5.34-1.77,3.58-12.32,3.74-16.44.63-17.23,1.21-34.47,1.45-51.72.5-34.73-.35-69.56-4.8-104-4.28-33.16-11.91-65.77-21.59-97.74-8.7-28.77-18.78-57.34-32.83-84-13.59-25.77-31.29-50.59-54.53-68.52C441.42,7.52,410,1.06,379.07.06c-29.35-.94-56,9-78.32,27.85-23.2,19.61-39.05,46.17-51.92,73.32C234.75,131,222.51,161.67,211,192.46c-11.94,31.89-23.57,64.3-32.51,97.17-1.83,6.73-2.81,13.56-.72,20.34,1.14,3.68,6.93,2.11,5.79-1.59Z"/><path d="M373.73,395c24.5,21.94,50.16,43.34,79.52,58.54a181.06,181.06,0,0,0,45.44,16.7c16.17,3.43,33.7,4.9,49.65-.34,15.27-5,28.48-16.69,32.34-32.67.9-3.76-4.88-5.36-5.79-1.6-8.24,34.14-50.53,34.51-77.83,28.1-29-6.79-55.16-21.93-78.88-39.55-14-10.4-27.23-21.8-40.21-33.43-2.87-2.57-7.13,1.66-4.24,4.25Z"/><path d="M359.42,398.58c12.25,62,26.27,129.36,75.24,173.71C455.29,591,481,604.51,509,607c15.14,1.35,31.44-.3,44.61-8.44,11.24-7,19.31-17.87,24.78-29.74,7-15.19,10.24-31.73,12.44-48.21a295.67,295.67,0,0,0,1.57-62.73c-.31-3.82-6.31-3.85-6,0,2.55,31.76,1.14,65.74-8.72,96.26-4.09,12.68-10.3,25.19-20.36,34.2-11.63,10.41-27.16,13.48-42.37,13-58.49-1.78-101.84-51.63-122.56-102.05C379,466.57,372,431.6,365.21,397c-.75-3.79-6.54-2.18-5.79,1.59Z"/><path d="M544.92,165.31c7.79-7.21,19.75-9.25,29.94-10.54a100.31,100.31,0,0,1,32.66,1c19.78,4,37.83,15,49,32,24.63,37.54-.22,80.72-28.12,108.45-16,15.87-35.56,28.11-58.11,31.44-3.81.56-2.19,6.35,1.59,5.79,21.63-3.19,40.87-14.47,56.76-29.15,16.49-15.24,31.15-34.46,39.09-55.59,7.67-20.42,6.86-42.55-4.45-61.45-10.85-18.14-28.91-30.8-49.22-36.17a105,105,0,0,0-39.6-2.35c-11.77,1.47-24.8,3.94-33.79,12.26-2.84,2.63,1.42,6.87,4.25,4.24Z"/><path d="M417.52,186.47C401.12,164.88,375,152.84,348,152.29A88.34,88.34,0,0,0,277,185.76c-17.34,21.77-25.53,50.52-21.26,78.12,4.32,27.86,21.21,52.73,43.76,69.22,13.59,9.94,29.73,17.06,46.45,19.51,19.65,2.89,36.58-3.92,52-15.79,3-2.32,0-7.54-3-5.18-12.83,9.9-26.89,16.83-43.49,15.59-14.23-1.07-28.32-6.44-40.49-13.74-22.45-13.47-40.13-35.33-47.12-60.71-13.89-50.42,20.14-109.08,74-114.12,27.91-2.61,57.36,8.19,74.56,30.84,2.3,3,7.52.05,5.18-3Z"/><path d="M541.24,94.31A33.62,33.62,0,0,1,539.5,85l-.07-1.2c0-.4,0-.79,0-1.19l.05-2.39c0-.8.14-1.59.22-2.39s.17-1.6.3-2.39a52,52,0,0,1,2.46-9.41,48.88,48.88,0,0,1,1.93-4.53l1.1-2.23c.38-.74.82-1.44,1.24-2.16.82-1.45,1.81-2.79,2.73-4.2.49-.68,1-1.32,1.55-2s1-1.31,1.62-1.94l1.69-1.9c.58-.62,1.21-1.19,1.82-1.79,1.21-1.2,2.56-2.26,3.85-3.39a59.6,59.6,0,0,1,8.59-5.67c1.49-.85,3.07-1.51,4.62-2.26s3.16-1.31,4.79-1.83a59.18,59.18,0,0,1,39.89.57,44.22,44.22,0,0,1,4.7,2.1,36.65,36.65,0,0,1,4.6,2.71,31.29,31.29,0,0,1,8,7.7,22,22,0,0,1,4,10.36,14.51,14.51,0,0,1-2.26,10l-1.48-.27a14.07,14.07,0,0,0-1.09-7.75,18.27,18.27,0,0,0-4.66-6.37c-4-3.58-9.22-5.55-14.53-6.71a60.4,60.4,0,0,0-32.37,1.89,58.42,58.42,0,0,0-14.63,7.26,60.63,60.63,0,0,0-12,11.11,63.38,63.38,0,0,0-4.82,6.66,64.15,64.15,0,0,0-3.85,7.29,59,59,0,0,0-4.74,15.79Z"/><path d="M363.45,116.56c-1.33-1-2.53-2.09-3.72-3.14s-2.4-2.06-3.53-3.1c-2.34-2-4.55-4-6.82-5.93-4.47-3.84-8.81-7.44-13.18-10.67-2.17-1.63-4.37-3.1-6.51-4.58-1.11-.67-2.22-1.34-3.26-2.06l-3.27-1.88A78,78,0,0,0,310,79.43a32,32,0,0,0-3.34-1,31.54,31.54,0,0,0-3.28-.83,45.54,45.54,0,0,0-6.06-.82,25.72,25.72,0,0,0-5.1.27c-.39.06-.76.15-1.14.24s-.72.29-1.14.38a7.61,7.61,0,0,0-1.17.45,6.84,6.84,0,0,0-1.18.59l-.6.33-.6.4a10.77,10.77,0,0,0-1.23.88c-.82.63-1.6,1.43-2.47,2.23a48,48,0,0,0-4.8,6.1c-1.59,2.29-3.1,4.82-4.67,7.47s-3.11,5.41-4.94,8.19l-1.48-.21a107.55,107.55,0,0,1,3.38-17.92,48.78,48.78,0,0,1,3.47-8.58A31.5,31.5,0,0,1,279.2,70a25,25,0,0,1,7.87-5.31,29.77,29.77,0,0,1,9.21-2.14,42.21,42.21,0,0,1,9.34.4,38.64,38.64,0,0,1,4.55.94,42.84,42.84,0,0,1,4.47,1.24C326.42,69,336.75,76.43,345,85.41a108.38,108.38,0,0,1,11.16,14.48,129.46,129.46,0,0,1,8.64,16Z"/><path d="M374.66,215.07c-4.26-8-13.05-12.62-22.08-12.31-9.28.32-17.58,5.92-22.89,13.29-13.06,18.14-8.39,45.23,1.61,63.67,4.85,8.95,12.05,18.76,21.68,22.89,9.81,4.21,16.57-1,20.6-9.85,9-19.83,17.16-50.06.35-68.18-7.35-7.92-20.08-11.42-29.74-5.5a18.5,18.5,0,0,0-7.1,23.42c.83,1.75,3.41.23,2.59-1.51-3.94-8.32,1.19-18.43,9.84-21,9.92-3,20,2.38,25.32,10.7,10.69,16.6,4.68,39.75-2.18,56.7-1.67,4.13-3.58,9.73-7.45,12.33-4.64,3.12-10.53.92-14.74-1.82-7.12-4.62-12.59-12.3-16.58-19.65-8.35-15.41-12.51-36.16-5.84-52.9,3.51-8.83,10.77-16.68,20.26-18.95,9.21-2.2,19.27,1.77,23.76,10.23.9,1.7,3.49.19,2.59-1.52Z"/><path d="M584.42,214.53c-.37,19.6-2.47,44.1,13.93,58.45,6.61,5.79,15.51,8.22,23.51,3.77,8.65-4.81,12.4-14.38,14.94-23.42,5.2-18.43,10.39-43.86-7.81-57.19-7.47-5.47-18.36-8.77-27.58-8.87-9.77-.12-16.79,5.15-20.47,14-8.21,19.9-8.68,47.48,10.29,61.37,1.56,1.14,3-1.46,1.51-2.59-15.79-11.56-16-32.72-11.48-50,2.48-9.51,6.75-19,17.83-19.82,8.14-.62,17.63,2.29,24.74,6.13,18,9.74,16.23,32.16,11.95,49.08-2.16,8.55-4.22,18.28-10.54,24.83-7.69,8-18.19,6.84-25.88-.51-14.61-14-12.29-37-11.94-55.32,0-1.93-3-1.93-3,0Z"/><path d="M584.63,390c31.58-10.79,56.11-34.09,78-58.45,25.5-28.4,49.64-58.08,73-88.26q20-25.89,39.26-52.38l-5.48-2.32-.86,5.79c-.56,3.78,5.22,5.41,5.79,1.6l.85-5.79a3,3,0,0,0-5.48-2.31c-22.23,30.58-45.18,60.63-69.12,89.89C678.78,304.42,656.83,332.16,631,355c-14.13,12.49-30,23.05-47.91,29.18-3.64,1.25-2.07,7,1.59,5.79Z"/><path d="M581.14,433.58c54.72-37,110-74.65,171.28-100.18a171.64,171.64,0,0,1,26-8.85,86.17,86.17,0,0,1,14.37-2.28c2.39-.16,4.8-.22,7.2-.14.93,0,11.64.61,10-1.64v3l.19-.41c1.61-3.48-3.56-6.53-5.18-3l-.19.41a3,3,0,0,0,0,3c2.37,3.18,8.22,2.11,7.48-2.48-1.13-7.06-15.66-5.07-20.36-4.7-19.12,1.5-37.11,9.27-54.41,17.05-36.07,16.21-70.21,36.36-103.42,57.75-18.83,12.14-37.39,24.7-55.95,37.26-3.18,2.16-.18,7.36,3,5.18Z"/><path d="M783.85,173.52c-12.76,24-12.26,56.16,12.39,72.4,11.39,7.51,25.89,12.2,26.59,28.17.69,15.6-9,31.29-15.24,45-1.59,3.49,3.58,6.55,5.18,3,10.26-22.62,28.62-54.35,1.5-72.48-5.24-3.51-11-6.1-16.2-9.72a39,39,0,0,1-13.61-17.43c-6.11-15.17-2.9-31.91,4.57-45.95,1.82-3.41-3.36-6.45-5.18-3Z"/><path d="M267.78,403.63a185,185,0,0,0-68.45-85.18c-31.62-21.5-68-34.25-102.52-50.15C78.73,260,56.2,251.15,46.42,232.57l-4.11,4.11,5,3.23c3.25,2.11,6.26-3.08,3-5.18l-5-3.23c-2.64-1.72-5.43,1.58-4.1,4.1C49.33,251,65.12,259.48,80.1,266.94c17.13,8.54,34.83,15.87,52.37,23.5,34.66,15.08,69.22,31.91,95.24,60.1A176.18,176.18,0,0,1,262,405.22c1.4,3.55,7.21,2,5.78-1.59Z"/><path d="M259.72,421.7c-11-17.94-22.68-36.51-40.31-48.7-17.19-11.89-38.34-15-58.72-11.91-45.64,6.84-78.59,40-111.26,69.54-10,9.1-20.28,18-31.33,25.85-2.79,2-9.25,8.15-11.89,2.1-2-4.66,7.65-4.61,7.32.49-.25,3.85,5.75,3.84,6,0,.47-7.3-8-11.77-14.4-9.32-7.71,3-6,12.5.25,16a10.25,10.25,0,0,0,10.06.26c5.07-2.89,10-7.36,14.59-11,10.45-8.14,20.28-17,30-26,19.31-17.72,38.6-36.26,62-48.57,21.79-11.48,48-18.53,72.47-12.29,28.84,7.37,45.36,32.7,60,56.55,2,3.28,7.21.27,5.18-3Z"/><path d="M39.5,237.87c-14.3,3.88-18.2,20.69-13.72,33.27,6.12,17.17,24.34,29.09,25.54,48.11,1.14,18.19-11.77,34.39-20.66,49.11A170.41,170.41,0,0,0,9.83,420.62c-2,9.23-4.15,19.7-3.49,29.18.43,6.26,3.09,12.61,10,13.19,3.85.32,3.83-5.68,0-6-6.41-.54-3.72-15.34-3.33-18.94a161.42,161.42,0,0,1,4.91-25.31c4.49-16.27,11.63-31.3,20.51-45.61C46.15,354.74,55,341.84,57,327c2.15-15.89-6-28-15-40.18-5.44-7.31-11.54-15.62-12.07-25.07-.43-7.66,3.43-16,11.25-18.14,3.72-1,2.14-6.79-1.59-5.78Z"/><path d="M182.37,289.66c-11.07-9.91-14-25-15.62-39.13-2-17.51-3.13-35.15-3.52-52.77a597.29,597.29,0,0,1,7.53-108.43A3,3,0,0,0,165.27,87c-20.79,29.32-32.37,63.64-42.93,97.65-11.74,37.77-23.25,75.67-32.18,114.21-8.81,38-15,76.71-16.32,115.76a568.87,568.87,0,0,0,7.93,114.2A687.8,687.8,0,0,0,116.1,655.05c1.14,3.07,5.83,2.76,5.89-.79A447,447,0,0,1,155.1,493.1c1.46-3.57-4.35-5.13-5.79-1.6A451.79,451.79,0,0,0,116,654.26l5.9-.8C95.21,582,79,506.09,79.53,429.56c.5-78.3,21.12-153.88,43.93-228.2,11.83-38.53,23.41-78.05,47-111.32L165,87.73a605.94,605.94,0,0,0-7.64,113.91,499.68,499.68,0,0,0,4.08,54.11c1.94,14,5.8,28.39,16.72,38.15,2.87,2.57,7.12-1.66,4.24-4.24Z"/><path d="M162.49,362.7a738.76,738.76,0,0,0,2.38,214q4.88,30.71,12.34,60.89c.92,3.75,6.71,2.16,5.78-1.59a730.61,730.61,0,0,1-20.33-210.67q1.51-30.63,5.61-61.06c.51-3.78-5.27-5.41-5.78-1.6Z"/><path d="M627.82,232.69c-.42-16.1-5-35-23.85-37.6-20.76-2.9-26.44,20.27-27.71,36.31-1.3,16.32,5.1,34.76,20.17,43,8.86,4.84,17.81,3.38,23.49-5.25a52.85,52.85,0,0,0,7.77-20.78,60.92,60.92,0,0,0-13.43-49c-2.38-2.87-6.82-3.54-10.22-2.7-16.56,4.05-13.54,26.3-11.69,38.91,1.93,13.14,7.84,27.35,19.95,34.22,8.13,4.61,17.51.88,21.06-7.45,2.87-6.77,2.57-15.54,2-22.74-1.41-16.84-9.25-32.06-25.71-38.23-5.7-2.13-11,2.45-12.91,7.34a58.11,58.11,0,0,0-.57,39.8A59.28,59.28,0,0,0,606.6,267c5.81,6.94,16.32,10,23.42,3,5.25-5.13,6.21-13.3,6.81-20.25a64.13,64.13,0,0,0-2.05-21.8c-3.39-12.69-13.89-34.16-30.54-26.7-25.91,11.61-5.8,82.14,19.31,67.91,6.66-3.77,9.43-12.77,11-19.8a63.54,63.54,0,0,0,1.11-22c-1.71-13.54-9.21-34.35-26.8-30.74-16.79,3.45-20.72,27.61-20.2,41.78.61,16.63,8.31,32.18,22.54,41.2,4.56,2.89,11.9,1.19,14.37-3.77,9.94-20,5.24-43.89-12.79-57.53-9-6.84-23.47-11.79-30,.95-4.61,9-2,21.24,2.15,29.87,4.26,8.83,13.69,19.3,24.14,20,12.52.81,17.57-11,18-21.6.73-17.69-6.37-56.33-32.38-49.18a16.7,16.7,0,0,0-11.4,10.3c-2.27,6.24-.87,12.36,1.58,18.32,4.12,10,10.36,20,18.9,26.81,9.38,7.48,24,7.13,28.16-5.93,3.09-9.77.92-21.46-3-30.61-3.89-9-12.71-22.93-24.29-20.39s-15.35,17.79-16.11,28c-.78,10.42,2.2,22.32,9.66,29.94,8.23,8.4,21.63,10.1,29.62.44,7.79-9.4,6.54-24.89,3.65-35.95-3-11.61-11.59-27.07-26.13-22.57-6.68,2.07-9.16,10.17-10.61,16.35a53.62,53.62,0,0,0-1.3,16.75,55.24,55.24,0,0,0,13.27,31.55c3.68,4.32,11.06,3.78,14.85,0,4.28-4.28,3.68-10.52,0-14.85a32.67,32.67,0,0,1-4.35-34.37L610.87,217q-4-2.07-3.2-.57l.18.12c-.11.46,1.41,2.55,1.71,3.26a39.73,39.73,0,0,1,2.69,10.33,32.25,32.25,0,0,1,0,9.66,13.89,13.89,0,0,0-.29,1.54c-1,1.52-.91,1.59.17.21a5.9,5.9,0,0,1,1.76-.51c0-.23-1.82-2.18-2.24-3a21.69,21.69,0,0,1-2.14-7.31,26.51,26.51,0,0,1,.29-7.85,27,27,0,0,1,1.31-4.65,5.29,5.29,0,0,1,.49-1.21c1.35-2,.87-2-1.41.12H604.6q-3-2.13-.52.05l1.07,1.14a26.26,26.26,0,0,1,2.13,2.81,29,29,0,0,1,3.74,8.1,28.24,28.24,0,0,1,1.18,8c0,.87-.52,3.23-.18,3.89-.14-.26,6-2.25,5.67-3,.36.78-1.84-1.55-1.73-1.45a38.27,38.27,0,0,1-4-4.29,52.91,52.91,0,0,1-5-7.48,69.39,69.39,0,0,1-3.67-8.17c-1.18-2.89.78-.32-2.18,1.47l-2,.5c1.34,0,1.6,0,.78.05,1.29,3.21,3.72,8.69,4.72,13.14A56.36,56.36,0,0,1,606,242c.08,1.87.05,3.72,0,5.58a17.35,17.35,0,0,1-.34,2.82,57.41,57.41,0,0,1,5.77-2c0,.09-2.46-1.66-2.49-1.69a20.23,20.23,0,0,1-4.64-5.57,21,21,0,0,1-2.68-7.45,18.21,18.21,0,0,1-.18-2.87c0-4.63.87.27-2.94.91H593c14.74,2.26,20.4,21.66,14.46,33.6l14.37-3.76c-13.7-8.68-15.23-29.8-8.58-43.22,0,0,.69-1.48.55-1.17.8-1.8,1-.08-.57,0-.14,0-3.36-.09-3-.65,0,0,1,1,1,1.11a36.51,36.51,0,0,1,3.65,11.21c1.22,7.82.45,18.71-4.5,25.24l3.77-3.77h5.7c1.27.9,1.6,1.21,1,.92-.59-.91-1.16-1.84-1.69-2.78a39.61,39.61,0,0,1-2.21-4.36,46.57,46.57,0,0,1-2.79-9.9,45,45,0,0,1-.41-10.18c.08-1.49.64-3.07.69-4.51-.45.43-.31.12.44-.93-2.06,2.34-4.08,3-6.05,1.94q-1.42-.76.48.84a4.7,4.7,0,0,0,1,1.7,34.36,34.36,0,0,1,2.41,4.72,46,46,0,0,1,3,10.73,45.51,45.51,0,0,1,.29,10.5,34.45,34.45,0,0,1-.68,4.63c-.89,4-1.38,1.81.66.82l5.3-1.43q3.3,2.14.76-.19a7.29,7.29,0,0,1-1.13-1.5,36.59,36.59,0,0,1-3.08-5.23,38.45,38.45,0,0,1-3.32-10.41,39.41,39.41,0,0,1,2.55-21.3L604,221.66c5.59,2.1,8.34,8.46,9.61,13.8a46.74,46.74,0,0,1,.91,11.26q0,3.56-.31,7.1c.14-.89.07-.68-.21.64a5.14,5.14,0,0,1,3.17-3.14h5.59c-1.71-.25-4.38-3.7-5.69-6a36.43,36.43,0,0,1-3.78-11.08,71,71,0,0,1-1.2-11.45A50.41,50.41,0,0,1,612,216c0-.13.06-1.87.12-.87.53-1.45.47-1.54-.18-.29a4,4,0,0,1-2.36,2.15l-10.21-2.7c6.33,7.61,8.86,18,8.05,27.71A35.68,35.68,0,0,1,603.28,256l-.72,1.27q-2.94,3.93,4.49-.93c-.32-.51-1.31-.85-1.87-1.26a16.62,16.62,0,0,1-4.16-4.6c-6.67-10.63-3.39-22.88-.33-34.09.06-.22.15-.5.23-.71-.3.74-1.09-.53.44.07-1.23-.48,1.48.72.66.3a4.37,4.37,0,0,1,1.94,1.45c2.93,3.29,2.74,10.6,2.86,15.16.34,13.49,21.34,13.54,21,0Z"/><path d="M370.35,240.82c-2.38-6.7-5.65-13.77-10.79-18.85-6.58-6.5-17.9-7.09-23,1.6-3.06,5.23-3.24,13-3.28,18.91a74.87,74.87,0,0,0,3.17,22c3.44,11.36,11.59,31.11,26.1,30.81,18.06-.38,15.35-26.64,14.29-38.91a138.33,138.33,0,0,0-11.47-45.1c-3.08-6.83-9.47-11.93-17.35-9.41-8.57,2.75-10.65,12-12,19.78a146.62,146.62,0,0,0-.76,46.37c1.67,11.72,6.93,27.05,20,30.36,19,4.81,20.76-22.35,20-34.81-.92-14.57-6-28.84-17-38.86-6.3-5.77-14.54-2.69-17.55,4.63A55.92,55.92,0,0,0,338.82,265c2.88,10.44,10.92,28,24.66,23.87,11.38-3.42,13.58-21.34,13-31.31A54.53,54.53,0,0,0,364.32,226c-4.09-5-9.66-9.42-16.53-8.45-8.4,1.19-11.36,8.44-12.51,15.85a64.54,64.54,0,0,0,5,36.57c2.15,4.8,4.92,9.87,9,13.33a15.15,15.15,0,0,0,20.35-.66c9.17-8.49,9.18-24.95,6.44-36.15-3-12.19-15.09-27.06-29-18.39-11.09,6.92-12.2,24-9.93,35.51s9.81,23.55,21.84,26.82c13.86,3.76,23.75-7.54,26.45-20,2.63-12.18,0-26.65-9.84-35.06-10.17-8.73-25.66-7.73-32.26,4.83-5,9.58-4.25,22.92-1,33,3.58,11,16.64,28.07,28.83,15.24,4.73-5,6.58-13.25,7.58-19.83a68.19,68.19,0,0,0-.18-22.13c-2.13-12.45-9.63-32.69-25.92-28.89-17.46,4.08-14.31,26.45-12.36,39.57s5.06,30.18,17.06,38.05c5.33,3.49,14.24.24,15.43-6.28,4.15-22.76-2.67-46.18-19.35-62.46-5.33-5.19-12.41-3.19-16.5,2.13-15.7,20.44-7.81,51.49,15.41,62.34,6.54,3.06,12.89.47,15.43-6.27a50,50,0,0,0-.34-35c-4.14-10.7-13.92-26.12-26.83-26.69-17.86-.78-18.65,22.7-16.26,35,2.78,14.31,11.36,26.46,19.86,37.93,7.18,9.71,21.12,3.92,19.19-8.09a204.9,204.9,0,0,0-9.51-37c-3.9-10.77-8.36-29-22.53-29a10.64,10.64,0,0,0-10.5,10.5A87.23,87.23,0,0,0,342,288.34c3.68,4.32,11.07,3.78,14.85,0,4.28-4.28,3.69-10.52,0-14.85a64.47,64.47,0,0,1-15.09-41.29l-10.5,10.5-.52.06-4.63-2.7c2.46,1.94,3.6,6.43,4.82,9.44q2.91,7.17,5.24,14.56a206.13,206.13,0,0,1,6.88,29.23l19.19-8.1c-5.5-7.43-11.46-15.07-15-23.68a40,40,0,0,1-3-11.66,28.37,28.37,0,0,1,0-5.9,22.19,22.19,0,0,1,.72-3q-11,.71-5.95,3.42c1.68,2.33,4.09,4,5.67,6.47a32.2,32.2,0,0,1,4,9A30.63,30.63,0,0,1,347.46,279l15.42-6.28c-13.79-6.44-17.07-21.63-7.87-33.61l-16.49,2.12c11,10.77,16.75,26.69,14,42L367.89,277c-1.95-1.28-2.78-5.7-3.4-7.72a119.15,119.15,0,0,1-3.1-12.38,95.45,95.45,0,0,1-1.48-11.67,56.1,56.1,0,0,1-.23-7.1c.19-3.07.35-1.21-3.11-.89-3.95.35-3-.53-2.41,1.55.47,1.71,1.58,3.42,2.14,5.14a43.71,43.71,0,0,1,2.17,10.22,47.44,47.44,0,0,1-.29,10.45c-.37,2.52-1.18,8.3-2.92,9.77l4.63-2.7-1.23.37h5.58c2.45.46,1.28,1.81.32-.36-.42-.94-1.12-1.78-1.54-2.74a28.41,28.41,0,0,1-1.94-8.17,35.09,35.09,0,0,1-.15-7.64c-.09.67.52-3.16.55-2.43q-.5.57.54-1a.57.57,0,0,1-.25.3.58.58,0,0,0-.18.17c-1.88-.16-2.23-.11-1,.16-.3-.66,2.81,2.4,1.75,1.32a11.67,11.67,0,0,1,2.71,5.95,19.59,19.59,0,0,1,.14,7.24c-.06.35-2.16,6.37-2.38,6.1-1.2-1.56,1.69-.46,1.77-.75a6.94,6.94,0,0,1-1.39-.61,14.2,14.2,0,0,1-4-5.24,24.19,24.19,0,0,1-2-8.41c-.18-3.11.74-5.6.94-8.58-.1,1.56.66-1.64.6-1.87q-5.49,3.44-5.59.54l.95,1c.15,2.06,1.7,4.55,2.08,6.73a29.19,29.19,0,0,1,.1,9.42,34.25,34.25,0,0,0-.83,3.61c-.07,2.81-1-.06.77-.33h5.58a1.8,1.8,0,0,1,1.38,1.38c-.61-.88-1.2-1.79-1.76-2.71a39,39,0,0,1-5.14-13.23,40.52,40.52,0,0,1-.83-9.26,37.34,37.34,0,0,1,.31-4.84c.28-1.91,2.22-4.67-.28-2.05l-4.64,2.7q-6.45-2.55-3.22.2a5.81,5.81,0,0,0,1.14,1.23,33.91,33.91,0,0,1,6.42,14.71c1,5.63.76,13.59-2.57,18.22l3.77-3.77.39-.17h5.58c1.14,1.06,1.59,1.26,1.34.59-.56-.85-1.09-1.73-1.59-2.62s-1.1-2-1.54-3a36.86,36.86,0,0,1-2.48-9.1A38.08,38.08,0,0,1,361,235l-17.54,4.64c6,5.46,9.2,12.42,10.46,20.37a53.76,53.76,0,0,1,.38,11.62,48.84,48.84,0,0,1-.55,5.12c-.16.94-.35,1.89-.56,2.82a18,18,0,0,1-.5,2c-.35,1.15-.19.84.48-1l4.64-2.7c5.61-2,3,1.8,2.26-.75.14.47-.83-1.19-.73-1a19.11,19.11,0,0,1-2.27-5.71,78.82,78.82,0,0,1-2.18-16.26,131.08,131.08,0,0,1,.34-18.59c.28-3.09.7-6.15,1.26-9.2.27-1.52.56-3.05.91-4.56l.41-1.82q1.77-4.59-4.82,2.38l-5.3-1.44,1.15.73L345,217.89c3,3.92,4.4,9.48,5.85,14.13a126.43,126.43,0,0,1,4,16.54,106.48,106.48,0,0,1,1.42,15q.14,4.49,0,9c-.07,1.63.3,4.82-.56,6.07l3.77-3.77,5.82.42-1-1a7.56,7.56,0,0,0-1.08-1.63,52.3,52.3,0,0,1-7.48-17.6c-1.68-7.08-2.73-16.45.1-23.36l-2.7,4.63-.29.2-5.29,1.44c-1.09,0-2.31-1.44-2.48-.89s2,3.05,2.31,3.5a32.06,32.06,0,0,1,2.78,5.86c1.89,5.35,7.17,8.92,12.92,7.34,5.17-1.42,9.23-7.55,7.33-12.92Z"/><path d="M374.76,317.19c11.42-7.91,16.93-23.33,21.82-35.76,5.74-14.57,9.49-30.33,8.17-46.08-1.15-13.86-6-27.41-15.35-37.85-9.56-10.63-23.73-19-38-21-28.9-4.07-50.7,21.58-57.94,47a84.36,84.36,0,0,0,18.43,79.41c9.8,10.87,23.85,21.18,38.6,23.56a33.69,33.69,0,0,0,35.36-18.64c1.66-3.46-3.51-6.51-5.18-3a27.74,27.74,0,0,1-31.08,15.4c-11.42-2.58-22.17-10.14-30.35-18.27a78.07,78.07,0,0,1-21.9-68.57c4-22.73,20-49.65,45.62-51.25,13.29-.84,26.74,5.86,36.67,14.28,9.7,8.24,15.66,19.37,18.1,31.8,2.89,14.7.52,29.82-4.15,43.9A181.06,181.06,0,0,1,384,295c-3.1,6.31-6.34,12.88-12.27,17-3.15,2.19-.16,7.39,3,5.18Z"/><path d="M564,221.66c-1.83-19.59-3.05-45,17.92-55,20.15-9.57,42.14,2.06,53.81,19.1,6.47,9.44,10.28,20.36,12.64,31.5,2.52,11.82,4.62,25.08,2.4,37.1-2,10.92-8.41,20.18-15.94,28.08-7.67,8.05-17.24,17.2-28.81,18.48-14,1.55-22.16-11.6-28.65-22-7.15-11.42-12.44-24.61-9.45-38.23.83-3.76-5-5.37-5.78-1.59-2.89,13.16.66,26,7,37.62,5.44,10,13.38,23.48,24.28,28.27,11.7,5.15,24.42-.17,33.8-7.5,9.63-7.52,18.87-17,24.54-27.93,6.69-12.91,6.4-26.89,4.58-41-1.73-13.31-4.79-26.55-11-38.53-10.69-20.6-32.25-36.64-56.34-32a37.5,37.5,0,0,0-27.7,22c-5.62,13-4.57,27.82-3.28,41.59.35,3.81,6.36,3.85,6,0Z"/><path d="M348.66,402.31c14.86,72.12,38.19,148.3,100.13,194a158.25,158.25,0,0,0,43.33,22.81c16.37,5.5,36.47,9.91,53.37,4.47,15.9-5.11,27.89-19.38,37.13-32.64a148.61,148.61,0,0,0,20.82-44.13C613.59,511.4,611,472.74,595,439.47c-1.67-3.48-6.85-.44-5.18,3,13.66,28.4,16.95,61.13,10.52,91.89a146.67,146.67,0,0,1-16.53,43.52c-8,13.79-18.85,28.73-32.94,36.77-15.6,8.9-35.77,5-52.13.22a149.41,149.41,0,0,1-42.58-20.69C429,575.43,407.93,549.09,392.71,520c-19.46-37.22-29.84-78.35-38.26-119.25-.78-3.78-6.57-2.18-5.79,1.59Z"/><path d="M360.74,400.26c27.38,30.42,55.79,61.34,91.16,82.65,16.86,10.17,35.37,17.93,54.79,21.5,19.08,3.5,40,2.37,54.89-11.49s19.83-35.75,21.41-55.39c.31-3.85-5.69-3.83-6,0-1.37,17-5.29,35.76-17.24,48.7C545.68,501.48,524.18,502,505.15,498c-37.07-7.73-68.63-30.18-95.8-55.66C393.75,427.7,379.29,411.91,365,396c-2.59-2.87-6.82,1.38-4.24,4.25Z"/></g></g></svg>