<svg xmlns="http://www.w3.org/2000/svg" viewBox="0 0 894.2 1205.15"><defs><style>.cls-1{fill:#fff;}</style></defs><title>Backend</title><g id="Слой_2" data-name="Слой 2"><g id="Слой_1-2" data-name="Слой 1"><path d="M452.68,1203c32.12-44.66,45.49-99.39,47.91-153.71a507.81,507.81,0,0,0-3.5-82.5c-3.61-30.36-8.72-60.93-19.57-89.64a210.14,210.14,0,0,0-53.62-80c-4.72-4.37-11.8,2.69-7.07,7.07a199.13,199.13,0,0,1,47.78,67.48c11.93,27.82,17.67,58,21.58,87.88,6.87,52.56,7.84,107.16-5.52,158.8-7.38,28.55-19.38,55.63-36.63,79.61-3.76,5.23,4.91,10.23,8.64,5Z"/><path d="M436.88,801.74a116,116,0,0,0-62.42,45.5c-14.9,21.68-22.52,47.58-27.55,73.13-11.61,59-14,120.11-7.8,179.91A627.37,627.37,0,0,0,358,1201.43c1.7,6.2,11.35,3.57,9.64-2.66A614.77,614.77,0,0,1,346,1025.07a604.35,604.35,0,0,1,7.84-86.72c4.14-25.17,9.64-50.82,21.7-73.52,13.65-25.69,36-45.06,64-53.45,6.15-1.84,3.53-11.49-2.66-9.64Z"/><path d="M449.56,1202.76c18.5,3.39,33.55-13.46,45.75-25a407.6,407.6,0,0,0,36.11-38.8,422.1,422.1,0,0,0,56.77-90.8A415.26,415.26,0,0,0,623,825.84,421.68,421.68,0,0,0,587,698.9c-2.71-5.83-11.33-.76-8.64,5.05a411,411,0,0,1,34.87,219.73c-8.13,69.3-35.17,135.91-76.37,192.11a403,403,0,0,1-37.14,43.69q-10.11,10.33-21,19.92c-7,6.19-16.24,15.6-26.52,13.71-6.29-1.15-9,8.49-2.66,9.65Z"/><path d="M364.94,1192.87a497,497,0,0,1-108.62-191.4,494.26,494.26,0,0,1,29-357.26c2.8-5.76-5.82-10.84-8.63-5a503.53,503.53,0,0,0,81.17,560.77c4.35,4.76,11.4-2.32,7.07-7.07Z"/><path d="M313.7,564.28a1200.72,1200.72,0,0,0-201.28-89.72q-29.78-10.1-60-18.62c-3.11-.87-4.43,3.95-1.33,4.82a1194.23,1194.23,0,0,1,205.36,78.92q27.75,13.74,54.77,28.91c2.81,1.58,5.33-2.74,2.52-4.31Z"/><path d="M294.19,594.1a1229.63,1229.63,0,0,1-228.9-43.38c-20.55-6-40.94-12.72-62.15-16-3.15-.48-4.5,4.33-1.33,4.82,19,2.94,37.33,8.68,55.73,14.12q28,8.3,56.45,15.26,56.82,13.92,114.79,22.39,32.6,4.76,65.41,7.79c3.21.29,3.19-4.71,0-5Z"/><path d="M296,621.48a492.45,492.45,0,0,1-209.84,33,486.42,486.42,0,0,1-61.32-7.78c-3.14-.6-4.49,4.22-1.33,4.82a497.11,497.11,0,0,0,215.2-6.33,491.65,491.65,0,0,0,58.62-18.89c3-1.17,1.67-6-1.33-4.83Z"/><path d="M557.07,570.26c67.69-39.26,150-39.77,225.87-44.53q17.84-1.12,35.67-2.2c6.95-.42,24.2-3.74,26.51,6.06.73,3.13,5.56,1.81,4.82-1.33-1.55-6.57-7.61-9.23-13.8-10.07-9.87-1.33-20.51.52-30.41,1.12q-34.25,2.1-68.48,4.36c-40.36,2.7-81.1,6-120.27,16.7A260,260,0,0,0,554.55,566c-2.79,1.61-.27,5.93,2.52,4.31Z"/><path d="M576.64,598.41C623,587,671,597,717.11,604.47l142.81,23.17L880.46,631c3.38.54,9,2.52,12.08,0,5.61-4.64-4.77-10.17-5.69-4.31-.49,3.15,4.32,4.5,4.82,1.33l.1-.61L890,629.11c2.13-.87-4.44-2.34-4.32-2.32-1.31-.2-2.61-.42-3.91-.64L874,624.88l-15.65-2.53L827,617.27,763.43,607C723.19,600.42,682.72,592,642,589c-22.35-1.63-44.87-.84-66.69,4.55-3.13.77-1.8,5.59,1.32,4.82Z"/><path d="M590,641a710.68,710.68,0,0,1,187.74,95.16q24.78,17.61,47.94,37.32c2.44,2.08,6-1.45,3.53-3.53A714.81,714.81,0,0,0,647.68,657.52q-27.75-11.87-56.41-21.36c-3.06-1-4.37,3.81-1.32,4.82Z"/><path class="cls-1" d="M591.8,715.53c77.83-64,116.69-172,97.42-270.94-4.57-23.48-12.22-46.5-24.12-67.25-12.46-21.72-29.41-40.64-48.2-57.21-68.5-60.37-165.35-89.31-254.59-70S195,339.06,171.5,427.3,184,618.05,260.83,667.38c3.64,2.34,11.1-1.32,7.14-3.07"/><path d="M595.33,719.07c66.87-55.3,105.43-142.24,103.72-228.79-.94-47.51-13.59-96.22-42.3-134.68-27.78-37.22-66.58-66.66-108.4-86.49-80.74-38.28-176.83-41.2-256.25,2-72.45,39.44-126.71,113.16-132.21,196.69A236.32,236.32,0,0,0,183.36,586a221.45,221.45,0,0,0,33.45,50.16A199.45,199.45,0,0,0,238,656.69q5.9,4.93,12.16,9.43c3.68,2.65,7.9,6.54,12.62,6.94,7.14.62,16.8-7.61,7.77-13.07-5.53-3.33-10.56,5.31-5.05,8.64l-.32-5.77a3.93,3.93,0,0,1-1.36.28c.05,0-3.18-1.59-1.61-.85a42.57,42.57,0,0,1-5.86-4q-5.81-4.12-11.28-8.69a199.86,199.86,0,0,1-20.68-20.06,211.57,211.57,0,0,1-31.41-46.75,226.19,226.19,0,0,1-23.28-110.75c3.7-78.41,52.79-148.29,119.3-187.64,72.61-43,161.33-44.75,238.75-13.53,40.09,16.16,77.17,41.21,106.47,73.06,32.08,34.88,49.25,79.12,53.72,126,7.64,80.37-21.34,163.49-77.47,221.56A269.91,269.91,0,0,1,588.26,712c-5,4.1,2.15,11.14,7.07,7.07Z"/><path class="cls-1" d="M437.87,630.52c20.55-16.7,30.15-43.13,37.56-68.55C520.89,406.06,517.85,238.72,485,79.68c-4.51-21.81-10.08-44.52-25-61.08-5.45-6.06-12.3-11.24-20.27-13C427.41,2.93,414.43,9.07,406,18.44S393,40,389.39,52.06c-10.13,34.4-13.21,70.43-15.43,106.22a2372.89,2372.89,0,0,0,24.76,517.8c.4,2.51,1.23,5.51,3.68,6.15s4-4.25,1.45-4.08"/><path d="M441.41,634.05c15.39-12.78,24.9-30.59,31.79-49.07,7.84-21,13.3-43.12,18.38-65a892.1,892.1,0,0,0,20.79-141.18c6.48-95-1.27-190.65-19.29-284-4-20.76-7.66-42.27-17.15-61.37-8.45-17-24.24-35.2-45.11-33.33C410.31,2,396.69,18.85,389.4,36.68c-8.64,21.16-12.6,44.49-15.57,67-6.45,49.07-7.72,99.13-8.81,148.56q-1.65,75.45,1.48,150.9,3.12,74.91,11,149.53,3.92,37.21,9,74.3,2.52,18.45,5.33,36.85c1,6.65.83,24.08,11.39,23.4,7.17-.46,10.12-12.56,2-13.92-6.3-1.06-9,8.58-2.66,9.64,3.15.53.76-9.85.56-11.12l-1.35-8.72q-1.34-8.71-2.61-17.44-2.52-17.28-4.79-34.6-4.49-34.5-8-69.12-7-69.24-9.86-138.8T374.79,264c.78-45.61,2.36-91.4,6.47-136.85,2-22.4,5.15-44.75,10.92-66.52C397,42.43,403.74,20.53,422.65,12.4c19.77-8.51,35.52,8.5,43.92,24.67,9.07,17.48,12.4,37.61,16.15,56.75,17,87,25,175.94,20.83,264.55A896.74,896.74,0,0,1,487.8,490.05q-6.32,32-15.14,63.42c-5.13,18.24-10.64,36.76-20.65,53A82.9,82.9,0,0,1,434.34,627c-5,4.12,2.15,11.16,7.07,7.07Z"/><path d="M465.86,699.4c-41.12,9.39-86.16,21.12-110.53,58.81-2.52,3.91,1.63,8.17,5.65,7.34l7.57-1.55c6.3-1.3,3.64-10.94-2.65-9.65l-7.58,1.56,5.65,7.35C386.74,728,430.29,717.77,468.52,709c6.27-1.43,3.61-11.07-2.66-9.64Z"/><path d="M442.45,763.52c-19.19-29-38.87-58.5-66.1-80.69-5-4-12.07,3-7.07,7.07,26.62,21.69,45.78,50.29,64.53,78.67,3.54,5.34,12.2.34,8.64-5.05Z"/><path d="M686.73,381c4.44-14.77,4.42-30.37,5-45.65l2-48.41q2-48.9,3.95-97.8c.18-4.65-5.45-6.17-8.54-3.54-20.74,17.65-46.42,27.72-69.5,41.74a249,249,0,0,0-61.14,52.5c-4.12,4.89,2.92,12,7.07,7.07a241,241,0,0,1,62.05-52.68c23.09-13.61,48-24,68.59-41.56l-8.53-3.53L683.79,285l-1.91,47.41c-.62,15.36-.33,31.12-4.79,46-1.86,6.18,7.79,8.81,9.64,2.66Z"/><path d="M277.29,282.75l-119-97.4c-2.87-2.36-9.15-1.25-8.53,3.53,7.66,59.22-7.08,118.89,1.47,178A176.56,176.56,0,0,0,164.8,414c2.63,5.87,11.25.79,8.63-5-15.22-34-15.91-71.73-14.35-108.28,1.59-37.24,5.51-74.67.7-111.84l-8.54,3.54,119,97.4c4.94,4,12-3,7.07-7.07Z"/></g></g></svg>