<svg xmlns="http://www.w3.org/2000/svg" viewBox="0 0 896.76 1215.43"><defs><style>.cls-1{fill:#fff;}</style></defs><title>Backend_1</title><g id="Слой_2" data-name="Слой 2"><g id="Слой_1-2" data-name="Слой 1"><path d="M458.23,1210.49c32.62-45.36,46.14-101.1,48.6-156.24a508.94,508.94,0,0,0-3.5-82.5c-3.66-30.8-8.74-61.83-19.75-91a215.62,215.62,0,0,0-54.91-82.23c-9.43-8.75-23.6,5.36-14.14,14.14a194.34,194.34,0,0,1,47,66.46c11.47,27,17.08,56.39,20.89,85.36,6.86,52.09,7.91,106.28-5.33,157.47-7.29,28.17-19.11,54.75-36.13,78.41-3.15,4.39-.76,11.14,3.59,13.68,5,3,10.52.82,13.68-3.58Z"/><path d="M436.79,801.92a121.47,121.47,0,0,0-65.41,47.8c-15.13,22-22.95,48.38-28.05,74.32a615.29,615.29,0,0,0-8,181.24,635.85,635.85,0,0,0,19.06,102.48c3.39,12.4,22.69,7.13,19.28-5.32a609.78,609.78,0,0,1-21.49-172.37,596.08,596.08,0,0,1,7.67-85.4c4.07-24.71,9.35-50,21.2-72.32,13.05-24.56,34.23-43.12,61-51.15,12.3-3.68,7.06-23-5.32-19.28Z"/><path d="M449.47,1212.58c20.82,3.81,36.76-13.18,50.62-26.24a407.58,407.58,0,0,0,36.11-38.79,427.12,427.12,0,0,0,57.54-91.82,419.9,419.9,0,0,0,35.51-224.89,429.08,429.08,0,0,0-36.71-129.47c-2.27-4.9-9.34-6.13-13.68-3.58-5,2.94-5.87,8.76-3.59,13.68,31.27,67.44,42.84,143.45,34.19,217.21-8,68.41-35,134.15-75.69,189.59a393.18,393.18,0,0,1-36.35,42.67q-10.12,10.33-21,19.93c-5.26,4.65-13.76,13.87-21.66,12.42-5.31-1-10.78,1.46-12.3,7-1.34,4.85,1.64,11.32,7,12.3Z"/><path d="M369.71,1194.33a491.36,491.36,0,0,1-107.33-189.19,486.13,486.13,0,0,1-12.6-227.49,491.11,491.11,0,0,1,41.1-125.92c2.37-4.85,1.33-10.81-3.58-13.68-4.39-2.57-11.31-1.29-13.68,3.59a508.55,508.55,0,0,0,81.95,566.84c8.7,9.52,22.81-4.66,14.14-14.15Z"/><path d="M315.57,568.2A1203.11,1203.11,0,0,0,114,478.35q-29.77-10.1-60-18.61c-4.65-1.32-6.63,5.92-2,7.23A1191.51,1191.51,0,0,1,257,545.76q27.76,13.74,54.78,28.91c4.21,2.37,8-4.11,3.78-6.47Z"/><path d="M295.43,597.85A1227.9,1227.9,0,0,1,66.86,554.52c-20.55-6-40.94-12.73-62.15-16-4.72-.72-6.76,6.5-2,7.24,19,2.93,37.33,8.67,55.72,14.11q28.05,8.31,56.45,15.27,56.82,13.9,114.8,22.38,32.76,4.79,65.74,7.84c4.81.44,4.77-7.06,0-7.5Z"/><path d="M296.88,625.28a491.67,491.67,0,0,1-209.5,33,483,483,0,0,1-61-7.73c-4.72-.91-6.74,6.32-2,7.23a498.58,498.58,0,0,0,215.86-6.34,491.65,491.65,0,0,0,58.62-18.89c4.44-1.74,2.5-9-2-7.23Z"/><path d="M558.94,576.34C626.42,537.2,708.5,536.73,784.17,532q17.85-1.12,35.68-2.2c6.15-.37,23.21-3.73,25.3,5.14,1.1,4.7,8.34,2.71,7.23-2-1.67-7.13-8.28-10.13-15-11-9.91-1.26-20.49.51-30.41,1.12q-34.25,2.1-68.49,4.36c-40.46,2.71-81.32,6.05-120.59,16.74a262,262,0,0,0-62.74,25.7c-4.17,2.43-.4,8.91,3.79,6.48Z"/><path d="M578.21,604.62c46.09-11.38,93.93-1.39,139.81,6.06l142.8,23.17,20.54,3.33c4,.65,9.76,2.63,13.3-.35,7.26-6.09-6.53-13.41-7.77-5.53-.75,4.73,6.48,6.76,7.23,2l.09-.61-2.62,2.62-2.53-2,1.1-2.65c-1.35,1.47-12.56-1.65-14.63-2l-15.65-2.54-31.3-5.08L765,610.75c-40.35-6.55-80.93-15-121.75-18-22.46-1.64-45.09-.82-67,4.59-4.68,1.16-2.7,8.39,2,7.24Z"/><path d="M590.85,647.18a709.79,709.79,0,0,1,187.45,95q24.65,17.52,47.68,37.13c3.66,3.1,9-2.18,5.31-5.31a716.38,716.38,0,0,0-181.74-112.6q-27.9-11.93-56.71-21.49c-4.59-1.52-6.56,5.72-2,7.23Z"/><path class="cls-1" d="M593,720.53c77.83-64,116.68-172,97.42-270.94-4.57-23.48-12.22-46.5-24.12-67.25-12.47-21.73-29.41-40.65-48.21-57.21-68.5-60.37-165.34-89.31-254.58-70S196.2,344.06,172.74,432.3,185.23,623,262.06,672.38c3.65,2.34,11.11-1.32,7.15-3.07"/><path d="M600.11,727.6C667.92,671.52,707,583,705.28,495.28c-.95-48.32-13.77-98.09-43-137.2C634,320.15,594.76,290,552.11,269.79c-82.41-39.07-180.21-42.11-261.29,2-74.07,40.31-129.08,115.73-134.69,201-2.73,41.41,6,83.41,24.15,120.66a226.33,226.33,0,0,0,34.23,51.17,199.55,199.55,0,0,0,21.15,20.58c4.25,3.56,8.65,7,13.16,10.22s9.3,7.28,15.14,7.62c4.72.27,9.86-1.26,13.18-4.75,5.32-5.61,3.45-13.81-2.88-17.63-11.05-6.68-21.11,10.61-10.1,17.26l.72.44-3.59-3.59.36.48-1.37-5,0,.5,1.36-5.05c.41-.83,2-2.49,3.33-2.54s3.21,1.81.91-.17c-1.73-1.49-4-2.66-5.85-4-3.54-2.5-6.95-5.13-10.27-7.91A198.87,198.87,0,0,1,229.12,631a206.45,206.45,0,0,1-30.63-45.74,220.85,220.85,0,0,1-22.6-108.22c3.61-76.63,51.87-144.9,116.82-183.32a246.87,246.87,0,0,1,111.7-34.11c42.1-2.37,84.16,5.34,123.2,21.08a289.78,289.78,0,0,1,104.26,71.77c31.13,33.85,47.92,77,52.25,122.49,7.53,79.1-20.72,160.84-76,218A269.91,269.91,0,0,1,586,713.46c-4.16,3.44-3.56,10.58,0,14.14,4.12,4.12,10,3.45,14.15,0Z"/><path class="cls-1" d="M439.11,635.51c20.55-16.69,30.15-43.12,37.56-68.54,45.45-155.91,42.42-323.25,9.53-482.29-4.51-21.81-10.08-44.52-25-61.08-5.46-6.06-12.3-11.24-20.27-13-12.32-2.69-25.3,3.45-33.73,12.82S394.2,45,390.63,57.06c-10.13,34.39-13.21,70.43-15.43,106.22A2372.89,2372.89,0,0,0,400,681.08c.4,2.51,1.22,5.51,3.68,6.15s4-4.25,1.45-4.08"/><path d="M446.18,642.59c16.05-13.33,25.9-32,33.08-51.28,7.84-21,13.3-43.13,18.37-65a900.62,900.62,0,0,0,21-142.51c6.51-95.41-1.37-191.55-19.47-285.34-4.1-21.24-7.95-43-17.66-62.56C472.25,17.35,454.68-1.78,432.06.13c-23,1.94-38.09,20.21-46.24,40.22C377,62,373.08,85.71,370.07,108.71c-6.43,49.08-7.72,99.13-8.81,148.56q-1.67,75.45,1.48,150.9,3.12,74.91,11,149.52,4,37.89,9.17,75.63,2.52,18.45,5.34,36.86c1.55,10.16,2,27.15,16.2,27.07,12.79-.07,17-21.45,3.33-23.74-5.32-.89-10.76,1.4-12.3,7-1.31,4.79,1.63,11.41,7,12.3l.69.12-4.41-2.57.42.4-2.57-4.41,2.81-7.71,5-1.37-.77,0,5,1.36c3.49,1.61,1.06,3.51,1.16,1.11a22.53,22.53,0,0,0-.7-4.18c-.45-2.91-.91-5.81-1.35-8.72q-1.34-8.71-2.61-17.44-2.43-16.62-4.61-33.27-4.5-34.5-8-69.12-7-69.24-9.85-138.8T381,269c.78-45.61,2.35-91.4,6.46-136.85,2-22,5.09-43.85,10.75-65.2,4.37-16.47,10.26-37.67,27.57-45s30.49,8.78,37.68,22.62c8.85,17.06,12,36.89,15.65,55.56,17,86.54,24.76,175,20.64,263.21a885.52,885.52,0,0,1-15.56,130.36q-6.33,32-15.14,63.42c-5,17.85-10.35,35.92-20.15,51.83A78.81,78.81,0,0,1,432,628.44c-4.16,3.46-3.57,10.57,0,14.15,4.11,4.11,10,3.46,14.14,0Z"/><path d="M465.77,699.58c-42.55,9.71-88.36,22.2-113.52,61.1-5.05,7.82,3.26,16.35,11.3,14.69l7.57-1.55c5.29-1.09,8.35-7.34,7-12.31-1.51-5.49-7-8.07-12.3-7l-7.57,1.56,11.29,14.69c22-33.95,64.81-43.53,101.56-51.92,12.55-2.86,7.24-22.15-5.31-19.28Z"/><path d="M448,766c-19.41-29.35-39.34-59.26-66.88-81.7-4.18-3.41-10.05-4.09-14.14,0-3.52,3.52-4.21,10.71,0,14.14,26.31,21.45,45.21,49.61,63.75,77.66,7.07,10.69,24.4.68,17.27-10.1Z"/><path d="M692.79,387.31c4.56-15.19,4.58-31.27,5.21-47l2-48.41q2-48.9,3.94-97.8c.38-9.31-10.88-12.34-17.07-7.07C666.45,204.38,641,214.23,618.34,228a253.32,253.32,0,0,0-62.16,53.28c-3.48,4.13-4,10.09,0,14.14,3.57,3.57,10.65,4.15,14.14,0a237.35,237.35,0,0,1,61-51.9C654.85,229.68,680,219,701,201.19l-17.08-7.07Q682,242,680,289.94l-1.91,47.42c-.6,14.92-.28,30.21-4.62,44.63-3.71,12.35,15.58,17.63,19.29,5.32Z"/><path d="M282.06,284.21l-119-97.4c-3.17-2.59-7-3.81-10.93-2.07-3.26,1.44-6.65,5.23-6.14,9.14,7.72,59.67-7,119.75,1.65,179.37a181,181,0,0,0,14.05,48.32c2.21,4.93,9.38,6.1,13.68,3.58,5.07-3,5.81-8.73,3.59-13.68-14.83-33.08-15.19-70.19-13.67-105.75,1.59-37.24,5.51-74.67.7-111.84L148.94,201l119,97.4c4.18,3.42,10.06,4.09,14.14,0,3.53-3.53,4.2-10.7,0-14.14Z"/></g></g></svg>