<svg xmlns="http://www.w3.org/2000/svg" viewBox="0 0 1430.66 700.29"><title>Designer_1</title><g id="Слой_2" data-name="Слой 2"><g id="Слой_1-2" data-name="Слой 1"><path d="M211.66,289.21q34.05,2.37,68.22,2.14c20.44-.17,41.42-.12,60.46-8.53,33.72-14.89,53.57-48.51,66.75-81.28,4.35-10.81,8.17-21.81,12.07-32.78,2.06-5.77,4.14-11.54,6.33-17.27,1.05-2.72,3.05-10.87,6.86-10.87,7.72,0,7.73-12,0-12-8.76,0-13.45,7.25-16.42,14.55-4.05,9.93-7.52,20.1-11.11,30.21-6.88,19.35-14,38.83-24.76,56.41-9,14.58-20.57,28-35.21,37.1-17.18,10.67-36.32,12-56.07,12.34q-38.58.7-77.12-2c-7.71-.53-7.67,11.47,0,12Z"/><path d="M416.25,140.69c55.92-9.72,113.69-3.5,167.26,14.7,55.86,19,107.13,51,149.76,91.65a429.26,429.26,0,0,1,66.06,80.53c4.13,6.5,14.52.48,10.36-6.06A440.17,440.17,0,0,0,678.32,188.4C628,155.7,570.6,133.79,510.92,126.58a336.16,336.16,0,0,0-97.86,2.54c-7.59,1.32-4.38,12.89,3.19,11.57Z"/><path d="M801.48,319.36C766.36,344.74,727.58,365,687.37,381,648.9,396.37,608.85,408.26,568,415.39c-45.74,8-93.07,11.24-139.42,8-44.5-3.12-89.29-13-128.6-34.7-35.37-19.49-69.26-49.53-78.86-90.31-1.77-7.52-13.35-4.33-11.57,3.19,8.74,37.14,36.4,66.47,67.34,87.15C314.49,413.81,358.51,427,403,432.8c49.5,6.5,99.75,3.86,149.07-2.88,41.73-5.7,82.71-16.55,122.22-31.08,47-17.29,92.57-39.72,133.26-69.12,6.2-4.48.22-14.9-6.06-10.36Z"/><path d="M317,338.6c71,55.72,167.15,76.64,254.91,55,27.14-6.68,53.27-20.63,81.63-21.11,7.71-.13,7.74-12.13,0-12-25.48.43-48.61,11.15-72.63,18.24a275.37,275.37,0,0,1-63.56,10.86,293.77,293.77,0,0,1-128-22.16,275.28,275.28,0,0,1-63.88-37.34c-6-4.71-14.55,3.72-8.48,8.49Z"/><path d="M318.9,353.09c-3.76-18.58,6.37-37.86,23.15-46.22,6.91-3.44.84-13.8-6.06-10.36-21.77,10.84-33.44,36.15-28.66,59.77,1.53,7.56,13.1,4.36,11.57-3.19Z"/><path d="M90.11,504.31c3.85,12.37,18.22,18.81,30.24,14.18,12.89-5,18.79-20.61,15.35-33.43-3.85-14.33-19.24-23.6-32.78-15.26-12,7.42-17.83,22.79-12.2,35.94,3,7.08,13.36,1,10.36-6.05-2.87-6.7,1.73-15.33,7.25-19.1,7.49-5.11,14.66,1.11,16.1,9,1.16,6.33-1.41,14.53-7.59,17.44-5.45,2.57-13.29.11-15.16-5.88-2.28-7.35-13.87-4.21-11.57,3.19Z"/><path d="M152.67,550.15c15.52-1.73,26.78-15,28.24-30.29,1.6-16.62-11.29-29.68-28-27.35-15.85,2.22-28,18.86-28.16,34.41-.15,13.82,14.92,23.82,27.92,23.23,7.69-.35,7.74-12.35,0-12-6.29.28-16-4.1-15.92-11.23.06-9.21,7.3-20.19,16.53-22.35C163,502.3,170,509.51,169,519.05c-.87,8.46-7.24,18.09-16.31,19.1-7.59.84-7.67,12.85,0,12Z"/><path d="M193.07,569.21c15.1,3.36,30.61-5.72,33.59-21.28,2.53-13.17-3.09-34-19.42-34.22-14-.22-27.71,11-31.92,24-4.69,14.49,4.31,26.76,17.75,31.5,7.3,2.57,10.44-9,3.19-11.57-19-6.72-7.08-28.44,7.93-31.6,9.6-2,12,11.61,10.9,18.7a15.58,15.58,0,0,1-18.83,12.9c-7.52-1.67-10.73,9.89-3.19,11.57Z"/><path d="M251.81,572.92c17,1.42,30.57-12.42,31.12-29,.45-13.89-8.8-26.82-23.41-26.67-15.5.16-29.62,10.5-31.82,26.35-2.07,14.88,8.2,30.21,24.11,29.34,7.68-.42,7.73-12.42,0-12-8.84.48-13.69-8.09-12.19-16.31,1.77-9.72,10.51-15.26,19.9-15.38,8-.11,11.72,7.33,11.41,14.67-.45,10.51-8.73,17.89-19.12,17-7.69-.64-7.65,11.36,0,12Z"/><path d="M315.58,580.11c12.53-3,22.06-13.27,25.65-25.43,3.7-12.52.08-27.86-12.52-33.83s-27.26,1.62-35.86,11c-7.66,8.33-11.75,20-7.79,31.06,4.43,12.32,16.37,18,28.93,17.43,7.69-.33,7.73-12.33,0-12-7.89.34-15.69-2.18-18-10.5-2.62-9.6,4.64-18.58,12.36-23.34,4.48-2.76,10.43-5.32,15.53-2.64,4.72,2.48,6.82,7.9,6.8,13,0,10.86-7.7,21.22-18.32,23.72-7.51,1.76-4.33,13.33,3.19,11.57Z"/><path d="M393.63,546.32c3.68-7,7.2-14.87,6.34-23-.8-7.66-5.73-13.23-12.55-16.4-8.22-3.83-15.92-5.58-24.86-3.49a36.58,36.58,0,0,0-19.28,12.35c-9.88,11.82-7.9,30.41,6.46,37.6s31.39,5.17,42.95-5.88c5.6-5.34-2.9-13.82-8.48-8.48-7.31,7-17.29,8.2-26.7,4.73-9.08-3.34-11.17-13.42-4.74-20.65,3.07-3.45,7-6.51,11.51-7.73,5.8-1.59,10.32-.82,15.86,1.41,4.44,1.8,8.11,4.07,8,9.35-.12,5-2.61,9.81-4.86,14.1-3.59,6.83,6.76,12.91,10.36,6.06Z"/><path d="M432.67,521c14.05-5.13,27.46-23.17,21.56-38.59-5.72-15-24.16-17.71-37.07-11s-25.52,23.19-21.08,38.33c5,17,24.87,16.73,38,10.66,7-3.23.91-13.58-6.06-10.36-6.42,3-19.05,5-20.74-4.84-1.55-9,7.53-18.58,14.57-22.69,6.44-3.76,17.54-4.51,21,3.84s-5.87,20.33-13.43,23.09c-7.19,2.62-4.08,14.23,3.19,11.57Z"/><path d="M230,133.3c-2.6,23.64,8.68,47.42,27.52,61.6,9.91,7.46,22.77,12.63,35.34,11.85,13.83-.85,24.44-9.17,31-21.06,12.72-23.14,15.66-54.85,0-77.35C316.68,98,306.15,89.65,293.23,88.8c-12.69-.84-26.45,3.71-37.08,10.43-24.66,15.58-35.9,47.41-22,74,3.58,6.85,13.94.79,10.36-6.06-9.68-18.55-3-41.25,12.8-54.09a57.1,57.1,0,0,1,27.5-11.89c11.08-1.63,19.76,2.31,26.87,10.81,14.44,17.27,12.81,42.43,4.55,62.05-3.92,9.31-10.2,18.49-20.8,20.39-10.08,1.8-20.7-2.28-29-7.85C249.2,175,239.76,153.84,242,133.3c.84-7.67-11.16-7.61-12,0Z"/><path d="M232,146c-.1,17.93,12.67,33.74,30.6,36.34,18.65,2.71,34.95-9.73,43.23-25.69,7.6-14.67,10.25-35.59,1.79-50.57-8.9-15.75-29.41-11-43-5.31-9.38,4-16.48,10.09-19.9,19.86-3.23,9.24-2.55,19.32-5,28.75-1.93,7.49,9.64,10.68,11.57,3.19,2-7.83,2-16,3.64-23.84,1.89-8.9,6.73-13.87,15.08-17.3,6.34-2.61,14.59-5.63,21.49-3.7,7.65,2.13,8.84,12.45,9.09,19.18.61,16.1-7.42,34.89-22.85,41.81-16.32,7.33-33.86-5.38-33.77-22.72.05-7.72-11.95-7.73-12,0Z"/><path d="M280.35,108.6c-37.07-9.67-57.4,58.54-17.62,63.65,16.77,2.15,30.2-9.33,35.89-24.33,4.7-12.38,9.21-39.29-10-41.26-8.5-.87-18.26.11-24.42,6.64-5.59,5.93-7.58,14.17-8.57,22-1.06,8.44-.41,18,6.05,24.34,5.47,5.33,14.24,7.5,21,3.31,7.64-4.73,11-16.44,12.48-24.73,1.33-7.33,2.1-16.16-3.3-22.17-6-6.71-14.25-3.47-19.72,2.16a35.32,35.32,0,0,0-9.7,21.72c-.61,7.63,2.2,22.11,13.23,18.28,8.78-3,14.79-14.61,16.3-23.16.76-4.26,1.29-9.79-.92-13.74A9.4,9.4,0,0,0,279.41,117c-10.1,3.65-10.48,16.93-7.9,25.51,1.21,4,7,6.23,10,2.65a22.47,22.47,0,0,0,5.79-16,6.08,6.08,0,0,0-7.59-5.79c-13.62,3.24-22,17.79-18.35,31.2,1.12,4.16,7,6.09,10,2.65,6.36-7.2,13.57-20.83,7.9-30.33-5.8-9.71-19.69-6.5-26.15.55-7.32,8-7.77,19.55-2.93,28.93,2.21,4.29,5.78,8.29,10.8,9,5.62.76,10-2.83,13.21-7,6.47-8.21,12.4-19.93,4.28-29.23-8.3-9.52-19.16-2.78-25.73,4.95-6.07,7.14-8.36,19.87,1.75,24.9,9.74,4.85,21.72-4.08,27.74-11.14,6.36-7.44,15.57-19.34,8.9-29.12-4.55-6.67-21-14.7-27.32-6.58-4.71,6,3.72,14.56,8.48,8.48-.67.85,0,.22,1.16.73s2.37.7,3.5,1.21c1.56.69,4.31,1.9,4.69,3.79.32,1.57-2.35,4.92-3.14,6.21a55.19,55.19,0,0,1-4.75,6.8,31.24,31.24,0,0,1-6.43,6c-1.33.88-6,4-7.61,2.82-2.87-2.21,6.31-12.23,8.69-11.84,5.85,1-1.24,11.53-2.62,13.39-2.05,2.76-2.8,5-4.89,1.28a15,15,0,0,1-2-8.07,11.46,11.46,0,0,1,2.69-7c1.14-1.33,4.56-4.15,6.63-3.11,4.09,2.05-3.46,13.78-5.35,15.92l10,2.65a13.43,13.43,0,0,1,10-16.44l-7.6-5.78a10.1,10.1,0,0,1-2.28,7.55l10,2.65a16.48,16.48,0,0,1-.82-8.08c.06-.28,1.06-2.79,1.07-2.75l-1.43-.56c-1.44-1.06-1.89-.74-1.37,1-.55,2.18-.35,4.48-1,6.73a22.73,22.73,0,0,1-3.43,6.81c-.67.92-2.08,1.9-2.53,2.88l-.57.52c-1.35.9-.66,1.57,2.09,2,.23-.27-.73-4.31-.74-5a23,23,0,0,1,4-13.41,17.43,17.43,0,0,1,3.81-4.22c1.75-1.27.42-1.45,1.29-.15,2.21,3.29.23,10-.61,13.39-1,4-2.58,11.57-6.21,14.09-3.13,2.17-6.92-1.17-8.23-3.92-3.29-6.91-1-20.45,3.79-26.36,3.12-3.81,8.08-3.81,12.62-3.77,1.79,0,3.63-.33,4.79,1.17s1,4,1,5.66c0,15.24-7.83,38.54-27.3,34.92-21.79-4.06-6.74-45.47,13.88-40.09,7.48,2,10.67-9.62,3.19-11.57Z"/><path d="M427,140c-1.74-31.26-21.2-57.7-43.4-78.33a229.88,229.88,0,0,0-70.84-44.45C260.92-3.6,200.86-6.17,148.16,13S51.77,72.22,25.91,121.7a227.9,227.9,0,0,0-24.6,79.44c-3.56,30.91.33,62.45,9.45,92.12,19.77,64.31,62.63,118.07,111.06,163.51q9,8.46,18.32,16.63c5.77,5.09,14.29-3.36,8.48-8.48C101.21,423.07,57.16,375.26,32,316.45,19.77,288,12.25,257.06,12,226a206.89,206.89,0,0,1,14.58-77c19.23-49.23,56.72-91.58,104-115.45,47.45-24,103.69-27.23,154.56-13a224.46,224.46,0,0,1,71.28,34.26c22.18,16.06,44.43,37.78,54.06,64A73.15,73.15,0,0,1,415,140c.42,7.68,12.42,7.73,12,0Z"/><path d="M388.7,426.07a274.45,274.45,0,0,1-35.23,66.5c-4.51,6.28,5.89,12.28,10.36,6.05a285.86,285.86,0,0,0,36.45-69.36c2.64-7.27-9-10.4-11.58-3.19Z"/><path d="M831.66,409.21q34.05,2.37,68.22,2.14c20.44-.17,41.42-.12,60.46-8.53,33.72-14.89,53.57-48.51,66.75-81.28,4.35-10.81,8.17-21.81,12.07-32.78,2.06-5.77,4.14-11.54,6.33-17.27,1-2.72,3-10.87,6.86-10.87,7.72,0,7.73-12,0-12-8.76,0-13.45,7.25-16.42,14.55-4,9.93-7.52,20.1-11.11,30.21-6.88,19.35-14,38.83-24.76,56.41-9,14.58-20.57,28-35.21,37.1-17.18,10.67-36.32,12-56.07,12.34q-38.58.7-77.12-2c-7.71-.53-7.67,11.47,0,12Z"/><path d="M1036.25,260.69c55.92-9.72,113.69-3.5,167.26,14.7,55.86,19,107.13,51,149.76,91.65a429.26,429.26,0,0,1,66.06,80.53c4.13,6.5,14.52.48,10.36-6.06A440.28,440.28,0,0,0,1298.32,308.4c-50.33-32.7-107.72-54.61-167.4-61.82a336.16,336.16,0,0,0-97.86,2.54c-7.59,1.32-4.38,12.89,3.19,11.57Z"/><path d="M1421.48,439.36c-35.12,25.38-73.9,45.64-114.11,61.67-38.47,15.34-78.52,27.23-119.34,34.36-45.74,8-93.07,11.24-139.42,8-44.5-3.12-89.29-13-128.6-34.7-35.37-19.49-69.26-49.53-78.86-90.31-1.77-7.51-13.35-4.33-11.57,3.19,8.74,37.14,36.4,66.47,67.34,87.15C934.49,533.81,978.51,547,1023,552.8c49.5,6.5,99.75,3.86,149.07-2.88,41.73-5.7,82.71-16.55,122.22-31.08,47-17.29,92.57-39.72,133.26-69.12,6.2-4.48.22-14.9-6.06-10.36Z"/><path d="M937,458.6c71,55.72,167.15,76.64,254.91,55,27.14-6.68,53.27-20.63,81.63-21.11,7.72-.13,7.74-12.13,0-12-25.48.43-48.61,11.15-72.63,18.24a275.37,275.37,0,0,1-63.56,10.86,293.77,293.77,0,0,1-128-22.16,275.28,275.28,0,0,1-63.88-37.34c-6-4.71-14.55,3.72-8.48,8.49Z"/><path d="M938.9,473.09c-3.76-18.58,6.37-37.86,23.15-46.22,6.91-3.44.84-13.8-6.06-10.36-21.77,10.84-33.44,36.15-28.66,59.77,1.53,7.56,13.1,4.36,11.57-3.19Z"/><path d="M709,623.35c3.66,11.81,17.33,18.81,29.23,15.81,13.41-3.37,20.07-18.71,18-31.46-2.32-14.09-16.37-25.77-30.57-19.32-13.26,6-22.95,22.53-16,36.4,3.44,6.91,13.8.84,10.36-6.06-3.65-7.31,4.5-17,11-19.61,7.79-3.15,13.43,6.21,13.65,12.88.21,6.19-3,14-9.6,15.6-5.45,1.3-12.75-1.89-14.47-7.43-2.28-7.36-13.87-4.22-11.57,3.19Z"/><path d="M772.67,670.15c15.53-1.73,26.77-15,28.24-30.29,1.53-15.8-10.25-28.94-26.41-27.56-15.7,1.34-27.49,16.23-29.44,31.18s10.1,27.06,25.06,26.73c7.71-.17,7.74-12.17,0-12-8.21.18-14.5-5.57-13.11-13.92,1.48-8.79,8.27-18.7,17.67-20,22-3.07,15.75,31.89-2,33.87-7.59.84-7.67,12.85,0,12Z"/><path d="M813.07,689.21c15.1,3.36,30.61-5.72,33.6-21.28,2.52-13.17-3.1-34-19.43-34.22-14-.22-27.71,11-31.92,24-4.69,14.49,4.31,26.76,17.75,31.5,7.3,2.57,10.44-9,3.19-11.57-19-6.72-7.08-28.44,7.93-31.6,9.6-2,12,11.61,10.9,18.7a15.58,15.58,0,0,1-18.83,12.9c-7.52-1.67-10.73,9.89-3.19,11.57Z"/><path d="M849.4,677.37a28.1,28.1,0,0,0,37,12.9c13.46-6.37,19.8-23.37,14.8-37.25-5.19-14.41-19-18.76-32.65-13-14.13,5.93-23.45,20.7-19.79,36,1.81,7.5,13.38,4.33,11.57-3.19-2.12-8.85,3.7-17.28,11.55-21.16,7.58-3.75,15.36-3,18.15,5.81,2.54,8-.64,17.94-8.36,21.85-8.54,4.33-17.82.29-21.94-7.93-3.46-6.91-13.82-.84-10.36,6Z"/><path d="M935.58,700.11c12.53-3,22.06-13.27,25.65-25.43,3.7-12.52.08-27.86-12.52-33.83s-27.26,1.62-35.86,11c-7.64,8.3-11.69,20-7.93,31,4.13,12.1,15.49,17.8,27.8,17.29,7.7-.32,7.74-12.32,0-12s-14.83-2.24-16.78-10.34c-2.33-9.67,4.62-18.49,12.44-23.31,4.48-2.76,10.43-5.32,15.53-2.64,4.72,2.48,6.82,7.9,6.8,13-.05,10.86-7.7,21.22-18.32,23.72-7.51,1.76-4.33,13.33,3.19,11.57Z"/><path d="M1013.63,666.32c3.68-7,7.2-14.87,6.34-23-.78-7.49-5.83-13.61-12.43-17-15.46-7.9-31.16-2.61-42.72,9.34-11.93,12.33-8.89,30.47,5.29,39.68,14.65,9.52,30.93,3.1,42.58-7.87,5.64-5.3-2.86-13.77-8.48-8.48-7.09,6.68-16.58,12.18-26.19,7.08-3.76-2-7.17-5.18-8.35-9.38-1.6-5.68.72-9.8,4.75-13.65,7.3-7,15.84-10.9,25.7-7,11.65,4.66,7.73,15.4,3.15,24.12-3.59,6.83,6.76,12.91,10.36,6.06Z"/><path d="M1052.67,641c13.77-5,26.67-22.15,22-37.4-4.78-15.64-23.74-18.93-36.83-12.54s-25.81,22.8-21.94,38c4.38,17.2,23.36,16.89,36.76,11.94,7.19-2.65,4.08-14.26-3.19-11.57-6.42,2.37-18.7,6.42-21.83-2.89-3-8.94,6.72-19.41,13.57-23.63,6.56-4,18-5.27,21.69,3.43,3.62,8.44-5.91,20.34-13.43,23.09-7.19,2.62-4.08,14.23,3.19,11.57Z"/><path d="M850,253.3c-2.59,23.64,8.68,47.42,27.52,61.6,9.91,7.46,22.77,12.63,35.34,11.85,13.83-.85,24.44-9.17,31-21.06,12.72-23.14,15.66-54.85,0-77.35-7.17-10.31-17.7-18.69-30.62-19.54-12.69-.84-26.45,3.71-37.08,10.43-24.66,15.58-35.9,47.41-22,74,3.58,6.85,13.94.79,10.36-6.06-9.68-18.55-3-41.25,12.8-54.09a57.1,57.1,0,0,1,27.5-11.89c11.08-1.63,19.76,2.31,26.87,10.81,14.44,17.27,12.81,42.43,4.55,62.05-3.92,9.31-10.2,18.49-20.8,20.39-10.08,1.8-20.7-2.28-28.95-7.85C869.2,295,859.77,273.84,862,253.3c.84-7.67-11.16-7.61-12,0Z"/><path d="M852,266c-.1,17.93,12.67,33.74,30.6,36.34,18.65,2.71,34.95-9.73,43.23-25.69,7.6-14.67,10.25-35.59,1.79-50.57-8.9-15.75-29.41-11-43-5.31-9.39,4-16.49,10.09-19.91,19.86-3.23,9.24-2.55,19.32-5,28.75-1.93,7.49,9.65,10.68,11.57,3.19,2-7.83,2-16,3.64-23.84,1.89-8.9,6.73-13.87,15.08-17.3,6.34-2.61,14.59-5.63,21.49-3.7,7.65,2.13,8.84,12.45,9.09,19.18.61,16.1-7.42,34.89-22.85,41.81-16.32,7.33-33.86-5.38-33.77-22.72,0-7.72-12-7.73-12,0Z"/><path d="M900.35,228.6c-37.07-9.67-57.4,58.54-17.62,63.65,16.77,2.15,30.2-9.33,35.89-24.33,4.7-12.38,9.21-39.29-10-41.26-8.5-.87-18.25.11-24.42,6.64-5.59,5.93-7.57,14.17-8.57,22-1.06,8.44-.41,18,6,24.34,5.48,5.33,14.24,7.5,21,3.31,7.64-4.73,11-16.44,12.48-24.73,1.33-7.33,2.1-16.16-3.3-22.17-6-6.71-14.25-3.47-19.72,2.16a35.32,35.32,0,0,0-9.7,21.72c-.61,7.63,2.2,22.11,13.23,18.28,8.78-3,14.79-14.61,16.3-23.16.76-4.26,1.29-9.79-.92-13.74A9.4,9.4,0,0,0,899.41,237c-10.1,3.65-10.48,16.93-7.9,25.51,1.21,4,7,6.23,10,2.65a22.47,22.47,0,0,0,5.79-16,6.08,6.08,0,0,0-7.59-5.79c-13.62,3.24-22,17.79-18.35,31.2,1.12,4.16,7,6.09,10,2.65,6.35-7.2,13.56-20.83,7.89-30.33-5.8-9.71-19.69-6.5-26.15.55-7.32,8-7.77,19.55-2.93,28.93,2.21,4.29,5.78,8.29,10.8,9,5.62.76,10-2.83,13.21-7,6.47-8.21,12.4-19.93,4.28-29.23-8.3-9.52-19.16-2.78-25.73,4.95-6.07,7.14-8.36,19.87,1.75,24.9,9.74,4.85,21.72-4.08,27.74-11.14,6.36-7.44,15.57-19.34,8.9-29.12-4.55-6.67-21-14.7-27.32-6.58-4.71,6,3.72,14.56,8.48,8.48-.67.85-.05.22,1.16.73s2.37.7,3.5,1.21c1.56.69,4.31,1.9,4.69,3.79.32,1.57-2.35,4.92-3.14,6.21a55.19,55.19,0,0,1-4.75,6.8,31.24,31.24,0,0,1-6.43,6c-1.33.88-6,4-7.61,2.82-2.87-2.21,6.31-12.23,8.69-11.84,5.85,1-1.24,11.53-2.62,13.39-2.05,2.76-2.8,5-4.89,1.28a15,15,0,0,1-2-8.07,11.46,11.46,0,0,1,2.69-7c1.14-1.33,4.56-4.15,6.63-3.11,4.09,2.05-3.46,13.78-5.35,15.92l10,2.65a13.43,13.43,0,0,1,10-16.44l-7.6-5.78a10.1,10.1,0,0,1-2.28,7.55l10,2.65a16.48,16.48,0,0,1-.82-8.08c.06-.28,1.06-2.79,1.07-2.75l-1.42-.56c-1.45-1.06-1.9-.74-1.37,1-.56,2.18-.36,4.48-1,6.73a22.73,22.73,0,0,1-3.43,6.81c-.67.92-2.08,1.9-2.53,2.88l-.57.52c-1.35.9-.66,1.57,2.09,2,.23-.27-.73-4.31-.74-5a23,23,0,0,1,4-13.41,17.43,17.43,0,0,1,3.81-4.22c1.75-1.27.42-1.45,1.29-.15,2.21,3.29.23,10-.61,13.39-1,4-2.58,11.57-6.21,14.09-3.13,2.17-6.92-1.17-8.23-3.92-3.29-6.91-1-20.45,3.79-26.36,3.12-3.81,8.08-3.81,12.62-3.77,1.79,0,3.63-.33,4.79,1.17s1,4,1,5.66c0,15.24-7.82,38.54-27.3,34.92-21.79-4.06-6.73-45.47,13.88-40.09,7.48,2,10.67-9.62,3.19-11.57Z"/><path d="M629,407.26c16.55,58.12,52,108.24,93.86,151,12,12.2,24.48,23.85,37.29,35.16,5.77,5.09,14.29-3.36,8.48-8.48-55.94-49.38-107.21-107.64-128.06-180.85-2.11-7.42-13.69-4.27-11.57,3.19Z"/><path d="M1047,260c-1.75-31.5-21.49-58.13-43.94-78.83a230.08,230.08,0,0,0-71.67-44.49c-52.4-20.69-113-22.75-166-2.71-33.42,12.65-63,33.76-86.77,60.39-5.13,5.74,3.33,14.26,8.48,8.48,38.28-42.92,91.24-68.76,148.86-70.69,52.77-1.76,106.72,15.13,148,48.37,24.3,19.58,49.21,46.72,51,79.48.42,7.68,12.42,7.73,12,0Z"/><path d="M1008.7,546.07a274.45,274.45,0,0,1-35.23,66.5c-4.51,6.28,5.89,12.28,10.36,6a285.86,285.86,0,0,0,36.45-69.36c2.64-7.27-9-10.4-11.58-3.19Z"/></g></g></svg>