<svg xmlns="http://www.w3.org/2000/svg" viewBox="0 0 1424.58 694.7"><title>Designer</title><g id="Слой_2" data-name="Слой 2"><g id="Слой_1-2" data-name="Слой 1"><path d="M208.65,283.2q34.07,2.37,68.22,2.13c19.87-.16,40.42,0,58.95-8.12,33-14.5,52.49-47.44,65.38-79.49,4.34-10.8,8.16-21.8,12.07-32.77,2.05-5.78,4.13-11.54,6.33-17.27,1.66-4.35,3.86-13.08,9.74-13.07,3.86,0,3.87-6,0-6-7.26,0-11.06,6.31-13.53,12.34-4.05,9.92-7.51,20.11-11.1,30.21-7,19.58-14.14,39.34-25.07,57.13-9.22,15-21.2,28.82-36.28,38.18-17.63,10.94-37.32,12.37-57.58,12.74q-38.59.71-77.13-2c-3.85-.27-3.83,5.73,0,6Z"/><path d="M412.45,134.79c56.46-9.82,114.75-3.69,168.85,14.7,56.36,19.15,108.07,51.38,151.09,92.41A432.74,432.74,0,0,1,798.92,323c2.06,3.25,7.25.24,5.18-3A436.73,436.73,0,0,0,673.81,188c-49.87-32.38-106.76-54.26-165.89-61.4A333.54,333.54,0,0,0,410.85,129c-3.79.66-2.19,6.44,1.6,5.79Z"/><path d="M800,318.93c-35.34,25.54-74.37,45.85-114.83,62a604.28,604.28,0,0,1-119.34,34.36c-46,8-93.6,11.36-140.22,8.09-45-3.17-90.32-13.19-130.11-35.11-36-19.85-70.47-50.59-80.24-92.11-.89-3.76-6.67-2.17-5.79,1.6,8.57,36.38,35.66,65.09,66,85.35C312.54,407.9,356,421,400,426.78c49.22,6.48,99.23,3.92,148.28-2.77C590,418.32,631,407.46,670.47,392.93c46.79-17.2,92.08-39.57,132.55-68.82,3.1-2.24.11-7.45-3-5.18Z"/><path d="M316.12,333.46c70.14,55,165.36,75.59,252,54.25,27.43-6.75,53.75-20.73,82.43-21.22,3.85-.06,3.87-6.06,0-6-25.18.43-48.1,11.13-71.84,18.14a279.3,279.3,0,0,1-64.36,11,296.38,296.38,0,0,1-128.79-22.27,279.73,279.73,0,0,1-65.19-38.11c-3-2.36-7.28,1.86-4.24,4.24Z"/><path d="M313,350.87c-4-19.84,6.5-40.63,24.53-49.6,3.45-1.73.42-6.9-3-5.19-20.53,10.23-31.81,34-27.28,56.39.76,3.78,6.55,2.18,5.78-1.6Z"/><path d="M90,500.5c3,9.6,13.29,15,23,13.12,10.8-2,17.34-12.88,17.63-23.29s-6.4-22.17-17.4-23.74c-12-1.7-22.47,10.48-26,20.71-4.27,12.46,1.13,26.38,13.5,31.44,3.57,1.46,5.13-4.34,1.59-5.79-26.35-10.78,2.8-55.06,18.36-35.08,6,7.67,5.08,19.92-2.2,26.49-7,6.32-19.81,4-22.75-5.46-1.14-3.67-6.93-2.1-5.78,1.6Z"/><path d="M129,522.14c-1.87,11.69,8.26,22.29,20,22,12-.28,21.46-10.47,24.75-21.34,3.58-11.81-.27-25.64-13-29.61-12.27-3.82-24.27,3.31-30.62,13.67-6.92,11.28-8.7,31.79,8,35.28,3.77.79,5.38-5,1.59-5.79-14.85-3.1-8-23.1-1.24-30.71,7.22-8.08,22.33-11.46,28.66-.29,5.32,9.38,0,22.6-7.87,28.78-4.34,3.39-9.94,5.11-15.27,3.14-5.51-2-10.2-7.39-9.21-13.54.6-3.78-5.18-5.41-5.79-1.6Z"/><path d="M173,541.9c1.53,12,11.08,22.07,23.6,22.13,13.21.07,23.41-10.18,24.57-23,1-11.47-4.59-28.07-18.49-27.24-11.93.71-23.3,10-27.24,21.09-4.55,12.78,2.1,27.5,14.82,32.19,3.63,1.34,5.19-4.46,1.59-5.78-10.79-4-14.63-17.51-9.53-27.32,4.3-8.26,21.31-21.26,28.92-10,6.55,9.67,5.62,25.52-5.21,31.64a18.23,18.23,0,0,1-27-13.64c-.48-3.78-6.49-3.83-6,0Z"/><path d="M229,552.84c5.5,11,18.3,16.91,30.13,12.93,12-4.06,19.12-16.62,17.59-29.07-1.32-10.71-9.25-20.81-21-19.18-12.57,1.75-23.84,15.4-26.78,27.16-3.22,12.92,4.88,28.67,19.58,28.11,3.85-.15,3.87-6.15,0-6-6.21.23-11.2-4-13.39-9.66s-.63-12.29,2.28-17.53c4.85-8.75,19.1-23.29,28.91-12.61,7.23,7.86,5.55,21.81-1.91,28.86-9.65,9.12-24.57,5.32-30.26-6-1.73-3.45-6.9-.41-5.18,3Z"/><path d="M286,552.67c-4.61,3.71-.65,10.56,2.39,14a24.94,24.94,0,0,0,16.61,8c14.07,1.12,26-10.26,30.07-23,4.17-12.94-.64-30.35-15.88-32.74-13.81-2.16-28.81,9.9-33.78,22.11-5.52,13.6,3,32.16,19.25,31.23,3.84-.22,3.87-6.23,0-6-6.4.36-11.52-3.78-13.92-9.55-2.53-6.09-.9-12.64,2.62-18,6.55-9.93,23.89-20.61,33.47-8.69,8.56,10.65,2,27.56-8.16,34.67a20.24,20.24,0,0,1-16.16,3.49,18.94,18.94,0,0,1-8-4c-.84-.71-5.93-6-4.24-7.34,3-2.43-1.27-6.65-4.24-4.24Z"/><path d="M355.7,554.92c10.82,10.11,23.05,2,29.59-8.34,6.14-9.75,14.12-25.83,4.13-35.78-4.48-4.47-12.56-7.45-18.69-8.34-7.58-1.11-13.48,3.33-19.2,7.67-9.86,7.48-20.24,21.34-9.7,32.94,10.85,11.93,32,9.59,45.51,4.72,3.6-1.29,2.05-7.09-1.6-5.78-11.05,4-27.12,6.48-37.35-1.08-14.1-10.43,5-27.08,15.11-31.57,6-2.67,15,.72,20.12,4.38,6.16,4.37,4.81,12,2.49,18.08-3.4,8.92-14.32,29.93-26.17,18.85-2.82-2.63-7.07,1.6-4.24,4.25Z"/><path d="M403.85,505.49c5.89,11.27,20.86,13.35,31,6.73s19.13-22.85,12.28-34.43c-6.69-11.29-21.56-12.3-32.16-6.44-10.9,6-22.27,19.93-19.37,33.22,3.39,15.54,21.54,14.85,33.74,12.65,3.79-.68,2.18-6.46-1.6-5.78-9.8,1.76-27.4,2.88-26.52-11.87.73-12.18,14-25.2,26.09-25.94,5.36-.33,11.27,2.09,14.31,6.65,4,6,.88,13.89-2.67,19.35-6.48,10-23.08,16-30,2.83-1.78-3.43-7-.4-5.18,3Z"/><path d="M230,130.28c-2.48,22.57,8,45.39,26,59,9.49,7.18,21.76,12.22,33.83,11.45,12.78-.82,22.37-8.64,28.38-19.58,12.25-22.27,15.06-52.68,0-74.32-6.55-9.4-16.24-17.24-28-18.06-12.2-.83-25.36,3.57-35.57,10-23.24,14.69-34,44.79-20.94,69.9,1.79,3.42,7,.39,5.18-3-10.32-19.76-3.53-43.9,13.27-57.72A60,60,0,0,1,281,95.28c12.14-1.87,21.94,2.28,29.8,11.59,15.27,18.08,13.88,44.23,5.32,65-4.25,10.3-11.26,20.3-22.9,22.49-10.84,2-22.34-2.14-31.26-8.15A60.38,60.38,0,0,1,236,130.28c.42-3.83-5.59-3.8-6,0Z"/><path d="M232,143c-.1,16.65,11.74,31.14,28.4,33.45,17.31,2.4,32.21-9.64,39.83-24.32,7.11-13.7,9.7-33.53,1.79-47.54-8-14.24-27.15-9.19-39.23-4.09-8.51,3.59-15.07,9.06-18.17,17.93-3.23,9.23-2.55,19.32-5,28.74-1,3.75,4.82,5.34,5.79,1.6,2-7.83,2-16,3.64-23.84,2.1-9.92,7.89-15.67,17.16-19.4,7-2.8,15.57-5.79,23.1-3.7,9.17,2.55,11,13.87,11.29,22.07.65,17.23-8.06,36.84-24.34,44.41C258,176.83,237.87,162.62,238,143c0-3.87-6-3.87-6,0Z"/><path d="M276.55,108.48c-33.11-8.64-52,53.29-16.43,57.81,15.24,1.93,27.42-8.59,32.61-22.19,3.85-10.11,9.38-35.57-7.13-37.45-7.66-.88-16.73-.15-22.3,5.76-5,5.31-6.78,12.87-7.69,19.91-1,7.61-.71,16.49,5.17,22.21,4.5,4.39,11.78,6.38,17.37,2.85,6.86-4.34,9.75-15.5,11.1-22.94,1.12-6.25,2-14-2.54-19.25-4.81-5.55-11.2-2.24-15.47,2.16a32,32,0,0,0-8.82,19.6c-.45,5.39.75,18.57,9.43,15.39,7.74-2.84,12.9-13.55,14.21-21.07,1-5.74.21-18-8.86-14.4-8.3,3.3-7.9,14.85-5.8,21.82.6,2,3.49,3.11,5,1.32a19.39,19.39,0,0,0,4.92-13.92,3,3,0,0,0-3.8-2.89,22.53,22.53,0,0,0-16.26,27.51c.57,2.08,3.5,3,5,1.32,5.4-6.13,12.35-18.49,7.42-26.69-4.81-8-16.33-4.41-21.43,1.15-6.38,7-6.66,17.16-2.47,25.3,1.77,3.42,4.53,7,8.61,7.54,4.64.63,8.08-2.8,10.69-6.15,5.42-6.94,11-17,4.28-25-7-8.32-16.13-1.4-21.49,5-4.75,5.63-7.24,16.26,1.15,20.18s19-4.71,24.11-10.66c5.33-6.26,14.34-17.18,8.42-25.49-3.63-5.12-17.54-12.45-22.61-6-2.35,3,1.87,7.28,4.24,4.24,1.4-1.78,6.76.76,8.3,1.47,2.34,1.08,5.52,2.81,6.07,5.59.92,4.66-5.88,12.64-8.67,15.92-2.92,3.46-13.27,13.59-18.27,8.81s5.69-17,10.81-16.85c3.49.11,5.26,4,5.09,7.16-.22,3.94-2.89,7.57-5.12,10.64-1,1.38-2.51,3.94-4.12,4.58-2.72,1.1-4.82-1.32-6-3.3a18.23,18.23,0,0,1-2.4-9.59c.25-6.09,5.84-15,13.13-13,8.21,2.19-1.06,17.56-4,20.94l5,1.32A16.46,16.46,0,0,1,279.12,129l-3.79-2.9a13.13,13.13,0,0,1-3.16,9.68l5,1.32a20,20,0,0,1-.87-9.28c.17-1,.58-4.19,1.89-4.47,1.8-.39,2.13,1.58,2.33,2.55,1,4.89-2.32,11.58-5.11,15.35-.68.92-4.24,5.83-6,5.09-1.15-.49-1.13-5.58-1.15-6.49a26.14,26.14,0,0,1,4.46-14.92c2.16-3.22,7.78-10,10.43-4,2.05,4.64.69,10.65-.46,15.34-1.2,4.9-3,12-7,15.42-4.67,4-11-.31-13.09-4.89-3.66-8-1.37-22.88,4.41-29.63,3.76-4.39,9.35-4.71,14.74-4.66,6.74.06,8.76,3.44,8.77,9.84,0,17.2-9.53,42.17-31.1,37.8-25.7-5.2-8.8-52.2,15.47-45.87,3.74,1,5.34-4.81,1.6-5.78Z"/><path d="M421,137c-1.68-30.43-20.93-56.15-42.52-76.2a225.61,225.61,0,0,0-69.52-43.68C257.55-3.55,198.22-6.13,146,12.83,94,31.68,51,71.43,25.5,120.2A223.73,223.73,0,0,0,1.3,198.13c-3.53,30.67.29,61.88,9.35,91.31,19.62,63.82,62.24,117.11,110.29,162.19q9,8.46,18.31,16.63c2.89,2.55,7.15-1.68,4.25-4.24C95.89,422,51.72,374,26.38,315,13.93,286,6.25,254.59,6,223a209.31,209.31,0,0,1,14.69-77.79C40.17,95.23,78,52.17,126,27.93,174.19,3.58,231.22.18,282.88,14.6a226.85,226.85,0,0,1,72,34.56c22.87,16.57,45.51,38.77,55.44,65.76A75.91,75.91,0,0,1,415,137c.21,3.84,6.21,3.87,6,0Z"/><path d="M388.59,423.85a277.45,277.45,0,0,1-35.53,67.22c-2.26,3.14,2.94,6.14,5.18,3a283.35,283.35,0,0,0,36.14-68.64c1.32-3.64-4.48-5.2-5.79-1.6Z"/><path d="M828.65,403.2q34.07,2.37,68.22,2.13c19.87-.16,40.42,0,59-8.12,33-14.5,52.49-47.44,65.38-79.49,4.34-10.8,8.16-21.8,12.07-32.77,2-5.78,4.13-11.54,6.33-17.27,1.66-4.35,3.86-13.08,9.74-13.07,3.86,0,3.87-6,0-6-7.26,0-11.06,6.31-13.53,12.34-4,9.92-7.51,20.11-11.1,30.21-7,19.58-14.14,39.34-25.07,57.13-9.22,15-21.2,28.82-36.28,38.18-17.63,10.94-37.32,12.37-57.58,12.74q-38.6.71-77.13-2c-3.85-.27-3.83,5.73,0,6Z"/><path d="M1032.45,254.79c56.46-9.82,114.75-3.69,168.85,14.7,56.36,19.15,108.07,51.38,151.09,92.41A432.74,432.74,0,0,1,1418.92,443c2.06,3.25,7.26.24,5.18-3a436.73,436.73,0,0,0-130.29-132c-49.87-32.38-106.76-54.26-165.89-61.4a333.54,333.54,0,0,0-97.07,2.43c-3.79.66-2.19,6.44,1.6,5.79Z"/><path d="M1420,438.93c-35.34,25.54-74.37,45.85-114.83,62a604.28,604.28,0,0,1-119.34,34.36c-46,8-93.6,11.36-140.22,8.09-45-3.17-90.32-13.19-130.11-35.11-36-19.85-70.47-50.59-80.24-92.11-.88-3.76-6.67-2.17-5.79,1.6,8.57,36.38,35.66,65.09,66,85.35C932.54,527.9,976,541,1020,546.79c49.22,6.47,99.23,3.91,148.28-2.78,41.73-5.69,82.71-16.55,122.21-31.08,46.79-17.2,92.08-39.57,132.55-68.82,3.1-2.24.11-7.45-3-5.18Z"/><path d="M936.12,453.46c70.15,55,165.36,75.59,252,54.25,27.43-6.75,53.75-20.73,82.43-21.22,3.85-.06,3.87-6.06,0-6-25.17.43-48.1,11.13-71.84,18.14a279.3,279.3,0,0,1-64.36,11,296.38,296.38,0,0,1-128.79-22.27,279.73,279.73,0,0,1-65.19-38.11c-3-2.36-7.28,1.86-4.24,4.24Z"/><path d="M933,470.87c-4-19.84,6.5-40.63,24.53-49.6,3.45-1.73.42-6.9-3-5.19-20.53,10.23-31.8,34-27.28,56.39.76,3.78,6.55,2.18,5.78-1.6Z"/><path d="M710,620.5c3,9.6,13.29,15,23,13.12,10.8-2,17.34-12.88,17.63-23.29s-6.4-22.17-17.4-23.74c-12-1.7-22.47,10.48-26,20.71-4.27,12.46,1.13,26.38,13.5,31.44,3.57,1.46,5.13-4.34,1.59-5.79-26.35-10.78,2.8-55.06,18.36-35.08,6,7.67,5.08,19.92-2.2,26.49-7,6.32-19.81,4-22.74-5.46-1.15-3.67-6.94-2.1-5.79,1.6Z"/><path d="M749,642.14c-1.87,11.69,8.26,22.29,20,22,12-.28,21.46-10.47,24.75-21.34,3.58-11.81-.27-25.64-13-29.61-12.27-3.82-24.27,3.31-30.62,13.67-6.92,11.28-8.7,31.79,8,35.28,3.77.79,5.38-5,1.59-5.79-14.85-3.1-8-23.1-1.24-30.71,7.22-8.08,22.33-11.46,28.66-.29,5.32,9.38,0,22.6-7.87,28.78-4.34,3.39-9.94,5.11-15.27,3.14-5.51-2-10.2-7.39-9.21-13.54.6-3.78-5.18-5.41-5.79-1.6Z"/><path d="M793,661.9c1.53,12,11.08,22.07,23.61,22.13,13.2.07,23.4-10.18,24.56-23,1-11.47-4.59-28.07-18.49-27.24-11.93.71-23.3,10-27.24,21.09-4.55,12.78,2.1,27.5,14.82,32.19,3.63,1.34,5.19-4.46,1.59-5.78-10.79-4-14.62-17.51-9.53-27.32,4.3-8.26,21.31-21.26,28.92-10,6.55,9.67,5.63,25.52-5.21,31.64a18.23,18.23,0,0,1-27-13.64c-.48-3.78-6.49-3.83-6,0Z"/><path d="M849,672.84c5.5,11,18.3,16.91,30.13,12.93,12-4.06,19.12-16.62,17.59-29.07-1.32-10.71-9.25-20.81-21-19.18-12.57,1.75-23.84,15.4-26.78,27.16-3.22,12.92,4.88,28.67,19.58,28.11,3.85-.15,3.87-6.15,0-6-6.21.23-11.2-4-13.39-9.66s-.63-12.29,2.28-17.53c4.85-8.75,19.1-23.29,28.91-12.61,7.23,7.86,5.55,21.81-1.91,28.86-9.65,9.12-24.57,5.32-30.26-6-1.73-3.45-6.9-.41-5.18,3Z"/><path d="M906,672.67c-4.61,3.71-.65,10.56,2.39,14a24.94,24.94,0,0,0,16.61,8c14.07,1.12,26-10.26,30.07-23,4.17-12.94-.64-30.35-15.88-32.74-13.81-2.16-28.81,9.9-33.78,22.11-5.52,13.6,3,32.16,19.25,31.23,3.84-.22,3.87-6.23,0-6-6.4.36-11.52-3.78-13.92-9.55-2.53-6.09-.9-12.64,2.62-18,6.55-9.93,23.89-20.61,33.47-8.69,8.56,10.65,2,27.56-8.16,34.67a20.24,20.24,0,0,1-16.16,3.49,18.94,18.94,0,0,1-8-4c-.84-.71-5.93-6-4.24-7.34,3-2.43-1.26-6.65-4.24-4.24Z"/><path d="M975.7,674.92c10.82,10.11,23,2,29.59-8.34,6.14-9.75,14.12-25.83,4.13-35.78-4.48-4.47-12.56-7.45-18.69-8.34-7.58-1.1-13.48,3.33-19.2,7.67-9.86,7.48-20.24,21.34-9.7,32.94,10.85,11.93,32,9.59,45.51,4.72,3.6-1.29,2-7.09-1.6-5.78-11,4-27.12,6.48-37.35-1.08-14.1-10.43,5-27.08,15.11-31.57,6-2.67,15,.72,20.12,4.38,6.16,4.37,4.81,12,2.49,18.08-3.4,8.92-14.32,29.93-26.17,18.85-2.82-2.63-7.07,1.6-4.24,4.25Z"/><path d="M1023.85,625.49c5.89,11.27,20.87,13.35,31,6.73s19.13-22.85,12.28-34.43c-6.69-11.29-21.56-12.3-32.16-6.44-10.9,6-22.27,19.93-19.37,33.22,3.39,15.54,21.54,14.85,33.74,12.65,3.79-.68,2.18-6.46-1.6-5.78-9.8,1.76-27.4,2.88-26.52-11.87.73-12.18,14-25.2,26.09-25.94,5.36-.33,11.27,2.09,14.31,6.65,4,6,.88,13.89-2.67,19.35-6.48,10-23.08,16-30,2.83-1.78-3.43-7-.4-5.18,3Z"/><path d="M850,250.28c-2.48,22.57,8,45.39,26,59,9.49,7.18,21.76,12.22,33.83,11.45,12.78-.82,22.37-8.64,28.38-19.58,12.25-22.27,15.06-52.68,0-74.32-6.55-9.4-16.24-17.24-28-18.06-12.2-.83-25.36,3.57-35.57,10-23.24,14.69-34,44.79-20.94,69.9,1.79,3.42,7,.39,5.18-3-10.32-19.76-3.53-43.9,13.27-57.72A60,60,0,0,1,901,215.28c12.14-1.87,21.94,2.28,29.8,11.59,15.27,18.08,13.88,44.23,5.32,65-4.25,10.3-11.26,20.3-22.9,22.49-10.84,2-22.34-2.14-31.26-8.15A60.37,60.37,0,0,1,856,250.28c.42-3.83-5.59-3.8-6,0Z"/><path d="M852,263c-.1,16.65,11.74,31.14,28.4,33.45,17.31,2.4,32.21-9.64,39.83-24.32,7.11-13.7,9.71-33.53,1.79-47.54-8-14.24-27.15-9.19-39.23-4.09-8.51,3.59-15.07,9.06-18.17,17.93-3.23,9.23-2.55,19.32-5,28.74-1,3.75,4.82,5.34,5.79,1.6,2-7.83,2-16,3.64-23.84,2.1-9.92,7.89-15.67,17.16-19.4,7-2.8,15.57-5.79,23.1-3.7,9.17,2.55,11,13.87,11.29,22.07.65,17.23-8.06,36.84-24.34,44.41C878,296.83,857.87,282.62,858,263c0-3.87-6-3.87-6,0Z"/><path d="M896.55,228.48c-33.11-8.64-52,53.29-16.43,57.81,15.24,1.93,27.42-8.59,32.61-22.19,3.85-10.11,9.38-35.57-7.13-37.45-7.66-.88-16.73-.15-22.3,5.76-5,5.31-6.78,12.87-7.69,19.91-1,7.61-.71,16.49,5.17,22.21,4.5,4.39,11.78,6.38,17.37,2.85,6.86-4.34,9.76-15.5,11.1-22.94,1.12-6.25,2-14-2.54-19.25-4.81-5.55-11.2-2.24-15.47,2.16a32,32,0,0,0-8.82,19.6c-.45,5.39.75,18.57,9.43,15.39,7.74-2.84,12.9-13.55,14.21-21.07,1-5.74.21-18-8.86-14.4-8.3,3.3-7.9,14.85-5.8,21.82.6,2,3.49,3.11,5,1.32a19.39,19.39,0,0,0,4.92-13.92,3,3,0,0,0-3.8-2.89,22.52,22.52,0,0,0-16.25,27.51c.56,2.08,3.49,3,5,1.32,5.41-6.13,12.35-18.49,7.42-26.69-4.81-8-16.33-4.41-21.43,1.15-6.38,7-6.66,17.16-2.47,25.3,1.77,3.42,4.53,7,8.61,7.54,4.64.63,8.08-2.8,10.69-6.15,5.42-6.94,11-17,4.28-25-7-8.32-16.13-1.4-21.49,5-4.75,5.63-7.24,16.26,1.15,20.18s19-4.71,24.11-10.66c5.33-6.26,14.34-17.18,8.43-25.49-3.64-5.12-17.55-12.45-22.62-6-2.35,3,1.87,7.28,4.25,4.24,1.39-1.78,6.75.76,8.29,1.47,2.34,1.08,5.52,2.81,6.07,5.59.92,4.66-5.88,12.64-8.67,15.92-2.92,3.46-13.27,13.59-18.27,8.81s5.69-17,10.81-16.85c3.49.11,5.26,4,5.09,7.16-.22,3.94-2.89,7.57-5.12,10.64-1,1.38-2.51,3.94-4.12,4.58-2.72,1.1-4.82-1.32-5.95-3.3a18.23,18.23,0,0,1-2.4-9.59c.25-6.09,5.84-15,13.13-13,8.21,2.19-1.06,17.56-4,20.94l5,1.32A16.46,16.46,0,0,1,899.12,249l-3.79-2.9a13.13,13.13,0,0,1-3.16,9.68l5,1.32a20,20,0,0,1-.87-9.28c.17-1,.58-4.19,1.89-4.47,1.8-.39,2.13,1.58,2.33,2.55,1,4.89-2.32,11.58-5.11,15.35-.68.92-4.24,5.83-6,5.09-1.15-.49-1.13-5.58-1.15-6.49a26.14,26.14,0,0,1,4.46-14.92c2.16-3.22,7.78-10,10.43-4,2.06,4.64.69,10.65-.46,15.34-1.2,4.9-3,12-7,15.42-4.67,4-11-.31-13.09-4.89-3.66-8-1.37-22.88,4.42-29.63,3.75-4.39,9.34-4.71,14.74-4.66,6.73.06,8.75,3.44,8.76,9.84,0,17.2-9.53,42.17-31.1,37.8-25.7-5.2-8.8-52.2,15.47-45.87,3.74,1,5.34-4.81,1.6-5.78Z"/><path d="M628.88,403.44C645.29,461.07,680.42,510.73,722,553.1c12,12.2,24.48,23.86,37.3,35.16,2.88,2.55,7.14-1.68,4.24-4.24C707.16,534.3,655.65,475.56,634.67,401.85c-1.06-3.71-6.85-2.13-5.79,1.59Z"/><path d="M1041,257c-1.7-30.67-21.23-56.58-43.06-76.7a226.32,226.32,0,0,0-70.35-43.73c-52-20.52-111.87-22.58-164.35-2.71-32.94,12.48-62.07,33.39-85.46,59.62-2.56,2.87,1.67,7.13,4.25,4.24,38.79-43.51,92.59-69.61,151-71.56,53.6-1.8,108.21,15.5,150.09,49.24,25,20.14,50,48,51.9,81.6.21,3.84,6.21,3.87,6,0Z"/><path d="M1008.59,543.85a277.45,277.45,0,0,1-35.53,67.22c-2.26,3.14,2.94,6.14,5.18,3a283.35,283.35,0,0,0,36.14-68.64c1.32-3.64-4.48-5.2-5.79-1.6Z"/></g></g></svg>