<svg xmlns="http://www.w3.org/2000/svg" viewBox="0 0 1626.64 1032.48"><title>Frontend_1</title><g id="Слой_2" data-name="Слой 2"><g id="Слой_1-2" data-name="Слой 1"><path d="M455.67,1017.46c-30.63-42.61-43.54-94.29-45.86-146.15A504.09,504.09,0,0,1,413,791.24c3.33-28.94,8.36-58.06,18.37-85.51a194.53,194.53,0,0,1,50.72-76c9.46-8.77-4.71-22.89-14.15-14.14a210.54,210.54,0,0,0-50.12,70.51c-12.68,29.32-18.95,60.5-23.17,92-7.34,54.79-8.39,111.52,5.4,165.43,7.66,30,20.25,58.82,38.33,84,3.15,4.38,8.71,6.5,13.69,3.59,4.32-2.53,6.75-9.28,3.58-13.68Z"/><path d="M454.53,638.27a100.44,100.44,0,0,1,56.57,43.38c13.39,21.54,19.68,46.55,24.15,71.27a605.61,605.61,0,0,1,5.84,171.29,601.53,601.53,0,0,1-18.15,95.29c-3.39,12.43,15.89,17.74,19.29,5.32a630.13,630.13,0,0,0,22.12-181.45,631,631,0,0,0-9.24-92.52c-4.57-26.18-11.23-52.62-24.64-75.81A122,122,0,0,0,459.84,619c-12.35-3.7-17.63,15.6-5.31,19.29Z"/><path d="M441.85,1010.35c-7,1.29-14.48-6.16-19.24-10.3q-9.71-8.44-18.85-17.49a401.83,401.83,0,0,1-85.58-124.25c-29.27-65.78-39.39-139-30.79-210.41a398.37,398.37,0,0,1,34-119.37c2.27-4.9,1.38-10.78-3.59-13.68-4.32-2.53-11.4-1.34-13.68,3.59C270.61,590.67,257.55,672,267.83,751A425.22,425.22,0,0,0,391.91,999c14.66,14.27,32.7,34.81,55.25,30.68,5.32-1,8.33-7.42,7-12.3-1.54-5.59-7-8-12.3-7Z"/><path d="M541.07,1025.54a514.08,514.08,0,0,0,112.47-198c23.2-77,27.13-159,12.61-238.12A510,510,0,0,0,623,458.7c-2.36-4.85-9.27-6.16-13.68-3.59-5,2.9-6,8.81-3.59,13.69a491.86,491.86,0,0,1,48.87,227.91A486.39,486.39,0,0,1,598,910.41a489.83,489.83,0,0,1-71.06,101c-8.67,9.48,5.43,23.66,14.14,14.14Z"/><path d="M310.67,530.52c-61.83-51.13-98.55-129.75-99.36-209.89-.43-43.33,9.14-88.24,33-124.91,23.6-36.32,59.58-65,97.52-85.14,72.15-38.4,161.6-47.09,237.06-12.85,69.48,31.54,125.4,94.74,139.1,170.9,13,72.53-14.45,152.07-71.11,199.51q-5,4.17-10.27,7.91c-1.88,1.33-4.16,2.46-5.86,4-1.44,1.3-2,.07.92.17,1.3,0,2.93,1.73,3.33,2.54l1.36,5.05,0-.5-1.36,5,.35-.48-3.59,3.59.72-.43c11-6.65,1-24-10.09-17.27-6.32,3.82-8.2,12-2.88,17.63,3.86,4.08,10.43,5.64,15.83,4.4,4.65-1.08,8.69-4.54,12.49-7.27,4.5-3.24,8.9-6.65,13.16-10.22a214.36,214.36,0,0,0,40.7-46c23-34.73,36.21-75.81,38.85-117.33C746,233.06,700.46,153.1,631.09,104.54a267.86,267.86,0,0,0-119.92-46.1c-45.48-5.78-92.43.16-135.54,15.52-44.06,15.69-84.85,40.86-117.91,74-17.62,17.69-32.94,38-43.46,60.7-10.69,23.09-17.21,47.67-20.54,72.86-11.5,86.93,19.08,178.27,79.6,241.56a271.72,271.72,0,0,0,23.21,21.55c4.16,3.44,10.07,4.08,14.14,0,3.54-3.54,4.18-10.68,0-14.14Z"/><path d="M584.85,391.73a1192,1192,0,0,1,200.67-89.38q29.34-9.93,59.16-18.32c4.64-1.31,2.67-8.55-2-7.23a1201.77,1201.77,0,0,0-206,79.14q-28.18,13.92-55.61,29.32c-4.21,2.36-.43,8.84,3.79,6.47Z"/><path d="M601.2,422.41a1237.48,1237.48,0,0,0,228.72-43.07c21.18-6.11,42.16-13.16,64-16.53,4.76-.74,2.74-8-2-7.23-18.69,2.88-36.74,8.48-54.83,13.85q-28,8.31-56.42,15.3-56.34,13.84-113.83,22.33-32.7,4.83-65.65,7.85c-4.76.44-4.81,7.94,0,7.5Z"/><path d="M597.76,449.57A497,497,0,0,0,812,482.63a500.79,500.79,0,0,0,60.27-7.83c4.73-.91,2.73-8.14-2-7.23A489.86,489.86,0,0,1,657.49,461a493.05,493.05,0,0,1-57.74-18.67c-4.49-1.76-6.44,5.49-2,7.23Z"/><path d="M341.48,386.93c-35.07-20.35-74.66-30.46-114.55-36-42.5-5.86-85.56-7.65-128.34-10.3-12-.74-24.72-2.71-36.76-1.93-7.47.49-15.66,3.13-17.58,11.25-1.1,4.7,6.13,6.7,7.24,2,1.81-7.73,14.63-5.79,20.34-5.45q15.86,1,31.71,1.94c20.81,1.3,41.62,2.58,62.42,4,37.79,2.65,75.83,6.22,112.45,16.4A252.25,252.25,0,0,1,337.7,393.4c4.18,2.43,8-4,3.78-6.47Z"/><path d="M320.42,414.45c-39.15-9.67-79.48-4.3-118.7,2q-62.44,10-124.86,20.25l-35.21,5.72L24,445.26l-8.8,1.43c-1.37.22-7.83,2.05-8.76,1l1.1,2.65-2.54,2-2.62-2.62.1.61c.75,4.75,8,2.74,7.23-2-1-6.6-11.95-2.84-9.35,3.45,1.35,3.26,4.93,3.77,8,3.51,6.2-.53,12.46-2,18.6-3l71.4-11.59,71.41-11.58c23.41-3.8,46.81-8.07,70.39-10.62,26.1-2.82,52.58-3.2,78.21,3.13,4.69,1.15,6.69-6.08,2-7.23Z"/><path d="M303.79,457a716.29,716.29,0,0,0-190.65,96.8q-24.66,17.63-47.79,37.3c-3.68,3.12,1.64,8.41,5.3,5.3A709.68,709.68,0,0,1,249.29,485.66q27.75-12,56.5-21.42c4.55-1.51,2.6-8.75-2-7.23Z"/><path d="M456.65,439.56l-4.29-3.05c-6.19-4.38-15.32,1.47-15.05,8.64.67,18,5.21,37.76,21.09,48.41,16.47,11,39,4.79,49.68-11.1,7.19-10.71-10.13-20.73-17.27-10.09-5.15,7.67-16.53,8.93-23.4,3-8.23-7.07-9.72-20.09-10.1-30.24l-15.05,8.63,4.3,3.05c4.41,3.12,11.12.78,13.68-3.59,2.93-5,.83-10.55-3.59-13.68Z"/><path d="M436,453.8c4.57,16.21-10.3,29.61-26,24.5-12.27-4-17.52,15.31-5.32,19.29a40.67,40.67,0,0,0,40.26-9.13c10.56-10.19,14.29-26,10.36-40-3.48-12.37-22.79-7.12-19.29,5.31Z"/><path d="M500.15,327.83c-5.35,10.13-1.71,24.47,10.09,28.11,13.08,4,21.49-10.14,21.19-21.61-.34-12.6-13.82-21.24-24.87-14-10.31,6.78-11.19,24.65-2.44,33.16,4.3,4.17,10.71,5.5,16,2.39s7.21-10.2,8.29-15.88c1-5.49,2.17-12-.83-17.09-3.29-5.63-10.43-7.71-16.45-5.75-12.62,4.1-13.86,22.73-8,32.69,3.08,5.25,9.07,8.87,15.29,7.16,6.75-1.85,9.4-8.33,11.14-14.43,1.66-5.82,3.27-13,1.64-19-1.89-6.94-8.53-11.67-15.74-9.61-13.18,3.75-15.67,21.75-9.62,32.08,3.09,5.29,11.38,6.89,15.7,2,6.19-7,7.25-15.55,3.18-23.89-4-8.13-15.88-5.29-18.28,2.38a41.88,41.88,0,0,0-1.7,17.4c.59,4.94,3.35,9.19,8.67,9.82a10,10,0,0,0,11-7.16,35.54,35.54,0,0,0,1.46-13c-.43-5.38-4.29-10-10-10-5.08,0-10.44,4.59-10,10a19.15,19.15,0,0,1-.74,7.72L524.75,344a27.28,27.28,0,0,1,1-12.08l-18.28,2.39c-.07-.15-.18-.19,0-.34l15.71,2c-.94-1.6-.13-.62-.65-2.21.1.29.16-1.33.33-1.17-.3-.28-11.64-.14-3.15,1l-5-1.36c-4.11-2.55-2.36-6.49-2.9-1.51a33.3,33.3,0,0,1-.58,3.29c-.31,1.4-.69,2.77-1.07,4.16-.67,2.39-1.21,1.56.67.64l5-1.36h-1.21l5.05,1.36c.68,1.23.93,1.43.75.58a7,7,0,0,1-.43-2.3,14.73,14.73,0,0,0,0-2.1q2.11-5.61-8,.12l-2.58-4.41c-.24-.63.19,1.14.14,1.75a28.69,28.69,0,0,1-.47,3.14c-.23,1.09-.5,2.18-.8,3.25-.23.81-.48,1.61-.76,2.4q-.78,2.1.59-1l4.41-2.57h.62l5.05,1.37c.58.26.87-1,.12-2.24-.59-1-.1.07-1.52.65q-4.32.66-5.16-2a1,1,0,0,1-.08-.46,5.94,5.94,0,0,0-.59,2.1,8.73,8.73,0,0,1-.75,1.65l6.75-1.52c.46-.2.72.45.54.79,6-11.38-11.25-21.5-17.27-10.1Z"/><path d="M445,422.18c-2.58-1.82-5.28-2.3-8.34-2.56-3.87-.34-9.09,3.31-9.64,7.34-1.36,9.77,1.42,19.16,9.75,25.1,9.33,6.66,20.3,2.58,23-8.58,2.27-9.58,1.64-21-5.57-28.37s-19.95-8.85-26.11.75c-5,7.71-3.5,18.4.19,26.27,3.56,7.59,11.84,16,20.73,16.39,12.15.48,15.41-13.23,15.62-22.88.23-10.41-5-18.85-14.68-22.7-3.24-1.29-7.38.29-9.72,2.58a24.3,24.3,0,0,0-7.36,17.37c0,6.56,3,14.7,9.44,17.4,8.4,3.54,15.39-3.73,17-11.45a27.2,27.2,0,0,0-4-20.66c-5-7.37-15.29-5.85-18.28,2.39a40.81,40.81,0,0,0-1.3,22.15c1.88,9.56,17.39,9.53,19.29,0a36.2,36.2,0,0,0-2.6-22.63c-3.05-7-13.93-6-17.27,0-4.43,8-3.11,16.34,2.58,23.25,4,4.82,13,3.38,15.71-2,4.38-8.75,3.27-18.76-3.83-25.76-5-4.95-11.87-3.05-15.7,2-7.07,9.35-3,22.41,6.06,28.54,4.52,3.06,11,.81,13.68-3.58,4.95-8.22,4.7-19.14-1.5-26.67-3.61-4.38-9.3-6.61-14.75-4.26-5.24,2.26-7.47,7.39-8.07,12.75-1,8.57-.19,20.64,7.93,25.76,9.61,6.05,23.68-2.72,19.9-14.31-4-12.18-23.3-7-19.29,5.32l.3.91v-5.32l3.51-4.05h5.32c1.76.37,1.66,2.5,2.46,1.34,0,0-.42-3.67-.38-2.95-.07-1.11,0-2.24,0-3.35-.23-3.3.85-1.15-.72.11l-4.42,2.57,1-.18h-5.32l1.16.46-4.41-2.57c1.35,1.32,1,2.78.08,4.34L450,428.87c.45.3.36-.19,1.11-1.19l-15.7,2c.41.41,1,.86.7,1.53l15.7-2c.49.59.46,1.13.55,1H435a12.64,12.64,0,0,1,.58,7.22h19.29c-.8-4-.09-7.69,1.29-11.51l-18.27,2.38a8.92,8.92,0,0,1,2,4.52c.11,2.18-1.06,2.37.24,1.2l7.07-2.93-1.11.09,7.08,2.93c-1.32-1.2,0-3.32,1.13-4.42l-9.73,2.57c-2.77-1.11-.48-.42-.51-.22,0-.17.49,3.92.5,3.63-.08,2.17-.81,6-1.6,7.12l3.58-3.59-1,.63,5.05-1.37q1.32.69-.72-.48a3.51,3.51,0,0,1-1.23-1.07,11.2,11.2,0,0,1-1.89-2.36c-1.44-2.31-1.11-4.71-1.9-7-.28-.42-.19-.89.27-1.42q-7,.27-5.24,2.94c0,.55.59.65.56,1.3-.07,1.63.49,3.38.33,5.13a15.42,15.42,0,0,1-.39,2.7c-.5,1.68-.36,1.65.43-.11l4.41-2.57c2.45.82,3.3.8,2.57-.06a1.86,1.86,0,0,1-.95-1.34c.15-.32-.64-1.4-.59-1.81l-9.64,7.35-1.76-.17c4.42,3.12,11.12.8,13.69-3.59,2.92-5,.83-10.56-3.59-13.68Z"/><path d="M383.35,332.42c-1.13-8.86-3.89-18.11-13.41-21.05-8.32-2.58-17.28,2.54-21.2,9.88-4.46,8.36-1.89,18.07,3.46,25.31,5.72,7.76,16.33,16.22,25.34,7.22,12-12,2.65-36.83-13-40.59-11.65-2.8-16.27,9-15.92,18.49.35,9.18,3.84,17.17,9.59,24.22,4.34,5.32,12.46,2.82,15.71-2,6.16-9.19,4.43-23-4.36-30-5-4-12.1-4-15.71,2a21.84,21.84,0,0,0-2,19c2.61,6.94,10.1,12.19,17.54,8.92,13-5.73,9.71-25.54.67-33.19-4.77-4-12.36-4-15.71,2-4.6,8.25-3.45,19.43,4.21,25.55,6.05,4.84,14,3.14,16.71-4.41a26.34,26.34,0,0,0-2.25-22c-3.53-6.2-13.9-6.81-17.27,0-4.8,9.72-3.46,22.3,5.48,29.31,5.44,4.25,15,3.71,16.72-4.42,1.79-8.34,1.53-16.85-1.76-24.8-3.71-9-15.87-9.93-19.28,0-3.62,10.51,4.91,20.7,15.43,21.12,12.87.51,12.85-19.49,0-20,1.28.05,4.5,2.3,3.85,4.19H357c1.92,4.66,2.83,9.19,1.75,14.18L375.45,337c-2-1.55-3.22-3.31-2.36-5.06H355.82c1.36,2.38,1.17,4,.23,6.6l16.72-4.41c-3.4-2.72.54.45-1.2-1.18-1-1,.36-.57.12-.14l-15.71,2c1.19,1,1,1.35,2,2.4,1.57,1.68-1.34,2.07.58.44l7.08-2.93-1.2.14,5,1.37,1.22,2a1.25,1.25,0,0,1-.2-.4c-.62.48,2.21-4.35.68-1.8l-15.71,2c2.49,2,2.91,3.26,1.24,5.74l15.7-2a17.51,17.51,0,0,1-3.35-7.33,16.76,16.76,0,0,1-.38-3.54c0-3.3,1.14-2.61-1-.86L360.62,333c-1.67-.67-1.74-.57-.21.28-.15.47.14.82.87,1.06a7.39,7.39,0,0,1,.94,1.83c.82,2,.93,3.74-.39,5.53l3.59-3.59-1.09.73,5-1.37q2.76,1.47,1.19.08c-.38-.39-.74-.79-1.09-1.19a18.87,18.87,0,0,1-1.85-2.51c-.31-.53-1.59-4.09-1.09-3.68,1,.77-2.66.09-1.61.2-3.37-.37-2.06-1.72-1.57,2.09.68,5.35,4.11,10,10,10,4.87,0,10.68-4.61,10-10Z"/><path d="M224.33,198c-4.24-14.11-4-29-4.58-43.63L217.8,106q-1.92-47.91-3.86-95.83l-17.07,7.07C217.82,35,243,45.7,266.48,59.55a237.32,237.32,0,0,1,61,51.9c3.48,4.13,10.55,3.59,14.14,0,4.09-4.1,3.49-10,0-14.14A253.48,253.48,0,0,0,279.5,44c-22.68-13.78-48.11-23.62-68.49-41-6.17-5.25-17.44-2.21-17.07,7.07q2,48.9,3.94,97.81l2,48.4c.64,15.71.65,31.8,5.22,47,3.7,12.3,23,7.06,19.28-5.32Z"/><path d="M629.91,114.38l119-97.4L731.82,9.91c-4.81,37.17-.89,74.59.7,111.84,1.51,35.56,1.16,72.66-13.67,105.75-2.21,4.92-1.43,10.75,3.58,13.68,4.28,2.5,11.47,1.36,13.69-3.59C761.29,181.42,751,120.1,749.61,60.7a335.33,335.33,0,0,1,2.21-50.79c.49-3.81-2.91-7.84-6.15-9.14-4-1.61-7.67-.59-10.92,2.07l-119,97.39c-4.18,3.43-3.55,10.59,0,14.15,4.14,4.13,10,3.43,14.14,0Z"/><path d="M1185.67,1017.46c-30.63-42.61-43.54-94.29-45.86-146.15a504.1,504.1,0,0,1,3.22-80.07c3.32-28.94,8.35-58.06,18.36-85.51a194.53,194.53,0,0,1,50.72-76c9.46-8.77-4.71-22.89-14.15-14.14a210.54,210.54,0,0,0-50.12,70.51c-12.68,29.32-18.95,60.5-23.17,92-7.34,54.79-8.39,111.52,5.4,165.43,7.66,30,20.25,58.82,38.33,84,3.15,4.38,8.71,6.5,13.69,3.59,4.32-2.53,6.75-9.28,3.58-13.68Z"/><path d="M1184.53,638.27a100.44,100.44,0,0,1,56.57,43.38c13.39,21.54,19.68,46.55,24.15,71.27a605.21,605.21,0,0,1-12.31,266.58c-3.39,12.43,15.9,17.74,19.29,5.32a626,626,0,0,0,12.88-274c-4.57-26.18-11.22-52.62-24.64-75.81A122,122,0,0,0,1189.84,619c-12.35-3.7-17.63,15.6-5.31,19.29Z"/><path d="M1171.85,1010.35c-7,1.29-14.48-6.16-19.24-10.3q-9.7-8.44-18.85-17.49a401.83,401.83,0,0,1-85.58-124.25c-29.27-65.78-39.39-139-30.79-210.41a398.37,398.37,0,0,1,34-119.37c2.27-4.9,1.38-10.78-3.59-13.68-4.32-2.53-11.4-1.34-13.68,3.59C1000.61,590.67,987.56,672,997.83,751a425.22,425.22,0,0,0,124.08,248c14.66,14.27,32.7,34.81,55.25,30.68,5.32-1,8.33-7.42,7-12.3-1.54-5.59-7-8-12.3-7Z"/><path d="M1271.07,1025.54a514,514,0,0,0,112.47-198c23.2-77,27.13-159,12.61-238.12A510,510,0,0,0,1353,458.7c-2.36-4.85-9.27-6.16-13.68-3.59-5,2.9-6,8.81-3.59,13.69a491.86,491.86,0,0,1,48.87,227.91,489.69,489.69,0,0,1-127.69,314.69c-8.67,9.48,5.43,23.66,14.14,14.14Z"/><path d="M1040.67,530.52c-61.83-51.13-98.55-129.75-99.36-209.89-.43-43.33,9.14-88.24,33-124.91,23.59-36.32,59.57-65,97.51-85.14,72.15-38.4,161.6-47.09,237.06-12.85,69.48,31.54,125.4,94.74,139.1,170.9,13,72.53-14.45,152.07-71.11,199.51q-5,4.17-10.27,7.91c-1.88,1.33-4.16,2.46-5.85,4-1.45,1.3-2,.07.91.17,1.31,0,2.93,1.73,3.33,2.54l1.36,5.05,0-.5-1.36,5,.35-.48-3.58,3.59.71-.43c11-6.65,1-24-10.09-17.27-6.31,3.82-8.2,12-2.88,17.63,3.87,4.08,10.43,5.64,15.83,4.4,4.65-1.08,8.69-4.54,12.49-7.27,4.5-3.24,8.9-6.65,13.16-10.22a214.36,214.36,0,0,0,40.7-46c23-34.73,36.21-75.81,38.85-117.33,5.47-85.87-40.07-165.83-109.44-214.39a267.86,267.86,0,0,0-119.92-46.1c-45.47-5.78-92.43.16-135.54,15.52-44.06,15.69-84.85,40.86-117.91,74-17.62,17.69-32.94,38-43.46,60.7-10.69,23.09-17.21,47.67-20.54,72.86-11.5,86.93,19.08,178.27,79.6,241.56a271.72,271.72,0,0,0,23.21,21.55c4.16,3.44,10.07,4.08,14.14,0,3.55-3.54,4.18-10.68,0-14.14Z"/><path d="M1314.85,391.73a1192,1192,0,0,1,200.67-89.38q29.34-9.93,59.17-18.32c4.63-1.31,2.66-8.55-2-7.23a1201.77,1201.77,0,0,0-206,79.14q-28.18,13.92-55.61,29.32c-4.21,2.36-.43,8.84,3.79,6.47Z"/><path d="M1331.2,422.41a1237.58,1237.58,0,0,0,228.73-43.07c21.17-6.11,42.15-13.16,64-16.53,4.76-.74,2.74-8-2-7.23-18.69,2.88-36.74,8.48-54.82,13.85q-28,8.31-56.43,15.3-56.34,13.84-113.83,22.33-32.7,4.83-65.65,7.85c-4.76.44-4.81,7.94,0,7.5Z"/><path d="M1327.76,449.57A497,497,0,0,0,1542,482.63a500.79,500.79,0,0,0,60.27-7.83c4.74-.91,2.73-8.14-2-7.23A489.86,489.86,0,0,1,1387.49,461a493.05,493.05,0,0,1-57.74-18.67c-4.49-1.76-6.44,5.49-2,7.23Z"/><path d="M1071.48,386.93c-35.07-20.35-74.66-30.46-114.55-36-42.5-5.86-85.56-7.65-128.34-10.3-12-.74-24.72-2.71-36.76-1.93-7.47.49-15.66,3.13-17.57,11.25-1.11,4.7,6.12,6.7,7.23,2,1.81-7.73,14.63-5.79,20.34-5.45q15.85,1,31.71,1.94c20.81,1.3,41.62,2.58,62.42,4,37.79,2.65,75.83,6.22,112.45,16.4a252.25,252.25,0,0,1,59.29,24.49c4.18,2.43,8-4,3.78-6.47Z"/><path d="M1050.42,414.45c-39.15-9.67-79.48-4.3-118.7,2q-62.44,10-124.86,20.25l-35.21,5.72L754,445.26l-8.8,1.43c-1.37.22-7.83,2.05-8.76,1l1.1,2.65-2.54,2-2.62-2.62.1.61c.75,4.75,8,2.74,7.23-2-1-6.6-12-2.84-9.35,3.45,1.35,3.26,4.93,3.77,8,3.51,6.2-.53,12.46-2,18.6-3l71.4-11.59,71.41-11.58c23.41-3.8,46.81-8.07,70.4-10.62,26.09-2.82,52.57-3.2,78.2,3.13,4.69,1.15,6.69-6.08,2-7.23Z"/><path d="M1033.79,457a716.29,716.29,0,0,0-190.65,96.8q-24.66,17.63-47.79,37.3c-3.68,3.12,1.64,8.41,5.3,5.3A709.86,709.86,0,0,1,979.29,485.66q27.75-12,56.5-21.42c4.55-1.51,2.6-8.75-2-7.23Z"/><path d="M1186.66,439.56l-4.3-3.05c-6.19-4.38-15.32,1.47-15,8.64.67,18,5.21,37.76,21.09,48.41,16.47,11,39,4.79,49.68-11.1,7.19-10.71-10.13-20.73-17.27-10.09-5.15,7.67-16.53,8.93-23.4,3-8.23-7.07-9.72-20.09-10.1-30.24l-15,8.63,4.3,3.05c4.41,3.12,11.12.78,13.68-3.59,2.93-5,.83-10.55-3.58-13.68Z"/><path d="M1166,453.8c4.57,16.21-10.3,29.61-26,24.5-12.27-4-17.52,15.31-5.31,19.29a40.66,40.66,0,0,0,40.25-9.13c10.56-10.19,14.29-26,10.36-40-3.48-12.37-22.79-7.12-19.29,5.31Z"/><path d="M1230.15,327.83c-5.35,10.13-1.71,24.47,10.09,28.11,13.08,4,21.49-10.14,21.19-21.61-.34-12.6-13.82-21.24-24.87-14-10.31,6.78-11.19,24.65-2.44,33.16,4.3,4.17,10.71,5.5,16,2.39s7.21-10.2,8.29-15.88c1-5.49,2.17-12-.83-17.09-3.29-5.63-10.43-7.71-16.45-5.75-12.62,4.1-13.86,22.73-8,32.69,3.08,5.25,9.07,8.87,15.29,7.16,6.75-1.85,9.4-8.33,11.14-14.43,1.66-5.82,3.27-13,1.64-19-1.89-6.94-8.53-11.67-15.74-9.61-13.18,3.75-15.67,21.75-9.62,32.08,3.09,5.29,11.38,6.89,15.7,2,6.2-7,7.25-15.55,3.18-23.89-4-8.13-15.88-5.29-18.28,2.38a41.88,41.88,0,0,0-1.7,17.4c.59,4.94,3.35,9.19,8.67,9.82a10,10,0,0,0,11-7.16,35.54,35.54,0,0,0,1.46-13c-.43-5.38-4.29-10-10-10-5.08,0-10.44,4.59-10,10a19.15,19.15,0,0,1-.74,7.72l19.64,2.66a27.28,27.28,0,0,1,1-12.08l-18.28,2.39c-.07-.15-.18-.19,0-.34l15.71,2c-.94-1.6-.13-.62-.65-2.21.1.29.16-1.33.33-1.17-.3-.28-11.64-.14-3.15,1l-5.05-1.36c-4.11-2.55-2.35-6.49-2.9-1.51a33.3,33.3,0,0,1-.58,3.29c-.31,1.4-.69,2.77-1.07,4.16-.67,2.39-1.21,1.56.67.64l5-1.36h-1.21l5,1.36c.68,1.23.93,1.43.75.58a7,7,0,0,1-.43-2.3,14.73,14.73,0,0,0,0-2.1q2.11-5.61-8,.12l-2.57-4.41c-.25-.63.18,1.14.13,1.75a28.69,28.69,0,0,1-.47,3.14c-.23,1.09-.5,2.18-.8,3.25-.23.81-.48,1.61-.76,2.4q-.78,2.1.59-1l4.41-2.57h.62l5,1.37c.58.26.87-1,.12-2.24-.59-1-.1.07-1.52.65q-4.32.66-5.16-2a1,1,0,0,1-.08-.46,5.94,5.94,0,0,0-.59,2.1,8.73,8.73,0,0,1-.75,1.65l6.75-1.52c.46-.2.72.45.54.79,6-11.38-11.25-21.5-17.27-10.1Z"/><path d="M1175,422.18c-2.58-1.82-5.28-2.3-8.34-2.56-3.87-.34-9.08,3.31-9.64,7.34-1.36,9.77,1.42,19.16,9.75,25.1,9.33,6.66,20.3,2.58,23-8.58,2.27-9.58,1.64-21-5.57-28.37s-20-8.85-26.11.75c-4.94,7.71-3.5,18.4.19,26.27,3.56,7.59,11.84,16,20.73,16.39,12.15.48,15.41-13.23,15.62-22.88.23-10.41-5-18.85-14.67-22.7-3.25-1.29-7.39.29-9.73,2.58a24.3,24.3,0,0,0-7.36,17.37c0,6.56,3,14.7,9.44,17.4,8.4,3.54,15.39-3.73,17-11.45a27.2,27.2,0,0,0-4-20.66c-5-7.37-15.29-5.85-18.28,2.39a40.81,40.81,0,0,0-1.3,22.15c1.88,9.56,17.39,9.53,19.29,0a36.2,36.2,0,0,0-2.6-22.63c-3-7-13.93-6-17.27,0-4.43,8-3.11,16.34,2.58,23.25,4,4.82,13,3.38,15.71-2,4.38-8.75,3.27-18.76-3.83-25.76-5-4.95-11.87-3.05-15.7,2-7.07,9.35-3,22.41,6.06,28.54,4.52,3.06,11,.81,13.68-3.58,5-8.22,4.7-19.14-1.5-26.67-3.61-4.38-9.3-6.61-14.75-4.26-5.24,2.26-7.47,7.39-8.07,12.75-1,8.57-.19,20.64,7.93,25.76,9.61,6.05,23.68-2.72,19.9-14.31-4-12.18-23.3-7-19.29,5.32l.3.91v-5.32l3.51-4.05h5.32c1.76.37,1.67,2.5,2.46,1.34,0,0-.42-3.67-.38-2.95-.07-1.11,0-2.24,0-3.35-.23-3.3.85-1.15-.72.11l-4.41,2.57,1-.18h-5.32l1.16.46-4.41-2.57c1.35,1.32,1,2.78.08,4.34l13.68-3.58c.45.3.36-.19,1.12-1.19l-15.71,2c.41.41,1,.86.7,1.53l15.7-2c.49.59.46,1.13.55,1H1165a12.64,12.64,0,0,1,.58,7.22h19.29c-.8-4-.09-7.69,1.3-11.51l-18.28,2.38a8.92,8.92,0,0,1,2,4.52c.11,2.18-1.06,2.37.24,1.2l7.07-2.93-1.1.09,7.07,2.93c-1.32-1.2,0-3.32,1.13-4.42l-9.73,2.57c-2.77-1.11-.48-.42-.51-.22,0-.17.49,3.92.5,3.63-.08,2.17-.81,6-1.6,7.12l3.58-3.59-1,.63,5.05-1.37q1.32.69-.72-.48a3.51,3.51,0,0,1-1.23-1.07,11.2,11.2,0,0,1-1.89-2.36c-1.44-2.31-1.11-4.71-1.9-7-.28-.42-.19-.89.27-1.42q-7,.27-5.24,2.94c0,.55.59.65.56,1.3-.07,1.63.49,3.38.33,5.13a15.42,15.42,0,0,1-.39,2.7c-.5,1.68-.36,1.65.43-.11l4.41-2.57c2.45.82,3.3.8,2.57-.06a1.86,1.86,0,0,1-.95-1.34c.15-.32-.64-1.4-.59-1.81l-9.64,7.35-1.76-.17c4.42,3.12,11.12.8,13.69-3.59,2.92-5,.83-10.56-3.59-13.68Z"/><path d="M1113.35,332.42c-1.12-8.86-3.89-18.11-13.41-21.05-8.32-2.58-17.28,2.54-21.2,9.88-4.46,8.36-1.89,18.07,3.46,25.31,5.72,7.76,16.33,16.22,25.34,7.22,12-12,2.65-36.83-13-40.59-11.65-2.8-16.27,9-15.92,18.49.35,9.18,3.84,17.17,9.59,24.22,4.34,5.32,12.46,2.82,15.71-2,6.16-9.19,4.43-23-4.36-30-5-4-12.1-4-15.71,2a21.84,21.84,0,0,0-2,19c2.61,6.94,10.1,12.19,17.54,8.92,13-5.73,9.71-25.54.67-33.19-4.77-4-12.36-4-15.71,2-4.6,8.25-3.45,19.43,4.21,25.55,6,4.84,14,3.14,16.71-4.41a26.34,26.34,0,0,0-2.25-22c-3.53-6.2-13.9-6.81-17.27,0-4.8,9.72-3.46,22.3,5.48,29.31,5.44,4.25,15,3.71,16.72-4.42,1.8-8.34,1.53-16.85-1.76-24.8-3.71-9-15.87-9.93-19.28,0-3.62,10.51,4.91,20.7,15.43,21.12,12.87.51,12.85-19.49,0-20,1.28.05,4.5,2.3,3.85,4.19H1087c1.92,4.66,2.83,9.19,1.75,14.18l16.72-4.42c-2-1.55-3.22-3.31-2.36-5.06h-17.27c1.36,2.38,1.18,4,.24,6.6l16.71-4.41c-3.4-2.72.54.45-1.2-1.18-1-1,.36-.57.12-.14l-15.71,2c1.19,1,1,1.35,2,2.4,1.56,1.68-1.35,2.07.57.44l7.08-2.93-1.2.14,5,1.37,1.22,2a1.25,1.25,0,0,1-.2-.4c-.62.48,2.21-4.35.68-1.8l-15.71,2c2.49,2,2.91,3.26,1.24,5.74l15.7-2a18.17,18.17,0,0,1-3.73-10.87c0-3.3,1.14-2.61-1-.86l-7.07,2.93c-1.67-.67-1.74-.57-.21.28-.15.47.14.82.87,1.06a7.39,7.39,0,0,1,.94,1.83c.82,2,.93,3.74-.39,5.53l3.59-3.59-1.09.73,5-1.37q2.76,1.47,1.19.08c-.38-.39-.74-.79-1.09-1.19a18.87,18.87,0,0,1-1.85-2.51c-.31-.53-1.59-4.09-1.09-3.68,1,.77-2.66.09-1.61.2-3.37-.37-2.06-1.72-1.57,2.09.68,5.35,4.11,10,10,10,4.87,0,10.68-4.61,10-10Z"/><path d="M954.33,198c-4.24-14.11-4-29-4.57-43.63l-2-48.41q-1.92-47.91-3.86-95.83l-17.07,7.07C947.83,35,973,45.7,996.48,59.55a237.32,237.32,0,0,1,61,51.9c3.48,4.13,10.55,3.59,14.14,0,4.09-4.1,3.49-10,0-14.14A253.48,253.48,0,0,0,1009.5,44c-22.68-13.78-48.11-23.62-68.49-41-6.17-5.25-17.44-2.21-17.07,7.07q2,48.9,3.94,97.81l2,48.4c.63,15.71.64,31.8,5.21,47,3.7,12.3,23,7.06,19.28-5.32Z"/><path d="M1359.91,114.38l119-97.4-17.07-7.07c-4.81,37.17-.89,74.59.7,111.84,1.51,35.56,1.16,72.66-13.67,105.75-2.21,4.92-1.43,10.75,3.58,13.68,4.28,2.5,11.47,1.36,13.69-3.59,25.17-56.17,14.86-117.49,13.49-176.89a335.33,335.33,0,0,1,2.21-50.79c.49-3.81-2.91-7.84-6.15-9.14-4-1.61-7.67-.59-10.92,2.07l-119,97.39c-4.18,3.43-3.55,10.59,0,14.15,4.14,4.13,10,3.43,14.14,0Z"/></g></g></svg>