<svg xmlns="http://www.w3.org/2000/svg" viewBox="0 0 1624.14 1022.04"><title>Frontend</title><g id="Слой_2" data-name="Слой 2"><g id="Слой_1-2" data-name="Слой 1"><path d="M450.1,1014.81c-31.14-43.3-44.19-96-46.55-148.66a505.4,505.4,0,0,1,3.22-80.08c3.37-29.38,8.38-59,18.54-86.83a199.85,199.85,0,0,1,52-78.19c4.73-4.39-2.35-11.45-7.07-7.07a206.91,206.91,0,0,0-49.34,69.49c-12.29,28.46-18.38,58.93-22.49,89.51-7.31,54.32-8.45,110.65,5.22,164.11,7.56,29.58,20,57.93,37.83,82.77,3.73,5.18,12.4.19,8.64-5.05Z"/><path d="M454.6,628.28A105.77,105.77,0,0,1,514.16,674c13.61,21.89,20.11,47.34,24.65,72.46a610.18,610.18,0,0,1,6,172.62,611.12,611.12,0,0,1-18.32,96.62c-1.7,6.22,7.94,8.87,9.64,2.66A625.11,625.11,0,0,0,558.09,838.2,620,620,0,0,0,549,747c-4.49-25.75-10.94-51.79-24.14-74.61a116.75,116.75,0,0,0-67.63-53.76c-6.18-1.86-8.82,7.79-2.66,9.64Z"/><path d="M441.92,1010c-9.29,1.7-17.66-6-24.11-11.59S405.06,987,399,980.93a408.1,408.1,0,0,1-34.2-38.37,413.48,413.48,0,0,1-52.16-86.9C283,789.08,272.42,715,281.13,642.73a406.19,406.19,0,0,1,34.66-121.89c2.69-5.8-5.93-10.89-8.63-5.05a415.51,415.51,0,0,0,47.29,429.66,416.22,416.22,0,0,0,39.74,44.8,281.87,281.87,0,0,0,22.9,20.53c8.09,6.32,17,10.79,27.49,8.87,6.32-1.16,3.64-10.8-2.66-9.64Z"/><path d="M536.28,1016.84A508.35,508.35,0,0,0,647.46,821c22.94-76.17,27-157.28,12.61-235.47a505.31,505.31,0,0,0-42.62-129.5c-2.82-5.79-11.45-.72-8.64,5.05a497.29,497.29,0,0,1,49.55,230.44,492.14,492.14,0,0,1-57.31,216.22,494.46,494.46,0,0,1-71.85,102c-4.33,4.75,2.72,11.84,7.08,7.08Z"/><path d="M305.88,528.89c-62.8-51.93-100-132.07-100.83-213.42-.44-44.17,9.37-90.08,33.65-127.44,24.05-37,60.61-66.35,99.3-86.94,73.87-39.31,164.94-47.87,242.11-12.84,70.53,32,127.5,96.61,141.4,173.88,13.35,74.21-14.31,155.75-72.39,204.38q-5.48,4.58-11.28,8.69a41.42,41.42,0,0,1-5.86,4,12.82,12.82,0,0,0-1.61.85l-.76-.09q-3.35-1.35-.92,5.58c5.5-3.32.48-12-5.05-8.63-9.51,5.75,1.62,14.56,9.1,12.89,4.18-.94,7.89-4.32,11.29-6.76q6.26-4.5,12.16-9.44a209.78,209.78,0,0,0,39.91-45c22.55-34,35.59-74.15,38.18-114.8,5.34-84.06-39-162.49-107-210.08a262.9,262.9,0,0,0-117.4-45.42c-45.08-5.75-91.48.12-134.21,15.34C332.47,89,292.43,113.81,260,146.36c-17.35,17.41-32.33,37.32-42.68,59.68s-16.63,46.09-19.86,70.34C186.06,362,216,452,275.6,514.41A270.23,270.23,0,0,0,298.81,536c4.92,4.07,12-3,7.07-7.07Z"/><path d="M583,385.49a1192.79,1192.79,0,0,1,201-89.51q29.34-9.93,59.16-18.32c3.1-.88,1.78-5.7-1.32-4.82a1200.28,1200.28,0,0,0-205.73,79q-28.18,13.92-55.6,29.32c-2.81,1.57-.29,5.89,2.52,4.32Z"/><path d="M600,416a1236.48,1236.48,0,0,0,228.38-43c21.18-6.11,42.16-13.16,64-16.53,3.17-.49,1.82-5.31-1.33-4.83-18.69,2.89-36.73,8.49-54.82,13.85q-28,8.31-56.43,15.3-56.34,13.86-113.82,22.34-32.88,4.84-66,7.89c-3.18.29-3.21,5.3,0,5Z"/><path d="M596.83,443.2a496.08,496.08,0,0,0,213.88,33,497.31,497.31,0,0,0,59.94-7.78c3.16-.61,1.82-5.43-1.33-4.82a491.32,491.32,0,0,1-213.42-6.56,493.05,493.05,0,0,1-57.74-18.67c-3-1.18-4.29,3.65-1.33,4.82Z"/><path d="M339.59,382.84c-35-20.29-74.46-30.35-114.25-35.83-42.39-5.84-85.34-7.61-128-10.25-12-.75-24.71-2.72-36.76-1.93-6.92.45-14.59,2.78-16.37,10.33-.73,3.13,4.09,4.46,4.82,1.33,2-8.55,15.12-6.75,21.55-6.37l31.71,1.94c20.81,1.3,41.62,2.58,62.42,4,37.9,2.65,76.06,6.23,112.79,16.44a253.29,253.29,0,0,1,59.58,24.62c2.79,1.61,5.31-2.71,2.52-4.32Z"/><path d="M318.83,410.48c-38.92-9.6-79-4.25-118,2q-62.46,10-124.87,20.25l-35.21,5.72L23.11,441.3l-8.8,1.43-3.91.63-2,.32A3.76,3.76,0,0,0,4.12,446l-1.75-1.75.1.61c.49,3.17,5.31,1.82,4.82-1.33-.78-4.95-8.89-2-7,2.64,1.13,2.77,4.35,3,6.87,2.74,6.09-.55,12.23-2,18.27-3l71.4-11.58,71.41-11.58c23.52-3.82,47-8.1,70.73-10.67,26.2-2.83,52.79-3.18,78.54,3.17,3.12.78,4.45-4.05,1.33-4.82Z"/><path d="M302.87,453.05a715.15,715.15,0,0,0-190.35,96.67Q88,567.25,65,586.82c-2.46,2.09,1.09,5.61,3.53,3.54A711.07,711.07,0,0,1,247.4,479.41q27.9-12,56.79-21.54c3-1,1.74-5.84-1.32-4.82Z"/><path d="M452.87,438.71l-4.3-3c-3.09-2.19-7.65.73-7.52,4.32.6,16.08,4.35,34.49,18.62,44.09,14.09,9.48,33.62,4.43,42.83-9.3,3.6-5.36-5.06-10.37-8.63-5-6.88,10.24-22.06,12.36-31.25,4S451.48,451.65,451.05,440l-7.52,4.32,4.3,3c5.26,3.73,10.26-4.94,5-8.63Z"/><path d="M439.52,447.31A25,25,0,0,1,407.35,478c-6.13-2-8.76,7.65-2.65,9.64,12.14,3.95,26.12,1.1,35.39-7.85s12.54-22.8,9.07-35.1c-1.74-6.19-11.39-3.56-9.64,2.66Z"/><path d="M503.21,325.19c-3.87,7.33-1.48,18,7.1,20.76,9.66,3.16,15.21-8.74,14.86-16.79-.39-8.88-9.49-15-17.34-9.66-7.66,5.17-7.74,19-1.43,25.31,2.62,2.61,6.67,3.62,10,1.6,4-2.47,5.19-8.66,6-12.88.77-4,2-9.46-.32-13.24s-6.92-4.84-10.81-3.46c-9.32,3.32-9.14,18.19-5,25.35,1.94,3.37,5.61,5.9,9.64,4.86,4.84-1.24,6.45-6.75,7.65-10.94,1.39-4.87,3-11.32,1.64-16.37-1.18-4.27-5-7.51-9.59-6.12-9.93,3-11.09,17.12-6.63,24.74,1.54,2.65,5.69,3.45,7.85,1a15.46,15.46,0,0,0,2.4-17.84c-2-4.06-7.95-2.64-9.14,1.2a38,38,0,0,0-1.53,16.06c.64,5.33,8.09,7.11,9.82,1.33a31.3,31.3,0,0,0,1.28-11.7c-.51-6.38-10.52-6.43-10,0a23.41,23.41,0,0,1-.92,9l9.82,1.33a31.08,31.08,0,0,1,1.17-13.41l-9.14,1.2a5.1,5.1,0,0,1-.83,5.72l7.85,1a8.34,8.34,0,0,1-1.31-4.78c.06-1.32.9-2.42,1-3.62q2-1.89-1.65-2.2a17.28,17.28,0,0,1-.14,2.79,42.1,42.1,0,0,1-.94,5.46c-.14.6-2.11,6.32-2,6.46l2.29-.28a17,17,0,0,1-.94-3.27c-.38-2.14.18-4.06.09-6.11a2.2,2.2,0,0,0-.68-2.6,28,28,0,0,1-.17,2.9,37.55,37.55,0,0,1-.95,5.27c-.27,1.09-.57,2.16-.92,3.23-1.22,2-.48,2.4,2.2,1.19-.08.29-1.42-4.5-1.39-4.26-.1-.94-.28-6.65,2-6.07,2.48.61.26,8.42-.93,8.61-2.09.33-2.13-4.3-1.35-5.78,3-5.69-5.62-10.75-8.63-5.05Z"/><path d="M441.22,421.33a11,11,0,0,0-5.82-1.88c-1.93-.17-4.54,1.66-4.82,3.67-1,7.46,1.21,14.82,7.45,19.46,6.68,4.95,13.69,2.48,15.61-5.6,1.86-7.83,1.6-17.36-4.28-23.5-4.9-5.1-13.83-7.05-18.26-.26-7.54,11.56,2.41,34,16.6,35.13,8.93.7,10.43-11.4,10.62-17.88.25-8-3.51-14.88-11-17.87a4.93,4.93,0,0,0-4.87,1.28,19.16,19.16,0,0,0-5.88,13.84c0,4.35,1.79,11.1,6.36,12.84,5.66,2.15,9.27-3.42,10.21-8.22a22.22,22.22,0,0,0-3.52-16.8,5.07,5.07,0,0,0-9.14,1.19,35.76,35.76,0,0,0-1.29,19.5c.93,4.77,8.69,4.76,9.64,0a30.29,30.29,0,0,0-2.1-18.79c-1.52-3.5-7-3-8.63,0-3.27,5.9-2.42,12.07,1.8,17.2,2,2.41,6.5,1.69,7.85-1,3.38-6.75,2.4-14.33-3-19.7-2.51-2.47-5.94-1.52-7.86,1-5.35,7.09-2.78,16.95,4.27,21.71,2.27,1.53,5.52.4,6.84-1.79,3.88-6.44,3.94-15.22-1.1-21.12-5.64-6.6-12.95-1.92-13.9,5.47-.84,6.62-.79,17.19,5.46,21.43,5.94,4.05,14.92-1.4,12.55-8.66-2-6.09-11.65-3.48-9.65,2.66l2.46-2.7-.38-1.15c0-1-.46-2.18-.57-3.21-.19-1.77.72-6.05.07-7.41.39-1.15-.17-1.22-1.68-.23q-2.58-.24-1.44,1.08c0,.58.8,2,.92,2.71a8.68,8.68,0,0,1-1.37,6.08l6.84-1.79c-2.93-2-2.57-5.53-.68-8l-7.85,1a6.27,6.27,0,0,1,1.48,7.58l7.85-1a4.3,4.3,0,0,1-.24-5.08H438.1a18.46,18.46,0,0,1,1.09,11.08h9.64a25.71,25.71,0,0,1,1.3-14.18L441,420.58c1.8,2.66,4.56,9,1.44,11.77l3.53-1.46-1.1.1,3.53,1.46c-3.41-3.11-1.72-8.71,1.13-11.49l-4.86,1.28c3.17,1.27,3.74,5.29,3.66,8.23a29.62,29.62,0,0,1-.9,5.77L447,438c-.53,1.67-.42,1.61.31-.17-4.44-3.78-8-7-8.59-13.3-.2-2.06-.54-6.51,2.46-5s3.44,6.16,3.45,9c0,1.95-.67,3.91-.66,5.83l-.28,1.22c.84-.75.63-1.34-.66-1.77-1.52-2.77-3.32-4.43-2.83-8l-4.82,3.67.77.52c5.27,3.71,10.27-5,5.05-8.64Z"/><path d="M377.09,327.25c-.82-6.46-2.61-14.09-9.74-16.23-6.26-1.88-12.64,2.14-15.55,7.59-3.6,6.76-.8,14.56,3.46,20.26,3.82,5.13,11.1,12.42,17.48,6.21,9.26-9,1.3-29.86-10.76-32.23-8.16-1.6-9.82,7.55-9.59,13.66a34.48,34.48,0,0,0,8.13,20.69c2.17,2.66,6.23,1.41,7.85-1,5-7.51,3.57-18.27-3.58-23.92-2.5-2-6-2-7.85,1a16.76,16.76,0,0,0-1.46,15.13c1.76,4.22,6.1,7.6,10.79,5.68,4.43-1.81,5.71-7.73,5.53-12A18.21,18.21,0,0,0,365.33,319c-2.38-2-6.18-2-7.85,1-3.6,6.46-2.49,14.77,3.42,19.5,3,2.42,7,1.57,8.36-2.21a21.47,21.47,0,0,0-1.74-18.16c-1.77-3.11-7-3.41-8.64,0-3.89,7.88-2.43,17.66,4.7,23.24,2.72,2.13,7.48,1.86,8.36-2.2A36.67,36.67,0,0,0,370.18,318c-1.85-4.49-7.94-5-9.64,0-2.53,7.35,3.15,14.49,10.61,14.79,6.44.26,6.43-9.74,0-10-1.36-.05-1.27-1.25-1-2.13h-9.64a27.64,27.64,0,0,1,1.76,16.83l8.35-2.21c-3.44-2.7-5.19-7-3.13-11.12h-8.64a11.55,11.55,0,0,1,.74,10.45l8.36-2.2c-2.43-1.94-3.47-4.51-1.87-7.38l-7.85,1c2.22,1.88,5.74,7.21,2.55,9.91l3.54-1.47c-1,.12.92-5.68,1.22-6.19l-7.85,1c3.85,3.05,4.8,7.66,2,11.8l7.85-1a23.29,23.29,0,0,1-4.64-9.54c-.35-1.52-1.57-8-.06-9.26l-3.53,1.46c3.41-.32,6.18,5.55,6.78,8.1a11.71,11.71,0,0,1,.15,5.1,5.64,5.64,0,0,1-.38,1.29c-.33.9-.3.87.09-.08.51-.55.43-1-.23-1.33-.57-.58-1.11-1.18-1.63-1.79-2.39-2.9-5.68-7.84-3.07-11.53,3.68-5.18,5.61,1.47,6,4.7.8,6.3,10.81,6.38,10,0Z"/><path d="M218.25,194.18c-4.37-14.54-4.15-29.93-4.75-45l-1.95-48.41L207.68,5l-8.53,3.53c20.59,17.52,45.5,28,68.59,41.55a241.38,241.38,0,0,1,62.05,52.68c4.15,4.93,11.2-2.17,7.07-7.07a249.19,249.19,0,0,0-61.14-52.49c-23.08-14-48.76-24.09-69.5-41.74C203.13-1.18,197.5.34,197.68,5q2,48.9,3.95,97.8l2,48.4c.61,15.28.59,30.89,5,45.65,1.85,6.15,11.51,3.53,9.64-2.65Z"/><path d="M625.12,105.67l119-97.39-8.54-3.54c-4.81,37.17-.89,74.59.7,111.84,1.56,36.55.87,74.31-14.35,108.27-2.61,5.83,6,10.92,8.63,5.05,24.72-55.14,14.16-116.07,12.81-174.36a335.47,335.47,0,0,1,2.21-50.8c.62-4.8-5.64-5.91-8.53-3.54l-119,97.4c-5,4.08,2.13,11.12,7.07,7.07Z"/><path d="M1180.1,1014.81c-31.13-43.3-44.19-96-46.55-148.66a505.4,505.4,0,0,1,3.22-80.08c3.37-29.38,8.38-59,18.54-86.83a199.85,199.85,0,0,1,52-78.19c4.73-4.39-2.35-11.45-7.07-7.07a207,207,0,0,0-49.34,69.49c-12.29,28.46-18.38,58.93-22.49,89.51-7.31,54.32-8.45,110.65,5.22,164.11,7.56,29.58,20,57.93,37.83,82.77,3.73,5.18,12.4.19,8.64-5.05Z"/><path d="M1184.6,628.28A105.77,105.77,0,0,1,1244.16,674c13.61,21.89,20.11,47.34,24.65,72.46a611.38,611.38,0,0,1-12.3,269.24c-1.7,6.22,7.94,8.87,9.64,2.66A621.65,621.65,0,0,0,1279,747c-4.49-25.75-10.94-51.79-24.14-74.61a116.75,116.75,0,0,0-67.63-53.76c-6.18-1.86-8.82,7.79-2.66,9.64Z"/><path d="M1171.92,1010c-9.28,1.7-17.66-6-24.11-11.59S1135.06,987,1129,980.93a408,408,0,0,1-34.19-38.37,413.1,413.1,0,0,1-52.17-86.9C1013,789.08,1002.42,715,1011.13,642.73a406.19,406.19,0,0,1,34.66-121.89c2.69-5.8-5.93-10.89-8.63-5.05a415.51,415.51,0,0,0,47.29,429.66,416.22,416.22,0,0,0,39.74,44.8,281.87,281.87,0,0,0,22.9,20.53c8.09,6.32,17,10.79,27.49,8.87,6.32-1.16,3.64-10.8-2.66-9.64Z"/><path d="M1266.28,1016.84A508.35,508.35,0,0,0,1377.46,821c22.94-76.17,27-157.28,12.61-235.47a505.31,505.31,0,0,0-42.62-129.5c-2.82-5.79-11.45-.72-8.64,5.05a497.29,497.29,0,0,1,49.55,230.44,494.5,494.5,0,0,1-129.16,318.21c-4.33,4.75,2.72,11.84,7.08,7.08Z"/><path d="M1035.88,528.89c-62.8-51.93-100-132.07-100.83-213.42-.44-44.17,9.38-90.08,33.65-127.44,24-37,60.61-66.35,99.31-86.94,73.86-39.31,164.93-47.87,242.1-12.84,70.53,32,127.5,96.61,141.4,173.88,13.35,74.21-14.31,155.75-72.39,204.38q-5.47,4.58-11.28,8.69a41.42,41.42,0,0,1-5.86,4,12.82,12.82,0,0,0-1.61.85l-.76-.09q-3.34-1.35-.92,5.58c5.5-3.32.48-12-5-8.63-9.51,5.75,1.62,14.56,9.1,12.89,4.18-.94,7.89-4.32,11.29-6.76q6.26-4.5,12.16-9.44a209.78,209.78,0,0,0,39.91-45c22.55-34,35.59-74.15,38.18-114.8,5.34-84.06-39-162.49-107-210.08a262.9,262.9,0,0,0-117.4-45.42c-45.08-5.75-91.48.12-134.21,15.34-43.23,15.4-83.27,40.2-115.7,72.75-17.35,17.41-32.33,37.32-42.68,59.68s-16.63,46.09-19.86,70.34C916.06,362,946,452,1005.6,514.41A270.23,270.23,0,0,0,1028.81,536c4.92,4.07,12-3,7.07-7.07Z"/><path d="M1313,385.49a1193.15,1193.15,0,0,1,201-89.51q29.34-9.93,59.17-18.32c3.09-.88,1.77-5.7-1.33-4.82a1200.28,1200.28,0,0,0-205.73,79q-28.18,13.92-55.6,29.32c-2.81,1.57-.29,5.89,2.52,4.32Z"/><path d="M1330,416a1236.48,1236.48,0,0,0,228.38-43c21.18-6.11,42.16-13.16,64-16.53,3.17-.49,1.82-5.31-1.33-4.83-18.69,2.89-36.73,8.49-54.82,13.85q-28,8.31-56.43,15.3-56.34,13.86-113.82,22.34-32.88,4.84-66,7.89c-3.18.29-3.21,5.3,0,5Z"/><path d="M1326.84,443.2a496,496,0,0,0,213.87,33,497.31,497.31,0,0,0,59.94-7.78c3.16-.61,1.82-5.43-1.33-4.82a491.32,491.32,0,0,1-213.42-6.56,493.05,493.05,0,0,1-57.74-18.67c-3-1.18-4.29,3.65-1.32,4.82Z"/><path d="M1069.59,382.84c-35-20.29-74.46-30.35-114.25-35.83-42.39-5.84-85.34-7.61-128-10.25-12-.75-24.71-2.72-36.76-1.93-6.92.45-14.59,2.78-16.37,10.33-.73,3.13,4.09,4.46,4.82,1.33,2-8.55,15.12-6.75,21.55-6.37l31.72,1.94c20.8,1.3,41.62,2.58,62.41,4,37.9,2.65,76.06,6.23,112.79,16.44a253.29,253.29,0,0,1,59.58,24.62c2.79,1.61,5.31-2.71,2.52-4.32Z"/><path d="M1048.83,410.48c-38.92-9.6-79-4.25-118,2q-62.46,10-124.87,20.25l-35.21,5.72-17.61,2.85-8.8,1.43-3.91.63-2,.32a3.76,3.76,0,0,0-4.32,2.32l-1.75-1.75.1.61c.5,3.17,5.31,1.82,4.82-1.33-.78-4.95-8.89-2-7,2.64,1.13,2.77,4.35,3,6.87,2.74,6.09-.55,12.23-2,18.27-3l71.4-11.58,71.41-11.58c23.52-3.82,47-8.1,70.73-10.67,26.2-2.83,52.79-3.18,78.54,3.17,3.12.78,4.45-4.05,1.33-4.82Z"/><path d="M1032.87,453.05a715.3,715.3,0,0,0-190.35,96.67Q818,567.25,795,586.82c-2.46,2.09,1.09,5.61,3.53,3.54A711.07,711.07,0,0,1,977.4,479.41q27.9-12,56.8-21.54c3-1,1.73-5.84-1.33-4.82Z"/><path d="M1182.87,438.71l-4.29-3c-3.1-2.19-7.66.73-7.53,4.32.6,16.08,4.35,34.49,18.62,44.09,14.09,9.48,33.62,4.43,42.83-9.3,3.6-5.36-5.06-10.37-8.63-5-6.88,10.24-22.06,12.36-31.25,4s-11.14-22.11-11.57-33.78l-7.52,4.32,4.3,3c5.26,3.73,10.26-4.94,5-8.63Z"/><path d="M1169.52,447.31A25,25,0,0,1,1137.35,478c-6.13-2-8.76,7.65-2.65,9.64,12.14,3.95,26.12,1.1,35.39-7.85s12.54-22.8,9.07-35.1c-1.74-6.19-11.39-3.56-9.64,2.66Z"/><path d="M1233.21,325.19c-3.87,7.33-1.48,18,7.1,20.76,9.66,3.16,15.21-8.74,14.86-16.79-.39-8.88-9.49-15-17.34-9.66-7.66,5.17-7.74,19-1.43,25.31,2.62,2.61,6.67,3.62,10,1.6,4-2.47,5.19-8.66,6-12.88.77-4,2-9.46-.32-13.24s-6.92-4.84-10.81-3.46c-9.32,3.32-9.14,18.19-5,25.35,1.94,3.37,5.61,5.9,9.64,4.86,4.84-1.24,6.45-6.75,7.65-10.94,1.39-4.87,3-11.32,1.64-16.37-1.17-4.27-5-7.51-9.59-6.12-9.93,3-11.09,17.12-6.63,24.74,1.54,2.65,5.69,3.45,7.85,1a15.46,15.46,0,0,0,2.4-17.84c-2-4.06-8-2.64-9.14,1.2a38,38,0,0,0-1.53,16.06c.64,5.33,8.09,7.11,9.82,1.33a31.3,31.3,0,0,0,1.28-11.7c-.51-6.38-10.52-6.43-10,0a23.41,23.41,0,0,1-.92,9l9.82,1.33a31.08,31.08,0,0,1,1.17-13.41l-9.14,1.2a5.1,5.1,0,0,1-.83,5.72l7.85,1a8.34,8.34,0,0,1-1.31-4.78c.06-1.32.9-2.42,1-3.62q2-1.89-1.65-2.2a17.28,17.28,0,0,1-.14,2.79,42.1,42.1,0,0,1-.94,5.46c-.14.6-2.11,6.32-2,6.46l2.29-.28a17,17,0,0,1-.94-3.27c-.38-2.14.18-4.06.09-6.11a2.2,2.2,0,0,0-.68-2.6,28,28,0,0,1-.17,2.9,37.55,37.55,0,0,1-1,5.27c-.27,1.09-.57,2.16-.92,3.23-1.21,2-.48,2.4,2.2,1.19-.08.29-1.41-4.5-1.39-4.26-.1-.94-.28-6.65,2-6.07,2.48.61.26,8.42-.93,8.61-2.09.33-2.13-4.3-1.35-5.78,3-5.69-5.62-10.75-8.63-5.05Z"/><path d="M1171.22,421.33a11,11,0,0,0-5.82-1.88c-1.93-.17-4.54,1.66-4.82,3.67-1,7.46,1.21,14.82,7.45,19.46,6.68,4.95,13.69,2.48,15.61-5.6,1.86-7.83,1.6-17.36-4.28-23.5-4.9-5.1-13.83-7.05-18.26-.26-7.54,11.56,2.41,34,16.6,35.13,8.93.7,10.43-11.4,10.62-17.88.25-8-3.51-14.88-11-17.87a4.93,4.93,0,0,0-4.87,1.28,19.16,19.16,0,0,0-5.88,13.84c0,4.35,1.79,11.1,6.36,12.84,5.66,2.15,9.27-3.42,10.21-8.22a22.22,22.22,0,0,0-3.52-16.8,5.07,5.07,0,0,0-9.14,1.19,35.76,35.76,0,0,0-1.29,19.5c.93,4.77,8.69,4.76,9.64,0a30.22,30.22,0,0,0-2.1-18.79c-1.52-3.5-7-3-8.63,0-3.27,5.9-2.42,12.07,1.8,17.2,2,2.41,6.5,1.69,7.85-1,3.38-6.75,2.4-14.33-3-19.7-2.51-2.47-5.94-1.52-7.85,1-5.36,7.09-2.79,16.95,4.26,21.71,2.27,1.53,5.52.4,6.85-1.79,3.87-6.44,3.93-15.22-1.11-21.12-5.64-6.6-12.95-1.92-13.89,5.47-.85,6.62-.8,17.19,5.45,21.43,5.94,4.05,14.92-1.4,12.55-8.66-2-6.09-11.65-3.48-9.65,2.66l2.46-2.7-.38-1.15a30,30,0,0,0-.57-3.21c-.19-1.77.72-6.05.07-7.41.39-1.15-.17-1.22-1.68-.23q-2.58-.24-1.44,1.08c0,.58.8,2,.92,2.71a8.68,8.68,0,0,1-1.37,6.08l6.84-1.79c-2.93-2-2.57-5.53-.68-8l-7.85,1a6.27,6.27,0,0,1,1.48,7.58l7.85-1a4.3,4.3,0,0,1-.24-5.08h-8.63a18.46,18.46,0,0,1,1.09,11.08h9.64a25.71,25.71,0,0,1,1.3-14.18l-9.14,1.19c1.8,2.66,4.56,9,1.44,11.77l3.53-1.46-1.1.1,3.53,1.46c-3.41-3.11-1.72-8.71,1.13-11.49l-4.86,1.28c3.17,1.27,3.74,5.29,3.66,8.23a29.62,29.62,0,0,1-.9,5.77L1177,438c-.53,1.67-.42,1.61.31-.17-4.44-3.78-8-7-8.59-13.3-.2-2.06-.54-6.51,2.46-5s3.44,6.16,3.45,9c0,1.95-.67,3.91-.65,5.83l-.29,1.22q1.27-1.12-.66-1.77c-1.52-2.77-3.32-4.43-2.83-8l-4.82,3.67.77.52c5.27,3.71,10.27-5,5-8.64Z"/><path d="M1107.09,327.25c-.82-6.46-2.61-14.09-9.74-16.23-6.26-1.88-12.64,2.14-15.55,7.59-3.6,6.76-.8,14.56,3.46,20.26,3.82,5.13,11.1,12.42,17.48,6.21,9.26-9,1.3-29.86-10.76-32.23-8.16-1.6-9.82,7.55-9.59,13.66a34.48,34.48,0,0,0,8.13,20.69c2.17,2.66,6.23,1.41,7.85-1,5-7.51,3.57-18.27-3.58-23.92-2.5-2-6-2-7.85,1a16.76,16.76,0,0,0-1.46,15.13c1.76,4.22,6.1,7.6,10.79,5.68,4.43-1.81,5.72-7.73,5.53-12a18.21,18.21,0,0,0-6.47-13.08c-2.38-2-6.18-2-7.85,1-3.6,6.46-2.49,14.77,3.42,19.5,3,2.42,7,1.57,8.36-2.21a21.47,21.47,0,0,0-1.74-18.16c-1.77-3.11-7-3.41-8.64,0-3.89,7.88-2.43,17.66,4.7,23.24,2.72,2.13,7.48,1.86,8.36-2.2a36.67,36.67,0,0,0-1.76-22.15c-1.85-4.49-7.94-5-9.64,0-2.53,7.35,3.15,14.49,10.61,14.79,6.44.26,6.43-9.74,0-10-1.36-.05-1.27-1.25-1-2.13h-9.64a27.64,27.64,0,0,1,1.76,16.83l8.35-2.21c-3.44-2.7-5.19-7-3.13-11.12h-8.64a11.55,11.55,0,0,1,.74,10.45l8.36-2.2c-2.43-1.94-3.47-4.51-1.87-7.38l-7.85,1c2.22,1.88,5.74,7.21,2.55,9.91l3.54-1.47c-1,.12.92-5.68,1.23-6.19l-7.86,1c3.85,3.05,4.8,7.66,2,11.8l7.85-1a23.29,23.29,0,0,1-4.64-9.54c-.35-1.52-1.57-8-.06-9.26l-3.53,1.46c3.42-.32,6.18,5.55,6.78,8.1a11.71,11.71,0,0,1,.15,5.1,6.17,6.17,0,0,1-.37,1.29c-.34.9-.31.87.08-.08.51-.55.43-1-.23-1.33-.56-.58-1.11-1.18-1.63-1.79-2.39-2.9-5.68-7.84-3.07-11.53,3.68-5.18,5.61,1.47,6,4.7.8,6.3,10.81,6.38,10,0Z"/><path d="M948.26,194.18c-4.38-14.54-4.16-29.93-4.76-45l-2-48.41L937.68,5l-8.53,3.53c20.59,17.52,45.5,28,68.6,41.55a241.5,241.5,0,0,1,62,52.68c4.15,4.93,11.2-2.17,7.07-7.07a249.19,249.19,0,0,0-61.14-52.49c-23.08-14-48.76-24.09-69.5-41.74C933.13-1.18,927.5.34,927.68,5q2,48.9,4,97.8l2,48.4c.61,15.28.59,30.89,5,45.65,1.85,6.15,11.51,3.53,9.65-2.65Z"/><path d="M1355.12,105.67l119-97.39-8.54-3.54c-4.81,37.17-.89,74.59.7,111.84,1.56,36.55.87,74.31-14.35,108.27-2.61,5.83,6,10.92,8.63,5.05,24.72-55.14,14.16-116.07,12.81-174.36a335.47,335.47,0,0,1,2.21-50.8c.62-4.8-5.63-5.91-8.53-3.54l-119,97.4c-5,4.08,2.13,11.12,7.07,7.07Z"/></g></g></svg>