<?xml version="1.0" encoding="UTF-8"?>
<svg width="456px" height="455px" viewBox="0 0 456 455" version="1.1" xmlns="http://www.w3.org/2000/svg" xmlns:xlink="http://www.w3.org/1999/xlink">
    <!-- Generator: Sketch 51.2 (57519) - http://www.bohemiancoding.com/sketch -->
    <title>6Ресурс 7</title>
    <desc>Created with Sketch.</desc>
    <defs></defs>
    <g id="Welcome" stroke="none" stroke-width="1" fill="none" fill-rule="evenodd">
        <g id="Desktop-HD" transform="translate(-492.000000, -831.000000)">
            <g id="6Ресурс-7" transform="translate(492.000000, 831.000000)">
                <circle id="Oval" fill="#C34EDB" fill-rule="nonzero" opacity="0.05" cx="228" cy="227" r="169"></circle>
                <path d="M214.430629,241.096498 C199.890638,258.402582 186.952956,276.996028 175.777368,296.647203 C168.023442,310.280481 161.077982,324.557417 157.519506,339.839684 C153.961029,355.121952 153.973279,371.562803 159.840784,386.109462 C171.937154,416.09777 204.747409,431.171615 227.635578,454 L227.972439,454 C250.829984,431.165485 283.640239,416.09777 295.736609,386.109462 C301.604114,371.562803 301.616363,355.115822 298.057887,339.839684 C294.499411,324.563547 287.553951,310.280481 279.800024,296.647203 C268.624436,276.996028 255.686755,258.402582 241.146764,241.096498 L241.275383,240.759344 C258.567032,255.31404 277.146547,268.263096 296.78394,279.446223 C310.405371,287.206893 324.669901,294.158394 339.932763,297.719965 C355.195626,301.281537 371.628315,301.275407 386.162333,295.396668 C416.124582,283.289778 431.191452,250.457117 454,227.549041 L454,227.205757 C431.191452,204.297681 416.124582,171.465019 386.162333,159.351999 C371.628315,153.479391 355.201751,153.46713 339.932763,157.028702 C324.663776,160.590273 310.405371,167.572424 296.78394,175.302444 C277.147769,186.489844 258.568451,199.440815 241.275383,213.995453 L240.975271,213.909632 C255.514099,196.609201 268.451741,178.021967 279.628532,158.377317 C287.382458,144.744039 294.327918,130.467103 297.886394,115.190966 C301.444871,99.9148285 301.432621,83.4678476 295.565116,68.9211887 C283.468746,38.9083602 250.664616,23.8283851 227.776447,1 L227.433461,1 C204.545292,23.8283851 171.735037,38.9083602 159.638667,68.8782782 C153.771162,83.4249371 153.758913,99.865788 157.317389,115.148055 C160.875866,130.430323 167.821325,144.719519 175.575252,158.377317 C186.752927,178.029096 199.690469,196.624394 214.228513,213.934152 L214.724617,214.185485 C197.4299,199.634798 178.850762,186.686003 159.21606,175.498606 C145.594629,167.737936 131.330099,160.786435 116.067237,157.224864 C100.804374,153.663293 84.3716853,153.675553 69.8376672,159.548161 C39.8754184,171.630531 24.8085475,204.469323 2,227.377399 L2,227.720683 C24.8085475,250.628759 39.8754184,283.46142 69.8376672,295.56831 C84.3716853,301.440919 100.798249,301.453179 116.067237,297.891607 C131.336224,294.330036 145.594629,287.378535 159.21606,279.617865 C178.852115,268.432615 197.431442,255.483689 214.724617,240.930986 L214.400005,241.096498" id="Shape" fill="#FFFFFF" fill-rule="nonzero"></path>
                <g id="Group" opacity="0.1" transform="translate(10.000000, 9.000000)" fill="#3AC7FF" fill-rule="nonzero">
                    <path d="M401.832265,168.976946 C396.635207,164.818194 390.871825,161.422134 384.716188,158.891334 C370.163536,153.008061 353.715912,153.001926 338.427348,156.566245 C323.138785,160.130564 308.862099,167.087428 295.223204,174.841816 C275.560634,186.03357 256.957299,198.992617 239.643481,213.558542 L239.342983,213.472655 C248.346765,202.756832 256.741224,191.543129 264.48663,179.884622 C252.675613,187.716194 241.320096,196.214386 230.475249,205.337909 L230.174751,205.252022 C244.73373,187.942389 257.690001,169.344937 268.883702,149.689133 C276.647569,136.045337 283.601934,121.757387 287.164972,106.469464 C290.728011,91.1815406 290.715746,74.7218707 284.840718,60.163989 C280.547901,49.5753232 273.710055,40.8455021 265.62116,32.9806878 C253.086133,22.4717744 239.042486,12.981238 227.353757,1.63185695 C226.881547,1.23922971 226.403204,0.840467675 225.930994,0.404896836 L225.783812,0.404896836 C202.866298,23.2570289 170.02011,38.3486382 157.902099,68.3600825 C152.027072,82.9179642 152.014807,99.3714993 155.577845,114.665557 C159.140884,129.959615 166.101381,144.241431 173.859116,157.891362 C184.945652,177.365046 197.759116,195.802698 212.144917,212.981871 C195.09095,198.727155 176.798329,186.024685 157.485083,175.02586 C143.840055,167.259202 129.557238,160.302338 114.274807,156.731884 C98.9923757,153.161431 82.5386188,153.179835 67.9859669,159.056974 C37.9853039,171.160935 22.899116,204.037331 0.0613259669,226.98762 L0.0613259669,227.331169 C15.1536464,242.453453 26.8546409,261.955983 41.7016575,276.900358 C46.8956353,281.060337 52.6571784,284.45653 58.8116022,286.98597 C73.3642541,292.863109 89.8118785,292.875378 105.100442,289.311059 C120.389006,285.74674 134.665691,278.789876 148.304586,271.023219 C167.735853,259.957999 186.134013,247.168695 203.277182,232.809546 C194.228569,243.602286 185.797106,254.898115 178.023149,266.642971 C189.975787,258.77358 201.466753,250.223949 212.439282,241.036314 C197.999607,258.267256 185.144606,276.767207 174.030829,296.310867 C166.266961,309.960798 159.312597,324.248748 155.749558,339.536671 C152.186519,354.824594 152.198785,371.284264 158.073812,385.842146 C162.36663,396.430812 169.204475,405.154498 177.29337,413.025447 C189.83453,423.528226 203.878177,433.024897 215.560773,444.368143 L216.983536,445.595103 L217.130718,445.595103 C240.048232,422.687758 272.900552,407.608418 285.012431,377.596974 C290.887459,363.039092 290.899724,346.579422 287.336685,331.291499 C283.773646,316.003576 276.819282,301.709491 269.055414,288.065695 C257.865498,268.399358 244.91123,249.791568 230.352597,232.472132 L230.481381,232.134718 C247.7952,246.700643 266.398535,259.65969 286.061105,270.851444 C299.7,278.618102 313.982818,285.574966 329.265249,289.139285 C344.54768,292.703604 361.001436,292.697469 375.554088,286.814195 C405.554751,274.697964 420.640939,241.839972 443.478729,218.914223 L443.478729,218.570674 C428.392541,203.423851 416.685414,183.94586 401.832265,168.976946 Z" id="Shape"></path>
                </g>
                <path d="M225.660329,0.637938428 C204.999461,21.0878257 176.394929,34.8088429 161.609189,60.7508106 C142.576221,94.1380068 158.549226,132.472361 176.223571,162.559411 C186.843589,180.612997 198.947781,197.750514 212.41069,213.794338 C212.992083,214.486206 216.345802,213.267784 215.75217,212.569794 C203.696344,198.203881 192.733427,182.954393 182.955489,166.949402 C173.475724,151.397691 164.510034,135.050027 159.797691,117.355364 C155.207747,100.10766 154.993549,81.2313115 162.698536,64.8224199 C168.91638,51.5728522 179.473251,41.1581043 190.623756,31.9495323 C203.340961,21.4123299 217.110793,12.0935489 228.88553,0.435888644 C229.65664,-0.329451448 226.302921,0.0256663546 225.660329,0.637938428 Z" id="Shape" fill="#3AC7FF" fill-rule="nonzero"></path>
                <path d="M225.271721,1.91664985 C245.641651,22.1279181 273.741895,35.7123402 288.604128,61.1111673 C307.893279,94.0555346 292.090708,132.248707 274.663915,162.112387 C264.09587,180.195757 252.028293,197.354306 238.589112,213.406136 C237.172498,215.096533 240.555275,215.500758 241.526143,214.337079 C253.54823,199.970271 264.491849,184.729216 274.267019,168.739233 C283.81695,153.090812 292.805121,136.658438 297.628935,118.835774 C302.300097,101.601075 302.672568,82.5718595 295.186497,66.0537411 C289.275798,52.977663 279.26791,42.5657976 268.472336,33.3911067 C255.295385,22.2014136 240.799518,12.5673758 228.495739,0.373243912 C227.427172,-0.686316515 224.068821,0.728472263 225.247297,1.89827597 L225.271721,1.91664985 Z" id="Shape" fill="#3AC7FF" fill-rule="nonzero"></path>
                <path d="M455.749971,226.327626 C434.870818,205.44516 420.869504,176.210922 393.880128,161.888393 C360.295396,144.061157 322.000573,159.653155 291.940734,177.006618 C273.412281,187.720936 255.835429,199.96951 239.398959,213.620785 C237.826882,214.926698 241.345633,215.011734 242.266772,214.228186 C256.329348,202.551793 271.240821,191.913838 286.880609,182.400344 C302.496988,172.912732 318.923968,163.886744 336.738799,159.19153 C354.148328,154.605648 373.16678,154.666389 389.550774,162.80557 C402.37303,169.183286 412.468715,179.575927 421.483596,190.418045 C431.818777,202.857629 441.036309,216.226538 452.519843,227.700353 C453.416419,228.599308 456.818492,227.281246 455.817521,226.30333 L455.749971,226.327626 Z" id="Shape" fill="#3AC7FF" fill-rule="nonzero"></path>
                <path d="M452.633397,226.607463 C432.418153,247.03411 418.806187,275.579826 393.222325,290.239599 C359.97866,309.278266 321.673506,292.315428 291.9434,274.670884 C274.426766,264.252704 257.783236,252.432574 242.176184,239.326521 C241.045948,238.380729 237.876375,240.020511 239.412021,241.297944 C254.15668,253.679757 269.829368,264.912753 286.292222,274.898119 C302.330509,284.613981 319.259471,293.789389 337.601227,298.235839 C354.51176,302.356789 372.810518,302.295374 388.910231,295.134379 C402.38706,289.14027 413.167295,278.767268 422.559306,267.632718 C433.732666,254.385492 443.382666,239.866973 455.606408,227.516406 C457.154339,225.956464 453.70835,225.520417 452.657968,226.582897 L452.633397,226.607463 Z" id="Shape" fill="#3AC7FF" fill-rule="nonzero"></path>
                <path d="M229.216499,454.427331 C250.010568,433.815319 278.822585,420.006497 293.531331,393.744585 C312.068632,360.654943 296.870614,322.927598 279.53203,292.997238 C268.748397,274.421183 256.398047,256.805897 242.616441,240.344588 C241.809142,239.375333 238.402584,240.64518 239.332202,241.755529 C251.175415,255.904475 261.966403,270.906958 271.618052,286.641868 C281.287294,302.432142 290.436684,319.062846 295.21932,337.079953 C299.763436,354.20142 300.044767,373.052823 292.418237,389.358397 C286.222827,402.608977 275.697359,413.013136 264.596995,422.221062 C251.875918,432.778584 238.133485,442.115335 226.360372,453.795475 C224.88644,455.261627 228.354156,455.2923 229.216499,454.408928 L229.216499,454.427331 Z" id="Shape" fill="#3AC7FF" fill-rule="nonzero"></path>
                <path d="M228.752287,452.101589 C208.38171,431.888885 180.266037,418.303498 165.398874,392.902866 C146.103325,359.956158 161.917246,321.760273 179.349819,291.888346 C189.920732,273.806691 201.990198,256.649072 215.430479,240.597078 C216.847563,238.900436 213.463665,238.502307 212.498582,239.659943 C200.470476,254.029778 189.521193,269.273952 179.740738,285.267154 C170.18764,300.916687 161.202596,317.350228 156.377182,335.155783 C151.704471,352.391707 151.325767,371.422274 158.789889,387.941566 C164.702549,401.018573 174.713756,411.431178 185.512911,420.606521 C198.694232,431.797009 213.194908,441.431731 225.502768,453.62673 C226.577797,454.686365 229.931155,453.271476 228.752287,452.101589 Z" id="Shape" fill="#3AC7FF" fill-rule="nonzero"></path>
                <path d="M0.242112406,227.672374 C21.122028,248.560914 35.129995,277.789078 62.1142153,292.111607 C95.7001737,309.938843 133.996395,294.346845 164.057333,276.993382 C182.588765,266.282606 200.166554,254.033827 216.601026,240.379215 C218.173161,239.073302 214.654281,238.988266 213.733109,239.771814 C199.670019,251.448207 184.758002,262.086162 169.117642,271.599656 C153.500693,281.087268 137.073112,290.113256 119.263773,294.80847 C101.847467,299.394352 82.8283199,299.333611 66.4498684,291.19443 C53.6271438,284.816714 43.5372316,274.424073 34.5158798,263.581955 C24.1803216,251.142371 14.9624529,237.773462 3.48464048,226.299647 C2.58189119,225.400692 -0.814165679,226.718754 0.180700889,227.69667 L0.242112406,227.672374 Z" id="Shape" fill="#3AC7FF" fill-rule="nonzero"></path>
                <path d="M3.33979652,228.421559 C23.5549414,207.983153 37.1668408,179.429587 62.7567203,164.765782 C96.0002219,145.721881 134.299045,162.695526 164.029006,180.338779 C181.554027,190.758705 198.205728,202.58211 213.820548,215.692861 C214.950778,216.638913 218.120336,214.99868 216.59084,213.720896 C201.842986,201.337095 186.168445,190.1011 169.704726,180.111481 C153.666518,170.392948 136.737639,161.215016 118.395973,156.767344 C101.485523,152.64526 83.1868545,152.706692 67.0872208,159.838941 C53.6166001,165.816268 42.8302755,176.216696 33.4383106,187.354307 C22.2650051,200.605176 12.6150529,215.127687 0.391370653,227.481651 C-1.15041037,229.042022 2.2894198,229.478189 3.33979652,228.421559 Z" id="Shape" fill="#3AC7FF" fill-rule="nonzero"></path>
                <rect id="Rectangle-path" stroke="#3AC7FF" stroke-width="2" x="212" y="212" width="31" height="31" rx="15.5"></rect>
                <path d="M212,227 L243,227" id="Shape" stroke="#3AC7FF" stroke-width="2"></path>
                <path d="M228,212 L228,243" id="Shape" stroke="#3AC7FF" stroke-width="2"></path>
            </g>
        </g>
    </g>
</svg>