<?xml version="1.0" encoding="UTF-8"?>
<svg width="69px" height="65px" viewBox="0 0 69 65" version="1.1" xmlns="http://www.w3.org/2000/svg" xmlns:xlink="http://www.w3.org/1999/xlink">
    <!-- Generator: Sketch 51.2 (57519) - http://www.bohemiancoding.com/sketch -->
    <title>Line</title>
    <desc>Created with Sketch.</desc>
    <defs></defs>
    <g id="Welcome" stroke="none" stroke-width="1" fill="none" fill-rule="evenodd" opacity="0.800000012">
        <g id="Mobile-Portrait" transform="translate(-175.000000, -270.000000)" fill="#E91FFF" fill-rule="nonzero">
            <path id="Line" d="M238.766269,334.499815 L243.509673,325.625688 L234.51301,325.380616 L238.766269,334.499815 Z M176.03472,271.939831 C177.386083,271.845767 178.713866,271.766792 180.018064,271.702905 L180.517465,271.678441 L180.468538,270.679639 L179.969137,270.704102 C178.658033,270.768328 177.323416,270.847709 175.96528,270.942245 L175.466487,270.976965 L175.535927,271.974551 L176.03472,271.939831 Z M184.003469,271.552718 C185.36041,271.517516 186.689769,271.499944 187.99154,271.5 L188.49154,271.500022 L188.491583,270.500022 L187.991583,270.5 C186.68106,270.499944 185.343046,270.51763 183.977535,270.553054 L183.477703,270.566021 L183.503637,271.565685 L184.003469,271.552718 Z M191.980679,271.557874 C193.339446,271.59815 194.66527,271.659447 195.958145,271.741756 L196.457135,271.773524 L196.520671,270.775544 L196.021681,270.743777 C194.717375,270.660739 193.380253,270.59892 192.010308,270.558313 L191.510527,270.543498 L191.480898,271.543059 L191.980679,271.557874 Z M199.928026,272.071176 C201.283957,272.211362 202.599362,272.37734 203.874232,272.569093 L204.36867,272.643461 L204.517407,271.654584 L204.022968,271.580216 C202.732631,271.386137 201.401933,271.218229 200.030866,271.076478 L199.533517,271.025058 L199.430677,272.019756 L199.928026,272.071176 Z M207.799926,273.267442 C209.137062,273.544712 210.422807,273.854554 211.657154,274.196931 L212.138963,274.330573 L212.406247,273.366956 L211.924438,273.233314 C210.668508,272.884949 209.361353,272.569948 208.002968,272.288272 L207.513383,272.186751 L207.310341,273.165921 L207.799926,273.267442 Z M215.420932,275.399639 C216.701686,275.868147 217.9157,276.378728 219.06301,276.931309 L219.513485,277.148272 L219.94741,276.247324 L219.496936,276.030361 C218.319629,275.463332 217.075464,274.94007 215.764475,274.460502 L215.294907,274.28873 L214.951364,275.227867 L215.420932,275.399639 Z M222.530974,278.85832 C223.667182,279.585742 224.718032,280.366857 225.683714,281.201635 L226.061975,281.52862 L226.715944,280.772099 L226.337684,280.445114 C225.335335,279.57864 224.246097,278.76899 223.070159,278.016133 L222.649065,277.74654 L222.109881,278.588728 L222.530974,278.85832 Z M228.464032,284.025455 C229.282423,285.000678 230.051022,286.061692 230.769773,287.208668 L231.035274,287.632353 L231.882644,287.10135 L231.617143,286.677665 C230.874241,285.49215 230.07856,284.393749 229.230045,283.38263 L228.908632,282.999624 L228.14262,283.642449 L228.464032,284.025455 Z M232.682181,290.708313 C233.229594,291.857792 233.738541,293.073442 234.208955,294.355286 L234.381212,294.824676 L235.319993,294.480161 L235.147735,294.01077 C234.666848,292.700386 234.14597,291.456239 233.585029,290.278353 L233.370049,289.826929 L232.467201,290.256889 L232.682181,290.708313 Z M235.426848,298.122739 C235.776223,299.355606 236.095872,300.639313 236.385761,301.973851 L236.491896,302.462457 L237.469107,302.250187 L237.362972,301.761581 C237.068745,300.407074 236.744086,299.103247 236.388962,297.850091 L236.252638,297.369034 L235.290524,297.641682 L235.426848,298.122739 Z M237.121637,305.855515 C237.330087,307.128349 237.514914,308.441403 237.676106,309.794669 L237.735244,310.291159 L238.728225,310.172883 L238.669086,309.676392 C238.506192,308.30883 238.319332,306.981335 238.108491,305.6939 L238.027683,305.200473 L237.040829,305.362088 L237.121637,305.855515 Z M238.072337,313.770732 C238.177319,315.063066 238.26298,316.388205 238.329311,317.746143 L238.353706,318.245547 L239.352515,318.196758 L239.32812,317.697354 C239.26127,316.328802 239.174917,314.992941 239.069053,313.689764 L239.028569,313.191406 L238.031853,313.272374 L238.072337,313.770732 Z M238.466934,321.749385 C238.493682,323.051086 238.504203,324.380286 238.498494,325.736981 L238.49639,326.236977 L239.496381,326.241185 L239.498485,325.741189 C239.504228,324.376326 239.493642,323.038878 239.466722,321.728841 L239.45645,321.228947 L238.456661,321.249491 L238.466934,321.749385 Z"></path>
        </g>
    </g>
</svg>