<?xml version="1.0" encoding="UTF-8"?>
<svg width="24px" height="24px" viewBox="0 0 24 24" version="1.1" xmlns="http://www.w3.org/2000/svg" xmlns:xlink="http://www.w3.org/1999/xlink">
    <!-- Generator: Sketch 51.3 (57544) - http://www.bohemiancoding.com/sketch -->
    <desc>Created with Sketch.</desc>
    <defs></defs>
    <g id="Welcome" stroke="none" stroke-width="1" fill="none" fill-rule="evenodd">
        <g id="Instagram" fill-rule="nonzero">
            <rect id="Rectangle-12" stroke="#FFFFFF" x="0.5" y="0.5" width="23" height="23" rx="5"></rect>
            <g id="instagram-logo" transform="translate(7.000000, 7.000000)" fill="#FFFFFF">
                <g id="Shape">
                    <path d="M10,7.72367721 C10,8.97887273 8.97880817,10 7.72362167,10 L2.27623451,10 C1.02111992,10.0000719 0,8.97887273 0,7.72367721 L0,2.27632279 C0,1.02119918 1.02111992,0 2.27623451,0 L7.72354976,0 C8.97873626,0 9.99992809,1.02119918 9.99992809,2.27632279 L9.99992809,7.72367721 L10,7.72367721 Z M8.26395231,0.952884325 C8.05613283,0.952884325 7.85198076,1.03701946 7.70521275,1.18443572 C7.55772564,1.33113288 7.47294392,1.53535833 7.47294392,1.74389841 C7.47294392,1.95179129 7.55779754,2.15594483 7.70521275,2.30336109 C7.85190885,2.45005825 8.05613283,2.53491249 8.26395231,2.53491249 C8.47249089,2.53491249 8.67599577,2.45005825 8.82341097,2.30336109 C8.97082617,2.15594483 9.0549607,1.95171938 9.0549607,1.74389841 C9.0549607,1.53535833 8.97082617,1.33113288 8.82341097,1.18443572 C8.67671487,1.03701946 8.47249089,0.952884325 8.26395231,0.952884325 Z M4.99996405,2.26639916 C3.49257042,2.26639916 2.2662482,3.4927302 2.2662482,5.00013466 C2.2662482,6.50747637 3.49257042,7.73374466 4.99996405,7.73374466 C6.50735767,7.73374466 7.73367989,6.50747637 7.73367989,5.00013466 C7.73367989,3.4927302 6.50735767,2.26639916 4.99996405,2.26639916 Z" id="Combined-Shape"></path>
                </g>
            </g>
        </g>
    </g>
</svg>