<?xml version="1.0" encoding="UTF-8"?>
<svg width="24px" height="24px" viewBox="0 0 24 24" version="1.1" xmlns="http://www.w3.org/2000/svg" xmlns:xlink="http://www.w3.org/1999/xlink">
    <!-- Generator: Sketch 51.3 (57544) - http://www.bohemiancoding.com/sketch -->
    <desc>Created with Sketch.</desc>
    <defs></defs>
    <g id="Welcome" stroke="none" stroke-width="1" fill="none" fill-rule="evenodd">
        <g id="Spark">
            <rect id="Rectangle-12" stroke="#FFFFFF" fill-rule="nonzero" x="0.5" y="0.5" width="23" height="23" rx="5"></rect>
            <path d="M13.78125,14.4101562 C13.78125,14.0781233 13.6640637,13.8232431 13.4296875,13.6455078 C13.1953113,13.4677725 12.7734405,13.2802744 12.1640625,13.0830078 C11.5546845,12.8857412 11.0722674,12.6914072 10.7167969,12.5 C9.74804203,11.9765599 9.26367188,11.2714888 9.26367188,10.3847656 C9.26367188,9.92382582 9.39355339,9.51269712 9.65332031,9.15136719 C9.91308724,8.79003726 10.2861304,8.50781352 10.7724609,8.3046875 C11.2587915,8.10156148 11.8046845,8 12.4101562,8 C13.0195343,8 13.5624976,8.11035046 14.0390625,8.33105469 C14.5156274,8.55175892 14.8857409,8.86327924 15.1494141,9.265625 C15.4130873,9.66797076 15.5449219,10.1249974 15.5449219,10.6367188 L13.7871094,10.6367188 C13.7871094,10.2460918 13.6640637,9.9423839 13.4179688,9.72558594 C13.1718738,9.50878798 12.8261741,9.40039062 12.3808594,9.40039062 C11.9511697,9.40039062 11.6171887,9.49121003 11.3789062,9.67285156 C11.1406238,9.8544931 11.0214844,10.0937485 11.0214844,10.390625 C11.0214844,10.6679701 11.1611314,10.9003897 11.4404297,11.0878906 C11.719728,11.2753916 12.1308567,11.4511711 12.6738281,11.6152344 C13.6738331,11.9160171 14.4023415,12.2890603 14.859375,12.734375 C15.3164085,13.1796897 15.5449219,13.7343717 15.5449219,14.3984375 C15.5449219,15.1367224 15.2656278,15.7158182 14.7070312,16.1357422 C14.1484347,16.5556662 13.3964891,16.765625 12.4511719,16.765625 C11.7949186,16.765625 11.1972683,16.645509 10.6582031,16.4052734 C10.1191379,16.1650379 9.70800923,15.8359396 9.42480469,15.4179688 C9.14160015,14.9999979 9,14.5156278 9,13.9648438 L10.7636719,13.9648438 C10.7636719,14.9062547 11.3261662,15.3769531 12.4511719,15.3769531 C12.8691427,15.3769531 13.1953113,15.291993 13.4296875,15.1220703 C13.6640637,14.9521476 13.78125,14.7148453 13.78125,14.4101562 Z" id="S" fill="#FFFFFF"></path>
        </g>
    </g>
</svg>