<?xml version="1.0" encoding="UTF-8"?>
<svg width="358px" height="165px" viewBox="0 0 358 165" version="1.1" xmlns="http://www.w3.org/2000/svg" xmlns:xlink="http://www.w3.org/1999/xlink">
    <!-- Generator: Sketch 51.3 (57544) - http://www.bohemiancoding.com/sketch -->
    <desc>Created with Sketch.</desc>
    <defs></defs>
    <g id="Welcome" stroke="none" stroke-width="1" fill="none" fill-rule="evenodd">
        <g id="Group-10" transform="translate(2.000000, 1.000000)" fill-rule="nonzero" stroke="#152228" stroke-width="4">
            <g id="Group-9">
                <circle id="Oval-16" cx="73" cy="73" r="39"></circle>
                <path d="M41,95 L106,51" id="Path-26"></path>
                <path d="M22,107 L181,1" id="Path-26"></path>
                <circle id="Oval-16" cx="156" cy="18" r="11"></circle>
                <path d="M147,24 L165,12" id="Path-26"></path>
                <path d="M127,54 L145,42" id="Path-26"></path>
                <path d="M0,107 L18,95" id="Path-26"></path>
            </g>
            <g id="Group-9" transform="translate(263.500000, 107.000000) rotate(-180.000000) translate(-263.500000, -107.000000) translate(173.000000, 51.000000)">
                <circle id="Oval-16" cx="73" cy="73" r="39"></circle>
                <path d="M41,95 L106,51" id="Path-26"></path>
                <path d="M22,107 L181,1" id="Path-26"></path>
                <circle id="Oval-16" cx="156" cy="18" r="11"></circle>
                <path d="M147,24 L165,12" id="Path-26"></path>
                <path d="M127,54 L145,42" id="Path-26"></path>
                <path d="M0,107 L18,95" id="Path-26"></path>
            </g>
        </g>
    </g>
</svg>