<?xml version="1.0" encoding="UTF-8"?>
<svg width="16px" height="14px" viewBox="0 0 16 14" version="1.1" xmlns="http://www.w3.org/2000/svg" xmlns:xlink="http://www.w3.org/1999/xlink">
    <!-- Generator: Sketch 51.3 (57544) - http://www.bohemiancoding.com/sketch -->
    <desc>Created with Sketch.</desc>
    <defs></defs>
    <g id="Welcome" stroke="none" stroke-width="1" fill="none" fill-rule="evenodd">
        <g id="suitcase" fill="#152228" fill-rule="nonzero">
            <path d="M15.2,2.33333333 L11.7333333,2.33333333 L11.7333333,1.2962963 C11.7324219,0.580674921 11.1360677,0.000886141667 10.4,0 L5.6,0 C4.8639323,0.000886141667 4.26757813,0.580674921 4.26666667,1.2962963 L4.26666667,2.33333333 L0.8,2.33333333 C0.358203133,2.33333333 0,2.68158638 0,3.11111111 L0,8.88216146 C0.00169270667,9.21104599 0.214843733,9.50359881 0.533333333,9.61411312 L0.533333333,13.2222222 C0.533333333,13.651747 0.891536467,14 1.33333333,14 L14.6666667,14 C15.1084635,14 15.4666667,13.651747 15.4666667,13.2222222 L15.4666667,9.61436632 C15.7851563,9.50372539 15.9984375,9.21104599 16,8.88216146 L16,3.11111111 C16,2.68158638 15.6417969,2.33333333 15.2,2.33333333 Z M4.8,1.2962963 C4.8,0.866771565 5.15820313,0.518518519 5.6,0.518518519 L10.4,0.518518519 C10.8417969,0.518518519 11.2,0.866771565 11.2,1.2962963 L11.2,2.33333333 L10.6666667,2.33333333 L10.6666667,1.2962963 C10.6666667,1.15312138 10.5472656,1.03703704 10.4,1.03703704 L5.6,1.03703704 C5.45273437,1.03703704 5.33333333,1.15312138 5.33333333,1.2962963 L5.33333333,2.33333333 L4.8,2.33333333 L4.8,1.2962963 Z M10.1333333,2.33333333 L5.86666667,2.33333333 L5.86666667,1.55555556 L10.1333333,1.55555556 L10.1333333,2.33333333 Z M14.9333333,13.2222222 C14.9333333,13.3653971 14.8139323,13.4814815 14.6666667,13.4814815 L1.33333333,13.4814815 C1.1860677,13.4814815 1.06666667,13.3653971 1.06666667,13.2222222 L1.06666667,9.70323349 L6.93333333,10.4898727 L6.93333333,11.1481481 C6.93333333,11.5776729 7.29153647,11.9259259 7.73333333,11.9259259 L8.26666667,11.9259259 C8.70846353,11.9259259 9.06666667,11.5776729 9.06666667,11.1481481 L9.06666667,10.4898727 L14.9333333,9.70323349 L14.9333333,13.2222222 Z M8.53333333,11.1481481 C8.53333333,11.2913231 8.4139323,11.4074074 8.26666667,11.4074074 L7.73333333,11.4074074 C7.5860677,11.4074074 7.46666667,11.2913231 7.46666667,11.1481481 L7.46666667,9.59259259 C7.46666667,9.44941767 7.5860677,9.33333333 7.73333333,9.33333333 L8.26666667,9.33333333 C8.4139323,9.33333333 8.53333333,9.44941767 8.53333333,9.59259259 L8.53333333,11.1481481 Z M15.4666667,8.88216146 C15.4667969,9.01141131 15.3690104,9.1210395 15.2373698,9.13914206 L15.1634115,9.1490162 L9.06666667,9.96641709 L9.06666667,9.59259259 C9.06666667,9.16306786 8.70846353,8.81481481 8.26666667,8.81481481 L7.73333333,8.81481481 C7.29153647,8.81481481 6.93333333,9.16306786 6.93333333,9.59259259 L6.93333333,9.96641709 L0.762890633,9.13914206 C0.63125,9.12116609 0.533203133,9.01153789 0.533333333,8.88216146 L0.533333333,3.11111111 C0.533333333,2.96793619 0.652734367,2.85185185 0.8,2.85185185 L15.2,2.85185185 C15.3472656,2.85185185 15.4666667,2.96793619 15.4666667,3.11111111 L15.4666667,8.88216146 Z" id="Shape"></path>
        </g>
    </g>
</svg>