<?xml version="1.0" encoding="UTF-8"?>
<svg width="24px" height="24px" viewBox="0 0 24 24" version="1.1" xmlns="http://www.w3.org/2000/svg" xmlns:xlink="http://www.w3.org/1999/xlink">
    <!-- Generator: Sketch 51.3 (57544) - http://www.bohemiancoding.com/sketch -->
    <desc>Created with Sketch.</desc>
    <defs></defs>
    <g id="Welcome" stroke="none" stroke-width="1" fill="none" fill-rule="evenodd">
        <g id="Media">
            <rect id="Rectangle-12" stroke="#FFFFFF" fill-rule="nonzero" x="0.5" y="0.5" width="23" height="23" rx="5"></rect>
            <path d="M10.7050781,15.9453125 L7.75195312,9.75195312 L7.75195312,13.859375 C7.75195312,14.2265643 7.7773435,14.4970694 7.828125,14.6708984 C7.8789065,14.8447274 7.99706938,14.9921869 8.18261719,15.1132812 C8.36816499,15.2343756 8.59374867,15.2949219 8.859375,15.2949219 L8.859375,15.9453125 L6,15.9453125 L6,15.2949219 C6.25000125,15.2949219 6.46679596,15.2294928 6.65039062,15.0986328 C6.83398529,14.9677728 6.94628886,14.8173837 6.98730469,14.6474609 C7.02832052,14.4775382 7.04882812,14.20508 7.04882812,13.8300781 L7.04882812,9.65234375 C7.04882812,9.25390426 6.97949288,8.98730536 6.84082031,8.85253906 C6.70214774,8.71777276 6.42187711,8.65039062 6,8.65039062 L6,8 L9.18164062,8 L11.6308594,13.2207031 L14.1035156,8 L17.296875,8 L17.296875,8.65039062 L17.1386719,8.65039062 C16.7402324,8.65039062 16.4814459,8.72363208 16.3623047,8.87011719 C16.2431635,9.01660229 16.1835938,9.26757635 16.1835938,9.62304688 L16.1835938,14.3222656 C16.1835938,14.6855487 16.2451166,14.9384758 16.3681641,15.0810547 C16.4912116,15.2236335 16.7480449,15.2949219 17.1386719,15.2949219 L17.3203125,15.2949219 L17.3203125,15.9453125 L12.9960938,15.9453125 L12.9960938,15.2949219 L13.1542969,15.2949219 C13.5488301,15.2949219 13.8056635,15.2216804 13.9248047,15.0751953 C14.0439459,14.9287102 14.1035156,14.6777362 14.1035156,14.3222656 L14.1035156,9.65234375 L11.1621094,15.9453125 L10.7050781,15.9453125 Z" id="M" fill="#FFFFFF"></path>
        </g>
    </g>
</svg>