<svg xmlns="http://www.w3.org/2000/svg" xmlns:xlink="http://www.w3.org/1999/xlink" viewBox="0 0 1640.42 1161.82"><defs><style>.cls-1,.cls-19{fill:none;}.cls-2{stroke:#fff;stroke-width:7px;fill:url(#Безымянный_градиент_329);}.cls-19,.cls-2,.cls-40,.cls-52{stroke-miterlimit:10;}.cls-3{fill:#63e5db;}.cls-3,.cls-7{opacity:0.2;}.cls-4{fill:url(#Безымянный_градиент_251);}.cls-5{opacity:0.4;}.cls-52,.cls-6{fill:#fff;}.cls-8{opacity:0.5;}.cls-9{fill:url(#Безымянный_градиент_269);}.cls-10{fill:#1d3849;opacity:0.3;}.cls-11{fill:url(#Безымянный_градиент_311);}.cls-12{fill:url(#Безымянный_градиент_311-2);}.cls-13{opacity:0.7;}.cls-14{fill:url(#Безымянный_градиент_311-3);}.cls-15{fill:url(#Безымянный_градиент_311-4);}.cls-16{fill:#d7f6ff;}.cls-17{fill:#aedeed;}.cls-18{fill:#88c2d4;}.cls-19{stroke:#62a7b7;}.cls-19,.cls-40{stroke-linecap:round;stroke-width:2px;}.cls-20{fill:#80ccdd;}.cls-21{fill:#74b3c1;}.cls-22{fill:#609eba;}.cls-23{fill:#6eaec4;}.cls-24{fill:#4ea7c6;}.cls-25{clip-path:url(#clip-path);}.cls-26{fill:url(#Безымянный_градиент_346);}.cls-27{fill:url(#Безымянный_градиент_342);}.cls-28{fill:#e7ffd9;}.cls-29{fill:#b8ffb0;}.cls-30{fill:url(#Безымянный_градиент_342-2);}.cls-31{fill:#54b1f7;}.cls-32{fill:#feffcc;}.cls-33{fill:url(#Безымянный_градиент_346-2);}.cls-34{fill:#e50a82;}.cls-34,.cls-38{opacity:0.8;}.cls-35{fill:#fcea81;}.cls-36{fill:#cffff2;}.cls-37{fill:url(#Безымянный_градиент_342-3);}.cls-38{fill:#ed4082;}.cls-39{clip-path:url(#clip-path-2);}.cls-40{fill:#9e3c65;stroke:#9c3d67;}.cls-41{fill:url(#Безымянный_градиент_342-4);}.cls-42{fill:url(#Безымянный_градиент_342-5);}.cls-43{fill:url(#Безымянный_градиент_346-3);}.cls-44{fill:url(#Безымянный_градиент_346-4);}.cls-45{fill:url(#Безымянный_градиент_342-6);}.cls-46{clip-path:url(#clip-path-3);}.cls-47{fill:url(#Безымянный_градиент_342-7);}.cls-48{fill:url(#Безымянный_градиент_342-8);}.cls-49{fill:url(#Безымянный_градиент_346-5);}.cls-50{fill:url(#Безымянный_градиент_346-6);}.cls-51{fill:url(#Безымянный_градиент_342-9);}.cls-52{stroke:#d3d3d3;stroke-width:0.5px;}.cls-53{fill:url(#Безымянный_градиент_311-5);}</style><linearGradient id="Безымянный_градиент_329" x1="3.5" y1="675.12" x2="1306.19" y2="675.12" gradientUnits="userSpaceOnUse"><stop offset="0" stop-color="#a6e4ff"/><stop offset="0.1" stop-color="#a6e4ff"/><stop offset="1" stop-color="#a6e4ff"/></linearGradient><linearGradient id="Безымянный_градиент_251" x1="166.37" y1="573.78" x2="1393.46" y2="573.78" gradientUnits="userSpaceOnUse"><stop offset="0" stop-color="#f9c7e5"/><stop offset="1" stop-color="#f95ab9"/></linearGradient><linearGradient id="Безымянный_градиент_269" x1="605.91" y1="364.63" x2="2034.44" y2="1665.09" gradientUnits="userSpaceOnUse"><stop offset="0" stop-color="#45c4ff"/><stop offset="0.03" stop-color="#53c8ff"/><stop offset="0.15" stop-color="#7ed6ff"/><stop offset="0.26" stop-color="#a4e2ff"/><stop offset="0.39" stop-color="#c2ebff"/><stop offset="0.52" stop-color="#d9f3ff"/><stop offset="0.65" stop-color="#eaf8ff"/><stop offset="0.8" stop-color="#f4fbff"/><stop offset="1" stop-color="#f7fcff"/></linearGradient><linearGradient id="Безымянный_градиент_311" x1="737.3" y1="1428.69" x2="945.41" y2="364.12" gradientUnits="userSpaceOnUse"><stop offset="0" stop-color="#45c4ff"/><stop offset="0.06" stop-color="#41b9f1"/><stop offset="0.22" stop-color="#39a2d3"/><stop offset="0.38" stop-color="#3391bc"/><stop offset="0.56" stop-color="#2e84ab"/><stop offset="0.75" stop-color="#2c7ca1"/><stop offset="1" stop-color="#2b7a9e"/></linearGradient><linearGradient id="Безымянный_градиент_311-2" x1="737.3" y1="1428.7" x2="945.41" y2="364.12" xlink:href="#Безымянный_градиент_311"/><linearGradient id="Безымянный_градиент_311-3" x1="850.52" y1="927.06" x2="834.42" y2="701.71" xlink:href="#Безымянный_градиент_311"/><linearGradient id="Безымянный_градиент_311-4" x1="966.02" y1="952.19" x2="749.08" y2="199.76" xlink:href="#Безымянный_градиент_311"/><clipPath id="clip-path"><polygon class="cls-1" points="631.4 323.12 700.48 326.56 697.05 365.8 707.27 349.44 767.3 383.86 725.75 450.44 665.71 416.02 673.37 403.75 624.53 401.31 631.4 323.12"/></clipPath><linearGradient id="Безымянный_градиент_346" x1="457.17" y1="451.82" x2="875.25" y2="451.82" gradientUnits="userSpaceOnUse"><stop offset="0" stop-color="#4a4689"/><stop offset="0.25" stop-color="#724694"/><stop offset="0.82" stop-color="#d546af"/><stop offset="1" stop-color="#f746b8"/></linearGradient><linearGradient id="Безымянный_градиент_342" x1="645.28" y1="644.94" x2="687.27" y2="326.9" gradientUnits="userSpaceOnUse"><stop offset="0" stop-color="#ff94d6"/><stop offset="0.47" stop-color="#ffa7af"/><stop offset="1" stop-color="#ffbe7d"/></linearGradient><linearGradient id="Безымянный_градиент_342-2" x1="966.03" y1="547.75" x2="1206.29" y2="292.55" xlink:href="#Безымянный_градиент_342"/><linearGradient id="Безымянный_градиент_346-2" x1="477.25" y1="472.32" x2="564.25" y2="472.32" xlink:href="#Безымянный_градиент_346"/><linearGradient id="Безымянный_градиент_342-3" x1="1009.11" y1="489.87" x2="1062.84" y2="432.79" xlink:href="#Безымянный_градиент_342"/><clipPath id="clip-path-2"><polygon class="cls-1" points="1040.65 358.7 1040.87 359.09 973.25 395.27 1006.98 454.89 1074.42 418.81 1074.54 419.03 1144.36 383.18 1110.47 322.84 1040.65 358.7"/></clipPath><linearGradient id="Безымянный_градиент_342-4" x1="646.28" y1="641.94" x2="688.27" y2="323.9" xlink:href="#Безымянный_градиент_342"/><linearGradient id="Безымянный_градиент_342-5" x1="967.03" y1="544.75" x2="1207.28" y2="289.55" xlink:href="#Безымянный_градиент_342"/><linearGradient id="Безымянный_градиент_346-3" x1="458.17" y1="448.82" x2="876.25" y2="448.82" xlink:href="#Безымянный_градиент_346"/><linearGradient id="Безымянный_градиент_346-4" x1="478.25" y1="469.32" x2="565.25" y2="469.32" xlink:href="#Безымянный_градиент_346"/><linearGradient id="Безымянный_градиент_342-6" x1="1010.11" y1="486.87" x2="1063.84" y2="429.79" xlink:href="#Безымянный_градиент_342"/><clipPath id="clip-path-3"><polygon class="cls-1" points="1246.9 377.13 1215.16 388.09 1238.71 313.73 1172 295.32 1148.31 370.15 1214.34 388.37 1172.71 402.75 1197.72 467.27 1271.91 441.66 1246.9 377.13"/></clipPath><linearGradient id="Безымянный_градиент_342-7" x1="646.28" y1="644.94" x2="688.27" y2="326.9" xlink:href="#Безымянный_градиент_342"/><linearGradient id="Безымянный_градиент_342-8" x1="967.03" y1="547.76" x2="1207.29" y2="292.55" xlink:href="#Безымянный_градиент_342"/><linearGradient id="Безымянный_градиент_346-5" x1="458.17" y1="451.82" x2="876.25" y2="451.82" xlink:href="#Безымянный_градиент_346"/><linearGradient id="Безымянный_градиент_346-6" x1="478.25" y1="472.32" x2="565.25" y2="472.32" xlink:href="#Безымянный_градиент_346"/><linearGradient id="Безымянный_градиент_342-9" x1="1010.11" y1="489.87" x2="1063.84" y2="432.79" xlink:href="#Безымянный_градиент_342"/><linearGradient id="Безымянный_градиент_311-5" x1="1201" y1="868.13" x2="362.84" y2="888.49" gradientTransform="translate(28.85 -37.53) rotate(2.59)" xlink:href="#Безымянный_градиент_311"/></defs><title>Background_1</title><g id="Слой_2" data-name="Слой 2"><g id="Слой_1-2" data-name="Слой 1"><path class="cls-2" d="M1306.19,731.34c-263.14,171.82-542.91,245.4-722.87,274.09C373,1039,56.1,923.34,13.25,729.82c-58-262,147.37-483.73,490.6-351.21"/><path class="cls-3" d="M848.06,132c107.19-208.15,641.19-163.15,730.56,86.25,79.46,221.79-76.83,362.34-352.83,542.56"/><path class="cls-4" d="M1137,593.66C925.33,613.2,832.57,664.6,715.66,858.29s-424.67,234-511,55.45C146,792.34,154.19,644.31,232.88,511q6.1-10.34,12.78-20.56C271.41,451,303.5,413.05,342,377.73h0q19.71-18.08,41.66-35.16,3.69-2.88,7.45-5.72C520,239.35,676.23,179,813.66,147.43q13.11-3,26-5.69,12-2.49,23.69-4.66,10.06-1.91,19.94-3.56s0,0,0,0c63.55-10.75,120.65-14.94,165.85-13.58,130.49,3.93,327.07,70.06,342.29,194.63C1405.6,430.77,1348.76,574.12,1137,593.66Z"/><g class="cls-5"><path class="cls-6" d="M246,635.55a385.68,385.68,0,0,1-58.14,142.68l-13.33-8.85a369.72,369.72,0,0,0,55.75-136.79A369.72,369.72,0,0,0,232.88,511q6.1-10.34,12.78-20.56A386.68,386.68,0,0,1,246,635.55Z"/></g><g class="cls-5"><path class="cls-6" d="M317.2,491a369.79,369.79,0,0,0,0,147.72l-15.69,3.16A386.79,386.79,0,0,1,342,377.73h0q19.71-18.08,41.66-35.16-6.09,8.18-11.76,16.71A370.72,370.72,0,0,0,317.2,491Z"/></g><g class="cls-7"><path class="cls-6" d="M839.63,141.74c-2.41,2.64-4.76,5.32-7.07,8a375.47,375.47,0,0,0-77,145.63,368.16,368.16,0,0,0-5.34,170.24l-15.68,3.16a384,384,0,0,1,5.57-177.57,391.86,391.86,0,0,1,73.58-143.78Q826.77,144.4,839.63,141.74Z"/></g><g class="cls-8"><path class="cls-6" d="M1007.25,417.82h-16A371,371,0,0,0,868,141.19q-2.3-2.07-4.64-4.11,10.06-1.91,19.94-3.56s0,0,0,0a386.88,386.88,0,0,1,124,284.3Z"/></g><path class="cls-9" d="M556.1,1158.32c-20.22,0-39.53-.65-57.38-1.94C410,1150,318,1122.52,246.48,1081c-59.28-34.43-132.86-95.11-146.69-188.64-6-40.78-4.82-82.57,3.48-120.85,9.5-43.78,27.8-82.42,54.41-114.86,25.72-31.36,59-56.46,98.88-74.59,44-20,96.55-31.67,156.11-34.66,144.87-7.29,235.58-27.9,313.1-71.12,80.13-44.69,149.06-116.14,230.46-238.89a388.27,388.27,0,0,1,150-132.29A415.43,415.43,0,0,1,1291.11,61.6c65.54,0,127.85,15.6,180.19,45.12,55.57,31.34,97.81,77.57,122.17,133.7,25.18,58.06,39.57,117.24,42.77,175.92a461.78,461.78,0,0,1-24.81,176.29c-20.27,58.84-52.68,115.77-96.31,169.23-45.21,55.37-102.91,107.51-171.49,155-60.6,41.92-128.53,79.63-201.91,112.09a1518.08,1518.08,0,0,1-211,74.74C802.34,1138.9,669.31,1158.32,556.1,1158.32Z"/><path class="cls-6" d="M1291.11,65.1c127.61,0,248.6,60.21,299.14,176.72,99.64,229.66,30.87,478.76-248.61,672.12-254,175.71-582.53,240.88-785.54,240.88-20.39,0-39.48-.66-57.13-1.93-164.65-11.82-372-101-395.72-261.07-21-142,41.08-327.45,309.59-341s388.41-73.46,546.3-311.57c77.81-117.32,208-174.18,332-174.19m0-7h0a419.15,419.15,0,0,0-186.42,43.84,396.22,396.22,0,0,0-82.88,55.36,387.1,387.1,0,0,0-68.5,78.12C872.24,357.68,803.68,428.79,724.06,473.19c-40,22.31-84.58,38.64-136.28,49.94-48.41,10.57-104.1,17.16-175.29,20.74-60,3-112.94,14.79-157.38,35C214.73,597.2,181,622.62,155,654.4c-27,32.87-45.5,72-55.12,116.33-8.39,38.7-9.61,80.92-3.52,122.11C107.44,968,158.75,1034.06,244.73,1084c72,41.81,164.48,69.47,253.73,75.87,17.95,1.29,37.34,2,57.64,2,53.56,0,112-4.38,173.64-13A1602.82,1602.82,0,0,0,931.61,1107a1520.64,1520.64,0,0,0,211.52-74.91c73.58-32.54,141.71-70.36,202.49-112.42,68.85-47.63,126.79-100,172.21-155.62,43.9-53.77,76.5-111.07,96.91-170.3a465.32,465.32,0,0,0,25-177.62c-3.22-59.09-17.7-118.68-43-177.12a278.37,278.37,0,0,0-51.41-78.73A297.39,297.39,0,0,0,1473,103.68c-52.86-29.82-115.76-45.58-181.89-45.58Z"/><rect class="cls-10" x="778.55" y="853.47" width="163" height="22.35" transform="translate(17.5 -17.06) rotate(1.15)"/><path class="cls-10" d="M979.33,904.27l-242.75-15c-9.38-.42-16.64-4.37-16.22-13.75h0a17,17,0,0,1,17.75-16.21l242.76,11a17,17,0,0,1,16.21,17.75h0A17,17,0,0,1,979.33,904.27Z"/><path class="cls-11" d="M1590.25,241.82a270.53,270.53,0,0,0-50-76.64c-17.63,101.36-102.76,206.2-272.48,271.14-311,119-62,559-424,549-290-8-513.85-75.05-724.07-38.19,57.14,125.32,234.69,195.38,379.29,205.76,193.44,13.89,563.19-45.59,842.67-239S1689.89,471.48,1590.25,241.82Z"/><path class="cls-12" d="M1602.14,607.86q-4,10.32-8.46,20.58h0c-40.35,92.2-112,180.77-217.83,260.75q-9.4,7.11-19.16,14.12-7.43,5.34-15,10.62c-115,79.55-245.26,136.45-372.25,174.9q-7.7,2.33-15.38,4.56c-166.8,48.67-326.61,65.65-437,60.56q-8.7-.4-17-1l-1-.07a621.33,621.33,0,0,1-126.15-22.74q-8.79-2.55-17.51-5.34c-102.09-32.7-196.74-92.4-235.63-177.69,41.81-7.33,84.16-10.56,127.46-11q11.44-.09,23,.05c117.93,1.52,243.35,22,384.39,36.27q13.62,1.38,27.44,2.67c51.71,4.81,105.52,8.6,161.83,10.15,33.68.93,62.07-2,86.1-8.27q8.24-2.13,15.79-4.78c210.52-73.3,46.64-430.55,322.11-535.95Q1294,426.27,1317.62,415q7.8-3.72,15.3-7.56c69.86-35.72,121.09-79.14,155.55-125.56q4.85-6.53,9.25-13.13c22.53-33.77,36.47-68.86,42.51-103.55a270.81,270.81,0,0,1,50,76.64c22.68,52.29,36.64,105.58,41.37,159q1.59,18.14,1.78,36.28A459.85,459.85,0,0,1,1602.14,607.86Z"/><g class="cls-5"><path class="cls-6" d="M372.81,1130.16q-8.79-2.55-17.51-5.34a370.36,370.36,0,0,0-52.44-122.67,368,368,0,0,0-55.73-66q11.44-.09,23,.05a384.89,384.89,0,0,1,46.12,57.09A386.49,386.49,0,0,1,372.81,1130.16Z"/></g><g class="cls-5"><path class="cls-6" d="M681.92,975.17a366.7,366.7,0,0,0-33.84,20.56A374.2,374.2,0,0,0,517,1154q-8.7-.4-17-1A390.06,390.06,0,0,1,639.06,982.51q7.61-5.19,15.42-10Q668.1,973.88,681.92,975.17Z"/></g><g class="cls-13"><polygon class="cls-6" points="1071.54 419.03 1037.65 358.7 1107.47 322.84 1141.37 383.18 1071.54 419.03"/></g><g class="cls-13"><polygon class="cls-6" points="1194.72 464.27 1169.71 399.75 1243.9 374.13 1268.91 438.66 1194.72 464.27"/></g><g class="cls-7"><path class="cls-6" d="M1602.14,607.86q-4,10.32-8.46,20.58h0a371.14,371.14,0,0,0-164.74,136.81,370.85,370.85,0,0,0-53.09,123.94q-9.4,7.11-19.16,14.12.86-4.8,1.83-9.59a387.84,387.84,0,0,1,243.62-285.87Z"/></g><g class="cls-13"><polygon class="cls-6" points="1212.01 385.56 1145.31 367.15 1169 292.32 1235.71 310.73 1212.01 385.56"/></g><g class="cls-8"><path class="cls-6" d="M1633.4,437.1a374.18,374.18,0,0,0-144.93-155.24q4.85-6.53,9.25-13.13a390.77,390.77,0,0,1,133.9,132.09Q1633.21,419,1633.4,437.1Z"/></g><g class="cls-5"><path class="cls-6" d="M1310.79,586.08a386.8,386.8,0,0,1-202.3,217.4l-6.65-14.56a372.43,372.43,0,0,0,217.33-349.11q-.36-12.48-1.55-24.83,7.8-3.72,15.3-7.56,1.78,15.85,2.24,31.93A386.61,386.61,0,0,1,1310.79,586.08Z"/></g><g class="cls-5"><path class="cls-6" d="M969.39,1088.84q-7.7,2.33-15.38,4.56a392.65,392.65,0,0,1-24.16-116.35q8.24-2.13,15.79-4.78a376.34,376.34,0,0,0,23.75,116.57Z"/></g><path class="cls-10" d="M1309,868.68,429.15,836.91a17.09,17.09,0,0,1-16.48-17.08v-510a17.09,17.09,0,0,1,16.48-17.08L1309,261A17.09,17.09,0,0,1,1326.67,278V851.59A17.09,17.09,0,0,1,1309,868.68Z"/><path class="cls-14" d="M926.35,833.22v29a17,17,0,0,1-17,17l-129-.08a17,17,0,0,1-17-17v-29a17,17,0,0,1,17-17l129,.1A17,17,0,0,1,926.35,833.22Z"/><path class="cls-10" d="M926.35,833.22v12.64l-163-5.88v-6.87a17,17,0,0,1,17-17l129,.1A17,17,0,0,1,926.35,833.22Z"/><path class="cls-15" d="M1285.48,847.77,400.8,815.83a14.67,14.67,0,0,1-14.13-14.65V297.57a26.19,26.19,0,0,1,25.24-26.17l873.57-31.54a14.66,14.66,0,0,1,15.19,14.65V833.12A14.66,14.66,0,0,1,1285.48,847.77Z"/><path class="cls-16" d="M1284.17,267.26V820.38a13.44,13.44,0,0,1-13.94,13.42L917,820.63,424.17,802.25l-12.07-.45a13.43,13.43,0,0,1-12.93-13.42V299.26a13.43,13.43,0,0,1,12.93-13.42l858.13-32A13.44,13.44,0,0,1,1284.17,267.26Z"/><g class="cls-8"><path class="cls-17" d="M1247.56,809.81l-289-7.13c-2.43-.25-4.36-5.65-4.36-12.22V301.19c0-6.58,1.93-12,4.36-12.23l289-7.13c2.56-.25,4.69,5.29,4.69,12.23V797.59C1252.25,804.52,1250.12,810.07,1247.56,809.81Z"/><path class="cls-17" d="M909.27,616.81,431.37,611a7.48,7.48,0,0,1-7.2-7.48V312.13a7.48,7.48,0,0,1,7.2-7.48l477.9-10.82a7.49,7.49,0,0,1,7.76,7.48v308A7.48,7.48,0,0,1,909.27,616.81Z"/><path class="cls-17" d="M917,648.31V820.63l-22.14-.83-194.09-7.23L424.17,802.25V644c0-3.39,3.18-6.17,7.2-6.29L909.26,642C913.5,641.88,917,644.74,917,648.31Z"/><path class="cls-18" d="M1224.29,497.81l-244.35-2.59a4.2,4.2,0,0,1-3.69-4.44V314.87a4.2,4.2,0,0,1,3.69-4.45l244.35-4.59c2.16-.09,4,1.92,4,4.44v183.1C1228.25,495.89,1226.45,497.91,1224.29,497.81Z"/><path class="cls-18" d="M1224.29,651.81l-244.35-5.87a3.53,3.53,0,0,1-3.69-3.21V514.63a3.55,3.55,0,0,1,3.69-3.21l244.35,1.74c2.16-.06,4,1.39,4,3.21V648.6C1228.25,650.42,1226.45,651.88,1224.29,651.81Z"/><line class="cls-19" x1="1215.9" y1="313.82" x2="1207.25" y2="322.4"/><line class="cls-19" x1="1215.71" y1="322.58" x2="1207.25" y2="314.29"/><line class="cls-19" x1="1218.25" y1="521.06" x2="1209.61" y2="529.64"/><line class="cls-19" x1="1218.06" y1="529.82" x2="1209.61" y2="521.53"/><path class="cls-18" d="M1224.29,794.81l-244.35-7.23c-2.06-.06-3.69-1.36-3.69-3V665.77c0-1.59,1.63-2.89,3.69-2.95l244.35,4.59c2.16-.06,4,1.28,4,3v121.5C1228.25,793.54,1226.45,794.88,1224.29,794.81Z"/><line class="cls-19" x1="1218.25" y1="675.62" x2="1209.61" y2="684.21"/><line class="cls-19" x1="1218.06" y1="684.38" x2="1209.61" y2="676.1"/><path class="cls-20" d="M869.67,588.81l-405.39-4.94a6.34,6.34,0,0,1-6.11-6.34V330.35a6.35,6.35,0,0,1,6.11-6.34l405.39-9.18a6.34,6.34,0,0,1,6.58,6.34v261.3A6.34,6.34,0,0,1,869.67,588.81Z"/><path class="cls-18" d="M446.91,654.36l188.87,1.48a4.5,4.5,0,0,1-.07,9h-.05l-188.85-3.48a3.5,3.5,0,0,1,.1-7Z"/><path class="cls-18" d="M446.32,676.37l188.87,1.47a4.5,4.5,0,1,1-.07,9h0l-188.84-3.47a3.5,3.5,0,0,1,.09-7Z"/><path class="cls-18" d="M446.32,721.37l123,.61a4.5,4.5,0,0,1,0,9h-.08l-123-2.61a3.5,3.5,0,0,1,.09-7Z"/><path class="cls-18" d="M705.92,655.36l188.86,2.48a4.5,4.5,0,1,1-.12,9L705.8,664.36a4.5,4.5,0,0,1,.12-9Z"/><path class="cls-18" d="M705.33,677.37l188.86,2.47a4.5,4.5,0,1,1-.12,9l-188.86-2.47a4.5,4.5,0,0,1,.12-9Z"/><path class="cls-18" d="M705.16,700.37,894,702.84a4.5,4.5,0,1,1-.12,9L705,709.37a4.5,4.5,0,0,1,.12-9Z"/><path class="cls-18" d="M705.33,722.37l189,2.48a4.5,4.5,0,0,1-.12,9l-189-2.48a4.5,4.5,0,0,1,.12-9Z"/><path class="cls-18" d="M446.14,761.37,635,762.84a4.5,4.5,0,0,1-.07,9h-.05l-188.85-3.47a3.5,3.5,0,0,1,.09-7Z"/><path class="cls-18" d="M446.14,781.37,635,782.84a4.5,4.5,0,0,1-.07,9h-.05l-188.85-3.47a3.5,3.5,0,0,1,.09-7Z"/><path class="cls-21" d="M705.33,764.37l120,1.57a4.5,4.5,0,1,1-.12,9l-120-1.57a4.5,4.5,0,0,1,.12-9Z"/><path class="cls-18" d="M705.16,786.37,894,788.84a4.5,4.5,0,1,1-.12,9L705,795.37a4.5,4.5,0,0,1,.12-9Z"/><path class="cls-18" d="M898.76,815.41a4.51,4.51,0,0,1-3.88,4.39l-194.09-7.23a4.48,4.48,0,0,1,4.54-4.2l189,2.48A4.5,4.5,0,0,1,898.76,815.41Z"/><path class="cls-22" d="M480.78,335.38l188.85-3.06a6.5,6.5,0,0,1,.21,13h0l-188.87,2.06a6,6,0,0,1-.16-12Z"/><path class="cls-23" d="M481.85,366.68l369.4.2a5.5,5.5,0,0,1,0,11l-369.41-.2a5.5,5.5,0,0,1,0-11Z"/><path class="cls-23" d="M481.25,388.69l369.41.2a5.5,5.5,0,0,1,0,11l-369.4-.2a5.5,5.5,0,0,1,0-11Z"/><path class="cls-23" d="M481.49,411.69l369.4.2a5.5,5.5,0,0,1,0,11l-369.41-.2a5.5,5.5,0,0,1,0-11Z"/><path class="cls-23" d="M482.49,433.69l274.76.15a5.5,5.5,0,0,1,0,11l-274.77-.15a5.5,5.5,0,0,1,0-11Z"/><rect class="cls-24" x="478.25" y="460.82" width="87" height="23" rx="9.27" ry="9.27"/></g><g class="cls-25"><g class="cls-13"><path class="cls-26" d="M868.67,314.83,463.28,324a6.35,6.35,0,0,0-6.11,6.34V577.53a6.34,6.34,0,0,0,6.11,6.34l405.39,4.94a6.34,6.34,0,0,0,6.58-6.34V321.17A6.34,6.34,0,0,0,868.67,314.83ZM479.78,335.38l188.85-3.06a6.5,6.5,0,0,1,.21,13h0l-188.87,2.06a6,6,0,0,1-.16-12Zm84.47,139.17a9.27,9.27,0,0,1-9.26,9.27H486.52a9.27,9.27,0,0,1-9.27-9.27v-4.47a9.27,9.27,0,0,1,9.27-9.26H555a9.27,9.27,0,0,1,9.26,9.26Zm192-29.71-274.77-.15a5.5,5.5,0,0,1,0-11l274.76.15a5.5,5.5,0,0,1,0,11Zm93.64-21.95-369.41-.2a5.5,5.5,0,0,1,0-11l369.4.2a5.5,5.5,0,0,1,0,11Zm-375.14-28.7a5.5,5.5,0,0,1,5.5-5.5l369.41.2a5.5,5.5,0,0,1,0,11l-369.4-.2A5.5,5.5,0,0,1,474.75,394.19Zm375.5-16.31-369.41-.2a5.5,5.5,0,0,1,0-11l369.4.2a5.5,5.5,0,0,1,0,11Z"/></g><path class="cls-27" d="M908.27,293.83l-477.9,10.82a7.48,7.48,0,0,0-7.2,7.48V603.51a7.48,7.48,0,0,0,7.2,7.48l477.9,5.82a7.48,7.48,0,0,0,7.76-7.48v-308A7.49,7.49,0,0,0,908.27,293.83Zm-33,288.64a6.34,6.34,0,0,1-6.58,6.34l-405.39-4.94a6.34,6.34,0,0,1-6.11-6.34V330.35a6.35,6.35,0,0,1,6.11-6.34l405.39-9.18a6.34,6.34,0,0,1,6.58,6.34Z"/><path class="cls-28" d="M1269.23,253.84l-858.13,32a13.43,13.43,0,0,0-12.93,13.42V788.38A13.43,13.43,0,0,0,411.1,801.8l12.07.45L916,820.63l353.21,13.17a13.44,13.44,0,0,0,13.94-13.42V267.26A13.44,13.44,0,0,0,1269.23,253.84ZM916,609.33a7.48,7.48,0,0,1-7.76,7.48L430.37,611a7.48,7.48,0,0,1-7.2-7.48V312.13a7.48,7.48,0,0,1,7.2-7.48l477.9-10.82a7.49,7.49,0,0,1,7.76,7.48Zm335.22,188.26c0,6.93-2.13,12.48-4.69,12.22l-289-7.13c-2.43-.25-4.36-5.65-4.36-12.22V301.19c0-6.58,1.93-12,4.36-12.23l289-7.13c2.56-.25,4.69,5.29,4.69,12.23Z"/><path class="cls-29" d="M1246.56,281.83l-289,7.13c-2.43.25-4.36,5.65-4.36,12.23V790.46c0,6.57,1.93,12,4.36,12.22l289,7.13c2.56.26,4.69-5.29,4.69-12.22V294.06C1251.25,287.12,1249.12,281.58,1246.56,281.83Zm-19.31,211.54c0,2.52-1.8,4.54-4,4.44l-244.35-2.59a4.2,4.2,0,0,1-3.69-4.44V314.87a4.2,4.2,0,0,1,3.69-4.45l244.35-4.59c2.16-.09,4,1.92,4,4.44Z"/><path class="cls-30" d="M1223.29,305.83l-244.35,4.59a4.2,4.2,0,0,0-3.69,4.45V490.78a4.2,4.2,0,0,0,3.69,4.44l244.35,2.59c2.16.1,4-1.92,4-4.44V310.27C1227.25,307.75,1225.45,305.74,1223.29,305.83ZM998.78,324.71,1102,323a6.5,6.5,0,0,1,.22,13h-.06l-103.23.72a6,6,0,0,1-.14-12Zm84.47,134.84a9.27,9.27,0,0,1-9.26,9.27h-68.47a9.27,9.27,0,0,1-9.27-9.27v-4.47a9.27,9.27,0,0,1,9.27-9.26H1074a9.27,9.27,0,0,1,9.26,9.26Zm66.63-29.71-150.14-.15a5.5,5.5,0,0,1,0-11l150.15.15a5.5,5.5,0,0,1,0,11Zm51.17-21.95-201.85-.2a5.5,5.5,0,1,1,0-11l201.85.2a5.5,5.5,0,1,1,0,11Zm-207.48-28.7a5.51,5.51,0,0,1,5.51-5.5l201.85.2a5.5,5.5,0,1,1,0,11l-201.85-.2A5.5,5.5,0,0,1,993.57,379.19Zm207.68-16.31-201.86-.2a5.5,5.5,0,0,1,0-11l201.85.2a5.5,5.5,0,0,1,0,11Z"/><path class="cls-31" d="M479.94,347.38l188.87-2.06h0a6.5,6.5,0,0,0-.21-13l-188.85,3.06a6,6,0,0,0,.16,12Z"/><path class="cls-32" d="M850.25,366.88l-369.4-.2a5.5,5.5,0,0,0,0,11l369.41.2a5.5,5.5,0,0,0,0-11Z"/><path class="cls-32" d="M480.25,399.69l369.4.2a5.5,5.5,0,0,0,0-11l-369.41-.2a5.5,5.5,0,0,0,0,11Z"/><path class="cls-32" d="M849.89,411.89l-369.4-.2a5.5,5.5,0,0,0,0,11l369.41.2a5.5,5.5,0,0,0,0-11Z"/><path class="cls-32" d="M756.25,433.84l-274.76-.15a5.5,5.5,0,0,0,0,11l274.77.15a5.5,5.5,0,0,0,0-11Z"/><g class="cls-13"><rect class="cls-33" x="477.25" y="460.82" width="87" height="23" rx="9.27" ry="9.27"/></g><rect class="cls-34" x="477.25" y="460.82" width="87" height="23" rx="9.27" ry="9.27"/><path class="cls-35" d="M998.92,336.71l103.23-.72h.06a6.5,6.5,0,0,0-.22-13l-103.21,1.72a6,6,0,0,0,.14,12Z"/><path class="cls-36" d="M1201.26,351.88l-201.85-.2a5.5,5.5,0,0,0,0,11l201.86.2a5.5,5.5,0,0,0,0-11Z"/><path class="cls-36" d="M999.07,384.69l201.85.2a5.5,5.5,0,1,0,0-11l-201.85-.2a5.5,5.5,0,1,0,0,11Z"/><path class="cls-36" d="M1201.06,396.89l-201.85-.2a5.5,5.5,0,1,0,0,11l201.85.2a5.5,5.5,0,1,0,0-11Z"/><path class="cls-36" d="M1149.9,418.84l-150.15-.15a5.5,5.5,0,0,0,0,11l150.14.15a5.5,5.5,0,0,0,0-11Z"/><rect class="cls-37" x="996.25" y="445.82" width="87" height="23" rx="9.27" ry="9.27"/><rect class="cls-38" x="996.25" y="445.82" width="87" height="23" rx="9.27" ry="9.27"/></g><g class="cls-39"><path class="cls-17" d="M917,645.31V817.63l-22.14-.83-194.09-7.23L424.17,799.25V641c0-3.39,3.18-6.17,7.2-6.29L909.26,639C913.5,638.88,917,641.74,917,645.31Z"/><path class="cls-18" d="M1224.29,648.81l-244.35-5.87a3.53,3.53,0,0,1-3.69-3.21V511.63a3.55,3.55,0,0,1,3.69-3.21l244.35,1.74c2.16-.06,4,1.39,4,3.21V645.6C1228.25,647.42,1226.45,648.88,1224.29,648.81Z"/><line class="cls-40" x1="1215.9" y1="310.82" x2="1207.25" y2="319.4"/><line class="cls-40" x1="1215.71" y1="319.58" x2="1207.25" y2="311.29"/><line class="cls-19" x1="1218.25" y1="518.06" x2="1209.61" y2="526.64"/><line class="cls-19" x1="1218.06" y1="526.82" x2="1209.61" y2="518.53"/><path class="cls-18" d="M1224.29,791.81l-244.35-7.23c-2.06-.06-3.69-1.36-3.69-3V662.77c0-1.59,1.63-2.89,3.69-2.95l244.35,4.59c2.16-.06,4,1.28,4,3v121.5C1228.25,790.54,1226.45,791.88,1224.29,791.81Z"/><line class="cls-19" x1="1218.25" y1="672.62" x2="1209.61" y2="681.21"/><line class="cls-19" x1="1218.06" y1="681.38" x2="1209.61" y2="673.1"/><path class="cls-18" d="M446.91,651.36l188.87,1.48a4.5,4.5,0,0,1-.07,9h-.05l-188.85-3.48a3.5,3.5,0,0,1,.1-7Z"/><path class="cls-18" d="M446.32,673.37l188.87,1.47a4.5,4.5,0,1,1-.07,9h0l-188.84-3.47a3.5,3.5,0,0,1,.09-7Z"/><path class="cls-18" d="M446.14,696.37,635,697.84a4.5,4.5,0,0,1-.07,9h-.05l-188.85-3.47a3.5,3.5,0,0,1,.09-7Z"/><path class="cls-18" d="M446.32,718.37l123,.61a4.5,4.5,0,0,1,0,9h-.08l-123-2.61a3.5,3.5,0,0,1,.09-7Z"/><path class="cls-18" d="M705.92,652.36l188.86,2.48a4.5,4.5,0,1,1-.12,9L705.8,661.36a4.5,4.5,0,0,1,.12-9Z"/><path class="cls-18" d="M705.33,674.37l188.86,2.47a4.5,4.5,0,1,1-.12,9l-188.86-2.47a4.5,4.5,0,0,1,.12-9Z"/><path class="cls-18" d="M705.16,697.37,894,699.84a4.5,4.5,0,1,1-.12,9L705,706.37a4.5,4.5,0,0,1,.12-9Z"/><path class="cls-18" d="M705.33,719.37l189,2.48a4.5,4.5,0,0,1-.12,9l-189-2.48a4.5,4.5,0,0,1,.12-9Z"/><path class="cls-18" d="M446.14,758.37,635,759.84a4.5,4.5,0,0,1-.07,9h-.05l-188.85-3.47a3.5,3.5,0,0,1,.09-7Z"/><path class="cls-18" d="M446.14,778.37,635,779.84a4.5,4.5,0,0,1-.07,9h-.05l-188.85-3.47a3.5,3.5,0,0,1,.09-7Z"/><path class="cls-21" d="M705.33,761.37l120,1.57a4.5,4.5,0,1,1-.12,9l-120-1.57a4.5,4.5,0,0,1,.12-9Z"/><path class="cls-18" d="M705.16,783.37,894,785.84a4.5,4.5,0,1,1-.12,9L705,792.37a4.5,4.5,0,0,1,.12-9Z"/><path class="cls-18" d="M898.76,812.41a4.51,4.51,0,0,1-3.88,4.39l-194.09-7.23a4.48,4.48,0,0,1,4.54-4.2l189,2.48A4.5,4.5,0,0,1,898.76,812.41Z"/><path class="cls-28" d="M1270.23,250.84l-858.13,32a13.43,13.43,0,0,0-12.93,13.42V785.38A13.43,13.43,0,0,0,412.1,798.8l12.07.45L917,817.63l353.21,13.17a13.44,13.44,0,0,0,13.94-13.42V264.26A13.44,13.44,0,0,0,1270.23,250.84ZM917,606.33a7.48,7.48,0,0,1-7.76,7.48L431.37,608a7.48,7.48,0,0,1-7.2-7.48V309.13a7.48,7.48,0,0,1,7.2-7.48l477.9-10.82a7.49,7.49,0,0,1,7.76,7.48Zm335.22,188.26c0,6.93-2.13,12.48-4.69,12.22l-289-7.13c-2.44-.25-4.36-5.65-4.36-12.22V298.19c0-6.58,1.92-12,4.36-12.23l289-7.13c2.56-.25,4.69,5.29,4.69,12.23Z"/><path class="cls-29" d="M1247.56,278.83l-289,7.13c-2.44.25-4.36,5.65-4.36,12.23V787.46c0,6.57,1.92,12,4.36,12.22l289,7.13c2.56.26,4.69-5.29,4.69-12.22V291.06C1252.25,284.12,1250.12,278.58,1247.56,278.83Zm-19.31,211.54c0,2.52-1.8,4.54-4,4.44l-244.35-2.59a4.2,4.2,0,0,1-3.69-4.44V311.87a4.2,4.2,0,0,1,3.69-4.45l244.35-4.59c2.16-.09,4,1.92,4,4.44Z"/><path class="cls-41" d="M909.27,290.83l-477.9,10.82a7.48,7.48,0,0,0-7.2,7.48V600.51a7.48,7.48,0,0,0,7.2,7.48l477.9,5.82a7.48,7.48,0,0,0,7.76-7.48v-308A7.49,7.49,0,0,0,909.27,290.83Zm-33,288.64a6.34,6.34,0,0,1-6.58,6.34l-405.39-4.94a6.34,6.34,0,0,1-6.11-6.34V327.35a6.35,6.35,0,0,1,6.11-6.34l405.39-9.18a6.34,6.34,0,0,1,6.58,6.34Z"/><path class="cls-42" d="M1224.29,302.83l-244.35,4.59a4.2,4.2,0,0,0-3.69,4.45V487.78a4.2,4.2,0,0,0,3.69,4.44l244.35,2.59c2.16.1,4-1.92,4-4.44V307.27C1228.25,304.75,1226.45,302.74,1224.29,302.83ZM999.78,321.71,1103,320a6.5,6.5,0,0,1,.22,13h-.06l-103.23.72a6,6,0,0,1-.14-12Zm84.47,134.84a9.27,9.27,0,0,1-9.26,9.27h-68.47a9.27,9.27,0,0,1-9.27-9.27v-4.47a9.27,9.27,0,0,1,9.27-9.26H1075a9.27,9.27,0,0,1,9.26,9.26Zm66.63-29.71-150.14-.15a5.5,5.5,0,0,1,0-11l150.14.15a5.5,5.5,0,1,1,0,11Zm51.17-21.95-201.85-.2a5.5,5.5,0,1,1,0-11l201.85.2a5.5,5.5,0,1,1,0,11Zm-207.48-28.7a5.51,5.51,0,0,1,5.51-5.5l201.85.2a5.5,5.5,0,1,1,0,11l-201.85-.2A5.5,5.5,0,0,1,994.57,376.19Zm207.68-16.31-201.86-.2a5.5,5.5,0,0,1,0-11l201.85.2a5.5,5.5,0,0,1,0,11Z"/><g class="cls-13"><path class="cls-43" d="M869.67,311.83,464.28,321a6.35,6.35,0,0,0-6.11,6.34V574.53a6.34,6.34,0,0,0,6.11,6.34l405.39,4.94a6.34,6.34,0,0,0,6.58-6.34V318.17A6.34,6.34,0,0,0,869.67,311.83ZM480.78,332.38l188.85-3.06a6.5,6.5,0,0,1,.21,13h0l-188.87,2.06a6,6,0,0,1-.16-12Zm84.47,139.17a9.27,9.27,0,0,1-9.26,9.27H487.52a9.27,9.27,0,0,1-9.27-9.27v-4.47a9.27,9.27,0,0,1,9.27-9.26H556a9.27,9.27,0,0,1,9.26,9.26Zm192-29.71-274.77-.15a5.5,5.5,0,0,1,0-11l274.76.15a5.5,5.5,0,0,1,0,11Zm93.64-21.95-369.41-.2a5.5,5.5,0,0,1,0-11l369.4.2a5.5,5.5,0,0,1,0,11Zm-375.14-28.7a5.5,5.5,0,0,1,5.5-5.5l369.41.2a5.5,5.5,0,0,1,0,11l-369.4-.2A5.5,5.5,0,0,1,475.75,391.19Zm375.5-16.31-369.41-.2a5.5,5.5,0,0,1,0-11l369.4.2a5.5,5.5,0,0,1,0,11Z"/></g><path class="cls-31" d="M480.94,344.38l188.87-2.06h0a6.5,6.5,0,0,0-.21-13l-188.85,3.06a6,6,0,0,0,.16,12Z"/><path class="cls-32" d="M851.25,363.88l-369.4-.2a5.5,5.5,0,0,0,0,11l369.41.2a5.5,5.5,0,0,0,0-11Z"/><path class="cls-32" d="M481.25,396.69l369.4.2a5.5,5.5,0,0,0,0-11l-369.41-.2a5.5,5.5,0,0,0,0,11Z"/><path class="cls-32" d="M850.89,408.89l-369.4-.2a5.5,5.5,0,0,0,0,11l369.41.2a5.5,5.5,0,0,0,0-11Z"/><path class="cls-32" d="M757.25,430.84l-274.76-.15a5.5,5.5,0,0,0,0,11l274.77.15a5.5,5.5,0,0,0,0-11Z"/><g class="cls-13"><rect class="cls-44" x="478.25" y="457.82" width="87" height="23" rx="9.27" ry="9.27"/></g><rect class="cls-34" x="478.25" y="457.82" width="87" height="23" rx="9.27" ry="9.27"/><path class="cls-35" d="M999.92,333.71l103.23-.72h.06a6.5,6.5,0,0,0-.22-13l-103.21,1.72a6,6,0,0,0,.14,12Z"/><path class="cls-36" d="M1202.26,348.88l-201.85-.2a5.5,5.5,0,0,0,0,11l201.86.2a5.5,5.5,0,0,0,0-11Z"/><path class="cls-36" d="M1000.07,381.69l201.85.2a5.5,5.5,0,1,0,0-11l-201.85-.2a5.5,5.5,0,1,0,0,11Z"/><path class="cls-36" d="M1202.06,393.89l-201.85-.2a5.5,5.5,0,1,0,0,11l201.85.2a5.5,5.5,0,1,0,0-11Z"/><path class="cls-36" d="M1150.89,415.84l-150.14-.15a5.5,5.5,0,0,0,0,11l150.14.15a5.5,5.5,0,1,0,0-11Z"/><rect class="cls-45" x="997.25" y="442.82" width="87" height="23" rx="9.27" ry="9.27"/><rect class="cls-38" x="997.25" y="442.82" width="87" height="23" rx="9.27" ry="9.27"/></g><g class="cls-46"><path class="cls-17" d="M917,648.31V820.63l-22.14-.83-194.09-7.23L424.17,802.25V644c0-3.39,3.18-6.17,7.2-6.29L909.26,642C913.5,641.88,917,644.74,917,648.31Z"/><path class="cls-18" d="M1224.29,651.81l-244.35-5.87a3.53,3.53,0,0,1-3.69-3.21V514.63a3.53,3.53,0,0,1,3.69-3.2l244.35,1.73c2.16-.06,4,1.39,4,3.21V648.6C1228.25,650.43,1226.45,651.88,1224.29,651.81Z"/><line class="cls-40" x1="1215.9" y1="313.82" x2="1207.25" y2="322.4"/><line class="cls-40" x1="1215.71" y1="322.58" x2="1207.25" y2="314.29"/><line class="cls-19" x1="1218.25" y1="521.06" x2="1209.61" y2="529.64"/><line class="cls-19" x1="1218.06" y1="529.82" x2="1209.61" y2="521.53"/><path class="cls-18" d="M1224.29,794.81l-244.35-7.23c-2.06-.06-3.69-1.36-3.69-3V665.77c0-1.59,1.63-2.89,3.69-2.95l244.35,4.59c2.16-.06,4,1.28,4,3V791.87C1228.25,793.54,1226.45,794.88,1224.29,794.81Z"/><line class="cls-19" x1="1218.25" y1="675.62" x2="1209.61" y2="684.21"/><line class="cls-19" x1="1218.06" y1="684.38" x2="1209.61" y2="676.1"/><path class="cls-18" d="M446.91,654.36l188.87,1.48a4.5,4.5,0,0,1-.07,9h-.05l-188.85-3.48a3.5,3.5,0,0,1,.1-7Z"/><path class="cls-18" d="M446.32,676.37l188.87,1.47a4.5,4.5,0,1,1-.07,9h0l-188.84-3.47a3.5,3.5,0,0,1,.09-7Z"/><path class="cls-18" d="M446.14,699.37,635,700.84a4.5,4.5,0,0,1-.07,9h-.05l-188.85-3.47a3.5,3.5,0,0,1,.09-7Z"/><path class="cls-18" d="M446.32,721.37l123,.61a4.5,4.5,0,0,1,0,9h-.08l-123-2.61a3.5,3.5,0,0,1,.09-7Z"/><path class="cls-18" d="M705.92,655.36l188.86,2.48a4.5,4.5,0,1,1-.12,9L705.8,664.36a4.5,4.5,0,0,1,.12-9Z"/><path class="cls-18" d="M705.33,677.37l188.86,2.47a4.5,4.5,0,1,1-.12,9l-188.86-2.47a4.5,4.5,0,0,1,.12-9Z"/><path class="cls-18" d="M705.16,700.37,894,702.84a4.5,4.5,0,1,1-.12,9L705,709.37a4.5,4.5,0,0,1,.12-9Z"/><path class="cls-18" d="M705.33,722.37l189,2.48a4.5,4.5,0,0,1-.12,9l-189-2.48a4.5,4.5,0,0,1,.12-9Z"/><path class="cls-18" d="M446.14,761.37,635,762.84a4.5,4.5,0,0,1-.07,9h-.05l-188.85-3.47a3.5,3.5,0,0,1,.09-7Z"/><path class="cls-18" d="M446.14,781.37,635,782.84a4.5,4.5,0,0,1-.07,9h-.05l-188.85-3.47a3.5,3.5,0,0,1,.09-7Z"/><path class="cls-21" d="M705.33,764.37l120,1.57a4.5,4.5,0,1,1-.12,9l-120-1.57a4.5,4.5,0,0,1,.12-9Z"/><path class="cls-18" d="M705.16,786.37,894,788.84a4.5,4.5,0,1,1-.12,9L705,795.37a4.5,4.5,0,0,1,.12-9Z"/><path class="cls-18" d="M898.76,815.41a4.51,4.51,0,0,1-3.88,4.39l-194.09-7.23a4.48,4.48,0,0,1,4.54-4.2l189,2.48A4.5,4.5,0,0,1,898.76,815.41Z"/><path class="cls-28" d="M1270.23,253.84l-858.13,32a13.43,13.43,0,0,0-12.93,13.42V788.38A13.43,13.43,0,0,0,412.1,801.8l12.07.45L917,820.63l353.21,13.17a13.44,13.44,0,0,0,13.94-13.42V267.26A13.44,13.44,0,0,0,1270.23,253.84ZM917,609.33a7.48,7.48,0,0,1-7.76,7.48L431.37,611a7.48,7.48,0,0,1-7.2-7.48V312.13a7.48,7.48,0,0,1,7.2-7.48l477.9-10.82a7.49,7.49,0,0,1,7.76,7.48Zm335.22,188.26c0,6.93-2.13,12.48-4.69,12.22l-289-7.13c-2.43-.25-4.36-5.65-4.36-12.22V301.19c0-6.58,1.93-12,4.36-12.23l289-7.12c2.56-.26,4.69,5.28,4.69,12.22Z"/><path class="cls-29" d="M1247.56,281.84l-289,7.12c-2.43.25-4.36,5.65-4.36,12.23V790.46c0,6.57,1.93,12,4.36,12.22l289,7.13c2.56.26,4.69-5.29,4.69-12.22V294.06C1252.25,287.12,1250.12,281.58,1247.56,281.84Zm-19.31,211.53c0,2.52-1.8,4.54-4,4.44l-244.35-2.59a4.2,4.2,0,0,1-3.69-4.44V314.87a4.2,4.2,0,0,1,3.69-4.45l244.35-4.59c2.16-.09,4,1.92,4,4.44Z"/><path class="cls-47" d="M909.27,293.83l-477.9,10.82a7.48,7.48,0,0,0-7.2,7.48V603.51a7.48,7.48,0,0,0,7.2,7.48l477.9,5.82a7.48,7.48,0,0,0,7.76-7.48v-308A7.49,7.49,0,0,0,909.27,293.83Zm-33,288.64a6.34,6.34,0,0,1-6.58,6.34l-405.39-4.94a6.34,6.34,0,0,1-6.11-6.34V330.35a6.35,6.35,0,0,1,6.11-6.34l405.39-9.18a6.35,6.35,0,0,1,6.58,6.34Z"/><path class="cls-48" d="M1224.29,305.83l-244.35,4.59a4.2,4.2,0,0,0-3.69,4.45V490.78a4.2,4.2,0,0,0,3.69,4.44l244.35,2.59c2.16.1,4-1.92,4-4.44V310.27C1228.25,307.75,1226.45,305.74,1224.29,305.83ZM999.78,324.71,1103,323a6.5,6.5,0,0,1,.22,13h-.06l-103.23.72a6,6,0,0,1-.14-12Zm84.47,134.84a9.27,9.27,0,0,1-9.26,9.27h-68.47a9.27,9.27,0,0,1-9.27-9.27v-4.47a9.27,9.27,0,0,1,9.27-9.26H1075a9.27,9.27,0,0,1,9.26,9.26Zm66.63-29.71-150.14-.15a5.5,5.5,0,0,1,0-11l150.14.15a5.5,5.5,0,1,1,0,11Zm51.17-21.95-201.85-.2a5.5,5.5,0,1,1,0-11l201.85.2a5.5,5.5,0,1,1,0,11Zm-207.48-28.7a5.51,5.51,0,0,1,5.51-5.5l201.85.2a5.5,5.5,0,1,1,0,11l-201.85-.2A5.5,5.5,0,0,1,994.57,379.19Zm207.68-16.31-201.86-.2a5.5,5.5,0,0,1,0-11l201.85.2a5.5,5.5,0,0,1,0,11Z"/><g class="cls-13"><path class="cls-49" d="M869.67,314.83,464.28,324a6.35,6.35,0,0,0-6.11,6.34V577.53a6.34,6.34,0,0,0,6.11,6.34l405.39,4.94a6.34,6.34,0,0,0,6.58-6.34V321.17A6.35,6.35,0,0,0,869.67,314.83ZM480.78,335.38l188.85-3.06a6.5,6.5,0,0,1,.21,13h0l-188.87,2.06a6,6,0,0,1-.16-12Zm84.47,139.17a9.27,9.27,0,0,1-9.26,9.27H487.52a9.27,9.27,0,0,1-9.27-9.27v-4.47a9.27,9.27,0,0,1,9.27-9.26H556a9.27,9.27,0,0,1,9.26,9.26Zm192-29.71-274.77-.15a5.5,5.5,0,0,1,0-11l274.76.15a5.5,5.5,0,0,1,0,11Zm93.64-21.95-369.41-.2a5.5,5.5,0,0,1,0-11l369.4.2a5.5,5.5,0,0,1,0,11Zm-375.14-28.7a5.5,5.5,0,0,1,5.5-5.5l369.41.2a5.5,5.5,0,0,1,0,11l-369.4-.2A5.5,5.5,0,0,1,475.75,394.19Zm375.5-16.31-369.41-.2a5.5,5.5,0,0,1,0-11l369.4.2a5.5,5.5,0,0,1,0,11Z"/></g><path class="cls-31" d="M480.94,347.38l188.87-2.06h0a6.5,6.5,0,0,0-.21-13l-188.85,3.06a6,6,0,0,0,.16,12Z"/><path class="cls-32" d="M851.25,366.88l-369.4-.2a5.5,5.5,0,0,0,0,11l369.41.2a5.5,5.5,0,0,0,0-11Z"/><path class="cls-32" d="M481.25,399.69l369.4.2a5.5,5.5,0,0,0,0-11l-369.41-.2a5.5,5.5,0,0,0,0,11Z"/><path class="cls-32" d="M850.89,411.89l-369.4-.2a5.5,5.5,0,0,0,0,11l369.41.2a5.5,5.5,0,0,0,0-11Z"/><path class="cls-32" d="M757.25,433.84l-274.76-.15a5.5,5.5,0,0,0,0,11l274.77.15a5.5,5.5,0,0,0,0-11Z"/><g class="cls-13"><rect class="cls-50" x="478.25" y="460.82" width="87" height="23" rx="9.27" ry="9.27"/></g><rect class="cls-34" x="478.25" y="460.82" width="87" height="23" rx="9.27" ry="9.27"/><path class="cls-35" d="M999.92,336.71l103.23-.72h.06a6.5,6.5,0,0,0-.22-13l-103.21,1.72a6,6,0,0,0,.14,12Z"/><path class="cls-36" d="M1202.26,351.88l-201.85-.2a5.5,5.5,0,0,0,0,11l201.86.2a5.5,5.5,0,0,0,0-11Z"/><path class="cls-36" d="M1000.07,384.69l201.85.2a5.5,5.5,0,1,0,0-11l-201.85-.2a5.5,5.5,0,1,0,0,11Z"/><path class="cls-36" d="M1202.06,396.89l-201.85-.2a5.5,5.5,0,1,0,0,11l201.85.2a5.5,5.5,0,1,0,0-11Z"/><path class="cls-36" d="M1150.89,418.84l-150.14-.15a5.5,5.5,0,0,0,0,11l150.14.15a5.5,5.5,0,1,0,0-11Z"/><rect class="cls-51" x="997.25" y="445.82" width="87" height="23" rx="9.27" ry="9.27"/><rect class="cls-38" x="997.25" y="445.82" width="87" height="23" rx="9.27" ry="9.27"/><line class="cls-40" x1="1221.9" y1="313.82" x2="1213.25" y2="322.4"/><line class="cls-40" x1="1221.71" y1="322.58" x2="1213.25" y2="314.29"/></g><path class="cls-52" d="M1028.44,417.36s-2.26.18-4.75-4.27c-3.33-5.94-.24-8.79-.24-8.79s2.38.47,4.51,4.75C1031,415.13,1028.44,417.36,1028.44,417.36Z"/><path class="cls-53" d="M964.33,897.27l-242.75-15c-9.38-.42-16.64-4.37-16.22-13.75h0c.43-9.38,8.38-12.64,17.75-12.21l242.76,7a17,17,0,0,1,16.21,17.75h0A17,17,0,0,1,964.33,897.27Z"/></g></g></svg>