<svg xmlns="http://www.w3.org/2000/svg" xmlns:xlink="http://www.w3.org/1999/xlink" viewBox="0 0 219.85 351.56"><defs><style>.cls-1{fill:url(#Безымянный_градиент_356);}.cls-2{fill:url(#Безымянный_градиент_356-2);}.cls-13,.cls-3{fill:#fff;}.cls-4{fill:url(#Безымянный_градиент_276);}.cls-5{fill:#02558e;}.cls-6{fill:#3ac7ff;}.cls-7{fill:url(#Безымянный_градиент_311);}.cls-8{fill:url(#Безымянный_градиент_311-2);}.cls-9{fill:url(#Безымянный_градиент_311-3);}.cls-10{fill:url(#Безымянный_градиент_311-4);}.cls-11{fill:url(#Безымянный_градиент_295);}.cls-12{fill:#1089bf;}.cls-13,.cls-14{stroke:#004174;stroke-miterlimit:10;}.cls-13{stroke-width:0.5px;}.cls-14{fill:none;}</style><linearGradient id="Безымянный_градиент_356" x1="184.13" y1="330.83" x2="184.13" y2="271.57" gradientUnits="userSpaceOnUse"><stop offset="0" stop-color="#1a66c9"/><stop offset="1" stop-color="#3ac7ff"/></linearGradient><linearGradient id="Безымянный_градиент_356-2" x1="120.19" y1="331.95" x2="120.19" y2="272.69" xlink:href="#Безымянный_градиент_356"/><linearGradient id="Безымянный_градиент_276" x1="106.56" y1="60.07" x2="197.93" y2="60.07" gradientUnits="userSpaceOnUse"><stop offset="0" stop-color="#b75ab9"/><stop offset="1" stop-color="#f95ab9"/></linearGradient><linearGradient id="Безымянный_градиент_311" x1="151.91" y1="206.16" x2="151.91" y2="298.25" gradientUnits="userSpaceOnUse"><stop offset="0" stop-color="#45c4ff"/><stop offset="0.06" stop-color="#41b9f1"/><stop offset="0.22" stop-color="#39a2d3"/><stop offset="0.38" stop-color="#3391bc"/><stop offset="0.56" stop-color="#2e84ab"/><stop offset="0.75" stop-color="#2c7ca1"/><stop offset="1" stop-color="#2b7a9e"/></linearGradient><linearGradient id="Безымянный_градиент_311-2" x1="98.97" y1="194.96" x2="98.97" y2="268.67" gradientTransform="translate(245.6 26.34) rotate(57.86)" xlink:href="#Безымянный_градиент_311"/><linearGradient id="Безымянный_градиент_311-3" x1="205" y1="198.32" x2="205" y2="272.02" gradientTransform="translate(239.66 -74.62) rotate(47.31)" xlink:href="#Безымянный_градиент_311"/><linearGradient id="Безымянный_градиент_311-4" x1="151.52" y1="91.25" x2="151.52" y2="206.88" xlink:href="#Безымянный_градиент_311"/><linearGradient id="Безымянный_градиент_295" x1="65.81" y1="31.62" x2="111.9" y2="31.62" gradientUnits="userSpaceOnUse"><stop offset="0" stop-color="#004174"/><stop offset="1" stop-color="#467ca6"/></linearGradient></defs><title>Boy</title><g id="Слой_2" data-name="Слой 2"><g id="Слой_1-2" data-name="Слой 1"><path class="cls-1" d="M163.22,329.09s.72,3.57,9.27,4a35.51,35.51,0,0,0,15-2.37l-14.26-4.52s11.41-13.3,15-15.68,6.65-4,11.17-1.9,7.6,8.32,6.65,11.88-7.37,12.12-14.73,19.24c-7,6.8-9.36,9.06-12.36,10.7-2.61,1.42-14,2.37-16.15-3.33C161.06,342.65,163.22,329.09,163.22,329.09Z"/><path class="cls-2" d="M118.32,329.81s2.38,3.08,10.69,2.37,11.41-4.27,11.41-4.27,1.9,18.76-.72,20.9-15.92,3.33-19.48.95-10.69-11.64-15.44-16.39-6.66-12.59-4.75-15.92,3.8-6.41,9.5-6.89,14,3.09,14,3.09l-3.33,13.07Z"/><path class="cls-3" d="M168.93,94.35c-1.9,4.28-8.08,13.78-7.37,21.86S163,128.09,163,128.09H138.28a19.17,19.17,0,0,0,4-11.4,56.4,56.4,0,0,0-1.67-14.26Z"/><path class="cls-3" d="M153,42.56c-7.84,2.38-16.4,7.84-18.3,15.92a77.23,77.23,0,0,0-1.9,15.68l-10,10.93,5.47,5.46s2.37,13.07,4.51,15.92,16.87.71,20.2-1.19,20-18,20-18,12.35-13.31,7.12-27.09S167,43,163,42.56A64.23,64.23,0,0,0,153,42.56Z"/><path class="cls-4" d="M145.64,76.3c-3.8-6.65-3.56-10.22,0-15.21s-.47-13.54-7.13-11.88-11.4,3.57-18.53,1.67-16.63-10.22-12.35-19.49S119.27,20,129.25,22.6s13.54,10.93,21.86,9.74,15.2-7.84,26.61-5.94,20.67,15.45,20.19,30.42-2.85,33.26-20.19,39.67-18.54-4-18.54-4,4.52-3.8,5-9.26S162.75,70.83,157.28,72s-8.55,3.8-8.55,7.6S145.64,76.3,145.64,76.3Z"/><path class="cls-5" d="M99.07,231.43c-1.9,5,18.54,95.37,18.54,95.37s1,3,10,3,11.16-4.51,11.16-4.51l-9.5-95.37s-7.84-12-17.82-11.26S99.07,231.43,99.07,231.43Z"/><path class="cls-5" d="M187,326.65s14.26-83.76,14.73-91.78-5.36-14.32-15-16C174.39,216.67,168,231.72,168,231.72l-3.09,94.2s1.66,2.91,10.21,3.64S187,326.65,187,326.65Z"/><path class="cls-6" d="M110.24,125.48c-8.79,3.56-22.33,10.69-27.32,12.83S62,145.91,62,145.91a127.81,127.81,0,0,0-11.88-25.66c-8.08-13.3-8.08-21.62-8.08-21.62l-14.73,4.75s4.28,10.46,5,14,7.13,28.27,11.17,36.35,5.46,13.78,6.89,15.45,3.33,2.13,5.7,1.66,10-2.85,20.67-5.47,28.51-10.45,29.94-11.4,14,57.73,14,57.73h62.24s6.42-55.35,6.42-57.49-6.65,28-6.65,28l9.26,19s9.51-10.69,10.22-17.82-2.85-57-9.27-60.11-25.66-.71-33.5.48-33,.47-36.59.47S110.24,125.48,110.24,125.48Z"/><path class="cls-7" d="M103.11,259.72c-.71,8.07,3.09,15.68,21.62,17.58s50.85,2.14,60.11,0,16.4-7.6,15.92-15.68S181,249.74,168.93,249.74s-41.82,0-48.23.95S103.57,254.56,103.11,259.72Z"/><path class="cls-5" d="M118.56,213.29c-2.14,4.75-14.26,27.8-1.19,39s58.45,6.42,65.1,2.38,16.15-15.68,7.13-34-8.08-16.15-8.08-16.15Z"/><ellipse class="cls-8" cx="98.97" cy="235.34" rx="14.05" ry="15.84" transform="translate(-152.96 193.95) rotate(-57.86)"/><ellipse class="cls-9" cx="205" cy="236.23" rx="15.78" ry="14" transform="translate(-107.63 226.76) rotate(-47.31)"/><ellipse class="cls-10" cx="151.52" cy="191.05" rx="49.54" ry="43.95"/><path class="cls-11" d="M96,63.23,65.81,9.06S67,4.31,72.94,1.69,81.73.27,81.73.27L111.9,54s-4-1.18-9,2.14A21,21,0,0,0,96,63.23Z"/><path class="cls-12" d="M149.44,205.07c10.46,0,17.82,7.6,17.82,20,0,14.3-2.61,42.76-16.63,42.29-14.25-.48-17.58-27.8-17.58-42.53C133.05,216.66,137.56,205.07,149.44,205.07Z"/><path class="cls-13" d="M96,63.23s1-3.56,6.89-7.13,9-2.14,9-2.14,1.13,2.64-6.46,7.49C99.31,65.37,96,63.23,96,63.23Z"/><path class="cls-14" d="M53,60.14l13.55-9S72.94,50.4,95,75.59l14.73-5.71-6.42-12.11"/><path class="cls-12" d="M0,89.84,53.7,51.11s-2.84,2.13-.24,7.84c2.37,5.23,5.22,5.23,5.22,5.23S16.39,96.26,12.35,104.1,0,89.84,0,89.84Z"/><path class="cls-3" d="M39.2,79.39c-8.31-3.8-6.65-13.31-6.65-13.31l4-2.61s.47-.95-2.38-1.66-5.7-.24-10.45,1.18-10.93,9.74-10.93,9.74-1.66,5.47,1.43,12.6,11.16,13.54,15.2,19.24L41.1,101l.72-6.66,4.75-9.5L45.38,74.63Z"/><path class="cls-5" d="M206,317.54c-1,3.56-7.37,12.12-14.73,19.24-7,6.8-9.36,9.06-12.36,10.7-2.61,1.42-14,2.37-16.15-3.33a13.89,13.89,0,0,1-.62-4,20.81,20.81,0,0,0,.62,7c2.14,5.7,13.54,4.75,16.15,3.33,3-1.64,5.34-3.9,12.36-10.7,7.36-7.12,13.78-15.68,14.73-19.24a6.82,6.82,0,0,0,0-3Z"/><path class="cls-5" d="M139.7,345.81c-2.61,2.14-15.92,3.33-19.48.95s-10.69-11.64-15.44-16.39a19.71,19.71,0,0,1-5.37-11c-.59,3.84,1.38,10,5.37,14,4.75,4.75,11.88,14,15.44,16.39s16.87,1.19,19.48-.95c1.21-1,1.45-5.5,1.37-10.08C141,342.14,140.64,345.05,139.7,345.81Z"/></g></g></svg>