<svg xmlns="http://www.w3.org/2000/svg" xmlns:xlink="http://www.w3.org/1999/xlink" viewBox="0 0 210.55 302.3"><defs><style>.cls-1,.cls-3{fill:#fff;}.cls-2{fill:url(#Безымянный_градиент_295);}.cls-3,.cls-4{stroke:#004174;stroke-miterlimit:10;}.cls-3{stroke-width:0.5px;}.cls-4{fill:none;}.cls-5{fill:#1089bf;}.cls-6{fill:#004174;}.cls-7{fill:#02558e;}.cls-8{fill:#1d3849;opacity:0.1;}.cls-9{fill:url(#Безымянный_градиент_295-2);}.cls-10{fill:url(#Безымянный_градиент_311);}.cls-11{fill:#f95ab9;}.cls-12{fill:#d14aa1;}.cls-13{fill:url(#Безымянный_градиент_311-2);}.cls-14{fill:url(#Безымянный_градиент_311-3);}.cls-15{fill:url(#Безымянный_градиент_311-4);}.cls-16{fill:url(#Безымянный_градиент_311-5);}</style><linearGradient id="Безымянный_градиент_295" x1="122.28" y1="14.53" x2="226.51" y2="18.75" gradientUnits="userSpaceOnUse"><stop offset="0" stop-color="#004174"/><stop offset="1" stop-color="#467ca6"/></linearGradient><linearGradient id="Безымянный_градиент_295-2" x1="42.19" y1="45.94" x2="149.41" y2="19.73" xlink:href="#Безымянный_градиент_295"/><linearGradient id="Безымянный_градиент_311" x1="64.44" y1="99.13" x2="61.21" y2="267.95" gradientUnits="userSpaceOnUse"><stop offset="0" stop-color="#45c4ff"/><stop offset="0.06" stop-color="#41b9f1"/><stop offset="0.22" stop-color="#39a2d3"/><stop offset="0.38" stop-color="#3391bc"/><stop offset="0.56" stop-color="#2e84ab"/><stop offset="0.75" stop-color="#2c7ca1"/><stop offset="1" stop-color="#2b7a9e"/></linearGradient><linearGradient id="Безымянный_градиент_311-2" x1="81.07" y1="178.26" x2="51.54" y2="209.97" xlink:href="#Безымянный_градиент_311"/><linearGradient id="Безымянный_градиент_311-3" x1="9.83" y1="98.09" x2="6.6" y2="266.91" gradientTransform="translate(25.4 0.64) rotate(8.57)" xlink:href="#Безымянный_градиент_311"/><linearGradient id="Безымянный_градиент_311-4" x1="49.6" y1="73.73" x2="49.6" y2="159.03" xlink:href="#Безымянный_градиент_311"/><linearGradient id="Безымянный_градиент_311-5" x1="103.94" y1="99.89" x2="100.71" y2="268.71" gradientTransform="translate(240.47 26.73) rotate(74.17)" xlink:href="#Безымянный_градиент_311"/></defs><title>Girl_1</title><g id="Слой_2" data-name="Слой 2"><g id="Слой_1-2" data-name="Слой 1"><path class="cls-1" d="M104.38,162c-3.59-4.94-5.39-7.86-9.44-8.09s-16.4,1.35-16.4,1.35l1.35,30.56Z"/><path class="cls-2" d="M200.1,20.63c-2.24-7,3.6-9.66,3.6-9.66s-14.61-1.35-34.16-1.13-31,2.25-31,2.25-5.49,4.21-.49,10.21c0,0,17.77-.66,31-.32,13,.32,31.91,0,31.91,0A7.26,7.26,0,0,1,200.1,20.63Z"/><path class="cls-3" d="M201.23,22c1.79,0,4-1.13,4.71-5.4.75-4.7-2-5.61-2-5.61a6.8,6.8,0,0,0-4,4.49C198.53,19.73,201.23,22,201.23,22Z"/><path class="cls-4" d="M164.6,49.61,166.85,35l2.69-3.82s31.91-3.37,35.28-4.94,7.21-8.7,4.05-9c-2.48-.23-9.22-.68-9.22-.68"/><path class="cls-1" d="M66.18,280.15s3.82-18,7.64-32.13S90.9,197.69,90.9,197.69l-22.47-7.87s-1.07,30.24-2.7,46.52a27,27,0,0,1-5.39,14.15Z"/><path class="cls-5" d="M160.56,45.79c1.79-.45,8.53-2,9-.89S161.23,80.17,161.45,82s-7.63,2.92-8.53,4.94-.9.9-.9.9,3.37-10.56,3.59-13.93,3.82-21.57,4-23.82A22,22,0,0,1,160.56,45.79Z"/><path class="cls-6" d="M165.27,67.59c-.67,3.37-2,12.81-1.79,14.16s2,4.71.9,5.16,1.34.45-.9-2a17.89,17.89,0,0,0-2.7-2.7l3.6-15.27,4.49-22,.2-.4s.92.17,1.15.84S165.27,67.59,165.27,67.59Z"/><path class="cls-7" d="M152.2,88.12c0,1,1.39,2.16,4.54,1.94s6.06-.67,6.74-1.57,1.87-1.59.37-3.16-2.62-2.76-2.62-2.76a7.49,7.49,0,0,1-2.24,1.3c-1.13.35-5,2-5,2a1.91,1.91,0,0,0-1,1A3.83,3.83,0,0,1,152.2,88.12Z"/><path class="cls-1" d="M143.09,78.12s4.43-14.13,9.83-18,11.68-4.71,16.85-6.74h3.14l.9,2.7s-.9,3.15-.67,4-1.8,4.72-1.8,4.72l-.9,4s0,3.37-2.69,3.82-11.69,1.35-13.26,3.37a52.42,52.42,0,0,0-3.6,5.84Z"/><path class="cls-1" d="M76.7,21.57c5.15.91,6.21,12.48,5,17.78-1.4,6.37,6.83,8.29,6.83,8.29S87.09,51,85.51,52.07c0,0,.18,10.13-.45,12.15s-13.29,4-19.78,2A31.89,31.89,0,0,1,54.14,60l4.27-28.41Z"/><path class="cls-1" d="M75.06,298.47a59.67,59.67,0,0,0,7.64-18.65c2-10.12,1.8-14.38,7.41-27.64s17.31-35.28,23.37-51,8.79-35.17,2.59-39.66C101.46,151,78.54,172.07,78.54,172.07s20,10.11,21.12,13.71c.91,2.9-4.72,12.47-6.51,17.3-2.41,6.48-5.8,23.78-9.44,35a45.39,45.39,0,0,1-9.77,16.52Z"/><path class="cls-8" d="M82.05,211.3s-2,11-9,28c-4.61,11.18-7,25-7,25l-5-11s4.11-3.77,6-16a92.46,92.46,0,0,0,1-22Z"/><path class="cls-8" d="M76.05,255.3c8-11,12-27,15-37s13-15,13-15-1,13-5,20-11,20-13,24-6,17-6,17Z"/><path class="cls-7" d="M74.05,74.78S71.58,86.69,80.56,88s12.14,1.79,17.31,3.59c1.81.63,9.43,8.54,13.48,14.61s13,7.19,13,7.19A92.24,92.24,0,0,1,133.82,93a102.23,102.23,0,0,0,9.43-18.87s2.48,3.82,4.5,4.71A11.94,11.94,0,0,0,152.92,80s-5.76,11.84-7.64,16.4c-2.7,6.52-11.46,33.71-14.83,34.83s-3.6,1.35-5.4.9-15-5.4-18-7.87-8.09-4.27-9.89-3.82-5.84,3.37-7.41,5.62S79,165.11,79,165.11s-16.85,8.09-40.67-4.27c0,0-11.46-34.38-14.38-43.37s-4.72-9-4-17.75a135.55,135.55,0,0,1,2.47-16.85L37.2,70.51Z"/><path class="cls-9" d="M59,7.15S63-2.52,75.85.63s17.52,13,13,21.12-9.21-2.7-13.26,5.17.67,9-.67,12.81S62.46,53.63,69.1,53.88c11.91.45-13,14.16.68,11.46,10.55-2.07,18.87,10.79,3.82,17.08-14.38,6-14.61-7-14.61-7s8.73,7.94-3.14,11C43.71,89.61,45.45,78.23,39.22,82,28,88.71,27.31,76.35,23.72,75c-4.26-1.59-7,6.75-14.38-.44S2.82,58.83,8,57.93s9.43-4,6.51-6.29S6.41,44.9,7.76,39.28s6.07-7.42,11.69-8.77S26.19,25.57,26,24s-3.14-5.62-1.35-10.11,3.82-7.64,13-11S52.7.18,55.17,2.43A19.9,19.9,0,0,1,59,7.15Z"/><path class="cls-10" d="M18.55,200.83c-2.92,5.4-3.65,20.5,15.5,24.72,15.28,3.37,36.24,5.88,51,.23,10.56-4.05,20-9.44,21.79-16.18s.68-16.85.68-16.85-6.74,11.68-18,15.05-22.47,5.39-35,3.82S18.55,200.83,18.55,200.83Z"/><path class="cls-11" d="M62.09,247.15c6.06-.24,7.86,10.93,6.73,16.6-2,10.34,2.52,6.27,1.6,17.25-.46,5.41-2.16,13.35-4,13.43-2,.08-8-3.5-9.19-10.43-1.66-9.77.68-11.05-.78-19.31S57.56,247.33,62.09,247.15Z"/><path class="cls-12" d="M68.82,263.75c1.13-5.67-.67-16.84-6.73-16.6A4.27,4.27,0,0,0,59,249a3.72,3.72,0,0,1,2.13-.84c6.06-.24,7.86,10.93,6.73,16.6-2,10.34,2.52,6.27,1.6,17.25-.36,4.26-1.49,10.06-2.83,12.39,1.75-.43,3.38-8.1,3.83-13.39C71.34,270,66.78,274.09,68.82,263.75Z"/><path class="cls-11" d="M75,252.29c6.51.23,7.86,11.68,5.61,17.3S79.44,283.3,79,286.22s.23,12.58-6.52,15.95c0,0-2.92,1.58-5.61-6.51s2.47-11,2.24-18.43-2.92-7.86-2-14.83C68,255.7,71.75,252.18,75,252.29Z"/><path class="cls-12" d="M75,252.29a5.46,5.46,0,0,0-3.39,1.18,4.47,4.47,0,0,1,1.39-.18c6.51.23,7.86,11.68,5.61,17.3S77.44,284.3,77,287.22c-.41,2.7.12,11.14-5.12,15.07a1.42,1.42,0,0,0,.61-.12c6.74-3.37,6.06-13,6.51-15.95s-.67-11,1.57-16.63S81.46,252.52,75,252.29Z"/><path class="cls-13" d="M18.77,199.94c3.6-8.32,11.56-11.18,12.59-11.91,1.57-1.13,17.75-9.89,17.75-9.89s44.49,7.07,50.55,8.76c9.67,2.7,8,7.65,7.42,9.44-1.13,3.37-6.17,6.92-12.81,10.34-7.86,4-13,6.29-21.35,7.19a93.6,93.6,0,0,1-28.08-.9C34.25,211,15.72,207,18.77,199.94Z"/><path class="cls-6" d="M38.32,160.84c-6.07,6.29-15.28,20.45-17.08,31s5,13.7,21.58,16.18,22.59,5.37,38.64-2.25C88,202.65,96.74,194.54,101,189.15s9.89-18.2-2.92-22.92a61.39,61.39,0,0,0-14.38-3.59L79,165.11Z"/><ellipse class="cls-14" cx="8.46" cy="169.79" rx="8.43" ry="9.33" transform="translate(-25.21 3.16) rotate(-8.57)"/><ellipse class="cls-15" cx="49.6" cy="152.95" rx="39.55" ry="35.95"/><ellipse class="cls-16" cx="102.56" cy="172.43" rx="9.68" ry="8.75" transform="translate(-91.32 224.06) rotate(-74.17)"/><path class="cls-5" d="M34.94,178.48c2.24-5.93,9-7.43,14.93-3.51,5.77,3.83,5.74,14.62,6.17,20s-1,21.18-7.56,25c-10,5.86-15.11-8.29-15.88-14.9C31.59,196.37,30.7,189.7,34.94,178.48Z"/></g></g></svg>