<svg xmlns="http://www.w3.org/2000/svg" xmlns:xlink="http://www.w3.org/1999/xlink" viewBox="0 0 1640.42 1161.82"><defs><style>.cls-1,.cls-19,.cls-65{fill:none;}.cls-2{stroke:#fff;stroke-width:7px;fill:url(#Безымянный_градиент_329);}.cls-19,.cls-2,.cls-40,.cls-52,.cls-64,.cls-65{stroke-miterlimit:10;}.cls-3{fill:#63e5db;}.cls-3,.cls-7{opacity:0.2;}.cls-4{fill:url(#Безымянный_градиент_251);}.cls-5{opacity:0.4;}.cls-52,.cls-6,.cls-64{fill:#fff;}.cls-8{opacity:0.5;}.cls-9{fill:url(#Безымянный_градиент_269);}.cls-10,.cls-68{fill:#1d3849;}.cls-10{opacity:0.3;}.cls-11{fill:url(#Безымянный_градиент_311);}.cls-12{fill:url(#Безымянный_градиент_311-2);}.cls-13{opacity:0.7;}.cls-14{fill:url(#Безымянный_градиент_311-3);}.cls-15{fill:url(#Безымянный_градиент_311-4);}.cls-16{fill:#d7f6ff;}.cls-17{fill:#aedeed;}.cls-18{fill:#88c2d4;}.cls-19{stroke:#62a7b7;}.cls-19,.cls-40{stroke-linecap:round;stroke-width:2px;}.cls-20{fill:#80ccdd;}.cls-21{fill:#74b3c1;}.cls-22{fill:#609eba;}.cls-23{fill:#6eaec4;}.cls-24{fill:#4ea7c6;}.cls-25{clip-path:url(#clip-path);}.cls-26{fill:url(#Безымянный_градиент_346);}.cls-27{fill:url(#Безымянный_градиент_342);}.cls-28{fill:#e7ffd9;}.cls-29{fill:#b8ffb0;}.cls-30{fill:url(#Безымянный_градиент_342-2);}.cls-31{fill:#54b1f7;}.cls-32{fill:#feffcc;}.cls-33{fill:url(#Безымянный_градиент_346-2);}.cls-34{fill:#e50a82;}.cls-34,.cls-38{opacity:0.8;}.cls-35{fill:#fcea81;}.cls-36{fill:#cffff2;}.cls-37{fill:url(#Безымянный_градиент_342-3);}.cls-38{fill:#ed4082;}.cls-39{clip-path:url(#clip-path-2);}.cls-40{fill:#9e3c65;stroke:#9c3d67;}.cls-41{fill:url(#Безымянный_градиент_342-4);}.cls-42{fill:url(#Безымянный_градиент_342-5);}.cls-43{fill:url(#Безымянный_градиент_346-3);}.cls-44{fill:url(#Безымянный_градиент_346-4);}.cls-45{fill:url(#Безымянный_градиент_342-6);}.cls-46{clip-path:url(#clip-path-3);}.cls-47{fill:url(#Безымянный_градиент_342-7);}.cls-48{fill:url(#Безымянный_градиент_342-8);}.cls-49{fill:url(#Безымянный_градиент_346-5);}.cls-50{fill:url(#Безымянный_градиент_346-6);}.cls-51{fill:url(#Безымянный_градиент_342-9);}.cls-52{stroke:#d3d3d3;}.cls-52,.cls-64{stroke-width:0.5px;}.cls-53{fill:url(#Безымянный_градиент_356);}.cls-54{fill:url(#Безымянный_градиент_356-2);}.cls-55{fill:url(#Безымянный_градиент_276);}.cls-56{fill:#02558e;}.cls-57{fill:#3ac7ff;}.cls-58{fill:url(#Безымянный_градиент_311-5);}.cls-59{fill:url(#Безымянный_градиент_311-6);}.cls-60{fill:url(#Безымянный_градиент_311-7);}.cls-61{fill:url(#Безымянный_градиент_311-8);}.cls-62{fill:url(#Безымянный_градиент_295);}.cls-63{fill:#1089bf;}.cls-64,.cls-65{stroke:#004174;}.cls-66{fill:url(#Безымянный_градиент_295-2);}.cls-67{fill:#004174;}.cls-68{opacity:0.1;}.cls-69{fill:url(#Безымянный_градиент_295-3);}.cls-70{fill:url(#Безымянный_градиент_311-9);}.cls-71{fill:#f95ab9;}.cls-72{fill:#d14aa1;}.cls-73{fill:url(#Безымянный_градиент_311-10);}.cls-74{fill:url(#Безымянный_градиент_311-11);}.cls-75{fill:url(#Безымянный_градиент_311-12);}.cls-76{fill:url(#Безымянный_градиент_311-13);}.cls-77{fill:url(#Безымянный_градиент_311-14);}</style><linearGradient id="Безымянный_градиент_329" x1="3.5" y1="675.12" x2="1306.19" y2="675.12" gradientUnits="userSpaceOnUse"><stop offset="0" stop-color="#a6e4ff"/><stop offset="0.1" stop-color="#a6e4ff"/><stop offset="1" stop-color="#a6e4ff"/></linearGradient><linearGradient id="Безымянный_градиент_251" x1="166.37" y1="573.78" x2="1393.46" y2="573.78" gradientUnits="userSpaceOnUse"><stop offset="0" stop-color="#f9c7e5"/><stop offset="1" stop-color="#f95ab9"/></linearGradient><linearGradient id="Безымянный_градиент_269" x1="605.91" y1="364.63" x2="2034.44" y2="1665.09" gradientUnits="userSpaceOnUse"><stop offset="0" stop-color="#45c4ff"/><stop offset="0.03" stop-color="#53c8ff"/><stop offset="0.15" stop-color="#7ed6ff"/><stop offset="0.26" stop-color="#a4e2ff"/><stop offset="0.39" stop-color="#c2ebff"/><stop offset="0.52" stop-color="#d9f3ff"/><stop offset="0.65" stop-color="#eaf8ff"/><stop offset="0.8" stop-color="#f4fbff"/><stop offset="1" stop-color="#f7fcff"/></linearGradient><linearGradient id="Безымянный_градиент_311" x1="737.3" y1="1428.69" x2="945.41" y2="364.12" gradientUnits="userSpaceOnUse"><stop offset="0" stop-color="#45c4ff"/><stop offset="0.06" stop-color="#41b9f1"/><stop offset="0.22" stop-color="#39a2d3"/><stop offset="0.38" stop-color="#3391bc"/><stop offset="0.56" stop-color="#2e84ab"/><stop offset="0.75" stop-color="#2c7ca1"/><stop offset="1" stop-color="#2b7a9e"/></linearGradient><linearGradient id="Безымянный_градиент_311-2" x1="737.3" y1="1428.7" x2="945.41" y2="364.12" xlink:href="#Безымянный_градиент_311"/><linearGradient id="Безымянный_градиент_311-3" x1="850.52" y1="927.06" x2="834.42" y2="701.71" xlink:href="#Безымянный_градиент_311"/><linearGradient id="Безымянный_градиент_311-4" x1="966.02" y1="952.19" x2="749.08" y2="199.76" xlink:href="#Безымянный_градиент_311"/><clipPath id="clip-path"><polygon class="cls-1" points="631.4 323.12 700.48 326.56 697.05 365.8 707.27 349.44 767.3 383.86 725.75 450.44 665.71 416.02 673.37 403.75 624.53 401.31 631.4 323.12"/></clipPath><linearGradient id="Безымянный_градиент_346" x1="457.17" y1="451.82" x2="875.25" y2="451.82" gradientUnits="userSpaceOnUse"><stop offset="0" stop-color="#4a4689"/><stop offset="0.25" stop-color="#724694"/><stop offset="0.82" stop-color="#d546af"/><stop offset="1" stop-color="#f746b8"/></linearGradient><linearGradient id="Безымянный_градиент_342" x1="645.28" y1="644.94" x2="687.27" y2="326.9" gradientUnits="userSpaceOnUse"><stop offset="0" stop-color="#ff94d6"/><stop offset="0.47" stop-color="#ffa7af"/><stop offset="1" stop-color="#ffbe7d"/></linearGradient><linearGradient id="Безымянный_градиент_342-2" x1="966.03" y1="547.75" x2="1206.29" y2="292.55" xlink:href="#Безымянный_градиент_342"/><linearGradient id="Безымянный_градиент_346-2" x1="477.25" y1="472.32" x2="564.25" y2="472.32" xlink:href="#Безымянный_градиент_346"/><linearGradient id="Безымянный_градиент_342-3" x1="1009.11" y1="489.87" x2="1062.84" y2="432.79" xlink:href="#Безымянный_градиент_342"/><clipPath id="clip-path-2"><polygon class="cls-1" points="1040.65 358.7 1040.87 359.09 973.25 395.27 1006.98 454.89 1074.42 418.81 1074.54 419.03 1144.36 383.18 1110.47 322.84 1040.65 358.7"/></clipPath><linearGradient id="Безымянный_градиент_342-4" x1="646.28" y1="641.94" x2="688.27" y2="323.9" xlink:href="#Безымянный_градиент_342"/><linearGradient id="Безымянный_градиент_342-5" x1="967.03" y1="544.75" x2="1207.28" y2="289.55" xlink:href="#Безымянный_градиент_342"/><linearGradient id="Безымянный_градиент_346-3" x1="458.17" y1="448.82" x2="876.25" y2="448.82" xlink:href="#Безымянный_градиент_346"/><linearGradient id="Безымянный_градиент_346-4" x1="478.25" y1="469.32" x2="565.25" y2="469.32" xlink:href="#Безымянный_градиент_346"/><linearGradient id="Безымянный_градиент_342-6" x1="1010.11" y1="486.87" x2="1063.84" y2="429.79" xlink:href="#Безымянный_градиент_342"/><clipPath id="clip-path-3"><polygon class="cls-1" points="1246.9 377.13 1215.16 388.09 1238.71 313.73 1172 295.32 1148.31 370.15 1214.34 388.37 1172.71 402.75 1197.72 467.27 1271.91 441.66 1246.9 377.13"/></clipPath><linearGradient id="Безымянный_градиент_342-7" x1="646.28" y1="644.94" x2="688.27" y2="326.9" xlink:href="#Безымянный_градиент_342"/><linearGradient id="Безымянный_градиент_342-8" x1="967.03" y1="547.76" x2="1207.29" y2="292.55" xlink:href="#Безымянный_градиент_342"/><linearGradient id="Безымянный_градиент_346-5" x1="458.17" y1="451.82" x2="876.25" y2="451.82" xlink:href="#Безымянный_градиент_346"/><linearGradient id="Безымянный_градиент_346-6" x1="478.25" y1="472.32" x2="565.25" y2="472.32" xlink:href="#Безымянный_градиент_346"/><linearGradient id="Безымянный_градиент_342-9" x1="1010.11" y1="489.87" x2="1063.84" y2="432.79" xlink:href="#Безымянный_градиент_342"/><linearGradient id="Безымянный_градиент_356" x1="1153.89" y1="684.01" x2="1153.89" y2="624.75" gradientUnits="userSpaceOnUse"><stop offset="0" stop-color="#1a66c9"/><stop offset="1" stop-color="#3ac7ff"/></linearGradient><linearGradient id="Безымянный_градиент_356-2" x1="1089.94" y1="685.13" x2="1089.94" y2="625.87" xlink:href="#Безымянный_градиент_356"/><linearGradient id="Безымянный_градиент_276" x1="1076.32" y1="413.25" x2="1167.68" y2="413.25" gradientUnits="userSpaceOnUse"><stop offset="0" stop-color="#b75ab9"/><stop offset="1" stop-color="#f95ab9"/></linearGradient><linearGradient id="Безымянный_градиент_311-5" x1="1121.66" y1="559.34" x2="1121.66" y2="651.43" xlink:href="#Безымянный_градиент_311"/><linearGradient id="Безымянный_градиент_311-6" x1="1068.73" y1="548.15" x2="1068.73" y2="621.85" gradientTransform="translate(998.54 -629.51) rotate(57.86)" xlink:href="#Безымянный_градиент_311"/><linearGradient id="Безымянный_градиент_311-7" x1="1174.76" y1="551.5" x2="1174.76" y2="625.21" gradientTransform="translate(811.54 -673.73) rotate(47.31)" xlink:href="#Безымянный_градиент_311"/><linearGradient id="Безымянный_градиент_311-8" x1="1121.28" y1="444.43" x2="1121.28" y2="560.06" xlink:href="#Безымянный_градиент_311"/><linearGradient id="Безымянный_градиент_295" x1="1035.57" y1="384.8" x2="1081.66" y2="384.8" gradientUnits="userSpaceOnUse"><stop offset="0" stop-color="#004174"/><stop offset="1" stop-color="#467ca6"/></linearGradient><linearGradient id="Безымянный_градиент_295-2" x1="609.49" y1="364.04" x2="713.72" y2="368.26" xlink:href="#Безымянный_градиент_295"/><linearGradient id="Безымянный_градиент_295-3" x1="529.39" y1="395.45" x2="636.62" y2="369.24" xlink:href="#Безымянный_градиент_295"/><linearGradient id="Безымянный_градиент_311-9" x1="551.65" y1="448.65" x2="548.42" y2="617.47" xlink:href="#Безымянный_градиент_311"/><linearGradient id="Безымянный_градиент_311-10" x1="568.28" y1="527.77" x2="538.75" y2="559.49" xlink:href="#Безымянный_градиент_311"/><linearGradient id="Безымянный_градиент_311-11" x1="497.04" y1="447.6" x2="493.81" y2="616.42" gradientTransform="translate(82.93 -68.07) rotate(8.57)" xlink:href="#Безымянный_градиент_311"/><linearGradient id="Безымянный_градиент_311-12" x1="536.81" y1="423.25" x2="536.81" y2="508.55" xlink:href="#Безымянный_градиент_311"/><linearGradient id="Безымянный_градиент_311-13" x1="591.15" y1="449.4" x2="587.92" y2="618.22" gradientTransform="translate(931.02 -187.84) rotate(74.17)" xlink:href="#Безымянный_градиент_311"/><linearGradient id="Безымянный_градиент_311-14" x1="1189.55" y1="868.39" x2="351.4" y2="888.75" gradientTransform="translate(40.29 -37.27) rotate(2.59)" xlink:href="#Безымянный_градиент_311"/></defs><title>Ресурс 1</title><g id="Слой_2" data-name="Слой 2"><g id="Слой_1-2" data-name="Слой 1"><path class="cls-2" d="M1306.19,731.34c-263.14,171.82-542.91,245.4-722.87,274.09C373,1039,56.1,923.34,13.25,729.82c-58-262,147.37-483.73,490.6-351.21"/><path class="cls-3" d="M848.06,132c107.19-208.15,641.19-163.15,730.56,86.25,79.46,221.79-76.83,362.34-352.83,542.56"/><path class="cls-4" d="M1137,593.66C925.33,613.2,832.57,664.6,715.66,858.29s-424.67,234-511,55.45C146,792.34,154.19,644.31,232.88,511q6.1-10.34,12.78-20.56C271.41,451,303.5,413.05,342,377.73h0q19.71-18.08,41.66-35.16,3.69-2.88,7.45-5.72C520,239.35,676.23,179,813.66,147.43q13.11-3,26-5.69,12-2.49,23.69-4.66,10.06-1.91,19.94-3.56s0,0,0,0c63.55-10.75,120.65-14.94,165.85-13.58,130.49,3.93,327.07,70.06,342.29,194.63C1405.6,430.77,1348.76,574.12,1137,593.66Z"/><g class="cls-5"><path class="cls-6" d="M246,635.55a385.68,385.68,0,0,1-58.14,142.68l-13.33-8.85a369.72,369.72,0,0,0,55.75-136.79A369.72,369.72,0,0,0,232.88,511q6.1-10.34,12.78-20.56A386.68,386.68,0,0,1,246,635.55Z"/></g><g class="cls-5"><path class="cls-6" d="M317.2,491a369.79,369.79,0,0,0,0,147.72l-15.69,3.16A386.79,386.79,0,0,1,342,377.73h0q19.71-18.08,41.66-35.16-6.09,8.18-11.76,16.71A370.72,370.72,0,0,0,317.2,491Z"/></g><g class="cls-7"><path class="cls-6" d="M839.63,141.74c-2.41,2.64-4.76,5.32-7.07,8a375.47,375.47,0,0,0-77,145.63,368.16,368.16,0,0,0-5.34,170.24l-15.68,3.16a384,384,0,0,1,5.57-177.57,391.86,391.86,0,0,1,73.58-143.78Q826.77,144.4,839.63,141.74Z"/></g><g class="cls-8"><path class="cls-6" d="M1007.25,417.82h-16A371,371,0,0,0,868,141.19q-2.3-2.07-4.64-4.11,10.06-1.91,19.94-3.56s0,0,0,0a386.88,386.88,0,0,1,124,284.3Z"/></g><path class="cls-9" d="M556.1,1158.32c-20.22,0-39.53-.65-57.38-1.94C410,1150,318,1122.52,246.48,1081c-59.28-34.43-132.86-95.11-146.69-188.64-6-40.78-4.82-82.57,3.48-120.85,9.5-43.78,27.8-82.42,54.41-114.86,25.72-31.36,59-56.46,98.88-74.59,44-20,96.55-31.67,156.11-34.66,144.87-7.29,235.58-27.9,313.1-71.12,80.13-44.69,149.06-116.14,230.46-238.89a388.27,388.27,0,0,1,150-132.29A415.43,415.43,0,0,1,1291.11,61.6c65.54,0,127.85,15.6,180.19,45.12,55.57,31.34,97.81,77.57,122.17,133.7,25.18,58.06,39.57,117.24,42.77,175.92a461.78,461.78,0,0,1-24.81,176.29c-20.27,58.84-52.68,115.77-96.31,169.23-45.21,55.37-102.91,107.51-171.49,155-60.6,41.92-128.53,79.63-201.91,112.09a1518.08,1518.08,0,0,1-211,74.74C802.34,1138.9,669.31,1158.32,556.1,1158.32Z"/><path class="cls-6" d="M1291.11,65.1c127.61,0,248.6,60.21,299.14,176.72,99.64,229.66,30.87,478.76-248.61,672.12-254,175.71-582.53,240.88-785.54,240.88-20.39,0-39.48-.66-57.13-1.93-164.65-11.82-372-101-395.72-261.07-21-142,41.08-327.45,309.59-341s388.41-73.46,546.3-311.57c77.81-117.32,208-174.18,332-174.19m0-7h0a419.15,419.15,0,0,0-186.42,43.84,396.22,396.22,0,0,0-82.88,55.36,387.1,387.1,0,0,0-68.5,78.12C872.24,357.68,803.68,428.79,724.06,473.19c-40,22.31-84.58,38.64-136.28,49.94-48.41,10.57-104.1,17.16-175.29,20.74-60,3-112.94,14.79-157.38,35C214.73,597.2,181,622.62,155,654.4c-27,32.87-45.5,72-55.12,116.33-8.39,38.7-9.61,80.92-3.52,122.11C107.44,968,158.75,1034.06,244.73,1084c72,41.81,164.48,69.47,253.73,75.87,17.95,1.29,37.34,2,57.64,2,53.56,0,112-4.38,173.64-13A1602.82,1602.82,0,0,0,931.61,1107a1520.64,1520.64,0,0,0,211.52-74.91c73.58-32.54,141.71-70.36,202.49-112.42,68.85-47.63,126.79-100,172.21-155.62,43.9-53.77,76.5-111.07,96.91-170.3a465.32,465.32,0,0,0,25-177.62c-3.22-59.09-17.7-118.68-43-177.12a278.37,278.37,0,0,0-51.41-78.73A297.39,297.39,0,0,0,1473,103.68c-52.86-29.82-115.76-45.58-181.89-45.58Z"/><rect class="cls-10" x="778.55" y="853.47" width="163" height="22.35" transform="translate(17.5 -17.06) rotate(1.15)"/><path class="cls-10" d="M979.33,904.27l-242.75-15c-9.38-.42-16.64-4.37-16.22-13.75h0a17,17,0,0,1,17.75-16.21l242.76,11a17,17,0,0,1,16.21,17.75h0A17,17,0,0,1,979.33,904.27Z"/><path class="cls-11" d="M1590.25,241.82a270.53,270.53,0,0,0-50-76.64c-17.63,101.36-102.76,206.2-272.48,271.14-311,119-62,559-424,549-290-8-513.85-75.05-724.07-38.19,57.14,125.32,234.69,195.38,379.29,205.76,193.44,13.89,563.19-45.59,842.67-239S1689.89,471.48,1590.25,241.82Z"/><path class="cls-12" d="M1602.14,607.86q-4,10.32-8.46,20.58h0c-40.35,92.2-112,180.77-217.83,260.75q-9.4,7.11-19.16,14.12-7.43,5.34-15,10.62c-115,79.55-245.26,136.45-372.25,174.9q-7.7,2.33-15.38,4.56c-166.8,48.67-326.61,65.65-437,60.56q-8.7-.4-17-1l-1-.07a621.33,621.33,0,0,1-126.15-22.74q-8.79-2.55-17.51-5.34c-102.09-32.7-196.74-92.4-235.63-177.69,41.81-7.33,84.16-10.56,127.46-11q11.44-.09,23,.05c117.93,1.52,243.35,22,384.39,36.27q13.62,1.38,27.44,2.67c51.71,4.81,105.52,8.6,161.83,10.15,33.68.93,62.07-2,86.1-8.27q8.24-2.13,15.79-4.78c210.52-73.3,46.64-430.55,322.11-535.95Q1294,426.27,1317.62,415q7.8-3.72,15.3-7.56c69.86-35.72,121.09-79.14,155.55-125.56q4.85-6.53,9.25-13.13c22.53-33.77,36.47-68.86,42.51-103.55a270.81,270.81,0,0,1,50,76.64c22.68,52.29,36.64,105.58,41.37,159q1.59,18.14,1.78,36.28A459.85,459.85,0,0,1,1602.14,607.86Z"/><g class="cls-5"><path class="cls-6" d="M372.81,1130.16q-8.79-2.55-17.51-5.34a370.36,370.36,0,0,0-52.44-122.67,368,368,0,0,0-55.73-66q11.44-.09,23,.05a384.89,384.89,0,0,1,46.12,57.09A386.49,386.49,0,0,1,372.81,1130.16Z"/></g><g class="cls-5"><path class="cls-6" d="M681.92,975.17a366.7,366.7,0,0,0-33.84,20.56A374.2,374.2,0,0,0,517,1154q-8.7-.4-17-1A390.06,390.06,0,0,1,639.06,982.51q7.61-5.19,15.42-10Q668.1,973.88,681.92,975.17Z"/></g><g class="cls-13"><polygon class="cls-6" points="1071.54 419.03 1037.65 358.7 1107.47 322.84 1141.37 383.18 1071.54 419.03"/></g><g class="cls-13"><polygon class="cls-6" points="1194.72 464.27 1169.71 399.75 1243.9 374.13 1268.91 438.66 1194.72 464.27"/></g><g class="cls-7"><path class="cls-6" d="M1602.14,607.86q-4,10.32-8.46,20.58h0a371.14,371.14,0,0,0-164.74,136.81,370.85,370.85,0,0,0-53.09,123.94q-9.4,7.11-19.16,14.12.86-4.8,1.83-9.59a387.84,387.84,0,0,1,243.62-285.87Z"/></g><g class="cls-13"><polygon class="cls-6" points="1212.01 385.56 1145.31 367.15 1169 292.32 1235.71 310.73 1212.01 385.56"/></g><g class="cls-8"><path class="cls-6" d="M1633.4,437.1a374.18,374.18,0,0,0-144.93-155.24q4.85-6.53,9.25-13.13a390.77,390.77,0,0,1,133.9,132.09Q1633.21,419,1633.4,437.1Z"/></g><g class="cls-5"><path class="cls-6" d="M1310.79,586.08a386.8,386.8,0,0,1-202.3,217.4l-6.65-14.56a372.43,372.43,0,0,0,217.33-349.11q-.36-12.48-1.55-24.83,7.8-3.72,15.3-7.56,1.78,15.85,2.24,31.93A386.61,386.61,0,0,1,1310.79,586.08Z"/></g><g class="cls-5"><path class="cls-6" d="M969.39,1088.84q-7.7,2.33-15.38,4.56a392.65,392.65,0,0,1-24.16-116.35q8.24-2.13,15.79-4.78a376.34,376.34,0,0,0,23.75,116.57Z"/></g><path class="cls-10" d="M1309,868.68,429.15,836.91a17.09,17.09,0,0,1-16.48-17.08v-510a17.09,17.09,0,0,1,16.48-17.08L1309,261A17.09,17.09,0,0,1,1326.67,278V851.59A17.09,17.09,0,0,1,1309,868.68Z"/><path class="cls-14" d="M926.35,833.22v29a17,17,0,0,1-17,17l-129-.08a17,17,0,0,1-17-17v-29a17,17,0,0,1,17-17l129,.1A17,17,0,0,1,926.35,833.22Z"/><path class="cls-10" d="M926.35,833.22v12.64l-163-5.88v-6.87a17,17,0,0,1,17-17l129,.1A17,17,0,0,1,926.35,833.22Z"/><path class="cls-15" d="M1285.48,847.77,400.8,815.83a14.67,14.67,0,0,1-14.13-14.65V297.57a26.19,26.19,0,0,1,25.24-26.17l873.57-31.54a14.66,14.66,0,0,1,15.19,14.65V833.12A14.66,14.66,0,0,1,1285.48,847.77Z"/><path class="cls-16" d="M1284.17,267.26V820.38a13.44,13.44,0,0,1-13.94,13.42L917,820.63,424.17,802.25l-12.07-.45a13.43,13.43,0,0,1-12.93-13.42V299.26a13.43,13.43,0,0,1,12.93-13.42l858.13-32A13.44,13.44,0,0,1,1284.17,267.26Z"/><g class="cls-8"><path class="cls-17" d="M1247.56,809.81l-289-7.13c-2.43-.25-4.36-5.65-4.36-12.22V301.19c0-6.58,1.93-12,4.36-12.23l289-7.13c2.56-.25,4.69,5.29,4.69,12.23V797.59C1252.25,804.52,1250.12,810.07,1247.56,809.81Z"/><path class="cls-17" d="M909.27,616.81,431.37,611a7.48,7.48,0,0,1-7.2-7.48V312.13a7.48,7.48,0,0,1,7.2-7.48l477.9-10.82a7.49,7.49,0,0,1,7.76,7.48v308A7.48,7.48,0,0,1,909.27,616.81Z"/><path class="cls-17" d="M917,648.31V820.63l-22.14-.83-194.09-7.23L424.17,802.25V644c0-3.39,3.18-6.17,7.2-6.29L909.26,642C913.5,641.88,917,644.74,917,648.31Z"/><path class="cls-18" d="M1224.29,497.81l-244.35-2.59a4.2,4.2,0,0,1-3.69-4.44V314.87a4.2,4.2,0,0,1,3.69-4.45l244.35-4.59c2.16-.09,4,1.92,4,4.44v183.1C1228.25,495.89,1226.45,497.91,1224.29,497.81Z"/><path class="cls-18" d="M1224.29,651.81l-244.35-5.87a3.53,3.53,0,0,1-3.69-3.21V514.63a3.55,3.55,0,0,1,3.69-3.21l244.35,1.74c2.16-.06,4,1.39,4,3.21V648.6C1228.25,650.42,1226.45,651.88,1224.29,651.81Z"/><line class="cls-19" x1="1215.9" y1="313.82" x2="1207.25" y2="322.4"/><line class="cls-19" x1="1215.71" y1="322.58" x2="1207.25" y2="314.29"/><line class="cls-19" x1="1218.25" y1="521.06" x2="1209.61" y2="529.64"/><line class="cls-19" x1="1218.06" y1="529.82" x2="1209.61" y2="521.53"/><path class="cls-18" d="M1224.29,794.81l-244.35-7.23c-2.06-.06-3.69-1.36-3.69-3V665.77c0-1.59,1.63-2.89,3.69-2.95l244.35,4.59c2.16-.06,4,1.28,4,3v121.5C1228.25,793.54,1226.45,794.88,1224.29,794.81Z"/><line class="cls-19" x1="1218.25" y1="675.62" x2="1209.61" y2="684.21"/><line class="cls-19" x1="1218.06" y1="684.38" x2="1209.61" y2="676.1"/><path class="cls-20" d="M869.67,588.81l-405.39-4.94a6.34,6.34,0,0,1-6.11-6.34V330.35a6.35,6.35,0,0,1,6.11-6.34l405.39-9.18a6.34,6.34,0,0,1,6.58,6.34v261.3A6.34,6.34,0,0,1,869.67,588.81Z"/><path class="cls-18" d="M446.91,654.36l188.87,1.48a4.5,4.5,0,0,1-.07,9h-.05l-188.85-3.48a3.5,3.5,0,0,1,.1-7Z"/><path class="cls-18" d="M446.32,676.37l188.87,1.47a4.5,4.5,0,1,1-.07,9h0l-188.84-3.47a3.5,3.5,0,0,1,.09-7Z"/><path class="cls-18" d="M446.32,721.37l123,.61a4.5,4.5,0,0,1,0,9h-.08l-123-2.61a3.5,3.5,0,0,1,.09-7Z"/><path class="cls-18" d="M705.92,655.36l188.86,2.48a4.5,4.5,0,1,1-.12,9L705.8,664.36a4.5,4.5,0,0,1,.12-9Z"/><path class="cls-18" d="M705.33,677.37l188.86,2.47a4.5,4.5,0,1,1-.12,9l-188.86-2.47a4.5,4.5,0,0,1,.12-9Z"/><path class="cls-18" d="M705.16,700.37,894,702.84a4.5,4.5,0,1,1-.12,9L705,709.37a4.5,4.5,0,0,1,.12-9Z"/><path class="cls-18" d="M705.33,722.37l189,2.48a4.5,4.5,0,0,1-.12,9l-189-2.48a4.5,4.5,0,0,1,.12-9Z"/><path class="cls-18" d="M446.14,761.37,635,762.84a4.5,4.5,0,0,1-.07,9h-.05l-188.85-3.47a3.5,3.5,0,0,1,.09-7Z"/><path class="cls-18" d="M446.14,781.37,635,782.84a4.5,4.5,0,0,1-.07,9h-.05l-188.85-3.47a3.5,3.5,0,0,1,.09-7Z"/><path class="cls-21" d="M705.33,764.37l120,1.57a4.5,4.5,0,1,1-.12,9l-120-1.57a4.5,4.5,0,0,1,.12-9Z"/><path class="cls-18" d="M705.16,786.37,894,788.84a4.5,4.5,0,1,1-.12,9L705,795.37a4.5,4.5,0,0,1,.12-9Z"/><path class="cls-18" d="M898.76,815.41a4.51,4.51,0,0,1-3.88,4.39l-194.09-7.23a4.48,4.48,0,0,1,4.54-4.2l189,2.48A4.5,4.5,0,0,1,898.76,815.41Z"/><path class="cls-22" d="M480.78,335.38l188.85-3.06a6.5,6.5,0,0,1,.21,13h0l-188.87,2.06a6,6,0,0,1-.16-12Z"/><path class="cls-23" d="M481.85,366.68l369.4.2a5.5,5.5,0,0,1,0,11l-369.41-.2a5.5,5.5,0,0,1,0-11Z"/><path class="cls-23" d="M481.25,388.69l369.41.2a5.5,5.5,0,0,1,0,11l-369.4-.2a5.5,5.5,0,0,1,0-11Z"/><path class="cls-23" d="M481.49,411.69l369.4.2a5.5,5.5,0,0,1,0,11l-369.41-.2a5.5,5.5,0,0,1,0-11Z"/><path class="cls-23" d="M482.49,433.69l274.76.15a5.5,5.5,0,0,1,0,11l-274.77-.15a5.5,5.5,0,0,1,0-11Z"/><rect class="cls-24" x="478.25" y="460.82" width="87" height="23" rx="9.27" ry="9.27"/></g><g class="cls-25"><g class="cls-13"><path class="cls-26" d="M868.67,314.83,463.28,324a6.35,6.35,0,0,0-6.11,6.34V577.53a6.34,6.34,0,0,0,6.11,6.34l405.39,4.94a6.34,6.34,0,0,0,6.58-6.34V321.17A6.34,6.34,0,0,0,868.67,314.83ZM479.78,335.38l188.85-3.06a6.5,6.5,0,0,1,.21,13h0l-188.87,2.06a6,6,0,0,1-.16-12Zm84.47,139.17a9.27,9.27,0,0,1-9.26,9.27H486.52a9.27,9.27,0,0,1-9.27-9.27v-4.47a9.27,9.27,0,0,1,9.27-9.26H555a9.27,9.27,0,0,1,9.26,9.26Zm192-29.71-274.77-.15a5.5,5.5,0,0,1,0-11l274.76.15a5.5,5.5,0,0,1,0,11Zm93.64-21.95-369.41-.2a5.5,5.5,0,0,1,0-11l369.4.2a5.5,5.5,0,0,1,0,11Zm-375.14-28.7a5.5,5.5,0,0,1,5.5-5.5l369.41.2a5.5,5.5,0,0,1,0,11l-369.4-.2A5.5,5.5,0,0,1,474.75,394.19Zm375.5-16.31-369.41-.2a5.5,5.5,0,0,1,0-11l369.4.2a5.5,5.5,0,0,1,0,11Z"/></g><path class="cls-27" d="M908.27,293.83l-477.9,10.82a7.48,7.48,0,0,0-7.2,7.48V603.51a7.48,7.48,0,0,0,7.2,7.48l477.9,5.82a7.48,7.48,0,0,0,7.76-7.48v-308A7.49,7.49,0,0,0,908.27,293.83Zm-33,288.64a6.34,6.34,0,0,1-6.58,6.34l-405.39-4.94a6.34,6.34,0,0,1-6.11-6.34V330.35a6.35,6.35,0,0,1,6.11-6.34l405.39-9.18a6.34,6.34,0,0,1,6.58,6.34Z"/><path class="cls-28" d="M1269.23,253.84l-858.13,32a13.43,13.43,0,0,0-12.93,13.42V788.38A13.43,13.43,0,0,0,411.1,801.8l12.07.45L916,820.63l353.21,13.17a13.44,13.44,0,0,0,13.94-13.42V267.26A13.44,13.44,0,0,0,1269.23,253.84ZM916,609.33a7.48,7.48,0,0,1-7.76,7.48L430.37,611a7.48,7.48,0,0,1-7.2-7.48V312.13a7.48,7.48,0,0,1,7.2-7.48l477.9-10.82a7.49,7.49,0,0,1,7.76,7.48Zm335.22,188.26c0,6.93-2.13,12.48-4.69,12.22l-289-7.13c-2.43-.25-4.36-5.65-4.36-12.22V301.19c0-6.58,1.93-12,4.36-12.23l289-7.13c2.56-.25,4.69,5.29,4.69,12.23Z"/><path class="cls-29" d="M1246.56,281.83l-289,7.13c-2.43.25-4.36,5.65-4.36,12.23V790.46c0,6.57,1.93,12,4.36,12.22l289,7.13c2.56.26,4.69-5.29,4.69-12.22V294.06C1251.25,287.12,1249.12,281.58,1246.56,281.83Zm-19.31,211.54c0,2.52-1.8,4.54-4,4.44l-244.35-2.59a4.2,4.2,0,0,1-3.69-4.44V314.87a4.2,4.2,0,0,1,3.69-4.45l244.35-4.59c2.16-.09,4,1.92,4,4.44Z"/><path class="cls-30" d="M1223.29,305.83l-244.35,4.59a4.2,4.2,0,0,0-3.69,4.45V490.78a4.2,4.2,0,0,0,3.69,4.44l244.35,2.59c2.16.1,4-1.92,4-4.44V310.27C1227.25,307.75,1225.45,305.74,1223.29,305.83ZM998.78,324.71,1102,323a6.5,6.5,0,0,1,.22,13h-.06l-103.23.72a6,6,0,0,1-.14-12Zm84.47,134.84a9.27,9.27,0,0,1-9.26,9.27h-68.47a9.27,9.27,0,0,1-9.27-9.27v-4.47a9.27,9.27,0,0,1,9.27-9.26H1074a9.27,9.27,0,0,1,9.26,9.26Zm66.63-29.71-150.14-.15a5.5,5.5,0,0,1,0-11l150.15.15a5.5,5.5,0,0,1,0,11Zm51.17-21.95-201.85-.2a5.5,5.5,0,1,1,0-11l201.85.2a5.5,5.5,0,1,1,0,11Zm-207.48-28.7a5.51,5.51,0,0,1,5.51-5.5l201.85.2a5.5,5.5,0,1,1,0,11l-201.85-.2A5.5,5.5,0,0,1,993.57,379.19Zm207.68-16.31-201.86-.2a5.5,5.5,0,0,1,0-11l201.85.2a5.5,5.5,0,0,1,0,11Z"/><path class="cls-31" d="M479.94,347.38l188.87-2.06h0a6.5,6.5,0,0,0-.21-13l-188.85,3.06a6,6,0,0,0,.16,12Z"/><path class="cls-32" d="M850.25,366.88l-369.4-.2a5.5,5.5,0,0,0,0,11l369.41.2a5.5,5.5,0,0,0,0-11Z"/><path class="cls-32" d="M480.25,399.69l369.4.2a5.5,5.5,0,0,0,0-11l-369.41-.2a5.5,5.5,0,0,0,0,11Z"/><path class="cls-32" d="M849.89,411.89l-369.4-.2a5.5,5.5,0,0,0,0,11l369.41.2a5.5,5.5,0,0,0,0-11Z"/><path class="cls-32" d="M756.25,433.84l-274.76-.15a5.5,5.5,0,0,0,0,11l274.77.15a5.5,5.5,0,0,0,0-11Z"/><g class="cls-13"><rect class="cls-33" x="477.25" y="460.82" width="87" height="23" rx="9.27" ry="9.27"/></g><rect class="cls-34" x="477.25" y="460.82" width="87" height="23" rx="9.27" ry="9.27"/><path class="cls-35" d="M998.92,336.71l103.23-.72h.06a6.5,6.5,0,0,0-.22-13l-103.21,1.72a6,6,0,0,0,.14,12Z"/><path class="cls-36" d="M1201.26,351.88l-201.85-.2a5.5,5.5,0,0,0,0,11l201.86.2a5.5,5.5,0,0,0,0-11Z"/><path class="cls-36" d="M999.07,384.69l201.85.2a5.5,5.5,0,1,0,0-11l-201.85-.2a5.5,5.5,0,1,0,0,11Z"/><path class="cls-36" d="M1201.06,396.89l-201.85-.2a5.5,5.5,0,1,0,0,11l201.85.2a5.5,5.5,0,1,0,0-11Z"/><path class="cls-36" d="M1149.9,418.84l-150.15-.15a5.5,5.5,0,0,0,0,11l150.14.15a5.5,5.5,0,0,0,0-11Z"/><rect class="cls-37" x="996.25" y="445.82" width="87" height="23" rx="9.27" ry="9.27"/><rect class="cls-38" x="996.25" y="445.82" width="87" height="23" rx="9.27" ry="9.27"/></g><g class="cls-39"><path class="cls-17" d="M917,645.31V817.63l-22.14-.83-194.09-7.23L424.17,799.25V641c0-3.39,3.18-6.17,7.2-6.29L909.26,639C913.5,638.88,917,641.74,917,645.31Z"/><path class="cls-18" d="M1224.29,648.81l-244.35-5.87a3.53,3.53,0,0,1-3.69-3.21V511.63a3.55,3.55,0,0,1,3.69-3.21l244.35,1.74c2.16-.06,4,1.39,4,3.21V645.6C1228.25,647.42,1226.45,648.88,1224.29,648.81Z"/><line class="cls-40" x1="1215.9" y1="310.82" x2="1207.25" y2="319.4"/><line class="cls-40" x1="1215.71" y1="319.58" x2="1207.25" y2="311.29"/><line class="cls-19" x1="1218.25" y1="518.06" x2="1209.61" y2="526.64"/><line class="cls-19" x1="1218.06" y1="526.82" x2="1209.61" y2="518.53"/><path class="cls-18" d="M1224.29,791.81l-244.35-7.23c-2.06-.06-3.69-1.36-3.69-3V662.77c0-1.59,1.63-2.89,3.69-2.95l244.35,4.59c2.16-.06,4,1.28,4,3v121.5C1228.25,790.54,1226.45,791.88,1224.29,791.81Z"/><line class="cls-19" x1="1218.25" y1="672.62" x2="1209.61" y2="681.21"/><line class="cls-19" x1="1218.06" y1="681.38" x2="1209.61" y2="673.1"/><path class="cls-18" d="M446.91,651.36l188.87,1.48a4.5,4.5,0,0,1-.07,9h-.05l-188.85-3.48a3.5,3.5,0,0,1,.1-7Z"/><path class="cls-18" d="M446.32,673.37l188.87,1.47a4.5,4.5,0,1,1-.07,9h0l-188.84-3.47a3.5,3.5,0,0,1,.09-7Z"/><path class="cls-18" d="M446.14,696.37,635,697.84a4.5,4.5,0,0,1-.07,9h-.05l-188.85-3.47a3.5,3.5,0,0,1,.09-7Z"/><path class="cls-18" d="M446.32,718.37l123,.61a4.5,4.5,0,0,1,0,9h-.08l-123-2.61a3.5,3.5,0,0,1,.09-7Z"/><path class="cls-18" d="M705.92,652.36l188.86,2.48a4.5,4.5,0,1,1-.12,9L705.8,661.36a4.5,4.5,0,0,1,.12-9Z"/><path class="cls-18" d="M705.33,674.37l188.86,2.47a4.5,4.5,0,1,1-.12,9l-188.86-2.47a4.5,4.5,0,0,1,.12-9Z"/><path class="cls-18" d="M705.16,697.37,894,699.84a4.5,4.5,0,1,1-.12,9L705,706.37a4.5,4.5,0,0,1,.12-9Z"/><path class="cls-18" d="M705.33,719.37l189,2.48a4.5,4.5,0,0,1-.12,9l-189-2.48a4.5,4.5,0,0,1,.12-9Z"/><path class="cls-18" d="M446.14,758.37,635,759.84a4.5,4.5,0,0,1-.07,9h-.05l-188.85-3.47a3.5,3.5,0,0,1,.09-7Z"/><path class="cls-18" d="M446.14,778.37,635,779.84a4.5,4.5,0,0,1-.07,9h-.05l-188.85-3.47a3.5,3.5,0,0,1,.09-7Z"/><path class="cls-21" d="M705.33,761.37l120,1.57a4.5,4.5,0,1,1-.12,9l-120-1.57a4.5,4.5,0,0,1,.12-9Z"/><path class="cls-18" d="M705.16,783.37,894,785.84a4.5,4.5,0,1,1-.12,9L705,792.37a4.5,4.5,0,0,1,.12-9Z"/><path class="cls-18" d="M898.76,812.41a4.51,4.51,0,0,1-3.88,4.39l-194.09-7.23a4.48,4.48,0,0,1,4.54-4.2l189,2.48A4.5,4.5,0,0,1,898.76,812.41Z"/><path class="cls-28" d="M1270.23,250.84l-858.13,32a13.43,13.43,0,0,0-12.93,13.42V785.38A13.43,13.43,0,0,0,412.1,798.8l12.07.45L917,817.63l353.21,13.17a13.44,13.44,0,0,0,13.94-13.42V264.26A13.44,13.44,0,0,0,1270.23,250.84ZM917,606.33a7.48,7.48,0,0,1-7.76,7.48L431.37,608a7.48,7.48,0,0,1-7.2-7.48V309.13a7.48,7.48,0,0,1,7.2-7.48l477.9-10.82a7.49,7.49,0,0,1,7.76,7.48Zm335.22,188.26c0,6.93-2.13,12.48-4.69,12.22l-289-7.13c-2.44-.25-4.36-5.65-4.36-12.22V298.19c0-6.58,1.92-12,4.36-12.23l289-7.13c2.56-.25,4.69,5.29,4.69,12.23Z"/><path class="cls-29" d="M1247.56,278.83l-289,7.13c-2.44.25-4.36,5.65-4.36,12.23V787.46c0,6.57,1.92,12,4.36,12.22l289,7.13c2.56.26,4.69-5.29,4.69-12.22V291.06C1252.25,284.12,1250.12,278.58,1247.56,278.83Zm-19.31,211.54c0,2.52-1.8,4.54-4,4.44l-244.35-2.59a4.2,4.2,0,0,1-3.69-4.44V311.87a4.2,4.2,0,0,1,3.69-4.45l244.35-4.59c2.16-.09,4,1.92,4,4.44Z"/><path class="cls-41" d="M909.27,290.83l-477.9,10.82a7.48,7.48,0,0,0-7.2,7.48V600.51a7.48,7.48,0,0,0,7.2,7.48l477.9,5.82a7.48,7.48,0,0,0,7.76-7.48v-308A7.49,7.49,0,0,0,909.27,290.83Zm-33,288.64a6.34,6.34,0,0,1-6.58,6.34l-405.39-4.94a6.34,6.34,0,0,1-6.11-6.34V327.35a6.35,6.35,0,0,1,6.11-6.34l405.39-9.18a6.34,6.34,0,0,1,6.58,6.34Z"/><path class="cls-42" d="M1224.29,302.83l-244.35,4.59a4.2,4.2,0,0,0-3.69,4.45V487.78a4.2,4.2,0,0,0,3.69,4.44l244.35,2.59c2.16.1,4-1.92,4-4.44V307.27C1228.25,304.75,1226.45,302.74,1224.29,302.83ZM999.78,321.71,1103,320a6.5,6.5,0,0,1,.22,13h-.06l-103.23.72a6,6,0,0,1-.14-12Zm84.47,134.84a9.27,9.27,0,0,1-9.26,9.27h-68.47a9.27,9.27,0,0,1-9.27-9.27v-4.47a9.27,9.27,0,0,1,9.27-9.26H1075a9.27,9.27,0,0,1,9.26,9.26Zm66.63-29.71-150.14-.15a5.5,5.5,0,0,1,0-11l150.14.15a5.5,5.5,0,1,1,0,11Zm51.17-21.95-201.85-.2a5.5,5.5,0,1,1,0-11l201.85.2a5.5,5.5,0,1,1,0,11Zm-207.48-28.7a5.51,5.51,0,0,1,5.51-5.5l201.85.2a5.5,5.5,0,1,1,0,11l-201.85-.2A5.5,5.5,0,0,1,994.57,376.19Zm207.68-16.31-201.86-.2a5.5,5.5,0,0,1,0-11l201.85.2a5.5,5.5,0,0,1,0,11Z"/><g class="cls-13"><path class="cls-43" d="M869.67,311.83,464.28,321a6.35,6.35,0,0,0-6.11,6.34V574.53a6.34,6.34,0,0,0,6.11,6.34l405.39,4.94a6.34,6.34,0,0,0,6.58-6.34V318.17A6.34,6.34,0,0,0,869.67,311.83ZM480.78,332.38l188.85-3.06a6.5,6.5,0,0,1,.21,13h0l-188.87,2.06a6,6,0,0,1-.16-12Zm84.47,139.17a9.27,9.27,0,0,1-9.26,9.27H487.52a9.27,9.27,0,0,1-9.27-9.27v-4.47a9.27,9.27,0,0,1,9.27-9.26H556a9.27,9.27,0,0,1,9.26,9.26Zm192-29.71-274.77-.15a5.5,5.5,0,0,1,0-11l274.76.15a5.5,5.5,0,0,1,0,11Zm93.64-21.95-369.41-.2a5.5,5.5,0,0,1,0-11l369.4.2a5.5,5.5,0,0,1,0,11Zm-375.14-28.7a5.5,5.5,0,0,1,5.5-5.5l369.41.2a5.5,5.5,0,0,1,0,11l-369.4-.2A5.5,5.5,0,0,1,475.75,391.19Zm375.5-16.31-369.41-.2a5.5,5.5,0,0,1,0-11l369.4.2a5.5,5.5,0,0,1,0,11Z"/></g><path class="cls-31" d="M480.94,344.38l188.87-2.06h0a6.5,6.5,0,0,0-.21-13l-188.85,3.06a6,6,0,0,0,.16,12Z"/><path class="cls-32" d="M851.25,363.88l-369.4-.2a5.5,5.5,0,0,0,0,11l369.41.2a5.5,5.5,0,0,0,0-11Z"/><path class="cls-32" d="M481.25,396.69l369.4.2a5.5,5.5,0,0,0,0-11l-369.41-.2a5.5,5.5,0,0,0,0,11Z"/><path class="cls-32" d="M850.89,408.89l-369.4-.2a5.5,5.5,0,0,0,0,11l369.41.2a5.5,5.5,0,0,0,0-11Z"/><path class="cls-32" d="M757.25,430.84l-274.76-.15a5.5,5.5,0,0,0,0,11l274.77.15a5.5,5.5,0,0,0,0-11Z"/><g class="cls-13"><rect class="cls-44" x="478.25" y="457.82" width="87" height="23" rx="9.27" ry="9.27"/></g><rect class="cls-34" x="478.25" y="457.82" width="87" height="23" rx="9.27" ry="9.27"/><path class="cls-35" d="M999.92,333.71l103.23-.72h.06a6.5,6.5,0,0,0-.22-13l-103.21,1.72a6,6,0,0,0,.14,12Z"/><path class="cls-36" d="M1202.26,348.88l-201.85-.2a5.5,5.5,0,0,0,0,11l201.86.2a5.5,5.5,0,0,0,0-11Z"/><path class="cls-36" d="M1000.07,381.69l201.85.2a5.5,5.5,0,1,0,0-11l-201.85-.2a5.5,5.5,0,1,0,0,11Z"/><path class="cls-36" d="M1202.06,393.89l-201.85-.2a5.5,5.5,0,1,0,0,11l201.85.2a5.5,5.5,0,1,0,0-11Z"/><path class="cls-36" d="M1150.89,415.84l-150.14-.15a5.5,5.5,0,0,0,0,11l150.14.15a5.5,5.5,0,1,0,0-11Z"/><rect class="cls-45" x="997.25" y="442.82" width="87" height="23" rx="9.27" ry="9.27"/><rect class="cls-38" x="997.25" y="442.82" width="87" height="23" rx="9.27" ry="9.27"/></g><g class="cls-46"><path class="cls-17" d="M917,648.31V820.63l-22.14-.83-194.09-7.23L424.17,802.25V644c0-3.39,3.18-6.17,7.2-6.29L909.26,642C913.5,641.88,917,644.74,917,648.31Z"/><path class="cls-18" d="M1224.29,651.81l-244.35-5.87a3.53,3.53,0,0,1-3.69-3.21V514.63a3.53,3.53,0,0,1,3.69-3.2l244.35,1.73c2.16-.06,4,1.39,4,3.21V648.6C1228.25,650.43,1226.45,651.88,1224.29,651.81Z"/><line class="cls-40" x1="1215.9" y1="313.82" x2="1207.25" y2="322.4"/><line class="cls-40" x1="1215.71" y1="322.58" x2="1207.25" y2="314.29"/><line class="cls-19" x1="1218.25" y1="521.06" x2="1209.61" y2="529.64"/><line class="cls-19" x1="1218.06" y1="529.82" x2="1209.61" y2="521.53"/><path class="cls-18" d="M1224.29,794.81l-244.35-7.23c-2.06-.06-3.69-1.36-3.69-3V665.77c0-1.59,1.63-2.89,3.69-2.95l244.35,4.59c2.16-.06,4,1.28,4,3V791.87C1228.25,793.54,1226.45,794.88,1224.29,794.81Z"/><line class="cls-19" x1="1218.25" y1="675.62" x2="1209.61" y2="684.21"/><line class="cls-19" x1="1218.06" y1="684.38" x2="1209.61" y2="676.1"/><path class="cls-18" d="M446.91,654.36l188.87,1.48a4.5,4.5,0,0,1-.07,9h-.05l-188.85-3.48a3.5,3.5,0,0,1,.1-7Z"/><path class="cls-18" d="M446.32,676.37l188.87,1.47a4.5,4.5,0,1,1-.07,9h0l-188.84-3.47a3.5,3.5,0,0,1,.09-7Z"/><path class="cls-18" d="M446.14,699.37,635,700.84a4.5,4.5,0,0,1-.07,9h-.05l-188.85-3.47a3.5,3.5,0,0,1,.09-7Z"/><path class="cls-18" d="M446.32,721.37l123,.61a4.5,4.5,0,0,1,0,9h-.08l-123-2.61a3.5,3.5,0,0,1,.09-7Z"/><path class="cls-18" d="M705.92,655.36l188.86,2.48a4.5,4.5,0,1,1-.12,9L705.8,664.36a4.5,4.5,0,0,1,.12-9Z"/><path class="cls-18" d="M705.33,677.37l188.86,2.47a4.5,4.5,0,1,1-.12,9l-188.86-2.47a4.5,4.5,0,0,1,.12-9Z"/><path class="cls-18" d="M705.16,700.37,894,702.84a4.5,4.5,0,1,1-.12,9L705,709.37a4.5,4.5,0,0,1,.12-9Z"/><path class="cls-18" d="M705.33,722.37l189,2.48a4.5,4.5,0,0,1-.12,9l-189-2.48a4.5,4.5,0,0,1,.12-9Z"/><path class="cls-18" d="M446.14,761.37,635,762.84a4.5,4.5,0,0,1-.07,9h-.05l-188.85-3.47a3.5,3.5,0,0,1,.09-7Z"/><path class="cls-18" d="M446.14,781.37,635,782.84a4.5,4.5,0,0,1-.07,9h-.05l-188.85-3.47a3.5,3.5,0,0,1,.09-7Z"/><path class="cls-21" d="M705.33,764.37l120,1.57a4.5,4.5,0,1,1-.12,9l-120-1.57a4.5,4.5,0,0,1,.12-9Z"/><path class="cls-18" d="M705.16,786.37,894,788.84a4.5,4.5,0,1,1-.12,9L705,795.37a4.5,4.5,0,0,1,.12-9Z"/><path class="cls-18" d="M898.76,815.41a4.51,4.51,0,0,1-3.88,4.39l-194.09-7.23a4.48,4.48,0,0,1,4.54-4.2l189,2.48A4.5,4.5,0,0,1,898.76,815.41Z"/><path class="cls-28" d="M1270.23,253.84l-858.13,32a13.43,13.43,0,0,0-12.93,13.42V788.38A13.43,13.43,0,0,0,412.1,801.8l12.07.45L917,820.63l353.21,13.17a13.44,13.44,0,0,0,13.94-13.42V267.26A13.44,13.44,0,0,0,1270.23,253.84ZM917,609.33a7.48,7.48,0,0,1-7.76,7.48L431.37,611a7.48,7.48,0,0,1-7.2-7.48V312.13a7.48,7.48,0,0,1,7.2-7.48l477.9-10.82a7.49,7.49,0,0,1,7.76,7.48Zm335.22,188.26c0,6.93-2.13,12.48-4.69,12.22l-289-7.13c-2.43-.25-4.36-5.65-4.36-12.22V301.19c0-6.58,1.93-12,4.36-12.23l289-7.12c2.56-.26,4.69,5.28,4.69,12.22Z"/><path class="cls-29" d="M1247.56,281.84l-289,7.12c-2.43.25-4.36,5.65-4.36,12.23V790.46c0,6.57,1.93,12,4.36,12.22l289,7.13c2.56.26,4.69-5.29,4.69-12.22V294.06C1252.25,287.12,1250.12,281.58,1247.56,281.84Zm-19.31,211.53c0,2.52-1.8,4.54-4,4.44l-244.35-2.59a4.2,4.2,0,0,1-3.69-4.44V314.87a4.2,4.2,0,0,1,3.69-4.45l244.35-4.59c2.16-.09,4,1.92,4,4.44Z"/><path class="cls-47" d="M909.27,293.83l-477.9,10.82a7.48,7.48,0,0,0-7.2,7.48V603.51a7.48,7.48,0,0,0,7.2,7.48l477.9,5.82a7.48,7.48,0,0,0,7.76-7.48v-308A7.49,7.49,0,0,0,909.27,293.83Zm-33,288.64a6.34,6.34,0,0,1-6.58,6.34l-405.39-4.94a6.34,6.34,0,0,1-6.11-6.34V330.35a6.35,6.35,0,0,1,6.11-6.34l405.39-9.18a6.35,6.35,0,0,1,6.58,6.34Z"/><path class="cls-48" d="M1224.29,305.83l-244.35,4.59a4.2,4.2,0,0,0-3.69,4.45V490.78a4.2,4.2,0,0,0,3.69,4.44l244.35,2.59c2.16.1,4-1.92,4-4.44V310.27C1228.25,307.75,1226.45,305.74,1224.29,305.83ZM999.78,324.71,1103,323a6.5,6.5,0,0,1,.22,13h-.06l-103.23.72a6,6,0,0,1-.14-12Zm84.47,134.84a9.27,9.27,0,0,1-9.26,9.27h-68.47a9.27,9.27,0,0,1-9.27-9.27v-4.47a9.27,9.27,0,0,1,9.27-9.26H1075a9.27,9.27,0,0,1,9.26,9.26Zm66.63-29.71-150.14-.15a5.5,5.5,0,0,1,0-11l150.14.15a5.5,5.5,0,1,1,0,11Zm51.17-21.95-201.85-.2a5.5,5.5,0,1,1,0-11l201.85.2a5.5,5.5,0,1,1,0,11Zm-207.48-28.7a5.51,5.51,0,0,1,5.51-5.5l201.85.2a5.5,5.5,0,1,1,0,11l-201.85-.2A5.5,5.5,0,0,1,994.57,379.19Zm207.68-16.31-201.86-.2a5.5,5.5,0,0,1,0-11l201.85.2a5.5,5.5,0,0,1,0,11Z"/><g class="cls-13"><path class="cls-49" d="M869.67,314.83,464.28,324a6.35,6.35,0,0,0-6.11,6.34V577.53a6.34,6.34,0,0,0,6.11,6.34l405.39,4.94a6.34,6.34,0,0,0,6.58-6.34V321.17A6.35,6.35,0,0,0,869.67,314.83ZM480.78,335.38l188.85-3.06a6.5,6.5,0,0,1,.21,13h0l-188.87,2.06a6,6,0,0,1-.16-12Zm84.47,139.17a9.27,9.27,0,0,1-9.26,9.27H487.52a9.27,9.27,0,0,1-9.27-9.27v-4.47a9.27,9.27,0,0,1,9.27-9.26H556a9.27,9.27,0,0,1,9.26,9.26Zm192-29.71-274.77-.15a5.5,5.5,0,0,1,0-11l274.76.15a5.5,5.5,0,0,1,0,11Zm93.64-21.95-369.41-.2a5.5,5.5,0,0,1,0-11l369.4.2a5.5,5.5,0,0,1,0,11Zm-375.14-28.7a5.5,5.5,0,0,1,5.5-5.5l369.41.2a5.5,5.5,0,0,1,0,11l-369.4-.2A5.5,5.5,0,0,1,475.75,394.19Zm375.5-16.31-369.41-.2a5.5,5.5,0,0,1,0-11l369.4.2a5.5,5.5,0,0,1,0,11Z"/></g><path class="cls-31" d="M480.94,347.38l188.87-2.06h0a6.5,6.5,0,0,0-.21-13l-188.85,3.06a6,6,0,0,0,.16,12Z"/><path class="cls-32" d="M851.25,366.88l-369.4-.2a5.5,5.5,0,0,0,0,11l369.41.2a5.5,5.5,0,0,0,0-11Z"/><path class="cls-32" d="M481.25,399.69l369.4.2a5.5,5.5,0,0,0,0-11l-369.41-.2a5.5,5.5,0,0,0,0,11Z"/><path class="cls-32" d="M850.89,411.89l-369.4-.2a5.5,5.5,0,0,0,0,11l369.41.2a5.5,5.5,0,0,0,0-11Z"/><path class="cls-32" d="M757.25,433.84l-274.76-.15a5.5,5.5,0,0,0,0,11l274.77.15a5.5,5.5,0,0,0,0-11Z"/><g class="cls-13"><rect class="cls-50" x="478.25" y="460.82" width="87" height="23" rx="9.27" ry="9.27"/></g><rect class="cls-34" x="478.25" y="460.82" width="87" height="23" rx="9.27" ry="9.27"/><path class="cls-35" d="M999.92,336.71l103.23-.72h.06a6.5,6.5,0,0,0-.22-13l-103.21,1.72a6,6,0,0,0,.14,12Z"/><path class="cls-36" d="M1202.26,351.88l-201.85-.2a5.5,5.5,0,0,0,0,11l201.86.2a5.5,5.5,0,0,0,0-11Z"/><path class="cls-36" d="M1000.07,384.69l201.85.2a5.5,5.5,0,1,0,0-11l-201.85-.2a5.5,5.5,0,1,0,0,11Z"/><path class="cls-36" d="M1202.06,396.89l-201.85-.2a5.5,5.5,0,1,0,0,11l201.85.2a5.5,5.5,0,1,0,0-11Z"/><path class="cls-36" d="M1150.89,418.84l-150.14-.15a5.5,5.5,0,0,0,0,11l150.14.15a5.5,5.5,0,1,0,0-11Z"/><rect class="cls-51" x="997.25" y="445.82" width="87" height="23" rx="9.27" ry="9.27"/><rect class="cls-38" x="997.25" y="445.82" width="87" height="23" rx="9.27" ry="9.27"/><line class="cls-40" x1="1221.9" y1="313.82" x2="1213.25" y2="322.4"/><line class="cls-40" x1="1221.71" y1="322.58" x2="1213.25" y2="314.29"/></g><path class="cls-52" d="M1028.44,417.36s-2.26.18-4.75-4.27c-3.33-5.94-.24-8.79-.24-8.79s2.38.47,4.51,4.75C1031,415.13,1028.44,417.36,1028.44,417.36Z"/><path class="cls-53" d="M1133,682.28s.71,3.56,9.26,4a35.46,35.46,0,0,0,15-2.37L1143,679.42s11.4-13.3,15-15.68,6.66-4,11.17-1.9,7.6,8.32,6.65,11.88S1168.38,685.84,1161,693c-7,6.79-9.35,9-12.35,10.69-2.61,1.42-14,2.37-16.16-3.33C1130.81,695.83,1133,682.28,1133,682.28Z"/><path class="cls-54" d="M1088.07,683s2.38,3.09,10.7,2.37,11.4-4.27,11.4-4.27,1.9,18.77-.71,20.91-15.92,3.32-19.49,1-10.69-11.65-15.44-16.4-6.65-12.59-4.75-15.92,3.8-6.41,9.5-6.89,14,3.09,14,3.09L1090,679.9Z"/><path class="cls-6" d="M1138.68,447.54c-1.9,4.27-8.08,13.78-7.37,21.86s1.43,11.87,1.43,11.87H1108a19.17,19.17,0,0,0,4-11.4,56.12,56.12,0,0,0-1.66-14.26Z"/><path class="cls-6" d="M1122.76,395.74c-7.84,2.38-16.39,7.84-18.29,15.92a77.23,77.23,0,0,0-1.9,15.68l-10,10.93,5.46,5.47s2.38,13.06,4.52,15.91,16.87.72,20.19-1.18,20-18.06,20-18.06,12.35-13.31,7.13-27.09-13.07-17.1-17.11-17.58A64.23,64.23,0,0,0,1122.76,395.74Z"/><path class="cls-55" d="M1115.4,429.48c-3.8-6.65-3.57-10.22,0-15.21s-.48-13.54-7.13-11.88-11.41,3.57-18.53,1.67-16.63-10.22-12.36-19.48,11.64-11.41,21.62-8.8,13.55,10.93,21.86,9.75,15.21-7.84,26.61-5.94,20.67,15.44,20.2,30.41-2.85,33.26-20.2,39.68-18.53-4-18.53-4,4.51-3.81,5-9.27S1132.5,424,1127,425.2s-8.55,3.8-8.55,7.61S1115.4,429.48,1115.4,429.48Z"/><path class="cls-56" d="M1068.83,584.62c-1.9,5,18.53,95.36,18.53,95.36s1,3,10,3,11.17-4.51,11.17-4.51L1099,583.11s-7.84-12-17.82-11.26S1068.83,584.62,1068.83,584.62Z"/><path class="cls-56" d="M1156.74,679.83s14.25-83.76,14.73-91.77-5.37-14.33-15-16c-12.36-2.18-18.77,12.87-18.77,12.87l-3.09,94.2s1.66,2.92,10.22,3.65S1156.74,679.83,1156.74,679.83Z"/><path class="cls-57" d="M1080,478.66c-8.8,3.57-22.34,10.69-27.33,12.83s-20.9,7.6-20.9,7.6a128.49,128.49,0,0,0-11.88-25.66c-8.08-13.3-8.08-21.62-8.08-21.62l-14.73,4.76s4.27,10.45,5,14,7.12,28.28,11.16,36.35,5.47,13.78,6.89,15.45,3.33,2.14,5.71,1.66,10-2.85,20.67-5.46,28.51-10.46,29.93-11.41,14,57.74,14,57.74h62.25s6.41-55.36,6.41-57.5-6.65,28-6.65,28l9.27,19s9.5-10.69,10.21-17.82-2.85-57-9.26-60.11-25.66-.71-33.5.48-33,.47-36.59.47S1080,478.66,1080,478.66Z"/><path class="cls-58" d="M1072.87,612.9c-.71,8.08,3.09,15.68,21.62,17.58s50.84,2.14,60.11,0,16.39-7.6,15.92-15.68-19.72-11.88-31.84-11.88-41.82,0-48.23,1S1073.32,607.74,1072.87,612.9Z"/><path class="cls-56" d="M1088.31,566.47c-2.14,4.75-14.25,27.8-1.19,39s58.45,6.42,65.1,2.38,16.16-15.68,7.13-34-8.08-16.16-8.08-16.16Z"/><ellipse class="cls-59" cx="1068.73" cy="588.52" rx="14.05" ry="15.84" transform="matrix(0.53, -0.85, 0.85, 0.53, 1.86, 1180.41)"/><ellipse class="cls-60" cx="1174.76" cy="589.41" rx="15.78" ry="14" transform="translate(-54.98 1053.32) rotate(-47.31)"/><ellipse class="cls-61" cx="1121.28" cy="544.24" rx="49.54" ry="43.95"/><path class="cls-62" d="M1065.74,416.41l-30.17-54.17s1.18-4.75,7.12-7.36,8.79-1.43,8.79-1.43l30.18,53.7s-4-1.19-9,2.14A20.94,20.94,0,0,0,1065.74,416.41Z"/><path class="cls-63" d="M1119.2,558.25c10.45,0,17.82,7.61,17.82,20,0,14.31-2.62,42.77-16.63,42.29-14.26-.48-17.59-27.8-17.59-42.53C1102.8,569.84,1107.32,558.25,1119.2,558.25Z"/><path class="cls-64" d="M1065.74,416.41s1-3.56,6.89-7.12,9-2.14,9-2.14,1.12,2.63-6.46,7.48C1069.07,418.55,1065.74,416.41,1065.74,416.41Z"/><path class="cls-65" d="M1022.74,413.32l13.54-9s6.41-.72,28.51,24.47l14.73-5.7L1073.11,411"/><path class="cls-63" d="M969.75,443l53.7-38.72s-2.84,2.12-.24,7.84c2.38,5.22,5.23,5.22,5.23,5.22s-42.29,32.08-46.33,39.92S969.75,443,969.75,443Z"/><path class="cls-6" d="M1009,432.57c-8.32-3.8-6.66-13.31-6.66-13.31l4-2.61s.48-.95-2.37-1.66-5.71-.24-10.46,1.19-10.93,9.74-10.93,9.74-1.66,5.46,1.43,12.59,11.17,13.54,15.21,19.24l11.64-3.56.71-6.65,4.75-9.51-1.19-10.21Z"/><path class="cls-56" d="M1175.74,670.72c-1,3.57-7.36,12.12-14.73,19.25-7,6.79-9.35,9-12.35,10.69-2.61,1.42-14,2.37-16.16-3.33a13.52,13.52,0,0,1-.61-4,21.08,21.08,0,0,0,.61,7c2.14,5.7,13.55,4.75,16.16,3.33,3-1.64,5.33-3.9,12.35-10.69,7.37-7.13,13.78-15.68,14.73-19.25a6.62,6.62,0,0,0,0-3Z"/><path class="cls-56" d="M1109.46,699c-2.62,2.13-15.92,3.32-19.49,1s-10.69-11.65-15.44-16.4a19.72,19.72,0,0,1-5.37-11c-.58,3.84,1.39,10,5.37,14,4.75,4.75,11.88,14,15.44,16.4s16.87,1.18,19.49-1c1.2-1,1.45-5.5,1.36-10.09C1110.75,695.32,1110.39,698.23,1109.46,699Z"/><path class="cls-6" d="M591.59,511.48c-3.59-5-5.39-7.87-9.44-8.09s-16.4,1.34-16.4,1.34l1.35,30.56Z"/><path class="cls-66" d="M687.31,370.14c-2.25-7,3.6-9.66,3.6-9.66s-14.61-1.35-34.16-1.12-31,2.24-31,2.24-5.49,4.22-.49,10.22c0,0,17.78-.66,31-.33,13,.33,31.91,0,31.91,0A7.26,7.26,0,0,1,687.31,370.14Z"/><path class="cls-64" d="M688.43,371.49c1.8,0,4.05-1.12,4.72-5.39.75-4.71-2-5.62-2-5.62a6.8,6.8,0,0,0-4,4.49C685.74,369.24,688.43,371.49,688.43,371.49Z"/><path class="cls-65" d="M651.81,399.13l2.25-14.61,2.69-3.82s31.91-3.37,35.28-4.94,7.21-8.7,4-9c-2.47-.22-9.21-.67-9.21-.67"/><path class="cls-6" d="M553.39,629.67s3.82-18,7.64-32.14,17.08-50.33,17.08-50.33l-22.47-7.86s-1.07,30.24-2.7,46.51A27.05,27.05,0,0,1,547.55,600Z"/><path class="cls-63" d="M647.76,395.31c1.8-.45,8.54-2,9-.9s-8.31,35.28-8.09,37.07-7.64,2.92-8.53,4.95-.9.9-.9.9,3.37-10.57,3.59-13.94,3.82-21.57,4-23.81A22.19,22.19,0,0,1,647.76,395.31Z"/><path class="cls-67" d="M652.48,417.1c-.67,3.37-2,12.81-1.79,14.16s2,4.72.89,5.17,1.35.45-.89-2a17.1,17.1,0,0,0-2.7-2.69l3.59-15.28,4.5-22,.19-.4s.93.17,1.16.85S652.48,417.1,652.48,417.1Z"/><path class="cls-56" d="M639.41,437.64c0,1,1.39,2.16,4.53,1.93s6.07-.67,6.75-1.57,1.87-1.59.37-3.15-2.62-2.77-2.62-2.77a7.46,7.46,0,0,1-2.25,1.3c-1.12.35-5,2.06-5,2.06a1.87,1.87,0,0,0-1,1A4,4,0,0,1,639.41,437.64Z"/><path class="cls-6" d="M630.3,427.63s4.43-14.12,9.83-17.94S651.81,405,657,403h3.14l.9,2.69s-.9,3.15-.67,4.05-1.8,4.72-1.8,4.72l-.9,4s0,3.37-2.69,3.82-11.69,1.35-13.26,3.37a52.42,52.42,0,0,0-3.6,5.84Z"/><path class="cls-6" d="M563.9,371.08c5.16.92,6.21,12.48,5.06,17.78-1.4,6.38,6.82,8.29,6.82,8.29s-1.48,3.34-3.06,4.43c0,0,.18,10.13-.45,12.15s-13.29,4-19.78,2a31.89,31.89,0,0,1-11.14-6.21l4.26-28.4Z"/><path class="cls-6" d="M562.27,648a59.67,59.67,0,0,0,7.64-18.65c2-10.11,1.79-14.38,7.41-27.64s17.3-35.28,23.37-51,8.79-35.17,2.58-39.65c-14.6-10.56-37.52,10.56-37.52,10.56s20,10.11,21.12,13.7c.91,2.9-4.72,12.48-6.51,17.3-2.41,6.48-5.8,23.79-9.44,35.06a45.24,45.24,0,0,1-9.78,16.51Z"/><path class="cls-68" d="M569.25,560.82s-2,11-9,28c-4.6,11.17-7,25-7,25l-5-11s4.12-3.78,6-16a92.46,92.46,0,0,0,1-22Z"/><path class="cls-68" d="M563.25,604.82c8-11,12-27,15-37s13-15,13-15-1,13-5,20-11,20-13,24-6,17-6,17Z"/><path class="cls-56" d="M561.26,424.29s-2.48,11.91,6.51,13.26,12.14,1.8,17.3,3.6c1.82.63,9.44,8.53,13.49,14.6s13,7.19,13,7.19A91.7,91.7,0,0,1,621,442.49a101.88,101.88,0,0,0,9.43-18.87s2.47,3.82,4.5,4.72a11.92,11.92,0,0,0,5.17,1.12s-5.76,11.85-7.64,16.4c-2.7,6.52-11.46,33.71-14.83,34.83s-3.6,1.35-5.4.9-15-5.39-18-7.86-8.09-4.27-9.89-3.82-5.84,3.37-7.41,5.61-10.79,39.1-10.79,39.1-16.85,8.09-40.67-4.27c0,0-11.46-34.38-14.38-43.36s-4.72-9-4-17.76a136.65,136.65,0,0,1,2.48-16.85L524.41,420Z"/><path class="cls-69" d="M546.2,356.66s4-9.66,16.85-6.52,17.53,13,13,21.12-9.22-2.69-13.26,5.17.67,9-.67,12.81-12.5,13.91-5.85,14.16c11.91.45-13,14.15.68,11.46,10.55-2.08,18.87,10.78,3.82,17.07-14.39,6-14.61-7-14.61-7s8.73,7.93-3.14,11c-12.14,3.14-10.41-8.23-16.63-4.5-11.24,6.74-11.91-5.61-15.51-7-4.25-1.6-7,6.74-14.38-.45s-6.51-15.73-1.34-16.63,9.43-4,6.51-6.29-8.09-6.74-6.74-12.36,6.07-7.41,11.69-8.76,6.74-4.95,6.51-6.52-3.14-5.62-1.35-10.11,3.82-7.64,13-11,15-2.7,17.52-.45A20.44,20.44,0,0,1,546.2,356.66Z"/><path class="cls-70" d="M505.76,550.35c-2.92,5.39-3.65,20.49,15.5,24.71,15.28,3.38,36.24,5.89,51,.23,10.56-4,20-9.44,21.79-16.18s.68-16.85.68-16.85-6.74,11.68-18,15-22.47,5.4-35,3.82S505.76,550.35,505.76,550.35Z"/><path class="cls-71" d="M549.29,596.67c6.07-.25,7.86,10.92,6.74,16.59-2,10.35,2.52,6.27,1.6,17.25-.46,5.42-2.16,13.36-4,13.43-2,.08-8-3.5-9.19-10.43-1.66-9.76.68-11-.78-19.3S544.77,596.85,549.29,596.67Z"/><path class="cls-72" d="M556,613.26c1.12-5.67-.67-16.84-6.74-16.59a4.23,4.23,0,0,0-3.12,1.83,3.68,3.68,0,0,1,2.12-.83c6.07-.25,7.86,10.92,6.74,16.59-2,10.35,2.52,6.27,1.6,17.25-.36,4.26-1.49,10.06-2.83,12.39,1.74-.43,3.38-8.1,3.83-13.39C558.55,619.53,554,623.61,556,613.26Z"/><path class="cls-71" d="M562.16,601.8c6.51.23,7.86,11.69,5.61,17.31s-1.12,13.7-1.57,16.62.22,12.59-6.52,16c0,0-2.92,1.57-5.61-6.52s2.47-11,2.24-18.43-2.92-7.86-2-14.83C555.16,605.21,559,601.69,562.16,601.8Z"/><path class="cls-72" d="M562.16,601.8a5.52,5.52,0,0,0-3.39,1.18,4.79,4.79,0,0,1,1.39-.18c6.51.23,7.86,11.69,5.61,17.31s-1.12,13.7-1.57,16.62c-.42,2.7.12,11.15-5.12,15.08a1.54,1.54,0,0,0,.6-.12c6.74-3.37,6.07-13,6.52-16s-.67-11,1.57-16.62S568.67,602,562.16,601.8Z"/><path class="cls-73" d="M506,549.45c3.6-8.31,11.56-11.18,12.58-11.91,1.58-1.12,17.76-9.89,17.76-9.89s44.49,7.07,50.55,8.77c9.66,2.69,8,7.64,7.42,9.43-1.13,3.37-6.17,6.92-12.81,10.34-7.87,4-13,6.29-21.35,7.19a93.6,93.6,0,0,1-28.08-.9C521.45,560.49,502.93,556.5,506,549.45Z"/><path class="cls-67" d="M525.53,510.35c-6.07,6.29-15.28,20.45-17.08,31s4.95,13.71,21.57,16.18,22.6,5.38,38.65-2.25c6.58-3.13,15.28-11.23,19.55-16.63s9.89-18.2-2.92-22.92a61.39,61.39,0,0,0-14.38-3.59l-4.72,2.47Z"/><ellipse class="cls-74" cx="495.66" cy="519.3" rx="8.43" ry="9.33" transform="translate(-71.86 79.67) rotate(-8.57)"/><ellipse class="cls-75" cx="536.81" cy="502.47" rx="39.55" ry="35.95"/><ellipse class="cls-76" cx="589.76" cy="521.95" rx="9.68" ry="8.75" transform="translate(-73.28 946.95) rotate(-74.17)"/><path class="cls-63" d="M522.15,528c2.24-5.93,9-7.43,14.92-3.5s5.75,14.61,6.18,20-1,21.18-7.57,25c-10,5.86-15.1-8.28-15.87-14.89C518.8,545.89,517.91,539.21,522.15,528Z"/><path class="cls-77" d="M964.33,897.27l-242.75-15c-9.38-.42-16.64-4.37-16.22-13.75h0c.43-9.38,8.38-12.64,17.75-12.21l242.76,7a17,17,0,0,1,16.21,17.75h0A17,17,0,0,1,964.33,897.27Z"/></g></g></svg>