<svg xmlns="http://www.w3.org/2000/svg" viewBox="0 0 804.31 646.57"><defs><style>.cls-1{fill:#b52a2a;}.cls-2{fill:#fdfeff;}.cls-3{fill:#99d850;}.cls-4{fill:#ad0404;}</style></defs><title>Ресурс 1</title><g id="Слой_2" data-name="Слой 2"><g id="Слой_1-2" data-name="Слой 1"><path d="M34.11,504.16c68.07-41.77,135.19-85.05,202.83-127.51q29.74-18.67,59.67-37.08c3.3-2-1.88-2.13-3.45-1.16C225.1,380.18,158,423.46,90.34,465.92Q60.58,484.6,30.66,503c-3.29,2,1.89,2.13,3.45,1.16Z"/><path d="M436.85,645.09c63-46.93,125.81-94.26,189.89-139.78q28.15-20,56.64-39.55c2.33-1.6-3.4-.8-4.42-.11-64.83,44.51-128.18,91.08-191.22,138.08q-28.07,20.92-56.12,41.84c-1.13.84,1,.86,1.35.88a6.74,6.74,0,0,0,3.88-1.36Z"/><path d="M30,504.78C132.53,546.49,235.64,587,341.29,620.16q45,14.13,90.58,26.37c1.44.38,6.58-1.9,4.72-2.4-106.95-28.66-211.24-66-314.21-106.58q-43.93-17.29-87.63-35.17c-1.38-.56-6.64,1.62-4.72,2.4Z"/><path d="M293.19,340.86C393.51,375.1,493.47,411,594.82,442.07q42.61,13.08,85.63,24.83c2.34.65,6.84-2.78,3.39-3.73-101.6-27.92-201-62.55-300.67-96.52l-86.59-29.53c-2.33-.79-6.81,2.57-3.39,3.74Z"/><path d="M297.77,338.56c25.29-87.81,49.21-176,73.91-264Q382,37.77,392.58,1c.48-1.65-5.26-.85-5.75.87-25.3,87.8-49.22,176-73.92,264q-10.34,36.84-20.9,73.6c-.48,1.66,5.26.86,5.76-.86Z"/><path d="M387.89,2.84C442.57,9.53,496.37,21.69,549.7,35.31S656.17,63.45,709.32,77.79q44.85,12.1,89.73,24.06c1.57.42,6.75-2,4.67-2.58C750.1,85.06,696.58,70.45,643,56.1c-52.9-14.17-105.8-28.65-159.34-40.21C453.17,9.31,422.47,3.8,391.52,0c-1.59-.19-6.74,2.45-3.63,2.83Z"/><path d="M685,464.64c34.88-93.12,68.24-186.85,96.35-282.26q12.06-40.93,22.89-82.21c.51-1.92-5.28-1.08-5.77.79-25.29,96.21-56,190.81-89.73,284.37q-14.49,40.14-29.52,80.1c-.65,1.73,5.1,1.05,5.78-.79Z"/><path d="M412.23,36.31a720.8,720.8,0,0,1,144.53,22.3c46,12,90,29.89,135.44,43.65,24.28,7.36,48.78,14.09,73.54,19.64,2.24.5,6.85-2.85,3.42-3.61-44.55-10-88.32-23.49-131.36-38.63-46-16.19-92.28-30-140.46-38.12a727.17,727.17,0,0,0-83-9.09c-2.59-.13-6,3.65-2.1,3.86Z"/><path d="M331.11,328.3c23.14-75.81,45.6-151.84,66.46-228.32q9-33,17.59-66c.46-1.79-5.31-.94-5.77.84-19.95,76.72-41.6,153-64.28,228.94q-9.78,32.73-19.77,65.4c-.52,1.71,5.22.93,5.77-.84Z"/><path d="M665.11,435.91c16.7-38,26.71-78.51,37.8-118.39q17.8-64,40.24-126.68,12.84-35.91,27.16-71.26c.37-.94-5.12-.45-5.72,1q-25.32,62.65-46.1,127c-13.15,40.79-23.88,82.2-35.91,123.31-6.55,22.39-13.79,44.62-23.19,66-.38.88,5.07.45,5.72-1Z"/><path d="M326.43,330.22c89.14,20,174.22,53.71,260.31,83.6,24.25,8.41,48.62,16.52,73.19,24,1.67.5,6.89-2,4.64-2.71C576.74,408.49,491.84,373.18,404,346.76c-24.42-7.34-49.06-14-73.94-19.54-1.74-.39-6.8,2.28-3.59,3Z"/><path class="cls-1" d="M258.6,125.73l.44-3.46c-14.53,42.07-22.47,89.16-23.46,133.66-.82-.58-3.41-.58-4.42-.55A646.23,646.23,0,0,1,124,248.87l.1,0,38.31-124"/><path d="M261.49,125.36l.44-3.46c.3-2.37-5.22-.92-5.79.75A446.32,446.32,0,0,0,232.69,256.3l5.21-1.75c-3-1.13-6.33-.76-9.51-.7q-6.84.1-13.69.08-14.65-.06-29.31-.8-30-1.5-59.66-5.81l-2.19,3.11.1,0c1.13-.18,2.91-.68,3.3-1.94l38.31-124c.61-2-5.19-1.17-5.78.75l-38.32,124,3.3-1.93h-.09c-1.07.18-5.38,2.65-2.19,3.11q27.42,3.93,55.09,5.61,13.67.81,27.35,1,6.84.12,13.68.08c4.39,0,10.82-1.38,15,.17,1.15.43,5.16.08,5.21-1.76A446,446,0,0,1,261.93,121.9l-5.79.75-.44,3.46c-.28,2.22,5.55,1.17,5.79-.75Z"/><path d="M237.9,256.38c19.94-15.69,41.67-29.13,60.42-46.3,2.45-2.24-3.25-2.16-4.63-.9-18.75,17.17-40.48,30.61-60.42,46.3-2.57,2,3.19,2,4.63.9Z"/><path d="M257.17,124.28a498.15,498.15,0,0,1,21.89,45.89q4.65,11.22,8.76,22.65,2,5.72,3.95,11.48c.61,1.84.94,5.76,3.13,6.46a3.8,3.8,0,0,0,4.63-2.1l.11-.37c.17-.52-.3-1.06-.66-1.33l-.24-.17c-1.9-1.39-7.07,1.31-4.51,3.19l-.55-.8,4.63-2.1c.78.25-.88-4.76-1-5.22q-.88-2.66-1.8-5.31-2-5.73-4.11-11.42-4.08-10.95-8.68-21.68-9.12-21.28-20.18-41.64c-1.13-2.07-6.7-.06-5.33,2.47Z"/><path d="M162.11,126.6q47.67-3.07,95.44-1.6c2.63.08,6-3.82,2.08-3.94q-48.48-1.52-96.92,1.6c-3.16.21-4.57,4.2-.6,3.94Z"/><path d="M165.51,133.24c-1.78.71-4.59-3-5.16-4.22a8.58,8.58,0,0,1,.8-7.71c1.68-2.88,5.35-6.19,8.67-3.69,1.7,1.28,3.34,3.69,2.56,5.88-.35,1,5.19.42,5.71-1,1.36-3.85-2.7-7.72-6.29-8.17-4.75-.6-10.25,1.6-13.7,4.8s-5.81,8.93-2.5,13.19c3,3.79,7.76,3.84,11.89,2.2,3.83-1.52.21-2.11-2-1.24Z"/><path d="M182.69,131c-3.85-3.25-2.53-8.7.53-12.11,1.64-1.83,4.3-3.51,6.87-3.24a4.81,4.81,0,0,1,4,6.34c-.79,2.81,5.15,2.19,5.88-.4a8.11,8.11,0,0,0-5-9.52c-4.13-1.71-9-.6-12.69,1.69-7,4.38-11.31,14.55-4.07,20.65,2,1.72,7-1.22,4.45-3.41Z"/><path d="M204.85,133.4c-6.53-2.32-4.6-12.05-1.15-16.18a7,7,0,0,1,11,.67c1.27,2,.77,4,.36,6.12-.07.36,5.47.12,5.79-1.56.84-4.34-.09-7.81-4.8-9.31-3.88-1.24-8.5-.36-12.19,1.11a13.07,13.07,0,0,0-8.42,9.84c-1,4.23-.87,9.49,4,11.21a5.88,5.88,0,0,0,3.71-.42c.19-.07,2.59-1.19,1.77-1.48Z"/><path d="M218.91,132.2l-.5.17,2.76.27c-1.26-1-.56-5.13-.31-6.47a14.74,14.74,0,0,1,3.64-7.35,10.43,10.43,0,0,1,7.91-3.23c1.85,0,9.67,1.81,7.76,5.41-1.49,2.81,4.37,2.74,5.52.57,2.72-5.14-4.05-8.72-8.24-9.67a19.17,19.17,0,0,0-14.67,2.71,18.59,18.59,0,0,0-8,13.4c-.36,3.49,0,9.77,5.11,8,3.43-1.19,2.51-5-1-3.79Z"/><path d="M240.73,134.52c-6.63-2.86-6.37-11-2.07-15.82,3-3.36,7.63-5.34,11.84-2.89a8.52,8.52,0,0,1,4.31,7.79c-.1,2.26,5.7,1.07,5.78-.76.49-11.64-13.15-13.25-21.27-9-8.55,4.47-14.92,18.35-3.22,23.39,1.65.71,7-1.73,4.63-2.72Z"/><path d="M239,211.38c18.25-.46,36.51-.57,54.76-.14,2.33.06,6.11-3.4,2.2-3.49-18.25-.44-36.51-.32-54.76.13-2.29.06-6.09,3.59-2.2,3.5Z"/><path class="cls-2" d="M161.11,156.32q15-.82,30-.91l-1.42-1.11a115.53,115.53,0,0,1-23.19,17.53c-3.13,1.79,1.27,1.87,2.73,1.26,5.3-2.21,11-2.51,15.79,1.09a11,11,0,0,1,4.52,10.43c-1.5,10.51-18.28,9.78-24.63,4.59-1.29-1-6.48,1.2-5.45,2,5.36,4.38,12.35,4.65,19,3.64,5.72-.88,13.21-2.5,16-8.25,3.08-6.34-.68-13.23-6.63-16.1-6.53-3.14-14.21-1.66-20.61,1l2.73,1.26A124.76,124.76,0,0,0,195,154c1-1-.89-1.11-1.41-1.11q-15,.09-30,.91c-1.67.09-6.27,2.75-2.45,2.54Z"/><path class="cls-2" d="M204,165.53c-6.88-5.87,8.25-9.87,11.93-8.92,4.75,1.22,7.19,5.47,5.57,10.15-2.4,6.9-10.36,12.91-15.92,17.3-2.12,1.67-12.7,7.23-7.11,10.49,2.13,1.25,7.22,1,9.62,1.16a116,116,0,0,0,12.37,0c1.52-.08,6.32-2.45,2.52-2.27-3.38.16-6.76.17-10.14,0-2.12-.11-9.12.52-10.14-2s10.42-9.74,12.22-11.33c5-4.42,16.8-13.88,11.84-21.77-4.14-6.59-14.14-4.28-20.16-2.54-4.28,1.23-14.4,6.24-8.07,11.64,1.16,1,6.29-1.25,5.47-1.95Z"/><path class="cls-2" d="M149.23,208.56c-2.67,4.48-5.24,9-7.66,13.64-1.21,2.3-5.24,7.41-4.22,10.07.57,1.52,3,1.34,4.12.73l.33-.18c1-.54,2.17-1.48,1.44-2.72l-.13-.22c-1.18-2-6.77,0-5.34,2.44l.13.22,1.44-2.72L139,230l4.12.73c-.39-1,2.28-4.92,2.77-5.88.88-1.71,1.77-3.41,2.69-5.1,2-3.62,4-7.19,6.12-10.73,1.55-2.6-4.32-2.41-5.49-.45Z"/><path class="cls-2" d="M154.15,208.06l-.26-.33-.3,1.86.36-.4-4.64.87c1.17.66,2.17,4.77,2.69,6l2.48,5.89c.74,1.76,3.54,1.13,4.76.31a43.92,43.92,0,0,0,10.84-10.49l-5.63.58a80.91,80.91,0,0,1,2,17.4c0,2.73,5.84,1.65,5.83-.59a84.69,84.69,0,0,0-2-18.36c-.55-2.43-4.79-.57-5.63.58a36.19,36.19,0,0,1-9.09,8.71l4.76.3-3.72-8.83c-.69-1.64-1.08-3.66-2.71-4.56a4.26,4.26,0,0,0-4.65.87l-.36.4a1.4,1.4,0,0,0-.3,1.86l.27.33c1.43,1.79,7-.35,5.34-2.4Z"/><path class="cls-2" d="M180.64,213a176.08,176.08,0,0,0-5.74,18.1c-.49,1.93,5.3,1.07,5.78-.79a171.3,171.3,0,0,1,5.74-18.1c.65-1.72-5.09-1-5.78.79Z"/><path class="cls-2" d="M183.43,211.44a44.36,44.36,0,0,1,8,23.3c0,.95,5.88,0,5.8-1.56a44.34,44.34,0,0,0-8-23.29c-1-1.39-6.22.94-5.79,1.55Z"/><path class="cls-2" d="M174.72,226.32l16.79.27c2,0,6.22-2.88,2.34-3l-16.78-.27c-2,0-6.23,2.89-2.35,2.95Z"/><path class="cls-2" d="M218.34,217.52a139.91,139.91,0,0,0-.92,18.86l5.8-1.55c-2.49-6.1,1-14.09-3.36-19.57-3.09-3.9-8.83-3.66-12.89-1.55-3.51,1.82-8,8.21-4.89,12.14,2.88,3.58,12.6.72,16.09-.27l-2.67-1.77a83,83,0,0,0-9.68,8.38c-1.65,1.68-4.89,4.07-5.23,6.48a.69.69,0,0,0,.19.72l.38.29c1.18.9,3.34.39,4.48-.33l.34-.22c3.29-2.09-1.78-2.69-3.56-1.56l-.34.22,4.48-.33c-.79-.6,12.25-11.85,13.56-12.83,2.19-1.63-1.61-2.07-2.67-1.77-3,.84-10.68,3.24-10.24-2,.11-1.32.65-3.41,1.64-4.32,3.18-2.9,5.7.63,6.55,2.74,2.22,5.49-.24,11.57,2,17.12.79,1.93,5.84.4,5.8-1.55a133.35,133.35,0,0,1,.9-18.09c.25-2.16-5.57-1.08-5.78.78Z"/><path d="M50.88,303.5c.84-18.34,20.72-25.62,35.88-29.23a110.73,110.73,0,0,1,53.27.65c7,1.82,15.24,4,20.61,9.13,6.83,6.52,3.89,15.94-3,21-7.5,5.51-17.42,7.58-26.43,9a196.5,196.5,0,0,1-25.28,2.46A133.08,133.08,0,0,1,77,314.49c-8-1.52-20.82-3.57-25.4-11.32-1.05-1.76-6.57.25-5.8,1.56,4.31,7.29,13.79,9.4,21.47,11.31A130,130,0,0,0,99,319.61c19.34,0,42.24-1.62,59.38-11.41,6.7-3.82,13.6-10.68,11.86-19.15-1.64-8-10.42-11.85-17.29-14.24a119.06,119.06,0,0,0-60.88-4.37c-17.91,3.4-46,11.58-47,33.89-.09,2.11,5.69.89,5.77-.83Z"/><path d="M44.9,304.25c-.56,23,4.09,45.48,10.34,67.48,5,17.63,10.87,37.41,28.53,46.28,14.45,7.26,35.55,7.19,48.85-2.75,7.7-5.76,11.53-15.41,15.25-23.95a269.74,269.74,0,0,0,10.87-29.7,327.31,327.31,0,0,0,8.86-37.47c2.08-11.73,5.27-24.48,2.35-36.29-.55-2.23-6.36-.72-5.8,1.55,2.45,9.89.15,20.09-1.45,29.94-1.57,9.66-3.51,19.26-5.88,28.76-4.69,18.77-10.91,37.69-20,54.81-5,9.42-12.43,14.46-23,16A43.3,43.3,0,0,1,88.33,415c-16.45-8.27-22-26.6-26.77-43-6.41-22.25-11.4-45.09-10.84-68.37.06-2.61-5.77-1.51-5.82.63Z"/><path d="M50.32,333c-6.79-5.05-16.84-6.77-24.18-1.79-7,4.77-8.39,14.81-7.21,22.6,2.94,19.53,22.11,30.1,40.59,26.34A3.28,3.28,0,0,0,62,378.22l.44-1.69c.6-2.26-5.26-1.45-5.81.66l-.45,1.69L58.67,377c-13.87,2.82-27.73-5.63-32.45-18.77a29.21,29.21,0,0,1-.88-17.59c1.21-4.24,3.62-8.36,8.43-8.83,4.41-.42,8.54,1.59,12,4.14,1.64,1.21,6.95-1.18,4.58-2.94Z"/><path d="M50.38,322.67c-7.51-9-23.66-6.05-32.76-1.4A32,32,0,0,0,0,350.59C.44,364.4,9.26,376.34,21,383c12.82,7.2,27.66,8.16,42,6.32,2.44-.31,5.11-2.86,1-2.33-22.32,2.87-49.23-4.9-56.65-28.66-3.1-9.94-1.58-21,5.13-29.1,7.15-8.67,23.88-14.68,32.42-4.49,1,1.15,6.44-.83,5.44-2Z"/><path d="M121.09,316.41c2.34-3.48,5.35,5.93,5.62,7a45.78,45.78,0,0,1,1.07,11.5A120.1,120.1,0,0,1,125.65,356c-.23,1.22,2.71.77,2.91-.32,2-11,4.25-24.77.27-35.61-1.9-5.17-6.43-9.78-10.46-3.78-.79,1.17,2.14,1,2.72.15Z"/><path class="cls-3" d="M114.29,359.44c8.84-2.68,18.29-5.1,26.63-6.86-.22,9.24-.3,18.4-2.15,27.46"/><path d="M114.4,359.87c8.66-2.6,17.41-4.88,26.25-6.77l-1.17-.13c-.22,9.17-.41,18.3-2.14,27.33-.12.63,2.73.18,2.86-.52,1.74-9.11,2-18.33,2.17-27.59,0-.32-1.07-.15-1.17-.13q-13.66,2.93-27,6.95c-1.65.49-1.46,1.37.23.86Z"/><path class="cls-3" d="M113.81,358.85c-.16,3.54-.57,8.34-.73,11.87-.19,4.18-.35,8.55,1.41,12.35a3.46,3.46,0,0,0,1.35,1.68A3.82,3.82,0,0,0,118,385a62.43,62.43,0,0,0,20.78-5"/><path d="M112.35,359c-.26,5-.82,10-.84,15,0,3.37-.15,9.18,3,11.35,2.44,1.68,7,.34,9.55-.08a70.12,70.12,0,0,0,15.34-4.49c1.84-.77.2-2.11-1.23-1.52A63.35,63.35,0,0,1,125,383.22c-4.81.87-8.73,2.25-10.09-3.48-1.57-6.62,0-14.3.33-21,.07-1.4-2.87-.91-2.93.27Z"/><path d="M143,294.84A90.92,90.92,0,0,0,80.8,295c-4.91,1.81-9.73,4.11-13.57,7.65a20.88,20.88,0,0,0-6.09,9.64c21,7.13,44,6.92,66,3.81,9.44-1.33,18.94-3.21,27.45-7.48l.29-.15a9.23,9.23,0,0,0-.07-3.23C153.73,299.81,148.13,296.73,143,294.84Z"/><path d="M116.79,498c46.89-49.65,103.42-87.83,161.89-122.47,3.35-2-1.71-2.84-3.6-1.72C216.26,408.63,159.31,447.07,112.14,497c-2.32,2.45,3.32,2.36,4.65,1Z"/><path d="M148.35,510.23c46.12-47.55,90.68-96.6,149-129.6,3.4-1.93-1.63-3.09-3.65-1.95C235,411.9,190.08,461.23,143.66,509.1c-2.4,2.48,3.24,2.63,4.69,1.13Z"/><path d="M184.63,523.22c41.62-49.38,89.5-93.33,140.08-133.36,3.08-2.44-1.56-4.54-3.86-2.72-50.93,40.31-99.18,84.59-141.09,134.31-2.37,2.81,3.13,3.83,4.87,1.77Z"/><path d="M220.53,535.69c42.34-50.13,90.2-94.63,142.27-134.5,2.45-1.89-3.31-1.49-4.54-.55-52.34,40.09-100.49,84.83-143,135.22-1.39,1.65,4.27,1.07,5.32-.17Z"/><path d="M256.45,548.78q67.1-70,138.42-135.64c2.49-2.29-3.21-2.38-4.67-1q-71.31,65.67-138.42,135.64c-2.36,2.46,3.28,2.48,4.67,1Z"/><path d="M292.93,563.25c24.11-22.47,48.22-45,72.76-67q18.54-16.63,37.44-32.88c12.39-10.63,26-20.51,37.32-32.29,2.43-2.54-3.19-2.94-4.75-1.31-11.32,11.78-24.92,21.66-37.32,32.29Q379.48,478.32,361,495c-24.54,22-48.65,44.49-72.76,67-2.55,2.37,3.12,2.82,4.74,1.31Z"/><path d="M332.91,574.91q73.2-63.64,144-130c2.53-2.38-3.13-2.8-4.74-1.29q-70.77,66.35-144,130c-2.6,2.26,3.09,2.72,4.74,1.29Z"/><path d="M382,590.51Q452.79,524,526.86,461.22c1.23-1-4.16-.52-5.26.41q-74.06,62.82-144.85,129.29c-1.23,1.15,4.2.58,5.25-.41Z"/><path d="M430.82,607.59q42.3-36.42,85.53-71.76c14.15-11.57,28.43-23,42.69-34.43,10.45-8.38,19.51-17.51,31.37-24,2.38-1.31-3.38-.59-4.39,0-11.17,6.12-19.78,14.38-29.52,22.41-14.48,11.94-29.31,23.49-43.86,35.36q-44,35.93-87,73c-1.09.94,4.18.35,5.22-.54Z"/><path d="M110,500.47q63.58,20.85,126.26,44.33c20.45,7.64,40.87,15.35,61.55,22.34,20.15,6.8,40.6,12.66,61,18.69,23.1,6.84,46.12,14,68.38,23.29,1.66.69,6.95-1.76,4.64-2.72-39.58-16.48-81.43-26.23-122.08-39.55-41.51-13.61-82.08-30-123.25-44.6q-35.79-12.69-71.86-24.51c-1.69-.55-6.92,2-4.64,2.73Z"/><path d="M138.55,473.32c37.89,19.43,78,33.89,118.46,47,41.88,13.57,84.06,26.19,125.9,39.89,23.72,7.77,47.33,15.85,70.74,24.49,1.71.63,7-1.9,4.62-2.77-41.36-15.26-83.33-28.74-125.39-41.94-41.36-13-83-25.31-123.6-40.55a630.62,630.62,0,0,1-66.11-28.89c-1.64-.84-7,1.56-4.62,2.77Z"/><path d="M158.85,457.83c19.32,8.86,39.69,14.72,60.2,20.07s41.13,10.8,61.48,17c41.74,12.73,82.8,27.64,123.12,44.29Q437.72,553.26,471,569c2.1,1,7.26-1.91,4.51-3.21C397.66,529,316.66,498.55,233.23,477c-23.69-6.12-47.56-12.12-69.87-22.35-2.11-1-7.26,1.94-4.51,3.2Z"/><path d="M180.51,439.24c19.36,9.51,40.23,14.29,61.07,19.34a421.08,421.08,0,0,1,62.65,20.75c20.67,8.58,41.18,17.34,62.53,24.14,21.15,6.74,42.66,12.43,63.52,20.07,22.62,8.3,43.93,20.32,67.72,25.09,2.87.58,5.85-3.46,2-4.23-21.47-4.31-40.83-15-61.11-22.8-20.44-7.89-41.61-13.62-62.52-20.09-42.26-13.07-81.51-34.32-124.49-45.14-23.1-5.82-46.49-10.47-68-21.05-2.41-1.18-6.65,2.3-3.34,3.92Z"/><path d="M203.18,421.33c84,28.93,168.12,57.45,251.9,86.95,22,7.74,44.11,15.37,66.79,20.93,1.47.36,6.6-2,4.71-2.43-40.52-9.93-79.67-25.56-119.07-39.13L280.39,443.87l-72.5-25c-1.44-.49-6.66,1.76-4.71,2.43Z"/><path d="M230.72,405.25c42.56,8.56,84.22,20.92,125.41,34.55,20.42,6.76,40.74,13.82,61.06,20.88s40.47,14.13,59.81,23.38c21,10,41.14,21.92,63.32,29.22,2.66.87,6.8-2.95,3.29-4.11-19.85-6.53-38.1-16.74-56.75-26-19.39-9.64-39.58-17.23-60-24.37C386,444.5,345,430.21,303.35,418.23c-23.33-6.71-46.89-12.65-70.69-17.44-3-.61-5.79,3.68-1.94,4.46Z"/><path d="M252.34,389.32c83.07,19.51,163.38,47.75,243.63,76.43l71.33,25.48c1.47.53,6.71-1.76,4.7-2.48-82.24-29.39-164.14-60.42-248.13-84.54q-33.19-9.52-66.83-17.37c-1.51-.36-6.64,2-4.7,2.48Z"/><path d="M276.16,376.52c42.22,11.22,83.3,25.9,124,41.67,37.67,14.58,75.18,29.63,113.72,41.78q35.82,11.29,72.59,19.11c2.06.43,6.84-2.7,3.47-3.41-42.33-8.95-83.55-21.86-124.08-36.93-38.22-14.21-75.91-29.87-114.39-43.39-23.66-8.31-47.6-15.8-71.84-22.24-2.07-.55-6.84,2.52-3.48,3.41Z"/><path d="M431,42.62,420.7,62.15c-.67,1.27,2.24,1,2.72.12l10.3-19.53c.67-1.27-2.24-1-2.72-.12Z"/><path d="M431.52,43.08a129,129,0,0,0,3.59,23.77c.32,1.28,3.22.51,2.9-.78a125,125,0,0,1-3.56-23.23c-.09-1.47-3-1-2.93.24Z"/><path d="M413.75,61.55a63,63,0,0,0,14.55,4.26c2.87.58,5.75,1.14,8.57,2,4,1.17,2,2.4.12,5.28-.87,1.35,2.08,1.42,2.77.34,3.53-5.48,3.76-6.3-2.82-8-7.23-1.91-14.68-2.59-21.52-5.78-1.23-.57-3.34,1.19-1.67,2Z"/><path d="M413,61.1a21.45,21.45,0,0,0,2.87,8.24c.51.78,3.33-.15,2.7-1.12a20.58,20.58,0,0,1-2.67-7.89c-.15-.95-3.07-.27-2.9.77Z"/><path d="M445.62,60.9c-1.84,4.27-.93,10.14,3.32,12.73,4.74,2.89,8.41-3.93,9.41-7.58l-2.93.24a12,12,0,0,0,3.37,10.3c.88.9,3.63-.27,2.66-1.26a10.72,10.72,0,0,1-3.1-9.28c.21-1.49-2.62-.89-2.93.24-.36,1.33-1.12,3.87-2.35,4.71-2.23,1.52-3.5-.12-4.47-2a9.12,9.12,0,0,1-.23-7.79c.65-1.49-2.27-1.42-2.75-.29Z"/><path d="M462.87,61.5l4.22-1q2.7.75,1.89,3.18c-.08,2.34-1.28,2.81-3.44,3.58-1.73.61-1.33,2.21.49,1.85,2.85-.56,6.59-.08,8.58,2.27,1.26,1.47,1.52,2.57.59,4.24a2.31,2.31,0,0,1-2.47,1.77,4.22,4.22,0,0,1-3.47.3c-.5-1.22-3.38-.39-2.9.78,1.78,4.34,11.15.13,12.28-3.28,2.34-7.07-8.55-8.83-13.1-7.93L466,69.1c3.56-1.26,9.07-4.56,5.3-8.8-2.91-3.28-8-2.27-10.86.44-1.29,1.22,1.53,1.59,2.4.76Z"/><path d="M499.46,76.8a8.89,8.89,0,0,0-8.25-3.44c-2.63.27-6.61,2-7.08,5-.51,3.22,3,4.76,5.69,4.31,4.06-.69,5.95-4.18,7.41-7.64l-2.9.55a47.71,47.71,0,0,0,7,10.57c.7.81,3.48-.25,2.68-1.17a46,46,0,0,1-6.76-10.18c-.54-1.08-2.54-.3-2.91.56a12.12,12.12,0,0,1-1.8,3.57c-4.74,4.87-7.9-2-2.46-3.61A6.25,6.25,0,0,1,496.78,78c.62.85,3.42-.16,2.68-1.16Z"/><path d="M508.86,77c-2.61,5.17-.07,12.1,5.81,13.53a10.83,10.83,0,0,0,12.74-7.78l-2.92.27a10.88,10.88,0,0,0,2.45,9.89c.78.9,3.55-.2,2.67-1.22a9.7,9.7,0,0,1-2.2-8.94c.3-1.3-2.64-.88-2.92.27-1.23,5-7.38,7.85-11.36,3.86a8.43,8.43,0,0,1-1.53-9.66c.7-1.38-2.22-1.25-2.74-.22Z"/><path d="M518.7,72.37a13.14,13.14,0,0,1,9-3.82c1.69,0,2.2-2.3.23-2.24a16.67,16.67,0,0,0-11.14,4.63c-1.4,1.36.85,2.49,2,1.43Z"/><path d="M536.63,84.39A59.62,59.62,0,0,0,538.12,96c.18.82,3.09.1,2.89-.78a60.29,60.29,0,0,1-1.48-11.59c0-.71-2.93-.2-2.9.77Z"/><path d="M544.87,88.64a28.24,28.24,0,0,1,2.48,8.74c.09.75,3,.15,2.9-.78a28.39,28.39,0,0,0-2.48-8.74c-.4-.85-3.22.1-2.9.78Z"/><path d="M538,92.65a20.94,20.94,0,0,1,7.32.34,2.11,2.11,0,0,0,2-.55c.38-.46.35-1.1-.34-1.26a24.88,24.88,0,0,0-8.73-.46c-.54.07-1.58.4-1.61,1.1s.75.9,1.31.83Z"/><path d="M573,94.75l.23,0c.56-.08,1.52-.37,1.63-1,.42-2.48-4.38-2.73-5.93-2.53a7.18,7.18,0,0,0-6,4.31,5.28,5.28,0,0,0,2.22,6.49c2.84,1.81,6.36,1.37,9.5.87,1.45-.24,2.34-2.1.35-1.78-3.1.5-7.58,1.1-9.18-2.43a4.32,4.32,0,0,1,.37-4.09,3.56,3.56,0,0,1,2.35-1.6c.51-.09,3.54,0,3.37,1.07l1.63-1-.23,0c-1.45.22-2.34,2.08-.35,1.78Z"/><path d="M581.9,95.23a59.5,59.5,0,0,0-2.09,10l2.89-.4a27.11,27.11,0,0,1,1-5.86c.19-.66.59-2.75,1.19-3.1s2.13,1,2.51,1.46A12,12,0,0,1,590,107.52c-.19,1,2.71.51,2.89-.4.82-4.34-.72-11.78-5.88-12.92-5.91-1.32-6.89,7.09-7.16,11.07-.07,1.08,2.78.49,2.89-.4a59.5,59.5,0,0,1,2.09-10c.27-.91-2.62-.52-2.89.4Z"/><path d="M580.16,103l9.84-.06c.6,0,1.65-.17,1.89-.85s-.19-1.07-.84-1.06l-9.83,0c-.6,0-1.66.17-1.9.85s.19,1.07.84,1.07Z"/><path d="M596.37,101.86c-2.46,5.21,1.87,9.87,7.18,9.72A11.46,11.46,0,0,0,614,104.13l-2.88.66a12.41,12.41,0,0,0,2.42,7.54c.48.68,3.09-.49,2.9-.77A12.35,12.35,0,0,1,614,104c0-.53-2.68.15-2.87.65-1.52,3.86-5.52,7.62-9.86,4.67a6.24,6.24,0,0,1-2-8c.17-.38-2.51-.2-2.86.53Z"/><path d="M602.74,100.05l13-4.42c1.75-.59,1.22-2.71-.56-2.11l-13,4.43c-1.75.59-1.22,2.71.56,2.1Z"/><path d="M624.1,106.74l1.36,9.74c.14,1,3,.3,2.9-.78L627,106c-.14-1-3-.31-2.9.78Z"/><path d="M618.68,107.06a20.24,20.24,0,0,1,10.87,1.42c1.28.54,3.36-1.3,1.65-2a23.08,23.08,0,0,0-12.29-1.61c-1.62.22-2.19,2.49-.23,2.21Z"/><path d="M647.87,114.15c3.34-3-2.66-5.43-5-5.76-3.34-.49-8.43.38-10,3.88-1.74,3.86,2.57,6.13,5.81,6.24a10.67,10.67,0,0,0,9.61-5.47l-2.7.5,6.44,8.46c.7.93,3.49-.14,2.67-1.21l-6.44-8.47c-.61-.79-2.29-.23-2.71.5-1.56,2.77-6.8,5.75-9.47,2.36l-.67-2.14,4.35-2.85c-.37.1,8.31.91,5.69,3.27-1.3,1.17,1.54,1.45,2.38.69Z"/><path d="M397,139.51c-1.29,7.26,2.84,14.9,10.92,14.79,6.41-.08,11.45-6.16,8.86-12.38-.47-1.12-2.7-.53-2.91.52-1,5.05-1,10.09-1.13,15.21-.07,2.48.39,5.69-1.55,7.41-2.32,2.06-6-.67-8.48-2.12-1-.58-3.59.79-2.27,1.56,3.33,1.94,10.79,6.47,14,1.94,1.78-2.54,1.2-7.07,1.28-10a83.48,83.48,0,0,1,1.11-14.3l-2.91.52c2.72,6.51-4.42,12.45-10.45,7.81-3.54-2.73-4.25-7.09-3.51-11.27.23-1.32-2.71-.9-2.92.28Z"/><path d="M420.22,158.39a69.89,69.89,0,0,0,0,12.19c.09,1,3,.34,2.9-.77a68.15,68.15,0,0,1-.06-11.78c.1-1.17-2.81-.62-2.89.36Z"/><path d="M421.18,159.74a9.53,9.53,0,0,1,9.7-.72c1.07.52,3.64-.94,2.25-1.61a13.61,13.61,0,0,0-13.84,1.11c-1.62,1.12.77,2,1.89,1.22Z"/><path d="M421.45,163.74a7.62,7.62,0,0,1,7.42,2c1.06,1,2,2.67.16,3.66-1.47.77-3.87.5-5.44.29-.78-.1-3.37,1.19-1.83,1.39,2.59.34,12.72.41,11.11-4.49-1.48-4.48-8-5.12-11.74-4-1.68.5-1.4,1.7.32,1.19Z"/><path d="M436.45,167.64c-.3,4.18,2.36,8,6.74,8.15,3.69.15,7.43-2.59,7-6.57-.51-4.38-5.91-5.29-9.48-4.53s-7.36,4.63-4.62,8.3c.72,1,3.5-.11,2.66-1.23-1.78-2.4.35-5,3-5.3s5.47.8,5.59,3.67a3.29,3.29,0,0,1-4.7,3.34c-2.38-1-3.35-3.68-3.18-6.09.1-1.4-2.84-.94-2.92.26Z"/><path d="M450.83,166.52a35.27,35.27,0,0,0,1,12.28c.27,1.07,3.12.33,2.89-.77a24.71,24.71,0,0,1-.54-6.42c.08-1.43.09-4.21,1.2-5.3s2.54-.43,3.29.51a4.1,4.1,0,0,1,.73,2.86,4.31,4.31,0,0,1-4.62,3.84c-1.15,0-3.06,1.71-1.1,1.73,3,0,6.3-1,7.88-3.7,1.47-2.54.82-6-2-7.2a5.84,5.84,0,0,0-6.88,1.85c-2.27,3.29-1.59,9-.83,12.6l2.89-.77a34.25,34.25,0,0,1-1-11.84c.12-1.23-2.8-.71-2.9.33Z"/><path d="M464.46,168.41c0,4.9.29,9.79.72,14.67.06.71,3,.15,2.9-.77-.44-4.89-.68-9.77-.73-14.68,0-.65-2.9-.17-2.89.78Z"/><path d="M471,170.26c1.44.56,1.95.75.59,1.87l-2.66,2.2c-1.19,1-3.76,2.45-2.72,4.31.81,1.44,3.14,2.18,4.58,2.67a20.75,20.75,0,0,0,6.72,1.05c.6,0,3.27-1.14,1.89-1.15-2.82,0-8.25-.55-10.06-3.15-1.28-1.84,1.24-3.17,2.54-4.25l4-3.3c.07-.06.25-.29.06-.37l-2.19-.86c-.79-.31-3,.88-2.74,1Z"/><path d="M482.12,175.86A42,42,0,0,0,479.9,187l2.91-.32a28.31,28.31,0,0,1,.6-5.43,9.16,9.16,0,0,1,.86-2.89c1.28-1.62,3.3-.12,4.2.74,2.7,2.56,3.17,6.52,3.6,10l.85-1.07-1.31.46c-1.89.67-.19,1.85,1.19,1.36l1.31-.46c.44-.15.92-.57.85-1.07-.6-4.94-2.12-12.07-8.29-12.61S480,182.53,479.9,187c0,1.3,2.85.76,2.91-.32A42,42,0,0,1,485,175.54c.38-1.09-2.55-.74-2.91.32Z"/><path d="M481.7,184.66l9.75,1.56c1.3.21,3-1.6,1.06-1.91l-9.76-1.56c-1.3-.21-3,1.6-1.05,1.91Z"/><path d="M414.09,86.2c-4.32,8.24-7.85,17-9.44,26.19-.14.81,2.74.32,2.87-.47,1.59-9.19,5.12-18,9.44-26.18.28-.53-2.45-.32-2.87.46Z"/><path d="M414.08,86.36a96.83,96.83,0,0,1,7.41,29.86c.07.9,3,.3,2.89-.78A96.61,96.61,0,0,0,417,85.58c-.42-1-3.27-.09-2.9.78Z"/><path d="M408,102.73a69.86,69.86,0,0,0,12.27,3.43c1.34.25,3-1.6,1-2a66.73,66.73,0,0,1-11.6-3.3c-1.13-.44-3.39,1.19-1.71,1.83Z"/><path d="M427.54,104.35,428.65,119c.06.79,3,.22,2.9-.77l-1.11-14.62c-.06-.78-3-.21-2.9.78Z"/><path d="M430.59,104.05c.94-2.32,4,0,5,1.1a9.12,9.12,0,0,1,2.38,4.19c.17.74.42,2.1-.06,2.77a2.94,2.94,0,0,1-3.06.91,24.25,24.25,0,0,1-3.66-.84c-.67-.21-3.22.86-2.38,1.12,4.11,1.27,14.06,2.26,12-5.06a9.31,9.31,0,0,0-6.67-6.44c-2.31-.46-5.49.42-6.43,2.75-.2.5,2.56.25,2.86-.5Z"/><path d="M441.86,115.5a10.7,10.7,0,0,0,10,.6c1.37-.69,2.71-2.3,2.21-3.95-.55-1.82-3-1.79-4.49-1.64-3.45.34-8.43,2.56-8.75,6.55-.44,5.35,8.86,8,12.78,8.78.68.14,3.19-1,2.38-1.13-3.61-.77-11.69-3-12.25-7.61-.43-3.43,6.72-8.08,7.47-3.86.7,3.91-5,2.34-6.63,1.28-.68-.46-3.13.72-2.73,1Z"/><path d="M458.55,115.43l-.05,8.49c0,1.38-.52,3.55,1.21,4a2,2,0,0,0,2.05-.55l.24-.25c1.24-1.34-1.53-1.83-2.43-.86l-.23.25,2-.55c-.27-.07.1-9.73.11-10.73,0-1.52-2.93-1.1-2.94.22Z"/><path d="M469.63,119.42a47.13,47.13,0,0,0-1.9,8.88c-.14,1.14,2.78.62,2.89-.37a48.3,48.3,0,0,1,1.91-8.88c.31-1-2.59-.61-2.9.37Z"/><path d="M458.12,123.66l10.65,1.86c.9.16,3.41-1.26,1.79-1.54l-10.66-1.86c-.9-.16-3.4,1.26-1.78,1.54Z"/><path d="M487,127.1c-.44-5.44-7.27-5.27-10.5-2.38-1.7,1.51-3.2,4.54-1.23,6.43,1.51,1.45,4,1,5.83.42,5-1.78,10.1-6.55,6.66-12-3.27-5.19-11.4-9.4-17.33-6.85-1.88.81-.12,1.32,1,.82,3.46-1.48,8.6,2.21,11.19,4.44,2.23,1.91,4.19,4.74,3.09,7.8-.74,2.06-6.93,7.79-8.42,3.26a4.22,4.22,0,0,1,.5-2.88l3.47-2.07c1.81.08,2.69,2.34,2.8,3.79.06.66,3,.11,2.9-.78Z"/><path d="M503.53,131c.11-7.12-16.52-4.66-14.14,1.9,1.15,3.16,5.58,2.66,8.13,2.08,3.14-.72,6.12-2.32,7.21-5.52l-2.86.52c-.9,2.89-1.64,6.13,1,8.33.59.49,3.15-.63,2.73-1-2.46-2.06-1.71-5.18-.87-7.87.17-.54-2.61-.2-2.86.52a5.86,5.86,0,0,1-3.91,4c-1.91.57-4.88.4-5.67-1.82-1.79-5,8.42-5.41,8.34-.35,0,.43,2.88.05,2.9-.77Z"/><path d="M521.08,136.13c-3.24,1.82-1.93,6.34,1.1,7.56s7.61.21,9.39-2.61c2.37-3.75-1.34-6.55-4.85-6.63-3.16-.07-7.22,1.38-7.43,5.06,0,.43,2.85.09,2.9-.78a3.68,3.68,0,0,1,1.78-3,4.84,4.84,0,0,1,3.38.49,3.61,3.61,0,0,1,1.64,4.87c-2.79,5.77-10-2.43-5.68-4.86.59-.34.22-.52-.18-.65a3.27,3.27,0,0,0-2,.55Z"/><path d="M542.78,138.87l.13-.27-1.9.84c1,.11,1.07,6.3,1,6.92-.07,1.57-1,3.59-.42,5.06.16.4.53.48.92.54a2.48,2.48,0,0,0,2.07-.55c.28-.23.61-.52.52-.93l-.06-.27c-.28-1.16-3.18-.41-2.9.78l.06.27.52-.93-.27.21,1.46-.39-.33-.05.91.54c-.46-1.2.37-3.29.43-4.57a21.41,21.41,0,0,0-.19-4c-.27-1.88-.46-4.25-2.7-4.5a2.08,2.08,0,0,0-1.9.84l-.13.27c-.67,1.36,2.24,1.19,2.73.19Z"/><path d="M543.76,138.89c-3-2.55-9.44-1.32-10.87,2.45a3.61,3.61,0,0,0,1.93,4.59c2.31,1.17,5,.48,7.32-.24,1.71-.53,1.33-2.11-.42-1.57-2,.62-5.63,1.43-6.15-1.58-.5-2.85,3.6-4.13,5.51-2.48.81.7,3.53-.43,2.68-1.17Z"/><path d="M542,139.28c2,.48,4.25,1,5.78,2.51.48.47,1.72,1.93,1.27,2.74s-3.2.59-4.12.49c-1.2-.13-3,1.56-1.1,1.77,2.49.26,9.56,0,7.95-4.2-1.22-3.2-5-4.27-8-5a2.32,2.32,0,0,0-2,.55c-.39.46-.36,1,.3,1.13Z"/><path d="M554.72,145a5.16,5.16,0,0,0,1,9.57c4.77,1.51,9.28-1.76,10.72-6.22l-2.9.56a6.44,6.44,0,0,0,3.64,5.06c.88.45,3.53-.81,2.3-1.44a5.5,5.5,0,0,1-3-4.4c-.15-1.14-2.66-.17-2.9.56-1,3.19-4.51,6.33-7.61,3.26a3.84,3.84,0,0,1,.6-6c1.71-1-.83-1.48-1.81-.93Z"/><path d="M583.08,154c2.83-1.82-1.61-3.7-3.19-3.95a10.48,10.48,0,0,0-7.8,1.93c-2.6,1.95-3.64,4.67-.61,6.68a19.75,19.75,0,0,0,11.66,2.78c1.51-.06,2.34-1.87.34-1.79-2.7.11-10.63-.72-10.66-4.31,0-1.86,1.59-3,3.33-3.44a5.9,5.9,0,0,1,2.61,0c.45.1,2.42,1.14,2.48,1.1-1.65,1.06.81,1.69,1.84,1Z"/><path d="M599.74,163.12c4.55-1.22,3.14-5.39-.7-6.86-3.5-1.34-8.42-.44-10.76,2.62-3.09,4,1.2,7.56,5.2,7.92,4.19.37,8.28-2,9.31-6.15l-2.79.74a43.23,43.23,0,0,0,6.58,7.88c.66.63,3.36-.45,2.7-1.07a43.86,43.86,0,0,1-6.57-7.88c-.44-.66-2.63.08-2.8.75-.7,2.84-2.54,5.23-6.62,3.86a4.71,4.71,0,0,1-2.73-2.31c-1.41-3,1-6.68,6.14-5.07.51.16,5.52,3.58,2.71,4.34-1.71.46-1.4,1.69.33,1.23Z"/><path d="M377.62,192.07,390,193l-1-1c-1,4.19-7.31,7.79-10.7,10.08-1.32.89.15,2,1.25,1.73,5.74-1.52,13.72-2,15,5.61.76,4.65-2.38,9.12-7.75,8.78-1.05-.07-9-2.63-8.61-3.94.5-1.62-2.38-1.65-2.78-.37-1.15,3.71,7.81,6.2,10.4,6.48a10.42,10.42,0,0,0,10.33-4.78,10,10,0,0,0-1.31-12.08c-4.17-4.29-10.63-3.13-15.8-1.77l1.25,1.73c4.16-2.81,10.42-6.47,11.7-11.67.13-.53-.54-.95-1-1l-12.38-.94c-1.46-.11-2.94,2-1,2.17Z"/><path d="M400.57,196.07c.22,8.64-.24,17.29,0,25.93,0,1.5,2.74,1,2.93-.24l.34-2.18c.23-1.42-2.73-1-2.93.24l-.34,2.18,2.93-.24c-.22-8.64.24-17.29,0-25.93,0-1.48-3-1-2.93.24Z"/><path d="M402.13,196.88c3.12.25,9,.46,11.7,2.29,3.32,2.27,2.31,7.15,2,10.52-.48,5.37-1.12,10.5,0,15.85.22,1.05,2.69.18,2.9-.57l.26-1c.29-1-2.62-.62-2.89.36l-.27,1,2.9-.57c-.94-4.57-.6-9.07-.16-13.68.29-3,1.13-6.88.29-9.88-1.55-5.57-11-5.58-15.58-6-1.11-.09-3.08,1.48-1.13,1.64Z"/><path d="M438.37,206.37a194.49,194.49,0,0,0-4.87,22.13c0,.29,2.76.09,2.9-.78a190,190,0,0,1,4.83-21.87c.16-.54-2.65-.2-2.86.52Z"/><path d="M440.6,206.88l1-.54-2.05-.34c.38,3.83,1.09,15.53,6.74,15.76,5.49.23,8.19-9.8,9.77-13.51l-2.82.29q1.05,11.78,1.89,23.56c.08,1.13,3,.48,2.89-.77q-.84-11.79-1.88-23.57c-.1-1.12-2.53-.4-2.82.29-.86,2-4,12-7.05,11.21-1.27-.33-2.36-5.77-2.64-6.88a48.16,48.16,0,0,1-1.18-7.16c-.08-.81-1.67-.54-2.06-.33l-1,.54c-1.76.92-.16,2.17,1.22,1.45Z"/><path d="M461.94,230.55c2.55-.21,9.06.28,8.21-4.31-.64-3.46-5.65-2.84-7.77-1.42a7.09,7.09,0,0,0-2.08,9.33c2,3.72,6.13,5,10.09,4.74,1.61-.1,2.25-2.2.27-2.07-3.69.22-7.33-1.57-8.2-5.4-.39-1.74-.09-4,1.54-5.13l1.73-.56q.67,3.24-1.48,2.7c-.65.09-1.38,0-2,0-1.61.13-2.25,2.23-.27,2.07Z"/><path d="M474.4,226.66l.33,13.44c0,.66,2.92.17,2.9-.77l-.34-13.44c0-.66-2.92-.17-2.89.77Z"/><path d="M480.68,229l-.39,11.71c0,.55,2.86.15,2.89-.77l.4-11.72c0-.54-2.87-.14-2.9.78Z"/><path d="M475.67,236.34l4.64.35a2.92,2.92,0,0,0,2.05-.54c.4-.35.4-.81-.23-.86l-4.64-.35a2.94,2.94,0,0,0-2.05.55c-.4.34-.4.8.23.85Z"/><path d="M486.81,239.38c2.74.14,7-.55,8.6-3.14,1.86-3.05-2.78-3.35-4.58-2.77a6.12,6.12,0,0,0-4.39,6c.18,3.39,3.4,5.57,6.53,5.76a2.87,2.87,0,0,0,2-.55c.29-.36.52-.72-.2-.77a5.74,5.74,0,0,1-5.45-4.93,4.94,4.94,0,0,1,1.1-3.67c.59-.61,2.47-1.13,2.41.22l-.94,1.69a4.69,4.69,0,0,1-3.29.84,2.86,2.86,0,0,0-2,.55c-.29.36-.52.73.2.77Z"/><path d="M501.65,236.11a57,57,0,0,1-4.6,8.57c-.29.45,1.05.31,1.17.29a2.55,2.55,0,0,0,1.69-.8,56.47,56.47,0,0,0,4.6-8.57c.21-.48-2.54-.24-2.86.51Z"/><path d="M502.17,236.87l5,9.07c.59,1.08,3.36,0,2.66-1.25l-5-9.07c-.59-1.08-3.37,0-2.66,1.25Z"/><path d="M496.38,245.27a32.41,32.41,0,0,1,14.12,2.18c.67.25,3.28-.82,2.37-1.17A34.94,34.94,0,0,0,497.62,244c-.82.06-3.14,1.38-1.24,1.24Z"/><path d="M495.15,245.06a7.57,7.57,0,0,0,4.53,5.33,2.85,2.85,0,0,0,2-.34c.33-.18.93-.61.33-.85a7,7,0,0,1-4-4.91c-.17-.73-3.08,0-2.89.77Z"/><path d="M510.2,246.8a25,25,0,0,0-1.63,6.32c-.19,1.53,2.77,1.18,2.94-.2a22.68,22.68,0,0,1,1.47-5.73c.64-1.58-2.27-1.65-2.78-.39Z"/><path d="M513.72,240.28a49.32,49.32,0,0,0,1.66,13.18c.27,1,3.17.25,2.9-.78a47.81,47.81,0,0,1-1.66-12.76c0-1.22-2.89-.62-2.9.36Z"/><path d="M521.79,242a98.41,98.41,0,0,0,1.37,12.11c.08.49,3-.14,2.89-.77a100.76,100.76,0,0,1-1.36-12.12c0-.39-2.93.06-2.9.78Z"/><path d="M531,244.62a51.41,51.41,0,0,1-2.09,11.86c-.23.79,2.63.41,2.88-.44a52.06,52.06,0,0,0,2.1-12.2c0-.62-2.84-.21-2.89.78Z"/><path d="M515.48,249a109.1,109.1,0,0,1,14,4c1.25.44,3.39-1.36,1.66-2a113.51,113.51,0,0,0-14.71-4.15c-1.44-.3-2.92,1.72-1,2.13Z"/><path d="M536,253.48a9.79,9.79,0,0,0,9.31-.64c3.6-2.58-2.94-4.23-4.88-4.06-3.57.31-6.16,3.1-5.63,6.74.7,4.75,5.41,6.62,9.43,7.91,1.06.33,3.41-1.21,1.73-1.74-3.79-1.21-8.92-3.38-8.29-8.3a2.86,2.86,0,0,1,2.42-2.78c.34,0,3.19.33,3.17.93,0,1.53-4.23.82-5,.42-.95-.5-3.57.83-2.27,1.52Z"/><path d="M550,253.71a44.47,44.47,0,0,0,0,11.64c.1.7,3,.09,2.9-.78a42.9,42.9,0,0,1-.07-11.32c.11-.86-2.77-.32-2.87.46Z"/><path d="M552.68,253.11c.85-1,3.2.78,3.82,1.35a7.5,7.5,0,0,1,2,3.07c.7,2.05,0,3.78-2.3,3.61a18.94,18.94,0,0,1-3.15-.73c-.87-.23-3.39,1.09-1.79,1.51,2.32.6,4.77,1.33,7.13.47,2.62-1,4-3.2,2.91-5.9-1.65-4.16-7.85-7.56-11.35-3.4-.77.93,2.11.71,2.69,0Z"/><path d="M564.42,255.79q-1.57,6-3.16,12l2.92-.3c.11-1.7.32-3.38.47-5.07a23.16,23.16,0,0,1,.18-2.51c-.12-1.14.51-1.75,1.88-1.85,1.1-1.23,2.07-1.22,2.91.05,3.28,3.32,3.79,9.46,3.46,13.8-.1,1.32,2.83.82,2.91-.3.41-5.41-.67-16.46-8-16.75-7-.27-6.36,8.08-6.68,12.93-.09,1.39,2.65.72,2.92-.3q1.58-6,3.16-12c.31-1.2-2.62-.81-2.92.3Z"/><path d="M563.34,263.72c1.83.38,3.64.84,5.45,1.28.62.15,4.49.68,4.65,1.21l.48-1.07-.18.17c-1.45,1.32.83,2.38,1.93,1.37l.19-.17a1.09,1.09,0,0,0,.48-1.08c-.55-1.83-3.44-1.83-5-2.2-2.34-.57-4.67-1.18-7-1.66-1.45-.3-2.91,1.76-1,2.15Z"/><path d="M363,241.1l5.88.31c1.49.08,5.48-.4,6.63.34.86-.15,1,0,.32.54a2.11,2.11,0,0,1-1,.86,20.92,20.92,0,0,1-2.22,1.36,64,64,0,0,1-6.12,3.12c-.49.21-1,.66-.13.7,4.41.2,9.32,1.29,11.92,5.24.7,1.06,2,3.65,1.16,4.9-1.23,1.81-5.43,1.77-7.07,1.41-.36-.08-3.86-.91-3.28-1.74l-1.31.66.68-.16c1.68-.4,1.49-1.19-.21-.79a3.25,3.25,0,0,0-2.41,1.4.14.14,0,0,0,.06.21,16.14,16.14,0,0,0,11.87,1.11c3.31-.94,5.8-2.54,4.16-6.36-1.82-4.27-6.56-6.38-10.95-6.8,1.55.15-1.86-.24-1.66,0s3.36-1.66,3.78-1.89a68.2,68.2,0,0,0,6.83-4.31c.41-.29-.13-.41-.35-.42L364.87,240c-.58,0-3.27,1-1.89,1.11Z"/><path d="M387.17,245.6a48.36,48.36,0,0,0-.82,19.53c.12.64,2.94,0,2.9-.77l-.06-1.11c0-.53-2.93-.05-2.89.78l.05,1.1,2.9-.77A47.56,47.56,0,0,1,390,245.1c.16-.66-2.68-.24-2.86.5Z"/><path d="M387.65,245.9c3.66-.12,13.45-1.15,14.14,3.57.75,5.08.24,10.6-.39,15.67,0,.26,2.8.05,2.9-.78a79.09,79.09,0,0,0,.64-10c0-2,.52-6.3-1-7.94-1.29-1.38-4.35-1.23-6-1.41a61.36,61.36,0,0,0-8.36-.24c-.56,0-3.24,1.15-1.9,1.1Z"/><path d="M426.33,246.09l-5.86,19c-.38,1.23,2.56.88,2.92-.27l5.86-19c.38-1.23-2.56-.88-2.92.27Z"/><path d="M429.16,245.54l-.34.54-2.26.09c2.24,2.62,3.3,7.75,4.61,11l4.35,10.75,2.59-1.13-.68-.39c-.89-.52-3.54.76-2.29,1.48l.68.39c.59.34,3-.09,2.59-1.13l-5-12.28c-1.2-3-2.11-7.4-4.2-9.84-.52-.62-1.7-.21-2.25.09l-.24.13a.93.93,0,0,0-.53.88l0,.22c.22,1.09,3.13.37,2.9-.78Z"/><path d="M416.87,265.56A107.37,107.37,0,0,1,429.51,267q2.58.45,5.12,1c.85.19,1.7.4,2.54.61q3.38,0,1.08,3.53c-1.46.24-2.33,2.12-.34,1.81,2.78-.44,7.23-3.6,3.73-6.24-2.51-1.88-8.21-2.11-11.25-2.62A112.86,112.86,0,0,0,418,263.74c-1.23-.07-3,1.71-1.08,1.82Z"/><path d="M415.83,265.6a35.23,35.23,0,0,0,9.73,6.08c1.2.5,3.36-1.22,1.68-1.93a33.08,33.08,0,0,1-9.17-5.81c-.94-.83-3.48.56-2.24,1.66Z"/><path d="M445.71,264.65c-1.08,5.4-.3,11.87,5.94,13.29,5.57,1.26,9-2.62,9.76-7.84.2-1.47-2.49-1.15-2.87-.09a11.22,11.22,0,0,0,1.07,10.05c.72,1.16,3.47,0,2.65-1.3a9.39,9.39,0,0,1-.93-8.38l-2.87-.09c-.22,1.65-.64,3.63-1.94,4.8-1.62,1.45-4.46,1-6.08-.39-2.86-2.36-2.44-7-1.79-10.24.29-1.48-2.67-1.15-2.94.19Z"/><path d="M466.08,267.3l1.43.71a1.92,1.92,0,0,1,.38,2.73c-.49,1.68-1.16,2-2.67,2.74-.9.46-.53,1.19.34,1.25a14.88,14.88,0,0,1,8.29,3.07c.81.64,2.17,1.75,2.39,2.78.59,2.73-3.08,1.77-4.64,1.44v1.22l.86-.59c1.6-1.12-.88-1.5-1.8-.86l-.86.59c-.53.37-.87,1,0,1.22,2.58.54,10.06,1.18,9.39-3.34-.71-4.83-8.58-6.92-12.52-7.17l.33,1.25c2.8-1.44,6.67-5.14,2.65-8a5.26,5.26,0,0,0-6.29.86c-.81.95,2.09.78,2.7.06Z"/><path d="M493.28,283.23c2.48-3.77-2.5-5.12-5.43-5.27-3.27-.17-7.39,3-7.38,6.55,0,3.38,4.36,4.19,6.91,3.56a8.86,8.86,0,0,0,6.72-8.49l-2.79.75c2.36,4.3,2.1,11.1,8.34,11.65,1.45.13,3-2,1-2.15-4.7-.42-4.87-7.49-6.68-10.79-.53-1-2.78-.32-2.8.75,0,2.59-2.65,8.14-6.14,5.85-1.47-.1-1.74-.82-.83-2.17a3.23,3.23,0,0,1,1-2.46c.73-.65,7-.79,5.64,1.32-1,1.55,1.68,2,2.44.9Z"/><path d="M503.65,284.55c-1.66,4.68.34,10.22,5.8,10.84,4.13.46,8.48-2.66,8.47-7,0-1.27-2.89-.7-2.91.33a17.64,17.64,0,0,0,3.29,10.65c.6.85,3.4-.14,2.68-1.17a16.34,16.34,0,0,1-3.06-9.81l-2.91.33c0,4.22-4.53,6.38-7.51,3.07-2-2.22-1.88-5-.94-7.6.37-1-2.54-.69-2.91.33Z"/><path d="M524.72,290.35a39.23,39.23,0,0,0,.06,11.8c.11.66,3,0,2.9-.77a38,38,0,0,1-.09-11.52c.11-.77-2.76-.26-2.87.49Z"/><path d="M530.58,292.7l2,10.27c.24,1.25,3.15.52,2.89-.78l-2-10.27c-.25-1.25-3.15-.52-2.9.78Z"/><path d="M525.2,298.32l6.93,1a3.48,3.48,0,0,0,2-.36c.2-.1,1-.68.35-.78l-6.93-1a3.57,3.57,0,0,0-2,.36c-.2.11-1,.69-.35.78Z"/><path d="M539.37,301.21c2.47.33,6.31-.69,7.34-3.25,1.33-3.29-2.3-4.3-4.78-3.53-2.68.84-5.21,4-4.06,6.94.62,1.56,2.4,2.34,3.84,3A21.23,21.23,0,0,0,548,305.9c1.35.14,3-1.78,1-2-2.54-.27-9.26-1.36-8.38-5.18a3.66,3.66,0,0,1,1.7-2.4c.8-.37,1.64-.11,1.7.88.09,1.68-2.43,2.16-3.63,2s-3,1.73-1,2Z"/><path d="M551.51,299.82a30.53,30.53,0,0,0,1,8.56l2.9-.77a14.27,14.27,0,0,1-.69-6.25,9.36,9.36,0,0,1,.93-3.24c.64-1.16,1-1.65,2.27-.95a4,4,0,0,1,1.62,4.7c-.64,2.08-2.11,2.78-4.23,2.21-.64-.18-3.15.87-2.39,1.07,2.56.69,5.66.5,7.78-1.28s2.71-5,.66-7.06-5.33-1.49-7.3.21c-3,2.62-2.65,8-1.55,11.36.19.59,3.05-.2,2.9-.77a30.17,30.17,0,0,1-1.05-8.56c0-.38-2.88,0-2.9.77Z"/><path d="M564.87,299.7c-.08,3.92-.57,7.83-1,11.73l2.92-.49a27.15,27.15,0,0,1-.37-6.11,9,9,0,0,1,.06-2.79c1.07-2.16,3.11-.54,4.15.3,3.44,2.77,4.84,7.37,6.09,11.43l2.28-1.39-1.13-.41c-1.28-.47-3.39,1.37-1.65,2l1.12.42c.78.29,2.63-.26,2.28-1.39-1.64-5.36-4.34-13.37-10.87-14.32-6.86-1-5.78,8.78-4.86,13,.29,1.33,2.79.66,2.92-.49.42-3.9.91-7.81,1-11.73,0-1.55-2.92-1.16-2.94.2Z"/><path d="M566.49,307.89a15.21,15.21,0,0,1,8.89,1.86c1.17.65,3.67-.92,2.22-1.73a18.72,18.72,0,0,0-10.88-2.37c-1.67.15-2.2,2.41-.23,2.24Z"/><path d="M355,288.14C351.49,295.34,344.9,317,359,318c12,.86,16.46-15.77,16.57-24.82,0-1.2-2.71-.56-2.9.36-1.9,9.3-3.8,18.58-5.26,27.95-.18,1.11,2.74.61,2.89-.37,1.47-9.37,3.36-18.65,5.27-27.94l-2.9.36a35.85,35.85,0,0,1-1.93,11.62c-1.76,4.95-7.79,15.86-14.51,9.19-6.39-6.35-1.79-19.46,1.53-26.17.6-1.22-2.28-.89-2.7-.05Z"/><path d="M388.84,311.49l.05-.26c.05-.24-.08-.34-.27-.43l-.3-.15a2.67,2.67,0,0,0-2.31.48c-1.65,1.42-1.78,5.12-2.24,7.15-.34,1.55-.66,3.12-.95,4.69-.16.87-.54,1.72,0,2.48.35.54,1.88,0,2.22-.21l.22-.13c.15-.09.73-.43.58-.72l-.09-.16c-.48-.87-3.26.13-2.9.78l.09.16.58-.72-.22.13,2.23-.2c-.37-.57.36-2.66.51-3.41.24-1.21.5-2.43.77-3.64s.65-5.14,1.52-5.89l-2.31.49h0c-.18.92,2.71.44,2.88-.43Z"/><path d="M377.3,309.09c5.75,1.64,11.57,3.14,17.26,5,.68.23,3.26-.87,2.37-1.16-5.69-1.86-11.51-3.35-17.26-5-.69-.2-3.26.91-2.37,1.16Z"/><path d="M396,323.85c.38,3.68,4.83,6,8.17,6.06a7.58,7.58,0,0,0,7.49-7.31c.47-10.74-18.78-8.8-15.66,1.25.38,1.23,3.27.44,2.89-.78-1.15-3.72,2.15-6.73,5.83-5.6a5.52,5.52,0,0,1,3.85,6.62c-.61,2.73-2.6,4.45-5.36,3.5-2-.71-4.08-2.25-4.32-4.52-.12-1.21-3-.53-2.89.78Z"/><path d="M416.07,319.52q-1.14,6.8-1.65,13.66c-.08,1.19,2.43.37,2.79-.18l1.07-1.63c.69-1.07-2.19-.78-2.69,0L414.53,333l2.78-.18q.51-6.87,1.66-13.66c.17-1.05-2.74-.56-2.9.38Z"/><path d="M416.75,319.51c1.7.41,3.4.84,5.09,1.27l2.14.53c.34.08,3.25.8,2.53,1.4-1.21,1,1.66.84,2.28.31,2.26-1.9-1.48-2.75-2.77-3.07-2.48-.61-5-1.26-7.45-1.85-.79-.19-3.37,1-1.82,1.41Z"/><path d="M432.77,324.14c-4.08,1.4-5,5.29-3.43,9.21A8.55,8.55,0,0,0,440,338.08c3.75-1.27,6.41-5.53,4.53-9.34-2-4.07-7.19-5.92-11.42-4.93-1.78.41-1.32,2.11.46,1.7,5-1.16,12.41,6.25,6.83,10.28-6.35,4.57-12-8.28-7.17-10,1.69-.59,1.29-2.3-.46-1.7Z"/><path d="M357.37,275.71C439.86,293,519,322.38,599,348.31c22,7.14,44.1,14,66.35,20.29.87.25,3.39-1.05,1.8-1.5-80.46-22.79-158.56-53.1-239-75.82-22.79-6.43-45.76-12.22-68.93-17.08-.87-.18-3.4,1.17-1.8,1.51Z"/><path d="M662.31,174.77c-3.91,2.85-8.12,10.16-4.43,14.79,2.45,3.07,7.07.64,9.16-1.59,2.82-3,5-10.91.68-13.8-3.52-2.33-7.52,2.12-9.2,4.6-.11.17,1.19.12,1.43-.24a11.28,11.28,0,0,1,1.4-2c.91-.85,5.67-.9,6.41.06a6.78,6.78,0,0,1,.8,3.2,11,11,0,0,1-2.84,8.26c-1.25,1.34-1.63,1.3-3.66,1.46s-2.52.36-3.34-1.46a8.62,8.62,0,0,1-.54-4,12.53,12.53,0,0,1,5.25-9.27c.59-.43-.85-.26-1.12-.06Z"/><path d="M655.35,171.67c.22-3.35-2.77-3.84-5.68-3.3s-5.19,3.79-5,6.82,3.42,3.93,6,3.28a6.57,6.57,0,0,0,4.75-6.89c0-.45-1.33,0-1.44.3l-3.12,8.57a16.65,16.65,0,0,1-1.17,3.26c-2.39,3.69-5.48,1-7.51-.55-.37-.28-1.69.28-1.36.54,2.44,1.92,5.75,3.86,8.76,1.83,1.55-1.05,1.92-3.06,2.51-4.72,1.1-3.05,2.22-6.09,3.33-9.14l-1.45.3c.09,1.47-.19,3.4-1.39,4.45-1.79,1.58-5.44,2.16-6.3-.73a5.73,5.73,0,0,1,.46-3.47c1.28-3.07,7.54-4.77,7.24-.34,0,.51,1.41.21,1.44-.21Z"/><path d="M679.56,180.91c-3.91,2.85-8.12,10.17-4.43,14.79,2.45,3.07,7.07.64,9.15-1.59,2.82-3,5.05-10.91.69-13.79-3.53-2.34-7.52,2.12-9.2,4.6-.12.17,1.19.11,1.43-.25a11.67,11.67,0,0,1,1.4-2c.9-.85,5.67-.9,6.41.06a6.79,6.79,0,0,1,.8,3.21A11,11,0,0,1,683,194.2c-1.25,1.34-1.63,1.3-3.66,1.47s-2.53.35-3.34-1.47a8.45,8.45,0,0,1-.54-4,12.5,12.5,0,0,1,5.24-9.26c.6-.43-.84-.27-1.11-.07Z"/><path d="M693.57,185.9c-3.91,2.85-8.11,10.17-4.43,14.79,2.45,3.07,7.07.64,9.16-1.59,2.82-3,5-10.91.69-13.79-3.53-2.34-7.53,2.12-9.21,4.6-.11.17,1.19.11,1.43-.25a12.25,12.25,0,0,1,1.4-2c.91-.84,5.67-.9,6.41.07a6.61,6.61,0,0,1,.8,3.2A11,11,0,0,1,697,199.2c-1.25,1.33-1.63,1.29-3.66,1.46s-2.52.35-3.33-1.46a8.52,8.52,0,0,1-.55-4,12.51,12.51,0,0,1,5.25-9.26c.59-.43-.85-.27-1.12-.07Z"/><path d="M707.05,190.7c-3.92,2.85-8.12,10.17-4.43,14.79,2.45,3.07,7.07.64,9.15-1.59,2.82-3,5.05-10.91.69-13.79-3.53-2.34-7.52,2.12-9.2,4.6-.12.17,1.18.11,1.43-.25a12.2,12.2,0,0,1,1.39-2c.91-.85,5.68-.9,6.42.06a6.91,6.91,0,0,1,.8,3.21,11,11,0,0,1-2.84,8.25c-1.25,1.34-1.63,1.3-3.66,1.47s-2.53.35-3.34-1.47a8.45,8.45,0,0,1-.54-4,12.5,12.5,0,0,1,5.24-9.26c.59-.43-.84-.27-1.11-.07Z"/><path d="M722,192.38l-5.45,19c-.19.65,1.22.48,1.42,0a4,4,0,0,1,.67-1.24c.42-.64-1-.65-1.38-.14a3.82,3.82,0,0,0-.67,1.24H718l5.46-19c.19-.66-1.29-.49-1.47.12Z"/><path d="M723.13,192.72c1.27-2,4-1.21,5.3.21a5.68,5.68,0,0,1,1.49,3.1,5.09,5.09,0,0,1-1.22,4.16c-1.57,1.74-3.62,1.84-5.75,1.28-.57-.15-1.71.69-.85.92,2.4.63,4.7.61,6.78-.92a6.06,6.06,0,0,0,2.38-6.38c-1-4.07-6.86-6.61-9.5-2.49-.41.63,1.06.61,1.37.12Z"/><path d="M714.91,207.22l7,.59c.4,0,1.69-.65.91-.72l-7-.58c-.4,0-1.68.65-.9.71Z"/><path d="M633.38,224c-.1-.65-.53-2.42-.16-2.93l2.81-1.2.66.68c2,1.58,1.54,4.49.3,6.24a22.25,22.25,0,0,1-4.44,4c-.79.62-2.38,1.31-2.82,2.28-2.05,4.45,8.85,2.67,9.12,4.63.06.42,1.52.1,1.45-.38l-.11-.8c0-.16-.32-.17-.43-.17-2.18-.05-10.33-.17-8-3.94.84-1.37,3.53-2.69,4.76-3.82,2.59-2.41,4.47-4.25,2.15-7.74-1-1.56-2.56-2.8-4.5-2.19-2.58.82-2.56,3.53-2.2,5.75.06.42,1.52.09,1.44-.39Z"/><path d="M649.29,225.44c-3.71,2.76-7.65,9.78-4.09,14.16,2.38,2.92,6.81.56,8.79-1.6,2.66-2.91,4.7-10.46.52-13.18-3.41-2.21-7.21,2.08-8.8,4.49-.12.17,1.19.11,1.43-.25s.59-.93.91-1.37q1-2.19,3.58-1c1.56-.76,2.52-.6,2.87.45a6.53,6.53,0,0,1,.79,3.05,10.52,10.52,0,0,1-2.62,7.9c-1.67,1.83-5.41,2.68-6.61.07a8.21,8.21,0,0,1-.56-3.77,11.94,11.94,0,0,1,4.91-8.88c.58-.44-.85-.27-1.12-.07Z"/><path d="M665.8,231.13c-3.7,2.76-7.65,9.78-4.08,14.16,2.38,2.92,6.8.56,8.78-1.6,2.67-2.91,4.71-10.47.52-13.18-3.41-2.21-7.2,2.08-8.8,4.48-.12.18,1.19.12,1.43-.24s.59-.93.92-1.37c.67-1.46,1.86-1.79,3.57-1,1.57-.75,2.52-.59,2.87.46a6.42,6.42,0,0,1,.8,3,10.54,10.54,0,0,1-2.63,7.9c-1.67,1.83-5.41,2.67-6.6.07a8,8,0,0,1-.56-3.78,11.88,11.88,0,0,1,4.9-8.87c.59-.44-.85-.27-1.12-.07Z"/><path d="M679.22,235.75c-3.71,2.76-7.65,9.78-4.09,14.16,2.38,2.92,6.81.56,8.79-1.6,2.66-2.91,4.71-10.47.52-13.18-3.41-2.21-7.21,2.08-8.8,4.48-.12.18,1.19.12,1.43-.24s.59-.93.91-1.37c.68-1.46,1.87-1.79,3.58-1,1.56-.75,2.52-.59,2.87.46a6.41,6.41,0,0,1,.79,3.05,10.49,10.49,0,0,1-2.62,7.9c-1.67,1.83-5.41,2.67-6.61.07a8.23,8.23,0,0,1-.56-3.78,11.94,11.94,0,0,1,4.91-8.87c.59-.44-.85-.27-1.12-.07Z"/><path d="M692.12,240.19c-3.7,2.76-7.65,9.78-4.08,14.16,2.38,2.93,6.8.56,8.78-1.6,2.67-2.91,4.71-10.46.52-13.18-3.41-2.21-7.2,2.08-8.8,4.49-.12.17,1.19.11,1.43-.25s.59-.93.92-1.37q1-2.19,3.57-1c1.56-.75,2.52-.6,2.87.46a6.38,6.38,0,0,1,.8,3,10.52,10.52,0,0,1-2.63,7.9c-1.67,1.83-5.41,2.68-6.6.08a8,8,0,0,1-.56-3.78,11.92,11.92,0,0,1,4.9-8.88c.59-.44-.85-.27-1.12-.07Z"/><path d="M706.91,240.1l-5,18.2c-.18.65,1.23.48,1.42,0a3.86,3.86,0,0,1,.62-1.19c.43-.65-1.05-.65-1.38-.14a3.76,3.76,0,0,0-.62,1.19h1.42l5-18.2c.18-.67-1.3-.49-1.47.12Z"/><path d="M708.08,240.42c2.15-3.42,6.11.67,6.46,3.19a4.84,4.84,0,0,1-1.13,3.86c-1.46,1.65-3.41,1.79-5.42,1.28-.57-.14-1.72.7-.86.91,2.31.59,4.53.55,6.5-.94a5.77,5.77,0,0,0,2.25-6.06c-1-3.93-6.68-6.34-9.18-2.36-.4.65,1.07.62,1.38.12Z"/><path d="M700.32,254.34l6.71.49c.4,0,1.68-.65.91-.71l-6.71-.49c-.4,0-1.68.66-.91.71Z"/><path d="M600.35,273.09a15.63,15.63,0,0,0,7.08-8.56c.14-.38-1.28-.18-1.44.22-1,2.48-3.48,16-7.48,15.1-.33-.08-1.71.44-1.17.62,2.5.83,6.66,1.46,8.34,3.67.25.33,1.64-.15,1.36-.52-1.81-2.38-5.85-2.88-8.53-3.77l-1.17.62a4.82,4.82,0,0,0,5.35-1.88c1.15-1.58,1.48-3.7,2-5.53a81.55,81.55,0,0,1,2.76-8.53l-1.44.22a14.43,14.43,0,0,1-6.5,8c-.84.49.46.54.86.3Z"/><path d="M631.89,276.34c-3.68,2.82-7.54,9.91-3.9,14.25,2.42,2.9,6.82.49,8.78-1.7,2.65-2.95,4.57-10.56.35-13.22-3.45-2.17-7.2,2.15-8.77,4.59-.12.19,1.2.12,1.43-.24s.58-.94.9-1.39c1.41-2,1.6-2.1,4.1-1.52s2.8,1.1,3.15,3.51a10.63,10.63,0,0,1-2.21,8.06,5.18,5.18,0,0,1-1.1,1.14l-4.67.88-1-1.16a7.54,7.54,0,0,1-.78-3.71,11.88,11.88,0,0,1,4.79-9.42c.58-.45-.85-.27-1.12-.07Z"/><path d="M648.53,281.82c-3.68,2.82-7.54,9.9-3.91,14.25,2.43,2.9,6.82.48,8.79-1.71,2.64-2.95,4.56-10.55.34-13.22-3.44-2.17-7.19,2.16-8.76,4.6-.12.18,1.19.12,1.43-.25s.58-.94.9-1.38c1.41-2,1.59-2.1,4.09-1.53s2.81,1.1,3.16,3.52a10.61,10.61,0,0,1-2.22,8.06,5.41,5.41,0,0,1-1.1,1.14l-4.67.88-1-1.17a7.51,7.51,0,0,1-.78-3.7,12,12,0,0,1,4.79-9.43c.59-.44-.84-.27-1.11-.06Z"/><path d="M662,286.27c-3.68,2.81-7.54,9.9-3.9,14.24,2.43,2.91,6.82.49,8.78-1.7,2.65-2.95,4.57-10.56.35-13.22-3.44-2.17-7.2,2.15-8.77,4.6-.11.18,1.2.12,1.43-.25s.59-.94.9-1.39c1.41-2,1.6-2.1,4.1-1.52s2.8,1.1,3.15,3.52a10.61,10.61,0,0,1-2.21,8.05,5.18,5.18,0,0,1-1.1,1.14l-4.67.88-1-1.16a7.54,7.54,0,0,1-.78-3.71,11.9,11.9,0,0,1,4.79-9.42c.58-.45-.85-.27-1.12-.06Z"/><path d="M675,290.54c-3.68,2.82-7.54,9.91-3.9,14.25,2.42,2.9,6.81.48,8.78-1.71,2.64-2.94,4.57-10.55.34-13.21-3.44-2.17-7.19,2.15-8.76,4.59-.12.18,1.2.12,1.43-.24s.58-.94.9-1.39c1.41-2,1.59-2.1,4.09-1.52s2.81,1.1,3.16,3.51a10.63,10.63,0,0,1-2.21,8.06,5.42,5.42,0,0,1-1.1,1.14l-4.67.88-1-1.17a7.48,7.48,0,0,1-.77-3.7,11.88,11.88,0,0,1,4.79-9.42c.58-.45-.85-.27-1.12-.07Z"/><path d="M616.3,271.21c-3.68,2.82-7.54,9.9-3.91,14.25,2.43,2.9,6.82.48,8.79-1.71,2.64-2.94,4.56-10.55.34-13.21-3.44-2.17-7.19,2.15-8.76,4.59-.12.18,1.19.12,1.43-.24s.58-.94.9-1.39c1.41-2,1.59-2.1,4.09-1.52s2.81,1.1,3.16,3.51a10.64,10.64,0,0,1-2.22,8.06,5.18,5.18,0,0,1-1.1,1.14l-4.67.88-1-1.17a7.48,7.48,0,0,1-.78-3.7,11.94,11.94,0,0,1,4.79-9.42c.59-.45-.85-.27-1.11-.07Z"/><path d="M688.84,293.36l-4.78,18.32c-.17.65,1.24.48,1.43,0a3.56,3.56,0,0,1,.6-1.2c.42-.66-1.05-.66-1.38-.15a3.86,3.86,0,0,0-.6,1.2h1.42l4.77-18.31c.18-.67-1.3-.49-1.46.12Z"/><path d="M690,293.69c2.11-3.47,6.13.55,6.53,3.08a4.9,4.9,0,0,1-1.09,3.89c-1.42,1.68-3.38,1.86-5.41,1.38-.57-.14-1.71.71-.85.91,2.32.55,4.54.49,6.5-1a5.81,5.81,0,0,0,2.18-6.11c-1-3.91-6.78-6.28-9.24-2.25-.39.65,1.07.62,1.38.12Z"/><path d="M682.42,307.74l6.74.4c.39,0,1.67-.67.9-.72l-6.73-.4c-.4,0-1.68.67-.91.72Z"/><path class="cls-4" d="M608,320.23a9.23,9.23,0,0,1-.47-4.94c.2-1.07,1.7-5.75,3.65-3.74,1.51,1.55-4,7.28-5,8.42-1.87,2.11-7.67,7.08-2.18,8.61,2.15.6,6.77.21,8.35-1.74,2.17-2.7-2.12-5.61-4.59-5.67-.48,0-1.56.7-.6.72a4.56,4.56,0,0,1,2.57,1.06c3.78,3.42-6.24,8.53-6,2.81.1-2.54,2.54-4.39,4.18-6.25,1.18-1.34,6.54-6.73,4.39-8.95-1-1-2.77-.31-3.68.4-2.84,2.21-3.08,6.54-2,9.65.15.44,1.59,0,1.45-.38Z"/><path class="cls-4" d="M621.15,317.78c-3.58,2.71-7.38,9.56-3.88,13.8,2.34,2.84,6.64.5,8.56-1.61,2.59-2.84,4.51-10.21.43-12.82-3.34-2.14-7,2.05-8.57,4.41-.12.18,1.19.12,1.43-.24s.57-.91.88-1.34c.64-1.41,1.79-1.75,3.45-1,1.5-.73,2.43-.59,2.77.43a6.29,6.29,0,0,1,.79,3c.24,2.57-.56,5.84-2.49,7.69-1.15,1.1-.75.8-3.07,1.21-2.12.38-2.47.7-3.31-1.1a7.78,7.78,0,0,1-.57-3.67,11.6,11.6,0,0,1,4.7-8.65c.59-.44-.85-.27-1.12-.07Z"/><path class="cls-4" d="M637.24,323.21c-3.59,2.7-7.38,9.55-3.89,13.79,2.35,2.84,6.65.5,8.57-1.61,2.59-2.84,4.51-10.21.43-12.82-3.35-2.14-7,2.05-8.57,4.42-.12.18,1.19.12,1.43-.25s.57-.9.88-1.34q1-2.11,3.45-1c1.5-.74,2.42-.6,2.77.42a6.29,6.29,0,0,1,.79,3c.24,2.57-.56,5.84-2.49,7.69-1.15,1.1-.76.8-3.07,1.21-2.12.38-2.48.7-3.32-1.1a7.88,7.88,0,0,1-.56-3.66,11.54,11.54,0,0,1,4.7-8.66c.58-.44-.85-.27-1.12-.06Z"/><path class="cls-4" d="M650.31,327.61c-3.58,2.71-7.38,9.55-3.88,13.79,2.34,2.84,6.64.51,8.56-1.61,2.59-2.84,4.51-10.2.43-12.81-3.34-2.14-7,2-8.57,4.41-.12.18,1.19.12,1.43-.25s.57-.9.88-1.33q1-2.13,3.45-1c1.5-.73,2.43-.59,2.77.43a6.25,6.25,0,0,1,.79,2.95c.24,2.57-.56,5.84-2.49,7.69-1.15,1.11-.75.8-3.07,1.22-2.12.38-2.47.69-3.31-1.1a7.8,7.8,0,0,1-.57-3.67,11.6,11.6,0,0,1,4.7-8.65c.59-.45-.85-.27-1.12-.07Z"/><path class="cls-4" d="M662.88,331.85c-3.59,2.7-7.38,9.55-3.89,13.79,2.35,2.84,6.65.5,8.57-1.61,2.59-2.84,4.51-10.21.43-12.82-3.35-2.14-7,2.05-8.57,4.42-.12.18,1.19.12,1.43-.25s.57-.9.88-1.34q1-2.12,3.45-1c1.5-.74,2.42-.6,2.77.42a6.29,6.29,0,0,1,.79,3c.24,2.57-.56,5.84-2.49,7.69-1.15,1.1-.76.8-3.07,1.21-2.12.38-2.48.7-3.32-1.09a7.94,7.94,0,0,1-.56-3.67,11.54,11.54,0,0,1,4.7-8.66c.58-.44-.85-.27-1.12-.06Z"/><path class="cls-4" d="M676.74,333.17,672,350.89c-.18.66,1.23.48,1.42,0a3.66,3.66,0,0,1,.6-1.16c.42-.65-1.06-.65-1.38-.14a3.56,3.56,0,0,0-.6,1.16h1.42l4.76-17.72c.18-.67-1.3-.5-1.47.12Z"/><path class="cls-4" d="M677.92,333.49c2.05-3.33,5.9.62,6.26,3a4.71,4.71,0,0,1-1.07,3.75c-1.39,1.61-3.28,1.76-5.23,1.28-.57-.14-1.71.71-.85.92a7.09,7.09,0,0,0,6.33-1,5.64,5.64,0,0,0,2.16-5.92c-1-3.83-6.56-6.14-9-2.24-.4.65,1.07.62,1.38.13Z"/><path class="cls-4" d="M670.43,347.07l6.53.43c.4,0,1.68-.66.91-.72l-6.53-.43c-.4,0-1.68.66-.91.72Z"/><path d="M589.73,372.05c-4,3-8.34,10.54-4.5,15.3,2.54,3.16,7.27.64,9.41-1.67,2.9-3.13,5.16-11.3.65-14.26-3.65-2.39-7.73,2.21-9.45,4.78-.12.17,1.19.12,1.43-.25s.65-1,1-1.47q1.13-2.4,4-1.08,2.6-1.25,3.16.51a6.94,6.94,0,0,1,.84,3.3,11.41,11.41,0,0,1-2.89,8.56c-1.29,1.4-1.69,1.36-3.81,1.54s-2.62.4-3.47-1.49a8.8,8.8,0,0,1-.59-4.1,13,13,0,0,1,5.39-9.61c.59-.43-.85-.26-1.12-.06Z"/><path d="M607.6,378.32c-4,3-8.34,10.54-4.51,15.3,2.54,3.15,7.28.64,9.42-1.67,2.89-3.13,5.16-11.31.64-14.26-3.65-2.39-7.73,2.21-9.45,4.78-.11.17,1.19.11,1.43-.25s.65-1,1-1.48c.76-1.59,2.07-1.95,4-1.07,1.73-.83,2.78-.66,3.17.51a7.06,7.06,0,0,1,.84,3.3,11.43,11.43,0,0,1-2.9,8.56c-1.29,1.39-1.69,1.36-3.8,1.54s-2.63.4-3.48-1.49a8.81,8.81,0,0,1-.58-4.1,12.92,12.92,0,0,1,5.38-9.61c.59-.43-.84-.26-1.11-.06Z"/><path d="M622.11,383.41c-4,3-8.34,10.54-4.5,15.3,2.54,3.16,7.27.64,9.41-1.67,2.9-3.13,5.16-11.3.65-14.26-3.65-2.39-7.73,2.21-9.45,4.78-.12.17,1.19.12,1.43-.25s.65-1,1-1.47q1.13-2.4,4-1.08c1.72-.83,2.78-.66,3.16.51a6.94,6.94,0,0,1,.84,3.3,11.38,11.38,0,0,1-2.9,8.56c-1.28,1.4-1.68,1.36-3.8,1.54s-2.62.4-3.48-1.49a8.91,8.91,0,0,1-.58-4.1,13,13,0,0,1,5.39-9.61c.59-.43-.85-.26-1.12-.06Z"/><path d="M636.07,388.31c-4,3-8.34,10.54-4.51,15.3,2.55,3.15,7.28.64,9.42-1.67,2.9-3.13,5.16-11.31.64-14.26-3.65-2.39-7.72,2.21-9.45,4.78-.11.17,1.19.11,1.44-.25s.64-1,1-1.48c.75-1.59,2.07-2,3.94-1.07q2.6-1.25,3.17.51a7.06,7.06,0,0,1,.84,3.3,11.43,11.43,0,0,1-2.9,8.56c-1.29,1.39-1.69,1.36-3.8,1.54s-2.62.4-3.48-1.49a8.81,8.81,0,0,1-.58-4.1,13,13,0,0,1,5.38-9.61c.59-.43-.84-.26-1.11-.06Z"/><path d="M582.48,368.87c.22-3.46-2.86-4-5.86-3.38s-5.33,3.93-5.13,7.05,3.52,4,6.13,3.36a6.76,6.76,0,0,0,4.86-7.12c0-.46-1.33,0-1.44.3L577.86,378a18.45,18.45,0,0,1-1.19,3.37c-2.47,3.86-5.73,1.12-7.82-.51-.37-.28-1.69.28-1.36.54,2.52,2,5.93,4,9,1.85,1.6-1.08,2-3.16,2.57-4.87,1.12-3.16,2.26-6.32,3.39-9.47l-1.44.3c.1,1.51-.19,3.51-1.42,4.61-1.86,1.65-5.66,2.29-6.57-.71a6,6,0,0,1,.46-3.59c1.31-3.2,7.82-5,7.53-.4,0,.51,1.41.21,1.44-.21Z"/><path d="M556.71,365.58c-.11-.72-.57-2.63-.16-3.19l3.17-1.3.71.74c2.22,1.73,1.64,4.88.29,6.78-1.16,1.63-3.26,3.07-4.85,4.3-.86.66-2.59,1.4-3.06,2.44-2.22,4.79,9.58,2.92,9.86,5.07.06.41,1.51.1,1.45-.39l-.11-.86c0-.17-.32-.17-.43-.17-2.39-.07-11.26-.25-8.7-4.37.92-1.47,3.83-2.88,5.17-4.11,2.83-2.58,4.85-4.55,2.37-8.34-1.09-1.67-2.69-3-4.79-2.39-2.77.86-2.74,3.81-2.37,6.18.06.41,1.52.09,1.45-.39Z"/><path d="M651.53,390,646,409.66c-.19.65,1.23.48,1.42,0a4,4,0,0,1,.68-1.28c.43-.65-1-.65-1.38-.15a4.2,4.2,0,0,0-.68,1.29h1.42l5.55-19.7c.19-.66-1.29-.49-1.46.12Z"/><path d="M652.67,390.31c1.31-2.06,4.11-1.3,5.53.18a6,6,0,0,1,1.55,3.2,5.26,5.26,0,0,1-1.24,4.32c-1.62,1.82-3.76,1.95-6,1.37-.57-.14-1.72.7-.86.92,2.48.64,4.85.61,7-1a6.25,6.25,0,0,0,2.42-6.59c-1.05-4.17-7.08-6.8-9.79-2.55-.4.64,1.07.61,1.38.12Z"/><path d="M644.27,405.34l7.27.57c.4,0,1.68-.65.91-.72l-7.27-.57c-.4,0-1.68.65-.91.72Z"/></g></g></svg>