<svg xmlns="http://www.w3.org/2000/svg" viewBox="0 0 215.79 100.34"><defs><style>.cls-1{fill:#ad0404;}</style></defs><title>Ресурс 2</title><g id="Слой_2" data-name="Слой 2"><g id="Слой_1-2" data-name="Слой 1"><path d="M76.52,11.64c-4.79,7-7.23,22.33,2.23,27.05,6.44,3.22,12.82-3.68,14.7-9.22,2.3-6.78.69-17.86-6.55-21.29C79.28,4.57,74.24,14.54,72.8,20.1c-.18.67,2.66.27,2.86-.49.68-2.63,1.4-7.34,4-8.87a6.7,6.7,0,0,1,7.06.45,11.22,11.22,0,0,1,2.6,3.59,19.36,19.36,0,0,1,1,15.79c-1.37,3.57-4.51,9-9.53,6.79-2.73-1.17-4.22-5.4-4.91-8.09a22.07,22.07,0,0,1,3.46-18.12c.23-.34-2.37-.23-2.86.49Z"/><path d="M109.52,11.64c-4.79,7-7.23,22.33,2.23,27.05,6.44,3.22,12.82-3.68,14.7-9.22,2.3-6.78.69-17.86-6.55-21.29-7.62-3.61-12.66,6.36-14.1,11.92-.18.67,2.66.27,2.86-.49.68-2.63,1.4-7.34,4-8.87a6.7,6.7,0,0,1,7.06.45,11.22,11.22,0,0,1,2.6,3.59,19.36,19.36,0,0,1,1,15.79c-1.37,3.57-4.51,9-9.53,6.79-2.73-1.17-4.22-5.4-4.91-8.09a22.07,22.07,0,0,1,3.46-18.12c.23-.34-2.37-.23-2.86.49Z"/><path d="M135.52,11.64c-4.79,7-7.23,22.33,2.23,27.05,6.44,3.22,12.82-3.68,14.7-9.22,2.3-6.78.69-17.86-6.55-21.29-7.62-3.61-12.66,6.36-14.1,11.92-.18.67,2.66.27,2.86-.49.68-2.63,1.4-7.34,4-8.87a6.7,6.7,0,0,1,7.06.45,11.22,11.22,0,0,1,2.6,3.59,19.36,19.36,0,0,1,1,15.79c-1.37,3.57-4.51,9-9.53,6.79-2.73-1.17-4.22-5.4-4.91-8.09a22.07,22.07,0,0,1,3.46-18.12c.23-.34-2.37-.23-2.86.49Z"/><path d="M160.52,11.64c-4.79,7-7.23,22.33,2.23,27.05,6.44,3.22,12.82-3.68,14.7-9.22,2.3-6.78.69-17.86-6.55-21.29-7.62-3.61-12.66,6.36-14.1,11.92-.18.67,2.66.27,2.86-.49.68-2.63,1.4-7.34,4-8.87a6.7,6.7,0,0,1,7.06.45,11.22,11.22,0,0,1,2.6,3.59,19.36,19.36,0,0,1,1,15.79c-1.37,3.57-4.51,9-9.53,6.79-2.73-1.17-4.22-5.4-4.91-8.09a22.07,22.07,0,0,1,3.46-18.12c.23-.34-2.37-.23-2.86.49Z"/><path d="M64.06,10.82c-1.61-5.69-6.77-4.7-11.42-2.52-5.13,2.4-7,9.36-4.66,14.44,2,4.24,7.26,4.14,11,2.5,5.55-2.4,7.32-9.17,5.05-14.42-.39-.88-2.9-.12-2.9.78l-.1,15.3c0,2.32.5,5.69-.15,7.92-1.87,6.42-8.44,3.9-12,2.68-.78-.27-3.4.93-2.34,1.29,5,1.7,12.06,3.2,16-1.67,2-2.52,1.43-6.06,1.44-9.08,0-5.74.08-11.48.12-17.22l-2.9.78a10.47,10.47,0,0,1,.6,7.55C60.43,23.42,53.5,27.44,50.88,22a12,12,0,0,1-.69-6.21c.15-1.51.43-3.61,1.54-4.78,2.57-2.71,8.14-3.94,9.43.62.24.87,3.14.09,2.9-.78Z"/><path d="M21.15,20.15a19.21,19.21,0,0,1-1.77-3.79c-.7-2.55-.73-3.75,2-4.6s3.69.05,5.53,1.88a8.45,8.45,0,0,1,2.62,3.94c.69,3.27-2.72,8.05-4.26,10.71s-4.3,5.46-5.4,8.31c-3.14,8.17,16.38,3.08,19.24,2.15l-1.62-.23.67,1.3c.44.89,3.25-.07,2.89-.77l-.66-1.31c-.25-.51-1.19-.37-1.61-.24-3.31,1.08-16.72,5.61-15.51-2,.35-2.25,3.64-5.38,4.85-7.47,3-5.2,6.63-10.53,1.5-15.42C27,10.05,23.42,8,19.78,9.49c-5.2,2.08-3.64,7.55-1.53,11.43.48.88,3.27-.1,2.9-.77Z"/><path d="M186.31,5.53l2.17,34.52c.08,1.2,2.85.58,2.92-.51a6.44,6.44,0,0,1,.37-2.43c.33-1.35-2.63-1-2.93.24a6.5,6.5,0,0,0-.37,2.43l2.91-.51L189.21,4.75c-.08-1.25-3-.58-2.9.78Z"/><path d="M189,5.72c1.89-7.84,11.77-2.3,13.27,2.88,1.82,6.26-3.14,11-9,11.5-1.56.13-2.29,2.12-.3,1.95,4.19-.35,7.89-1.58,10.47-5.12a10.49,10.49,0,0,0,.13-12.37C199.39-1.25,188-2.26,186.05,6c-.32,1.3,2.63.92,2.92-.27Z"/><path d="M184.35,34l11.91-3.15c1.71-.45,1.4-1.7-.33-1.24L184,32.78c-1.71.45-1.4,1.7.34,1.24Z"/><path class="cls-1" d="M54.57,83.42c-2.71-3.42-6.25-11.74-3-16L55,66.08a4.28,4.28,0,0,1,.26,2.21,17.61,17.61,0,0,1-.66,4.45,58,58,0,0,1-2.73,8.1c-1.87,4.65-11,18.75-1,19.48,4.71.35,15.5-3.5,15.93-9.1S57.56,84,53.62,85.38c-1.93.68-.15,1.39,1.08,1,1.6-.56,4,.3,5.5,1,1,.5,3.38,1.91,3.52,3.24.18,1.72-1.91,4.21-3.16,5.26a15.2,15.2,0,0,1-6,2.86c-1.68.36-4.67,0-5.5-1.87s.92-5.16,1.6-6.89c1.7-4.26,3.73-8.4,5.26-12.72,1.12-3.14,3.16-8,2.06-11.35-1.33-4.08-6.13-2.73-8.21,0C45.65,71.28,48,79.67,51.86,84.49c.53.67,3.31-.31,2.71-1.07Z"/><path class="cls-1" d="M76,70.86c-4.79,7-7.23,22.32,2.23,27.05,6.44,3.21,12.83-3.68,14.7-9.23,2.3-6.77.7-17.86-6.55-21.29-7.62-3.61-12.66,6.36-14.1,11.93-.17.66,2.66.27,2.86-.49.68-2.63,1.4-7.34,4-8.87a6.68,6.68,0,0,1,7.06.45A11.18,11.18,0,0,1,88.86,74a19.39,19.39,0,0,1,1,15.79c-1.36,3.56-4.5,8.94-9.53,6.79-2.73-1.17-4.22-5.41-4.91-8.1A22.09,22.09,0,0,1,78.9,70.36c.23-.33-2.37-.23-2.86.5Z"/><path class="cls-1" d="M109,70.86c-4.79,7-7.23,22.32,2.23,27.05,6.44,3.21,12.83-3.68,14.7-9.23,2.3-6.77.7-17.86-6.55-21.29-7.62-3.61-12.66,6.36-14.1,11.93-.17.66,2.66.27,2.86-.49.68-2.63,1.4-7.34,4-8.87a6.68,6.68,0,0,1,7.06.45A11.18,11.18,0,0,1,121.86,74a19.39,19.39,0,0,1,1,15.79c-1.36,3.56-4.5,8.94-9.53,6.79-2.73-1.17-4.22-5.41-4.91-8.1a22.09,22.09,0,0,1,3.46-18.12c.23-.33-2.37-.23-2.86.5Z"/><path class="cls-1" d="M135,70.86c-4.79,7-7.23,22.32,2.23,27.05,6.44,3.21,12.83-3.68,14.7-9.23,2.3-6.77.7-17.86-6.55-21.29-7.62-3.61-12.66,6.36-14.1,11.93-.17.66,2.66.27,2.86-.49.68-2.63,1.4-7.34,4-8.87a6.68,6.68,0,0,1,7.06.45A11.18,11.18,0,0,1,147.86,74a19.39,19.39,0,0,1,1,15.79c-1.36,3.56-4.5,8.94-9.53,6.79-2.73-1.17-4.22-5.41-4.91-8.1a22.09,22.09,0,0,1,3.46-18.12c.23-.33-2.37-.23-2.86.5Z"/><path class="cls-1" d="M160,70.86c-4.79,7-7.23,22.32,2.23,27.05,6.44,3.21,12.83-3.68,14.7-9.23,2.3-6.77.7-17.86-6.55-21.29-7.62-3.61-12.66,6.36-14.1,11.93-.17.66,2.66.27,2.86-.49.68-2.63,1.4-7.34,4-8.87a6.68,6.68,0,0,1,7.06.45A11.18,11.18,0,0,1,172.86,74a19.39,19.39,0,0,1,1,15.79c-1.36,3.56-4.5,8.94-9.53,6.79-2.73-1.17-4.22-5.41-4.91-8.1a22.09,22.09,0,0,1,3.46-18.12c.23-.33-2.37-.23-2.86.5Z"/><path class="cls-1" d="M185.83,64.74,188,99.26c.08,1.21,2.85.59,2.92-.51a6.5,6.5,0,0,1,.37-2.43c.33-1.34-2.63-1-2.93.25A6.42,6.42,0,0,0,188,99l2.91-.51L188.73,64c-.08-1.25-3-.57-2.9.78Z"/><path class="cls-1" d="M188.49,64.94c1.89-7.85,11.77-2.3,13.27,2.88,1.82,6.25-3.14,11-9,11.49-1.56.13-2.29,2.12-.3,2,4.19-.35,7.9-1.58,10.47-5.11a10.52,10.52,0,0,0,.14-12.38c-4.15-5.8-15.5-6.82-17.49,1.43-.31,1.3,2.64.92,2.92-.26Z"/><path class="cls-1" d="M183.87,93.24l11.91-3.15c1.72-.46,1.4-1.71-.33-1.25L183.53,92c-1.71.46-1.4,1.71.34,1.25Z"/><path d="M1.12,33.49c70.66-7.79,141.84-3.6,212.73-7,1,0,3.08-1.64,1.15-1.55-71.13,3.4-142.55-.78-213.46,7-1.37.15-2.44,1.73-.42,1.5Z"/></g></g></svg>