<svg xmlns="http://www.w3.org/2000/svg" viewBox="0 0 1070.56 737.46"><defs><style>.cls-1{fill:#ffe000;}.cls-2{fill:#0068ff;}.cls-3{fill:#fff;}</style></defs><title>Ресурс 3</title><g id="Слой_2" data-name="Слой 2"><g id="Слой_1-2" data-name="Слой 1"><path class="cls-1" d="M947.63,296.89c-11.7,24.48-29.56,44.46-43.46,66.17C887,390,873.5,419.56,867,450.82a152.53,152.53,0,0,1-46.94,40.76l-.85-16.76c6.85,41.17-10.76,81.85-21.9,122.07a402.54,402.54,0,0,0-14.51,97.7L731.85,729l-2.92-41.92L713,505.32l4.49-.38c-59.52,4.25-115.36,30.44-174.36,39.38-76.09,11.53-159.2-8.87-212.87-64l-35.67,24.46Q271.64,547,248.92,589.38c-18.18,33.92-36.73,69.73-36.47,108.22l-32.36,8.06c-5.54-19-11.66-41-15.41-60.51l-18.63,80.18-26.92,11.61c2.28-44.92,1-91.21-8.58-135.16l1.37-.6c18.14-30.15,38.76-63.24,48.61-97,3.57-12.27,6.11-25,5.19-37.78-2.43-33.91-28.18-61.39-38.26-93.85a106.51,106.51,0,0,1,2.7-69.27"/><path class="cls-2" d="M947.63,296.89c-11.7,24.48-29.56,44.46-43.46,66.17C887,390,873.5,419.56,867,450.82a152.53,152.53,0,0,1-46.94,40.76l-.85-16.76c6.85,41.17-10.76,81.85-21.9,122.07a402.54,402.54,0,0,0-14.51,97.7L731.85,729l-2.92-41.92L713,505.32l4.49-.38c-59.52,4.25-115.36,30.44-174.36,39.38-76.09,11.53-159.2-8.87-212.87-64l-35.67,24.46Q271.64,547,248.92,589.38c-18.18,33.92-36.73,69.73-36.47,108.22l-32.36,8.06c-5.54-19-11.66-41-15.41-60.51l-18.63,80.18-26.92,11.61c2.28-44.92,1-91.21-8.58-135.16l1.37-.6c18.14-30.15,38.76-63.24,48.61-97,3.57-12.27,6.11-25,5.19-37.78-2.43-33.91-28.18-61.39-38.26-93.85a106.51,106.51,0,0,1,2.7-69.27"/><path d="M113.35,600.93C126,579.87,139,558.87,149.4,536.56,159.47,515,168.93,490.22,167.17,466c-1.55-21.37-12.42-40.37-22.37-58.83-10.16-18.87-19.12-38-20.28-59.75A106.91,106.91,0,0,1,146.23,277c.6-.78-2.19-.41-2.63.17A107.33,107.33,0,0,0,121.81,334c-1.76,22.21,4.17,42.8,14.09,62.48,9.51,18.87,21.55,37,26.45,57.82,5.85,24.9-2,50.68-11.74,73.58-10.94,25.75-25.73,49.61-40.12,73.51-.24.4,2.41.26,2.86-.49Z"/><path d="M365.52,463.26c-21.43,10.13-43,20.37-62.5,34A170.52,170.52,0,0,0,277.31,519c-8.89,9.29-16.35,19.83-25.11,29.23-15.54,16.67-34.17,30-51,45.19C184,608.92,170,626.57,161.43,648.24c-9.81,24.7-13.39,51.3-16.83,77.48,0,.35,2.78.11,2.89-.78,3.08-23.37,6.28-47,13.92-69.37s20.11-41.25,37.12-57.5c15.87-15.15,33.81-28,49.56-43.22,17-16.51,29.8-36.44,48.61-51.21,21.35-16.76,46.09-28.45,70.5-40,1.72-.81-1-.72-1.68-.39Z"/><path d="M109.1,602.16c9.53,44.37,10.82,90,8.58,135.17,0,.33,2.86,0,2.9-.78,2.24-45.19,1-90.79-8.58-135.16-.12-.54-3,.15-2.9.77Z"/><path d="M293.15,505c-17.7,32.61-35.61,65.13-52.76,98C225,632.61,211,664.05,211,698c0,.34,2.9,0,2.9-.78,0-34.47,14.47-66.33,30.17-96.28C261,568.59,278.58,536.57,296,504.48c.15-.26-2.46-.15-2.84.55Z"/><path d="M164.71,648.29q5.67,29.19,13.93,57.76c.24.82,3.13,0,2.9-.77q-8.26-28.56-13.93-57.76c-.15-.79-3.07-.1-2.9.77Z"/><path d="M717.69,504.2c-58.08,4.36-111.89,28.84-169,38.51-49.59,8.41-101.83,3.52-148.23-16.29a214,214,0,0,1-68.92-46.68c-.67-.67-3.41.39-2.7,1.1,35.08,35.77,82.42,57.05,131.64,64.36a278.22,278.22,0,0,0,73.21,1.09c28.66-3.35,56.54-11.28,84.2-19.22,32.59-9.36,65.35-18.83,99.32-21.39,1.37-.1,2.45-1.63.43-1.48Z"/><path d="M957.65,258.06c-3.4,27.69-16.92,51.27-32.87,73.6-16.11,22.54-31.79,44.81-43.17,70.25a245.18,245.18,0,0,0-16.09,49c-.29,1.37,2.67,1,2.93-.24,6.58-31,19.66-60.12,36.62-86.75,13.61-21.38,30.53-40.59,42.12-63.25a128,128,0,0,0,13.38-42.89c.18-1.42-2.77-1-2.92.25Z"/><path d="M820.9,491.85a157.38,157.38,0,0,0,47.41-41.09c.64-.84-2.18-.49-2.65.12a154.3,154.3,0,0,1-46.47,40.43c-1.68.95.95,1,1.71.54Z"/><path d="M994.07,51.43c19-6.63,34.45-19.33,52.82-40.38A14.43,14.43,0,0,1,1054,6.94c6.7-1.8,13.73,3.66,15.72,10.3s.1,13.84-2.73,20.17a70.29,70.29,0,0,1-22.51,27.86c-4.7,3.45-9.86,6.33-14,10.46-3.24,3.25-5.28,11.13-4.52,15.66,0,0-2.15,2.34-3,.38-1.79-4.27-4.27-15.76-12.49-23.09a86.15,86.15,0,0,0-23.42-15.1Z"/><path d="M1030.32,210.29c3.77-11.34,9.91-22,8.92-34.37-.49-6.19-2.3-12.17-3.3-18.28a36.25,36.25,0,0,1,2-19.8c3.19-8.14,8.44-17,4.14-25.76-4.06-8.26-13.87-12.35-16.06-21.71-.27-1.15-3.18-.4-2.9.78,2,8.47,9.95,12.64,14.63,19.4,7,10.09-.41,20.32-3.71,30.25-3.66,11,.31,21.42,1.92,32.4,2,13.65-4.35,24.85-8.53,37.38-.38,1.15,2.55.8,2.92-.29Z"/><path d="M929.93,2.12c13.85-4.34,25.74,15.2,29.15,26a47.76,47.76,0,0,1-1.9,34.15c-.36.8,2.48.51,2.89-.39a48.79,48.79,0,0,0-.63-41C954.3,10.15,942.91-3.41,929.57.78c-1.68.53-1.37,1.89.36,1.34Z"/><path d="M968.13,56.82q10-2,20.22-3c1.47-.15,2.36-1.95.35-1.75q-10.58,1.05-21,3.15c-1.79.35-1.33,1.94.43,1.59Z"/><path d="M929.09,209.5c4.6,5.31,6.64,10.56,7.79,17.43,1,5.91,1.29,12.11,3.48,17.75a18,18,0,0,0,11.08,10.81c5.84,2.2,13.15,2.75,16.34,8.87.36.71,3.13-.32,2.89-.77-2.63-5.07-7.94-6.41-13-8-7.16-2.2-12.27-5.46-14.78-12.82-2-6-2.23-12.39-3.42-18.54a31.54,31.54,0,0,0-7.62-15.75c-.47-.54-3.17.48-2.73,1Z"/><path d="M966.66,252.49c1.58,1,3.6-.42,4.65-2,2.61-3.86,3.12-8.72,3.66-13.35q1.69-14.4,4.77-28.6a23.23,23.23,0,0,1,3-8.2c1.64-2.42,4.44-4.26,7.35-3.94,2.36.26,4.33,1.84,6.45,2.92a16.22,16.22,0,0,0,15.66-.72c2.12-1.33,4.74-3.22,6.81-1.82a5.48,5.48,0,0,1,1.45,1.75l7.35,11.91a1.91,1.91,0,0,1,.42,1.53c-.17.52-1.08.68-1.2.15l1.15.76c-1.39,5.13-1.9,10.26-.37,15.44,2.21,7.49,8.39,13.32,10.53,20.83,2.82,9.88-1.87,20.19-6.45,29.39-5.12,10.31-10.93,21.33-21.29,26.35-12.33,6-29,.23-35-12.08-5.68-11.63-4-28.75-15.84-34.08"/><path d="M1033.77,130.56a52.71,52.71,0,0,0-7.94,19.8c-.27,1.54,2.42,1,2.87.1q5.41-11,11.22-21.88l-2.79-.38L1028,147.28l2.87.1a27.56,27.56,0,0,1,2.89-7.19l-2.84.19a6.66,6.66,0,0,1-.07,4.45c-.47,1.64,2.41,1.69,2.79.38a10.35,10.35,0,0,0,.18-5.6c-.32-1.35-2.39-.61-2.84.19a29.53,29.53,0,0,0-3.06,7.77c-.36,1.48,2.42,1,2.87.1l9.15-19.09c.74-1.55-2.17-1.54-2.79-.38q-5.79,10.85-11.22,21.88l2.87.09a49.42,49.42,0,0,1,7.44-18.68c1-1.56-1.68-2.1-2.45-.93Z"/><path d="M926.21,134.12a30.3,30.3,0,0,1,20.48,13L952.1,145c-6.7-8-13.93-20.58-26.05-17.73-.76.18-2.33.75-2.55,1.67a11.15,11.15,0,0,0,4.33,11.83c4.93,3.46,11.53.1,16.19,3.4l1-1.78c-4.21,2-9.09-1.9-10.85-5.4l-5.6,1.86,3.27,3.88c1,1.13,6.31-.31,5.61-1.86a13.17,13.17,0,0,0-4.59-5.67c-1-.71-6.49.16-5.6,1.86a6.65,6.65,0,0,0,4.6,3.76c.92.24,6-.22,5.23-2.08l-3.78-9.54L928,131.23c5,2.07,7.39,7.45,12,10.17,1.16.68,6.47-1.11,5-2.39-3.18-2.85-3.88-7.68-8.21-9.24-1.43-.51-5.16.14-5.23,2.09a23,23,0,0,0,1.81,10c.75,1.8,5.27.22,5.78-1.2a1.9,1.9,0,0,0,.76,2.5c1,1.25,5.82-.1,5.61-1.86a9,9,0,0,0-1.51-4.26c-1-1.62-5.78-.4-5.8,1.55a3,3,0,0,0,.42,2.28l5.6-1.85a6.4,6.4,0,0,0-2.86-2.34c-1.3-.64-4.2.11-5,1.34a4,4,0,0,0-.51,4.38c.76,1.7,5.37.33,5.78-1.19a10.84,10.84,0,0,0-1.24-9c-1-1.56-6.47-.12-5.79,1.56,1.08,2.7,1.7,4.73,4.69,5.45,1.63.4,6.76-2.11,3.62-2.87-1.57-.38-2-2.84-2.52-4.14l-5.79,1.56a9.82,9.82,0,0,1,1.26,8.24l5.78-1.19a2.45,2.45,0,0,1,.06-2.91l-5,1.34a4,4,0,0,1,2.11,1.9c.88,1.24,6.23-.29,5.61-1.86a3,3,0,0,1-.42-2.28l-5.8,1.55a8.86,8.86,0,0,1,1.51,4.27l5.6-1.86c-2.89-3.65-10-4.94-11.93.49l5.78-1.19a23,23,0,0,1-1.81-10l-5.23,2.08c3.74,1.34,4.63,6.26,7.46,8.79l5-2.38c-4.67-2.75-6.86-8-12-10.17-1-.4-5.93.32-5.23,2.08l3.77,9.54,5.23-2.08a4.9,4.9,0,0,1-3.47-2.7l-5.6,1.86a12,12,0,0,1,4.2,5.05l5.6-1.86-3.27-3.88c-1-1.15-6.35.38-5.6,1.86,3.87,7.72,13,8.65,20.15,5.24.41-.2,1.72-1.23.95-1.78-3.73-2.64-7.56-1.81-11.86-2.12a9.36,9.36,0,0,1-8.3-11.77l-2.55,1.67c4.14-1,8.33,3.74,10.79,6.48,3.17,3.53,6.13,7.27,9.18,10.91,1.1,1.3,6.6-.45,5.41-2.17a32.67,32.67,0,0,0-22.26-13.7c-1.63-.25-6.77,2.39-3.63,2.87Z"/><path d="M817.75,475.21c5.93,37.62-7.59,74-18.27,109.49A420.68,420.68,0,0,0,781.34,695c0,.45,2.87.08,2.9-.77,1-38.73,7.89-76.55,19.18-113.56,10.48-34.36,23-69.77,17.23-106.2-.09-.59-3,0-2.9.77Z"/><path d="M718.06,477.89c13.64,63.57,15.27,128.8,14,193.58-.38,19.24-1,38.47-1.64,57.7,0,1.1,2.86.49,2.89-.39,2.15-65.2,4.29-130.75-3.2-195.71-2.17-18.79-5.18-37.46-9.14-56-.2-.9-3.11-.18-2.9.78Z"/><path d="M711.53,505.71l16,181.73c.06.73,3,.16,2.9-.77l-16-181.74c-.06-.73-3-.16-2.9.78Z"/><path d="M136.77,391.81c1.72-10.4,10.42-21.78,19.9-26.39s20.32-5.66,30.85-5.3c32.17,1.09,62.62,14.48,90.9,29.86S334,423.07,364.19,434.1c9.27,3.38,18.87,6.16,27.28,11.31a55.63,55.63,0,0,1,25,35.34c3.11,14.51-2.95,36.48-11.32,48.73l19.39,6.75c-4-21.27,19.58-48.09,14.35-69.09C436.9,459,431,452.5,425,446.65a113.06,113.06,0,0,0-18.27-15.07c-14.79-9.37-32.58-13.13-47.38-22.5-11.72-7.41-21.08-18-32.45-26-12.56-8.77-27.17-14-41.27-20-25.53-10.81-50.5-24.51-78-27.79s-68,14.66-79.25,40"/><path d="M121.2,341.92c15.18-12.34,30.51-24.77,48-33.61s37.44-13.9,56.71-10.52c10.41,1.82,20.23,6,30.3,9.24,8.08,2.59,16.41,4.59,24,8.38,7.42,3.7,13.9,9,20.39,14.15a826.43,826.43,0,0,0,114.61,76.27c16,8.83,33.25,18,42,34.09,10.37,19.08,5.94,42.47,1.25,63.67-2.35,10.59-6.5,28.24-8.85,38.83l11.49,2c9.15-27.77,41.39-54.38,42.68-83.59.81-18.23-10.2-34.64-20.73-49.54L461.38,380.7c-4.34-6.13-8.85-12.43-15.22-16.42-5.32-3.32-11.56-4.78-17.35-7.2-8.78-3.69-16.44-9.56-24-15.37l-70.26-54c-9.87-7.6-19.84-15.25-31.13-20.52-18.46-8.62-39.27-10.36-59.59-12-13.66-1.08-27.9-2.08-40.6,3.09-10.68,4.35-19.17,12.64-28.13,19.92-12.14,9.87-31.63,22.76-45.91,29.16"/><path d="M326.83,483.24c-.57-12.79-11.73-24.59-23.6-29.38s-24.91-6.19-36.68-11.22c-10.16-4.33-19-11.21-28.77-16.38-15.76-8.35-33.5-12.07-51-15.69-10.79-2.24-29.83,0-37.64,7.81l-4.47-10.25c9.63-3,14.91-14.19,24.54-17.17,3.73-1.16,7.73-.94,11.61-.58,23.48,2.14,46.26,8.88,68.86,15.59l31.33,9.29c7.51,2.23,15.06,4.48,22,8.07,12.85,6.63,41.68,25.4,43.79,49.48"/><path d="M288.43,509.52c-.43-9.77-6.94-23.17-15.6-27.69-8.22-4.28-17.89-4.24-27-5.71-20.24-3.26-38.36-14.17-57.85-20.52-7.3-2.38-16.08-3.87-22,1L161,444.33c.22-3.32,5.45-6.36,8.63-7.34s6.6-.6,9.9-.17A259.48,259.48,0,0,1,241.31,453c7.21,2.88,14.4,6.11,22.09,7.2,6.15.87,12.59.37,18.41,2.57,12.17,4.61,19,24.28,18.5,37.29"/><path d="M164.39,492.53c1.67-1.69,1.94-1,4.11,0a182.67,182.67,0,0,0,70,15.22c5.89.09,12.36.09,16.84,3.91,5.16,4.41,6.22,18.87,6.31,25.66l12.91-14c-.72-3.55-1.44-4.91-2.16-8.46-1.34-6.61-3.23-14-9.11-17.35-3.84-2.17-8.5-2-12.9-2.29-28.49-1.61-54.78-21.52-83.07-17.82"/><path d="M238.59,562.14c-.06.26.27-1.76.21-1.5.19-6.28-1.89-12.94-6.82-16.82s-11.52-4.33-17.72-4.65l-18.62-1c-7.22-.38-14.53-.78-21.4-3s-15.69-8.7-19-15.15l3.53-11.54c8.06-.69,14.37,6.4,21.55,10.11,6.33,3.28,13.62,4,20.72,4.6,8.78.78,17.56,1.56,26.37,1.9,3.89.16,7.87.24,11.55,1.52,9.58,3.32,14.93,15.5,10.9,24.81"/><path d="M143.32,288.23c21.81-13.7,43.67-28.14,65.91-41.14,5.06-3,10.22-5.94,15.93-7.27,8.24-1.93,16.82-.27,25.26.4,14.05,1.11,28.28-.54,42.23,1.51,20.36,3,38.83,13.7,55.13,26.26s31,27.13,47.42,39.54a230,230,0,0,0,39.85,24.2c9.48,4.51,19.33,8.41,28,14.34s15.78,13.64,22.51,21.61c12.84,15.17,24.51,31.59,32,50s10.67,39,6.26,58.36c-5.61,24.61-24.05,48-33.44,71.4h15.55c4.86-15.53,16.41-24.6,26.09-37.68,30.88-41.69,32.46-102.83,3.79-146.07-21.74-32.78-57.22-53.61-92.6-70.77s-72.55-32.22-102.5-57.72c-4.77-4.06-9.41-8.42-15-11.17-7.1-3.47-15.21-4.11-23.1-4.49-31.17-1.52-63-2.76-93.37,4.45-8.15,1.93-24.2,9.82-31.48,13.94-10.3,5.82-37.13,26.33-37.13,26.33a106.3,106.3,0,0,0-3.79,10.82c-1.08,5-3.33,22-3.33,22l9.85-8.81"/><path d="M278.37,204.94c17.57,2.22,34.48,2.55,50.51,9.69s30.47,17.37,45.86,25.83c29.18,16,61.45,25.55,91.89,39.06,10.75,4.78,21.35,10.1,30.7,17.25,10.42,8,19,18,27.56,28,15.48,18.11,31.2,36.58,40.55,58.49,1.16,2.72,3.39,6.08,6.19,5.1a5.2,5.2,0,0,0,2.59-2.67c5-9.25,3.54-20.63.62-30.73a122.93,122.93,0,0,0-42.2-62.35c-16.37-12.76-35.68-21.11-55-28.63-55.48-21.59-98.85-30.44-151.74-57.78"/><path d="M426.85,220.55c5.69,8.41,19,16.94,29,18.86s20.22,1.65,30.32,2.72c25.43,2.7,49.11,13.75,72.25,24.66,7.76,3.65,15.67,7.41,21.86,13.35,3.21,3.08,6,6.74,9.77,9s9.26,2.72,12.31-.51c3.26-3.47,2-9.43-1.24-12.87s-8-5-12.44-6.72c-20.67-7.78-27.73-9.4-43.8-24.54l30.39,1.15,16,7.51c3.3,1.55,6.71,3.18,9,6,3.24,3.95,3.69,9.4,5,14.35,1.61,6.21,4.69,11.93,7.22,17.83,14.52,33.73,10.84,73.14-2.5,107.36-2.79,7.17-6,14.23-7.6,21.76-1.41,6.66-1.52,13.52-2.16,20.3a128.93,128.93,0,0,1-23.59,62.79c-9.2,12.77-21.13,24.66-24,40.15l-14.12.71c17.58-31.42,35.63-64.49,36.35-100.48.29-14.28-2-29.51,4.7-42.11,3.32-6.23,8.56-11.19,12.72-16.89,14.15-19.38,14.07-48-.19-67.26-5.47-7.4-12.65-13.36-20.12-18.72-32.65-23.44-71.55-36.5-110.48-46.48-17.15-4.39-33.22-10.08-48.49-19-14-8.21-27.72-19.81-43.67-22.79"/><path d="M653.73,240.62c10.28,18.54,13.53,37.32,12.74,58.51s-5.41,42-10,62.71c-10.66,48-21.57,96.68-44.75,140.05-5,9.34-10.72,19.18-9.72,29.73L587.74,535c8.68-32.42,29.85-60.47,38.18-93,7.31-28.49,4.38-59,12.73-87.16,3.86-13,10.16-25.95,8.86-39.48-2.85-29.77-39.23-40.72-45.59-69.94l18.54-1.15c11.13,8.32,14.16,22.1,21.11,34.13a2.83,2.83,0,0,0,1.54,1.52c1.56.41,2.5-1.67,2.67-3.27,1.39-13-3.55-23.6-13-32.68"/><path d="M686.08,233.9c11.52,30.75,22,67.12,18.64,99.79-6.69,65.15-61.22,119.51-61.66,185l-13.79,4.42c1.9-26.77,10.43-50.34,19.05-75.75l28.08-82.75c3.39-10,6.8-20.05,8.3-30.5,4.6-32.11-9.78-64.76-16.53-96.49"/><path d="M677.14,510.23c-1.83-11.94.41-24.11,3.35-35.82,11.42-45.54,33.27-87.69,49.74-131.66,5.56-14.84,10.57-30.17,11-46,.7-25-11.91-52.38-31.27-68.21L701.42,230c16.15,18.65,24.92,45.41,22,69.91-2,17.18-9,33.32-13.88,49.93-5.95,20.32-8.75,41.5-15.34,61.63-5.47,16.7-13.47,32.46-19.38,49s-9.71,34.45-6.32,51.7"/><path d="M743.47,216.07c14,26.61,34.37,60,30.75,89.84-3.54,29.2-23.57,53.2-39.83,77.72a346.52,346.52,0,0,0-39.19,79.71c-4.33,12.7-8,25.92-7.34,39.32l.39,5.45c-2-18.06,4.11-35.93,10.52-52.92q17.44-46.29,39.12-90.83c8.7-17.89,18.09-36.23,19-56.11,1.36-30.15-19.54-58-32.39-85.31"/><path d="M830.16,487.66c3.86-8.25,2.78-18.14-.79-26.53s-9.39-15.58-15.14-22.65l-12.49-15.37c-1.87-2.3-3.89-4.71-6.71-5.64s-5.63-.24-8.46,0c-8.94.75-17.9-2.65-26.79-1.44C745,418.06,735,431.9,727.69,445q-7,12.51-12.89,25.57c-2.16,4.77-4.25,10-2.93,15.09l-1.62-4.26c-2.68-17.43,5.08-34.73,14.19-49.83A257.14,257.14,0,0,1,760,385.39c.25,6.27,4.49,11.83,9.74,15.26s11.42,5.08,17.5,6.6c2,.5,4.65.8,5.82-.94s-.25-4.24-1.79-5.81c-4.42-4.53-9.85-7.92-14.63-12.06s-9.07-9.39-10-15.64c-1-6.54,1.81-13,4.54-19a4.35,4.35,0,0,1,1-1.59c2.14-1.83,4.91,1.39,5.9,4A285.27,285.27,0,0,0,821.33,433c4.12,5.22,8.45,10.35,11.43,16.29a42.19,42.19,0,0,1,3.12,29"/><path d="M723.59,476.56C723.48,470,726,463.77,729,458c5.26-10.12,12.26-19.56,21.58-26.14s21.15-10.07,32.35-7.9c16.19,3.13,28.24,17.3,34.59,32.52a87.89,87.89,0,0,1,6.76,33.91c-8.59-8.16-10.85-20.79-16.48-31.21-4.14-7.68-10.38-14.37-18.2-18.26s-17.25-4.79-25.39-1.64c-17.79,6.89-26.21,30.68-45,33.86"/><path d="M756.2,452.75l-2.9,4a13.88,13.88,0,0,1,13.37-10.44c4.78.09,9.1,2.68,13.17,5.18l25,15.43c-.14,3-3.59,4.88-6.57,4.59s-5.58-2-8.18-3.5c-5.94-3.35-12.5-5.4-19-7.44-5.8-1.81-11.93-3.65-17.88-2.37a3.83,3.83,0,0,1-2,.11c-.64-.21-1.14-1-.78-1.57"/><path d="M721.52,492c3-6.3,9.75-11.71,14.28-17s10.8-9.5,17.76-10c3.86-.3,7.71.53,11.48,1.38,11,2.47,22.09,5.26,31.82,10.92s18.06,14.65,20.45,25.66a184.52,184.52,0,0,1-47-10.47c-6.85-2.51-14.17-6-17-12.75,12.31-.94,23.14,8.68,35.45,9.75a2.55,2.55,0,0,0,1.5-.18c1.45-.81.38-3-.86-4.14-13.06-11.74-34.18-13.32-48.84-3.64-7,4.65-10.8,12.08-19.09,10.52"/><path d="M724.51,503.77c.69-7.65,9.34-11.38,16.83-13.08s15.36.21,22.42,3.24,13.6,7.16,20.66,10.2a73.88,73.88,0,0,0,29.83,6,4.94,4.94,0,0,1,3.36.75c1.41,1.21,1,3.46.38,5.23-1.09,3.36-2.55,7.13-5.86,8.37-3.07,1.16-6.42-.37-9.39-1.76-14.43-6.82-29.8-11.38-45.1-15.92-12.39-3.68-22.69-7.37-33.26.06"/><path d="M726.5,518.2c-1-1.69,1.18-2.77,2.83-3.8,4.77-3,10-6.09,15.64-5.41a18.71,18.71,0,0,1,7.32,2.86c9.25,5.68,15.79,15.44,25.76,19.73a34.82,34.82,0,0,0,11.67,2.58,43.3,43.3,0,0,0,27.6-7.5c-1.59,3.82-.8,8.65-3.54,11.75-3.3,3.72-9.2,2.49-14.16,2.12-8.52-.62-17.24,2.27-25.52.15s-14.68-9-19.84-16c-2.61-3.52-5.49-7.44-9.79-8.3-6.79-1.36-11.25,6.81-17.78,4.52"/><path d="M734.19,532.75c2,1,3.88,2.15,5.94,3a39.62,39.62,0,0,1,7.14,4c2.48,1.74,4.75,3.77,7.23,5.52a81.57,81.57,0,0,0,11.71,6.52c-2.64.79-5.44-.27-8-1.28-7.28-2.86-14.7-5.4-22.21-7.61-1.87-.55-4.39-.84-5.31.88a4,4,0,0,0-.34,2,29.36,29.36,0,0,0,.29,3.86l-.21-.44c10.5-.49,18.69,9.45,29,11.37,6.17,1.16,12.46-.67,18.62-1.89a98.14,98.14,0,0,1,20.52-1.86,16.62,16.62,0,0,0,6.37-.65,8,8,0,0,0,4.6-9.39c-1.89,1.93-4.9,2.32-7.56,1.85s-5.14-1.63-7.72-2.42c-13-4-28.75,1.68-39.68-6.38-4.05-3-6.73-7.45-10.2-11.1a8.79,8.79,0,0,0-4.55-2.93c-2.3-.41-6.33.91-6.76,3.21C732.92,530,731.54,531.49,734.19,532.75Z"/><path d="M732.09,565.79c4.13-1.16,8.53.59,12.09,3s6.65,5.48,10.44,7.48a21.83,21.83,0,0,0,15.56,1.79c8.72-2.28,15.26-9.76,23.84-12.53.89-.28,2.08-.41,2.54.4a2,2,0,0,1-.14,1.72c-3.13,6.84-14.32,8.33-15.22,15.8,6.59-.19,11-7.26,17.4-8.87a2.37,2.37,0,0,1,3.32,2.77c-.11,5.71-4.49,10.72-9.74,13s-11.21,2.24-16.88,1.53c-12.16-1.53-23.75-6-35.19-10.33a15,15,0,0,1-5.12-2.76c-2.53-2.4-3.07-6.16-3.47-9.62"/><path d="M733.3,590.53a115.63,115.63,0,0,0,62.48,9.72c1.34,3.54-1.6,7.53-5.2,8.73s-7.5.39-11.19-.43L763,604.94c2.35,3.3,6.71,4.27,10.58,5.45a53.6,53.6,0,0,1,13.26,6.13,13.42,13.42,0,0,1,4.57,4.22,5.49,5.49,0,0,1,0,5.92c-1.35,1.82-4,2.22-6.18,1.58a19.06,19.06,0,0,1-5.82-3.42,87.54,87.54,0,0,0-33.5-15.11c-3-.63-6-1.15-8.6-2.78s-4.45-4.74-3.63-7.66"/><path d="M733.51,613c6,6.46,12.66,13.24,21.31,15.06,3.25.68,6.61.61,9.9,1a60.4,60.4,0,0,1,13.4,3.8c2.57,1,5.21,2,7.21,3.91s3.26,4.83,2.39,7.44a4.43,4.43,0,0,1-2.41,2.75c-1.86.76-4-.1-5.7-1.11-6.05-3.5-11-8.86-17.45-11.53-5.72-2.37-12.22-2.43-17.88-5a22.32,22.32,0,0,1-11.45-11.86"/><path d="M733.24,633,751,643c8.23,4.64,16.92,9.4,26.36,9.5,1.78,0,3.63-.11,5.26.6s2.91,2.63,2.2,4.26-2.77,2-4.51,2a33.59,33.59,0,0,1-9.14-1.09c-7.85-2.06-14.74-6.9-22.58-9-2.64-.71-5.43-1.13-7.77-2.53-4.27-2.55-6.12-7.72-7.16-12.57"/><path d="M735,654.88l8.25,8.86a16.7,16.7,0,0,0,4.6,3.87,15.52,15.52,0,0,0,5.7,1.22,133.87,133.87,0,0,0,29.4-.9c1.51,1.68.75,4.55-1,6s-4.11,1.84-6.36,2.09c-10.81,1.22-22,.55-32.14-3.43a9.27,9.27,0,0,0-4-1,6.58,6.58,0,0,1-2.07.1c-1.19-.3-1.76-1.63-2.1-2.81a40.12,40.12,0,0,1-1.53-12.08"/><path d="M733.41,677c12.31,4,25.61,8,38,4.14,4.29-1.35,8.64-3.66,13-2.69-.09,4-1.38,8.72-5.2,9.81a14.88,14.88,0,0,1-4.62.11c-4.36-.18-8.62,1.17-12.87,2.13a74.52,74.52,0,0,1-9.27,1.48,21.5,21.5,0,0,1-7.25-.26c-4.5-1.13-8-4.61-11.2-7.94a6.42,6.42,0,0,1-1.81-2.64,2.22,2.22,0,0,1,1.15-2.71"/><path d="M733.85,701.71c3.16,3.83,9.16,3.08,13.93,1.7A124.11,124.11,0,0,0,776.46,691c1.93-1.14,4.54-2.29,6.19-.78a3.85,3.85,0,0,1,1.07,2.63c.18,3.09-1.68,6-4.07,7.94s-5.29,3.17-8.06,4.54c-4.62,2.3-9,5.14-13.71,7.2s-10,3.33-15.08,2.26-9.75-4.89-10.67-10a2.55,2.55,0,0,1,.17-1.79,1,1,0,0,1,1.55-.33"/><path d="M852.85,462.32a49,49,0,0,0-6-36.55c-10.63-17.08-30.57-25.84-44.46-40.4-10.06-10.54-16.88-24.46-17.61-39-.33-6.63.57-13.24,1.13-19.85a196.43,196.43,0,0,0,.26-29.61C792,309,793.19,322.81,797,335.75c9.4,32.27,33.82,57.5,54.57,83.94,3,3.84,6.05,7.9,7,12.69.76,3.79.15,7.71-.5,11.53q-1.92,11.43-4.2,22.81"/><path d="M874.66,422.38c-2.76-7.71-9-13.57-14.81-19.34-25.25-25-46.87-54.28-59.17-87.61-4-10.86-7-22.06-10.49-33.1a392.15,392.15,0,0,0-18-46.56c-3-6.5-6.27-13.59-4.57-20.54.3-1.23,1-2.61,2.24-2.74a3.42,3.42,0,0,1,2.58,1.41c9.54,10.07,15.54,23,19.86,36.2s7.1,26.83,11.19,40.09a214.2,214.2,0,0,0,56.14,91c6.15,5.9,12.84,11.67,16.42,19.41s3,18.23-3.84,23.34"/><path d="M892.15,378.92c-.53-4.86-4.66-8.62-9.09-10.7s-9.33-3-13.82-4.93c-5.06-2.2-9.45-5.7-13.47-9.47-17.67-16.58-29-38.78-38.21-61.18S800.71,247,788.74,226c-2.64-4.63-5.53-9.32-6.24-14.6S784,200,788.94,198a4.82,4.82,0,0,1,2.87-.34c1.77.44,2.83,2.22,3.62,3.87,3.1,6.46,5.22,13.33,7.5,20.12,12.22,36.42,29.23,71.43,52.33,102.13,7.81,10.37,16.48,20.4,27.53,27.2,3.68,2.26,7.62,4.17,10.85,7s5.72,7,5.33,11.28c-.36,4-3.11,7.39-5.92,10.28"/><path d="M906.54,355.93A67.45,67.45,0,0,1,894.75,339c-2-4-3.62-8.34-6.89-11.37-2.71-2.5-6.25-3.85-9.42-5.73-6.93-4.11-12-10.68-16.84-17.1-10.53-13.86-21.1-27.81-29.18-43.22-6.83-13-11.8-27-18.69-40-5.15-9.7-11.48-19.23-12.7-30.14-.37-3.22,0-7.07,2.81-8.76a7.42,7.42,0,0,1,4.92-.72c8,1.19,13.38,8.75,17.23,15.9,4.93,9.14,9,18.73,14.37,27.64,5.1,8.51,11.28,16.32,17.1,24.36a353.05,353.05,0,0,1,21.28,33.08c6,10.57,11.48,21.49,18.67,31.28,3.78,5.14,8.05,10,10.86,15.72a36,36,0,0,1,3.66,16.73c-.1,4.11-1.73,9.07-5.78,9.77"/><path d="M957.55,258.84c1.16,0,3.05-1.75,1.09-1.75-1.16,0-3,1.75-1.09,1.75Z"/><path d="M935.6,319.81c-3.48,4.52-3.44-6.88-9.64-13.05-3.08-3.06-7.56-4.2-10.78-7.11L894.44,280.9a145.11,145.11,0,0,1-11.71-11.42c-17-19.23-22.59-46-37.55-66.84-6-8.3-13.32-15.5-19.93-23.3-3.4-4-6.72-8.47-7.39-13.68s6.69-7.88,12.18-12.6c0,0,5.77,4.78,8.74,9.77,5.49,9.21,9.38,19.36,15.48,28.17s15.19,16.49,25.88,17.24c1.18.08,2.54.16,3.25,1.11a3.86,3.86,0,0,1,.57,1.74c.58,3.63,1.16,7.27,2.1,10.83,4.09,15.51,14.64,28.37,24.91,40.7l21.23,25.5c3.74,4.49,8.71,10.29,11.36,13.1,3,3.17-5.31,14.37-9.21,16.79"/><path d="M839,142.76c2.06-3,4.63-4.31,7.21-6.94,1.45-1.47,3.17-2.95,5.23-3,3.69-.11,5.78,4.09,6.95,7.59l11.11,33.46,3.93,11.84c.77,2.3,1.18,5.5-1,6.52s-4.2-1.11-5.49-3a96.1,96.1,0,0,1-11.17-21.88c-2-5.66-3.68-11.77-7.95-16-3.58-3.53-8.89-5.65-10.71-10.33l1.79-1.18"/><path d="M866.4,119.39l6.24,30.49c1.52,7.4,3,14.79,4.88,22.11A250.26,250.26,0,0,0,932.1,275.63c4.72,5.36,9.76,10.59,15.88,14.29a2.91,2.91,0,0,0,1.77.58,2.52,2.52,0,0,0,1.76-1.59c1.42-3,.68-6.56-1-9.36s-4.21-5-6.59-7.23a115.77,115.77,0,0,1-23.72-31.61c-4-7.9-7.15-16.27-11.76-23.85-2.94-4.84-6.46-9.31-9.54-14.07a155.61,155.61,0,0,1-11.17-21.62c-6.5-14.7-12.4-30.19-12.17-46.27a168.26,168.26,0,0,1,3.13-26.84c-5.67,3.43-9.54,5.69-13.23,10.2"/><path d="M917.6,225.08c-5.09-4.3-4.67-14-7.29-20.14a376.7,376.7,0,0,1-17.49-50.6c-2.6-9.74-4.82-19.7-4.69-29.77s2.79-20.39,9.09-28.27c.77-1,1.75-2,3-2,1.77,0,2.82,2,3.25,3.7,1.58,6.28.35,12.88-.59,19.29-2.53,17.33-2.84,35.22,1.53,52.18,4,15.66,12,30.21,15,46.09.63,3.32.82,7.31-1.76,9.49"/><path d="M926.76,102.79a126.83,126.83,0,0,1,40-43.94c1.62-1.1-.73-2.23-1.94-1.4a129.82,129.82,0,0,0-40.84,45c-.79,1.46,2.14,1.55,2.79.38Z"/><path d="M990.15,61.28c1.15-.85,1.64-1.9.47-3a1.73,1.73,0,0,0-2-.2c-1.27.58-2.07,1.46-1.36,2.83s3.29,2.11,4.45,2.89a51.16,51.16,0,0,1,5.53,4.3c7.25,6.42,13.08,14.24,19.85,21.13.9.91,3.65-.26,2.66-1.27-5-5.1-9.51-10.66-14.43-15.84a87.23,87.23,0,0,0-6.42-6.19c-1.23-1.05-7.59-6.82-9-6.18l-2-.2.27.44c-1.59,1.16.77,2.12,1.91,1.29Z"/><path d="M983.26,66.44a564.83,564.83,0,0,0,47.81,42.33c.65.52,3.22-.61,2.72-1A565,565,0,0,1,986,65.42c-.56-.56-3.24.51-2.72,1Z"/><path d="M930,112.18c13.06-22.79,30.87-42.05,51.81-57.82,1.57-1.18-.79-2.08-1.9-1.24-21.28,16-39.4,35.61-52.67,58.77-.79,1.37,2.15,1.35,2.76.29Z"/><path d="M934.61,120.75c14.66-24.35,34-45.64,52-67.53.6-.73-2.17-.38-2.63.18-18.07,22-37.55,43.38-52.28,67.84-.23.39,2.42.25,2.87-.49Z"/><path d="M941.32,126.84a226.44,226.44,0,0,1,41-49.37c-1.08,6.81-5,12.84-9.53,18s-9.75,9.76-14.16,15c-3.16,3.79-5.9,8-9.45,11.38a33.54,33.54,0,0,1-5.69,4.45"/><path d="M985.67,77.19a116.49,116.49,0,0,0,31.24,27.36c4.3,2.57,8.83,4.91,12.47,8.37s6.32,8.35,5.75,13.34c-3.43-.17-6.52-2.23-8.84-4.76s-4-5.54-6.06-8.31c-10-13.73-27.13-21.67-34.77-36.83-.59-1.17-1-2.78,0-3.62"/><path d="M986,84.24c-4.35,14.9-21.09,23.07-27.09,37.39a16.9,16.9,0,0,0-1.42,5.53c-.29,4.67,2.17,9.11,5.25,12.64s6.82,6.43,9.93,9.93c10.09,11.4,12.17,27.59,13.82,42.73-.66-11.74-7.29-22.14-12.75-32.55s-10-22.59-6.16-33.7c1.71-5,5-9.27,8.16-13.46C980.85,106.1,986,99.15,987.85,91"/><path d="M991.28,93a190.56,190.56,0,0,1,26.24,23.65c3.78,4.11,7.56,8.8,7.92,14.36.3,4.53-1.73,8.84-3.55,13a173.08,173.08,0,0,0-12.28,41.53c.72-13.44,5-26.39,8.48-39.38,1.06-4,2.06-8.15,1-12.1-1.24-4.56-5-7.91-8.21-11.34-8-8.47-13.87-18.7-19.66-28.82"/><path d="M987.28,99a75.46,75.46,0,0,1-6.71,16.52c-2.87,5.18-6.41,10.19-7.46,16a11.56,11.56,0,0,0,.25,5.9,18.9,18.9,0,0,0,3.11,4.93c8.39,10.93,13.11,24.28,15.94,37.76,1.06,5.08,1.9,10.27,4.05,15-2.94-7.79-3-16.35-4.63-24.51-2.08-10.32-6.79-20.22-6.82-30.76,0-6.84,2-13.51,2.89-20.29,1-7.14.79-14.37.6-21.57"/><path d="M990.16,99.1c4.1,6.73,5.4,14.75,6.62,22.54,1,6.56,2.05,13.14,2.44,19.78.26,4.48.23,9,.47,13.46.85,15.7,5,31.21,4.29,46.91l-.58-2,.27-1.3,1.41,1.89-2.37-11c-2.38-11-4.76-22.07-6.35-33.24a295.51,295.51,0,0,1-2.29-53.44"/><path d="M1005.54,185c-.88-5.21-.65-10.54-.6-15.82a214.61,214.61,0,0,0-4.86-47.28l-.92-5.77a203.28,203.28,0,0,1,13.05,21.66,10.45,10.45,0,0,1,1.25,3.2,11.83,11.83,0,0,1-.89,5.44,90.09,90.09,0,0,0-4.2,28.84l-1.12-2.27"/><path d="M932.67,150.89c-1.11,1-.74,3,.35,4a8.47,8.47,0,0,0,4.11,1.77l10.74,2.47a20.63,20.63,0,0,1,5.35,1.77c3.17,1.75,5.16,5,6.87,8.21A136.35,136.35,0,0,0,940,166.51c-2.67-.15-5.65-.35-7.47-2.31-1.63-1.77-1.8-4.4-1.79-6.81s.22-5.08,1.95-6.76"/><path d="M931.6,179.87A132.14,132.14,0,0,0,955.29,181c4.1-.18,8.41-.5,12.08,1.33,4.9,2.45,7.27,8,8.92,13.26-7.09-2.53-12.93-8.65-20.43-9.19-3.33-.23-6.62.68-9.94,1.08s-7,.18-9.54-2c-1.91-1.58-2.94-4-3.72-6.34"/><path d="M978.18,208.33c-1-1.46-.53-3.55-1.45-5.06a5.47,5.47,0,0,0-2.52-1.91,21.09,21.09,0,0,0-8.19-1.89,70.69,70.69,0,0,0-7.95.59,50.88,50.88,0,0,1-18.69-1.91,2.26,2.26,0,0,0-1-.15c-1.2.2-1.22,2-.67,3,1.91,3.71,6.45,5.25,10.61,5.46,6.51.34,13-1.71,19.51-.85a22.07,22.07,0,0,1,12.39,6"/><path d="M977.67,224.46c-.09-.2-.41-.07-.47.14a3.42,3.42,0,0,0,0,.64c-.06.62-.93.85-1.5.6a9.18,9.18,0,0,1-1.49-1.16,5.93,5.93,0,0,0-2.78-.86,102,102,0,0,0-18.07-.7c-2.59.13-5.28.35-7.69-.62s-4.39-3.55-3.71-6.05l1.35-.35c4.7,3,10.48,3.7,16.05,4s11.24.13,16.57,1.78c.49.15,1,.94.44,1"/><path d="M973.54,240.91c.34-2.13-1.67-4-3.79-4.47s-4.28.13-6.4.49a63.16,63.16,0,0,1-9.82.57c1,2.29,2.39,4.86,4.84,5.35a8.29,8.29,0,0,0,2.89-.13c2.54-.4,5.11-.67,7.69-.82s5.6-.1,7.6,1.66"/><path d="M1016.28,184.92c0-2.71,1.22-5.27,2.51-7.65a130.1,130.1,0,0,1,7.45-12.16c1.89-2.75,4-5.52,7-6.93a14.3,14.3,0,0,0,.51,7,3.14,3.14,0,0,1,.26,1.47,2.82,2.82,0,0,1-.88,1.37l-12.35,12.75c-1.24,1.28-2.59,3-2,4.66"/><path d="M1018.28,195.31c-.49-2.18.69-4.37,1.94-6.23A50.29,50.29,0,0,1,1027,181a6.16,6.16,0,0,1,1.19-1,5.92,5.92,0,0,1,1.59-.57c3.1-.76,6.69-1.26,8.5-3.89-.53,4.63-4,8.45-7.82,11.07s-8.25,4.36-12.17,6.89c-.83.54-1.72,1.64-1,2.37"/><path d="M1022.64,201c-.38-1.76-.59-4,.88-5a4.64,4.64,0,0,1,1.91-.63c3.47-.64,7.06-1.52,9.71-3.86-.32,3-1.46,6.15-3.81,8.09s-6.1,2.38-8.43.4"/><path d="M939.8,230.17c2.72,0,4.89,2.24,6.31,4.56,2.36,3.87,3.68,8.28,5.86,12.26s5.54,7.7,10,8.52c.25,1.43-1.42,2.59-2.86,2.42a7.15,7.15,0,0,1-3.69-2.16l-5.81-5.27a46.73,46.73,0,0,1-7.52-8,15.58,15.58,0,0,1-3-10.36c0-.4.37-.94.72-.73"/><path d="M151.17,530.78c3.21,5.45,9.69,8,15.86,9.4,8.36,1.88,17,2.28,25.41,3.81s16.94,4.33,23.22,10.16a52,52,0,0,1,7.28,9,18.8,18.8,0,0,1,3.34,7,3.24,3.24,0,0,1-.12,1.9,2.6,2.6,0,0,1-3.09,1.07,8.66,8.66,0,0,1-3-1.93,43.09,43.09,0,0,0-15.28-8.33c-11.06-3.35-23.38-2.23-33.73-7.36-6.71-3.32-11.94-9-17-14.47-1.62-1.76-3.32-3.72-3.45-6.11,0-.55.79-1.19.87-.64"/><path d="M145.29,546.83a77,77,0,0,0,42.58,22.72c10.63,1.81,22.45,1.68,30.73,8.6-6.35,1.24-12,5-18.35,6.19-5.62,1.07-11.42.07-17-1-8.27-1.64-16.73-3.62-23.64-8.45-5.05-3.54-9-8.41-12.86-13.21-2.93-3.64-6.05-8.23-4.44-12.63"/><path d="M202.7,590.6a4.77,4.77,0,0,1-3.76,1.77c-3.05-.07-5.21-2.91-7.92-4.31s-6.16-1.27-9.32-1.07a4.53,4.53,0,0,0-2.76.81,2.91,2.91,0,0,0-.75,2.8,6.39,6.39,0,0,0,1.47,2.62,17.18,17.18,0,0,0,17.25,5.42"/><path d="M135.32,564.38c3.94,1.2,6.94,4.42,9.21,7.87s4,7.23,6.55,10.48c3.6,4.63,8.61,7.94,13.52,11.16L188,609.21c-4,3-9.66,1.4-14.32-.43-7.62-3-15.4-6.6-20.47-13-1.9-2.4-3.35-5.12-5.26-7.51a24.83,24.83,0,0,0-8.17-6.65c-3.55-1.8-8-3.23-9.21-7s1.49-7.45,4-10.44"/><path d="M123.94,583.21c1.37-1.79,4.07-2.06,6.17-1.24a15.58,15.58,0,0,1,5.27,4.13C147.5,598.88,160,612.76,177,617.48a2.56,2.56,0,0,1,1.43.73,1.74,1.74,0,0,1,.23,1.46,3.51,3.51,0,0,1-3.19,2.34,10.41,10.41,0,0,1-4.12-.82l-13.9-4.83c-4.15-1.45-8.37-2.92-12-5.47-3.84-2.74-6.78-6.61-10.7-9.24-2.67-1.79-5.73-2.95-8.38-4.78s-5-4.59-5-7.8,3.12-6.45,6.19-5.49"/><path d="M114.16,602.69a5.49,5.49,0,0,0-3.13-.28c2.59-1.6,5.92-1.23,8.88-.48a80.83,80.83,0,0,1,10.74,3.85l13.38,5.5c.7.29,1.5.7,1.61,1.45a2.12,2.12,0,0,1-.14,1l-1,3.19A2.35,2.35,0,0,1,144,618a2.17,2.17,0,0,1-1,.43c-6.74,1.49-13.11-3.55-20-4.52-2.37-.34-4.85-.19-7.08-1.07a8.26,8.26,0,0,1-5.07-7.56c0-.88.85-2,1.49-1.45"/><path d="M114.2,621.22c12.73,4.37,26.69-2.11,40.06-.64,6.36.7,12.37,3.18,18.19,5.84a1.57,1.57,0,0,1,.88.69,1.67,1.67,0,0,1-.14,1.21c-.69,1.73-1.46,3.55-3,4.63-3.08,2.19-7.24.25-10.79-1.06a29.59,29.59,0,0,0-11.56-1.83c-5.74.24-11.34,2.14-17.08,2.14s-12.19-2.69-13.8-8.2"/><path d="M164.68,641a18.67,18.67,0,0,0-6.93-5.07,12.54,12.54,0,0,0-8.47-.46c-.48.15-1,.4-1.13.88a1.51,1.51,0,0,0,.14.93,9.43,9.43,0,0,0,6.11,5.5c2.32.65,5,.48,6.79,2.15a4.21,4.21,0,0,1,.86,4.77"/><path d="M115.7,633.46c3,2,6.26,4.1,9.87,4a41.71,41.71,0,0,0,4.83-.73,6.63,6.63,0,0,1,4.72.77c1.34.93,2,3,1,4.26s-3.14,1.23-4.85,1c-4.07-.69-8.21-1.39-11.9-3.23a8.92,8.92,0,0,1-3.9-3.27c-.17-.29-.19-.82.14-.82"/><path d="M119.07,647.18c2.72,2.13,6.48,2.48,9.89,1.9s6.61-2,9.91-3a14.59,14.59,0,0,1,6.36-.85,15,15,0,0,1,5.09,2,54,54,0,0,1,6.26,4.22,6.67,6.67,0,0,1,1.55,1.54c1.14,1.79.45,4.14-.26,6.13a4.52,4.52,0,0,1-1.16,2,3.05,3.05,0,0,1-3.39,0,11.53,11.53,0,0,1-2.6-2.48,13,13,0,0,0-4.59-3.52c-3-1.23-6.4-.69-9.49.25s-6.1,2.26-9.31,2.59-6.81-.58-8.64-3.24a12.93,12.93,0,0,1-1.56-3.84c-.39-1.37-.45-3.38,1-3.69"/><path d="M119.32,663.07a41.93,41.93,0,0,0,13.54,1.81c5.5-.18,11.3-1.39,16.31.88a8.38,8.38,0,0,1,4.34,4c1.47,3.37-.26,7.2-2,10.45a3.21,3.21,0,0,1-.95,1.28c-1,.69-2.37.1-3.46-.45a45,45,0,0,0-23.41-4.7,2.52,2.52,0,0,1-1.06-.06,2.35,2.35,0,0,1-1.1-1.14,12.57,12.57,0,0,1-.48-11.07"/><path d="M121.61,689.76c.38-2.17,1-4.58,2.93-5.68a5.68,5.68,0,0,1,4.4-.29,30.85,30.85,0,0,1,4.15,1.78,23.85,23.85,0,0,0,14.39,1.56c1.16-.24,2.65-.44,3.28.57a2.69,2.69,0,0,1,.29,1.29c.1,2.13-.18,4.52-1.77,5.94s-4.37,1.38-6.51.56-4-2.2-6.17-3a12.22,12.22,0,0,0-8.16-.08c-2.18.75-4.54,2.13-6.6,1.1a4.26,4.26,0,0,1-2.12-3.51,11.11,11.11,0,0,1,.72-4.21"/><path d="M132.5,272.36c-.1,4.71-1.89,9.95-2,14.66-.11,5.07,1.55,10.13-.61,14.65-.72,1.49-2.21,4.64-3.71,4.13-.74-.26-1.28.49-1.66-.23-1.42-2.65-1.61-5.83-1.74-8.89-.17-3.93-.61-9.61.65-13.31.89-2.63,2.74-3.31,4.27-5.59a15.94,15.94,0,0,1,3-3.66"/><path d="M116.5,290.08c3.88,8.21,5.08,13.48,4.7,22.66-5.61,6.07-8.6-2.56-9.28-8.13-.6-5-1.92-5.72,4.58-14.53"/><path d="M102.09,309.15a33.22,33.22,0,0,1,4.13-5.14c.49-.5,1.23-1,1.79-.59a1.63,1.63,0,0,1,.49,1.09c1.55,8.47,3.1,6.93,4.64,15.4.23,1.23-.41,2.25-.65,3.48a2.47,2.47,0,0,1-1.91,2.3c-2.33,2.62-2.24,6.19-3.3,3.19s-2.86-6.43-3.32-9.59c-.76-5.28-1.16-9.55,1-14.4.67,1.05.14-.67.36-.32"/><path d="M240.55,561.37c5.42,3.55,8.58,10.72,11.7,16.4a1.29,1.29,0,0,0,.45.53c.46.22,1-.18,1.3-.56a24.36,24.36,0,0,0,4.83-6.65,12.69,12.69,0,0,0-7.5-17c-.48-.17-2.43-.81-2.83-.5"/><path d="M256.36,543.57c4.15,2.47,7.34,8.89,8.93,13.46,1.91-3.29,4.78-7.82,5.91-11.44.27-.84-.06-1.19-.46-2.48a23.31,23.31,0,0,0-1.76-4c-.8-1.56-2.4-2.57-3.82-3.6"/><path d="M273.46,524.58l3.79,4.55c.54.64,1.27,1.36,2.09,1.18a2.27,2.27,0,0,0,1.22-1,33.23,33.23,0,0,0,4.33-8,8.27,8.27,0,0,0,.68-4.47,3.37,3.37,0,0,0-3.12-2.83"/><path d="M228.71,571.05c3.06,2.11,7.06,4.81,10.11,6.92,2.63,1.81,5.33,3.69,7.12,6.33s2.51,6.27.93,9.05c-.81,1.44-2.36,5.9-4,5.84-.89,0-1.53-2.49-2.48-4.13-3-5.1-8-8.5-12.13-12.76a27.73,27.73,0,0,0-7.64-5.61"/><path d="M212.06,584.86C219.27,586,223.49,593.71,230,597c2.63,1.33,7.08,3.93,8.88,6.26,2.57,3.33-.28,6.5-3.17,9.56a2.17,2.17,0,0,1-1.07.73,2.35,2.35,0,0,1-1.87-.82c-1.62-1.45-3.14-3-4.7-4.52A108,108,0,0,0,204.65,591"/><path d="M200.59,597.38l27.64,16.48a12.51,12.51,0,0,1,4.64,3.9c1.06,1.74,1.06,4.31-.56,5.56-1.24.95-1.43,5.45-3.26,2.41a51.68,51.68,0,0,0-4.76-5.29c-3.27-3.5-6.74-7-11-9.19-7.23-3.81-15.83-3.66-24-3.42-.93,0-2.23.71-1.7,1.47"/><path d="M180.31,621c1.73-3.81,5.5-6.42,9.51-7.58a33,33,0,0,1,12.45-.66,30.58,30.58,0,0,1,9.19,2c3.54,1.52,6.51,4.09,9.41,6.62,3.32,2.9,6.9,4.38,7.23,8.77.15,2.12-1.4,9-3.5,9.44,0,0-3.74-4.53-5.19-6.52a28.72,28.72,0,0,0-16-11,24.51,24.51,0,0,0-19.05,3c-3.67,2.38-6.62,5.82-10.54,7.77a2,2,0,0,1-1.58.27c-.92-.36-.87-1.69-.58-2.64a22.41,22.41,0,0,1,8.67-11.83"/><path d="M166.79,649.28c3.4-5.84,7.64-11.31,13.11-15.29s12.25-6.38,19-5.78a23.34,23.34,0,0,1,21.26,24.3,43.52,43.52,0,0,0-23.38-14.75c-4-1-8.48-1.26-11.86,1-1.88,1.28-3.19,3.23-4.76,4.87a19.58,19.58,0,0,1-14.62,6c-.47,0-1.08-.17-1.13-.65s1-.22.6,0"/><path d="M175.73,654.72c2.79-4.49,6-9.32,11.11-10.76,3.9-1.12,8.14.08,11.68,2.07a27.28,27.28,0,0,1,10.17,10.09c2,3.45,3.22,7.34,5.62,10.51,1.1,1.45,2.51,3.18,1.8,4.86a3,3,0,0,1-3.43,1.5,7.57,7.57,0,0,1-3.42-2.08c-4.79-4.42-8.4-10.36-14.26-13.2a10.53,10.53,0,0,0-6.31-1.14,21.14,21.14,0,0,0-4.49,1.61,27.14,27.14,0,0,1-9.11,2,3.84,3.84,0,0,1-2.55-.54,2.82,2.82,0,0,1-.42-3.55,8.2,8.2,0,0,1,2.86-2.59"/><path d="M171.67,668c4.4-.65,8.47-2.66,12.78-3.75s9.33-1.07,12.68,1.85c.94.82,1.75,2.08,1.33,3.26s-1.94,1.64-3.23,1.82a34,34,0,0,1-5.34.33,7.7,7.7,0,0,0-2.83.28,7.46,7.46,0,0,0-2,1.32,62.52,62.52,0,0,1-6.31,4.53c-1.8,1.14-4.21,2.17-5.93.91-1.17-.86-1.49-2.44-1.72-3.87l-.58-3.65c-.2-1.2-.26-2.71.78-3.34"/><path d="M176,688.43a22.82,22.82,0,0,1,7.24-8.51,10.67,10.67,0,0,1,4.5-2,13.92,13.92,0,0,1,3.53.09l10.05,1.13L214,680.53a1,1,0,0,1,.61.2,1.08,1.08,0,0,1,.25.88,49.34,49.34,0,0,1-.85,7.86,2,2,0,0,1-.65,1.32,1.87,1.87,0,0,1-1.38.14c-2.4-.38-4.72-1.2-7.15-1.33-5.89-.31-11.2,3.54-15.24,7.85-1.36,1.46-3.46,3.11-5.07,1.94s-.62-3.79.53-5.47l4.54-6.67a3,3,0,0,0,.56-1.16c.22-1.38-1.63-2.29-2.94-1.83S185,686,184.14,687a16.84,16.84,0,0,1-5.42,4.21,2.6,2.6,0,0,1-1.92.35c-.64-.2-1-1.11-.55-1.57"/><path class="cls-3" d="M978.74,247.28l0-.14c-.22-.53-1.23-.37-1.62-.25l-.18.06c-.25.08-1.56.53-1.28,1,.91,1.62,3.07,2.66,4.53,3.77,2.27,1.75,4.59,3.43,6.81,5.24,4.78,3.91,8.19,9.56,5,15.78-4.25,8.25-11.29-2.35-12.3-7.19-.6-2.89-.7-5.85-1.28-8.74a28.48,28.48,0,0,0-1.27-4.28c-.14-.39-1.55-4.52-.83-4.22s3.43-.87,2.33-1.32a4,4,0,0,0-4,.39c-3,2.15-.24,5.82.5,8.46,2,7.14.61,18.43,9.77,21,7.07,2,10.45-2.48,11.13-9.23.43-4.23-1.52-7.44-4.56-10.22-1.8-1.64-3.81-3.07-5.74-4.56s-5.93-3.45-7.14-5.62l-1.28,1,.18-.06-1.62-.25.05.13c.37.91,3.23,0,2.9-.77Z"/><path class="cls-3" d="M1034.08,249.36l1,0-.89-.66c-.25,3.62-13.84,26.81-5.08,26.87,3.18,0,5.83-3.24,6.86-5.89,2.37-6.07,1.28-14.65,1.51-21.07,0-1.22-2.86-.64-2.9.35q-.21,6.13-.44,12.27a40.17,40.17,0,0,1-.43,6.21,10.94,10.94,0,0,1-1.14,3.68q-4.14,1.51-3-1.8c-.72-3.75,2.77-9.89,4.38-12.8,1.49-2.71,2.9-5,3.12-8.17,0-.51-.48-.64-.89-.67l-1,0c-1.14-.07-3.07,1.56-1.12,1.68Z"/><path class="cls-3" d="M971.77,279.26c6.05.71,9.89,5.59,14.49,9A17.46,17.46,0,0,0,999.43,292a48.6,48.6,0,0,1,13.63.22,22.37,22.37,0,0,0,6.73.35c3.47-.46,6.51-1.93,8.32-5,.29-.48-2.41-.31-2.87.46l-5.58,3.36-2.76-.16c-1.52-.16-2.87-.51-4.33-.75a29.92,29.92,0,0,0-5.58-.5c-6.17.14-11.48,1.79-17-2s-9.43-9.21-16.36-10c-.71-.09-3.35,1.12-1.85,1.3Z"/><path d="M76.34,358.82c18.7-42,46.43-80,82.14-109.11,18.8-15.32,39.24-27.37,62.56-34.33,22.78-6.81,46.69-9.4,70.41-9.63,49.33-.48,99.41,7.42,147.36,18.46,24.95,5.74,49.43,13,74.76,17a445.08,445.08,0,0,0,73.56,5.45,446.87,446.87,0,0,0,162-32c1.86-.75.17-1.82-1.17-1.28a440.21,440.21,0,0,1-154.4,31.44,441.25,441.25,0,0,1-76.51-5c-26-4-51-11.4-76.53-17.28-47.88-11-97.94-18.93-147.18-18.55-45.06.35-89.27,9.59-126.14,36.57-41.14,30.1-72.94,71.7-93.62,118.13-.58,1.31,2.31,1,2.71.1Z"/><path d="M749.19,213.59a48.29,48.29,0,0,1-9-42.53c4.41-16.42,18.18-27.53,30.94-37.61C798.69,111.65,827,90.78,856.77,72q26.28-16.59,54.05-30.61c1.77-.89.18-2.33-1.26-1.61-34,17.06-66.18,37.42-97,59.62-15.13,10.89-30,22.2-44.56,33.79-12.06,9.56-24.69,20.09-29.81,35.15a49.51,49.51,0,0,0,8.37,46.48c.78,1,3.55-.15,2.66-1.25Z"/><path d="M958.46,21.69c4.08-1.34,9.31-.21,13.49.37,5.52.76,11.11,2.29,15.42,6,9.29,8,5.45,18-.66,26.54-.67.95,2.19.62,2.67-.06,3.07-4.32,6.45-9,6.79-14.53.37-5.92-3.16-11.11-7.87-14.38S977.71,21.09,972,20.44c-4.66-.53-9.37-1.44-13.9,0-1.66.54-1.39,1.76.33,1.2Z"/><path d="M738.6,174.93a68.38,68.38,0,0,0,6,5.7c8.85,7.8,17.8,15.67,28.21,21.19L760.84,209l-15.78-11.13a39.37,39.37,0,0,1-7.25-6"/><path d="M751.17,150C765,163.8,777,175.51,791.4,188.72c-.26-.44.25.45,0,0l-9.15,6c.4,1.09-.94.13-.54,1.21a495.51,495.51,0,0,1-39.87-33"/><path d="M806.66,176c.39.29,1.44-1.95,1.83-1.66-12.63-12.29-27.74-28.4-39.06-41.91l-7.92,8c12,13.9,25.69,28.81,38.65,41.81l-.57-.57"/><path d="M826.37,156.85c.42.48-2.44-2.25-2-1.77a347.64,347.64,0,0,1-34.77-37.52l-8.64,6.78c9.83,13.25,21.63,27.76,33.74,39a17,17,0,0,1,2,3.22"/><path d="M810.81,103q15.78,18.78,31,38c-.24-.35-.58.93-.82.58l-7,6.83c.26.61-.87-1.41-.61-.79a287.38,287.38,0,0,1-33-36.82"/><path d="M834.15,86.82,857,116.47c1.3,1.69,3,3.84,4.89,4.78l-9.66,8.82c-10.43-12.3-20-24-30.05-36.63"/><path d="M856.59,70.67c9,13.46,16.12,22.51,24.22,36.51l-9.21,6.57a353.77,353.77,0,0,1-26.7-34.52"/><path d="M872.78,60.12c4.22,10.57,12.27,27.21,16.49,37.79.11.28.26.6.56.68s.53,1.41.28,1.23l-6.22,5.07c-6-12.61-12.95-27-20.21-39"/><path d="M890.65,50.68c4.27,13.21,9.34,28,14.05,41.11L898,97.18l.27,2.19c-5.38-13-11.65-30.11-16.4-43.35"/><path d="M914.91,84.74a380.71,380.71,0,0,0-13-39.35l-4.49,2C901,60.33,905,75.09,909.29,87.75c0-.53.45.3.46-.24"/><path d="M972.67,55.12a201.37,201.37,0,0,0-.31-33.4l-6.51-.63c1.5,8.28,1.29,26.53.83,34.93"/><path d="M986.38,53c3.41-10.43,4.37-11.58,4.24-22.55l-9.57-7.19c1,1.37,1.57,11.71,1.38,13.39-.73,6.49-1.71,10.71-2.94,17.13"/><path d="M925,96.25c5.12-18.31,19.74-33.51,21.7-52.43.77-7.47-.53-15-2.4-22.3-1.09-4.26-2.4-8.54-4.84-12.19s-6.18-6.64-10.53-7.27l-1.88.72a28.12,28.12,0,0,0-7.83,7.7,59,59,0,0,0-10.89,35.44c.12,5.18,1,10.45,3.39,15s6.56,8.45,11.6,9.66"/><path d="M930.09,92.85A102.07,102.07,0,0,0,924.65,170c4.25,12.69,11.1,26.14,6.55,38.72l-1.83,1c-4.57-4.56-9.65-9.33-13.43-14.61-4.56-6.37-5.66-14.53-6.15-22.35A194.85,194.85,0,0,1,920.6,95.69"/><path class="cls-3" d="M979,236.27c5.23,3.55,10.54,7,15.69,10.69,4.54,3.23,8.07,6.65,8.63,12.42.35,3.67.83,6.34,4.28,8.29a10.85,10.85,0,0,0,7.7,1.08c6.48-1.51,9.31-7.77,8.84-13.91-.33-4.34.47-6.2,3.73-8.94a20.61,20.61,0,0,0,3.6-3.38c1.77-2.43,2.18-5.48-.12-7.69-.73-.7-3.46.39-2.69,1.13,5.67,5.46-6.66,10.41-7.65,15.64-.53,2.81.75,5.62.09,8.49-1.37,6-8.94,9.76-13.27,4.47-2.3-2.81-1.11-6.34-2.22-9.54a15.84,15.84,0,0,0-4.75-6.52c-5.85-5.23-13.09-9.24-19.56-13.63-.77-.52-3.45.62-2.3,1.4Z"/><path d="M90.17,364a234.33,234.33,0,0,1,59.9-80.74c.58-.51-2.09-.23-2.62.23a235.41,235.41,0,0,0-60.14,81c-.19.42,2.53.22,2.86-.52Z"/><path d="M67.71,428.87c-6,12-3.8,26.46-7.37,39.4-2.46,8.9-7.59,16.79-12.65,24.51-9.83,15-19.7,30.1-31.57,43.57H15.2c1.06-14.37,10.23-26.6,17.51-39a166.09,166.09,0,0,0,18.17-45.07c-5.48,35.8-19.12,36.52-43.53,63.28-1.1-18.47,26.34-42.7,30.68-60.69,2.5-10.37,5.91-20.94,4.36-31.5C28.5,472.4,22.24,473.69,0,483.34c32.55-42.87,4.25-29.42,48.54-90.94-36,55.21-32.42,15.1-44.29,67.25-4.47-39.91,19.24-54,30.53-67.25S62.39,367.66,76,356.77l13.75,5.49c20,33.1,11,61.12,3.4,90.47l-.36-1c-1.93-12.09-.74-44.26-6-54.47l.22-.39c-1.19,11.31,5.11,23.17,4.43,33.5s-4.7,19.85-8.68,29.27l-6,14.34-4,11.41a92.68,92.68,0,0,0,7-63l-.53-.15a184.48,184.48,0,0,1-17.05,79.08c-1.32,2.86-2.78,5.77-5.17,7.83l-4.71,5.57c4.3-8.83,8.4-17.84,10.77-27.37s2.92-19.71.13-29.13"/><path d="M75,358.77l21.29-40s-2,8.16-.16,13.56a10.18,10.18,0,0,0,6,6.35L88.74,364.26l-3.2,3.3Z"/><path class="cls-3" d="M1030,62.07c2.07-2,6.09-4.61,9.18-6.87A46.22,46.22,0,0,0,1054,36.88c1.86-4.16,3.11-8.89,1.8-13.26s-5.12-6.24-9.52-5.06c-1.75.47-8.33,8.11-12.58,12.15-13.3,12.67-14.12,13.51-23.83,17.86l-10,3a23.36,23.36,0,0,1,17,5.89c5.4,4.81,2.55,8.36,5.6,8.45S1028.24,63.77,1030,62.07Z"/><path d="M747.61,214.33C760.93,208.15,774,201.51,786,193s22.75-18.22,33.11-28.46c10.54-10.41,20.46-21.43,30.91-31.93a242,242,0,0,1,32.81-27.2c14-9.77,28.65-18.46,43.38-27,.42-.25-.19-.46-.47-.29-24,13.94-48.09,28.34-68.73,47.09-22,19.94-40.33,43.39-63.8,61.78-14.12,11.06-29.71,19.44-45.93,27-.45.21,0,.55.31.38Z"/></g></g></svg>