<svg xmlns="http://www.w3.org/2000/svg" viewBox="0 0 955.97 1010.42"><defs><style>.cls-1{fill:#941aff;}.cls-2{fill:#fff;}.cls-3{fill:#ffe600;}</style></defs><title>Development_rez</title><g id="Слой_2" data-name="Слой 2"><g id="Слой_1-2" data-name="Слой 1"><path d="M489.9,535.57c-26.95,69.9-16.39,149.34,4.34,221.66,21.38,74.56,53.08,146.55,64.63,223.25l.89.47c-32.82,17.16-62.49,19.08-99.34,22.78a1148.81,1148.81,0,0,1-293.69-8.27c-27.53-4.35-57.54-11.28-74.13-33.67l-2,3.3c28.78-75.69,67.57-147.74,89.15-225.78,17.93-64.88,22.66-136.67-.07-199"/><path d="M488.52,535.41c-21.06,55.31-19.13,115.89-7.74,173.13,12.1,60.82,35.26,118.61,53.68,177.64,5.17,16.55,10,33.23,14.08,50.08q3.06,12.62,5.56,25.38,1.24,6.38,2.3,12.8c.39,2.35-.07,6.1,2.24,7.34l.48-1.66c-26.77,13.82-55.64,18.29-85.28,21.26-32.6,3.26-65.21,5.82-98,6.67A1146.63,1146.63,0,0,1,175,995.62c-28.89-4.36-62.14-9.63-81-34.46-.67-.87-2.24-.3-2.71.48l-2,3.3,2.76.3c41.34-108.41,104.69-213.34,104.5-332.79-.05-31.45-4.67-62.87-15.35-92.52-.47-1.28-3.35-.47-2.9.78,40.6,112.65-5.89,230.16-51,333.51-13.11,30.06-26.35,60.07-38,90.72-.62,1.61,2.17,1.28,2.76.3L94,962l-2.71.48c15.56,20.45,41.23,28,65.46,32.45,33.16,6.08,66.94,9.69,100.54,12.27,69.17,5.3,138.5,4,207.51-2.83,33.11-3.28,65.62-7.06,95.61-22.54.5-.26,1.35-1.19.49-1.65-1.64-.88-1.73-7.39-2-9.22q-.95-5.49-2-11c-1.54-7.89-3.28-15.75-5.17-23.57-3.49-14.44-7.51-28.76-11.82-43-8.86-29.14-19-57.87-28.56-86.77-18.66-56.25-35.22-114.08-36-173.8-.43-33.05,4.22-66.14,16-97.12.58-1.54-2.32-1.48-2.76-.31Z"/><path d="M2.89,471.28c3.6-42.77,48.59-61.46,84.31-72.21,49.35-14.86,101-23.55,152.19-28.82,111.87-11.5,226.16-3.77,335.29,23.53,25,6.25,50.13,12.91,73.43,24.09,15.66,7.52,40.95,20.59,41,41,0,.71,2.91.22,2.9-.78-.06-17.69-19.34-29.63-33-37.09-20.27-11.11-42.36-17.92-64.56-23.95a958.45,958.45,0,0,0-168.88-29.68C315.51,357.94,201.72,365.71,95,395.5,56.54,406.24,4,424.93,0,471.71c-.08,1,2.81.41,2.88-.43Z"/><path d="M0,471.89c1.12,12.77,11.19,22.21,21.33,28.84,15.34,10,33.22,16.13,50.73,21.1,45.59,13,93.46,18.61,140.65,21.58,26.26,1.65,52.56,1.86,78.86,1.92,35.26.08,70.52-.48,105.73-2.21s70.24-4.63,105.12-9.26c31.38-4.17,62.24-10.35,93.19-16.85,20.34-4.27,41-8.12,60.42-15.64,14.61-5.65,32.29-14.79,35.91-31.58A31.47,31.47,0,0,0,692,458.1c-.21-1.34-3.12-.61-2.9.78,3.08,19.24-12.4,31.12-28.18,38.19-18.8,8.42-39.4,12.43-59.46,16.6-28.72,6-57.3,12.11-86.36,16.33-33.21,4.81-66.65,8-100.15,10s-67.2,2.92-100.83,3.13c-28.58.17-57.22.27-85.77-1.06C182.33,540,135.9,535,91,524.35c-18.91-4.48-37.93-10-55.43-18.54-11.87-5.83-25.63-14-30.82-26.93a27,27,0,0,1-1.84-7.77c-.11-1.33-3-.63-2.9.78Z"/><path class="cls-1" d="M187.77,457.25c-.12-42,71.31-44.74,111.39-46.8s80.14,2.73,120,7.5c19,2.28,41.25,6.81,49.13,24.26A21.94,21.94,0,0,1,469.51,458c-4.32,12.93-20.68,16.34-34.24,17.64C357.59,483.11,286.55,492.55,211,473c-7.16-1.85-23.35-7.1-23.23-15.77"/><path d="M189.24,457.14c.33-31,39.17-38.61,63.28-41.91,39.35-5.39,79.54-5.09,119-1.42,12.46,1.15,24.89,2.57,37.32,4.05,10,1.18,20.06,2.12,29.79,4.74,8.78,2.37,17.75,6.13,23.8,13.19,6.9,8,9.53,20.71,1.45,28.94-6.56,6.68-17,8.51-25.93,9.54-11.93,1.38-23.93,2.38-35.89,3.55-23.74,2.31-47.52,4.44-71.37,5.3-26.78,1-53.65.26-80.22-3.46a306.93,306.93,0,0,1-40.31-8.08c-6.85-1.93-20.47-5.7-20.93-14.44-.08-1.54-3-1.11-2.94.21.38,7.17,8,11,13.9,13.38,9.74,4,20.5,6,30.8,8,25.52,4.95,51.52,6.93,77.49,7,26.48,0,52.91-1.93,79.26-4.36,13.88-1.29,27.75-2.71,41.63-4.06,9.37-.92,19-1.67,27.71-5.49,7.26-3.18,13.42-8.88,14.63-17,1.39-9.39-3.84-18.61-10.91-24.42C445.06,417.39,421.2,417,402,414.79c-46.57-5.4-93-7.79-139.71-2.87-26.93,2.83-75.59,9.49-76,45.43,0,1.54,2.92,1.13,2.94-.21Z"/><path class="cls-2" d="M194.17,584.47c73.09,17.06,149.62,9.42,223.36,1.23C438,583.44,458.36,581,478.8,579l-.09-1.87-5.13,1c-1.81.35-1.3,2.14.48,1.8l5.13-1c1.44-.28,1.62-2-.08-1.87-73.36,7.41-147,19.16-220.95,14.47a378,378,0,0,1-62.28-8.85c-1.13-.26-3.43,1.42-1.71,1.82Z"/><path class="cls-2" d="M197.65,665.29c70.25,8.49,141.2,6.83,211.8,5.55,19.83-.37,39.66-.7,59.49-.79,1.18,0,3-1.79,1.09-1.78-70.48.3-141,3.77-211.46.24-20-1-40-2.61-59.83-5-1.22-.15-3,1.55-1.09,1.79Z"/><path class="cls-2" d="M221.68,600.73q-4.63,19.35-9.8,38.56c-.35,1.28,2.45.24,2.8-.15l34.52-38.82-2.8.15a388.22,388.22,0,0,1-26.05,57.19c-.72,1.29,2.18.71,2.69.07l52-64.93-2.8.15-32.55,70.73c-.46,1,2.26.45,2.61.06q32.13-35.81,66.74-69.25l-2.61-.07-35.76,78.4c-.49,1.06,2.41.33,2.79-.15a694.78,694.78,0,0,1,70.27-75.57l-2.61-.06a267.16,267.16,0,0,1-32.57,70.38c-.77,1.19,2,.75,2.52.28l61.26-62-2.61-.06-28.52,63.7c-.45,1,2.26.45,2.61.06l67.89-75.55-2.62-.06a492.11,492.11,0,0,1-24.52,70.73c-.45,1,2.27.42,2.61.06a627.31,627.31,0,0,0,51.78-61.79l-2.8.14a328.68,328.68,0,0,1-25,55.47c-.73,1.28,2.19.67,2.7.06q26.61-31.78,50-66l-2.8.15a603,603,0,0,1-26.93,71.19c-.49,1.08,2.31.31,2.61.06l25.59-21.19-2.61.15a11.21,11.21,0,0,1-3.12,14c-1.29,1,1.59,1.07,2.33.49A12.34,12.34,0,0,0,462.61,642c-.44-.9-2.06-.31-2.62.15L434.41,663.3l2.61.06A603,603,0,0,0,464,592.17c.36-1.16-2.44-.38-2.8.14q-23.41,34.23-50,66.05l2.7.06A330.6,330.6,0,0,0,439,602.53c.4-1.15-2.43-.34-2.8.15a623.84,623.84,0,0,1-51.41,61.38l2.62.06A492.11,492.11,0,0,0,412,593.39c.3-1.13-2.25-.46-2.61-.06l-67.88,75.55,2.61.06,28.51-63.7c.46-1-2.27-.41-2.61-.06l-61.26,62,2.51.28A268.5,268.5,0,0,0,344,596.68c.35-1.16-2.27-.38-2.61-.07a699.57,699.57,0,0,0-70.64,76l2.8-.15,35.77-78.4c.47-1-2.28-.38-2.62-.06Q272.11,627.43,240,663.26l2.61.06,32.55-70.73c.49-1.06-2.42-.33-2.8.14l-52,64.93,2.69.07a389.51,389.51,0,0,0,26.26-57.62c.43-1.21-2.46-.24-2.8.15q-17.26,19.4-34.52,38.81l2.8-.15q5.16-19.2,9.79-38.55c.26-1.07-2.66-.64-2.89.36Z"/><path d="M544.62,220.77c134.17,66.3,286.59,139.51,409.89,201.7l-19,27.46c-1.51,2.18-4.51.57-6.9-.58Q728.22,353.14,524.36,264.41"/><path d="M543.47,221.48c105.93,52.34,212.33,103.7,318.26,156q37.78,18.66,75.45,37.54l8.13,4.08c2.24,1.13,6.71,2.2,6.73,4.92,0,1-2.75,4-3.35,4.85l-3.36,4.84L937.5,445c-1.75,2.52-2.42,4.82-6.52,4.19-1.49-.23-3.43-1.64-4.78-2.29l-10.65-5.1q-10.63-5.1-21.3-10.17-86.13-41-172.92-80.65-97.51-44.53-195.82-87.32c-.88-.38-3.52.89-2.3,1.42q90.18,39.25,179.71,80,90,40.93,179.26,83.34,12.44,5.91,24.86,11.85c7.51,3.59,15.16,8.31,23.05,11,5.12,1.72,6.83-1.4,9.55-5.32l16.22-23.42a.48.48,0,0,0-.2-.75c-105.82-53.36-212.54-104.93-319-157q-45.48-22.26-90.9-44.67c-.86-.43-3.51.82-2.3,1.42Z"/><path d="M452,175.44q34.64,17.46,69.4,34.69l17.52,8.68c1,.47,3.45,1.13,3.95,1.83,1.09.11,1,.67-.2,1.67l-.93,1.49c-1.67,2.74-3.29,5.51-4.82,8.33a170.56,170.56,0,0,0-13.61,33.43l2.91-.52c-1.56-3.88-8.09-5-11.73-6.61q-9.9-4.31-19.82-8.58-20.26-8.74-40.57-17.43l-18.33-7.82c-1.23-.52-3.06-.66-3.08-2.32,0-.7,2.37-3.71,2.75-4.33q2.52-4.09,4.84-8.32a154.91,154.91,0,0,0,14.31-35.11c.32-1.25-2.62-.87-2.92.28-4.55,17.42-12.76,33.7-22.65,48.67-.31.48.12.84.51,1q24.7,10.5,49.36,21.1,11.71,5,23.43,10.11l11.7,5.08c2.49,1.08,8.28,2.5,9.3,5,.47,1.18,2.62.45,2.91-.53a167.84,167.84,0,0,1,9.85-25.91q2.64-5.52,5.71-10.84c1.21-2.11,4.65-5.8,4.65-8.2a.64.64,0,0,0-.32-.64q-46-22.74-91.86-45.81c-1-.5-3.6.89-2.26,1.56Z"/><path class="cls-3" d="M220.85,216.27l31.8,3.6-27.81,12.6a78.17,78.17,0,0,1,14,36.08c-10.47-9.71-13.14-23.78-24.32-32.68-.24-.66,1.17-.7,1.27,0s-.58,1.25-1.17,1.64q-23.85,15.84-48.91,29.78a119.89,119.89,0,0,1,22.58-25.11l-23.42-19.42c-2.62-2.18-6.11-4.48-9.17-3A126.26,126.26,0,0,1,187.37,215l.46.15a199.19,199.19,0,0,1,14.52-33.54l20,34.09c.32.54.83,1.17,1.44,1s0-1.39-.33-.82"/><path d="M220.29,217.1l31.8,3.6,0-1.45-27.81,12.6c-.42.19-1.14.65-.76,1.19a80.49,80.49,0,0,1,13.95,35.9l2.79-1c-5-4.84-8.44-10.66-11.9-16.64a96.26,96.26,0,0,0-5.16-8.24c-.71-1-7.08-7.59-7-7.86l-2,1a14.62,14.62,0,0,1-3.63,2.91l-3.19,2.09c-2.14,1.38-4.28,2.76-6.43,4.12q-5.64,3.59-11.35,7.05-12.24,7.45-24.75,14.41l2.26.49a123.86,123.86,0,0,1,22.38-24.9c.2-.17.46-.59.18-.82l-20.49-17c-4-3.34-8.07-7.35-13.64-5.57-1.69.54-1.36,2,.4,1.49a129.71,129.71,0,0,1,16.2-3.47c4-.58,10.93-2.36,14.8-1.12a2.11,2.11,0,0,0,2.33-1,207.73,207.73,0,0,1,14.42-33.32l-2.69.54,12,20.44,6,10.23c1.11,1.88,1.71,4,3.9,4.64a2.36,2.36,0,0,0,2.24-.76c.36-.61.43-.67.12-1.33s-1.14-.47-1.65-.35l-.35.07c-1.76.39-1.35,1.88.4,1.49l.35-.08-1.65-.35.07.47,2.24-.76c-2.1-.59-3.9-5.76-5-7.59l-5.5-9.37L203.69,181c-.43-.74-2.37-.06-2.69.53a209.79,209.79,0,0,0-14.62,33.76l2.34-1c-3.93-1.26-10.33.32-14.32.83a133.53,133.53,0,0,0-18.85,3.87l.4,1.49c4-1.29,7.91,3,10.56,5.22l7.31,6.07c2.56,2.12,13.06,8.79,11.42,11.75-1.05,1.91-4,3.62-5.57,5.2q-3,3-5.8,6.17a128.29,128.29,0,0,0-9.46,12.3c-.81,1.19,1.87.7,2.26.48q14.58-8.13,28.81-16.9,6.9-4.26,13.71-8.68c2.59-1.68,7-3.35,8.1-6.46a.43.43,0,0,0-.11-.39,1.87,1.87,0,0,0-1.85-.72,2.15,2.15,0,0,0-2,1l-.2.45a.43.43,0,0,0,.11.4c10.69,8.93,14.4,23.07,24.32,32.67.64.62,2.94.13,2.79-1a81.25,81.25,0,0,0-14.15-36.27l-.77,1.19,27.8-12.6c.95-.43,1.21-1.31,0-1.45l-31.8-3.6c-1.14-.13-3.07,1.45-1.12,1.67Z"/><path class="cls-3" d="M306.92,1q7.27,8.81,14.61,17.55a3.48,3.48,0,0,0,1.85,1.38,3.41,3.41,0,0,0,2.24-.7L349.37,5.1l-5.29,16.84c-2,6.39-4,13.53-1.1,19.58,2.59,5.42,8.64,8.82,10.37,14.57a50.42,50.42,0,0,1-22.41-5.88c-1.33-.72-2.78-1.52-4.27-1.27-1.88.31-3.08,2.11-4.05,3.76l-8.9,15.11a62,62,0,0,1,1.45-28.56,87.39,87.39,0,0,0-25.61,2.85c5.13-5.67,18.52-5.51,20.72-12.83a14.41,14.41,0,0,0,.13-6.94C308.79,11.88,308.8,7.71,306.92,1"/><path d="M305.59,1.63q5.46,6.59,11,13.17c1.91,2.28,3.9,6.22,7.27,6s7.55-3.87,10.39-5.56l16.12-9.59-2.41-.46c-3,9.4-8.18,20.19-7.83,30.21.33,9.36,8.86,13,11.82,21l2-1.37a51.64,51.64,0,0,1-16.35-3.22c-3.06-1.18-7.27-4.5-10.9-3.9-2.59.44-4.05,2.53-5.37,4.58-3.16,4.91-5.95,10.09-8.91,15.12l2.83-.27a64.28,64.28,0,0,1,1.46-28.3c.14-.51-.55-.84-.94-.85a96.5,96.5,0,0,0-26.38,2.92l1.44,1.28c5.57-5.51,16.86-4.53,20.56-12.17,2.18-4.5.19-10.53-.42-15.15A109.8,109.8,0,0,0,308.37.62c-.34-1.23-3.23-.46-2.9.78a88.34,88.34,0,0,1,2.17,11.75c.68,5.24,3.61,13.78.06,18.26-4.49,5.66-14.1,5.14-19.34,10.32-1,1,.69,1.47,1.44,1.28a90.91,90.91,0,0,1,24.85-2.78l-.94-.85a65.87,65.87,0,0,0-1.44,28.82c.21,1.24,2.44.39,2.82-.27L321,57.86c.84-1.43,1.71-3.9,3-5,4.08-3.72,5.9-1.64,9.2-.18a53.38,53.38,0,0,0,19.64,4.43c.59,0,2.32-.4,2-1.37-2.91-7.9-11.45-11.66-11.74-20.79C342.74,25,347.9,14.29,350.84,5c.39-1.24-2-.71-2.41-.46l-11,6.57c-3.28,1.95-7.37,5.42-11,6.56-4.68,1.46-7-3.84-9.62-7Q312.5,5.53,308.25.4c-.77-.94-3.54.17-2.66,1.23Z"/><path class="cls-3" d="M350.85,276.16c-10.73,12.12-30.19,15.48-37,32.77a186.84,186.84,0,0,0,39-14,182.61,182.61,0,0,0-2.59,44.17l26.34-42.49a6.42,6.42,0,0,1,2.53-2.7c1.58-.71,3.39-.05,5,.54a68.81,68.81,0,0,0,37.89,2.71,524.65,524.65,0,0,0-45.68-28,100.1,100.1,0,0,0,23.28-30.48c-15.77,2.89-23.72,8.94-37.14,17.72-12.05-15.84-15.76-21.13-25.12-34.85,1.14,23.26,4.75,37.22,13.46,54.64"/><path d="M349.69,275.91c-11.58,12.59-30.19,16.3-37.24,33.2-.34.8,1.4.62,1.65.56a196.51,196.51,0,0,0,39.35-14.12l-2-.44a191.31,191.31,0,0,0-2.59,44.38c.06,1.06,2.5.14,2.8-.35l13.7-22.09,7.38-11.89,3.16-5.1c1.6-2.58,1.86-4.36,5-4.67,3.59-.36,7.28,1.55,10.82,2.35a71,71,0,0,0,9.82,1.5,73.87,73.87,0,0,0,20.77-1.33c.59-.12,1.8-.87.95-1.45q-19.84-13.57-40.82-25.35c-1.06-.59-3.53-1.35-3.6-2.85,0-.63,3-2.84,3.62-3.5a102.75,102.75,0,0,0,6.88-7.72A104,104,0,0,0,401,238.69c.38-.75-.59-1-1.16-.86-14.59,2.83-26,10-38.23,18.09l2.25-.12c-8.68-11.42-17-23-25.13-34.85-.55-.81-2.84,0-2.79,1,1,19.36,4.84,37.21,13.46,54.64.5,1,3.33.09,2.9-.77-8.62-17.43-12.45-35.29-13.46-54.64l-2.79,1q12.12,17.76,25.12,34.84c.44.58,1.79.17,2.25-.13,11.47-7.53,22.32-14.69,36-17.34l-1.16-.86a103,103,0,0,1-23.09,30.27c-.33.3-.42.73,0,1q23.52,12.89,45.68,28l1-1.45a67.9,67.9,0,0,1-28.42-.29c-4.71-1.07-11.75-5.64-16.33-1.87-2.41,2-3.9,5.65-5.52,8.26l-7.37,11.9-15.28,24.64,2.8-.35a189.29,189.29,0,0,1,2.59-44c.17-.95-1.6-.64-2-.44a193.25,193.25,0,0,1-38.6,13.87l1.65.56c6.82-16.35,25.43-20.11,36.67-32.34,1.15-1.25-1.66-1.23-2.33-.5Z"/><path class="cls-3" d="M232.23,85.82c15.6-1.54,27.85-7.06,43.46-8.6A280.88,280.88,0,0,1,241,96.85a138.19,138.19,0,0,0,22.62,34.87,277.77,277.77,0,0,1-33.81-37.1,257.29,257.29,0,0,1-22.34,26.76l11.76-28a3.43,3.43,0,0,0,.35-2.56c-.41-1-1.83-.92-2.67-1.6-4.16-3.39-14.8-9.4-26.38-15.81,16.09,2.62,36.66,7.85,36.66,7.85s1.9-21.53,18.56-35.62c-7.33,15-7.87,24.38-13.55,40.16"/><path d="M231.62,86.46c12.76-1.39,24.84-5.65,37.44-7.77.31,0,4-.66,4-.56s-4.31,2.76-4.58,2.93q-4.85,3-9.83,5.89c-6,3.44-12.2,6.64-18.46,9.65-.15.07-.72.37-.6.64a144.34,144.34,0,0,0,22.71,35l2.72-1A287.25,287.25,0,0,1,231.2,94.1c-.42-.55-2.35.13-2.68.59a270.67,270.67,0,0,1-22.34,26.76l2.75-.31L217,101.91c1.15-2.74,6-9.78,3.17-12.33-1.14-1-3.3-1.94-4.65-2.86-2-1.4-4.16-2.69-6.29-4-5.7-3.41-11.52-6.62-17.33-9.84l-2.29,1.16c12.24,2,24.38,4.75,36.41,7.79.66.17,2.54-.1,2.63-1,1.25-13.34,8.46-26.58,18.43-35.31l-2.75.31c-6.15,12.87-8.82,26.78-13.55,40.16-.23.66,2.59.33,2.87-.47,4.73-13.38,7.4-27.29,13.55-40.16.38-.81-2.48.07-2.76.31-10.2,8.92-17.41,22.33-18.69,35.93l2.63-1c-12.19-3.09-24.51-5.83-36.92-7.89-.38-.06-2.95.79-2.28,1.16,8.56,4.73,18.58,9.1,26,15.54,2.09,1.8,2.64,3,1.85,5.89s-2.49,5.93-3.68,8.75l-7.34,17.48c-.34.81,2.45,0,2.75-.3a270.67,270.67,0,0,0,22.34-26.76l-2.68.58a287.25,287.25,0,0,0,33.81,37.11c.56.51,3.27-.41,2.72-1a142.33,142.33,0,0,1-12.54-16.46q-2.83-4.36-5.34-9c-1.07-2-4.35-6.48-3.77-8.62s6.2-3.87,8.24-4.94q4.43-2.31,8.74-4.79,8.42-4.78,16.47-10.13c.71-.47.05-.81-.51-.74-14.75,1.61-28.72,7-43.46,8.59-.82.09-3.11,1.5-1.22,1.29Z"/><path class="cls-3" d="M328.86,152.57a107,107,0,0,1,5.24-20.85l2.28,23.19a279.54,279.54,0,0,0,34.38,5.85L336,165l17,25.19c-7.33-9.38-20.25-15.08-22.95-26.68L308,189.3l18.34-26c-7.44-.61-17.51,2.59-25-.11,1-3,6.59-3.78,9.69-4.49a74.89,74.89,0,0,0,17.87-6.18"/><path d="M330.31,152.4a116.91,116.91,0,0,1,5.24-20.84l-2.9.55,2.28,23.19c0,.24.39.4.58.44a299.66,299.66,0,0,0,34.7,5.9l.73-1.74-34.73,4.21c-.57.07-2.08.62-1.52,1.45l17,25.19,2.69-1.17c-7.33-9-19.65-14.62-22.85-26.48-.25-.95-2.19-.4-2.62.11L306.82,189l2.53.35,18.34-26c.41-.57-.35-.92-.81-.94a86.47,86.47,0,0,0-12,.66,42.69,42.69,0,0,1-8.53.19c-1.75-.19-3.78-.43-1.49-2.1.92-.67,2.61-.83,3.68-1.1,7.26-1.77,14.17-3.59,20.94-6.89,1.8-.88.16-2-1.18-1.32a81.11,81.11,0,0,1-18,6.16c-3.62.81-8.46,1.41-10.32,5.1-.24.47,0,.77.48.9,8.35,2.55,16.86-.27,25.36.16l-.81-.95-18.35,26c-.8,1.14,2,1,2.54.35l22.09-25.81-2.63.1c3.25,12.05,15.63,17.75,23.06,26.87.66.81,3.4-.1,2.69-1.17l-17-25.19-1.52,1.45,34.73-4.21c1-.12,2.57-1.54.72-1.75a286.24,286.24,0,0,1-28.37-4.53c-2.16-.46-4.27-.49-5.29-2.76-.88-2-.55-5.57-.76-7.73l-1.33-13.52c-.12-1.2-2.65-.17-2.9.55a115.22,115.22,0,0,0-5.24,20.84c-.19,1.22,2.74.74,2.9-.33Z"/></g></g></svg>