<svg xmlns="http://www.w3.org/2000/svg" viewBox="0 0 1030.91 519.73"><defs><style>.cls-1{fill:#6ceae6;}.cls-2{opacity:0.4;}</style></defs><title>Ресурс 3</title><g id="Слой_2" data-name="Слой 2"><g id="Слой_1-2" data-name="Слой 1"><path class="cls-1" d="M597,359.44C554,287.11,487,195.9,430.74,133.31L354.19,272.15c-12.71-5.67-19.12-11.77-42.14-20.77-43.84-17.14-88.86-31.15-134.27-43.52l-3.3,11.53A638.32,638.32,0,0,0,222,391.52l20.16,48.36c34.62,27,76.93,42.22,119.13,54.42,44.82,12.95,90.83,23.07,137.47,23.84s94.18-8.23,134.62-31.49l-9.88,9.75A1215.12,1215.12,0,0,0,761.31,241.24l-14.2,11.87a14.64,14.64,0,0,1,6.38-5.32c-46.85,47-96.72,82.86-156.51,111.65"/><path d="M175.13,207.62C184.94,251.21,207.58,291,237.4,324c28.67,31.76,64.19,58.91,102,78.87,21.53,11.37,44.17,20.34,67.16,28.27,1.76.6,5.1-1.94,2.54-2.83-40.05-13.8-77.9-31.53-112.08-56.77-35.6-26.3-67.35-57.57-89.94-95.9a240.43,240.43,0,0,1-27.6-69.16c-.43-1.91-4.79-.79-4.35,1.16Z"/><path d="M176.53,209.38c34.53,9.41,68.82,19.75,102.55,31.71,15.76,5.59,31.78,11.09,46.87,18.35,9.17,4.42,17.72,10,27,14.23,1.9.86,5-1.88,2.49-3-9.28-4.2-17.84-9.8-27-14.23-15.08-7.26-31.1-12.76-46.86-18.35-33.74-12-68-22.29-102.55-31.71-2-.54-5.13,2.31-2.49,3Z"/><path d="M307.63,375.9c1.54-15.74,7.76-29,15.49-42.58,8.83-15.54,17-31.44,25.51-47.17q28.06-52.09,57-103.69,16.08-28.65,32.42-57.14c.92-1.61-3.37-1-4,.06q-28.86,50.33-56.89,101.12c-18.94,34.33-36.81,69.31-56.1,103.44-8.44,14.94-16.06,29.19-17.76,46.58-.15,1.53,4.2.69,4.33-.62Z"/><path d="M428.69,134c49.43,55.12,94.17,114.85,135,176.57,10.74,16.24,21.16,32.69,31.12,49.42.58,1,4.62-.69,4.35-1.16-37.89-63.68-81.58-124.26-128.35-181.69q-18.51-22.71-38-44.57c-.67-.75-4.66.82-4.11,1.43Z"/><path d="M301.33,464.47c67.05-21,134.33-41.63,200.73-64.63,61.4-21.27,120.3-47.72,173.71-85.09a596.69,596.69,0,0,0,79.73-67c1.36-1.37-2.9-.7-3.32-.5a18.47,18.47,0,0,0-7.07,5.87c-1.06,1.43,3.24,1,4,0a14.73,14.73,0,0,1,5.69-4.78l-3.32-.49A590.11,590.11,0,0,1,602.3,356.28C542.13,386.92,477,406.46,412.93,427q-56,18-112.11,35.54c-2.52.78-2.08,2.7.51,1.89Z"/><path d="M172.3,220a643.18,643.18,0,0,0,28.12,121.64c6.48,19.23,14.24,37.86,22,56.58,4.49,10.78,8.13,22.17,14.08,32.27,7.49,12.68,19.4,21.87,31.23,30.26,1.65,1.18,5.4-1.11,3.33-2.59-10.86-7.7-21.84-16-29.17-27.33-6.21-9.59-9.77-20.72-14.08-31.23-7.32-17.88-14.93-35.56-21.26-53.83q-10.1-29.1-17.35-59.07a643.41,643.41,0,0,1-12.58-67.86c-.28-2.1-4.63-1-4.35,1.16Z"/><path d="M625.57,496.53A1220.09,1220.09,0,0,0,738.13,300.71q13.39-29.32,25.23-59.34c.84-2.12-3.5-1.77-4.09-.26a1218.93,1218.93,0,0,1-102,201.51q-17.18,27.3-35.78,53.65c-1.23,1.75,3.17,1.57,4.09.26Z"/><path d="M240.51,441.11c42.33,32.78,95.23,48.89,146.39,62,53.67,13.71,109.81,21.76,165,13,28.9-4.59,57-13.66,82.48-28.16,2.57-1.46.24-3.73-1.91-2.51-46.26,26.34-100.43,34.05-153,30.29-28.2-2-56.1-7.12-83.53-13.87a710.47,710.47,0,0,1-76.4-22.88c-26.94-10-52.89-22.66-75.67-40.3-1.49-1.16-5.32,1-3.36,2.47Z"/><path d="M909.21,1.25A524.3,524.3,0,0,1,797.74,181.88a520.45,520.45,0,0,1-44.51,41.82c-.22.19-.77.65-.35,1,16.62,12,38.79,7,56.32-.2a248.91,248.91,0,0,0,62.48-37.74c1.79-1.46-2.51-1.06-3.38-.35a253.18,253.18,0,0,1-36.15,24.76c-11.75,6.6-24.16,12.91-37.24,16.4a59.4,59.4,0,0,1-19.57,2.22,37.4,37.4,0,0,1-9.6-2c-2-.7-7.89-2.43-7.87-4.8,0-1.19,6.43-5.47,7.49-6.39q2.61-2.28,5.21-4.6,7.33-6.56,14.42-13.39A526.29,526.29,0,0,0,877.21,79.44,523.34,523.34,0,0,0,913.52.57c.38-1-3.86-.55-4.31.68Z"/><path d="M153.07,157.64c28.73,20.29,59.93,41.49,96.43,41.94.88,0,3.85-.8,2.83-2.2Q227,162.54,198.7,130c-17.3-19.85-37.88-42.88-32.6-71.39.34-1.8-4.06-1.12-4.36.48-5.12,27.64,13.63,50.57,30.58,70q29.53,33.8,56,70.08l2.83-2.21c-35.81-.44-66.48-21.61-94.64-41.5-1.26-.89-5.24.94-3.43,2.21Z"/><path d="M148.54,161.27c4.19,56.88,18.24,112.28,32.34,167.35l4.21-1.36a468.88,468.88,0,0,1-48.65-79.14c-13.4-27.65-26.9-58.06-24.31-89.48.07-.79-4.23-.26-4.34,1.16-2.64,32,11.34,63,25.09,91.1A472.72,472.72,0,0,0,181,328.81c.6.79,4.49-.26,4.21-1.36C171.13,272.38,157.07,217,152.89,160.1c-.08-1-4.45-.17-4.35,1.17Z"/><path d="M80.25,288.77C32.45,234.76,5.78,160,4.34,88.22A291.59,291.59,0,0,1,9.62,26.8c.28-1.44-4.07-.72-4.33.62-13.81,71.34,0,146.35,34.46,210,10.24,18.9,22.18,36.89,36.44,53,.9,1,5-.52,4.06-1.62Z"/><path d="M118.78,224.77A493,493,0,0,0,148.71,328.4l2.94-2.12c-30.36-3-42.66-38.41-52-62.63a455.91,455.91,0,0,1-23.31-84.11c-.35-1.94-4.71-.85-4.35,1.17a455.3,455.3,0,0,0,26,91c9.68,24,22.51,54.73,52.07,57.62.92.09,3.53-.67,2.94-2.12A493.74,493.74,0,0,1,123.12,223.6c-.33-1.94-4.69-.85-4.34,1.17Z"/><path d="M87.85,249.35a178.61,178.61,0,0,0,6.51,60.32l4.22-1.35C65.38,273.53,52,226,39.67,180.78c-.29-1.07-4.64.09-4.35,1.16,12.39,45.39,25.86,93,59.17,127.9.63.66,4.52-.28,4.22-1.34a178.08,178.08,0,0,1-6.51-60.32c0-.73-4.26-.2-4.35,1.17Z"/><path d="M859.21,198.36A911.93,911.93,0,0,1,739.12,310.79c-1.09.85,0,1.49.89,1.55,27.16,1.9,51.73-11.9,73.07-27.24,22.3-16,43.85-33.74,62-54.44a191.71,191.71,0,0,0,26.86-39.22l-4.19.25-.6,3.46c-.28,1.63,4.09.9,4.34-.56l.6-3.46c.3-1.72-3.71-.7-4.19.25-15,29.51-38.34,53.44-63.78,74.23-25.82,21.1-57,46.79-92.39,44.31l.88,1.55A916.71,916.71,0,0,0,863.25,198.42c1.21-1.36-3.12-1.09-4-.06Z"/><path d="M813.26,282.12c-11,14.41-23.82,27.38-35.3,41.45-1,1.26.3,2.09,1.56,2,32.67-2.78,58.64-20,82.33-41.55a388.5,388.5,0,0,0,39.38-41.74c5.84-7.15,11.52-14.46,16.72-22.1,2.7-4,5.6-7.92,8.08-12,.75-1.24,2.53-5.71,2.8-5.86l-3.58-.28a6.39,6.39,0,0,1-.16,1.8c-.28,2,4.14,1.37,4.38-.41a6.65,6.65,0,0,0,.12-2.55c-.37-1.5-2.75-.76-3.58-.29-1.45.84-2,3.19-2.65,4.59a74.91,74.91,0,0,1-5.51,8.66c-5.3,7.94-10.83,15.66-16.77,23.13a397.3,397.3,0,0,1-36.83,40.43c-23.94,22.8-50.31,42.41-84.26,45.29l1.55,2c11.49-14.07,24.25-27,35.31-41.45,1.63-2.14-2.49-2.5-3.59-1.07Z"/><path d="M869.68,268.42l-43,51.22c-1.09,1.29.34,2,1.54,1.92,28.71-1,52.94-18.43,73-37.6,16.83-16.09,34.21-32.7,48.07-51.49,8.36-11.32,15.41-23.54,22.26-35.81,1.1-2-3.29-1.77-4.11-.3-10.55,18.9-21.83,37-36.57,52.93-7.9,8.55-16.22,16.71-24.42,25-10.07,10.11-20.38,20-32.18,28.06-13.62,9.32-28.88,15.86-45.54,16.44l1.54,1.92,43-51.23c1.72-2-2.45-2.34-3.56-1Z"/><path d="M906.66,274a69,69,0,0,0-7.41,27.52c-.07,1.3,1.64,1.55,2.58,1.24,9.57-3.21,17-9.51,24.39-16.22,8.61-7.86,17.28-15.67,25.53-23.9a226.11,226.11,0,0,0,38.19-50.36c20-36,30.53-76.81,34.88-117.61,1.27-12,2-24,2.28-36,.34-14.06.41-28.13,3.78-41.87.48-2-3.73-1.46-4.27,0L1024.67,22c-.85,2.29,3.5,2.15,4.14.43l1.94-5.19-4.27,0c-5.29,21.61-3.27,44.43-5,66.48a375.39,375.39,0,0,1-9.34,59.54c-9.47,38.74-26.28,76.15-52.74,106.31-8.49,9.69-17.9,18.51-27.38,27.22-9.32,8.55-18.65,19.06-31,23.18l2.58,1.23a66.81,66.81,0,0,1,7.15-26.72c1.09-2.14-3.3-2.07-4.13-.43Z"/><path d="M429.72,137.91c3,18.34,2.51,36.92,2.35,55.43-.17,19,.65,38,1,57,.62,37.08.57,74.15-.8,111.21-.71,19.32-1.45,38.69-.44,58l4.36-.78c-.34-2.89-.75-5.78-1-8.68-.14-1.82-4.5-.81-4.34,1.17.22,2.9.63,5.79,1,8.68.2,1.74,4.45.84,4.36-.78-1.82-34.94,1.31-70,1.58-105,.3-38.89-1.49-77.75-1.32-116.63.08-20.31.92-40.73-2.36-60.86-.31-1.86-4.67-.79-4.35,1.16Z"/><path d="M543.82,383c-10.9,48.57-36.35,92.69-61.22,135.27-.35.59,3.64.37,4.29-.75,24.87-42.57,50.32-86.7,61.23-135.27.22-1-4-.37-4.3.75Z"/><path d="M425.45,146.74q-15.51,107.28-27.91,215-3.51,30.36-6.76,60.75c-.23,2.12,4.19,1.47,4.39-.38q11.54-107.78,26.19-215.21,4.11-30.28,8.48-60.53c.31-2.08-4.12-1.46-4.39.38Z"/><path d="M773.24,229.51c6.49-2.86,10.35-9.26,13.28-15.47,1.56-3.3,6.27-13.59.8-15.25-1.41-.43-5.09,1.65-2.65,2.39,3,.93-2.33,13-2.93,14.22-2.33,4.57-5.35,10.12-10.23,12.27-2.77,1.22-.25,2.71,1.73,1.84Z"/><path d="M768.15,287.28a19.72,19.72,0,0,1,11.43,14.25c.3,1.42,4.66.35,4.35-1.16a21.17,21.17,0,0,0-12.31-15.15c-1.24-.54-5.22,1.29-3.47,2.06Z"/><path d="M796.33,305.23a17.82,17.82,0,0,1,14,11.85c.36,1,4.66-.28,4.35-1.17a18.79,18.79,0,0,0-14.78-12.37,5,5,0,0,0-3,.56c-.29.17-1.56,1-.53,1.13Z"/><path d="M845.39,302.1c6.43.58,11.47,5.93,12.54,12.13.26,1.51,4.62.47,4.34-1.16-1.3-7.57-7.72-12.81-15.2-13.48-1.71-.16-4.61,2.25-1.68,2.51Z"/><path d="M913.32,271.24a17.24,17.24,0,0,1,9.2,17.2c-.17,1.54,4.18.71,4.32-.61a18.36,18.36,0,0,0-10-18.56c-1.13-.58-5.14,1.13-3.49,2Z"/><path d="M215.5,162.05a42.8,42.8,0,0,0-2.83,30.55c.48,1.76,4.83.59,4.34-1.17a40.79,40.79,0,0,1,2.59-29.09c1-2.05-3.37-1.8-4.1-.29Z"/><path d="M154.35,278.6c1.71-4.46,6.26-7.24,11-5.63a3.63,3.63,0,0,0,3.07-.42c.45-.31,1.43-1.28.4-1.64-7.18-2.46-16,1-18.77,8.25-.52,1.36,3.8.85,4.34-.56Z"/><path d="M119,302.11c-.08-5.35,4.37-11.6,10.26-10.46a4.81,4.81,0,0,0,3-.55c.32-.18,1.53-1,.53-1.14-8.3-1.62-18.31,4.21-18.18,13.31,0,.73,4.36.09,4.35-1.16Z"/><path d="M73.85,269.15c-.55-5,3.72-10.08,8.9-9.31,2,.3,4.46-2.58,1.55-3-7.77-1.15-15.68,5.46-14.8,13.49.2,1.86,4.56.83,4.35-1.17Z"/><g class="cls-2"><path d="M305.47,376.21h0l48.72-104.06c-12.71-5.67-19.12-11.77-42.14-20.77-43.84-17.14-88.86-31.15-134.27-43.52l-.48-.82C190,264.5,225.62,315.29,270.65,353.18Z"/></g></g></g></svg>