<svg xmlns="http://www.w3.org/2000/svg" viewBox="0 0 782.12 796.54"><defs><style>.cls-1{fill:#6ea2ff;}.cls-2{fill:#fff;}.cls-3{fill:#ff4e1f;}</style></defs><title>Site_rez</title><g id="Слой_2" data-name="Слой 2"><g id="Слой_1-2" data-name="Слой 1"><path class="cls-1" d="M484.83,26.15c-13.48,41.38-27.1,83.57-27.44,127.1-.59,74.91,38.18,148.92,22.71,222.21-3.45,16.32-9.51,32-15.55,47.51l-11,28.29c-.71,1.84-2.07,4.06-4,3.64s.44-4.11.94-2.2l-.94,2.2c-22.06-9.21-29.84-6.33-47.15-22.83s-30-38.92-30.71-62.82c-.44-14.38,3.37-28.54,4.28-42.89a107.55,107.55,0,0,0-15-61.7c-6.76-11.24-15.54-21.18-22.2-32.48s-11.15-24.75-8.14-37.52l1.13.12c-6.23-17.24-.89-36.65,7.85-52.77,20.31-37.48,57.05-62.83,93.29-85.29,20.46-12.67,41.19-24.89,61.92-37.11"/><path d="M483.39,26.37c-9.38,28.8-18.79,57.77-23.82,87.71-4.79,28.52-4.29,56.92.15,85.45C468.32,254.79,489,310.44,480.24,367c-2.54,16.39-7.9,32.07-13.79,47.51-2.9,7.62-5.88,15.2-8.83,22.8-1.6,4.12-3.09,8.31-4.81,12.38l-.69,1.77q-.3,3-1.72,1.56c-1.65,1-1.45.14-2.28,2.07l2.61-.85c-14.44-5.93-30-8.26-42.26-18.51-15.32-12.75-27.57-30.34-32.75-49.69-5.81-21.73,1.42-42.64,1.89-64.44a108.09,108.09,0,0,0-17.08-60.38c-12.95-20.19-34-40.52-28.46-66.8l-2.35.92,1.13.12c.44.05,2.64-.27,2.36-1.08-10.61-31.28,11.8-64.22,32.52-85.82,22-23,49.36-40.14,76.35-56.66,17.75-10.86,35.68-21.42,53.61-32,1.67-1-.92-1.12-1.74-.64-30.6,18-61.73,35.63-90.87,56-25.39,17.72-49.44,38.78-64.52,66.25-8.92,16.24-14.4,35.51-8.25,53.65l2.36-1.08-1.13-.13c-.58-.06-2.19.15-2.35.91-4.58,21.8,9.35,40.39,21.4,57,13.61,18.78,22.75,39.27,24,62.69,1.22,22.73-7.48,45-2.85,67.66,3.95,19.36,15.13,36.87,29.32,50.38,6.17,5.89,13,10.84,21,13.89,8.69,3.31,17.72,5.5,26.34,9.05a2.44,2.44,0,0,0,2.61-.86c.42-1,1.23-1.92.64-2.87a.86.86,0,0,0-.86-.32c-1.4.09-4.46,1.45-3.25,3.44,1.05,1.72,4.34.28,5.4-.63,2.1-1.82,2.84-5.22,3.79-7.67l4.81-12.38c2.94-7.58,5.92-15.15,8.79-22.75,5.61-14.88,10.57-30,12.93-45.78a201.47,201.47,0,0,0,1.29-44.45c-4.64-63-30.55-123.2-24.77-187.08,3.37-37.18,15-72.95,26.5-108.26.27-.8-2.59-.43-2.88.44Z"/><path class="cls-1" d="M676,28.09c54.22,27.78,56.7,80.84,80.47,109.59,11.09,13.42,24,27.63,24.22,45a689.12,689.12,0,0,1-36.79,153.17c-8.83,24-19.11,47.79-23.36,73-1.61,9.58-3.91,21.32-13.19,24.21-6,1.88-12.66-1.24-16.74-6s-6.11-10.93-8-16.94c-4.28-14-8.63-30.29-11.84-44.56l.06-44.92s1.76,4,4.25,15.92,2.9,19.12,5.84,22a28.76,28.76,0,0,0,5.86,4.49s7.95-13.69,9.48-17.09,1.52-4.53,3.85-7.39,8.39-9.09,10.32-21.27,4.8-44.57,5.29-62.73,1.41-60.95,2.34-74,3-35,2.85-46.47S719.74,90,717.53,79.86,685.79,35.8,676,28.09"/><path d="M674.65,28.58A112,112,0,0,1,716,65.43c8.8,13,15,27.47,21.47,41.74,2.89,6.39,5.85,12.76,9.34,18.85,3.79,6.62,8.47,12.34,13.31,18.21,6.68,8.11,13.44,16.68,16.9,26.75,3.75,10.89,1,22-.65,33.08A703,703,0,0,1,738.54,346.7c-4.32,11.4-8.72,22.78-12.41,34.41-3.48,11-5.62,22-8,33.22-.87,4.22-2,8.54-4.18,12.28-4.18,7-12.52,7.79-18.81,3-8.65-6.53-11-19.16-13.79-29q-2.74-9.54-5.21-19.17c-1.33-5.21-3.45-10.95-3.91-16.32-.36-4,0-8.27,0-12.32l.05-32.53-2.89.77c3,7.11,4.19,15.31,5.58,22.83,1.58,8.61,2.23,15.1,10.44,19.72a3,3,0,0,0,2.8-.75q3.08-5.31,6.07-10.67c2.48-4.47,4.14-9.81,7.26-13.82,3.34-4.29,6.45-8.34,8.34-13.54s2.49-10.87,3.14-16.39c3.11-26.49,4.11-53,4.8-79.64.66-25.79,2.15-51.34,3.85-77.06a341.1,341.1,0,0,0,.14-36.6c-.46-11.48-.26-23.78-2.76-35.06-.9-4.08-3.32-7.69-5.61-11.11-3.7-5.52-7.82-10.75-12-15.87-7.35-8.89-15-18.26-24.07-25.52-.59-.48-3.11.66-2.73,1,7.9,6.36,14.68,14.42,21.22,22.13,6.88,8.1,14.74,16.84,19.16,26.62,1.6,3.54,1.85,7.55,2.24,11.37.61,6,1,12.13,1.29,18.2.6,11.57,1.28,23.24.86,34.82-.51,13.92-2.09,27.76-2.9,41.66-.69,11.8-.93,23.64-1.26,35.46-.72,26.42-1.32,52.73-3.88,79-1.33,13.71-1.93,27.86-11,39-3.48,4.3-5.28,9.16-7.91,14-2.31,4.21-4.7,8.38-7.1,12.54l2.79-.75c-3.16-1.78-6.3-4.16-7.66-7.6-1.68-4.23-2.09-9.09-2.92-13.54-1.32-7-2.47-14.6-5.29-21.21-.25-.61-2.89.12-2.89.77l-.05,30.25c0,4.61-.39,9.39,0,14,.74,9.36,4.45,19.28,6.94,28.33,3.84,14,9.65,46.6,31.34,39.84,7.24-2.26,10.63-8.89,12.47-15.8,3-11.41,4.53-23.09,8-34.45,7.64-24.94,18.21-48.89,26.17-73.74A696.37,696.37,0,0,0,774,233.61q3.56-17.82,6.16-35.81c.82-5.7,2.38-12.06,1.92-17.82a43.33,43.33,0,0,0-4.46-15.49c-4.94-10.13-12.6-18.53-19.64-27.2a101.29,101.29,0,0,1-11.43-18c-8.25-16.15-14.44-33.27-23.88-48.82a114.45,114.45,0,0,0-45.24-42.81c-.73-.38-3,.82-2.73,1Z"/><path d="M491.27,22c6.31-2.92,12.62-5.81,19.1-8.34,3.91-1.52,7.82-3,11.72-4.55,7.18-2.82,14.32-6.75,22.09-7.12.55,0,3.23-1.15,1.91-1.08-12.14.58-23.45,7.11-34.64,11.44-7.4,2.87-14.62,6.06-21.82,9.39-1.72.8,1,.55,1.64.26Z"/><path d="M484.59,274.42a33.82,33.82,0,0,1,2.63-19c2-4.15,5.72-7.25,10.46-5.19,3.36,1.46,6.11,4.35,8.37,7.11,7.36,9,13.12,19.39,17.95,29.91a316.81,316.81,0,0,1,13,34.5c3.26,10,6.9,20.78,15.75,27.32,16.42,12.11,36.07-3.71,49.58-13.18,17.9-12.55,33.27-28,43.18-47.69,11.17-22.15,16.82-46.7,22.21-70.76.12-.53-2.7-.15-2.85.53-4.77,21.31-9.78,42.8-18.52,62.89-9.18,21.11-23.5,38.13-41.9,51.88-4.38,3.28-8.92,6.35-13.54,9.27-7.28,4.6-16.47,11.59-25.5,10.4-11.89-1.57-18.9-13.15-22.75-23.33-8.51-22.51-14.68-45.33-28.48-65.47-4.87-7.12-12.24-18.19-22.38-14.72-9.84,3.37-11.15,17.61-10.06,26.26.06.48,3-.08,2.89-.77Z"/><path d="M663.77,218.55c4,21.23,5.76,42.76,8.59,64.16,1.39,10.48,3,20.94,5.36,31.26,1.13,5,2.41,9.94,3.89,14.83s2.66,10.73,5.29,15,8.14,0,10.91-2.09c7.27-5.44,11.42-13.84,13.62-22.46,2.49-9.73,3.16-20,4-30,.88-10.91,1.4-21.85,1.78-32.79.75-22.06.88-44.15,1.89-66.21,1-21.56,3.76-42.94,3.28-64.56-.24-11.21-1-22.4-2-33.56-.45-4.73-.22-10.56-2.39-14.82a113.65,113.65,0,0,0-7.44-12.4C699.82,49.44,686,36.54,673,23.15c-3.6-3.7-7.15-7.45-10.59-11.31-3-3.39-5.82-7.66-10.23-9.32s-10-1.26-14.77-1.47q-9.91-.44-19.85-.7-38.88-1-77.76.79c-.79,0-3.15,1.27-1.25,1.19q33.58-1.53,67.21-1,15.88.27,31.76,1c5.21.24,11-.19,15.32,3.09,3.25,2.44,5.75,6.22,8.47,9.22,12,13.28,25.41,25.32,37,39a132.39,132.39,0,0,1,15.55,22.26c4.47,8.26,3.84,19.69,4.51,29a365.45,365.45,0,0,1-.55,60.19c-1.87,20.22-2.31,40.56-2.77,60.85s-.84,40.9-2.37,61.29c-1.35,18-1.29,42.68-17.44,54.55-3.32,2.45-4.85,2.81-6.34-.92-1.12-2.8-2.12-5.66-3.06-8.52-1.69-5.14-3.15-10.36-4.42-15.62-2.55-10.57-4.34-21.31-5.82-32.07-3-22.28-4.83-44.74-9-66.87-.12-.61-3,0-2.9.78Z"/><path d="M566,354c4.78,4.09,9.78,7.84,16.29,8s13-2.69,18.64-5.88c13.47-7.58,24.69-18.29,36.25-28.4,5.8-5.07,13.57-13.73,21.72-14.3,9.84-.68,12.67,13.18,14.17,20.44,1.39,6.75,2.36,13.73,4.31,20.35a14.68,14.68,0,0,0,8.62,9.92,2,2,0,0,0,2.22-.81c4.61-7.32,9.39-15.18,12.11-23.43.52-1.56-2.37-1.48-2.76-.3-2.73,8.25-7.51,16.11-12.11,23.43l2.22-.8c-6.92-3.21-7.62-9.63-9.09-16.32-1.63-7.43-2.53-15.22-5.19-22.37-1.72-4.63-4.29-9.85-9.27-11.6s-10.37.45-14.59,3.07c-12.77,7.92-23.11,19.91-34.87,29.2-6.48,5.12-13.44,10.1-21.09,13.33-5,2.09-10.68,3.44-15.87,1.36-3.54-1.42-6.61-4.08-9.47-6.52-.94-.81-3.49.57-2.24,1.64Z"/><path d="M505.53,119.44a154.32,154.32,0,0,1,18.86-10.89c6.09-2.94,13.51-7,20.21-8,4-.6,6.53.2,9.23,2.88,1.14,1.12,2.19,2.34,3.28,3.51l7.22,7.73,15.75,16.87c.88.94,3.63-.22,2.65-1.26l-19.68-21.09c-3.86-4.13-8.53-11.83-15.08-11.44-7.31.42-16,5-22.45,8a157.92,157.92,0,0,0-21.9,12.41c-1.63,1.09.75,2.07,1.91,1.29Z"/><path d="M502.56,120c8.93,7,22,15.81,34,15,5.72-.4,10.64-3.43,16-5a38.84,38.84,0,0,1,24.58,1.22c1,.39,3.39-1.11,1.74-1.73-10.92-4.07-21.89-3.31-32.59,1-4.52,1.8-8.86,3.3-13.82,2.39A45,45,0,0,1,522,129.12a87.22,87.22,0,0,1-17.12-10.59c-.84-.67-3.47.57-2.27,1.51Z"/><path d="M654.58,109.9a87.78,87.78,0,0,1,11.18-10.63c4.18-3.3,9.69-7.78,15-8.88,7.13-1.47,10.24,3.15,15.6,6.51a37.48,37.48,0,0,0,5.41,2.81c.75.32,9,2.63,6.51,4.94-1.19,1.12,1.66,1,2.3.38,4.71-4.41-6.57-6.58-8.78-7.7-5.73-2.89-10-9-16.89-8.93-6.09.1-11.69,3.57-16.56,6.88A89.6,89.6,0,0,0,651.9,109.9c-.77.87,2.1.65,2.68,0Z"/><path d="M653.71,111.39a52.32,52.32,0,0,1,19.07,3.3c4.73,1.76,9.43,3.92,14.54,4.21a18,18,0,0,0,9.63-2c4-2.24,7.33-11.2,12.07-10.89,1.26.08,3-1.76,1.06-1.89a9.07,9.07,0,0,0-7.21,2.56c-1.57,1.5-2.52,3.46-3.75,5.22a11.93,11.93,0,0,1-11.47,5c-5.85-.57-11.1-3.52-16.64-5.23a52.48,52.48,0,0,0-16.24-2.21c-1.23,0-3,1.91-1.06,1.88Z"/><path d="M522.75,112.86c.8,6.23,6.65,10.65,12.62,12.64a21.14,21.14,0,0,0,10.14,1.08,12.18,12.18,0,0,0,8.43-5.36c2.12-3.47,1.9-7.83,1.62-11.89"/><path d="M670.17,99.58a12.4,12.4,0,0,0,16.14,14,9.87,9.87,0,0,0,3.65-2.13,11.73,11.73,0,0,0,2.56-3.92A21.56,21.56,0,0,0,694.16,97"/><path d="M657.13,80.32C661.9,73,669.29,63.11,679,68.87c3.12,1.84,6.16,3.76,9.34,5.51C695,78,704.17,81.62,708.94,87.76c.54.69,3.11-.5,2.9-.78-3-3.88-8-6.37-12.13-8.78-5.09-2.94-10.39-5.55-15.4-8.65s-9.46-5.29-15.27-3.07c-6.49,2.48-11.12,8.74-14.77,14.35-.19.3,2.4.2,2.86-.51Z"/><path d="M503.89,92.78c5.69-5.64,12.71-10.18,19.27-14.73,3.05-2.12,6.15-4.17,9.36-6s9-5.84,13-4.8c2.47.63,4.95,3,6.87,4.55,3.07,2.48,6,5.17,8.78,7.91,4.24,4.12,8.9,8.41,12.2,13.36.66,1,3.44-.06,2.66-1.23-4-6-9.83-11.23-15.08-16.11C557,72.08,551.27,65.49,545.58,65,538,64.45,528.84,71.7,523,75.71c-7.34,5-15.13,10.07-21.46,16.34-1.26,1.25,1.55,1.57,2.39.73Z"/><path d="M652.93,265a19.77,19.77,0,0,0,8.1,2.41c3.57.21,7.11-1.24,10.61-.56,1.43.28,2.93-1.74,1-2.11a19.26,19.26,0,0,0-6.89.29,16.48,16.48,0,0,1-10.6-1.71c-1.12-.58-3.65.93-2.23,1.68Z"/><path d="M665.75,466.77c3.88-24.53,5-49.58,5.89-74.36.86-24.41,1.39-49-.25-73.4-.06-.95-3-.34-2.89.77,1.66,24.74,1.09,49.68.19,74.44-.9,24.3-2,48.86-5.84,72.91-.18,1.13,2.74.64,2.9-.36Z"/><path d="M662.85,467.34C671.4,505,683.54,541.58,692.79,579c9.81,39.66,12.34,80.32,12.36,121.08,0,28.07-1.21,56.13-2.42,84.17-.05,1.05,2.84.43,2.88-.41,2.08-48,4.18-96.26.14-144.26-3-35.75-12-69.75-21.88-104.11-6.6-22.83-12.85-45.74-18.12-68.93-.2-.87-3.1-.14-2.9.78Z"/><path d="M395.36,428.73c-9.17,40.45-38.35,71.73-57.26,107.62-.69,1.31,2.22,1.13,2.73.17,19-36.06,48.23-67.47,57.44-108.1.28-1.22-2.66-.8-2.91.31Z"/><path d="M376.33,690.37c-1,4.34-4.89,7.35-8.59,9.84a159.39,159.39,0,0,1-18.14,10.57l0-.41a30.14,30.14,0,0,1-26.72-21.61l.5-1c3.62-.79,6.94-2.59,10.47-3.74,5.84-1.9,12.1-2,18.25-2.07,8.59-.11,18,0,24.63,5.45.37.29-.18,1.07-.11.6"/><path d="M348.63,711.07c1.56,16.6,12,27,27.41,32.41,5.3,1.86,11.43,4,17,2.23,5.17-1.66,8.29-6.24,11-10.63.25-.41-2.4-.27-2.87.48a33.64,33.64,0,0,1-5,6.75c-3.42,3.27-7.85,2.88-12.07,1.74a60.74,60.74,0,0,1-16.34-6.71c-10-6.22-15.17-15.43-16.26-27-.06-.62-3-.07-2.9.77Z"/><path d="M347.77,712.93a40.66,40.66,0,0,1-14.22,30.81,38.57,38.57,0,0,1-17.86,8.33c-1.78.31-13.6,2.25-14.74.07-.47-.9-3.27.07-2.9.78,1.83,3.5,9.13,1.36,12.11,1.14A45.89,45.89,0,0,0,329,748.71a41.85,41.85,0,0,0,21.64-36.55c0-.76-2.88-.27-2.89.77Z"/><path d="M284.53,658.4c0,10.26,1.22,25.69,11,31.88,7.84,5,16.28-7.11,17.42-13.8,1.57-9.21-2.32-24.39-12.46-27.28-12.19-3.47-16.46,10.56-17.22,19.68-.13,1.57,2.83,1.22,2.94-.18.39-4.61.76-9.7,3.61-13.56,4-5.45,10.63-4.85,14.76-.14,4.58,5.24,7.23,17,4.95,23.6a19.81,19.81,0,0,1-6.56,9c-5.74,3.95-10.16-4-12-8.31-2.87-6.61-3.46-13.94-3.45-21.06,0-1.58-3-1.21-3,.19Z"/><path d="M385.6,652.11a47,47,0,0,0,1.83,18.23c1.41,4.5,3.81,11.42,8.12,14.06,8.64,5.29,16-10.67,17.31-16.8,2.07-9.74-2.78-21-13-23.74-9.31-2.45-13.89,3.89-15.28,12.32-.15.93,2.74.42,2.88-.43.49-3,1.06-6.9,3.26-9.18,4.34-4.49,11.58.09,14.65,3.42,5.13,5.55,6.24,13.34,4,20.41A27.3,27.3,0,0,1,403.44,681c-3.24,3.38-4.78,3.43-7.49.19a27.26,27.26,0,0,1-3.18-5.41,45.74,45.74,0,0,1-4.29-24.05c.09-1-2.81-.4-2.88.43Z"/><path d="M334.38,745.47c3.77-1.3,7.09,2.62,10.17,4A16.69,16.69,0,0,0,351.1,751a20.13,20.13,0,0,0,10.75-2.9l-2.56.36c.39,9.41-8.76,14.67-10.88,23.26-1.06,4.31-.53,8.86-1.92,13.11-1.51,4.64-5.8,11.71-11.39,8.68-3.48-1.88-6.37-8.23-7.75-11.79a31.21,31.21,0,0,1-2.23-11.91A44,44,0,0,1,333,746.55c.18-.26-2.37-.18-2.85.52-5.51,7.93-9.09,18.79-7.56,28.5a34,34,0,0,0,6.54,15.23c2,2.61,4.28,5.71,7.85,5.44,7.94-.6,12.52-10,13.34-16.81.43-3.55.38-7.18,1.69-10.56a32,32,0,0,1,4.36-7.22c3.14-4.29,6.06-8.46,5.83-14,0-.64-2.31.21-2.56.36-2.05,1.19-7.46,1.89-9.87,1.37a13.62,13.62,0,0,1-4.32-1.9,28.29,28.29,0,0,0-4.75-2.79,9.85,9.85,0,0,0-7.3.13c-1.95.68-.11,1,1,.63Z"/><path d="M348.63,771.64c.89,4.55,6.12,7.44,10.35,8.24,5.45,1,10.59-1.79,15-4.69,10.47-6.9,17.48-16.67,15.82-29.79-.16-1.29-3.07-.58-2.9.78A26.52,26.52,0,0,1,377.48,770c-3.68,3.06-8.35,6.71-13.1,7.76s-11.83-1.66-12.85-6.86c-.26-1.3-3.16-.56-2.9.78Z"/><path d="M358.11,757.15c7.69,4.61,18.44-6.7,22.8-12,1.15-1.4-1.61-1.76-2.41-.79-2.91,3.56-12.66,14.49-18.14,11.21-1-.62-3.61.81-2.25,1.62Z"/><path d="M402.56,694.58c10.68-.7,19.84,8,22.16,18a30.85,30.85,0,0,1-.65,15.38c-1.39,4.85-4.94,14.25-10.31,16.1-1.91.66-.17,1.7,1.16,1.24,5.12-1.76,8.08-7.82,10.13-12.43,2.92-6.57,4.2-14,2.56-21.07-2.62-11.34-13-19.68-24.66-18.91-1.45.09-2.4,1.78-.39,1.65Z"/><path d="M283,693.46c-10.66,7.78-19,15.33-18.67,29.37.45,16.76,6.33,36.15,24.68,40.49,1.08.25,3.43-1.36,1.73-1.76-17.91-4.23-23.41-23.94-23.51-40.17-.08-12.83,7.89-19.74,17.63-26.85,1.58-1.16-.83-1.84-1.86-1.08Z"/><path d="M388,631.25c3.14-5.77,6.66-11.51,14.64-9.77,4.92,1.08,8.71,4.76,12.14,8.21.64.65,3.37-.41,2.7-1.08-5.39-5.42-12.1-10.61-20.22-8.7-6.08,1.44-9.34,6.6-12.14,11.75-.37.67,2.42.43,2.88-.41Z"/><path d="M309.38,620c-5-4.08-10.47-6.77-16.48-3.06-6.76,4.16-10.62,12.44-11.81,20-.16,1,2.75.49,2.89-.41a30.67,30.67,0,0,1,4.86-12.8c1.31-1.92,3-4.32,5-5.5,5.59-3.26,9.12-.21,12.86,2.85.73.59,3.39-.53,2.7-1.09Z"/><path d="M270.7,599.39c-8.46,2.14-16.4-4.24-22.81-8.91a181.85,181.85,0,0,1-17.54-14.64,2,2,0,0,0-2.7.5c-2.66,5.83-.69,13.23.33,19.24a170,170,0,0,0,6,24c.38,1.19,3.27.39,2.89-.77a171.79,171.79,0,0,1-5.33-20.43c-1.24-6.45-4-15.66-1.14-21.87l-2.71.51a182.26,182.26,0,0,0,22.47,18.16c6.36,4.32,13.2,7.89,21,5.91,1.78-.45,1.31-2.19-.46-1.74Z"/><path d="M457.36,598.1A227.63,227.63,0,0,1,477,583q4.42-3,9-5.87,2.91-1.8,5.88-3.51c2.62-1.5,4-2.71,5.38,1.13,1.07,3.09.95,7.53,1.09,10.76a70.63,70.63,0,0,1-.34,11.45,47.08,47.08,0,0,1-6.85,19.83c-.29.45,2.39.29,2.87-.47,4.77-7.54,6.87-16.07,7.25-24.93a87.84,87.84,0,0,0-.67-14.13c-.33-2.66-.06-6.77-3.5-7.08-2.36-.22-5.13,1.87-6.94,2.91q-6,3.44-11.7,7.2a232.73,232.73,0,0,0-23.71,18c-.69.59,2.06.37,2.64-.13Z"/><path d="M396.63,656.74a12.77,12.77,0,0,0,.82,13.59,2.87,2.87,0,0,0,2.43,1.47,2.6,2.6,0,0,0,1.32-.71c2.37-2.1,3-5.66,2.32-8.75a19.64,19.64,0,0,0-4.66-8.17c-.49-.58-1.15-1.19-1.88-1s-1.12,1.1-1.28,1.89a30.35,30.35,0,0,0,0,12"/><path d="M395.2,657a13.48,13.48,0,0,0-1.37,8.7c.45,2.34,1.77,6,4.39,6.61,4,.91,6.75-3.82,7-7.17.26-3.66-3.11-13.21-8-12.55-5.44.74-3.59,11.44-3,14.85.11.63,3,0,2.9-.77a32.62,32.62,0,0,1-.6-6.68c0-1.77-.27-5.71,1.52-6.79l-2.3.52c2.85.66,5.12,5.25,6,7.88.76,2.34,1.08,5.57-.41,7.69-2.43,3.49-4.22-2.32-4.61-4.37a13.06,13.06,0,0,1,1.33-8.41c.23-.45-2.48-.26-2.86.49Z"/><path d="M294.23,661.23c.36,5.79.86,12,4.43,16.55.7.91,1.88,1.8,2.9,1.26a2.57,2.57,0,0,0,1-1.56,16.38,16.38,0,0,0-4.35-16.61,2.1,2.1,0,0,0-1.55-.75,2.13,2.13,0,0,0-1.41,1.22A16.58,16.58,0,0,0,293,670"/><path d="M292.78,661.62c.35,5.38.6,14.1,5.49,17.71,4.53,3.36,6.44-3.1,6.51-6.43.09-4.23-1.92-11.68-6.39-13.49-5.27-2.14-6.75,7.7-6.81,10.7,0,1.41,2.9.92,2.93-.27a18.23,18.23,0,0,1,.7-5.09c.87-2.84,2.38-3,3.91-.7a16,16,0,0,1,2.61,10.81c-.26,2.1-1.51,2.9-2.71.88a19.21,19.21,0,0,1-2-5,51.12,51.12,0,0,1-1.29-9.86c-.08-1.19-3-.53-2.9.78Z"/><path class="cls-2" d="M344.78,691.54c2.48-.79,5-1.55,7.49-2.23s5.89-2.24,8.34-2.07c4.56.3,2.69,4.53.17,6.53-1.67,1.32-13.72,4.59-13.54-1.4,0-1.21-2.87-.62-2.9.36-.15,4.94,6.12,4.85,9.71,4.67,4.15-.2,8.55-1.62,11-5.18,1.58-2.26,2.91-6.88-1-7.17-2.64-.2-5.87,1.15-8.4,1.79q-5.68,1.42-11.27,3.22c-1.7.53-1.34,2,.4,1.48Z"/><path d="M215.52,791.47l-10.89,4.06,2,.18,9-14.1c.12-.18-.14-.32-.26-.37a29.52,29.52,0,0,0-20.29-1l1.27.64a50.66,50.66,0,0,0,11.93-10.1c.18-.2.17-.48-.14-.54-4.26-.84-9.76-1-13.79-2.63-1.47.34-2.21-.13-2.21-1.39l2.51-2.57,4.38-4.5c1.34-1.37,3.94-3.09,2.64-5.24-1.46-2.43-7.5-3.7-9.91-4.74l-1,1.14a16,16,0,0,0,10.16-7.89c.16-.3-.35-.41-.51-.43a71.29,71.29,0,0,0-14.31.34l.88.72c2.33-1.56,10.49-6.54,7.74-10.13-1.18-1.56-5.22-1.5-6.83-1.71-1-.14-11.36-.92-11.55-1.58-.86-3.08,7.29-3.63,5.87-8.47-1.7-5.86-11.42-8.77-16.16-11.23L164.42,711c3.58-.77,13.05-2.16,14.59-6.27.59-1.59-.19-2.37-1.21-3.47-1.54-1.66-4-2.13-5.58-3.61-1.24-1.2-3,.06-1-2.63,1.38-1.87,5.41-2.89,7.2-4.62,1.47-1.41,2.84-3.33,2.74-5.48-.14-3.07-3.19-5-3.56-8.15-.47-4,1.66-8.62,5.71-9.88.26-.08,1.48-.44,1.3-.93-1.25-3.46-4.44-8.75-4.08-12.46s9.6-5.32,12.8-6.41c.22-.08,1.27-.57.84-.94a53.48,53.48,0,0,0-5.8-4.35c-2-1.29-4.86-2.1-3-4.65s6.78-3.13,9.28-5c3.14-2.39,3.38-6,7-8.06,4.91-2.77,11.42-4,16.74-5.9,1.93-.69.13-1.25-1-.83-5.26,1.85-10.55,3.67-15.8,5.57-3.2,1.16-4.81,1.91-6.42,4.87-1.17,2.15-1.78,3.6-4,4.93-1.61.95-3.39,1.54-5.05,2.39a12.21,12.21,0,0,0-5.42,4.7.23.23,0,0,0,.08.29,53.23,53.23,0,0,1,10.72,7.11l.84-.93c-3.41,1.16-6.91,2.2-10.27,3.51-1.23.48-2.82,1-3.68,2-2.75,3.47,2.13,11.52,3.37,14.94l1.31-.93c-4.93,1.54-8.77,5.69-8.36,11.16.31,4.08,4.77,6.82,3,11s-8,5.77-11.26,9c-.22.22-.12.44.15.54,2.22.8,6.41,2.14,7.84,4.23,1.06.54,1.15,1.44.26,2.72.33,1.72-.31,2.67-1.92,2.84-1.94,1.36-5.68,2-7.86,2.43-.12,0-2.3.77-1.6,1.13,4.63,2.41,12.92,4.92,15.38,9.93,2.63,5.34-5.16,5.24-6.65,9.36-.12.32.3.39.51.42,4.49.62,9,1.21,13.48,1.84,3,.42,6.87-.3,5.2,4.83-.71,2.16-4.65,4.24-6.52,5.5-1,.64.41.79.88.73,2.19-.27,6.95-1.3,9.21-.47,1.88-.54,2.48.15,1.78,2.1a11.61,11.61,0,0,1-6.13,4c-.3.09-1.95.75-1,1.15,2.1.91,4.21,1.79,6.3,2.73,3,1.35,3.36,2.75,1.3,5.52-2.41,3.27-5.94,6.09-8.77,9-.36.36.1.53.4.59,3.14.57,6.28,1.14,9.42,1.74,1.29.24,5.62.37,6.12,1.68.95,2.48-7.85,7.66-10.08,9-1.13.69.85.76,1.27.64,2.92-.85,16.37-3.06,16.39,2.37,0,1.48-3.2,5-4,6.27l-4,6.27c-.42.65,1.83.23,2,.18l10.88-4.06c1.92-.72.14-1.27-1-.83Z"/><path d="M275.83,582.09l-2.43-29.63-2.56,1.23,15.77,13.07a1.8,1.8,0,0,0,2.59-1,89.57,89.57,0,0,0,3-18.61l-2.58.95,16,10.33a1.81,1.81,0,0,0,2.59-1l3.36-18.1-2.3,1.08,14.72,6.79a1.91,1.91,0,0,0,2.23-.81,98.42,98.42,0,0,0,4.85-20.23l-2.79.75a98.7,98.7,0,0,0,14,16.86,1.81,1.81,0,0,0,2.71-.47,140.59,140.59,0,0,0,7.21-15.5l-2.71.47A77.59,77.59,0,0,0,361,545.47a1.8,1.8,0,0,0,2.71-.48,83.32,83.32,0,0,1,12.2-21.6l-2.66,0c1.37,7.39,2.94,14.6,7.07,21,.51.78,2.07.42,2.54-.22l13.89-18.92-2.68-.31a65.63,65.63,0,0,0,4,20c.4,1.1,2.05.68,2.66,0l14.63-15.4-2.68-.31a99.16,99.16,0,0,0-2.74,23.59c0,1.19,1.75,1.11,2.43.54a105.42,105.42,0,0,0,13.46-13.43l-2.68-.31c-.44,4.63-1.38,9.52-1.33,14.17,0,1.66,0,3.27,1.7,4s3.6-.46,5-1.47c4.25-3,8-7.18,11.91-10.65l-2.34-.83c-1.43,4.18-3.05,8.34-4.29,12.58-.57,1.92-1.21,4.43.22,6.16,1.2,1.45,3,1.47,4.69,1.26,4.43-.56,8.93-2.14,13.26-3.2l-1.65-1.15-4.53,11.71c-.6,1.55,2.3,1.53,2.77.33l4.53-11.71c.41-1.06-.88-1.34-1.65-1.16-3.08.76-14.39,5-15.24.86-.48-2.34,1.21-5.28,1.95-7.44l2.71-7.91c.46-1.36-1.62-1.47-2.35-.82l-5.95,5.33-3,2.66c-1.3,1.17-2.28,3.24-3.92,1.92-2.29-1.84.11-11.87.39-14.92.14-1.39-2.13-1-2.68-.31a101.07,101.07,0,0,1-12.95,13l2.42.54A99.16,99.16,0,0,1,415.6,529c.35-1.43-2.19-.83-2.68-.31l-14.62,15.4,2.66,0A63.86,63.86,0,0,1,397,524.66c-.06-1.3-2.08-1.13-2.68-.31l-13.89,18.92,2.54-.21c-4-6.23-5.5-13.3-6.83-20.49-.21-1.12-2.18-.65-2.67,0A86,86,0,0,0,361,544.67l2.71-.48a77.94,77.94,0,0,1-11.48-17.1c-.46-.93-2.4-.3-2.71.48a140.59,140.59,0,0,1-7.21,15.5l2.71-.47a99.62,99.62,0,0,1-14-16.87c-.62-.94-2.66-.29-2.79.75a95.86,95.86,0,0,1-4.69,19.69l2.22-.81L311,538.56a1.79,1.79,0,0,0-2.3,1.09l-3.37,18.1,2.59-.94-16.05-10.33c-.74-.48-2.52-.14-2.58.94a90.35,90.35,0,0,1-3,18.62l2.59-.95L273.07,552c-.87-.72-2.66.09-2.57,1.22l2.43,29.63c.11,1.31,3,.61,2.9-.78Z"/><path d="M510.6,628.81a93.68,93.68,0,0,1,26.57,4.5l.29-1a217.54,217.54,0,0,0-18.29,12.11c-.71.52,0,.92.55.9a75.44,75.44,0,0,1,24.35,3.2l.29-1-15,8.45c-.32.19-.94.76-.29,1a50.26,50.26,0,0,1,16.23,9.83l1.57-1.25a76.87,76.87,0,0,0-16.46,3.23c-.15.05-1.84.72-1.19,1.17a102.11,102.11,0,0,0,18,9.82L549,678.4a43.37,43.37,0,0,0-20.17,5.94c-.39.23-.86.68-.29,1A68,68,0,0,0,541.77,691l1.39-1.36-10.85,2.21c-.31.07-2.53,1-1.39,1.36a30,30,0,0,1,12.41,8l.81-1-17.77,8c-.34.15-1.43.79-.62,1.15,2.86,1.28,5.69,2.61,8.47,4.06,1.25.64,3.22,1.23,4.14,2.23,2.41,2.61.07,4.36-2.43,5s-5.15,1.35-6.77,3.31c-2.64,3.19.18,5.79,1.37,8.92,3,8-1.73,17.55-10.94,18.23-.3,0-3,1-1.75,1.39,2.12.64,4.55,1.41,5.79,3.37,2.32,3.67-3,6.14-5.74,7.71l-14.79,8.41c-.28.16-1,.8-.29,1l10.46,3,.29-1A141.73,141.73,0,0,1,494,782.69c-1.68.53-1.38,1.79.34,1.25a151.12,151.12,0,0,0,21-8.35c.3-.14,1-.8.29-1l-10.46-3-.29,1L518,765.13c2.46-1.4,5.7-2.62,7.67-4.7,4.33-4.59-1.26-8-5.5-9.31l-1.75,1.39c8.34-.62,15.93-6.28,16-15.26a14.85,14.85,0,0,0-1.2-5.92c-.54-1.22-1.57-2.39-2-3.65-1.25-3.81,2.67-5.17,5.61-6,3.24-.87,6.21-1.43,8.12-4.43.08-.13.22-.41,0-.53A164.1,164.1,0,0,0,528.08,708l-.62,1.15,17.77-8c.3-.13,1.24-.59.81-1a30.84,30.84,0,0,0-12.79-8.24l-1.39,1.36,10.85-2.21c.31-.06,2.54-1,1.39-1.36A68.32,68.32,0,0,1,530.91,684l-.29,1a37,37,0,0,1,17.25-5.16c.34,0,3-.88,1.75-1.39a99.4,99.4,0,0,1-17.64-9.6L530.79,670A73,73,0,0,1,546.48,667c.3,0,2.23-.66,1.57-1.25a51.39,51.39,0,0,0-16.59-10.05l-.29,1,14.94-8.45c.29-.16,1-.79.29-1a79.2,79.2,0,0,0-25.5-3.37l.55.9A209.92,209.92,0,0,1,539.22,633c.29-.18,1-.78.29-1a97.92,97.92,0,0,0-27.74-4.67c-1,0-3.11,1.43-1.17,1.47Z"/><path d="M687.84,214.79l-29.12,4.65c-9.29,1.49-19.65,2.75-27.36-2.63-7.42-5.17-10-14.79-12-23.61-2.52-11-5.07-22.18-4.59-33.47l.72.2c3.73-7.93,12.71-11.89,21.22-14A96.2,96.2,0,0,1,700,152.2c3.59,1.69,7.29,3.8,9.11,7.33a16.37,16.37,0,0,1,1.3,8.47c-.62,10.42-5,20.19-9.37,29.68-2,4.43-4.13,9-7.54,12.43s-8.49,5.74-13.21,4.53"/><path class="cls-2" d="M661.05,157.05c3.93,20.5,7.75,40.06,3.77,60.92-.16.84,2.71.36,2.87-.45,4-20.93.21-40.65-3.74-61.25-.14-.76-3.06-.07-2.9.78Z"/><path class="cls-2" d="M701,179.9a13.08,13.08,0,0,0-18.8.13c-4.77,5.05-7.19,16.59-1.88,22,3.74,3.81,12.69,3.3,13.6-3,.46-3.17-2.14-5.84-5-6.62-3.3-.91-6.48.57-9.2,2.3-1.65,1,.69,2.25,1.95,1.45l7.7-.71-5.78,5.8c-1.48-.4-2.61-3.54-2.93-4.9-.75-3.18.07-6.94,1.06-10,2.54-7.77,10.9-10.75,17.08-4.71,1,1,3.45-.54,2.21-1.75Z"/><path class="cls-2" d="M628.25,192.32c.71-8.41,7.7-15.66,16.77-13.41,6.25,1.55,10.4,7,11.51,13.17.89,5-.46,13.62-4.51,17.33-1.7,1.55-7.9,3.73-9.78,1.75a5.8,5.8,0,0,1-1.12-4.52c.41-4.24,4-6.77,7.39-8.79,1.66-1-.93-1.1-1.73-.62-3.78,2.25-8.15,5.13-8.64,9.93-.41,4,2.29,6.9,6.19,7.23,9.13.78,14.5-9.86,15.25-17.51,1-9.91-5.53-19.42-15.92-19.86a17.28,17.28,0,0,0-18.28,15.74c-.09,1,2.8.38,2.87-.44Z"/><path d="M40.53,63.78c4.35,17.67,11.46,35,21.78,50.08,3.21,4.69,9.63,14,16.13,14.11,5.85.11,5.54-7.63,5.86-11.76.08-1-2.81-.39-2.88.44-.23,3,.33,10.18-4.54,8.49-2.54-.89-5.3-4.2-7-6.12-4.56-5-8.08-11-11.34-17A161.1,161.1,0,0,1,43.43,63c-.2-.82-3.11-.08-2.9.78Z"/><path d="M54.16,116.36a167.91,167.91,0,0,1,13.63-17.9c.71-.82-2.12-.55-2.66.07A166.71,166.71,0,0,0,51.5,116.44c-.64,1,2.21.61,2.66-.08Z"/><path d="M67.2,63.85q12.78,28.62,27,56.58c.44.88,3.06.24,2.89-.78a168,168,0,0,1-2.59-20.72c-.1-2.6-1.18-9.75,1.5-11.15,2.23-1.17,5.23,3.63,6.55,5.56,1.8,2.66,2.57,5.6,4.09,8.34.7,1.28,1.25,2.24,2.8,2.54a3.79,3.79,0,0,0,4.24-2.27c.33-.88-2.54-.54-2.89.39-.15.39-2.1-3.68-2.29-4.12a35.5,35.5,0,0,0-2.26-4.43A32.36,32.36,0,0,0,101,87.15c-1.92-1.84-4-3.36-6.66-1.79-3.75,2.24-2.86,8.81-2.8,12.45.15,7.61,1.41,15.14,2.66,22.62l2.89-.78Q82.89,91.7,70.1,63.07c-.43-1-3.27,0-2.9.78Z"/><path d="M118.94,89.35a47,47,0,0,0,4.77-14.2c.36-2.33.67-5.46-1.47-7.05-4.91-3.66-8.77,3.49-8.86,7.36-.13,6.76,3.77,13.85,10.56,15.74A14.79,14.79,0,0,0,139,86.83c.75-.87-2.11-.63-2.68,0-8.11,9.29-19.22-1.18-20-10.27a9.38,9.38,0,0,1,.11-3.7c.47-1.18,3.59-2.48,4.36-1.65,1,1.09,0,4.64-.28,5.89a49.09,49.09,0,0,1-4.48,12.64c-.36.71,2.45.45,2.88-.41Z"/><path d="M105.71,181.34a120.76,120.76,0,0,0-4.52-53.83c-.39-1.24-2.76-.63-2.91.5a95.55,95.55,0,0,0,7.61,52.21c2.41,5.27,5.89,12.74,12.08,14.41s7.83-6.88,9.65-11c.66-1.5-2.25-1.48-2.76-.31l-2.1,4.78c-1,2.2-.75,3-3.36,3.35-3.5.48-5.83-3.29-7.52-6a75.28,75.28,0,0,1-7.68-18.21,94.8,94.8,0,0,1-3-39.42l-2.91.5a119.66,119.66,0,0,1,4.48,53.29c-.21,1.45,2.75,1.06,2.93-.23Z"/><path d="M139.63,161.6c1-3.09.88-6.52-1.45-9-1.29-1.4-3.45-2.45-5.25-1.06-2.47,1.91-2.5,8-2.61,10.77a35.58,35.58,0,0,0,2.27,14.19c.77,2,1.76,5.32,4.36,5.61,2.32.25,3.51-1.8,4.19-3.62,3.53-9.54,1.58-21.68-2.13-30.8l-2.77,1,10.16,19.93c.59,1.15,3.35.08,2.65-1.28L138.89,147.4c-.53-1-3.25-.14-2.77,1a48.63,48.63,0,0,1,3.57,14.87,46,46,0,0,1-.16,8.46,28.07,28.07,0,0,1-.52,3.41c-.39,1.62-.53,5.39-2.34,3.12-2.93-3.68-3.51-11-3.45-15.4,0-2,0-4.7.76-6.63,2-5.27,3.68,2.49,2.88,5-.52,1.6,2.37,1.58,2.77.34Z"/><path d="M145.3,138.11a254.06,254.06,0,0,1,14.29,25.06l2.78-1c-5.65-4.89-8-12.12-9.42-19.24-.64-3.06-2-9.38.71-12,4.16-4,3.23,4.8,3.19,6.23,0,1.88-.25,3.74-.4,5.61-.29,3.61-1.23,9.55,4.15,9.11s11.51-5,15.52-8.49c1.29-1.12-1.56-1.3-2.36-.61-2.61,2.24-14.53,11.35-14.68,3.41-.08-3.81.77-7.61.7-11.43-.06-4.18-1.27-11-6.65-6.68-5.12,4.1-4,11.78-2.69,17.3,1.58,6.72,3.9,13.32,9.26,18,.59.51,3.32.11,2.78-1A256.83,256.83,0,0,0,148,136.93c-.59-.9-3.39.09-2.68,1.18Z"/><path d="M188.82,119.84c.34-5.25-2.27-13.89-9.36-10.48-6.42,3.1-6.23,13.53-4.19,19.14,1.53,4.23,7.21,11,12.11,6.72,5.64-4.91,2.38-15.33-1.8-19.87-.72-.78-3.39-.29-2.77,1.05,4.46,9.64,9.49,19.21,13.23,29.16,1.89,5,3.24,10.31,2.84,15.71a22.17,22.17,0,0,1-1.88,7.6c-.52,2.49-2,3.34-4.49,2.53q-2.94,1.47-3.58-.91a9.79,9.79,0,0,1-1.22-3.42c-.36-1.42-3.26-.65-2.9.78,1.06,4.14,3.64,9.05,8.79,7.66s7.4-8.1,8.05-12.79c1.07-7.66-1.42-15.19-4.42-22.13-3.64-8.4-7.68-16.66-11.53-25l-2.77,1a15.21,15.21,0,0,1,4.31,10.71,15,15,0,0,1-.31,2.75q.13,3.21-2.91,2.67c-1.75.87-3,.39-3.87-1.43a13.82,13.82,0,0,1-2-3.64,19.2,19.2,0,0,1-.34-12.41c.82-2.31,2.48-5.56,5.73-3.71,2.77,1.59,2.49,5.78,2.32,8.41-.1,1.57,2.85,1.22,2.94-.18Z"/><path d="M197.79,116.06A60.44,60.44,0,0,0,204.45,103c.88-2.43,2.53-6.74-.11-8.72-5-3.77-10,4.81-11,8.46-1.87,6.75.26,17.18,7.73,19.77,7.16,2.49,13.17-4.3,18.37-7.88,1.29-.89-1.61-.86-2.3-.38-1.69,1.16-3.2,2.56-4.87,3.75-5.44,3.89-10.79,3.53-14-1.33A17.79,17.79,0,0,1,196,103c.43-1.83,1.33-5.23,2.94-6.31,1.39-.94,3.33-.5,3.82.82.34.89-.2,2.5-.42,3.43-1.29,5.36-4.26,10.54-7.27,15.08-.69,1,2.19.74,2.68,0Z"/><path d="M4.24,442.23c-.48-1.4-.35-1.17-1.59-2-.52-.35-3,.2-2.6,1.1l12.07,23.91c3.39,6.73,6.3,14.29,10.88,20.31,8.84,11.62,10.8-11.48,10.29-16.92-.1-1-3-.34-2.9.78a36,36,0,0,1-.31,9.83c-.26,1.41-.9,6.24-2.1,7-1.85,1.18-7.56-11.06-8.65-13.23L3,440.56l-2.6,1.1,1,1.34c.36,1,3.24.21,2.89-.77Z"/><path d="M15,479.44a96.77,96.77,0,0,1,8.12-16.77c.15-.26-2.43-.17-2.86.54A97.1,97.1,0,0,0,12.1,480c-.16.42,2.59.17,2.85-.54Z"/><path d="M27.14,430.7q10.28,26,22.2,51.22c.39.83,3.13.1,2.89-.78-1.15-4.24-2.31-8.5-3-12.84a54.54,54.54,0,0,1-.73-6.5c-.07-1.48-.76-6.14.43-7.53,4-4.68,13.82,15.41,14.92,18.28.34.89,3.2,0,2.9-.78a53.77,53.77,0,0,0-9.31-15.88c-2.09-2.43-4.75-6.22-8.43-4.75-3.38,1.35-3.41,5.56-3.46,8.64-.12,7.55,1.87,14.91,3.84,22.14l2.89-.78Q40.32,455.9,30,429.93c-.35-.89-3.21,0-2.9.77Z"/><path d="M75.12,457.15a19.31,19.31,0,0,0,2.9-7.53c.31-2.13.72-5.69-.74-7.47-1.93-2.35-5-.31-5.71,2-1.5,4.92.36,12.36,4.47,15.59s9.38,1.25,13.55-.54c1.86-.8.13-1.47-1.08-.95-3,1.31-6.86,2.69-9.76.42a10.07,10.07,0,0,1-2.47-3,17.61,17.61,0,0,1-2.16-8.31c-.09-6,1.27-2.72,1.2.62a18.23,18.23,0,0,1-2.86,9.26c-.63,1,2.23.63,2.66-.07Z"/><path d="M46.39,519.69c-2.92-6.63-12,9-12.7,11.09-1.43,4.12-2.31,9,2.15,11.52a13.72,13.72,0,0,0,5.92,1.31c2.39.16,2.79-.37,4.41,1.89,1.89,1.41,1.71,2.73-.57,4Q44,552,41.68,550.72c1.26-1-1.62-1-2.31-.42-2.32,1.91.37,3.35,2.46,3,3-.48,9.74-5,9.62-8.56-.15-4.14-10.3-2.59-12.62-3.7-4.68-2.23-3.56-7.31-2-11.39.38-1,6.09-10.48,6.65-9.2.43.95,3.27,0,2.9-.78Z"/><path d="M51.46,516.35a248.58,248.58,0,0,1,12.35,23.54l2.89-.77A42.44,42.44,0,0,1,62,517.57c.07-1.23-.14-3.66.55-4.69,1.42-2.09,3.6.4,4.63,1.7A25.53,25.53,0,0,1,72,525c.24,1.05,2.91.24,2.9-.78a38.2,38.2,0,0,1,1.72-12.39c.61-1.91,1.36-5.64,3-6.81,3.1-2.22,4.76.4,6,2.9A22.52,22.52,0,0,1,88,516.85c.11,1.75-.37,3,1.55,3.4a2.44,2.44,0,0,0,2.24-.76l.32-.47c.75-1.08-2.15-.84-2.69-.06l-.33.47,2.23-.75c-.82-.15-.6-4.72-.78-5.68a22.16,22.16,0,0,0-2.81-7.27c-1.52-2.53-3.44-5.2-6.75-4.29-3,.84-4.56,4.2-5.73,6.79A38.88,38.88,0,0,0,72,525l2.9-.78c-1-4.37-6.93-19-13.74-13.73-3,2.3-2.27,8.51-2.13,11.8a43,43,0,0,0,4.79,17.58c.49,1,3.3.11,2.89-.77a249.25,249.25,0,0,0-12.55-23.9c-.48-.82-3.31.1-2.69,1.13Z"/><path d="M108.69,494.07c1.1-4.78-4.64-6.36-8-4.21-4.24,2.72-5.63,10.63-4.61,15.25s5,5.87,7.55,1.82a32.76,32.76,0,0,0,3.76-9.4c.22-.85.4-1.71.62-2.56.3-1.11-.83-1.2.75-.21a61.89,61.89,0,0,1,5.39,4.33c1.08.87,3.55-.67,2.21-1.75-1.79-1.44-3.58-2.9-5.38-4.33-.89-.7-1.76-1.61-3-1.57-2.57.1-2.75,3-3.22,4.92a41,41,0,0,1-2.16,6.77c-.4.93-.85,2.46-1.64,3.1q-.86,2.25-1.73-.9l-.27-1c-.49-2.15,0-4.64.43-6.76a15.5,15.5,0,0,1,1-3.67c1.14-2.41,6.26-3.74,5.31.35-.34,1.49,2.63,1.18,3-.18Z"/><path d="M110.35,441.92q8,27.9,14.08,56.29c.16.74,3.07,0,2.9-.77q-6-28.4-14.08-56.29c-.22-.77-3.12,0-2.9.77Z"/><path d="M118.88,443.84q8,26.19,17.4,51.94c.34,1,3.22.11,2.9-.77q-9.37-25.75-17.4-51.95c-.29-.94-3.18-.14-2.9.78Z"/><path d="M43.93,584.07C47.81,605,61.33,622,78,634.56c16.09,12.15,33.32,21.11,54,18,1.45-.22,2.34-2.07.35-1.77-20.92,3.17-38.77-7-54.59-19.64C62.52,619,50.44,602.75,46.82,583.29c-.2-1.1-3.11-.38-2.89.78Z"/><path d="M85.45,633.27A83.68,83.68,0,0,0,125.84,653c.66.12,3.13-1,2.4-1.08a83,83,0,0,1-40.06-19.6c-.55-.49-3.11.63-2.73,1Z"/><path d="M80.6,647.09c17.56,5.06,35.67,9.87,54,6,.26-.06,2.45-.86,1.44-1.17l-2.67-.83c-.69-.22-3.28.89-2.37,1.17l2.67.83,1.44-1.17c-17.65,3.77-35.2-1.1-52.12-6-.7-.21-3.27.91-2.36,1.17Z"/><path d="M204.61,54.51C222.07,36.28,250,27.13,274.8,26.72c28.73-.48,55.76,14.43,77.35,32.24l2.51-1.2-5.08-1.87c-.81-.3-3.44.92-2.33,1.32l5.09,1.87c.51.19,3.34-.52,2.51-1.21-23.23-19.16-52.17-34.33-83.06-32.5-25,1.49-52.26,10.79-69.86,29.16-.77.81,2.08.61,2.68,0Z"/><path d="M320.66,53.43a51.12,51.12,0,0,1,29.79,4c.52.24,3.27-.46,2.52-1.19a47.66,47.66,0,0,1-11.54-17.49c-.35-.89-3.21,0-2.9.78a48.46,48.46,0,0,0,11.73,17.79l2.52-1.18A54.47,54.47,0,0,0,321.1,52c-1.29.21-2.46,1.74-.44,1.4Z"/><path class="cls-3" d="M228,585.18c-.32-3-.51-6.15,1-8.73a176.83,176.83,0,0,0,23,18.52,42.32,42.32,0,0,0,8.33,4.55l17.45-11a303.38,303.38,0,0,1-58.11-53.34c-13.87,26.93-14,63.13,1.7,89l13-8.2A163.29,163.29,0,0,1,228,585.18Z"/><path d="M229.49,584.79c-.28-3-.36-5.4.91-8.18l-2.71.47a184.84,184.84,0,0,0,20.2,16.62c3.16,2.23,9.33,7.85,13.5,6.43,3.12-1.06,6.34-4,9.09-5.75l8.3-5.25a.87.87,0,0,0,.17-1.47A309.12,309.12,0,0,1,221,534.52a1.82,1.82,0,0,0-2.71.48c-14,27.75-14.25,62.83,1.76,89.8.45.76,1.75.35,2.29,0l13-8.2a1,1,0,0,0,.49-1,173.69,173.69,0,0,1-6.34-30.79c-.15-1.29-3.05-.59-2.9.78a170.75,170.75,0,0,0,3,18.26,60,60,0,0,0,2.28,9c.8,2,1.6,1.86.58,3.12-1.38,1.73-4.85,3.07-6.72,4.26l-5.28,3.33,2.29,0c-15.72-26.48-15.35-61-1.65-88.23l-2.71.48a311.3,311.3,0,0,0,58.32,53.53l.16-1.47c-5.18,3.27-10.28,7.16-15.74,9.95a7.33,7.33,0,0,1-1.25.79c-1.58.4,2,0-.11-.64-3.4-1-6.8-3.9-9.64-5.91a179.84,179.84,0,0,1-19.79-16.22,1.83,1.83,0,0,0-2.71.47c-1.38,3-1.35,6-1,9.28C226.71,586.86,229.62,586.17,229.49,584.79Z"/><path class="cls-3" d="M511.77,534.14a8.17,8.17,0,0,0-4.59-1.78,9.72,9.72,0,0,0-4.66,1.68,392.46,392.46,0,0,0-64.27,46.08l22.46,14.1a224.18,224.18,0,0,1,33.39-22.67c1-.56,2.28-1.11,3.27-.5a3.34,3.34,0,0,1,1.17,2.45c2.23,14,2.19,29.25-5,41.35l15.09,9.48c5.77-5.73,8.31-13.9,10.17-21.82a207,207,0,0,0,4.7-29.5C524.74,558.87,523.38,542.31,511.77,534.14Z"/><path d="M513.13,533.63c-4.94-3.08-8.63-1.46-13.29,1.24q-11.29,6.54-22.13,13.84a403.33,403.33,0,0,0-40.78,31.49c-.1.1-.21.32,0,.42l22.46,14.11c.73.46,2.09-.11,2.68-.59,5.88-4.78,12-9.29,18.27-13.47q4.21-2.79,8.55-5.38c1-.61,5-3.71,6.1-3.51,2.44.43,2.39,3.64,2.61,5.36,1.7,12.93,1.1,26.38-5.43,38a.2.2,0,0,0,.07.26l15.09,9.48a2.82,2.82,0,0,0,2.68-.59c5.59-5.91,8.22-13.45,10.1-21.24a203.93,203.93,0,0,0,4.73-28.52c1.36-14.26.88-31.48-11.67-40.86-.67-.49-3.21.65-2.73,1,11.93,8.92,12.8,25.12,11.67,38.76a196.68,196.68,0,0,1-4.69,29.35c-1.87,7.9-4.35,15.65-10.05,21.67l2.68-.59-5.88-3.7c-2.28-1.43-6.37-3-8.08-5.07-.17-.2-.81-.32-.89-.56s1-2.08,1.36-2.74a41.81,41.81,0,0,0,3.21-9.09,63.72,63.72,0,0,0,1.53-16.41c-.07-3-.33-6.07-.7-9.08-.21-1.74-.05-5.49-1.83-6.64-2.13-1.37-5.34.72-7.08,1.68a220.89,220.89,0,0,0-32.25,22.09l2.68-.59-11.66-7.32-7.6-4.77c-.56-.35-2.25-1-2.58-1.62-.55-1,.67-1.23,2-2.35,9.7-7.95,19.29-15.91,29.52-23.18q7.71-5.46,15.67-10.56c4.86-3.11,17-13,22.93-9.28C511.12,535.09,513.58,533.92,513.13,533.63Z"/></g></g></svg>