<svg xmlns="http://www.w3.org/2000/svg" viewBox="0 0 782.05 859.89"><defs><style>.cls-1{fill:#6ea2ff;}.cls-2{fill:#fff;}.cls-3{fill:#ff4e1f;}</style></defs><title>Ресурс 3</title><g id="Слой_2" data-name="Слой 2"><g id="Слой_1-2" data-name="Слой 1"><path class="cls-1" d="M484.83,26.38c-13.48,41.38-27.1,83.57-27.44,127.1-.59,74.91,38.18,148.92,22.71,222.21-3.45,16.32-9.51,32-15.55,47.51l-11,28.3c-.71,1.83-2.07,4.05-4,3.63s.44-4.11.94-2.2l-.94,2.2c-22.06-9.21-29.84-6.33-47.15-22.83s-30-38.92-30.71-62.82c-.44-14.38,3.37-28.54,4.28-42.89a107.5,107.5,0,0,0-15-61.69c-6.76-11.25-15.54-21.18-22.2-32.49s-11.15-24.75-8.14-37.52l1.13.12c-6.23-17.24-.89-36.65,7.85-52.77C359.92,104.76,396.66,79.41,432.9,57c20.46-12.67,41.19-24.89,61.92-37.11"/><path d="M483.39,26.6C474,55.4,464.6,84.37,459.57,114.31c-4.79,28.52-4.29,56.92.15,85.45C468.32,255,489,310.67,480.24,367.25c-2.54,16.39-7.9,32.07-13.79,47.51-2.9,7.62-5.88,15.2-8.83,22.8-1.6,4.12-3.09,8.31-4.81,12.38l-.69,1.77q-.3,3-1.72,1.56c-1.65,1.05-1.45.14-2.28,2.08l2.61-.86c-14.44-5.93-30-8.26-42.26-18.51-15.32-12.75-27.57-30.34-32.75-49.69-5.81-21.73,1.42-42.64,1.89-64.44a108.09,108.09,0,0,0-17.08-60.38c-12.95-20.19-34-40.52-28.46-66.8l-2.35.92,1.13.12c.44,0,2.64-.27,2.36-1.08-10.61-31.28,11.8-64.22,32.52-85.82,22-23,49.36-40.14,76.35-56.65,17.75-10.87,35.68-21.43,53.61-32,1.67-1-.92-1.12-1.74-.64-30.6,18-61.73,35.63-90.87,56-25.39,17.72-49.44,38.78-64.52,66.25-8.92,16.24-14.4,35.51-8.25,53.65l2.36-1.08-1.13-.13c-.58-.06-2.19.15-2.35.91-4.58,21.8,9.35,40.39,21.4,57,13.61,18.78,22.75,39.27,24,62.69,1.22,22.73-7.48,45-2.85,67.66,3.95,19.36,15.13,36.87,29.32,50.39,6.17,5.88,13,10.83,21,13.88,8.69,3.31,17.72,5.5,26.34,9a2.44,2.44,0,0,0,2.61-.86c.42-1,1.23-1.92.64-2.87a.86.86,0,0,0-.86-.32c-1.4.09-4.46,1.45-3.25,3.44,1.05,1.72,4.34.28,5.4-.63,2.1-1.82,2.84-5.22,3.79-7.67l4.81-12.38c2.94-7.58,5.92-15.14,8.79-22.75,5.61-14.88,10.57-30,12.93-45.78a201.47,201.47,0,0,0,1.29-44.45c-4.64-63-30.55-123.2-24.77-187.08,3.37-37.18,15-72.95,26.5-108.25.27-.81-2.59-.44-2.88.43Z"/><path class="cls-1" d="M670.83,365.86c3.21,14.27,7.56,30.59,11.84,44.57,1.84,6,3.87,12.15,8,16.93s10.75,7.89,16.74,6c9.28-2.9,11.58-14.64,13.19-24.22,4.25-25.25,14.53-49,23.36-73A689,689,0,0,0,780.7,183c-.24-17.41-13.13-31.62-24.22-45C732.71,109.16,730.23,56.1,676,28.32"/><path d="M669.38,366.25q3.55,15.66,7.9,31.12c2.47,8.8,4.46,18.64,9.18,26.56,6.59,11.05,22.36,15.05,30.06,2.9,4.37-6.9,4.91-15.65,6.48-23.45a242,242,0,0,1,8.94-31.46c7.13-20.52,15.42-40.6,22.08-61.3s12.35-41.79,17-63.06c4.57-20.7,9.08-42,10.87-63.18,1.6-18.85-13.83-34.08-24.62-47.62-7.69-9.64-12.81-21-17.83-32.19-6.38-14.17-12.7-28.44-21.62-41.24a112,112,0,0,0-40.48-35.49c-.73-.38-3,.82-2.73,1A110.55,110.55,0,0,1,711.2,59c8.15,10.5,14.35,22.28,19.92,34.3,5,10.88,9.54,22.06,15.47,32.51,7.28,12.84,18.42,22.82,25.85,35.55,4.16,7.13,7.38,15.44,6.6,23.8-.94,10.07-2.72,20.15-4.42,30.11q-5.24,30.8-13.24,61-7.83,29.58-18.27,58.39c-6.94,19.06-14.87,37.81-20.15,57.42-2.51,9.31-3.36,19.11-6.23,28.28-1.17,3.74-3,8.61-6.44,10.88a16.61,16.61,0,0,1-8.76,1.72,14.72,14.72,0,0,1-4.5-1.88,20.62,20.62,0,0,1-5.94-5.34c-5.83-7.66-7.85-18.34-10.42-27.43q-4.62-16.31-8.39-32.84c-.13-.58-3,.13-2.9.77Z"/><path d="M491.05,22.85c6.56-3,13.13-6,19.87-8.63,4.46-1.73,8.92-3.45,13.37-5.21C531.17,6.3,537.52,3,545,2.63c1.54-.07,2.32-1.95.33-1.85-6.49.31-11.34,2.47-17.38,4.87Q519.46,9,511,12.28c-7.17,2.78-14.16,5.9-21.14,9.13-1.81.84-.18,2.09,1.21,1.44Z"/><path d="M484.59,274.65a33.87,33.87,0,0,1,2.63-18.95c2.28-4.72,6.09-7.42,11.83-4.48,3.27,1.68,5.89,5,8.08,7.77,7.19,9.16,12.84,19.54,17.6,30.13,5,11.22,8.92,22.86,12.75,34.53,3.2,9.74,7.08,20.05,15.84,26.14,7.06,4.91,15.1,5.06,22.91,1.94,9.49-3.8,18.46-10.16,26.75-16,17.84-12.65,33-28.21,42.84-47.91,10.94-22,16.53-46.25,21.86-70.07.13-.57-2.7-.17-2.85.53-4.77,21.3-9.78,42.79-18.52,62.88-9.18,21.11-23.51,38.13-41.9,51.88-4.39,3.28-8.92,6.35-13.55,9.27-7.28,4.6-16.5,11.6-25.49,10.4-11.9-1.59-18.9-13.12-22.75-23.32-8.51-22.51-14.68-45.33-28.48-65.47-4.87-7.11-12.24-18.21-22.38-14.74-9.84,3.37-11.16,17.62-10.06,26.28.06.52,3-.05,2.89-.77Z"/><path class="cls-2" d="M665.22,218.39c7.89,41.66,7.06,85.45,22.92,124.76.36.9.89,1.93,1.85,2.08a2.68,2.68,0,0,0,1.48-.31c7.18-3.1,12.49-9.57,15.65-16.72s4.4-15,5.3-22.74c5.35-46.13,2.72-96.13,7-142.37,3-26.65,1.07-56.34-1.92-83C704.19,52.3,678.46,32.91,658.4,9.51c-2-2.28-4-4.68-6.69-5.93a19.7,19.7,0,0,0-7.28-1.32C609.39.45,574.25.35,539.2,2"/><path d="M663.77,218.78c4,21.23,5.76,42.77,8.59,64.16,1.39,10.48,3,20.94,5.36,31.26,1.13,5,2.41,9.94,3.89,14.83s2.66,10.72,5.29,15c2.88,4.64,8.92-.16,11.91-2.64,6.67-5.53,10.53-13.58,12.64-21.84,2.63-10.27,3.27-21.16,4.08-31.7.84-10.92,1.33-21.87,1.69-32.82.72-22.06.86-44.14,1.91-66.19,1-21,3.67-41.82,3.2-62.9-.24-11.21-1-22.4-2-33.56-.45-4.73-.22-10.56-2.39-14.81a108.72,108.72,0,0,0-6.65-11.26c-10.71-16-24.9-29.23-38.25-43-3.6-3.71-7.15-7.45-10.58-11.31-3-3.41-5.86-7.66-10.25-9.39C648.12,1,643.3,1.34,639,1.14Q629.13.69,619.19.41q-39.72-1.11-79.43.72c-1.08.05-3.06,1.75-1.12,1.66q32.25-1.45,64.53-1,16.4.22,32.76,1c5.06.23,11.35-.38,15.79,2.3,3.85,2.33,6.65,6.65,9.63,10C673,27.84,686,39.55,697.3,52.75a136.7,136.7,0,0,1,16.19,22.7c2.29,4.15,2.88,7.49,3.36,12.2.53,5.2,1,10.4,1.4,15.61a367,367,0,0,1-.42,61.84C716,185,715.55,205,715.09,225c-.46,20.44-.83,40.9-2.32,61.31-1.3,17.84-1.13,42.11-16.29,54.54a12.27,12.27,0,0,1-3.31,2.31c-2.74.77-3.77-.84-4.58-2.94q-1.46-3.8-2.73-7.67c-1.69-5.14-3.15-10.36-4.42-15.62a325.53,325.53,0,0,1-5.82-32.07c-3-22.28-4.83-44.74-9-66.87-.19-1-3.1-.29-2.9.78Z"/><path d="M565.75,353.89c4.73,4,9.66,7.77,16.11,7.87,5.68.08,11.27-1.95,16.28-4.47,13.33-6.71,24.49-16.92,35.56-26.73,6.14-5.43,12.8-12.77,20.4-16.07,11.61-5.05,16.18,7.61,18.26,16.34,1.68,7,2.8,14.21,4.43,21.26,1.28,5.53,3.39,9.33,8.69,11.78a2.9,2.9,0,0,0,2.79-.75c4.6-7.32,9.38-15.18,12.11-23.42.17-.52-2.62-.22-2.86.51-2.72,8.25-7.5,16.11-12.11,23.43l2.8-.75c-6.23-2.88-7.73-7.84-9.05-14.09-1.54-7.28-2.64-14.8-4.74-21.94-1.58-5.35-4.12-12.33-9.94-14.32-4.21-1.44-9,0-12.75,2-5.77,2.93-10.68,7.59-15.53,11.8-6,5.2-11.83,10.59-17.94,15.66-6.76,5.61-13.89,11-21.78,15-6.1,3.05-13.08,5.17-19.57,2a41,41,0,0,1-8.42-6c-.58-.49-3.14.63-2.74,1Z"/><path d="M505.51,119.59a154.87,154.87,0,0,1,18.86-10.89c6-2.93,13.54-7,20.21-8,4-.59,6.55.26,9.25,2.94,1.13,1.13,2.19,2.35,3.28,3.52l7.21,7.73,15.75,16.87c.81.87,3.57-.25,2.67-1.22l-19.68-21.09c-3.87-4.14-8.51-11.78-15.07-11.38-7.33.45-15.93,5-22.45,8a159.42,159.42,0,0,0-21.9,12.39c-1.63,1.1.79,1.87,1.87,1.14Z"/><path d="M502.35,120.06c8.9,7,21.3,15.32,33.09,15.06,5.1-.11,9.6-2.33,14.29-4.08a38.44,38.44,0,0,1,27.14.25c.81.3,3.45-.92,2.32-1.34a43.36,43.36,0,0,0-31.33.32c-4,1.53-7.79,3.42-12.15,3.34s-8.33-1.79-12.14-3.46A85.24,85.24,0,0,1,505.05,119c-.76-.59-3.42.54-2.7,1.1Z"/><path d="M654.44,110.5c6.78-7.63,16.26-16.9,26.42-19.63,6.72-1.8,10.07,2.79,15.06,6a39.43,39.43,0,0,0,5.42,3c.47.2,9.19,2.73,6.93,4.84-1.28,1.2,1.54,1.53,2.4.73,4.94-4.62-6.8-7-8.86-8-5.5-2.77-9.69-8.7-16.17-9-5.79-.3-11.26,2.93-15.93,6a88.44,88.44,0,0,0-17.66,15.38c-1.19,1.34,1.59,1.63,2.39.74Z"/><path d="M654.12,111.79a52.28,52.28,0,0,1,19.55,3.58c4.5,1.7,9,3.68,13.88,3.91a17.21,17.21,0,0,0,9.6-2.09c4-2.38,6.74-11.14,11.91-10.8,1.46.09,2.93-2.06,1-2.18a9,9,0,0,0-7.72,3.16c-1.56,1.71-2.49,3.86-3.93,5.65-2.82,3.49-7.26,4.48-11.52,4-5.87-.73-11.18-3.8-16.8-5.43a53.79,53.79,0,0,0-15.71-2c-1.68,0-2.2,2.23-.24,2.21Z"/><path d="M522.75,113.09c.8,6.23,6.65,10.66,12.62,12.64a21.14,21.14,0,0,0,10.14,1.08,12.18,12.18,0,0,0,8.43-5.36c2.12-3.47,1.9-7.83,1.62-11.88"/><path d="M670.17,99.81a12.4,12.4,0,0,0,16.14,14A9.87,9.87,0,0,0,690,111.7a11.79,11.79,0,0,0,2.56-3.91,21.62,21.62,0,0,0,1.64-10.57"/><path d="M656.92,81.27c4.27-6.56,10.56-15.59,19.54-13.23,3.69,1,8.23,4.78,11.65,6.66,6.72,3.7,16.13,7.34,21,13.55.84,1.09,3.58-.08,2.64-1.3-2.81-3.62-7.3-6-11.18-8.26-5.09-3-10.39-5.63-15.45-8.66-4.85-2.91-9.22-6.06-15.11-4.27-6.83,2.08-11.8,8.91-15.49,14.59-1,1.55,1.68,2.09,2.44.92Z"/><path d="M503.87,92.94c5.7-5.65,12.7-10.19,19.27-14.76,2.91-2,5.87-4,8.92-5.78,3.41-2,9.45-6.2,13.63-4.94,5.7,1.72,11.3,8.39,15.43,12.41s8.9,8.41,12.2,13.36c.58.88,3.39-.1,2.68-1.17-4-6-9.83-11.23-15.08-16.11-3.8-3.53-9.68-10.19-15.31-10.58C538,64.83,528.86,72,523,76c-7.33,5-15.15,10.06-21.47,16.33-1.22,1.21,1.6,1.32,2.35.58Z"/><path d="M652.89,265.06a19.33,19.33,0,0,0,7.48,2.29c3.65.31,7.28-1.26,10.89-.56.93.18,3.41-1.27,1.77-1.59-2.48-.48-4.53-.07-7,.27a17.25,17.25,0,0,1-10.83-1.81c-.84-.45-3.5.78-2.31,1.4Z"/><path d="M668.5,320c1.65,24.71,1.08,49.65.17,74.38-.89,24.3-2,48.86-5.83,72.91-.21,1.36,2.73.94,2.92-.26,3.88-24.53,5-49.58,5.89-74.37.87-24.42,1.38-49-.26-73.44-.08-1.2-3-.54-2.89.78Z"/><path d="M662.85,467.57c8.55,37.64,20.69,74.24,29.94,111.68,10,40.22,12.42,81.49,12.35,122.82,0,27.48-1.23,54.95-2.42,82.4-.05,1.22,2.86.65,2.9-.35,2.08-48,4.17-96.28.13-144.28-3-35.76-12-69.76-21.88-104.12-6.6-22.83-12.85-45.74-18.12-68.93-.23-1-3.14-.29-2.9.78Z"/><path d="M395.39,429.07c-10,44-43.47,76.76-61.81,117-10.37,22.73-13.84,47.3-16.36,71.94q-4.31,42-5.62,84.3-1.47,47.15.77,94.3c0,.47,2.93,0,2.89-.77A1202.66,1202.66,0,0,1,319,628.91c2.4-26,4.8-52.59,14.69-77,8.23-20.32,20.67-38.54,32.55-56.83,13.46-20.74,26.51-42.15,32-66.54.13-.58-2.69-.18-2.85.53Z"/><circle class="cls-2" cx="352.62" cy="698.54" r="161.34"/><path d="M376.33,690.6c-1,4.34-4.89,7.35-8.59,9.84A161,161,0,0,1,349.6,711l0-.42A30.14,30.14,0,0,1,322.92,689l.5-1c3.62-.79,6.94-2.59,10.47-3.74,5.84-1.9,12.1-2,18.25-2.07,8.59-.11,18,0,24.63,5.45.37.29-.18,1.07-.11.6"/><path d="M348.63,711.3c1.48,15.71,10.86,26.11,25.33,31.8,5.45,2.14,12.57,5,18.53,3.38,5.44-1.48,8.72-6.31,11.55-10.84.78-1.25-2.15-1.12-2.73-.19a36.79,36.79,0,0,1-4.49,6.16c-3.31,3.48-7.82,3.68-12.19,2.61a60.33,60.33,0,0,1-16.33-6.47c-10.35-6.15-15.66-15.38-16.77-27.22-.11-1.13-3-.47-2.9.77Z"/><path d="M347.75,712.88c-.16,12.24-5.43,24-15.26,31.58a39.1,39.1,0,0,1-17.1,7.48c-1.93.33-13.36,2.49-14.56.18-.61-1.17-3.36-.09-2.65,1.28,1.79,3.44,7.91,1.51,10.85,1.28,7.57-.6,14.51-2.09,21.14-6a42.2,42.2,0,0,0,20.51-36c0-1.53-2.92-1.12-2.93.21Z"/><path d="M284.53,658.63c0,10.29,1.23,25.64,11,31.86,7.82,5,16.28-7.15,17.41-13.78,1.58-9.24-2.32-24.35-12.45-27.25C288.31,646,284,660,283.26,669.12c-.13,1.54,2.83,1.17,2.94-.2.39-4.61.76-9.71,3.6-13.57,4-5.44,10.66-4.83,14.76-.12,4.6,5.26,7.23,17,5,23.61a19.48,19.48,0,0,1-6.56,9c-5.68,3.92-10.24-4.23-12-8.34-2.87-6.61-3.46-14-3.46-21.06,0-1.56-2.94-1.17-2.94.19Z"/><path d="M385.59,652.52A46.54,46.54,0,0,0,388,672.14c1.47,4.14,4.1,11.48,8.8,13.07C405.44,688.14,412,673,413,666.92c1.79-10-4.12-21.72-15-23.06-8.58-1.06-12.2,5.07-13.46,12.72,0,.22,2.76.06,2.9-.77.52-3.15,1.23-7.84,4.05-9.95,3.93-2.94,10,.61,12.88,3.34,6.14,5.75,7.41,14.51,4.72,22.26-1.23,3.54-3.33,8-6.26,10.49-5.41,4.54-8.41-2.36-10.43-6.74a46.18,46.18,0,0,1-3.93-23.47c0-.29-2.83,0-2.9.78Z"/><path d="M334.15,746.36c4.94-1.72,10.79,4.62,16,5.22a18,18,0,0,0,11.24-2.46l-2.11-.72c.37,8.82-7.69,13.79-10.36,21.52-2.55,7.37-.11,22.45-10.86,24-3.2.47-4.33-1.55-6.16-3.94a33.35,33.35,0,0,1-3.93-6.6A31.34,31.34,0,0,1,325.13,771a42.66,42.66,0,0,1,7.64-23.52c1.05-1.5-1.67-1.89-2.41-.82-5.22,7.52-8.8,17.56-8.07,26.8A33.92,33.92,0,0,0,327,788c1.9,3.21,5,8.23,9,8.91,8.27,1.38,13.5-10.65,14.28-17,.34-2.78.29-5.63,1-8.36,1-4,3.43-7,5.77-10.26,2.89-4,5.35-8,5.14-13.14,0-1-1.38-1.13-2.11-.71-6.43,3.73-11.57,1.73-17.43-1.73-2.95-1.74-5.76-2.45-9-1.32-1.73.6-1.25,2.56.52,2Z"/><path d="M348.63,771.87c.89,4.56,6.12,7.44,10.35,8.25,5.46,1,10.59-1.79,15-4.69,10.47-6.9,17.48-16.68,15.82-29.8-.16-1.3-3.07-.59-2.9.78a26.49,26.49,0,0,1-9.41,23.77c-3.69,3.06-8.35,6.72-13.11,7.77s-11.82-1.66-12.84-6.86c-.26-1.31-3.17-.57-2.9.78Z"/><path d="M358.09,757.29c7.69,4.6,18.68-7,23-12.3.82-1-2.09-.84-2.71-.09-3,3.7-12.52,14.22-18,11-.84-.51-3.5.71-2.3,1.43Z"/><path d="M402.16,694.7c10.86-.71,20.19,7.89,22.56,18.15a31.25,31.25,0,0,1-.86,16.19c-1.5,4.86-4.78,13.61-10.06,15.43-1.93.66-.15,1.38,1.08,1,5.15-1.77,8.06-7.63,10.16-12.33,2.82-6.28,4.12-13.44,2.75-20.26-2.3-11.43-12.64-20.35-24.45-19.57-.93.06-3.1,1.56-1.18,1.43Z"/><path d="M283,693.77c-10.45,7.63-18.94,15.05-18.7,28.84.3,16.89,6.2,36.51,24.67,40.87,1,.23,3.42-1.23,1.76-1.62-17.83-4.21-23.22-23.66-23.51-39.79-.25-13.07,7.66-20.13,17.6-27.38,1.58-1.16-.88-1.61-1.82-.92Z"/><path d="M387.92,631.78c2.76-5,5.63-10.14,12.13-10,6.27.12,10.51,4,14.74,8.21.82.82,3.57-.3,2.68-1.2-5-5-11.21-10.13-18.83-9.12-6.77.9-10.42,6.37-13.45,11.93-.72,1.32,2.2,1.17,2.73.19Z"/><path d="M309.15,620c-5.43-4.44-11.3-6.87-17.43-2.29s-9.51,12.14-10.65,19.42c-.22,1.39,2.74,1,2.93-.25a30.12,30.12,0,0,1,5.61-13.75c2.45-3.23,5.91-7,10.74-5.71,2.45.63,4.64,2.63,6.55,4.19.93.76,3.5-.59,2.25-1.61Z"/><path class="cls-3" d="M438.25,580.35a392.46,392.46,0,0,1,64.27-46.08,9.83,9.83,0,0,1,4.66-1.68,8.17,8.17,0,0,1,4.59,1.78c11.61,8.17,13,24.73,11.75,38.87a205.66,205.66,0,0,1-4.71,29.5c-1.85,7.92-4.39,16.09-10.16,21.82"/><path d="M439.38,580.47a400.15,400.15,0,0,1,36.86-28.8q10.25-7.06,20.93-13.47c4.55-2.72,9.67-6.41,14.85-2.06a25.06,25.06,0,0,1,6,7.59c6.16,11.77,4.71,26.37,3,39-1.82,13.83-3.71,31.26-13.75,41.85-.7.74,2.11.48,2.66-.1,5.42-5.72,8-13,9.91-20.51a198.18,198.18,0,0,0,4.72-27.26c1.36-13,1.88-28.9-7.49-39.34-3.74-4.17-8.26-6.83-13.65-4.37-7.67,3.5-15,8.75-22,13.37a397.32,397.32,0,0,0-44.33,33.83c-1.17,1,1.69.75,2.26.24Z"/><path class="cls-3" d="M221.42,624.4c-15.73-25.89-15.57-62.08-1.7-89a303.38,303.38,0,0,0,58.11,53.34"/><path d="M222.77,623.83c-15.73-26.49-15.42-61.17-1.7-88.41l-2.7.53a310.35,310.35,0,0,0,58.11,53.34c.84.59,3.49-.58,2.69-1.14a310.3,310.3,0,0,1-58.11-53.33c-.53-.64-2.35-.15-2.69.53-14,27.72-14.3,62.66,1.7,89.62.49.81,3.31-.1,2.7-1.14Z"/><path class="cls-2" d="M270.93,600.49c-6.44,2.1-13.26-1.5-18.88-5.29a176,176,0,0,1-23-18.52c-1.49,2.58-1.3,5.77-1,8.73a163.38,163.38,0,0,0,7.38,34.06"/><path d="M270.71,599.68c-8.43,2.14-16.42-4.28-22.82-8.94a183.06,183.06,0,0,1-17.53-14.65,2,2,0,0,0-2.7.52c-2.66,5.82-.7,13.19.32,19.2a170.44,170.44,0,0,0,6,24.05c.36,1.1,3.25.3,2.89-.78a171.79,171.79,0,0,1-5.33-20.43c-1.24-6.45-4-15.69-1.15-21.9l-2.7.52a181.34,181.34,0,0,0,22.46,18.15c6.38,4.33,13.19,7.86,21,5.88,1.76-.45,1.33-2.07-.44-1.62Z"/><path class="cls-2" d="M456,598.39a222.65,222.65,0,0,1,38.06-26.61c1-.56,2.28-1.11,3.27-.5a3.34,3.34,0,0,1,1.17,2.45c2.33,14.63,2.2,30.65-6,43"/><path d="M457.17,598.52a232.41,232.41,0,0,1,18.34-14.3q4.39-3.08,8.94-5.94,2.9-1.81,5.85-3.54c1-.61,2.07-1.2,3.1-1.79q1.56-1.85,2.63.15c2.3,1.74,2,8.22,2.19,10.92a74.44,74.44,0,0,1-.09,11.47,47.32,47.32,0,0,1-6.91,21.29c-.61,1,2.24.58,2.66-.09a49.17,49.17,0,0,0,7.27-23.46,82.47,82.47,0,0,0-.39-14.14c-.3-2.73.13-8.09-3.41-8.73-1.92-.35-4.13,1.15-5.67,2-4,2.2-7.91,4.63-11.75,7.11a228.81,228.81,0,0,0-25,18.79c-1.18,1,1.68.77,2.26.26Z"/><path d="M396.63,657a12.76,12.76,0,0,0,.82,13.58,2.87,2.87,0,0,0,2.43,1.47,2.6,2.6,0,0,0,1.32-.71c2.37-2.1,3-5.66,2.32-8.75a19.64,19.64,0,0,0-4.66-8.17c-.49-.57-1.15-1.19-1.88-1s-1.12,1.1-1.28,1.89a30.4,30.4,0,0,0,0,12"/><path d="M395.2,657.22a13.48,13.48,0,0,0-1.37,8.7c.45,2.35,1.77,6,4.39,6.61,4,.91,6.75-3.82,7-7.17.26-3.66-3.11-13.21-8-12.55-5.44.74-3.59,11.44-3,14.85.11.63,3,0,2.9-.77a32.62,32.62,0,0,1-.6-6.68c0-1.77-.27-5.71,1.52-6.79l-2.3.52c2.85.67,5.12,5.25,6,7.88.76,2.34,1.08,5.57-.41,7.7-2.43,3.48-4.22-2.33-4.61-4.38a13.07,13.07,0,0,1,1.33-8.41c.23-.45-2.48-.26-2.86.49Z"/><path d="M294.23,661.46c.36,5.79.86,12,4.43,16.55.7.91,1.88,1.8,2.9,1.26a2.57,2.57,0,0,0,1-1.56,16.38,16.38,0,0,0-4.35-16.61,2.05,2.05,0,0,0-1.55-.74,2.08,2.08,0,0,0-1.41,1.22,16.52,16.52,0,0,0-2.25,8.63"/><path d="M292.78,661.85c.35,5.38.6,14.1,5.49,17.71,4.53,3.36,6.44-3.1,6.51-6.43.09-4.23-1.92-11.68-6.39-13.49-5.27-2.14-6.75,7.7-6.81,10.7,0,1.41,2.9.92,2.93-.27a18.28,18.28,0,0,1,.7-5.09c.87-2.84,2.38-3,3.91-.7a16,16,0,0,1,2.61,10.81c-.26,2.1-1.51,2.9-2.71.88a19.21,19.21,0,0,1-2-5,51.12,51.12,0,0,1-1.29-9.86c-.08-1.19-3-.53-2.9.78Z"/><path class="cls-2" d="M345.08,691.37c2.5-.79,17.41-6.17,18.57-3.5.39.88-.19,2.58-.53,3.4-1,2.36-2.46,2.78-4.82,3.72-2.74,1.08-11.23,2.83-11.06-2.6,0-.46-2.87-.08-2.9.78-.15,5.06,7.69,4.51,11,4.1,3.69-.46,7.59-1.92,9.78-5.11,2-2.9,2.41-7.1-2-6.5-6.42.87-12.92,3.07-19.08,5-2,.63-.11,1.05,1,.69Z"/><path d="M215.48,791.55l-10.89,4.06,1.91.58,9.05-14.1a.43.43,0,0,0-.19-.7,29.64,29.64,0,0,0-20.31-1.12l1.07,1.09a51.51,51.51,0,0,0,12.19-10.31c.34-.39-.09-.71-.45-.78l-7.72-1.49c-.9-.17-7.46-.78-7.74-1.44-.77-1.81,6.18-7.35,7.73-9,5.17-5.52-4.12-7.21-8.38-9.05l-1,1.37a15.86,15.86,0,0,0,10-7.8c.32-.59-.28-.77-.77-.8a69.68,69.68,0,0,0-14,.32l.68,1.17c2.3-1.55,10.33-6.35,8.34-10.08-1.12-2.08-5.44-1.93-7.22-2.17l-5.77-.79c-1.51-.21-6,0-5.47-1.65s3.55-2,4.76-3.53a4.15,4.15,0,0,0,.57-4.53c-2.22-5.57-11.35-8.36-16.1-10.84l-1,1.38c3.54-.76,12.66-2.14,14.18-6.26.8-2.19-1-3.43-2.55-4.63a27.56,27.56,0,0,0-3-1.93,25.88,25.88,0,0,0-3-1.43c-.81-.73-.59-1.25.66-1.55,3.09-3.6,10.2-4,10-10.25-.09-2.79-2.63-4.54-3.33-7.11-1.16-4.23,1.12-9.5,5.52-10.87.34-.11,1.47-.51,1.26-1.08l-2.46-6.78c-.48-1.32-1.66-3.2-1.61-4.57.18-4.86,9.5-6.24,12.83-7.38.3-.1,1.28-.7.79-1.12C193,645.43,184,640.06,184,638.9c0-2.37,8-4.59,10-5.9,2.65-1.78,3.57-4.56,5.8-6.68,4.43-4.22,12.91-5.72,18.68-7.76,1.91-.67.17-1.58-1.13-1.12-5.26,1.86-10.55,3.67-15.8,5.57-2.69,1-4.79,1.83-6.19,4.42-1.25,2.31-1.7,3.88-4.09,5.34-1.53.93-3.29,1.49-4.88,2.28a12.35,12.35,0,0,0-5.63,4.76.44.44,0,0,0,.19.7,52.18,52.18,0,0,1,10.53,7l.79-1.12c-3.41,1.17-6.92,2.19-10.27,3.51-1.25.49-2.8,1-3.66,2.1-2.74,3.58,2.13,11.54,3.39,15l1.27-1.08c-4.78,1.49-8.44,5.49-8.35,10.73.06,3.73,4.21,6.87,3.5,10.37-1,5-8.18,6.62-11.51,10-.25.25-.49.72,0,.9,1.69.61,8.08,2.78,8.48,4.71.44,2.18-2.32,4.63-3.89,5.5-1.77,1-4.68,1.42-6.72,1.86-.45.1-1.91.88-1,1.37,3.49,1.82,15.72,5.93,15.79,10.81,0,1.66-2.3,3.91-3.53,4.74-.57.39-1.2.56-1.76,1a4.74,4.74,0,0,0-2,2.58c-.12.33.3.54.55.57l12.51,1.71,2.89.4q3.17-.54,2.06,2.86c.76,1.72.37,3-1.14,3.8a30.3,30.3,0,0,1-4,3c-1,.68-.3,1.29.69,1.17a66,66,0,0,1,13.26-.28l-.77-.81a12.14,12.14,0,0,1-7.71,6.45c-.37.11-2,.94-1,1.38l4.73,2c3.14,1.36,5.06,2.47,2.4,6.5-2,3-5.64,5.78-8.15,8.35-.4.41-.39.86.26,1q3.87.69,7.74,1.42c1.85.34,5.15.33,6.76,1.29,2.61,1.56-.28,2.85-2.16,4.5a46.7,46.7,0,0,1-6.68,4.83c-1.35.83.17,1.36,1.08,1.09,2.85-.83,16.26-3,16.44,2,0,1.4-3.24,5-4,6.27l-4,6.26c-.67,1.06,1.52.72,1.91.58l10.88-4.07c1.9-.71.17-1.6-1.12-1.12Z"/><path d="M275.83,582.32l-2.43-29.63-2.79,1,15.78,13.08c.73.6,2.53.23,2.79-.75a90.25,90.25,0,0,0,3-18.61l-2.6.89,16,10.33c.68.44,2.44,0,2.6-.89l3.37-18.11-2.6.9,14.73,6.79a2.06,2.06,0,0,0,2.59-.9,97.58,97.58,0,0,0,4.78-20l-2.8.75a99.62,99.62,0,0,0,14,16.87,2.06,2.06,0,0,0,2.7-.52,142.87,142.87,0,0,0,7.31-15.73l-2.9.55A78.61,78.61,0,0,0,361,545.64c.69.78,2.48.09,2.8-.75a83.62,83.62,0,0,1,12.27-21.64l-2.8.33c1.37,7.38,2.93,14.55,7.06,20.93.53.82,2.28,0,2.7-.52l13.89-18.93-2.81.33a65,65,0,0,0,3.94,19.7c.34.93,2.13.41,2.62-.11l14.63-15.4-2.63-.11a99.16,99.16,0,0,0-2.74,23.59c0,1.27,2.1.55,2.63.11A104.08,104.08,0,0,0,426,539.76l-2.81.1c-.43,4.64-1.37,9.52-1.33,14.18,0,2.17.2,3.71,2.65,4,1.64.19,3.06-.89,4.28-1.84,4.16-3.27,8-7.14,11.91-10.66l-2.62-.11c-1.5,4.37-3.59,8.9-4.55,13.43-.41,1.93-.62,4.24,1.23,5.52a5.54,5.54,0,0,0,4,.5c4.43-.59,8.91-2.13,13.26-3.19l-1.67-.62-4.53,11.71c-.39,1,2.51.68,2.91-.33l4.53-11.71c.32-.83-1.38-.69-1.66-.62-3.15.77-15.88,5.61-15.35-.4.43-4.83,3.21-10.07,4.77-14.63.42-1.21-2.27-.42-2.62-.11-2,1.76-10.95,12-13.59,8.73-.63-.78.56-6,.66-7.08l.67-7.09c.13-1.4-2.39-.39-2.81.11a101.78,101.78,0,0,1-13,13l2.63.11a99.16,99.16,0,0,1,2.74-23.59c.29-1.21-2.24-.52-2.63-.11l-14.62,15.39,2.62-.11A64.38,64.38,0,0,1,397,524.62c0-1.15-2.48-.12-2.81.33l-13.89,18.92,2.7-.52c-4-6.24-5.5-13.34-6.84-20.54-.22-1.16-2.43-.16-2.81.32a85.47,85.47,0,0,0-12.47,22.1l2.8-.75a76.88,76.88,0,0,1-11.37-16.91c-.53-1.06-2.56-.32-2.9.56a140.37,140.37,0,0,1-7.12,15.28l2.7-.52A98.69,98.69,0,0,1,331,526c-.51-.77-2.69-.11-2.8.75a97.22,97.22,0,0,1-4.77,20l2.6-.9L311.32,539c-.72-.33-2.42-.06-2.6.89L305.36,558l2.59-.9-16-10.33c-.61-.39-2.55,0-2.6.9a89.57,89.57,0,0,1-3,18.61l2.79-.75L273.3,552.5c-.72-.6-2.89-.2-2.8,1l2.43,29.63c.08,1,3,.39,2.9-.78Z"/><path d="M510.26,629a97.23,97.23,0,0,1,11.94,1c.95.14,12.61,1.47,13.21,3,.49,1.26.9.36-1.29,1.7q-2.31,1.41-4.58,2.88c-3.53,2.29-7,4.7-10.36,7.2-.69.51,0,.78.52.77,6.82-.22,14.35.08,20.89,2.23,3.91,1.28.21,2.15-2,3.41l-9.14,5.16c-.29.17-.95.64-.32.88A49.76,49.76,0,0,1,545.34,667l2-1.18a78.42,78.42,0,0,0-16.83,3.27c-.11,0-1.8.65-1.21,1a101,101,0,0,0,18,9.81l1.78-1.27a43.5,43.5,0,0,0-20.17,5.95c-.13.08-.91.56-.5.78a69.08,69.08,0,0,0,13.37,5.76l1.42-1.23-10.85,2.21c-.29.06-2.47.87-1.42,1.23,1.87.64,12.53,4.88,11.14,8.05-.49,1.11-5.9,2.65-7.1,3.19l-8.89,4c-.36.16-.9.61-.32.87,3.37,1.51,6.7,3.1,10,4.84,1.2.64,3.3,1.27,4.11,2.28,2,2.52-1.72,3.75-3.85,4.27-2.35.57-5.14,1.34-6.78,3.27-2.64,3.1.19,5.79,1.36,8.87,3,8-1.68,17.62-10.92,18.31-.27,0-2.91.93-1.78,1.27,2.13.64,4.55,1.43,5.8,3.4,2.42,3.84-2.93,6.21-5.72,7.8q-7.38,4.22-14.79,8.41c-.25.14-1,.68-.32.87,2.3.66,4.72,1.17,7,2,3.39,1.25,1.48,1.27-1,2.36A137,137,0,0,1,494,783c-1.66.52-1.42,1.61.28,1.07a150.65,150.65,0,0,0,21-8.33c.27-.14,1-.69.32-.88-2.27-.65-5.94-.9-7.84-2.24-1.42-1-1.29,0-.47-1.28.44-.71,2.54-1.44,3.28-1.86,4.38-2.49,9-4.8,13.19-7.53,6.47-4.17,2.19-8.83-3.58-10.56l-1.79,1.26c8.11-.6,15.59-5.91,15.94-14.63a15.28,15.28,0,0,0-1.84-7.78c-2.43-4.77-1.69-6.61,4.47-8.43,3.29-1,6.11-1.47,8-4.52A.22.22,0,0,0,545,717c-2.7-1.6-5.42-3.15-8.2-4.59-1.14-.59-6.67-2.5-6.94-3.38-.46-1.47,4.46-2.81,6-3.48l9.77-4.38c.26-.12.8-.47.51-.79a30.84,30.84,0,0,0-12.79-8.21l-1.42,1.22,10.85-2.21c.28-.05,2.48-.9,1.43-1.23s-12.64-4-12.1-5.62c.34-1,6.22-2.71,6.86-2.9a37.31,37.31,0,0,1,9-1.43c.32,0,2.89-.8,1.78-1.26A99.55,99.55,0,0,1,532,669.13l-1.22,1a72,72,0,0,1,15.32-3c.3,0,2.62-.59,2-1.18a50.3,50.3,0,0,0-12.86-8.52c-.82-.37-2.28-.56-2.39-1.57,0-.35,3.81-2.16,4.15-2.35l9.13-5.16c.27-.15,1-.68.33-.88a77.05,77.05,0,0,0-21.58-3.39c-.84,0-1.77.11-2-.25-.08-.14,3.81-2.71,4.41-3.13,3.87-2.66,7.85-5.17,11.89-7.57.27-.16,1-.66.33-.87a96.75,96.75,0,0,0-27.41-4.64c-.7,0-3.32,1.28-1.85,1.31Z"/><path d="M687.84,215l-29.12,4.65c-9.29,1.49-19.65,2.75-27.36-2.63-7.42-5.16-10-14.79-12-23.6-2.52-11-5.07-22.19-4.59-33.48l.72.2c3.73-7.93,12.71-11.89,21.22-14A96.2,96.2,0,0,1,700,152.43c3.59,1.69,7.29,3.8,9.11,7.33a16.37,16.37,0,0,1,1.3,8.47c-.62,10.42-5,20.19-9.37,29.68-2,4.43-4.13,9-7.54,12.43s-8.49,5.74-13.21,4.53"/><path class="cls-2" d="M661.05,157.28c3.93,20.5,7.75,40.06,3.77,60.92-.16.84,2.71.36,2.87-.45,4-20.93.21-40.65-3.74-61.25-.14-.76-3.06-.07-2.9.78Z"/><path class="cls-2" d="M701,180.13a13.08,13.08,0,0,0-18.8.13c-4.77,5.05-7.19,16.59-1.88,22,3.74,3.81,12.69,3.3,13.6-3,.46-3.16-2.14-5.84-5-6.62-3.3-.91-6.48.57-9.2,2.3-1.65,1,.69,2.25,1.95,1.45l7.7-.71-5.78,5.8c-1.48-.4-2.61-3.54-2.93-4.9-.75-3.18.07-6.94,1.06-10,2.54-7.77,10.9-10.75,17.08-4.71,1,1,3.45-.54,2.21-1.75Z"/><path class="cls-2" d="M628.25,192.55c.71-8.41,7.7-15.66,16.77-13.41,6.25,1.55,10.4,7,11.51,13.17.89,5-.46,13.62-4.51,17.33-1.7,1.55-7.9,3.73-9.78,1.75a5.8,5.8,0,0,1-1.12-4.52c.41-4.24,4-6.77,7.39-8.79,1.66-1-.93-1.1-1.73-.62-3.78,2.25-8.15,5.13-8.64,9.93-.41,4,2.29,6.9,6.19,7.23,9.13.78,14.5-9.86,15.25-17.51,1-9.91-5.53-19.42-15.92-19.86A17.28,17.28,0,0,0,625.38,193c-.09,1,2.8.38,2.87-.44Z"/><path d="M40.53,64C44.88,81.68,52,99,62.31,114.1c3.21,4.68,9.63,14,16.13,14.1,5.85.11,5.54-7.63,5.86-11.76.08-1-2.81-.39-2.88.44-.23,3,.33,10.18-4.54,8.49-2.54-.89-5.3-4.2-7-6.12-4.56-5-8.08-11-11.34-17a161.19,161.19,0,0,1-15.08-39c-.2-.83-3.11-.09-2.9.77Z"/><path d="M54.16,116.6A167,167,0,0,1,67.79,98.69c.71-.82-2.12-.55-2.66.07A166.71,166.71,0,0,0,51.5,116.67c-.64,1,2.21.61,2.66-.07Z"/><path d="M67.2,64.08Q80,92.7,94.19,120.66c.44.88,3.06.24,2.89-.78a168,168,0,0,1-2.59-20.72c-.1-2.6-1.18-9.75,1.5-11.15,2.23-1.17,5.23,3.63,6.55,5.56,1.8,2.66,2.57,5.6,4.09,8.34.7,1.28,1.25,2.25,2.8,2.54a3.79,3.79,0,0,0,4.24-2.27c.33-.88-2.54-.54-2.89.39-.15.39-2.1-3.68-2.29-4.12A35.5,35.5,0,0,0,106.23,94,32.36,32.36,0,0,0,101,87.38c-1.92-1.84-4-3.36-6.66-1.79-3.75,2.24-2.86,8.81-2.8,12.45.15,7.61,1.41,15.14,2.66,22.62l2.89-.78Q82.89,91.94,70.1,63.3c-.43-.95-3.27,0-2.9.78Z"/><path d="M118.94,89.58a47,47,0,0,0,4.77-14.2c.36-2.33.67-5.46-1.47-7-4.91-3.66-8.77,3.49-8.86,7.36-.13,6.76,3.77,13.85,10.56,15.74A14.79,14.79,0,0,0,139,87.06c.75-.87-2.11-.63-2.68,0-8.11,9.29-19.22-1.18-20-10.27a9.38,9.38,0,0,1,.11-3.7c.47-1.18,3.59-2.48,4.36-1.65,1,1.09,0,4.64-.28,5.89A49.09,49.09,0,0,1,116.06,90c-.36.71,2.45.45,2.88-.41Z"/><path d="M105.71,181.57a120.76,120.76,0,0,0-4.52-53.83c-.39-1.24-2.76-.63-2.91.5a95.55,95.55,0,0,0,7.61,52.21c2.41,5.27,5.89,12.74,12.08,14.41s7.83-6.88,9.65-11c.66-1.51-2.25-1.49-2.76-.32l-2.1,4.78c-1,2.2-.75,3-3.36,3.35-3.5.48-5.83-3.29-7.52-6a75.37,75.37,0,0,1-7.68-18.2,94.86,94.86,0,0,1-3-39.43l-2.91.51a119.6,119.6,0,0,1,4.48,53.28c-.21,1.45,2.75,1.06,2.93-.23Z"/><path d="M139.63,161.84c1-3.1.88-6.53-1.45-9.05-1.29-1.4-3.45-2.45-5.25-1.06-2.47,1.91-2.5,8-2.61,10.77a35.55,35.55,0,0,0,2.27,14.19c.77,2,1.76,5.33,4.36,5.61,2.32.25,3.51-1.8,4.19-3.62,3.53-9.54,1.58-21.68-2.13-30.8l-2.77,1,10.16,19.93c.59,1.15,3.35.08,2.65-1.28l-10.16-19.93c-.53-1-3.25-.14-2.77,1a48.63,48.63,0,0,1,3.57,14.87,46,46,0,0,1-.16,8.46,28.07,28.07,0,0,1-.52,3.41c-.39,1.62-.53,5.39-2.34,3.12-2.93-3.68-3.51-11-3.45-15.4,0-2,0-4.7.76-6.63,2-5.27,3.68,2.49,2.88,5-.52,1.6,2.37,1.58,2.77.35Z"/><path d="M145.3,138.34a254.06,254.06,0,0,1,14.29,25.06l2.78-1c-5.65-4.88-8-12.12-9.42-19.24-.64-3.06-2-9.38.71-12,4.16-4,3.23,4.8,3.19,6.23,0,1.88-.25,3.74-.4,5.61-.29,3.61-1.23,9.55,4.15,9.11s11.51-5,15.52-8.49c1.29-1.11-1.56-1.3-2.36-.61-2.61,2.24-14.53,11.35-14.68,3.41-.08-3.81.77-7.61.7-11.43-.06-4.18-1.27-11-6.65-6.68-5.12,4.1-4,11.78-2.69,17.3,1.58,6.72,3.9,13.32,9.26,17.95.59.51,3.32.11,2.78-1A256.83,256.83,0,0,0,148,137.16c-.59-.9-3.39.09-2.68,1.18Z"/><path d="M188.82,120.07c.34-5.25-2.27-13.89-9.36-10.47-6.42,3.09-6.23,13.52-4.19,19.14,1.53,4.22,7.21,11,12.11,6.71,5.64-4.91,2.38-15.33-1.8-19.87-.72-.78-3.39-.29-2.77,1,4.46,9.64,9.49,19.21,13.23,29.16,1.89,5,3.24,10.31,2.84,15.71a22.17,22.17,0,0,1-1.88,7.6c-.52,2.49-2,3.34-4.49,2.53q-2.94,1.47-3.58-.91a9.79,9.79,0,0,1-1.22-3.42c-.36-1.42-3.26-.65-2.9.78,1.06,4.14,3.64,9,8.79,7.66s7.4-8.1,8.05-12.79c1.07-7.66-1.42-15.19-4.42-22.13-3.64-8.4-7.68-16.66-11.53-25l-2.77,1.05a15.21,15.21,0,0,1,4.31,10.71,15,15,0,0,1-.31,2.75q.13,3.21-2.91,2.67c-1.75.87-3,.39-3.87-1.43a13.82,13.82,0,0,1-2-3.64,19.2,19.2,0,0,1-.34-12.41c.82-2.31,2.48-5.56,5.73-3.7,2.77,1.58,2.49,5.77,2.32,8.4-.1,1.57,2.85,1.22,2.94-.18Z"/><path d="M197.79,116.29a60.44,60.44,0,0,0,6.66-13.06c.88-2.43,2.53-6.74-.11-8.72-5-3.77-10,4.82-11,8.46-1.87,6.75.26,17.18,7.73,19.77,7.16,2.49,13.17-4.3,18.37-7.88,1.29-.89-1.61-.86-2.3-.38-1.69,1.16-3.2,2.56-4.87,3.75-5.44,3.89-10.79,3.53-14-1.33A17.79,17.79,0,0,1,196,103.27c.43-1.83,1.33-5.23,2.94-6.31,1.39-.94,3.33-.5,3.82.82.34.9-.2,2.5-.42,3.43-1.29,5.36-4.26,10.54-7.27,15.08-.69,1,2.19.74,2.68,0Z"/><path d="M4.24,442.46c-.48-1.4-.35-1.17-1.59-2-.52-.35-3,.2-2.6,1.1l12.07,23.92c3.39,6.72,6.3,14.28,10.88,20.31,8.84,11.61,10.8-11.49,10.29-16.93-.1-1-3-.34-2.9.78a36,36,0,0,1-.31,9.83c-.26,1.42-.9,6.24-2.1,7-1.85,1.18-7.56-11.06-8.65-13.23L3,440.79l-2.6,1.1,1,1.34c.36,1,3.24.21,2.89-.77Z"/><path d="M15,479.67a96.77,96.77,0,0,1,8.12-16.77c.15-.26-2.43-.17-2.86.54a97.1,97.1,0,0,0-8.11,16.77c-.16.42,2.59.17,2.85-.54Z"/><path d="M27.14,430.93q10.28,26,22.2,51.22c.39.83,3.13.11,2.89-.78-1.15-4.24-2.31-8.5-3-12.84a54.54,54.54,0,0,1-.73-6.5c-.07-1.48-.76-6.14.43-7.53,4-4.68,13.82,15.41,14.92,18.28.34.89,3.2,0,2.9-.78a53.77,53.77,0,0,0-9.31-15.88c-2.09-2.43-4.75-6.22-8.43-4.75-3.38,1.35-3.41,5.56-3.46,8.64-.12,7.55,1.87,14.91,3.84,22.14l2.89-.78Q40.32,456.13,30,430.16c-.35-.89-3.21,0-2.9.77Z"/><path d="M75.12,457.38a19.31,19.31,0,0,0,2.9-7.53c.31-2.13.72-5.69-.74-7.47-1.93-2.35-5-.31-5.71,2-1.5,4.92.36,12.36,4.47,15.59s9.38,1.26,13.55-.54c1.86-.8.13-1.47-1.08-1-3,1.31-6.86,2.69-9.76.42a10.16,10.16,0,0,1-2.47-3,17.68,17.68,0,0,1-2.16-8.32c-.09-6.05,1.27-2.72,1.2.62a18.23,18.23,0,0,1-2.86,9.26c-.63,1,2.23.63,2.66-.07Z"/><path d="M46.39,519.92c-2.92-6.63-12,9-12.7,11.09-1.43,4.12-2.31,9,2.15,11.52a13.87,13.87,0,0,0,5.92,1.32c2.39.15,2.79-.38,4.41,1.88,1.89,1.41,1.71,2.73-.57,3.95-1,1.69-2.35,2.12-3.92,1.27,1.26-1-1.62-1-2.31-.42-2.32,1.91.37,3.35,2.46,3,3-.48,9.74-5,9.62-8.56-.15-4.14-10.3-2.59-12.62-3.7-4.68-2.23-3.56-7.31-2-11.39.38-1,6.09-10.48,6.65-9.2.43.95,3.27,0,2.9-.78Z"/><path d="M51.46,516.58a248.58,248.58,0,0,1,12.35,23.54l2.89-.77A42.44,42.44,0,0,1,62,517.8c.07-1.23-.14-3.66.55-4.69,1.42-2.09,3.6.4,4.63,1.7A25.53,25.53,0,0,1,72,525.25c.24,1,2.91.24,2.9-.78a38.2,38.2,0,0,1,1.72-12.39c.61-1.91,1.36-5.64,3-6.8,3.1-2.23,4.76.39,6,2.9a22.43,22.43,0,0,1,2.36,8.9c.11,1.75-.37,3,1.55,3.4a2.46,2.46,0,0,0,2.24-.75l.32-.48c.75-1.08-2.15-.84-2.69-.06l-.33.47,2.23-.75c-.82-.15-.6-4.72-.78-5.68A22.16,22.16,0,0,0,87.71,506c-1.52-2.53-3.44-5.2-6.75-4.29-3,.84-4.56,4.2-5.73,6.79A38.94,38.94,0,0,0,72,525.25l2.9-.78c-1-4.37-6.93-19-13.74-13.73-3,2.31-2.27,8.51-2.13,11.8a43,43,0,0,0,4.79,17.58c.49,1,3.3.11,2.89-.77a249.25,249.25,0,0,0-12.55-23.9c-.48-.82-3.31.1-2.69,1.13Z"/><path d="M108.69,494.3c1.1-4.78-4.64-6.36-8-4.21-4.24,2.72-5.63,10.63-4.61,15.25s5,5.87,7.55,1.82a32.76,32.76,0,0,0,3.76-9.4c.22-.85.4-1.71.62-2.56.3-1.11-.83-1.2.75-.21a61.89,61.89,0,0,1,5.39,4.33c1.08.87,3.55-.67,2.21-1.74-1.79-1.45-3.58-2.91-5.38-4.34-.89-.7-1.76-1.61-3-1.56-2.57.09-2.75,3-3.22,4.91a41,41,0,0,1-2.16,6.77c-.4.93-.85,2.46-1.64,3.1q-.86,2.25-1.73-.9l-.27-1c-.49-2.15,0-4.64.43-6.76a15.5,15.5,0,0,1,1-3.67c1.14-2.41,6.26-3.74,5.31.35-.34,1.49,2.63,1.18,3-.18Z"/><path d="M110.35,442.15q8,27.9,14.08,56.29c.16.74,3.07,0,2.9-.77q-6-28.4-14.08-56.29c-.22-.77-3.12,0-2.9.77Z"/><path d="M118.88,444.07q8,26.19,17.4,51.94c.34.95,3.22.11,2.9-.77q-9.37-25.75-17.4-51.95c-.29-.94-3.18-.14-2.9.78Z"/><path d="M43.93,584.3c3.88,20.88,17.4,37.93,34,50.49,16.09,12.15,33.32,21.11,54,18,1.45-.22,2.34-2.07.35-1.77-20.92,3.17-38.77-7-54.59-19.64C62.52,619.18,50.44,603,46.82,583.52c-.2-1.1-3.11-.38-2.89.78Z"/><path d="M85.45,633.5a83.68,83.68,0,0,0,40.39,19.72c.66.12,3.13-1,2.4-1.08a83,83,0,0,1-40.06-19.6c-.55-.49-3.11.63-2.73,1Z"/><path d="M80.6,647.32c17.56,5.06,35.67,9.87,54,6,.26-.06,2.45-.86,1.44-1.17l-2.67-.83c-.69-.22-3.28.89-2.37,1.17l2.67.83,1.44-1.17c-17.65,3.77-35.2-1.1-52.12-6-.7-.21-3.27.91-2.36,1.17Z"/><path d="M204.61,54.74C222.07,36.51,250,27.36,274.8,27c28.73-.48,55.76,14.44,77.35,32.25L354.66,58l-5.08-1.87c-.81-.29-3.44.92-2.33,1.32l5.09,1.87c.51.19,3.34-.52,2.51-1.21-23.23-19.16-52.17-34.33-83.06-32.5-25,1.49-52.26,10.79-69.86,29.16-.77.81,2.08.61,2.68,0Z"/><path d="M320.66,53.66a51.2,51.2,0,0,1,29.79,4c.52.24,3.27-.46,2.52-1.18a47.78,47.78,0,0,1-11.54-17.5c-.35-.89-3.21,0-2.9.78a48.46,48.46,0,0,0,11.73,17.79l2.52-1.18a54.47,54.47,0,0,0-31.68-4.07c-1.29.21-2.46,1.74-.44,1.4Z"/></g></g></svg>