<?xml version="1.0" encoding="UTF-8"?>
<svg width="16px" height="17px" viewBox="0 0 16 17" version="1.1" xmlns="http://www.w3.org/2000/svg" xmlns:xlink="http://www.w3.org/1999/xlink">
    <!-- Generator: Sketch 52.6 (67491) - http://www.bohemiancoding.com/sketch -->
    <title>data</title>
    <desc>Created with Sketch.</desc>
    <g id="Welcome" stroke="none" stroke-width="1" fill="none" fill-rule="evenodd">
        <g id="Desktop_rez_new_2" transform="translate(-249.000000, -5314.000000)" fill="#FF78A0" fill-rule="nonzero">
            <g id="data" transform="translate(249.000000, 5314.000000)">
                <path d="M12.2033898,0 L1.3559322,0 C0.607457627,0.000881355932 0.000881355932,0.607457627 0,1.3559322 L0,10.0338983 C-6.77966102e-05,10.6523729 0.418372881,11.1924746 1.01722034,11.3469831 L1.15281356,10.8219661 C0.793389831,10.7292881 0.542237288,10.4050847 0.542372881,10.0338983 L0.542372881,1.3559322 C0.542372881,0.906610169 0.906610169,0.542372881 1.3559322,0.542372881 L12.2033898,0.542372881 C12.6527119,0.542372881 13.0169492,0.906610169 13.0169492,1.3559322 L13.0169492,1.62711864 L13.559322,1.62711864 L13.559322,1.3559322 C13.5584407,0.607457627 12.9518644,0.000881355932 12.2033898,0 Z" id="Shape"></path>
                <rect id="Rectangle-path" x="1.08474576" y="1.08474576" width="1" height="1"></rect>
                <rect id="Rectangle-path" x="2.16949153" y="1.08474576" width="1" height="1"></rect>
                <rect id="Rectangle-path" x="3.25423729" y="1.08474576" width="1" height="1"></rect>
                <path d="M15.9205424,14.9947119 L13.348339,12.4225085 C13.4834576,12.181322 13.5915254,11.9259322 13.6705085,11.6610169 L14.1016949,11.6610169 L14.1016949,11.1186441 L13.7871186,11.1186441 C13.8892542,10.4622034 13.8105085,9.79033898 13.559322,9.17532203 L13.559322,6.50847458 L13.0169492,6.50847458 L13.0169492,8.23538983 C12.8558983,8.02966102 12.6741695,7.84101695 12.4745763,7.67240678 L12.4745763,5.42372881 L11.9322034,5.42372881 L11.9322034,7.29328814 C11.7586102,7.19267797 11.5772203,7.1060678 11.3898305,7.03430508 L11.3898305,4.33898305 L10.8474576,4.33898305 L10.8474576,6.86969492 C10.6687458,6.83111864 10.4874915,6.80566102 10.3050847,6.79349153 L10.3050847,4.88135593 L9.76271186,4.88135593 L9.76271186,6.79349153 C9.58030508,6.80566102 9.39905085,6.83111864 9.22033898,6.86969492 L9.22033898,5.96610169 L8.6779661,5.96610169 L8.6779661,7.03430508 C8.49057627,7.1060678 8.30922034,7.19267797 8.13559322,7.29328814 L8.13559322,5.69491525 L7.59322034,5.69491525 L7.59322034,7.67240678 C7.39362712,7.84101695 7.21189831,8.02966102 7.05084746,8.23538983 L7.05084746,6.23728814 L6.50847458,6.23728814 L6.50847458,9.17532203 C6.25728814,9.79033898 6.17854237,10.4622034 6.28067797,11.1186441 L2.71186441,11.1186441 L2.71186441,11.6610169 L6.39728814,11.6610169 C6.9920678,13.6671864 9.10054237,14.811322 11.106678,14.2165424 C11.502,14.099322 11.8755593,13.9183729 12.2126102,13.6808136 L14.7235254,16.1917288 C14.8294237,16.2975932 15.0010847,16.2975932 15.1069831,16.1917288 L15.9205424,15.3781695 C16.0264068,15.2722712 16.0264068,15.1006102 15.9205424,14.9947119 Z M10.0338983,13.8305085 C8.23742373,13.8285763 6.78159322,12.3727458 6.77966102,10.5762712 C6.77966102,8.77901695 8.23664407,7.3220339 10.0338983,7.3220339 C11.8311525,7.3220339 13.2881356,8.77901695 13.2881356,10.5762712 C13.2881356,12.3735254 11.8311525,13.8305085 10.0338983,13.8305085 Z M14.9152542,15.6165424 L12.6340339,13.335322 C12.7818305,13.195661 12.9183051,13.0445085 13.0421695,12.8832542 L15.3453559,15.1864407 L14.9152542,15.6165424 Z" id="Shape"></path>
                <path d="M10.0338983,7.86440678 C8.53616949,7.86440678 7.3220339,9.07854237 7.3220339,10.5762712 C7.3220339,12.074 8.53616949,13.2881356 10.0338983,13.2881356 C11.5316271,13.2881356 12.7457627,12.074 12.7457627,10.5762712 C12.7441356,9.07922034 11.5309492,7.8660339 10.0338983,7.86440678 Z M10.0338983,12.7457627 C9.25979661,12.7447797 8.54488136,12.3313898 8.15783051,11.6610169 L11.9099661,11.6610169 C11.5229153,12.3313898 10.808,12.7447797 10.0338983,12.7457627 Z M7.93572881,11.1186441 C7.71752542,10.2928814 8.00888136,9.41627119 8.6779661,8.88542373 L8.6779661,10.5762712 L9.22033898,10.5762712 L9.22033898,8.56650847 C9.39423729,8.49613559 9.57657627,8.44874576 9.76271186,8.42549153 L9.76271186,10.5762712 L10.3050847,10.5762712 L10.3050847,8.42549153 C10.4912203,8.44874576 10.6735593,8.49613559 10.8474576,8.56650847 L10.8474576,10.5762712 L11.3898305,10.5762712 L11.3898305,8.88542373 C12.0589153,9.41627119 12.3502712,10.2928814 12.1320678,11.1186441 L7.93572881,11.1186441 Z" id="Shape"></path>
                <path d="M13.8305085,2.16949153 L2.98305085,2.16949153 C2.23457627,2.17037288 1.628,2.77694915 1.62711864,3.52542373 L1.62711864,12.2033898 C1.628,12.9518644 2.23457627,13.5584407 2.98305085,13.559322 L6.50847458,13.559322 L6.50847458,13.0169492 L2.98305085,13.0169492 C2.53372881,13.0169492 2.16949153,12.6527119 2.16949153,12.2033898 L2.16949153,3.52542373 C2.16949153,3.07610169 2.53372881,2.71186441 2.98305085,2.71186441 L13.8305085,2.71186441 C14.2798305,2.71186441 14.6440678,3.07610169 14.6440678,3.52542373 L14.6440678,12.2033898 C14.6440339,12.4015254 14.5717288,12.5928136 14.440678,12.7414237 L14.8474576,13.1002034 C15.0660339,12.8526102 15.1865763,12.533661 15.1864407,12.2033898 L15.1864407,3.52542373 C15.1855593,2.77694915 14.5789831,2.17037288 13.8305085,2.16949153 Z" id="Shape"></path>
                <rect id="Rectangle-path" x="2.71186441" y="3.25423729" width="1" height="1"></rect>
                <rect id="Rectangle-path" x="3.79661017" y="3.25423729" width="1" height="1"></rect>
                <rect id="Rectangle-path" x="4.88135593" y="3.25423729" width="1" height="1"></rect>
                <rect id="Rectangle-path" x="3.25423729" y="8.94915254" width="1" height="1.62711864"></rect>
                <rect id="Rectangle-path" x="4.33898305" y="7.3220339" width="1" height="3.25423729"></rect>
                <rect id="Rectangle-path" x="5.42372881" y="8.13559322" width="1" height="2.44067797"></rect>
            </g>
        </g>
    </g>
</svg>