<svg xmlns="http://www.w3.org/2000/svg" viewBox="0 0 647.98 852.17"><defs><style>.cls-1{fill:#ffc402;stroke:#ffc402;}.cls-1,.cls-2{stroke-miterlimit:10;}.cls-2{fill:#c60c1f;stroke:#c60c1f;}</style></defs><title>Revolution_3</title><g id="Слой_2" data-name="Слой 2"><g id="Слой_1-2" data-name="Слой 1"><path class="cls-1" d="M235.28,251.2s5,1,9,7,10,30,9,31-11,4-15,6-13,4-17,5a32,32,0,0,1-7,1Z"/><path class="cls-1" d="M255.28,209.2s6,1,10,4,12,10,16,12,17,6,22,6,25.28,5.34,26.64,5.17,22.36,7.83,22.36,7.83-6,10.53-8,12.27-12,12.73-21,15.73S305,280,301.61,280.6s-16.43,2.28-17.88.44-16.45-26.84-16.45-32.84-3.43-25.7-3.43-25.7Z"/><path class="cls-1" d="M27.28,324.2c4-6,14.82-16.44,22.91-18.72s17.09-5.28,21.09-7.28,11-14,19-17,31-16,36-18,25-10,36-11,23-9,26-12,13-14.63,16.52-16.31,13,.11,16.25.21a16.36,16.36,0,0,0,6.79-1.75,13.69,13.69,0,0,0-.56,2.85c0,1-4,2-4,5s2,3,1,6,2.17,8.41,3.08,8.7a1.75,1.75,0,0,1,1.11,1.24L202.28,305.2h-9a34.27,34.27,0,0,0-12,5,68.51,68.51,0,0,0-15,14c-3,4-8,5-13,5s-4.24-1.19-9.62,2.91-23.17,29.77-23.17,29.77-3,6-14.6,7.67-14.61,4.65-14.61,5.65-2,6-2,6-5-7-11-7-21,4-22,4-8-4-10-3-4,3-6,3-13-3-12-7,1-9,3-9,5-1,2-4-11-18-10-22S27.28,324.2,27.28,324.2Z"/><path class="cls-1" d="M318.28,60.2s4.84,4.15,7.92,5.58,22.72,9.88,26.4,10.65S373.28,87.2,379.28,93.2s7,6,7,6-3,23-6,28-12,35-12,35-5,12-5,18a108,108,0,0,1-.64,11.36s-15.36-15.36-25.36-18.36-30-7.3-35-9.15-24-8.85-23-11.85S318.28,60.2,318.28,60.2Z"/><path class="cls-2" d="M184.28,348.2l18-43s-11-.31-18,4.34-14,11.66-20,17.66-9,1-15,3-11,7-17,16-10,15-14,19-10,4-15,5-13,5-13,9,4,14,4,14,7,0,11-4,1.14-6.42,8.57-7.71,11.43-2.29,14.43-1.29,10.71-.43,15-3c5-3,5.53-10.64,2-13-6-4,.89-9.38,7-12,7-3,10.41-2.57,13-3C173.23,347.88,184.28,348.2,184.28,348.2Z"/><path class="cls-2" d="M254.28,291.2s0-2-9,2-21,8-26,8-6,4-6,4l-20,47s10,7,19,7,21-7,31-11,22-9,28-7c0,0-8-17-10-23S254.28,291.2,254.28,291.2Z"/><path class="cls-2" d="M273.43,138s-32.07,25.19-51.11,34.68-30.66,15-35.85,18.25-40.19,24.24-46.19,27.24-31,14-43,17-29.82,6.71-35.41,10.36S27.61,268.42,22,270.31,1.28,280.2,1.28,280.2s0,4,9,5l3,1,2,5s3,0,4-2,3-4,4-3,2.44,4.91,2.22,8.95a15.92,15.92,0,0,0,4.64,12.71c4.14,4.34,3.36,8.1,3.36,8.1s9-7.86,14.38-9.81,14.4-5.95,20.4-7.95,11-10,11-10l15.9-10.48,22.07-10.48s22-11,28-12,25-5,30-8,18.64-10.5,24-18c5-7,7.06-8.5,17-6s12-2,14-6,3-4,3-4,0-5,2-6,4-2,6-1a12.38,12.38,0,0,1,3,2l2-5Z"/><path d="M235,213a5,5,0,0,1,.88-4.56c1.08-1.17,2.91-1.38,4.4-1.49.95-.07,1-1.57,0-1.5-2,.15-4.31.52-5.67,2.18a6.54,6.54,0,0,0-1.06,5.77A.75.75,0,0,0,235,213Z"/><path class="cls-2" d="M341.28,6.2s-2,9,11,19,30.47,18,36.23,22.52,4.77,12.48,4.77,12.48l-6,38S369.82,83,361.55,79.6s-36.16-14.71-36.16-14.71L318,59.2Z"/><path d="M318.79,61.53c4.18,4.15,9.29,5.83,14.75,7.71,6.79,2.33,13.56,4.81,20.12,7.77a108.68,108.68,0,0,1,33.09,22.72c.67.69,1.74-.37,1.06-1.06A107.73,107.73,0,0,0,357.1,77c-5.56-2.64-11.29-4.9-17.07-7-7-2.54-14.77-4.1-20.18-9.48-.69-.68-1.75.38-1.06,1.06Z"/><path class="cls-2" d="M353.28,244.2c-10,17-19,23-28,28s-31,10-31,10h-10s7,12,7.87,16.19,5.13,16.81,4.81,18.4,6.61,9.19,10.32,11.41,25-7,32.14-10,21.84-16.81,21.84-16.81l-4-6.19a81.44,81.44,0,0,1,2-9c1-3,13-8,18-10s-1-15-1-15-9-9-11-10S353.28,244.2,353.28,244.2Z"/><path class="cls-2" d="M255.28,209.2s7-1,17,8,15.7,11.28,50.35,16.64c0,0,47.65,8.36,56.65,33.36,1.25,3.49,1.12-12.38-6-29-6-14-13.48-27.27-11-42v-4s-17.64-19.58-40-23-43-13-43-17Z"/><path d="M266,246.42c1.95,13.72,10.82,24.42,17.69,36a99,99,0,0,1,13.68,46.21c0,1,1.54,1,1.5,0a100.28,100.28,0,0,0-11.37-42.5c-7-13.24-17.88-24.77-20.05-40.1-.14-1-1.58-.54-1.45.4Z"/><path d="M247.11,264.38c3.8,8.25,4.94,17.39,6.63,26.23a238.47,238.47,0,0,0,5.52,23.79c4,13.37,10.2,26.08,20.15,36.05a.75.75,0,0,0,1.06-1.06c-11.15-11.17-17.36-25.74-21.28-40.81-3.83-14.72-4.39-31.07-10.79-45-.4-.87-1.7-.11-1.29.76Z"/><path d="M274.53,345.2c.52,20.55,14.34,38.62,25.66,54.74.55.78,1.85,0,1.29-.76-11.15-15.89-24.94-33.74-25.45-54,0-1-1.53-1-1.5,0Z"/><path d="M296.75,319.73c5.8,5.24,11.37,10.39,14.67,17.61,4,8.75,6.6,18.07,10.87,26.71.43.87,1.73.11,1.3-.76-4.53-9.16-7.14-19.11-11.62-28.29-3.22-6.58-8.8-11.48-14.16-16.33-.72-.64-1.78.41-1.06,1.06Z"/><path d="M319.9,356.85c12.26,7,22.6,17.91,25.75,32,.21.94,1.65.54,1.44-.4-3.22-14.46-13.85-25.71-26.44-32.9a.75.75,0,0,0-.75,1.3Z"/><path d="M300.23,399.7a81.94,81.94,0,0,0-6.41,37.5c.07,1,1.57,1,1.5,0a80.34,80.34,0,0,1,6.2-36.75c.38-.87-.91-1.64-1.29-.75Z"/><path d="M281.46,486.48c4.83-16.25,9.7-32.55,13.54-49.08.22-.94-1.23-1.34-1.45-.4-3.84,16.53-8.7,32.83-13.54,49.09a.75.75,0,0,0,1.45.39Z"/><path d="M414.34,388.06a37.63,37.63,0,0,1-1-20.18c.21-.94-1.24-1.34-1.45-.4a39.27,39.27,0,0,0,1,21c.3.91,1.75.52,1.45-.4Z"/><path d="M414,389.29a115.13,115.13,0,0,1,25.87,26c.55.78,1.86,0,1.29-.76A117.43,117.43,0,0,0,414.79,388c-.78-.57-1.53.73-.75,1.3Z"/><path d="M440.87,416a40.51,40.51,0,0,1,15.33,28.59c.08,1,1.58,1,1.5,0A41.93,41.93,0,0,0,441.94,415c-.75-.6-1.82.45-1.07,1.06Z"/><path d="M338.4,372.43a23.59,23.59,0,0,0,14.18,4.67.75.75,0,0,0,0-1.5,22.24,22.24,0,0,1-13.43-4.47c-.77-.57-1.52.73-.75,1.3Z"/><path d="M344.37,356.29a71.23,71.23,0,0,0,6.32-15,.75.75,0,0,0-1.45-.4,68.87,68.87,0,0,1-6.17,14.59.75.75,0,0,0,1.3.76Z"/><path d="M350.88,339.86a27.59,27.59,0,0,1,4.86-22.69c.58-.78-.73-1.53-1.29-.76a29.06,29.06,0,0,0-5,23.85c.2.94,1.65.54,1.44-.4Z"/><path d="M353.92,317.82c-3.14-5.94,4.91-13.15,8.83-16.79.71-.66-.36-1.72-1.06-1.06-4.54,4.21-12.69,11.76-9.06,18.61.45.85,1.74.1,1.29-.76Z"/><path d="M359.58,288.08a33.57,33.57,0,0,1,25-11.37c10.45-.16,19,4.74,26.76,11.33,7.05,6,14.18,12,16.47,21.37,1.28,5.23,1.13,11.11,4.92,15.32.64.72,1.7-.34,1.06-1.06-2.77-3.07-3.11-7.2-3.81-11.1a34.56,34.56,0,0,0-3.69-11.24c-4.37-7.61-13-14.28-20.14-19.21-14.82-10.2-35.53-9.08-47.66,4.9-.63.73.43,1.79,1.07,1.06Z"/><path d="M433.28,325c2.51.23,4.07.64,6.68-.3a23.31,23.31,0,0,0,8.1-5.62c.69-.68-.37-1.74-1.06-1.06-2.41,2.33-5,4.57-8.3,5.51-2,.58-3.5.15-5.42,0-1-.09-1,1.41,0,1.5Z"/><path d="M446.86,318.79c3.43,2.94,6.83,4.48,11.42,4.16,1-.06,1-1.57,0-1.5-4.17.29-7.23-1-10.36-3.72-.73-.62-1.8.44-1.06,1.06Z"/><path d="M457.91,322.41c3.6,4.61-9.46,9.33-11.34,10a.77.77,0,0,0-.55.72c.6,7.38-11.29,14.34-17.9,12.69a.75.75,0,0,0-.39,1.45c4.67,1.16,8.64-.84,12.54-3.33a20.76,20.76,0,0,0,5.26-4.2c1.24-1.56,1.18-3.42,2.1-4.89,2.27-3.62,8-3.8,10.93-7.14,1.8-2.05,2.1-4.25.41-6.4-.59-.76-1.65.31-1.06,1.06Z"/><path d="M428.72,348c1.61,1.84,4,4.14,6.67,2.87a6.32,6.32,0,0,0,1.72-1.62c2.45-2.58,5.33-3.67,8.67-1.74a.75.75,0,0,0,.76-1.3,8,8,0,0,0-7.14-.63,7.72,7.72,0,0,0-2.59,1.7c-.46.46-.92,1.52-1.46,1.77l-4.09-.56a12.74,12.74,0,0,1-1.48-1.55c-.63-.73-1.69.33-1.06,1.06Z"/><path d="M413.75,365.07a12.14,12.14,0,0,1,5.51-8.13l-1.13-.65c.17,4.7,1.12,9.74,6.07,11.56,5.59,2.06,10.69-1.39,14.06-5.62.59-.75-.46-1.81-1.06-1.06-2.58,3.23-6.28,6.44-10.74,5.63-5.4-1-6.65-5.7-6.83-10.51a.76.76,0,0,0-1.13-.65,13.74,13.74,0,0,0-6.2,9c-.2.94,1.25,1.34,1.45.39Z"/><path d="M342.53,356.2a4.58,4.58,0,0,0,2.37,3.65.75.75,0,0,0,.75-1.3A3.07,3.07,0,0,1,344,356.2c0-1-1.54-1-1.5,0Z"/><path d="M346,360a4,4,0,0,1,2.35,0,.75.75,0,0,0,.4-1.44,5.54,5.54,0,0,0-3.15,0c-.92.29-.53,1.73.4,1.45Z"/><path d="M347.56,359.74a3.13,3.13,0,0,1-.81,2.93c-.67.7.39,1.77,1.06,1.06a4.67,4.67,0,0,0,1.2-4.39c-.3-.91-1.75-.52-1.45.4Z"/><path d="M346.75,363.71a4.86,4.86,0,0,0,1,2c.69.67,1.76-.39,1.06-1.06a3.51,3.51,0,0,1-.62-1.36.78.78,0,0,0-.92-.53.76.76,0,0,0-.52.93Z"/><path d="M347.9,365.85a7.81,7.81,0,0,1,1.91,1.57,1.64,1.64,0,0,0,1.66.51.75.75,0,0,0-.39-1.45c-.15,0-.07,0,0,.06-.09,0,0,0-.11-.08l-.49-.51a6.65,6.65,0,0,0-1.84-1.4c-.85-.44-1.61.85-.75,1.3Z"/><path d="M350.75,366.67c-.32.39-.7.69-1.05,1.05a3,3,0,0,0-.7,1.44c-.22.94,1.22,1.34,1.44.4a1.58,1.58,0,0,1,.45-.9,10.09,10.09,0,0,0,.92-.93.78.78,0,0,0,0-1.06.76.76,0,0,0-1.06,0Z"/><path d="M349.52,369.82l2.39,2.43c.68.69,1.74-.38,1.06-1.06l-2.39-2.43c-.68-.69-1.74.37-1.06,1.06Z"/><path d="M352.62,371.83c.41,2.51-1.22,5.1-.08,7.54.85,1.81,2.79,2.59,4.56,3.23.91.33,1.3-1.12.4-1.44-2.46-.9-4.18-2.09-3.76-5a14.74,14.74,0,0,0,.33-4.72c-.16-.95-1.61-.55-1.45.4Z"/><path d="M370.38,389.63c-.51-2.62-1.21-5.52-3.65-7s-5.62-1.26-8.45-1.15c-1,0-1,1.54,0,1.5,2.24-.09,4.71-.39,6.82.53,2.7,1.18,3.32,3.91,3.83,6.55.19,1,1.63.55,1.45-.4Z"/><path d="M394.32,357.34c.34,2,1.61,4.52,4.05,3.45s4.63-3.7,6.11-5.92c.54-.8-.75-1.55-1.29-.76a18.55,18.55,0,0,1-3.1,3.58,6.15,6.15,0,0,1-1.91,1.48c-2.09.58-2.18-.89-2.41-2.23-.16-.95-1.61-.55-1.45.4Z"/><path d="M353.92,318.58c1.5-2,5-2.75,7.28-3.28,4.95-1.13,9.57-.11,12,4.87,2.36,4.8,3.58,8.79,7.83,12.38.74.62,1.8-.43,1.06-1.06-4.32-3.66-5.36-8-7.85-12.73a9.73,9.73,0,0,0-7-5.28c-4.32-.87-11.87.65-14.66,4.34-.58.77.72,1.52,1.29.76Z"/><path d="M380.5,332.23c1.14,4.27,2.67,11.47,6.84,14,.88.53,1.29.77,2.27.39s1.76-2.16,2.63-2.9c1.56-1.31,5.18-3.57,7.26-1.71.72.64,1.79-.42,1.06-1.06-2.67-2.38-6.5-.55-9,1.39-.58.46-1.41,1.75-2,2-2.42.95-3.41-1.56-4.32-3.19a40.26,40.26,0,0,1-3.31-9.3.75.75,0,0,0-1.45.4Z"/><path d="M398.89,341.87c4.24,1.28,7.49,5,6,9.64-.73,2.34-2.2,4.23-2.64,6.68-.17.95,1.28,1.35,1.45.4.72-4,3.86-7,2.83-11.29-.88-3.61-3.89-5.85-7.28-6.88a.75.75,0,0,0-.4,1.45Z"/><path d="M402.63,357.82a7.93,7.93,0,0,0-.69,6.78c.56,1.85,1.22,4.06,3.12,4.85,3.74,1.54,6.81-.88,8.86-3.87.55-.8-.75-1.55-1.29-.76-1.32,1.92-3.58,4.28-6.2,3.49-3.56-1.08-4.12-7-2.51-9.73a.75.75,0,0,0-1.29-.76Z"/><path d="M353.94,333.51a20.52,20.52,0,0,1,17.44.71c.86.44,1.62-.86.76-1.3a22,22,0,0,0-18.6-.85c-.89.35-.5,1.81.4,1.44Z"/><path d="M355.52,340.64a46.56,46.56,0,0,1,11.66.86c.94.2,1.34-1.25.4-1.44a47.39,47.39,0,0,0-12.06-.92c-1,.05-1,1.55,0,1.5Z"/><path d="M358,340.54c.64,1.07.83,2.29,1.76,3.19.69.68,1.75-.38,1.06-1.06s-1-1.95-1.52-2.89-1.8-.07-1.3.76Z"/><path d="M359.59,344.29c3.27,1.38,6-.73,8.25-2.94.69-.67-.37-1.73-1.06-1.06-1.66,1.63-3.9,3.78-6.43,2.7-.88-.37-1.65.92-.76,1.3Z"/><path d="M359.47,336.93c3.16-.82,7.88-.47,10.2,2.12.64.72,1.7-.34,1.06-1.06-2.7-3-8-3.47-11.65-2.51a.75.75,0,0,0,.39,1.45Z"/><path d="M357.94,339.71a14.82,14.82,0,0,1,1.88-3c.6-.75-.46-1.82-1.06-1.06a17.33,17.33,0,0,0-2.12,3.3c-.41.87.88,1.63,1.3.76Z"/><path d="M351.83,353.67a2.19,2.19,0,0,1,3,2.16c-.13.95,1.38.94,1.5,0a3.51,3.51,0,0,0-1.64-3.21,3.62,3.62,0,0,0-3.65-.25c-.88.4-.12,1.69.76,1.3Z"/><path d="M350.9,358.85a3.62,3.62,0,0,0,3.27.62c1.57-.65,2-2.54,2-4.08a.75.75,0,0,0-1.5,0c0,.92-.15,2.54-1.29,2.75a2.58,2.58,0,0,1-1.75-.59c-.79-.55-1.54.75-.75,1.3Z"/><path d="M348.53,357.68a1.11,1.11,0,0,1,2,.72.75.75,0,0,0,1.5,0,2.61,2.61,0,0,0-4.58-1.78c-.62.74.44,1.81,1.06,1.06Z"/><path d="M348.47,362.93c3.88-.75,6,4.25,9.82,4.41,1,0,1-1.46,0-1.5-2.08-.09-3.68-2-5.3-3.13a6.3,6.3,0,0,0-4.91-1.23c-.95.18-.55,1.63.39,1.45Z"/><path d="M357.6,366.69a1.83,1.83,0,0,1-.08.73,2.31,2.31,0,0,0,0,1c.23.94,1.68.54,1.45-.4a1.76,1.76,0,0,1,.08-.72,2.16,2.16,0,0,0,0-1,.75.75,0,0,0-1.44.39Z"/><path d="M353.42,371.72c1.81-.83,3.51-1.87,5.23-2.87a.75.75,0,0,0-.75-1.3,57.82,57.82,0,0,1-5.24,2.87c-.87.4-.11,1.7.76,1.3Z"/><path d="M253.21,210.09A41.61,41.61,0,0,1,262,220.91a.75.75,0,0,0,1.3-.76,43.16,43.16,0,0,0-9-11.12c-.72-.63-1.78.42-1.06,1.06Z"/><path d="M267.5,246.5c-.74-4.28-2.39-8.73-1.5-13.1.19-.94-1.26-1.34-1.45-.4-.95,4.68.71,9.32,1.5,13.9.17.95,1.61.55,1.45-.4Z"/><path d="M261.81,220.34A22.7,22.7,0,0,1,264.28,233c-.08,1,1.42.95,1.5,0a24.22,24.22,0,0,0-2.67-13.45c-.44-.86-1.74-.1-1.3.76Z"/><path d="M235.08,250.93c6.22,2.09,10.48,9.05,12.8,14.72.36.89,1.81.5,1.44-.39-2.52-6.18-7.08-13.5-13.85-15.78-.91-.31-1.31,1.14-.39,1.45Z"/><path d="M228.81,244.67c-3.78-3-4.46-6.86-2.81-11.27.34-.9-1.11-1.29-1.45-.4-1.83,4.89-1,9.43,3.2,12.73.74.59,1.81-.46,1.06-1.06Z"/><path d="M225.7,232.44c-2.16-3,1.13-5.73,3.11-7.71a.75.75,0,0,0-1.06-1.06c-2.48,2.49-6,5.87-3.34,9.53.56.77,1.86,0,1.29-.76Z"/><path d="M229,224.2c-.41-3.57,2.93-8.27,5.62-10.35.76-.58,0-1.89-.75-1.3-3.11,2.4-6.85,7.51-6.37,11.65.1,1,1.61,1,1.5,0Z"/><path d="M244,207.5l-3.15-2.07c-.81-.53-1.57.77-.76,1.3l3.15,2.06c.81.53,1.57-.77.76-1.29Z"/><path d="M239.21,244.43a4.55,4.55,0,0,0,4.76-.86,5.1,5.1,0,0,0,1-4.57.75.75,0,0,0-1.45.4,3.57,3.57,0,0,1-.64,3.11,3.09,3.09,0,0,1-3.3.47c-.91-.34-1.3,1.11-.4,1.45Z"/><path d="M245.47,238.93a3.31,3.31,0,0,0,2.35-2.05,3.94,3.94,0,0,0-.47-4.08c-.54-.79-1.84-.05-1.29.75a2.52,2.52,0,0,1,.4,2.7,1.82,1.82,0,0,1-1.38,1.23c-.92.28-.53,1.73.39,1.45Z"/><path d="M248.53,233.37a5,5,0,0,0,1.72-6.77c-.5-.82-1.8-.07-1.29.76a3.43,3.43,0,0,1-1.19,4.71.75.75,0,0,0,.76,1.3Z"/><path d="M248.55,216.4c.37,2.08.78,4.55-.42,6.44-.52.81.77,1.56,1.29.75,1.44-2.25,1-5.1.58-7.59-.17-.95-1.61-.54-1.45.4Z"/><path d="M241.46,221.14a14.89,14.89,0,0,0,4.13-1.48,7.27,7.27,0,0,0,1.93-1.32c.36-.33,1.73-2.3,2.27-2.21.94.16,1.35-1.28.39-1.44-1.86-.33-2.77,1.83-4,2.86a12.08,12.08,0,0,1-5.08,2.15c-.95.13-.55,1.58.4,1.44Z"/><path d="M237.47,216.75a8.26,8.26,0,0,0,4.2,5.47c.85.45,1.61-.84.75-1.3a6.8,6.8,0,0,1-3.5-4.57c-.22-.94-1.66-.55-1.45.4Z"/><path d="M239.46,217.84c-.23-2.07,1.92-3.8,3.1-5.24a37.58,37.58,0,0,1,2.93-3.59c1.45-1.38,2.16-1.49,4.13-1.3l3.94.36c1,.09,1-1.41,0-1.5-2-.18-4.48-.85-6.49-.57-1.33.18-1.8.94-2.64,1.95-1.72,2.07-3.54,4.11-5.13,6.27-.9,1.22-1.51,2.09-1.34,3.62.11.95,1.61,1,1.5,0Z"/><path d="M250.33,215.89l-.45-.65c-.44-.66-1.68-.27-1.37.58a26.27,26.27,0,0,0,5.78,9.18c.67.69,1.73-.37,1.06-1.07a24.31,24.31,0,0,1-5.39-8.51l-1.37.58.44.65c.54.79,1.84,0,1.3-.76Z"/><path d="M231.61,233.47h5.49a.75.75,0,0,0,0-1.5h-5.49a.75.75,0,0,0,0,1.5Z"/><path d="M238.42,234.37q2.75,2.35,5.35,4.84c.7.67,1.77-.39,1.06-1.06q-2.61-2.49-5.35-4.84c-.72-.62-1.79.43-1.06,1.06Z"/><path d="M237.16,224.92c3.58,1.65,7.51,3.54,8.77,7.59.29.92,1.73.53,1.45-.4-1.39-4.47-5.48-6.64-9.46-8.49-.87-.4-1.63.89-.76,1.3Z"/><path d="M243.21,221.47a15,15,0,0,1,5.6,5.63c.47.84,1.77.08,1.29-.76a16.33,16.33,0,0,0-6.13-6.16.75.75,0,0,0-.76,1.29Z"/><path d="M229.46,225.92a26.1,26.1,0,0,1,5-1.07c1-.1,1-1.6,0-1.5a28.51,28.51,0,0,0-5.42,1.12c-.92.29-.53,1.74.4,1.45Z"/><path d="M233.91,215.47l3.61.89a.75.75,0,0,0,.4-1.45l-3.61-.89c-.94-.23-1.34,1.22-.4,1.45Z"/><path d="M229,241.78c1.53-1.41,3-2.46,5-1.15l4.45,2.92c.81.53,1.56-.77.75-1.3l-4.1-2.69a6.51,6.51,0,0,0-2.46-1.37c-1.68-.23-3.57,1.49-4.7,2.53-.71.65.35,1.71,1.06,1.06Z"/><path d="M171.06,385.15q28.75-73,60.86-144.57c.39-.87-.9-1.64-1.29-.76q-32.15,71.79-61,144.93c-.36.9,1.09,1.29,1.44.4Z"/><path d="M178.86,389c4-12.54,9.41-24.58,14.48-36.7l16-38.2L225,276.8c4.53-10.81,8.44-21.87,14-32.22.46-.85-.84-1.61-1.29-.76-5,9.33-8.53,19.2-12.6,28.94q-8.17,19.56-16.38,39.11l-16,38.2c-5.33,12.73-11.07,25.36-15.25,38.52-.29.92,1.16,1.32,1.45.4Z"/><path d="M171.39,386.11a4.59,4.59,0,0,1,4,.68,2.76,2.76,0,0,1,.8,3.2c-.36.89,1.09,1.28,1.45.4a4.22,4.22,0,0,0-1.19-4.66,6.08,6.08,0,0,0-5.45-1.07c-.94.21-.54,1.66.4,1.45Z"/><path d="M169.65,385.39c-.14,2,1.36,3.84,3,4.73a6.25,6.25,0,0,0,6.06-.21c.84-.47.09-1.76-.76-1.29-2.43,1.36-7.1.32-6.84-3.23.07-1-1.43-1-1.5,0Z"/><path d="M284.08,226.93c10.6,3.66,21.73,4.62,32.69,6.69,8.47,1.61,16.23,4.35,24.31,7.31.9.33,1.3-1.12.39-1.45-8.07-3-15.83-5.7-24.3-7.3-11-2.08-22.09-3-32.7-6.7-.91-.32-1.3,1.13-.39,1.45Z"/><path d="M341.29,240.94c14.27,3.24,39.42,14.59,36.7,32.69-.15.94,1.3,1.35,1.44.39,1.29-8.55-3.22-15.84-9.75-21a72,72,0,0,0-28-13.49c-.94-.22-1.34,1.23-.4,1.44Z"/><path d="M379,276.4c3.62-11.41,1.11-23.89-3.35-34.69-2.87-7-6.36-13.66-8.79-20.8a66.24,66.24,0,0,1-3.36-24.43c0-1-1.46-1-1.5,0-.62,13.83,3.43,26,9,38.41,5.77,12.83,11,27,6.52,41.11-.29.92,1.16,1.32,1.45.4Z"/><path d="M310.18,329.27a92.76,92.76,0,0,0,46.41-22.57c.72-.65-.35-1.71-1.06-1.06a91.4,91.4,0,0,1-45.74,22.19c-1,.16-.55,1.61.39,1.44Z"/><path d="M1.37,280.32a313.75,313.75,0,0,0,46.4-25.11c7.56-5,14.57-10.85,23.44-13.31,8.17-2.26,16.61-3.4,24.79-5.76,33.12-9.57,62.94-27.61,91.87-45.91.81-.51.06-1.81-.76-1.29-29.8,18.85-60.59,37.48-94.94,46.71-8.1,2.17-16.74,3-24.63,5.83-7.28,2.64-13.38,7.71-19.76,11.93A314.71,314.71,0,0,1,.62,279c-.88.39-.12,1.68.75,1.3Z"/><path d="M0,280.14a4.6,4.6,0,0,0,3.77,4.22c2.9.65,11.18,1.63,9.83,6.33a.75.75,0,0,0,1.44.4c.7-2.42-.64-4.45-2.72-5.65A21.79,21.79,0,0,0,8,283.66c-1-.31-1.93-.43-2.9-.67-2.39-.59-3.23-.82-3.6-3.25-.15-.95-1.59-.54-1.45.4Z"/><path d="M13.35,290.56c.75,1.53,2.29,2.75,4.14,2.2,2.87-.85,4.86-10,6.73-3.3,1.24,4.4-.78,9.13.85,13.38,1.52,4,5.89,5.88,7.11,10.06a.75.75,0,0,0,1.44-.4c-1.57-5.4-7.24-7.34-7.65-13.43-.37-5.46.69-9.2-2.21-14.21a.76.76,0,0,0-1-.27,11.26,11.26,0,0,0-3,2.76,5.12,5.12,0,0,0-.75,1.28q-.63,3.12-4.37,1.17c-.43-.87-1.72-.11-1.3.76Z"/><path d="M32.66,312.84c-.89,5.28-5.93,8.81-8.09,13.64A26.26,26.26,0,0,0,22.36,337a27.14,27.14,0,0,0,2.09,10.59c1.85,4.4,9.75,10.62,8.34,15.15-.28.93,1.16,1.32,1.45.4,1.06-3.41-.67-5.76-2.92-8.24-3.88-4.26-6.5-8.71-7.23-14.52a24.77,24.77,0,0,1,3-15.65c2.38-4,6.17-6.72,7-11.52.16-.95-1.29-1.35-1.45-.4Z"/><path d="M33.65,361.55c-4.85-2.69-6.56,4.27-6.53,7.93.07,6.8,6.48,7.42,11.67,8.8a.75.75,0,0,0,.4-1.44c-2.73-.73-6.34-.86-8.54-2.79-2-1.75-2.29-4.29-1.81-6.78.32-1.64,1.19-6,4.06-4.42.84.47,1.6-.83.75-1.3Z"/><path d="M38.55,378.4c.69,3.19,3.72.08,5.11-.78,4.93-3.06,7.06.22,11.46,1.32a3.82,3.82,0,0,0,4.27-1.19c.62-.73-.43-1.8-1.06-1.06-2,2.4-8.55-2.31-11.61-2.05a6.81,6.81,0,0,0-3.07,1.1S40.11,378.5,40,378c-.21-.94-1.65-.54-1.45.4Z"/><path d="M59.28,378c6.12-.34,11.94-2.79,18.15-2.46,9.45.5,14.94,10.5,16.12,18.91.14,1,1.58.55,1.45-.4-1-7.35-5.26-15.82-12.42-19-7.41-3.25-15.8,1-23.3,1.41-1,.05-1,1.56,0,1.5Z"/><path d="M94.65,394.85c4.11-2,9.11-1.7,12.29-5.32,3.59-4.07,4.45-7.38,10.76-7.85,2.92-.22,7.84-1.4,10.2.17.8.54,1.55-.76.75-1.3-2.2-1.47-4.27-.92-6.77-.63-3.49.4-7.42-.09-10.57,1.82-3.38,2.06-4,6.42-7.4,8.46-3,1.82-6.85,1.84-10,3.35-.87.42-.11,1.72.75,1.3Z"/><path d="M127.27,381.44c6.43,2.18,15.58-.6,19.82-6a7.78,7.78,0,0,0,1.17-8.33c-1.69-3.61-6.72-5.66-1.39-11,2.06-2.08,5.85-3.62,8.6-4.15.95-.19.55-1.64-.39-1.45-4.51.88-13.63,4.69-12.29,10.58,1.2,5.33,8.19,8.6,2.19,14.44-4.25,4.13-11.7,6.4-17.32,4.49-.91-.31-1.3,1.14-.39,1.45Z"/><path d="M155.47,351.93c9.16-1.6,19.36-4,28.61-2,.94.2,1.34-1.24.39-1.45-9.5-2.08-20,.36-29.39,2-1,.16-.55,1.61.39,1.45Z"/><path d="M192.75,352.73c6.76,5.52,15.23,9.11,24.06,7.71,12.37-2,22.29-9.93,34-13.55.92-.28.53-1.73-.4-1.45-9.4,2.91-17.76,8.71-27.18,11.83-10.74,3.55-20.65,1.55-29.4-5.6-.75-.6-1.81.45-1.06,1.06Z"/><path d="M250.47,346.93c3.33-1.17,6.21-3.07,9.69-3.9A45.29,45.29,0,0,1,272.28,342c1,0,1-1.46,0-1.5a47.93,47.93,0,0,0-11.22.85c-4.06.82-7.16,2.84-11,4.18-.91.32-.52,1.77.39,1.45Z"/><path d="M457.54,442.28c1.62,1.44,5.55,3.8,6.46,5.82,1.57,3.51-1.61,5.43-2.3,8.28-.35,1.44,0,1.7.25,3,.05.31.46.43.55.7,1,2.93.51,4.8-1.22,7.33-1.41,2.06-2.85,4.44-2.44,7.07.53,3.37,8.42,6.87,6.07,10.25-.56.8.74,1.55,1.29.76,1.68-2.41,1.4-4.6-.9-6.43-.83-.66-2-1-2.77-1.69-4.23-3.8-1.4-7,.71-10,.87-1.26,2.08-2.71,2.19-4.31.13-1.88-.95-2.13-1.52-3.63-1.5-3.94,1.95-5.13,2.5-8.45.68-4.13-5.35-7.49-7.81-9.69-.71-.65-1.78.41-1.06,1.06Z"/><path d="M387.87,538.41c3-6,7.85-10.52,12.71-15h-1.06l.53.53a.75.75,0,0,0,1.06-1.06l-.53-.53a.77.77,0,0,0-1.06,0c-4.95,4.57-9.85,9.24-12.95,15.32-.44.86.86,1.62,1.3.75Z"/><path d="M386.2,538.08l4.06,7.59c1.55,2.89,3.78,5.89,3.29,9.33-.13,1,1.31,1.35,1.45.4a10.85,10.85,0,0,0-1.57-7c-1.94-3.71-3.95-7.4-5.93-11.1-.46-.85-1.75-.1-1.3.76Z"/><path d="M393.48,553.66c-1.05,11.65,1.93,21.75,7.14,32a43.7,43.7,0,0,1,3.76,8.93c.91,3.62.54,7.24.93,10.9.52,5,3.53,7.47,5.9,11.58,6.78,11.76-4,24.82-7,36a28.35,28.35,0,0,0,5.92,25.94c.62.74,1.68-.32,1.06-1.06-9.18-10.93-6.78-23-1.47-35.06,3.39-7.69,7.34-16.87,3.57-25.17a28.92,28.92,0,0,0-3.31-5c-2.51-3.41-3.19-6.56-3.28-10.77a32,32,0,0,0-2.57-12.61c-2.47-5.67-5.75-10.86-7.48-16.86A51.36,51.36,0,0,1,395,553.66c.08-1-1.42-1-1.5,0Z"/><path d="M287.06,461.25c-9.54-3.57-19.44-6.63-29.16-1.93-7.41,3.57-12.2,9.81-10.56,18.29.18.95,1.63.54,1.44-.4C247,467.69,254.55,461.27,263,459c8-2.16,16.21.92,23.65,3.71.91.34,1.3-1.11.4-1.45Z"/><path d="M253.23,481.54c-1.89-1-4.23-2.26-4.33-4.69,0-1-1.54-1-1.5,0,.12,3,2.65,4.7,5.08,6,.85.45,1.61-.84.75-1.3Z"/><path d="M252.54,481.21a18.51,18.51,0,0,0-10.45-1.72c-3.44.37-11.58,4.43-14.58,2-.75-.6-1.82.45-1.06,1.06,1.88,1.52,3.65,1.32,6,.78,6.61-1.57,12.74-4,19.39-.84.86.42,1.63-.88.75-1.29Z"/><path d="M228,482c-4.58-16-26.95-23-41.1-15.45-.85.46-.1,1.76.75,1.3,13.27-7.11,34.62-.42,38.9,14.55A.75.75,0,0,0,228,482Z"/><path d="M180.77,467.59c-3.2-.08-5.59-3.66-8.36-4.88a7.42,7.42,0,0,0-3.8-.64c-2.12.19-3.5,1.11-5.79,1.13-3.47,0-2.29-1.16-4.8-1.81-5.68-1.45-7.39,9.08-6.09,12.52.33.89,1.78.51,1.44-.4-.82-2.17-.82-5.81.77-7.71,6.8-8.16,3.62-.89,6.3-.55,1.33.17,1.92.55,3.33.2.82-.2,1.49-.75,2.29-1,6.17-1.76,6.17.08,9.78,2.81a7.34,7.34,0,0,0,4.93,1.81.75.75,0,0,0,0-1.5Z"/><path d="M153.59,474.52c.44-7.79,5.78-4.93,9.36-3.83.71.21,1,.6,1.64.74,2.08.46,3.45-.73,5.31-1.31,6.07-1.91,7.14,6,12.57,3.81.89-.36.5-1.81-.39-1.45-1.94.78-4.38-1.48-5.48-2.72a8,8,0,0,0-.92-1.08,4.33,4.33,0,0,0-2.4-1.1,6.5,6.5,0,0,0-3.05.73,25.11,25.11,0,0,1-2.64,1.2c-2.13.57-3.13-.15-5.07-.92-5.05-2-10.1.05-10.43,5.93-.06,1,1.44,1,1.5,0Z"/><path d="M188.45,471.68c3.83-2.33,7.33-3.88,11.78-1.65a21.77,21.77,0,0,1,4.85,3.57A25.64,25.64,0,0,1,212,484.84c1,3.24,1.08,6.69,3,9.57a18.3,18.3,0,0,0,6.29,5.19c11.82,6.61,25.44,4.54,36.33-2.75.8-.53.05-1.83-.75-1.3-7.33,4.91-15.74,7.67-24.61,6.26a30.44,30.44,0,0,1-11.57-4.31c-5.31-3.4-5.66-7.65-7.28-13.06a27.09,27.09,0,0,0-9.78-14c-5.62-4.12-10.2-3.58-16-.08-.82.5-.07,1.8.76,1.3Z"/><path d="M257.08,503.48c-7.06,1.18-14.18,1-21.3.8s-13.42.06-19.57-4c-2.15-1.4-4.29-1.95-6.46-3.13-3.76-2.05-5.05-5.27-6.83-8.87-2.27-4.55-3.89-8.95-8.31-11.73-3.22-2-6.47-3.38-7.3-7.67-.53-2.72,1.2-6,1.5-8.73.46-4.32-1.47-7.16-3.69-10.67s-4.62-9.25-.16-11.79c2.38-1.36,3.44-.08,5.71-1,1.48-.59,2.53-2.62,3.48-3.82,1.88-2.4,3.74-4.82,5.66-7.2.6-.74-.46-1.81-1.06-1.06-2.14,2.65-4.14,6.14-6.65,8.45-2.08,1.9-3.24,1.66-5.94,1.75a5.81,5.81,0,0,0-2,.11c-3.42,1.23-3.52,7.18-2.84,10a20.66,20.66,0,0,0,3.28,6.42c3,4.63,2.89,7.65,1.81,12.93-.89,4.34-.78,7.92,2.92,10.79,3,2.35,6.39,3.2,8.62,6.67s3.59,7.26,5.44,10.81c3,5.75,7.45,6,12.71,9.41,5.71,3.66,11.29,3.46,17.9,3.68,7.86.26,15.69.51,23.48-.79.95-.16.55-1.61-.39-1.45Z"/><path d="M198.64,423.83c-6.54,1-10.2,5.83-15.49,9.3-4.12,2.7-7.51,6.65-8.27,11.64-.79,5.19,1.47,8,4.37,11.88,3.4,4.51,1.05,7.89,1.6,12.65a15.91,15.91,0,0,0,2.19,6.06c2.79,4.85,7.31,8.63,9.29,13.94,1.73,4.63.25,10.07,4.8,13.25,2.82,2,5.63,3.47,8.21,5.85a37.13,37.13,0,0,0,6.64,5.36c5.7,3.23,13,3.09,19.34,3.19a88.12,88.12,0,0,0,24-2.46c5.76-1.53,10-6.16,16-6.54,1-.06,1-1.56,0-1.5a19.74,19.74,0,0,0-5.57,1.25c-2.13.81-3.39,2.41-5.41,3.47C253,515,243.1,515.36,235,515.46c-9.69.11-19.32.19-26.94-6.56a52.69,52.69,0,0,0-7.17-5.92c-2.32-1.43-4.13-1.78-5.47-4.94-.7-1.64-.47-3.6-.73-5.34-.8-5.14-3.61-8.93-6.73-13-2.2-2.86-4.67-5.9-5.46-9.52s.9-7,.12-10.49c-.51-2.28-1.85-3.46-3.3-5.15-4.3-5-3.89-11.47.2-16.39,2.34-2.81,5.58-4.07,8.34-6.3,3.64-2.95,6.18-5.86,11.16-6.62,1-.14.54-1.59-.4-1.44Z"/><path d="M266.9,514.42c3.08,4.5,7.85,7.26,10.38,12.2,2,4,3.36,8.61,7.14,11.36,4.31,3.13,10.35,3.16,15.13,5.41a156.49,156.49,0,0,0,17.36,7.35c10.7,3.54,22.93,7.26,33.6,2.1,3.16-1.52,6.15-3.4,9.47-4.57s6.62-1.52,9.92-2.29a38.48,38.48,0,0,0,7.75-2.7c1.06-.5,10-4.63,10-5,0,1,1.46,1,1.5,0,.07-2-1.46-1.81-2.93-1.32-2.93,1-5.72,3.27-8.5,4.63a43.78,43.78,0,0,1-10.9,3.51c-6.07,1.23-10.79,3.37-16.29,6.09-7.86,3.88-15.23,2.77-23.47.85-12.58-2.94-23.57-9.63-35.91-13-7.35-2-9.18-6.36-12.23-12.6-2.59-5.29-7.44-8.07-10.68-12.81-.54-.8-1.84,0-1.3.75Z"/><path d="M395,525.39a76.25,76.25,0,0,0-23.16,8.12c-1.87,1-3.63,2.29-5.53,3.27-2.47,1.28-4.84,1.29-7.39,2.16-3,1-5.75,4.37-8.86,4.69s-4.19-2.71-7.14-2.37c-2.48.29-3.89,2.49-6.08,3.26-9.63,3.4-1.32-1-5.49-.53-1.4.17-1.2.5-2.53.74-4.52.83-4,0-6.86-2.09a6.34,6.34,0,0,0-1.82-1.12c-1-.3-1.1.06-2-.13-2.4-.49-2.12-1.47-3.57-2s-1.8-.22-3.28-.17c-1.89,0-7.21-3.09-8.56-5-1.08-1.5-.55-2.26-2.59-3-2.9-1.11-3.07.3-6.12-2.87-.92-1-1.49-2.13-2.49-3.09-1.21-1.14-2.72-2-3.9-3.13-1.84-1.82-1.2-3.43-2.35-5.3s-3.94-4.07-5.77-5.34-3.7-1.79-5.92-.86c-.87.37-.49,1.82.4,1.45,5.29-2.22,8.85,5.15,10.46,8.2a14.14,14.14,0,0,0,4.19,4.59c2.56,2,4,5.7,7,7,.95.4,2.11.18,3,.58,1.77.77,1.94,2.44,3,3.41a13.05,13.05,0,0,0,2,1.46,28.25,28.25,0,0,0,4.07,3.56c1.55.63,1.23.29,2.87.41,1.3-1,2.67-.8,4.14.66a4.08,4.08,0,0,0,.82.84c.41.13.89.32,1.32.46,2.61.83,2.71-.41,4.79,1.11.86.63,1.53,1.53,2.46,2.08,1.68,1,2.51.64,4.24.3a12.21,12.21,0,0,1,4.77-.31c1.84.1,1.15.49,3,0,4.51-1.09,4-4.9,9.79-2.36,1.8.79,2.16,1.61,4.54,1,3.27-.87,5.68-3.58,8.85-4.7,3.79-1.32,6.75-1.72,10.27-3.82a77.51,77.51,0,0,1,25.82-9.73c.95-.17.54-1.62-.4-1.44Z"/><path d="M282.76,470.85c-11.38,1-26.68,4.16-31.65,16.15-1.47,3.54-.71,6.32,2.53,8,.55.29,1.43.06,1.91.38,1.08.69,1.8,3.05,1.81,4.1,0,1.37-.83,2.56-.68,4a4.81,4.81,0,0,0,2.28,3.8,7,7,0,0,0,4.14.81c1.64-.14,6.55-3.24,7.51-2.24.69.72,0,3,1.27,4.15a5.82,5.82,0,0,0,4.65,1.39c2.66-.29,4.5-2.34,6.72-3.54,1.91-1,1.13-.77,4.33-.91,4.23-.19,2,.24,4.28.49a11,11,0,0,0,1.88.37,5.06,5.06,0,0,0,2.29-.9c2.42-1.39,4-2.1,7.07-1.38,3.42.82,6,1.46,9.65,1.22,4.47-.3,8.93-.73,13.4-1.1a54.45,54.45,0,0,1,6.23-.49c2.82.1,4,1.34,6.29,2.3,2.91,1.2,4.33-1,4.3,3.15,0,2-.49,3.38,1.21,4.84.73.62,1.8-.43,1.06-1.06-2-1.71.23-6-1.36-8.31a.76.76,0,0,0-1-.26c-2.65,1.92-5.4-1.28-7.66-1.93a11,11,0,0,0-3.66-.18c-3.58.11-7.19.59-10.77.88-4,.33-8.21,1.1-12.19.77-2.91-.24-5.84-2.33-8.73-2.12-3.76.28-3.66,2.87-8.45,2.28-2-.26-3.07-1.28-5.37-.66-2.79.76-4.6,3.31-7.24,4.17-9.49,3.08-5.22-2.62-7.45-5.4a.77.77,0,0,0-.91-.11c-1.12.5-2.19,1.09-3.3,1.61-3,1.41-8.65,4.22-8.52-4.49,0-1.42.95-2.62.56-4.1-1-3.74-7.39-1.62-7.34-6.22.05-5.81,7-11,11.62-13.34,6-3.06,12.7-4.06,19.32-4.65.95-.09,1-1.59,0-1.5Z"/><path d="M462.53,465c-2.23,5-5.83,7.91-10.94,9.63a18.14,18.14,0,0,0-7.31,4c-2.94,2.7-5.88,5.79-9.45,7.69s-7.73.39-11.13,2.87c-1,.75-1.79,1.81-2.76,2.63-2.81,2.34-5.31,2.06-8.53,2.49a20.32,20.32,0,0,0-7.83,3.11c-7.53,4.57-13.68,10.92-21.8,14.57l1,1c.83-1.33,3.18-4.36,3-5.92-.25-1.81-2.49-4.52-3.38-6.06a.76.76,0,0,0-1.18-.16c-.79,1-2.63,1.58-3.64,2.44-1.8,1.53-3.33,3.45-5,5.12-.88.89-2.24,2.56-3.47,2.93l-7-1.21-.51-1c-.75-.77-.83-1.72-1.89-2.28-1.75-.93-3.43-.1-4.7,1.27s-2,3.58-3.83,4.77c-2.4,1.55-5.73,1.45-8.46,1.44l.64,1.13.83-1.35c.51-.83-.79-1.58-1.29-.76l-.83,1.35a.76.76,0,0,0,.65,1.13c4,0,8.43-.15,11.25-3.39.52-.59.93-1.9,1.49-2.34,4.74-3.64,4.43-.06,5.95,1.7a5.63,5.63,0,0,0,4,2c4.31.31,7.38-3.4,10.08-6.18,1.35-1.39,4.16-5.18,6.21-4.5,1,.34,1.93,3,2,4,.11,1.95-1.14,3.52-2.15,5.15-.43.7.39,1.31,1,1,8.37-3.76,14.67-10.43,22.51-15a18.83,18.83,0,0,1,8.87-2.58,10.92,10.92,0,0,0,4-.54c4.13-1.8,4.8-5.77,10.06-5.88,7.43-.15,12-6,17.33-10.53,3.34-2.81,8-2.93,11.56-5.51a18.27,18.27,0,0,0,5.94-7.53c.39-.87-.9-1.64-1.3-.76Z"/><path d="M266.82,516.46c-13.61,18.94-26.17,39.37-31.88,62.22-6,24.15-1.75,48.2,4.56,71.82a.75.75,0,0,0,1.44-.4c-6.4-24-10.63-48.24-4.13-72.68,5.87-22.07,18.09-41.82,31.31-60.2.56-.78-.74-1.53-1.3-.76Z"/><path d="M374.7,557.79c-10.14,11.57-22.82,20.34-34,30.82s-20,22.95-28.1,35.83S296.73,650.79,287.33,663a125.17,125.17,0,0,1-15.58,17c-5.83,5.22-12.31,9.14-18.86,13.33-11.79,7.56-19.46,19-15.27,33.38a.75.75,0,0,0,1.45-.39,25.23,25.23,0,0,1,3.8-22.45c4.48-5.94,11.22-9.44,17.39-13.34,11.08-7,20.28-16.32,28.26-26.66,17.93-23.23,29.66-51.07,50.77-71.86,11.74-11.55,25.58-20.75,36.48-33.17.63-.73-.43-1.79-1.07-1.06Z"/><path d="M308.66,594.39a80.57,80.57,0,0,1-22.59,14.83c-7.44,3.29-14.83,6.52-21.66,11A62.39,62.39,0,0,0,240.55,649c-.37.89,1.08,1.28,1.45.4,5.69-13.55,15.22-23.56,27.93-30.8,6.77-3.85,14-6.54,21-10a78.63,78.63,0,0,0,18.81-13.17c.7-.66-.36-1.72-1.06-1.06Z"/><path d="M284.91,637.1c-7.45,9.55-18.69,15.57-28.66,22.13-10.64,7-21.39,13.86-31.91,21-18.06,12.32-24.11,32.33-27.55,53-.16.94,1.28,1.35,1.44.4,1.88-11.22,4.24-22.56,9.56-32.72,5.52-10.52,13.69-17,23.41-23.38l30-19.73C270,652,279.4,646.58,286,638.16c.59-.76-.46-1.82-1.06-1.06Z"/><path d="M214,689.77a245.42,245.42,0,0,1,31.7-43.48c.65-.71-.41-1.77-1.06-1.06A247.13,247.13,0,0,0,212.7,689a.75.75,0,0,0,1.29.76Z"/><path d="M406,676.06c9.37,5-1.69,18.39-5.47,23.62a12.44,12.44,0,0,0-2.72,5.47c-.48,3.42,1.18,6.42-.27,9.85-1.71,4-5.79,7-6.58,11.46-1,5.72,5.54,8,5.84,13.44.36,6.43-8,7.58-7.7,13.41.22,4.09,5,6.29,7.53,8.83,10.41,10.52,13.71,37.77-3.11,43.73-.9.32-.51,1.77.4,1.45,13.63-4.83,14.12-20.69,10.8-32.55C402.83,768,400,763,394.59,758.45c-1.16-1-2.73-2-3.38-3.42-2.09-4.42,2.64-6.06,4.61-8.28a9.63,9.63,0,0,0,2.43-5.48c.69-7-8.52-10.52-4.63-17.47,2.81-5,6.14-7.73,6.15-13.72,0-2.91-.37-5.73,1.12-8.38,1-1.71,2.58-3.34,3.71-5a50.15,50.15,0,0,0,4.93-8.59c2.07-4.81,2.46-10.58-2.78-13.39-.85-.45-1.61.84-.75,1.3Z"/><path d="M392.47,805.77c-5.34,4.67-2.36,12.78-2.57,18.84-.15,4.52-3.06,7.36-3.95,11.5-.57,2.64.24,5.25-.45,7.92a12.83,12.83,0,0,1-4.74,6.9c-.75.61.31,1.66,1.06,1.06a14.31,14.31,0,0,0,5.13-7.57,26.44,26.44,0,0,0,.38-4.87c.24-3.45,1.58-5.84,2.87-8.89,3-7.06-2.93-18.35,3.33-23.83.72-.64-.34-1.69-1.06-1.06Z"/><path d="M381.22,851c-1.33-13.22-13.89-19.4-26-19.7-4.33-.11-8.56.17-12.77-1.08-3.92-1.16-7.49-3.1-11.51-4-7.72-1.8-15.74-1.6-23.6-1.4a.75.75,0,0,0,0,1.5c7.15-.18,14.39-.37,21.45,1,5.79,1.1,10.92,4.31,16.71,5.23,6.29,1,12.54-.21,18.78,1.59,8,2.31,14.56,8.38,15.42,16.93.09,1,1.59,1,1.5,0Z"/><path d="M281.57,488.85c8.44-.41,15.17,6.09,23.58,6,4-.06,7.81-1.4,11.68-2.06a115.88,115.88,0,0,1,14.29-1.2,63.61,63.61,0,0,1,15.94,1c4,.84,8,1.89,12.16,1.55,3.37-.28,6.53-1.46,9.75-2.4,5-1.45,9.65-1.47,14.77-1.5A90.29,90.29,0,0,0,409,486.35c8.1-2.48,13.07-9.15,19.67-14,11.77-8.66,27-14,30.32-29.93.2-.94-1.25-1.34-1.45-.4-3.6,17.21-21.81,22-33.64,32.26-3.11,2.7-6,5.86-9.48,8-3.93,2.4-8.26,3.29-12.71,4.2a101.91,101.91,0,0,1-14.43,2.16c-4,.22-8.05-.2-12.05.22a54.78,54.78,0,0,0-9.82,2.41,28.75,28.75,0,0,1-14.56.61,92.88,92.88,0,0,0-23.37-1.66,95,95,0,0,0-11.05,1.09c-4.26.72-8.56,2.31-12.93,2-7.76-.6-13.95-6.32-21.94-5.93-1,0-1,1.54,0,1.5Z"/><path d="M357.63,394.25a77.26,77.26,0,0,0,5.9,8.77c2.47,3.15,6.09,6,7.28,9.91.28.92,1.73.53,1.45-.4-.94-3.1-3.11-5.19-5.19-7.57a73.74,73.74,0,0,1-8.14-11.47.75.75,0,0,0-1.3.76Z"/><path d="M389.28,415.63a47.57,47.57,0,0,0,25.94-7.06c.82-.51.07-1.81-.76-1.3a45.94,45.94,0,0,1-25.18,6.86.75.75,0,0,0,0,1.5Z"/><path d="M381.39,391.8l.57-1.14-1.37-.18A44.39,44.39,0,0,1,379.17,417c-.33.91,1.12,1.3,1.45.4A45.9,45.9,0,0,0,382,390.08a.76.76,0,0,0-1.37-.18L380.1,391c-.43.87.86,1.63,1.29.76Z"/><path d="M438.44,355.83a21,21,0,0,1,8.15-2.6c1.26-.12,2.73,0,3.39-1.33,1.73-3.46-3.48-4.33-5.45-4.94-.92-.28-1.32,1.17-.39,1.45,1.21.37,3.45.38,4.1,1.59.82.69.52,1.25-.9,1.67l-.75.06c-.55.09-1.14.12-1.69.22a22.37,22.37,0,0,0-7.22,2.58c-.84.47-.09,1.76.76,1.3Z"/><path d="M438.22,361.36c0-1.29,3.34-1.26,4.16-2.05a2.2,2.2,0,0,0,.27-2.84c-1.79-2.69-6.62-1.1-8.89,0-.87.42-.11,1.71.76,1.3a11.25,11.25,0,0,1,4.26-1.15c.93-.06,2.65-.21,2.43,1.12.15.53,0,.82-.6.84a7.1,7.1,0,0,1-.8.17c-1.48.3-3.08.86-3.09,2.62a.75.75,0,0,0,1.5,0Z"/><path d="M377,289.88c-1.37,4.86,2.86,7.48,7.06,8.26,3.9.73,7.82,1,11.67,2,5,1.36,13.7,3.71,14.47,10,.12.94,1.62.95,1.5,0-.6-4.89-4.59-7.28-8.81-9.12a52.88,52.88,0,0,0-12-3.51c-3.86-.66-14.41-.26-12.44-7.26a.75.75,0,0,0-1.44-.4Z"/><path d="M371,310.36c9.58-5.16,20.63-2.92,29.15,3.28,3.92,2.85,6.76,6.4,10,9.92,2,2.16,3.68,3.57,6.67,3.66,1,0,1-1.47,0-1.5-5.05-.15-9.65-8.25-13.24-11.28a38.26,38.26,0,0,0-9.71-6.12,27.05,27.05,0,0,0-23.62.75c-.85.45-.09,1.75.76,1.29Z"/><path d="M413.85,337.37c-.65-5.23,6.33-1.71,7.65-1.09.67.31,1.31.66,2,1a12.18,12.18,0,0,0,4.71,1.22,6.28,6.28,0,0,0,5.62-3c.52-.81-.78-1.57-1.29-.75-3.84,6-10.91-1.41-15.7-1.61-2.66-.11-4.82,1.47-4.47,4.26.11.94,1.62,1,1.5,0Z"/><path d="M341.7,511.48A332.34,332.34,0,0,1,307,507.24c-8.45-1.49-17-3.2-24.82,1.31a.75.75,0,0,0,.75,1.3c9.56-5.5,21-1.47,31.18.08,9.16,1.41,18.37,2.4,27.61,3.05,1,.06,1-1.44,0-1.5Z"/><path d="M322.5,514.35c-.49,3.43,1.31,6.32,2.67,9.4a40.84,40.84,0,0,1,2.79,7.33c1.06,4.7-1.78,6.94-5.27,9.08-.82.51-.07,1.81.76,1.3,4.27-2.62,6.95-3.74,6.27-9.07-.73-5.68-6.57-12.1-5.77-17.64.13-1-1.31-1.36-1.45-.4Z"/><path d="M333.65,517.25l7.85,9.27a29.31,29.31,0,0,1,3.36,4c2.58,4.73-.22,6.4-3.51,8.28a.75.75,0,0,0,.75,1.3c2.78-1.59,7.11-4.35,5.86-8.05-.76-2.22-3.92-4.82-5.4-6.56l-7.85-9.27c-.62-.74-1.68.32-1.06,1.06Z"/><path d="M317.54,512.29c-4.29,2.08-10.15,2.94-12.3,7.91-.77,1.77-.43,3,.57,4.55,1.91,3,3.67,5.25,4.51,8.88.22.94,1.66.54,1.45-.4a21.83,21.83,0,0,0-1.51-4.52c-.65-1.35-2.09-2.68-2.57-4-.62-1.76-.17-5.14,1-6.52a9.82,9.82,0,0,1,2.9-2c2.12-1.08,4.53-1.58,6.68-2.63.87-.42.11-1.71-.76-1.29Z"/><path d="M300.24,516.3c-1.69.79-4.47,2-3.42,4.21,1.63,3.47,4.75,5.89,6.12,9.58.33.9,1.78.51,1.45-.4a23.66,23.66,0,0,0-3.37-5.87,22.31,22.31,0,0,1-2-2.68c-1.11-2.09.27-2.76,2-3.55.88-.41.11-1.7-.76-1.29Z"/><path d="M357.74,516.49l-.56-.32c-.62-.35-1.48.39-1,1l3.65,5.17c1.89,2.68,2.66,4.81.06,7.51-2.12,2.19-3.74,4.21-3.9,7.34,0,1,1.45,1,1.5,0,.25-4.76,6.21-6.43,6.15-10.76-.05-3.34-4.32-7.41-6.16-10l-1,1,.56.32c.84.48,1.6-.82.76-1.29Z"/><path d="M377.47,514.76c-.63,2.15,2.58,3.61,4.06,4.55,2.1,1.34,5.4,3.1,2.67,5.92a31.32,31.32,0,0,0-3,3c-.57.77.73,1.52,1.3.75,1.55-2.07,5.43-3.82,4.29-7.05-.73-2.07-8.28-5.23-7.84-6.73a.75.75,0,0,0-1.45-.4Z"/><path d="M262.19,497.33a6.9,6.9,0,0,1,4.13-4.71c.89-.34.5-1.79-.4-1.44a8.42,8.42,0,0,0-5.17,5.75.75.75,0,0,0,1.44.4Z"/><path d="M273.88,492.66c-.4,2.23-.64,4.66.52,6.71A5,5,0,0,0,279,502c1-.07,1-1.57,0-1.5-4.08.28-4.18-4.66-3.68-7.45.17-.94-1.28-1.35-1.45-.4Z"/><path d="M313.75,497.29c-.13-.21-3.71,2.11-4.11,2.37a12.59,12.59,0,0,0-3.24,2.93c-.59.76.71,1.51,1.29.75,1.35-1.77,3.37-2.77,5.22-3.92.91-.57,2.93-1.53,2.13-2.88a.75.75,0,0,0-1.29.75Z"/><path d="M338.63,497.92a3.65,3.65,0,0,0-3.54,5c.36.89,1.81.5,1.45-.4a2.16,2.16,0,0,1,2.09-3.08.75.75,0,0,0,0-1.5Z"/><path d="M352.32,500.9c2.67-.49,6.42,2,8.21-1.22.46-.84-.83-1.6-1.3-.75-.77,1.4-2.54,1-3.82.74a8.54,8.54,0,0,0-3.48-.22c-.95.18-.55,1.62.39,1.45Z"/><path d="M392.71,502.83c.77-4.21,4.17-3.7,7.4-4.72a18.85,18.85,0,0,0,6-3.73c.75-.61-.32-1.67-1.06-1.06a16.33,16.33,0,0,1-5.79,3.48c-1.43.38-3,.24-4.34.83a6.28,6.28,0,0,0-3.68,4.8c-.18.95,1.27,1.35,1.44.4Z"/><path d="M422.3,487.37c-.18-.68,5.31-3.18,6.07-3.56,2.24-1.09,4.53-2.05,6.86-2.91.9-.33.51-1.78-.4-1.44a75.48,75.48,0,0,0-9.76,4.37c-1.38.74-4.76,1.84-4.22,3.93a.75.75,0,0,0,1.45-.39Z"/><path d="M458.92,457.8c-6.22,6.95-15.55,9.38-22.95,14.75-.78.56,0,1.86.76,1.29,7.51-5.44,16.93-7.92,23.25-15,.64-.72-.42-1.79-1.06-1.06Z"/><path d="M286.41,539.21c-7.59,4.51-6.67,13.65-5.32,21.15.18.95,1.62.55,1.45-.4-1.22-6.77-2.31-15.33,4.62-19.45a.75.75,0,0,0-.75-1.3Z"/><path d="M280.81,534.78a22.92,22.92,0,0,0-8.05,12.05.75.75,0,0,0,1.45.4,21.62,21.62,0,0,1,7.66-11.39c.76-.6-.31-1.65-1.06-1.06Z"/><path d="M275.21,526.65a40.48,40.48,0,0,0-19.81,16.63c-.51.82.79,1.58,1.29.76a38.85,38.85,0,0,1,18.92-15.95c.89-.35.5-1.8-.4-1.44Z"/><path d="M313.69,550.08l-.11,0a.77.77,0,0,0-.85.35c-.12.28-.1.61-.19.85a15.53,15.53,0,0,1,.53,3.78,21.45,21.45,0,0,1-.28,3.84,45.09,45.09,0,0,1-3.3,10.23c-.37.89,1.08,1.28,1.45.4a47.17,47.17,0,0,0,3.3-10.23c.29-1.78,1.3-7-.95-7.74a.75.75,0,0,0,.4-1.44Z"/><path d="M324.73,554.79c.81,10.18-9.12,15.63-15.21,22.09-.66.7.4,1.77,1.06,1.06,6.4-6.79,16.5-12.48,15.65-23.15-.08-1-1.58-1-1.5,0Z"/><path d="M331.5,556.36c1.35,8.24-3.38,14.94-8.84,20.53-.68.69.38,1.75,1.06,1.06,5.9-6,10.67-13.18,9.23-22-.16-1-1.6-.55-1.45.4Z"/><path d="M339.9,556.34a16,16,0,0,1-2.62,13c-.56.79.74,1.54,1.29.76a17.42,17.42,0,0,0,2.78-14.12c-.22-.94-1.66-.54-1.45.4Z"/><path d="M349,556.09c1.57,1,1.34,3.93,1.22,5.57a15.21,15.21,0,0,1-1.81,6.07c-.45.85.84,1.61,1.29.76a16.75,16.75,0,0,0,2.05-8.1c0-2-.16-4.46-2-5.59-.82-.51-1.58.79-.76,1.29Z"/><path d="M354.82,553.52a11.65,11.65,0,0,1,1.71,10,.75.75,0,0,0,1.44.4,13.11,13.11,0,0,0-1.86-11.12c-.54-.79-1.84,0-1.29.76Z"/><path d="M379.41,545.21l0-.18-1.47-.2a27.25,27.25,0,0,1-2.4,11.14c-.4.88.9,1.64,1.29.76a29,29,0,0,0,2.61-11.9c0-.82-1.33-1.06-1.48-.2l0,.18c-.17,1,1.27,1.35,1.45.4Z"/><path d="M332,606.71c6.75-5.88,17.12-8.07,25.44-11,7.51-2.66,14.86-5.59,21.67-9.79.82-.5.07-1.8-.76-1.29-8.15,5-17.12,8.17-26.12,11.32-7.12,2.49-15.49,4.68-21.29,9.72-.73.63.33,1.69,1.06,1.06Z"/><path d="M262.93,583.78a16.56,16.56,0,0,0,5,8.17c3.06,2.82,11.93,6.3,10.69,11.39-.23.93,1.21,1.33,1.44.4.78-3.2-.79-5.46-3.33-7.31-5.06-3.7-10.68-6.46-12.38-13a.75.75,0,0,0-1.45.4Z"/><path d="M246.43,597.14c1.7,5.68-.45,11.43-1.74,17-1.2,5.16-2.22,10.35-3.13,15.56-.16,1,1.28,1.35,1.45.4q1.68-9.66,4-19.19c1.18-4.8,2.33-9.3.88-14.15a.75.75,0,0,0-1.45.4Z"/><path d="M305.56,639.59c-1.79,8.1-3.58,16.38-7.41,23.8-3.53,6.84-9.08,12.07-13.7,18.12a31.16,31.16,0,0,0-6.72,15.77c-.67,5.52-1.59,10.15-5.16,14.6a62,62,0,0,1-7.55,7.47c-.72.64.34,1.7,1.06,1.06,4.92-4.35,10.1-9.06,12-15.57,1.32-4.53.87-9.36,2.52-13.84,1.47-4,4.07-7.48,6.76-10.75,4.67-5.69,9.63-10.86,12.81-17.6,3.39-7.17,5.13-14.95,6.83-22.66.21-.94-1.24-1.34-1.45-.4Z"/><path d="M265.75,718.56c-7.88,1.05-10.95,8.57-13.36,15.24-3.77,10.42-7.37,20.91-9.43,31.82-.17,1,1.27,1.35,1.45.4a166.22,166.22,0,0,1,6.35-23.1c2.63-7.68,5.28-21.56,15-22.86.95-.12,1-1.62,0-1.5Z"/><path d="M314.84,698.72c-.64,6.68-4.3,12.28-7.8,17.83s-7,10.74-10.75,16c-6.42,9-14.27,17.37-17.55,28.12-.28.92,1.17,1.32,1.45.4,3.72-12.2,13.44-21.95,20.56-32.26,6.13-8.86,14.54-19,15.59-30,.09-1-1.41-1-1.5,0Z"/><path d="M316,703.61l4.47,28.64c1.54,9.87,3.2,19.71,2.79,29.73,0,1,1.46,1,1.5,0,.39-9.51-1.09-18.85-2.55-28.22q-2.37-15.27-4.76-30.55c-.15-1-1.6-.55-1.45.4Z"/><path d="M336.72,685.24c4.79,15.9,15.47,29.18,20.16,45.12a.75.75,0,0,0,1.44-.4C353.63,714,343,700.74,338.16,684.84a.75.75,0,0,0-1.44.4Z"/><path d="M374.92,643.25A67,67,0,0,1,366,660.47c-3.94,5.43-8.69,9.29-13.52,13.81-3.44,3.21-3,6.52-1.52,10.76,2.46,7.27,5.28,14.44,7.92,21.65.33.9,1.78.51,1.44-.4l-6.93-18.95c-1.59-4.35-2.89-8.46.73-12.47,1.87-2.08,4.45-3.7,6.45-5.7a68.38,68.38,0,0,0,15.83-25.52c.32-.91-1.13-1.31-1.45-.4Z"/><path d="M344.35,659.52A15.66,15.66,0,0,1,337,637.44c.46-.85-.84-1.61-1.29-.76-4.86,9.11-1.5,19.72,7.87,24.13.87.41,1.63-.88.76-1.29Z"/><path d="M359,739a206.49,206.49,0,0,0,21,17.07c.79.56,1.54-.74.76-1.29A205.64,205.64,0,0,1,360.1,738c-.71-.66-1.77.4-1.06,1.06Z"/><path d="M241,806.2c.4-9.71,17.09-18.24,25.39-18.8,4.06-.27,7.53-.36,11.38-1.95a59,59,0,0,0,10.44-6.1c.79-.54,0-1.84-.76-1.3-5.5,3.74-11.07,7.32-17.9,7.78-4.59.31-8.34.42-12.53,2.57-6.54,3.35-17.18,9.43-17.52,17.8,0,1,1.46,1,1.5,0Z"/><path d="M293.41,777.87a123.42,123.42,0,0,1,62.43.15.75.75,0,0,0,.39-1.45,125.16,125.16,0,0,0-63.22-.15.75.75,0,0,0,.4,1.45Z"/><path d="M367.91,781.05a49.29,49.29,0,0,1,21.47,6.47.75.75,0,0,0,.75-1.29,51.08,51.08,0,0,0-22.22-6.68c-1-.06-1,1.44,0,1.5Z"/><path d="M385.93,793.23c-9.14-7.51-29.32-10-35.34,2.68-.41.87.88,1.63,1.29.76,5.55-11.64,24.57-9.3,33-2.38.74.61,1.81-.44,1.06-1.06Z"/><path d="M290.18,806.28c7.89-5,16-10,25.6-10.6a68.07,68.07,0,0,1,24,2.89c7.83,2.54,11.24,8.1,15.32,14.69,2.52,4.06,5.26,7.61,9.81,9.42.9.35,1.29-1.1.4-1.45-7.08-2.82-9.41-10.65-13.72-16.28-4-5.19-9.57-7.7-15.86-9-7.58-1.51-16-2.66-23.65-1.4-8.34,1.36-15.6,5.94-22.61,10.39-.81.52-.06,1.82.76,1.3Z"/><path d="M243,812.42c1.8-7.66,10.26-8,16.65-7.81,5.61.13,11.21.33,16.82.49,1,0,1-1.47,0-1.5-7.8-.23-16.36-1.46-24.1-.28-5.09.77-9.58,3.44-10.82,8.7-.22.94,1.23,1.34,1.45.4Z"/><path d="M258.48,678.77c-12.65,8.42-23.58,17.82-30,31.9A334.86,334.86,0,0,0,210.74,761a.75.75,0,0,0,1.44.4A346.63,346.63,0,0,1,229.1,713c6.44-14.64,17-24.21,30.14-32.94.8-.53.05-1.83-.76-1.3Z"/><path d="M224,736.23a100.89,100.89,0,0,0,3.46,39.52.75.75,0,0,0,1.45-.4,99.63,99.63,0,0,1-3.41-39.12c.11-1-1.4-1-1.5,0Z"/><path d="M240.84,771.27l2.39,18.18c.12.95,1.63,1,1.5,0l-2.39-18.18c-.12-.95-1.62-1-1.5,0Z"/><path d="M272.41,782.69a59.24,59.24,0,0,1,1.27-22c.23-.94-1.21-1.34-1.44-.4a60.29,60.29,0,0,0-1.33,22.35c.12.95,1.62,1,1.5,0Z"/><path d="M285.19,711.6c-1.88,3.8-4.94,6.25-8.29,8.7-1.35,1-4.6,2.59-5.46,4.2-1.85,3.5,4.31,9.5,6.4,11.79.65.72,1.71-.35,1.06-1.06-1.87-2.05-4.54-4.65-5.42-7.32-1.26-3.8,2.75-5.24,5.34-7.16,3.17-2.34,5.9-4.82,7.67-8.4.43-.86-.87-1.62-1.3-.75Z"/><path d="M294.88,684.58c1.16,2,3.33,4.88,3.37,7.18,0,2.45-1.29,4.3-2.51,6.24a42,42,0,0,0-3.89,8c-.33.9,1.12,1.29,1.45.39a40.06,40.06,0,0,1,3.73-7.68c1-1.51,2.73-3.11,3-5,.46-3.13-2.4-7.42-3.86-9.94a.75.75,0,0,0-1.3.76Z"/><path d="M257.9,778a30.22,30.22,0,0,0-3.23-5.77c-2.21-3-2.23-6.65-.75-10.06,2-4.59,4.42-8.79,6.05-13.57.31-.91-1.14-1.31-1.45-.4a76.38,76.38,0,0,1-5,11.61c-1.1,2-3,4.25-3.4,6.61a4.67,4.67,0,0,0,.94,3.72c1.83,3,4.1,5.32,5.55,8.62.38.88,1.68.11,1.29-.76Z"/><path d="M295.22,616.87c.79,15-6.64,28.2-11,42.09-.29.93,1.16,1.32,1.45.4,4.42-14,11.87-27.37,11.07-42.49-.05-1-1.56-1-1.5,0Z"/><path d="M251.41,644a173.44,173.44,0,0,1,22.68-19.15c.78-.56,0-1.86-.76-1.3a176.49,176.49,0,0,0-23,19.39c-.68.69.38,1.75,1.06,1.06Z"/><path d="M241.22,571.16a116.07,116.07,0,0,1-3.93,26.2c-2,7.64-3.85,15.15-3.2,23.1.08,1,1.58,1,1.5,0-.75-9.1,1.93-17.61,4.07-26.34a107,107,0,0,0,3.06-23c0-1-1.47-1-1.5,0Z"/><path d="M243,642.27c-.47-5.11,2.64-10.07,5-14.48,2.05-3.84,4.29-7.57,6.65-11.22.53-.82-.77-1.57-1.29-.76a148.64,148.64,0,0,0-8.36,14.54c-1.9,3.83-3.88,7.54-3.48,11.92.09,1,1.59,1,1.5,0Z"/><path d="M273.26,484.18a3.8,3.8,0,0,1,1.27-4.23c.75-.61-.32-1.66-1.06-1.06a5.25,5.25,0,0,0-1.66,5.69c.3.91,1.75.52,1.45-.4Z"/><path d="M272.51,464c-2-.66-6.45-1.91-7.88.39-1,1.54-1.29,3.54-2.25,5.16a22.82,22.82,0,0,1-4.22,5.12c-.71.65.35,1.71,1.06,1.06a24,24,0,0,0,5.08-6.55c.53-1,.8-2.39,1.4-3.34,1.26-2,4.57-1,6.41-.4.91.31,1.31-1.14.4-1.44Z"/><path d="M212,475.56a6.14,6.14,0,0,1,4.6,4.48c.33,1.34.29,2.66,1.06,3.87,1.38,2.19,4.12,3,6.47,3.6a.75.75,0,0,0,.4-1.45c-1.75-.45-3.8-.95-5.1-2.31s-1-3.39-1.7-5.09a7.62,7.62,0,0,0-5.33-4.55.75.75,0,0,0-.4,1.45Z"/><path d="M230.88,493.87a14.61,14.61,0,0,0,10.22,5.58c1,.09,1-1.41,0-1.5a13.12,13.12,0,0,1-9.15-5.14c-.6-.76-1.65.31-1.07,1.06Z"/><path d="M233.24,487.61a16.87,16.87,0,0,1,9.63,2.76c.81.53,1.57-.77.76-1.29a18.31,18.31,0,0,0-10.39-3,.75.75,0,0,0,0,1.5Z"/><path d="M215.39,509.66c2.71-1.83,8.38-.41,11.42-.07a110.73,110.73,0,0,1,12.26,2.16c.93.22,1.34-1.23.39-1.45A110.09,110.09,0,0,0,225,507.91c-3.1-.29-7.63-1.41-10.39.45-.79.54,0,1.84.76,1.3Z"/><path d="M213.43,505.8a18.47,18.47,0,0,1-10.72-10.61c-.34-.89-1.79-.51-1.44.39A20.14,20.14,0,0,0,213,507.25c.9.34,1.29-1.11.39-1.45Z"/><path d="M313,380.3A46.31,46.31,0,0,1,318,407.66c-.11,1,1.39.95,1.5,0a47.69,47.69,0,0,0-5.26-28.11c-.45-.86-1.74-.1-1.29.75Z"/><path d="M433.56,670.23a201.13,201.13,0,0,1-27.28,4.22c-1,.08-1,1.58,0,1.5A203.88,203.88,0,0,0,434,671.67c.94-.21.54-1.65-.4-1.44Z"/><path d="M645.78,470.14c3.51,19.46-6.45,39.66-15.93,56.14a248.35,248.35,0,0,1-30.58,41.57,358.14,358.14,0,0,1-87.15,70.29,309.54,309.54,0,0,1-58,26.34c-.92.3-.53,1.75.39,1.45,36.78-12.13,70.94-31.78,101.35-55.61,29.06-22.77,55.9-50.05,74.63-82.08,10-17.14,20.45-38.17,16.78-58.5-.17-.95-1.62-.55-1.45.4Z"/><path d="M398.69,529.3c1.37-5,6.15-7.95,10.05-10.87q5.11-3.82,10.42-7.39,9.88-6.65,20.35-12.37a275.43,275.43,0,0,1,45.87-19.9,336.7,336.7,0,0,1,49.16-11.72c17.91-3.06,36-5.46,54.21-5.67,19.56-.23,39.07,2.3,57.33,9.55.89.35,1.28-1.1.39-1.45-34-13.47-71.42-10.51-106.73-4.81-35.08,5.66-68.88,15.26-100.24,32.29a261.92,261.92,0,0,0-24.61,15.19c-6,4.21-15.56,9.17-17.65,16.75a.75.75,0,0,0,1.45.4Z"/><path d="M403.67,595.71c64.87-29.92,130.54-58.77,191.42-96.4,16.92-10.45,33.76-21.1,52.11-28.9.88-.37.12-1.67-.76-1.29-16.08,6.83-31,15.84-45.85,25-15.14,9.38-30.4,18.5-46,27-31.22,17.09-63.36,32.4-95.63,47.37q-28,13-56,25.86c-.87.41-.11,1.7.76,1.3Z"/><path d="M450,668.31c1.9,2.1,4.75,4.2,7.62,2.72.86-.44.1-1.74-.75-1.3-2.19,1.13-4.45-1-5.81-2.48-.65-.72-1.71.34-1.06,1.06Z"/><path d="M438.75,670.73c1.17,1.2,2.18,2.57,3.4,3.72a12.6,12.6,0,0,0,4.14,2.46c.89.36,1.28-1.09.4-1.44A10.94,10.94,0,0,1,442.8,673c-1-1.07-1.95-2.25-3-3.31-.68-.69-1.74.37-1.06,1.06Z"/><path d="M461.09,664.8c4.38.09,9.51-.54,10.91-5.4a.75.75,0,0,0-1.45-.4c-1.19,4.13-5.84,4.37-9.46,4.3a.75.75,0,0,0,0,1.5Z"/><path d="M449.41,675.24a.75.75,0,0,0,0-1.5.75.75,0,0,0,0,1.5Z"/><path d="M340.55,5c-1.43,9.28,7.72,17.65,14.31,22.77a135.27,135.27,0,0,0,17.14,11c6,3.35,14.48,5.94,18.58,11.74,3.17,4.48,2.11,9.65,1.38,14.73-.58,4.08-1.17,8.17-1.79,12.24-1.22,8.16-2.55,16.3-4.13,24.4a319.25,319.25,0,0,1-12.8,45.91c-5.75,16.18-11.48,32.56-11.21,50a.75.75,0,0,0,1.5,0c-.25-16,4.65-31.2,9.94-46.13,5.2-14.71,9.9-29.39,13.08-44.69s5.82-30.69,7.53-46.11c1.52-13.69-10.44-17.35-20.53-22.9-7.15-3.94-14.43-8.2-20.59-13.61-5.1-4.49-12.11-11.4-11-18.86.14-.94-1.3-1.35-1.45-.4Z"/><path d="M186.85,190.29c31.42-14.34,60.83-31.08,88-52.56.75-.6-.32-1.65-1.06-1.06-27,21.41-56.35,38-87.66,52.32-.88.4-.12,1.7.76,1.3Z"/><path d="M244.92,208.58,274.85,139,322.72,27.63l7.42-17.26c.91-2.1,1.89-6.77,3.6-8.36.09-.08.08-.36.18-.42,2.07-1.31,6.64,3,6.58,3.5a9,9,0,0,1-.87,2.06l-5,11.77L290.05,123.29l-23.13,54.17c-4.22,9.89-8.85,19.7-12.7,29.74-.18.47-.39.92-.58,1.38a.76.76,0,0,0,.64,1.13c13.43,0,19.69,15.33,32.37,17.81,1,.19,1.35-1.26.4-1.44-12.82-2.51-19-17.91-32.77-17.87l.65,1.12,31.61-74L334.11,23.87,340.2,9.6c1-2.39,2.26-3.84.93-6.3-1.87-3.46-7.26-4.8-9.12-1-1.77,3.57-3.17,7.38-4.75,11.05L281.44,119.89c-12.39,28.79-25.16,57.46-37.16,86.42-.21.5-.43,1-.65,1.51-.38.88.91,1.65,1.29.76Z"/><path d="M361.72,343.12c-.44-1.16-.41-2.42-1.16-3.45-.56-.78-1.86,0-1.29.75s.62,2.07,1,3.1,1.79.51,1.44-.4Z"/><path d="M361.64,300c-3.64-2.3-3.34-8.75-2.22-12.24.3-.92-1.15-1.32-1.45-.4-1.34,4.18-1.32,11.26,2.91,13.93.82.52,1.57-.78.76-1.29Z"/><path d="M349.08,484.93a55.58,55.58,0,0,1,10,3c.89.35,1.28-1.1.39-1.45a55.1,55.1,0,0,0-10-3c-.94-.19-1.34,1.26-.39,1.45Z"/><path d="M406.81,454.73c11.88-13.28,23.58-26.76,34.11-41.15.57-.78-.73-1.53-1.29-.76-10.45,14.29-22.09,27.67-33.88,40.85-.65.72.41,1.78,1.06,1.06Z"/><path d="M406.55,454.4c2.69,10.11,6,19.11,3,29.6a.75.75,0,0,0,1.45.4c3.07-10.77-.23-19.95-3-30.4a.75.75,0,0,0-1.45.4Z"/><path d="M359.92,486.58c4.37-9.27,10.56-16.59,19.52-21.73,8.51-4.88,17.68-7.33,27-9.92a.75.75,0,0,0-.39-1.45c-9.91,2.75-19.66,5.38-28.55,10.75-8.62,5.21-14.64,12.55-18.9,21.59-.41.87.88,1.63,1.29.76Z"/><path d="M348.55,375.4c5,18.19,6.28,41.34-2.92,58.42-.46.85.83,1.61,1.29.76,9.42-17.48,8.21-41,3.08-59.58a.75.75,0,0,0-1.45.4Z"/><path d="M358.9,487.85c2.47,1.7,5.32,2.69,8,4,.86.42,1.62-.87.75-1.3-2.68-1.3-5.52-2.29-8-4-.79-.54-1.54.76-.75,1.3Z"/><path d="M289.55,449c-1.56,6.57,4.93,11.31,10.53,12.93a.75.75,0,0,0,.39-1.45c-4.74-1.37-10.83-5.38-9.47-11.08.22-.94-1.22-1.34-1.45-.4Z"/><path d="M350,484.4c5.89-16.68,2.35-35.06-3-51.4-.3-.91-1.75-.52-1.45.4,5.28,16.11,8.81,34.15,3,50.6-.32.91,1.13,1.31,1.45.4Z"/><path d="M300.92,461.58c10.85-15.94,26.92-24.13,45.55-27.65.95-.18.55-1.63-.39-1.45-19.05,3.6-35.39,12.07-46.45,28.34-.55.8.75,1.55,1.29.76Z"/><path d="M299.28,461.9a50,50,0,0,0,20.24,16.63c9,4.17,19,4.62,28.56,6.4.94.17,1.34-1.28.39-1.45-8.68-1.61-17.79-2.05-26.07-5.35a48.2,48.2,0,0,1-21.83-17c-.54-.78-1.84,0-1.29.76Z"/><path d="M363.81,192.67C353.74,182,343.16,174.33,329,169.93c-16.81-5.25-36.3-5.85-50-18.11-.72-.64-1.78.41-1.06,1.06,12.39,11.08,29.19,12.71,44.63,16.76,7.56,2,15.14,4.46,21.9,8.44,7,4.11,12.75,9.79,18.26,15.65.66.71,1.72-.35,1.06-1.06Z"/><path d="M31.81,318.73A63.43,63.43,0,0,1,52,305a94.24,94.24,0,0,1,11.73-4.33c3-.88,6.18-1.52,8.77-3.38,2.78-2,4.63-5.12,7-7.56A54.21,54.21,0,0,1,89.24,282c6.79-4.32,14.23-7.55,21.52-10.93,8.4-3.9,16.75-8,25.25-11.68s17.26-4.47,26.18-6.55a69.42,69.42,0,0,0,35.54-21c3.42-3.8,6.31-9.72,12.4-8.49a42.71,42.71,0,0,0,10.49,1.13c2.82-.09,6.7-.14,8.3-2.91a.75.75,0,0,0-1.29-.76c-2.37,4.1-13,2.17-16.41,1.32-5.78-1.46-8.5,1.36-12.09,5.75a68.82,68.82,0,0,1-39.87,24.05c-7.68,1.52-15.17,2.46-22.46,5.49-8.15,3.4-16.09,7.38-24.11,11.1C98.88,274.94,84.94,280.76,75,292.69c-5.59,6.67-16,7.53-23.71,11a64.76,64.76,0,0,0-20.5,14c-.67.7.39,1.76,1.06,1.06Z"/><path d="M91,382.2c-1.8-13.7,18.33-9.57,25.72-14.82,4.58-3.25,7.44-8.56,10.54-13.1a226.36,226.36,0,0,1,13.79-18.38c3.08-3.63,6.35-5.67,11.31-5.64,2.85,0,5.58.43,8.34-.52,4.23-1.46,7.08-5.33,9.83-8.62,7.34-8.79,20.58-17.09,32.52-15.19.94.14,1.35-1.3.39-1.45-10.65-1.69-22.3,4.36-30,11.33-4.62,4.18-7.93,11.33-14.43,12.86-3.93.92-8-.68-11.93.59a14.55,14.55,0,0,0-6,4.36c-5.16,5.64-9.67,12.11-14,18.37s-8.28,14.6-16.32,16.46c-8.22,1.9-22.81,1.5-21.2,13.75.12.95,1.62,1,1.5,0Z"/><path d="M213.81,303.73c3.12-2.89,7.14-2.37,11-2.92a52.79,52.79,0,0,0,9.8-2.58c6.42-2.26,12.61-7.52,19.66-7.28,1,0,1-1.46,0-1.5-7.51-.26-14.22,5.39-21.08,7.67a47.55,47.55,0,0,1-11.72,2.42c-3.21.23-6.31.89-8.73,3.13-.72.66.35,1.72,1.06,1.06Z"/><path d="M284.08,281.93c14.4,3.11,28.34-3.76,41.23-9.58,12.64-5.7,21.71-16,28.61-27.77a.75.75,0,0,0-1.29-.76c-6.54,11.15-15,21.06-26.89,26.69-6.05,2.87-12.51,5.29-18.77,7.68-7.43,2.84-14.62,4-22.5,2.29-.94-.2-1.34,1.24-.39,1.45Z"/><path d="M438.75,676.73a3.87,3.87,0,0,0,6-.5c.59-.75-.46-1.81-1.06-1.06-1.09,1.38-2.53,1.78-3.9.5-.71-.65-1.77.4-1.06,1.06Z"/><path d="M445.83,676.77a3.81,3.81,0,0,0,3.94-1.72c.52-.82-.78-1.57-1.29-.76a2.23,2.23,0,0,1-2.25,1c-1-.16-1.35,1.28-.4,1.45Z"/><path d="M449.32,674.8c1.38.63,2.93,1.27,4.42.58a5.71,5.71,0,0,0,2.48-3c.41-.87-.89-1.63-1.29-.75a5.89,5.89,0,0,1-1.38,2.14c-1.06.87-2.39.27-3.47-.22-.87-.4-1.64.89-.76,1.29Z"/><path d="M456.51,671.87c1.36-1,2.79-1.23,3.56-2.91a13.55,13.55,0,0,0,.94-5.71.75.75,0,0,0-1.5,0,13.74,13.74,0,0,1-.6,4.55c-.59,1.71-1.89,1.81-3.15,2.77-.76.58,0,1.88.75,1.3Z"/><path d="M434.23,673.05a40.55,40.55,0,0,0,5,3.84c.81.52,1.57-.78.76-1.3a39.11,39.11,0,0,1-4.71-3.6c-.72-.64-1.78.42-1.06,1.06Z"/><path d="M435,672c-.59-2.23.14-4.53,0-6.8,0-1-1.55-1-1.5,0,.12,2.42-.61,4.81,0,7.2A.75.75,0,0,0,435,672Z"/><path d="M439.91,670.1a28.12,28.12,0,0,1-1.88-6.9c-.13-.94-1.63-1-1.5,0a29.61,29.61,0,0,0,1.93,7.29c.36.89,1.81.5,1.45-.39Z"/><path d="M444,667.06a44,44,0,0,1-2-7.06c-.2-.94-1.65-.54-1.45.4a46.15,46.15,0,0,0,2,7.06c.35.89,1.8.5,1.45-.4Z"/><path d="M449.05,665.15a28.68,28.68,0,0,1-1.26-7l-1.48.2.07.36c0,1,1.54,1,1.5,0a2.74,2.74,0,0,0-.12-.76c-.24-.78-1.52-.68-1.47.2a30.9,30.9,0,0,0,1.31,7.39c.28.92,1.73.53,1.45-.4Z"/><path d="M449.83,673.25a6.78,6.78,0,0,1-2.42-1.43,19.31,19.31,0,0,1-2.19-2c-.68-.69-1.74.37-1.06,1.06a21.67,21.67,0,0,0,2.49,2.19,8,8,0,0,0,2.78,1.58c.94.21,1.34-1.24.4-1.45Z"/><path d="M448,658c.42.13.84.26,1.25.41a1.1,1.1,0,0,1,.66.42.75.75,0,0,0,1.29-.76c-.56-1-1.81-1.2-2.8-1.52s-1.32,1.15-.4,1.45Z"/><path d="M450,659.54a43.27,43.27,0,0,1,2.91,5.46c.39.88,1.69.12,1.3-.76a42.08,42.08,0,0,0-2.92-5.46c-.51-.81-1.81-.06-1.29.76Z"/><path d="M442,660.17a4.69,4.69,0,0,1,1.68-.47c1-.08,1-1.58,0-1.5a6.5,6.5,0,0,0-2.44.68c-.86.43-.1,1.72.76,1.29Z"/><path d="M444.05,659.92c1.66.8,2.5,3.37,3.1,5,.33.9,1.78.51,1.44-.4-.73-2-1.73-4.88-3.78-5.87-.87-.42-1.63.88-.76,1.3Z"/><path d="M437.69,661.37a1.24,1.24,0,0,0-.27.49.75.75,0,0,0,.72.95,3.42,3.42,0,0,1,2.27.39c.79.56,1.54-.74.76-1.29a4.69,4.69,0,0,0-3-.6l.72,1-.11.17a.76.76,0,0,0,0-1.06.75.75,0,0,0-1.06,0Z"/><path d="M435.07,665.83a2,2,0,0,1,1.72.58c.69.67,1.76-.39,1.06-1.06a3.66,3.66,0,0,0-3.18-1,.75.75,0,0,0-.52.92.77.77,0,0,0,.92.53Z"/><path d="M400.53,513.2c0,1.81-.37,3.86.41,5.57,1,2.1,3.27,2,5.2,1.47a.75.75,0,0,0-.4-1.44c-1.62.45-3.26.56-3.66-1.37a20.62,20.62,0,0,1-.05-4.23.75.75,0,0,0-1.5,0Z"/><path d="M392.55,526.4c8.1.18,5.78-9.32,9.69-13.69,4.49-5,8.15-8.87,10.76-15.31.36-.89-1.09-1.28-1.45-.4-2.35,5.8-5.59,9.7-9.83,14.1a14,14,0,0,0-2.43,3.09c-1.91,3.58-.11,10.86-6.74,10.71a.75.75,0,0,0,0,1.5Z"/><path d="M303.61,457.8c11.75,13.26,29.9,21.52,47.67,21.15a.75.75,0,0,0,0-1.5c-17.4.37-35.1-7.73-46.61-20.71-.64-.73-1.7.34-1.06,1.06Z"/><path d="M310.45,451.35a73.23,73.23,0,0,0,40.29,19.26c.94.13,1.35-1.32.4-1.45a71.89,71.89,0,0,1-39.63-18.87c-.7-.66-1.76.4-1.06,1.06Z"/><path d="M317,446.08c9.58,8.52,22.89,12.68,35.1,15.85a.75.75,0,0,0,.39-1.45c-11.93-3.1-25.07-7.15-34.43-15.46-.72-.64-1.78.42-1.06,1.06Z"/><path d="M325,440.39a107.18,107.18,0,0,0,26,11.54.75.75,0,0,0,.39-1.45A105.1,105.1,0,0,1,325.8,439.1a.75.75,0,0,0-.76,1.29Z"/><path d="M334.9,436.85A67.18,67.18,0,0,0,348.11,443c.92.3,1.32-1.15.4-1.45a65.1,65.1,0,0,1-12.86-6,.75.75,0,0,0-.75,1.3Z"/><path d="M363.91,480.08a67.86,67.86,0,0,0,17.17,9.85c.9.33,1.29-1.12.39-1.45a66.55,66.55,0,0,1-16.8-9.69c-.77-.59-1.52.71-.76,1.29Z"/><path d="M368.75,473.81a124.19,124.19,0,0,0,26.79,15.44c.89.38,1.27-1.08.4-1.45a122.16,122.16,0,0,1-26.43-15.29c-.77-.58-1.52.72-.76,1.3Z"/><path d="M375.09,467.79c10.3,7.53,21.11,14.38,33,19.14.89.35,1.28-1.1.39-1.45-11.74-4.7-22.44-11.54-32.62-19-.78-.57-1.53.73-.76,1.29Z"/><path d="M385.06,462.83a120,120,0,0,0,25.62,15c.88.38,1.65-.92.76-1.3a119.5,119.5,0,0,1-25.62-15c-.77-.59-1.52.71-.76,1.29Z"/><path d="M394,458.94c5.13,3.46,10.23,6.94,16.12,9,.91.31,1.3-1.14.39-1.45-5.75-2-10.74-5.46-15.76-8.83-.8-.54-1.55.76-.75,1.29Z"/><path d="M341.22,13.83a219.37,219.37,0,0,0-16.55,46.94c-.22.94,1.23,1.34,1.44.4a218.08,218.08,0,0,1,16.41-46.59c.42-.86-.87-1.62-1.3-.75Z"/><path d="M345.63,20.48c-3.14,7.41-6.28,14.82-9.25,22.3-2.9,7.32-6.2,14.71-6.58,22.67,0,1,1.46,1,1.5,0,.37-7.78,3.7-15.12,6.53-22.27,2.92-7.36,6-14.65,9.09-21.95.37-.88-.92-1.64-1.29-.75Z"/><path d="M349.05,24.44a186.53,186.53,0,0,0-14.18,42.84c-.19.94,1.26,1.35,1.45.4a185.22,185.22,0,0,1,14-42.48c.41-.87-.88-1.63-1.29-.76Z"/><path d="M352.87,28.8a393.31,393.31,0,0,0-12.82,37.44.75.75,0,0,0,1.45.4A393.25,393.25,0,0,1,354.31,29.2c.36-.89-1.09-1.28-1.44-.4Z"/><path d="M357.28,34,347,73.15a.75.75,0,0,0,1.45.4l10.24-39.2a.75.75,0,0,0-1.45-.4Z"/><path d="M362.55,36.73q-5.12,19.55-8.39,39.5c-.16.94,1.29,1.35,1.44.4q3.28-19.95,8.39-39.5a.75.75,0,0,0-1.44-.4Z"/><path d="M368.21,39.52a347.1,347.1,0,0,0-6.94,37.59c-.12,1,1.38,1,1.5,0a342.68,342.68,0,0,1,6.89-37.19c.22-.94-1.22-1.34-1.45-.4Z"/><path d="M373.75,41.93q-4.41,19.67-8.33,39.44c-.18.94,1.26,1.34,1.45.4Q370.79,62,375.2,42.33c.21-.94-1.24-1.34-1.45-.4Z"/><path d="M379.71,45.31q-3,20-7.46,39.82c-.21.94,1.24,1.34,1.45.4q4.41-19.78,7.46-39.82c.14-.94-1.31-1.35-1.45-.4Z"/><path d="M390.93,52.41a289,289,0,0,1-6.82,43.76c-.22.94,1.23,1.34,1.45.4a291.55,291.55,0,0,0,6.87-44.16c.07-1-1.43-1-1.5,0Z"/><path d="M262.13,208.61a225.22,225.22,0,0,1,18.72-48.87c.45-.85-.85-1.61-1.29-.76a227.25,227.25,0,0,0-18.88,49.24.75.75,0,0,0,1.45.39Z"/><path d="M267.37,210.7a195,195,0,0,1,20.5-49.35.75.75,0,0,0-1.29-.76,196.47,196.47,0,0,0-20.66,49.71.75.75,0,0,0,1.45.4Z"/><path d="M272,215.14a153.89,153.89,0,0,1,16.92-49.31c.46-.85-.83-1.61-1.3-.76a155.27,155.27,0,0,0-17.06,49.67c-.16.94,1.29,1.35,1.44.4Z"/><path d="M296.67,163.75a272.08,272.08,0,0,0-18.6,57.85c-.19.94,1.26,1.34,1.45.4A269.74,269.74,0,0,1,298,164.51c.39-.87-.9-1.64-1.3-.76Z"/><path d="M301.91,166.39a361.18,361.18,0,0,0-14.82,55.91c-.17.95,1.27,1.35,1.44.4a362,362,0,0,1,14.83-55.91c.32-.92-1.13-1.31-1.45-.4Z"/><path d="M307.06,168.42q-6.54,27.22-11.06,54.86c-.16.94,1.29,1.35,1.44.4Q302,196,308.51,168.82c.22-.94-1.23-1.34-1.45-.4Z"/><path d="M314.82,170.45a369.7,369.7,0,0,0-7.2,56.54c-.05,1,1.45,1,1.5,0a365.86,365.86,0,0,1,7.15-56.15c.19-.94-1.25-1.34-1.45-.39Z"/><path d="M323.73,170.1q-2.79,16.1-5.18,32.26C317.24,211.25,314,222.11,316,231c.21,1,1.66.55,1.45-.39-1.33-6,.35-12.39,1.18-18.35q.93-6.66,1.93-13.32,2.15-14.25,4.61-28.46c.17-.94-1.28-1.35-1.44-.39Z"/><path d="M332.58,173.25a314.41,314.41,0,0,0-8.11,58.9c0,1,1.46,1,1.5,0a312.75,312.75,0,0,1,8.06-58.5c.22-.94-1.23-1.34-1.45-.4Z"/><path d="M340.71,177a497.87,497.87,0,0,0-5.78,58.94c0,1,1.46,1,1.5,0a495.11,495.11,0,0,1,5.73-58.54c.15-.94-1.3-1.35-1.45-.4Z"/><path d="M348.47,181.09a477.12,477.12,0,0,0-4.94,58.11.75.75,0,0,0,1.5,0,470.72,470.72,0,0,1,4.89-57.71c.14-.94-1.31-1.35-1.45-.4Z"/><path d="M352,185.42a287.11,287.11,0,0,0,.85,52.93c.1,1,1.6,1,1.5,0a287.11,287.11,0,0,1-.85-52.93c.07-1-1.43-1-1.5,0Z"/><path d="M372.13,239.23c.86,6.31,1.09,12.62,1.4,19,0,1,1.54,1,1.5,0-.32-6.48-.58-12.93-1.45-19.37-.13-1-1.58-.54-1.45.4Z"/><path d="M353.31,245.4a117.29,117.29,0,0,1,17.87,30c.36.89,1.81.5,1.44-.39a119.75,119.75,0,0,0-18.25-30.67c-.61-.75-1.67.32-1.06,1.06Z"/><path d="M347.4,254.16a143.78,143.78,0,0,1,17.23,27.42c.41.87,1.7.11,1.29-.76a145,145,0,0,0-17.46-27.72c-.59-.76-1.65.31-1.06,1.06Z"/><path d="M338.77,263.62a97.44,97.44,0,0,1,17.77,28c.36.88,1.81.5,1.44-.4a99.88,99.88,0,0,0-18.14-28.63c-.65-.71-1.71.35-1.07,1.06Z"/><path d="M331,269.82c8.66,11.3,15.41,24,21.68,36.76.42.87,1.72.11,1.29-.76-6.26-12.75-13-25.45-21.68-36.76-.58-.75-1.88,0-1.29.76Z"/><path d="M323,273.9c9.66,11.29,17.11,24.7,22.51,38.5.35.89,1.8.5,1.45-.4-5.51-14.06-13.06-27.66-22.9-39.16-.63-.74-1.68.33-1.06,1.06Z"/><path d="M315.5,276.15c8.56,13.67,15.72,27.65,20.05,43.25A.75.75,0,0,0,337,319c-4.37-15.73-11.57-29.81-20.2-43.61-.51-.81-1.81-.06-1.3.76Z"/><path d="M309,278.94c7.92,13.9,14.73,28.17,19.51,43.46.29.92,1.74.53,1.45-.4-4.83-15.42-11.68-29.8-19.66-43.82a.75.75,0,0,0-1.3.76Z"/><path d="M303,280.84a155.82,155.82,0,0,1,18.58,43.56A.75.75,0,0,0,323,324a157.37,157.37,0,0,0-18.73-43.92.75.75,0,0,0-1.3.76Z"/><path d="M297.94,282.87c7.48,13.88,13.36,28.07,16.61,43.53.2,1,1.65.55,1.45-.4-3.29-15.61-9.21-29.89-16.76-43.88-.46-.85-1.76-.1-1.3.75Z"/><path d="M292.16,283c3.51,15.62,11.77,29.78,15.39,45.44.22.94,1.67.54,1.45-.4-3.62-15.66-11.89-29.82-15.39-45.44-.21-.94-1.66-.55-1.45.4Z"/><path d="M247.41,293c3.9,16.5,8.24,32.88,12.14,49.38.22.94,1.67.54,1.45-.4-3.9-16.49-8.25-32.88-12.14-49.38-.22-.93-1.67-.54-1.45.4Z"/><path d="M240.16,298c2.82,16.12,5.57,32.25,8.39,48.37.17,1,1.61.55,1.45-.4-2.83-16.12-5.57-32.25-8.39-48.36-.17-.95-1.62-.55-1.45.39Z"/><path d="M232.29,299.42l7.76,50.8c.14.95,1.59.55,1.44-.4L233.74,299c-.15-.95-1.59-.55-1.45.4Z"/><path d="M223.18,302c1.29,17.87,2.86,35.7,5.37,53.45.14,1,1.58.55,1.45-.4-2.49-17.61-4-35.32-5.32-53.05-.07-1-1.57-1-1.5,0Z"/><path d="M215.83,303.33,221.31,355c.1.95,1.61,1,1.5,0l-5.48-51.71c-.1-.95-1.6-1-1.5,0Z"/><path d="M209.43,311.1c1.71,15.82,3.68,31.58,6.12,47.3.15,1,1.6.55,1.45-.4-2.42-15.58-4.37-31.22-6.07-46.9-.1-.94-1.6-1-1.5,0Z"/><path d="M205,325.49l4.67,31.1c.14,1,1.59.55,1.44-.4l-4.67-31.1c-.14-.95-1.59-.55-1.44.4Z"/><path d="M200.26,336.27c.72,7.49,1.35,14.84,3.29,22.13A.75.75,0,0,0,205,358c-1.91-7.15-2.53-14.38-3.24-21.73-.09-.95-1.59-1-1.5,0Z"/><path d="M193,306.06c.51,5.05,1,10.1,1.52,15.14.09.95,1.59,1,1.5,0-.52-5-1-10.09-1.52-15.14-.1-.95-1.6-1-1.5,0Z"/><path d="M183.21,311.8a207,207,0,0,1,3.32,27.4c.05,1,1.55,1,1.5,0a211.39,211.39,0,0,0-3.37-27.8c-.18-.94-1.62-.54-1.45.4Z"/><path d="M174.55,316.4c2.16,10.75,3.75,21.61,5.91,32.37.19.94,1.64.54,1.45-.4-2.16-10.76-3.75-21.61-5.91-32.37-.19-.94-1.64-.54-1.45.4Z"/><path d="M167.3,326.43l4.21,21c.19,1,1.63.55,1.44-.4l-4.2-21c-.19-.95-1.64-.55-1.45.4Z"/><path d="M160.52,329.16q1.65,9.68,2.42,19.45c.08,1,1.58,1,1.5,0q-.8-10-2.47-19.85c-.17-.95-1.61-.55-1.45.4Z"/><path d="M149.55,329.4a110.67,110.67,0,0,1,5,21c.13,1,1.58.55,1.45-.4a111.44,111.44,0,0,0-5-21c-.31-.91-1.76-.52-1.45.4Z"/><path d="M141.24,334.22l5.31,18.22A.75.75,0,0,0,148,352l-5.31-18.22a.75.75,0,0,0-1.45.4Z"/><path d="M136.14,341.37a83.91,83.91,0,0,0,7.5,17.09.75.75,0,0,0,1.3-.76A81.76,81.76,0,0,1,137.59,341c-.29-.92-1.74-.53-1.45.4Z"/><path d="M132.55,348.42c3.57,8.77,7.12,17.56,11.08,26.16.4.88,1.69.12,1.29-.76-3.9-8.48-7.4-17.15-10.92-25.8-.36-.88-1.82-.49-1.45.4Z"/><path d="M127.12,352.83c3.52,2.27,5.21,10.24,6.71,14,1.58,3.92,3.15,7.85,4.8,11.75.37.89,1.67.12,1.29-.76-2.26-5.34-4.37-10.74-6.54-16.12-1.33-3.28-2.38-8.15-5.5-10.16-.81-.53-1.57.77-.76,1.29Z"/><path d="M122.63,361.58a116.23,116.23,0,0,1,7.92,17.82c.31.91,1.76.52,1.45-.4a118.55,118.55,0,0,0-8.08-18.18c-.46-.85-1.75-.09-1.29.76Z"/><path d="M116.39,368.17a77.63,77.63,0,0,1,4.16,12.23A.75.75,0,0,0,122,380a79.45,79.45,0,0,0-4.31-12.58c-.41-.87-1.71-.11-1.3.75Z"/><path d="M91.55,375.4c2.28,5.51,4.74,10.94,7,16.45.36.88,1.82.49,1.45-.4-2.28-5.51-4.74-10.94-7-16.45-.36-.88-1.82-.49-1.45.4Z"/><path d="M99.88,371.65a87.7,87.7,0,0,0,7.66,14.46c.53.8,1.83.05,1.3-.76a85.46,85.46,0,0,1-7.51-14.1c-.37-.88-1.82-.49-1.45.4Z"/><path d="M109.75,369.73c2.47,2.69,3.91,7.18,4.8,10.67A.75.75,0,0,0,116,380c-1-3.73-2.55-8.45-5.19-11.33-.66-.71-1.72.35-1.06,1.06Z"/><path d="M261.31,148.83l2.26,10.53c.2.95,1.65.55,1.45-.4l-2.27-10.53c-.2-.94-1.64-.54-1.44.4Z"/><path d="M254,153.89l4.61,16.8a.75.75,0,0,0,1.44-.4l-4.6-16.8a.75.75,0,0,0-1.45.4Z"/><path d="M247.44,158.49l7.1,20c.32.91,1.77.52,1.44-.4l-7.09-20c-.32-.9-1.77-.51-1.45.4Z"/><path d="M241.8,163.14c-.43,3.47,1.31,6.92,2.36,10.18l4.05,12.52c.29.92,1.74.53,1.44-.4l-3.51-10.85c-1.11-3.45-3.3-7.78-2.84-11.45.12-1-1.38-.95-1.5,0Z"/><path d="M233.44,166.46c-.81,1.34-.12,2.15.45,3.67,1.22,3.25,2.56,6.46,3.85,9.68l8,20.25c.35.89,1.8.5,1.45-.4l-6.66-16.73L237.43,175c-.62-1.58-3.55-6.37-2.69-7.79a.75.75,0,0,0-1.3-.76Z"/><path d="M225.4,171.78q4.64,13.8,9.84,27.38c.34.9,1.79.51,1.45-.4q-5.22-13.57-9.84-27.38c-.31-.91-1.76-.52-1.45.4Z"/><path d="M217.45,175.55a176.37,176.37,0,0,1,11.43,35.51c.19.94,1.64.54,1.44-.4a178.11,178.11,0,0,0-11.57-35.87c-.39-.88-1.69-.11-1.3.76Z"/><path d="M211.21,178.89a303,303,0,0,1,14.31,40,.75.75,0,0,0,1.45-.4,307.13,307.13,0,0,0-14.47-40.34c-.38-.88-1.68-.12-1.29.76Z"/><path d="M205.27,181.52l15.06,41c.33.9,1.78.51,1.44-.4l-15.06-41c-.33-.9-1.78-.51-1.44.4Z"/><path d="M196.61,185.51q7,17.52,15.11,34.55c.41.87,1.71.11,1.29-.76q-8-16.85-14.95-34.19c-.36-.88-1.81-.5-1.45.4Z"/><path d="M191.24,187.51c-.62,1.68.78,3.65,1.39,5.16l3.94,9.65,8.24,20.18c.36.88,1.81.5,1.45-.4l-7.17-17.55-3.22-7.89c-.66-1.61-3.81-7.07-3.18-8.75.33-.9-1.12-1.29-1.45-.4Z"/><path d="M184.37,192.47a358,358,0,0,0,13.91,33.11c.42.87,1.71.11,1.3-.76a350.31,350.31,0,0,1-13.76-32.75c-.33-.9-1.78-.51-1.45.4Z"/><path d="M176.53,196.71A167.23,167.23,0,0,1,191,230.23c.29.92,1.74.53,1.45-.39A169.24,169.24,0,0,0,177.83,196a.75.75,0,0,0-1.3.76Z"/><path d="M169.6,202a395,395,0,0,1,14,40.41A.75.75,0,0,0,185,242a397.47,397.47,0,0,0-13.95-40.41c-.37-.88-1.82-.49-1.45.4Z"/><path d="M161.8,207q7.35,19.65,13.33,39.78a.75.75,0,0,0,1.44-.4q-6-20.11-13.33-39.78c-.33-.9-1.78-.51-1.44.4Z"/><path d="M154.46,210.52q6.81,19.17,12.72,38.63a.75.75,0,0,0,1.44-.4q-5.91-19.45-12.71-38.62c-.32-.91-1.77-.52-1.45.39Z"/><path d="M146.33,214.31Q152.42,232,157.46,250a.75.75,0,0,0,1.45-.4q-5-18-11.13-35.65c-.31-.91-1.76-.52-1.45.4Z"/><path d="M138.36,219.86c3.78,11.42,8,22.68,10.19,34.54.18.95,1.62.55,1.45-.4-2.2-11.86-6.41-23.12-10.19-34.54-.3-.91-1.75-.52-1.45.4Z"/><path d="M130.83,223.2a167.72,167.72,0,0,1,10.72,33.2c.2,1,1.65.55,1.45-.4a169.65,169.65,0,0,0-10.88-33.55c-.39-.88-1.68-.12-1.29.75Z"/><path d="M124.16,226.12q5.21,14.72,11.33,29.08c.37.89,1.67.12,1.29-.76q-6-14.19-11.18-28.72c-.32-.9-1.77-.51-1.44.4Z"/><path d="M117.7,229.34c3.91,10.7,7.94,21.36,11.85,32.06.33.9,1.78.51,1.45-.4-3.91-10.7-7.94-21.36-11.85-32.06-.33-.9-1.78-.51-1.45.4Z"/><path d="M109.82,230.75q4.28,15.65,9,31.17c.28.92,1.73.53,1.44-.4q-4.69-15.52-9-31.17a.75.75,0,0,0-1.44.4Z"/><path d="M102.26,234.53c4.81,11,8.94,22,11.29,33.87.19,1,1.64.55,1.45-.4-2.38-11.95-6.59-23.09-11.45-34.23-.38-.88-1.68-.12-1.29.76Z"/><path d="M93.27,237.61c3.39,4.07,4.85,11,6.76,15.93l5.79,14.86c.35.88,1.8.5,1.45-.4L100,249.43c-1.64-4.2-2.77-9.37-5.7-12.88-.62-.75-1.68.32-1.06,1.06Z"/><path d="M85.92,238.13a229.76,229.76,0,0,1,11.53,34.72.75.75,0,0,0,1.45-.39,231.33,231.33,0,0,0-11.69-35.08c-.37-.89-1.67-.12-1.29.75Z"/><path d="M77.33,240.36a216.8,216.8,0,0,1,11.22,41c.17,1,1.62.55,1.45-.4a217.55,217.55,0,0,0-11.22-41c-.35-.89-1.8-.5-1.45.4Z"/><path d="M70.4,242.67q6.42,18.48,13.53,36.69c.35.89,1.8.5,1.45-.4q-7.11-18.21-13.54-36.69c-.31-.9-1.76-.51-1.44.4Z"/><path d="M63.37,244.39l16.15,40.4c.35.89,1.8.5,1.44-.4L64.82,244c-.35-.89-1.81-.5-1.45.4Z"/><path d="M56.33,247.87a324.63,324.63,0,0,1,17.39,38.4c.34.9,1.79.51,1.45-.39a328.43,328.43,0,0,0-17.54-38.76c-.46-.85-1.75-.1-1.3.75Z"/><path d="M50.57,253.94,69,296c.39.88,1.68.12,1.3-.76l-18.4-42.06c-.39-.88-1.68-.12-1.3.76Z"/><path d="M45.2,258.92l17.08,37.92c.39.88,1.69.12,1.29-.76L46.49,258.17c-.39-.88-1.69-.12-1.29.75Z"/><path d="M39.14,262A254,254,0,0,1,54.55,302.4.75.75,0,0,0,56,302a257.58,257.58,0,0,0-15.56-40.8c-.42-.86-1.72-.1-1.3.76Z"/><path d="M32.45,265.3q8.2,18.78,14.73,38.2c.3.91,1.75.52,1.44-.4Q42,283.49,33.75,264.54c-.39-.88-1.68-.12-1.3.76Z"/><path d="M25.43,267.43a197.07,197.07,0,0,1,17.12,40c.28.92,1.73.53,1.45-.4a198.62,198.62,0,0,0-17.28-40.32c-.47-.85-1.76-.09-1.29.75Z"/><path d="M18.37,272.12c8.24,12,16,24.29,22.26,37.46.41.87,1.71.11,1.29-.76-6.28-13.17-14-25.44-22.26-37.45-.54-.8-1.84-.05-1.29.75Z"/><path d="M24.75,291.73c5.45,6.32,8.85,12.9,11.8,20.67.34.89,1.79.51,1.45-.4-3-8-6.59-14.84-12.19-21.33-.64-.73-1.69.33-1.06,1.06Z"/><path d="M11.9,276.1c1.47,1.4,3,2.73,4.37,4.26a28.33,28.33,0,0,1,3.36,5.22c.46.85,1.76.09,1.29-.76a31.09,31.09,0,0,0-3.36-5.26A59.44,59.44,0,0,0,13,275c-.69-.67-1.76.39-1.06,1.06Z"/><path d="M6.05,277.12l7.75,10.1c.58.75,1.88,0,1.3-.76L7.35,276.37c-.58-.76-1.88,0-1.3.75Z"/><path d="M242.38,812.48a15.3,15.3,0,0,1-1.23-6,.75.75,0,0,0-1.5,0,17.33,17.33,0,0,0,1.43,6.73c.38.88,1.67.12,1.3-.76Z"/><path d="M239.69,806.33c-16.47-6.28-27.22-19.74-33.61-35.77-5.53-13.9-9.74-27.13-7.08-42.16.17-.94-1.28-1.35-1.45-.4-2.83,16,1.76,30.55,8,45.28,6.65,15.62,17.58,28.35,33.7,34.49.91.35,1.3-1.1.4-1.44Z"/><path d="M275.9,804.85c3.84,1.63,11.2,3.95,14.91.88.74-.61-.33-1.67-1.06-1.06-1.56,1.29-4.4.91-6.24.69a25.46,25.46,0,0,1-6.86-1.81c-.87-.37-1.64.92-.75,1.3Z"/></g></g></svg>