<?xml version="1.0" encoding="UTF-8"?>
<svg width="16px" height="16px" viewBox="0 0 16 16" version="1.1" xmlns="http://www.w3.org/2000/svg" xmlns:xlink="http://www.w3.org/1999/xlink">
    <!-- Generator: Sketch 52.6 (67491) - http://www.bohemiancoding.com/sketch -->
    <title>creativity</title>
    <desc>Created with Sketch.</desc>
    <g id="Welcome" stroke="none" stroke-width="1" fill="none" fill-rule="evenodd">
        <g id="Desktop_rez_new_2" transform="translate(-249.000000, -5189.000000)" fill="#FF78A0" fill-rule="nonzero">
            <g id="creativity" transform="translate(249.000000, 5189.000000)">
                <path d="M13.8164957,11.7333591 C13.9012814,11.2837757 13.8991066,10.8221338 13.8100888,10.3733673 L15.0327435,7.4259185 C15.0328703,7.42396501 15.0328703,7.42200535 15.0327435,7.42005186 C15.2308714,6.87820301 15.5212288,6.37462181 15.8910044,5.93152753 C15.9830101,5.83445196 16.0200214,5.69768905 15.9895109,5.56752973 L15.4881691,3.40487613 C15.4822035,3.38226811 15.4732247,3.36056304 15.4614735,3.34034319 C15.4593379,3.33634322 15.458537,3.33154324 15.4564014,3.32780993 C15.4542658,3.32407662 15.4449223,3.31501001 15.4395832,3.30807672 C15.4286582,3.29209964 15.4160382,3.27734757 15.4019425,3.26407699 C15.3926579,3.25755201 15.3829356,3.25167154 15.3728444,3.24647709 C15.359827,3.2369067 15.3459792,3.22851781 15.3314664,3.22141058 C15.3113423,3.21381825 15.290364,3.20871369 15.2689989,3.20621067 C15.2628589,3.20621067 15.2575198,3.20221069 15.2513798,3.20167736 C15.200213,3.19827133 15.1491469,3.20965846 15.1042875,3.23447716 C15.1002832,3.23661049 15.095478,3.23741048 15.0914737,3.23981047 L15.0888041,3.23981047 L13.2038336,4.41500336 C13.0896813,4.48561496 13.0188263,4.60892502 13.0153632,4.74300138 C12.962999,5.31877318 12.81117,5.88113007 12.5666116,6.40512467 L12.5666116,6.40805798 L11.9555512,7.88351573 C11.6556372,7.72425565 11.3345654,7.6084291 11.0019873,7.53951781 C11.127878,6.6715045 11.1741644,5.79382193 11.14027,4.91740033 C11.6372084,4.32181702 11.8757029,3.55278351 11.8028528,2.78087991 C11.6360058,1.22675597 10.2299529,0.104362752 10.169888,0.0571630377 C10.0796112,-0.0138519085 9.95397077,-0.019192671 9.85798068,0.043904385 C9.76199062,0.107001441 9.71719105,0.224377353 9.746764,0.33529469 C9.88424592,0.851024906 9.76518391,1.39528828 8.7496864,2.51448152 C8.29343077,2.95455571 8.1488106,3.6265036 8.38369085,4.21500457 C8.47349473,4.44009604 8.60216257,4.64769041 8.76383503,4.8283342 C8.69923187,5.24033171 8.64851039,5.63046268 8.61353926,6.01046038 C8.55332264,6.63896723 8.53780029,7.2709485 8.56708906,7.90164895 C8.32893725,8.03062612 8.10597786,8.18581254 7.90237066,8.36431282 L6.60763804,2.83367959 C6.60763804,2.82807962 6.60229893,2.82407965 6.6006972,2.81901301 C6.59635173,2.8012324 6.59008605,2.78397578 6.58201034,2.76754665 L5.25951438,0.327828068 C5.12716262,0.0836357438 4.84756049,-0.0418474292 4.57689799,0.0214753575 C4.30623547,0.0847981442 4.11149551,0.321255916 4.1014628,0.598759764 L4.00108766,3.37074301 C4.00115242,3.3907479 4.00339014,3.41068671 4.00776154,3.43020931 C4.00776154,3.43447596 4.00776154,3.43820927 4.00776154,3.44220924 L5.32865577,9.0733752 C5.12028382,9.08256488 4.9134356,9.11339752 4.71145539,9.16537465 L3.25841834,5.6600625 C3.14190429,5.3921045 2.8328754,5.26567046 2.56166532,5.37499756 L0.340865178,6.29339201 C0.069069351,6.40672058 -0.0600959253,6.7180244 0.0517527173,6.9901878 L2.02241586,11.7389591 C0.867435977,11.7995334 -0.0290885989,12.7680364 0.000722328724,13.9229663 C0.0305332562,15.0778962 0.975831168,15.9989615 2.13240139,16 L13.8784293,16 C14.6414205,15.9889487 15.3405513,15.5721282 15.7124657,14.9065509 C16.0843801,14.2409736 16.0725757,13.4277564 15.6814989,12.7732304 C15.2904221,12.1187045 14.5794869,11.7223078 13.8164957,11.7333591 Z M13.5444684,4.83100085 L14.6635445,4.13340506 L14.267383,5.08913262 C14.2109153,5.22521476 14.2755756,5.38125749 14.4118058,5.43766385 C14.548036,5.49407017 14.7042485,5.42948019 14.7607162,5.29339805 L15.1568777,4.3376705 L15.4534649,5.6211294 C15.136142,6.00783283 14.8754765,6.43764308 14.6792949,6.89765502 C14.400971,7.02652968 14.0813656,7.03321703 13.7978834,6.91609744 C13.5144013,6.79897786 13.2928966,6.56873293 13.1870154,6.28112542 C13.3745048,5.81716094 13.4948651,5.32888016 13.5444684,4.83100085 Z M12.9304715,6.92458819 C13.1070785,7.14027316 13.336263,7.30694703 13.5959907,7.40858527 C13.8024427,7.49728649 14.0245015,7.54406125 14.2492301,7.54618443 C14.3032994,7.54598606 14.357313,7.54269179 14.4110049,7.53631783 L13.5591509,9.58963875 C13.3040744,9.02785836 12.9094846,8.54052714 12.4128454,8.17391397 L12.9304715,6.92458819 Z M9.27318551,5.02006637 L10.6143683,5.10193254 C10.6226439,5.3509977 10.6197074,5.60859615 10.6114318,5.87019457 C10.1646361,5.90208405 9.71562507,5.88041888 9.27398638,5.80566162 C9.24035003,5.80086165 9.20751454,5.79712834 9.17414514,5.79259503 C9.20084066,5.54139655 9.23340919,5.28699809 9.2726516,5.02006637 L9.27318551,5.02006637 Z M9.14584789,2.87261269 C9.8546139,2.09155074 10.2219442,1.49075437 10.3073699,0.925957786 C10.8168315,1.44956686 11.1531231,2.116765 11.2708111,2.8374129 C11.3268771,3.46476711 11.1326912,4.08885992 10.7304938,4.57393573 C10.2031684,4.54193593 9.68162694,4.50993612 9.16586953,4.47793632 C8.94425607,4.27098615 8.81677048,3.98266992 8.81289047,3.67965311 C8.80901047,3.37663633 8.92907198,3.08515724 9.14531398,2.87261269 L9.14584789,2.87261269 Z M9.1255593,6.32405849 L9.2029763,6.33419176 C9.54696519,6.38733312 9.8942002,6.41682449 10.2422328,6.42245789 C10.3527523,6.42245789 10.4691447,6.41365795 10.5858041,6.40459134 C10.5615112,6.74778926 10.5217349,7.10618709 10.4712804,7.47658486 C10.4053424,7.47311821 10.3407393,7.46671825 10.2745344,7.46671825 C9.87149099,7.46744024 9.47147098,7.53623167 9.09138903,7.67018369 C9.07907901,7.2211964 9.09030648,6.7718732 9.12502539,6.32405849 L9.1255593,6.32405849 Z M7.06066098,9.44243964 L6.29690221,6.19259262 C6.26119634,6.05160035 6.11898026,5.96518799 5.97722429,5.99835206 C5.83546831,6.03151615 5.74645643,6.17202474 5.77714047,6.31419188 L6.46348224,9.23924087 C6.2747783,9.17182765 6.07983206,9.12332271 5.88151995,9.09444174 L4.70985366,4.09980527 C4.87398881,4.17445514 5.05220491,4.21318728 5.2325519,4.21340458 C5.24937008,4.21340458 5.26725608,4.2110046 5.28434121,4.2102046 L5.47307852,5.0152664 C5.49341647,5.10949748 5.56308206,5.18542863 5.65528894,5.21386443 C5.74749582,5.2423002 5.84788778,5.2188133 5.91786429,5.1524344 C5.9878408,5.08605552 6.01650679,4.98711948 5.99284026,4.89366714 L5.80383599,4.08807201 C5.98495945,4.0079763 6.14470911,3.88649024 6.27020669,3.73340748 L7.4613607,8.82111006 C7.30667654,9.01384458 7.17239347,9.22206548 7.06066098,9.44243964 Z M5.42956483,3.65580795 C5.08815085,3.72195011 4.73956249,3.58252029 4.53820148,3.29927677 L4.57210479,2.36008245 C4.66499037,2.37741231 4.75925155,2.3863373 4.8537425,2.38674896 C4.94500919,2.38713135 5.03601675,2.37702044 5.12496896,2.3566158 C5.30505794,2.30937187 5.47351582,2.2256883 5.61990387,2.11075062 L6.06945639,2.93954561 C6.01589248,3.28341564 5.76545096,3.56395597 5.42956483,3.65634128 L5.42956483,3.65580795 Z M4.69837459,0.540626782 C4.7347393,0.532213537 4.77226682,0.54899539 4.79020717,0.5816932 L5.36255908,1.63902014 C5.25931032,1.73232427 5.13602278,1.80074291 5.00216958,1.83901893 C4.86536183,1.86410252 4.724613,1.85744224 4.59079165,1.81955238 L4.63430534,0.617959648 C4.63575614,0.580697638 4.66200149,0.549018974 4.69837459,0.540626782 Z M2.76641995,5.86672792 L2.9703737,6.35899161 L1.98263954,6.76752247 C1.86554229,6.81664266 1.79930024,6.94137004 1.824245,7.06576409 C1.84918975,7.19015816 1.95841439,7.27977562 2.08541728,7.28005271 C2.12049112,7.27997772 2.1552161,7.27309459 2.18766112,7.25978617 L3.17539528,6.85098864 L3.379616,7.34378566 L2.88548196,7.54831776 C2.76771404,7.59700194 2.70082489,7.72205604 2.72577076,7.84690936 C2.75071663,7.97176272 2.86053863,8.06158639 2.98799275,8.06138132 C3.02297535,8.06125836 3.05760385,8.05437643 3.08996962,8.04111478 L3.58410366,7.83658268 L3.78832438,8.3293797 L2.79978934,8.73871056 C2.68202143,8.78739475 2.61513229,8.91244884 2.64007815,9.03730217 C2.66502402,9.16215552 2.77484601,9.25197919 2.90230013,9.25177412 C2.93728546,9.25167815 2.97191905,9.24479518 3.00427701,9.23150758 L3.99201118,8.82297672 L4.20797792,9.34377357 C3.33807609,9.7404033 2.70018535,10.5159637 2.47944313,11.4453609 L0.54455198,6.78512237 L2.76641995,5.86672792 Z M13.8784293,15.4666699 L2.13240139,15.4666699 C1.24778974,15.4666699 0.530670311,14.7503298 0.530670311,13.8666796 C0.530670311,12.9830293 1.24778974,12.2666892 2.13240139,12.2666892 C2.28708219,12.2661749 2.44099271,12.2884591 2.58916171,12.3328222 C2.66920622,12.3569751 2.75595568,12.3422685 2.82354099,12.2930881 C2.8911263,12.2439076 2.93173854,12.1659356 2.93326693,12.0824237 C2.9522569,11.1320494 3.50225291,10.2722731 4.35764389,9.85577943 C5.21303486,9.43928576 6.22984961,9.53617483 6.99098568,10.1067023 C7.05824509,10.1567092 7.14511647,10.1722457 7.22556691,10.1486557 C7.30601735,10.1250658 7.37069875,10.0650906 7.40022797,9.98670302 C7.92177974,8.59822672 9.36325144,7.78150275 10.8239021,8.04688229 C12.2845527,8.31226183 13.3458097,9.58369612 13.344519,11.0666965 C13.3450391,11.3716646 13.2995923,11.674973 13.2097066,11.9664244 C13.1816494,12.0571023 13.2039555,12.1558429 13.268278,12.225697 C13.3326005,12.295551 13.429244,12.3259896 13.5220442,12.3056223 C13.6390932,12.279888 13.7585788,12.2668349 13.8784293,12.2666892 C14.763041,12.2666892 15.4801604,12.9830293 15.4801604,13.8666796 C15.4801604,14.7503298 14.763041,15.4666699 13.8784293,15.4666699 Z" id="Shape"></path>
                <path d="M10.3047345,3.99999798 C10.4009614,4.00033371 10.4917752,3.95882929 10.5499922,3.88790847 C10.9327319,3.40840532 11.0806437,2.80229142 10.9577331,2.21706533 C10.9315854,2.11700007 10.8489379,2.03789205 10.7417691,2.01035016 C10.6346002,1.98280827 10.5197218,2.01115309 10.4415832,2.08441729 C10.3634446,2.15768148 10.3343037,2.26437191 10.3654358,2.36320735 C10.4388334,2.77905569 10.3293117,3.20479447 10.0613162,3.54539698 C9.99164363,3.63138456 9.98043657,3.74642869 10.0323674,3.84256574 C10.0842983,3.93870278 10.1904529,3.99943044 10.3065739,3.99943044 L10.3047345,3.99999798 Z" id="Shape"></path>
                <path d="M10.6860806,12.4376511 C10.4750736,12.4381624 10.2669634,12.4763296 10.0774177,12.5492793 C9.56695827,11.9997189 8.613822,11.8387275 7.86164926,12.1750206 C7.10947648,12.5113137 6.79744088,13.2379577 7.13625598,13.8642595 C7.18083829,13.9465789 7.28358386,14.0000025 7.39731423,13.9999994 C7.43555137,14.0000702 7.4734036,13.9939923 7.50854774,13.9821389 C7.57778632,13.9589296 7.63246988,13.9150297 7.66056775,13.8600974 C7.68866562,13.8051651 7.68787595,13.7437006 7.65837248,13.6892265 C7.59659897,13.5759375 7.56474045,13.453951 7.56473202,13.3306767 C7.56473202,12.8374722 8.07290488,12.4376511 8.69976788,12.4376511 C9.14002647,12.4359276 9.54100687,12.6366505 9.72555655,12.9511408 C9.73169491,12.9584111 9.7383255,12.9654166 9.74541967,12.9721269 C9.74990162,12.9797828 9.75492248,12.9872363 9.7604589,12.9944525 C9.76556656,12.9993642 9.77294429,13.0015967 9.77861947,13.0062851 C9.79193151,13.0171587 9.80667526,13.0268878 9.82260211,13.0353085 C9.83677684,13.0438946 9.85198272,13.0513719 9.86800355,13.0576341 C9.88448489,13.0630703 9.90158793,13.0672567 9.91908016,13.0701365 C9.93652986,13.0737407 9.95440784,13.0759104 9.97242685,13.0766109 C10.0092908,13.0763783 10.0458755,13.0715558 10.0808228,13.0623225 C10.0883865,13.0612261 10.0958696,13.0598101 10.1032397,13.0580806 C10.1124475,13.0533968 10.1212622,13.0482512 10.1296293,13.0426759 C10.139843,13.0391045 10.1497906,13.0350794 10.159424,13.0306201 C10.3084737,12.9357822 10.4943896,12.8840814 10.6860806,12.8841639 C11.0178666,12.8845887 11.3191082,13.036642 11.457905,13.2737463 C11.5229421,13.3859503 11.6912743,13.4354282 11.8338857,13.3842582 C11.976497,13.3330883 12.0393834,13.2006475 11.9743464,13.0884435 C11.7432868,12.6922001 11.2401807,12.4380463 10.6860806,12.4376511 Z" id="Shape"></path>
                <path d="M4.73600506,10.0187832 C4.70583765,10.0351019 4,10.4420689 4,11.6669664 C4,11.8508958 4.08944645,12 4.19978422,12 C4.31012199,12 4.39956844,11.8508958 4.39956844,11.6669664 C4.41587688,11.2023888 4.59924863,10.8004834 4.8634674,10.6502149 C4.96828828,10.5915414 5.02472898,10.4023282 4.98953122,10.2275953 C4.95433347,10.0528624 4.84082595,9.95877763 4.73600506,10.0174511 L4.73600506,10.0187832 Z" id="Shape"></path>
                <path d="M8.21626085,10.9899986 C8.23894339,10.9967188 8.26226071,11.0000786 8.28566256,10.9999986 C8.41655662,10.9998418 8.5306054,10.8958553 8.5624126,10.7476656 C8.69386721,10.1252204 9.16599543,9.68245866 9.71510935,9.66666691 C9.87284393,9.66620668 10.0003934,9.51659533 9.99999909,9.33250066 C9.99960476,9.14840598 9.87141591,8.99954083 9.71368133,9.00000106 C8.90190941,9.01258208 8.20040536,9.66496608 8.00862692,10.5856658 C7.97030173,10.7642369 8.06326089,10.9452595 8.21626085,10.9899986 Z" id="Shape"></path>
            </g>
        </g>
    </g>
</svg>