<svg xmlns="http://www.w3.org/2000/svg" viewBox="0 0 302.02 453.88"><title>Scrooge</title><g id="Слой_2" data-name="Слой 2"><g id="Слой_1-2" data-name="Слой 1"><path d="M106,155.8A75.31,75.31,0,0,1,127.57,174c5.24,6.52,9.2,13.9,13.68,20.92a90.11,90.11,0,0,0,7,9.71c1.85,2.18,4.52,5.83,7.47,6.61,4.87,1.27,7.83-3.61,9.2-7.46.53-1.5-2.36-1.33-2.75-.24a11,11,0,0,1-1.52,3.45c-3.6,4.18-5.38,1.12-7.61-1.21a63.61,63.61,0,0,1-6-7.42c-3.88-5.47-7.13-11.35-10.73-17a80.22,80.22,0,0,0-28-27.13c-1-.57-3.6.82-2.26,1.58Z"/><path d="M165,203.43c2.22-6.61,2.39-14.46,7-20,9.14-11,17.4,6.29,19.13,13.31A42.46,42.46,0,0,1,180.51,236c-.74.77,2.09.53,2.67-.06,12.42-12.88,16.63-35.11,6.39-50.63-3.82-5.79-10.39-8.87-16.72-5-8,4.9-8.08,15.61-10.75,23.55-.27.81,2.58.44,2.88-.42Z"/><path d="M98.08,177.18c-3.35-8.63-8.9-15.93-15.43-22.43s-14.11-13.63-23.26-16c-5.25-1.36-12.46-1.46-15.6,3.73-4.13,6.81-6.87,16.19-2.07,23.2.49.71,3.3-.22,2.7-1.09-4.29-6.26-1.94-13.44,1-19.78,1.66-3.62,2.22-5.21,7.63-5.31a19.72,19.72,0,0,1,7.27,1.63,40.61,40.61,0,0,1,9.88,6c10.44,8.11,20.19,18.42,25,30.87.35.91,3.21,0,2.89-.78Z"/><path d="M39.76,161.7C53,191.94,80.44,213,109,227.86a236.05,236.05,0,0,0,24.21,11c8,3.11,16.62,6.62,25.33,7,13.9.69,25.79-8.24,32.09-20.14.76-1.44-2.17-1.46-2.77-.33-3.53,6.67-8.76,12.44-15.65,15.73-8.33,4-16.9,2.69-25.4,0a226.46,226.46,0,0,1-45.1-20.17c-24.54-14.27-47.45-33.5-59.07-60-.56-1.28-3.43-.45-2.9.78Z"/><path d="M45.94,167.49c-2.38-6.85,3-13,10.6-11.52,4.31.86,8,3.58,11,6.76,5.48,6,8.88,13.67,13.56,20.24a127.29,127.29,0,0,0,34.82,33.17c12.19,7.85,27.4,15.39,42.26,11.33A31.65,31.65,0,0,0,181.05,201c.14-1.12-2.78-.59-2.89.38a29.67,29.67,0,0,1-12.9,21.26c-9.11,6.07-20.17,4.93-29.95,1.16-15.92-6.14-30.37-17.37-41.81-29.87a129.6,129.6,0,0,1-15.1-20.24c-3.86-6.34-7.61-13.21-14.29-17-4.67-2.65-10.62-3.58-15.58-1.12S41.23,163,43,168.27c.34,1,3.22.16,2.9-.78Z"/><path d="M108.66,179.83a12.86,12.86,0,0,0,8.38,6.74c.83.21,2.15-.07,2.3-1.09a9.27,9.27,0,0,0-8.81-10.34c-.65,0-1.64.18-1.89.9a.91.91,0,0,0,.89,1.23,7.39,7.39,0,0,1,6.87,8.42l2.31-1.09a11.2,11.2,0,0,1-7.4-6c-.58-1.17-3.34-.1-2.65,1.28Z"/><path d="M131,147c-1,4.8-4.67,15.46,2.39,17.15,6.09,1.46,12.94-2,18-5,1.67-1-.86-1.43-1.8-.86-3.74,2.26-12.7,7.36-16.34,3-2.61-3.18-.1-10.84.67-14.57.23-1.09-2.69-.63-2.9.36Z"/><path d="M110.84,135.63c.21,3.73-1.35,11.34,3.44,12.94,3.81,1.27,9.23-1.69,12.32-3.65,1.64-1-.92-1.17-1.74-.65a23.28,23.28,0,0,1-5.3,2.54c-2.73.85-4.42.17-5.35-2.55-1-3-.3-6.35-.47-9.41,0-.75-2.95-.21-2.9.78Z"/><path d="M144.26,128.57c-.72,2.26-2.38,6.41-1.41,8.89s4.37,2.84,6.48,3.58l24,8.44c.73.26,3.35-.88,2.35-1.23l-18.49-6.49c-2.71-.95-5.77-1.62-8.32-2.93-2.84-1.44-3.5-2.5-3.09-5.43a31.84,31.84,0,0,1,1.31-5.28c.24-.74-2.61-.38-2.87.45Z"/><path d="M133.45,123.76A15.32,15.32,0,0,0,131,126.5a12.24,12.24,0,0,1-.84,1.47c-.54.56,0,.47-.68.19-.85-.34-1.86-3.21-2.28-4.06-.69-1.4-1.31-2.83-1.91-4.27-.4-1-3.26-.1-2.9.78a67.74,67.74,0,0,0,3,6.34c.77,1.46,1.59,3.2,3.36,3.56a3.69,3.69,0,0,0,3.36-1.13,15.44,15.44,0,0,0,1.24-2.26,12.89,12.89,0,0,1,2.4-2.91c1.22-1.12-1.63-1.08-2.32-.45Z"/><path d="M239.48,189.13c1.05-14.22-3.38-28.13-10-40.56s-15.79-25-27.73-32.9c-11.34-7.5-25-11-38.44-12-7.31-.57-14.52.06-21.83,0-4.25,0-9.33.1-13.08-1.15-4.63-1.53-9.84-3.17-14-5.72-4.77-2.91-8.67-8.88-9.89-14.3a12.76,12.76,0,0,1-.4-4.17c.43-3,1.48-4.3,4.42-4.76,2.47-.39,2.62-.48,4.25,1.13A32.29,32.29,0,0,1,115.4,78c.68.88,3.47-.16,2.68-1.19-3.17-4.12-7.18-8-12.53-4.88-6.53,3.84-4.44,11.82-1.47,17.3,3.36,6.2,7.83,9.51,14.31,12,3.25,1.23,6.68,3,10.09,3.65,6.47,1.31,13.65.7,20.19.42a104.43,104.43,0,0,1,25.75,2c17.4,3.63,31.07,12.53,41.91,26.51,12.11,15.61,21.73,35.54,20.24,55.75-.09,1.31,2.83.8,2.91-.31Z"/><path d="M267,118.46c4.87-14.6,18.85-19.41,29.13-29.16s5.58-23.29-2.77-32.67c-18.56-20.8-43.4-37.07-69.31-47.1C209.94,4.08,192.61-2.12,177.39.71c-1.84.34-1.24,2.45.57,2.11C188,1,198.75,4,208.41,6.84a173.56,173.56,0,0,1,23,8.54,185.86,185.86,0,0,1,42.67,26.89C285.81,52,310.8,72.6,293.61,88.4c-10.61,9.74-24.49,14.89-29.41,29.66-.55,1.63,2.35,1.7,2.78.4Z"/><path d="M75.94,228.22a44.66,44.66,0,0,0,32.48-2.12c1.72-.79-1-.59-1.65-.29-9.24,4.26-18.85,4.29-28.43,1.34-.63-.19-3.15.84-2.4,1.07Z"/><path d="M74.87,229.22c8.65,11.37,24.95,8.77,35.93,2.1,1.24-.76-1.66-.53-2.25-.18-10,6.1-23.41,7-31-2.94-.46-.59-3.23.36-2.72,1Z"/><path d="M84.23,236.86a27,27,0,0,0,30.33,6.36c1.82-.76.22-2.49-1.33-1.85a23.64,23.64,0,0,1-26.36-5.83c-1-1-3.69.2-2.64,1.32Z"/><path d="M91.62,244.06c6.66,7,21.85,14.55,31.25,9,1.7-1,.15-2.49-1.26-1.66-8,4.68-21.73-2.75-27.33-8.62-.88-.92-3.63.24-2.66,1.26Z"/><path d="M232.32,182.06c3.31,12.61,17.36,15,28.56,15.35,9.06.26,23.64.89,28.77-8.44l-2.71-.11c-6.38,14.36-21.91,18.33-36.4,17.27-1.17-.08-3.06,1.59-1.1,1.73,15.65,1.15,33.29-3.29,40.21-18.89.6-1.35-2.24-1-2.71-.11-4.71,8.56-20.47,7.24-28.74,6.63-9.57-.7-20.24-3.76-23-14.2-.28-1.07-3.18-.31-2.9.77Z"/><path d="M249,207.08c-2.5,3.9,10.16,10.39,12.78,11.37,5.15,1.93,14,3.76,18.65-.22,1.33-1.15-.44-2.1-1.6-1.48a40,40,0,0,1-28.55,3.64c-1.22-.3-3.42,1.5-1.68,1.92a44.23,44.23,0,0,0,31.51-3.89l-1.6-1.48c-3.69,3.18-11.86.91-15.74-.67-1.53-.62-12.47-6.59-11-8.88.85-1.32-2.1-1.35-2.77-.31Z"/><path d="M234.55,224.9a44.92,44.92,0,0,0,21.37,14.7l1.32-2.11A32.69,32.69,0,0,1,240,231.85c-1.12-.76-3.62.78-2.22,1.72a35.11,35.11,0,0,0,18.47,6.11c1,0,3.11-1.53,1.32-2.11a42.53,42.53,0,0,1-20.38-14c-.86-1.08-3.61.1-2.65,1.3Z"/><path d="M239.91,234.64q7.8,10.44,15.22,21.15l1.72-.94c-6,1.26-12.47-10-15-14-.46-.72-3.15.39-2.9.78,3.55,5.61,9.51,15.94,17.35,14.29.09,0,2-.51,1.71-.94q-7.42-10.71-15.22-21.15c-.54-.71-3.14.46-2.9.78Z"/><path d="M238.57,241c2.55,11.31-2,21.62-6.87,31.63l2.81-.12c0-8.8-3.42-16.4-7.39-24.09-.53-1-3.35-.11-2.89.77,3.87,7.52,7.41,15,7.38,23.66,0,1.24,2.44.64,2.8-.11,4.94-10.26,9.67-20.93,7.06-32.52-.24-1.05-3.14-.32-2.9.78Z"/><path d="M220.56,240.34c9.14,12.75-2.95,27.13-10.07,37.55-.12.18,2.38.14,2.85-.54,7.14-10.46,19.32-25,10.12-37.78-.46-.65-3.06.55-2.9.77Z"/><path d="M213.84,244.72c-.7,1.37.69,3.38,1.14,4.72a41.68,41.68,0,0,1,2.23,10c.52,6.83-2.82,12.17-6.21,17.76-.19.32,2.42.21,2.86-.52,2.71-4.47,5.77-9.06,6.27-14.4a27.77,27.77,0,0,0-.94-9.11c-.39-1.6-3.22-7.52-2.49-8.94.2-.4-2.48-.23-2.86.51Z"/><path d="M213.82,244.62c-2.39,10.22-8.71,17.75-18.67,21.3-1.89.68-.19,1.89,1.2,1.4,10.71-3.82,17.8-12,20.38-23,.28-1.21-2.66-.8-2.91.31Z"/><path d="M207,240.07c-.29,13-10.78,23.41-24.22,21.43l-.41,1a39.8,39.8,0,0,0,8.35-3.51c1.22-.79-1.67-.53-2.24-.16a34,34,0,0,1-7.14,2.91c-.53.18-1.47.85-.42,1,14.82,2.18,28.63-8.1,29-23.46,0-.53-2.88-.12-2.9.77Z"/><path d="M162.07,254c8,5.49,18,5.79,27.39,6,1.66,0,2.22-2.09.25-2.13-8.69-.16-18-.43-25.41-5.51-1.06-.73-3.6.74-2.23,1.68Z"/><path d="M128.61,268.16c14.16,4.7,29.51-5,42-10.6,1.79-.81.21-2.54-1.33-1.85-11.39,5.16-26.05,14.69-39,10.4-1.33-.45-3.4,1.47-1.64,2.05Z"/><path d="M219.34,185.48A56.57,56.57,0,0,0,230.63,210c.46.58,3.22-.39,2.73-1a56.1,56.1,0,0,1-11.13-24.31c-.13-.67-3,0-2.89.78Z"/><path d="M215.07,189.67a183.88,183.88,0,0,0,11.62,23.66c.7,1.2,3.45.06,2.64-1.32A180.67,180.67,0,0,1,218,188.9c-.55-1.38-3.44-.57-2.89.77Z"/><path d="M210.44,199.09q3,13.31,6.79,26.41c.36,1.26,3.26.47,2.9-.78q-3.78-13.11-6.8-26.4c-.28-1.26-3.19-.51-2.89.77Z"/><path d="M206.57,203.12a37.82,37.82,0,0,1-.76,22.24c-.56,1.63,2.34,1.71,2.79.4a40,40,0,0,0,.87-23.42c-.37-1.42-3.27-.65-2.9.78Z"/><path d="M185.75,263.26c1.94,5.35,5,10.28,6.63,15.75,1.77,6,.77,12.57-1.62,18.29-.63,1.49,2.28,1.43,2.76.29a31.11,31.11,0,0,0,2.46-16.2c-1-6.72-5-12.61-7.33-18.91-.46-1.26-3.35-.45-2.9.78Z"/><path d="M139.2,250.56c-13.61-2.69-26.68,3.84-35.51,13.83C93.68,275.71,81,291.1,84.5,307.18c.27,1.28,3.18.53,2.9-.78-3.18-14.76,7.73-27.8,16.45-38.56,8.43-10.39,20.38-18,34.32-15.25,1.38.27,3-1.65,1-2Z"/><path d="M123.59,282.8c-1.34,10.57-5.83,23.05-.35,33.25,4.49,8.36,14.49,8.79,22.79,7.3,19.26-3.48,48.44-12.63,50.2-35.94.1-1.4-2.84-.94-2.93.27-1.62,21.59-27.64,29.57-45.45,33.38-9.87,2.11-20.78,1-23.42-10.52-2.17-9.5.9-18.65,2.08-28,.17-1.38-2.77-.94-2.92.27Z"/><path d="M92.76,309.28c-2.54,5.9-3,12-4.88,18.12-.14.44,2.64.15,2.85-.55,1.84-6.06,2.35-12.24,4.88-18.11.15-.35-2.54-.16-2.85.54Z"/><path d="M113.12,339.16q17-3,34.18-4.51c1.58-.15,2.28-2.19.29-2q-17.19,1.55-34.18,4.51c-1.53.27-2.26,2.36-.29,2Z"/><path d="M116.89,336.78a2.37,2.37,0,0,0-1.7,0,3.23,3.23,0,0,0-1.78.9c-.32.36,1.07.23,1.14.22a3,3,0,0,0,1.71-.76l-.34.23-1.1.34-.66.06c.49.28,1.37,0,1.85-.2.14-.05,1.29-.53.88-.76Z"/><path d="M106.28,341.92c1-5.08,17.58-2.7,21.25-2.28,6.72.76,14.87,1.58,20.61,5.38.77.5,3.33-.66,2.71-1.06-7.9-5.24-20.18-6-29.38-6.29-4.23-.15-16.82-1.74-18.07,4.68-.17.9,2.72.42,2.88-.43Z"/><path d="M100.87,345.79c-1.27-6.65,15.8-.71,18.51.64a93,93,0,0,1,10.93,6.78c.64.44,3-.74,2.74-.95-7.13-4.89-14.73-10-23.66-10.34-2.89-.12-12.31,0-11.41,4.64.09.51,3-.15,2.89-.77Z"/><path d="M95.88,347.18c9.62,1.13,20.21,4.27,23.31,14.6.32,1.07,3.21.28,2.89-.78-3.31-11.07-14.81-14.34-25.1-15.55-1.17-.13-3,1.5-1.1,1.73Z"/><path d="M163.16,359.23c-11.5,9.44-23.46,18.34-34.82,27.93-10.29,8.69-19.73,18.39-25.89,30.49-.77,1.51,2.16,1.64,2.79.41,6.44-12.66,16.64-22.55,27.5-31.48,10.68-8.77,21.69-17.12,32.38-25.89,1.52-1.24-.77-2.43-2-1.46Z"/><path d="M89.28,430.32c17.34-7.17,20.54-28.13,21.4-44.77.48-9.22-.77-19-5.16-27.24-3.5-6.59-9.09-11.19-15.45-14.9-.78-.45-3.27.73-2.71,1,13.09,7.62,19.58,19.43,20.44,34.56a94.64,94.64,0,0,1-3,28.16c-2.37,9.27-7.27,18.42-16.54,22.25-1.88.78-.13,1.38,1.06.89Z"/><path d="M149.22,83.73a210,210,0,0,0,29.92-82.1c.19-1.37-2.76-.95-2.93.26a208.52,208.52,0,0,1-29.74,81.59c-.81,1.3,2.13,1.24,2.75.25Z"/><path d="M252.14,196.14c10.43-.71,18.92-7.06,25.35-14.95,3.53-4.34,6.65-9.23,7.41-14.88.73-5.42-.5-11.12-1.84-16.34A84.62,84.62,0,0,0,245.15,99.2c-1.14-.69-3.65.85-2.22,1.71a83.08,83.08,0,0,1,35,42.68c3.33,9.28,6.48,20.65,1.7,29.9-5.21,10.07-15.61,19.65-27.29,20.44-1.67.11-2.21,2.34-.23,2.21Z"/><path d="M114.86,77.29c5.93,7.23,16.66,9.66,25.64,9.23C152,86,160.86,78.89,171.77,76.44c1.76-.39,1.37-1.82-.38-1.42-9.33,2.09-17.16,8.15-26.7,9.55-9.26,1.36-20.93-.85-27.14-8.41-.62-.76-3.41.26-2.69,1.13Z"/><path d="M167.36,77.63c14.72-4.74,29.09-.14,42.79,5.58a197.08,197.08,0,0,1,36.21,19.9c.82.57,3.46-.59,2.69-1.12A197.87,197.87,0,0,0,207.42,79.8c-13.13-5-26.68-8-40.44-3.59-1.69.54-1.36,2,.38,1.42Z"/><path d="M109,143.4a109.39,109.39,0,0,1,26.37-39.08c.57-.56-2.11-.25-2.61.24a110.2,110.2,0,0,0-26.61,39.36c-.18.45,2.57.21,2.85-.52Z"/><path d="M60.64,138.38a29.56,29.56,0,0,1,.42-13.68c.82-3,3.08-11.7,8.82-7.9,1.54,1,2.21,4,2.8,5.74a54,54,0,0,1,2.31,26c-.19,1.22,2.74.75,2.9-.33a55.55,55.55,0,0,0-.64-20.68c-1-4.34-2.61-12.46-7.77-13.9-11.71-3.26-13.06,19-11.73,25.54.22,1.09,3.13.36,2.89-.78Z"/><path d="M67.54,115.34c4.95-.45,8.08,1.41,10.68,5.59a18.66,18.66,0,0,1,2.7,11c-.06,1.51,2.88,1.09,2.94-.22a20.13,20.13,0,0,0-4.22-13.73c-3.27-4.1-6.71-5.19-11.84-4.72-1.62.14-2.24,2.29-.26,2.12Z"/><path d="M84.43,155.05A37.63,37.63,0,0,1,83,135.15c.58-2.79,1.33-6,3-8.37,4.55-6.2,10,1.45,11.21,5.33C99,137.5,99.18,144,99,149.61c-.19,5.21-.94,16.42-5.81,19.73l2.49-.41-.37-.52c-.43-.63-3.24.29-2.71,1l.36.52c.41.6,2.08-.13,2.49-.4,5.87-4,6.43-16,6.49-22.47.06-7.14.28-19.35-7.29-23.11a9,9,0,0,0-11.79,3.73c-4.69,8.3-4.24,19.39-1.3,28.11.27.8,3.15,0,2.9-.78Z"/><path d="M86.88,126.16c6.66-8.16,13.8,2.18,16.2,7.22a34.52,34.52,0,0,1,3.07,11.27c.4,3.75-1.34,31.82-10.14,26.85-.83-.47-3.5.74-2.3,1.42,14.13,8,16.19-23.63,15.13-30.71s-4.6-16.62-11.58-19.67c-4.79-2.1-9.92-.33-13.09,3.55-.81,1,2.1.82,2.71.07Z"/><path d="M247.73,221.67c4.31,3.91,8.41,7.72,14.36,8.62l1.49-1.48c-8.18.5-20.09,1.51-26.35-5.11-.63-.67-3.38.38-2.7,1.09,6.6,7,19.28,6.05,27.88,5.52.57,0,3.15-1.23,1.49-1.48-5.55-.83-9.47-4.62-13.47-8.25-.7-.63-3.4.46-2.7,1.09Z"/><path d="M209,238.43c1.78,5.61-.32,10.66-3.12,15.52-2.53,4.39-5.52,9.75-10.49,11.64-1.85.7-.22,2.31,1.29,1.73,5.3-2,8.36-7,11.17-11.66,3.36-5.55,6.12-11.49,4.05-18-.43-1.34-3.32-.55-2.9.78Z"/><path d="M133.16,266.89a128.37,128.37,0,0,1,13.91-25.56c.23-.32-2.36-.22-2.86.5a128,128,0,0,0-13.91,25.55c-.22.55,2.55.28,2.86-.49Z"/><path d="M120.82,306.38c-4.34-.61-7.57,3.47-9.53,6.9-2.54,4.45-3.48,10.66-.61,15.2,2.3,3.64,6.57,4.5,10.32,2.57,4.29-2.2,6.8-7.56,7-12.19,0-1.28-2.88-.74-2.91.32a13.16,13.16,0,0,1-2.27,7.32c-1.25,1.64-6,3.78-7.77,2.62a7.71,7.71,0,0,1-2.6-4,14.29,14.29,0,0,1-.08-7.54c.59-2.39,3.9-9.89,7.39-9.4,1.21.17,3-1.5,1.1-1.77Z"/><path d="M178.55,312.31a47.62,47.62,0,0,0,10.54,27.43c6.86,8.41,17.93,16.5,16.58,28.67-.16,1.47,2.79,1.07,2.93-.23,1.12-10.08-6-17.74-12.33-24.61-8.35-9-14-19-14.79-31.49-.09-1.5-3-1-2.93.23Z"/><path d="M88.54,333.58c-1.84,20.76-2.61,41.59-5,62.31-.09.83,2.78.27,2.87-.47,2.34-20.83,3.13-41.75,5-62.62,0-.49-2.81-.15-2.9.78Z"/><path d="M74.18,364.31a193.47,193.47,0,0,1,2.5-24.72c.65-3.87,1-8.41,2.79-12a4.64,4.64,0,0,1,7.84-.84c1.91,2.36,1.16,5.63,1.06,8.39-.05,1.5,2.89,1.08,2.94-.22.17-5,.56-9.76-4.87-11.94a7.07,7.07,0,0,0-8.62,2.41c-3.22,4.32-3.55,11-4.36,16.13a192.41,192.41,0,0,0-2.22,23c-.06,1.5,2.89,1.08,2.94-.22Z"/><path d="M31.83,360.69a101,101,0,0,1-5.17-27.92A89.19,89.19,0,0,1,27,316.35c.5-4,1.34-11.9,4.31-14.74s6.77-1.09,7.44,2.6c.54,3,.18,6.33.09,9.37-.14,4.92-.76,10-.41,14.89.08,1.06,3,.43,2.9-.77-.51-7,.68-14.18.48-21.23-.07-2.61.13-4.84-2-6.53s-4.62-3-7.41-1.94c-3.52,1.34-4.91,5.3-6,8.58a58.74,58.74,0,0,0-2.83,18.8c-.09,12.29,1.35,24.46,5.41,36.08.39,1.11,3.27.29,2.9-.77Z"/><path d="M76.56,339.25c.4-9.46.84-19.17,2.85-28.45.3-1.39-2.66-1-2.93.24-2,9.27-2.45,19-2.85,28.45-.06,1.47,2.88,1,2.93-.24Z"/><path d="M78.67,309.2c-6.41-7.54-16.69-.52-19.19,6.84-2.21,6.51-2.14,14.2-2.36,21a209.87,209.87,0,0,0,.61,23.79c.05.71,3,.15,2.89-.78a208.38,208.38,0,0,1-.4-28.38c.27-4.76.43-9.84,1.67-14.48,1.53-5.75,8-14.06,14.07-6.95.54.64,3.3-.36,2.71-1.05Z"/><path d="M56.72,300.33c-.62,15.24-1.63,30.86,0,46.05.14,1.3,3.05.6,2.9-.77-1.62-15-.58-30.46,0-45.51.06-1.48-2.88-1.05-2.93.23Z"/><path d="M44.1,357.19A155.57,155.57,0,0,1,41.35,325a66.54,66.54,0,0,1,2-15.84,28.52,28.52,0,0,1,2.54-6.87,12.56,12.56,0,0,1,2.46-3.33c4.94-4.15,8.8-1.11,8.12,3.43-.12.82,2.76.31,2.87-.47.83-5.55-4.22-7.58-8.82-5.93-5.62,2-8.35,7.52-9.85,12.93-4.33,15.69-2.4,33.33.54,49.09.13.71,3,0,2.9-.78Z"/><path d="M.43,364.86c17.71,6.82,19.74,28,27.77,42.67C34.41,418.9,47.89,426,60.85,422.9c1.77-.42,1.33-2-.44-1.61-7.35,1.76-15.57-.91-21.56-5.27-6.87-5-10-13.38-12.93-21-4.71-12.36-9.8-26.43-23.21-31.59-.95-.37-3.56,1-2.28,1.48Z"/><path d="M42.7,379.76c11-1.83,18.17,7.33,21.64,16.52.51,1.36,3.39.55,2.89-.77-3.89-10.33-12.2-20-24.29-18-1.61.27-2.19,2.53-.24,2.21Z"/><path d="M28.1,360a42.78,42.78,0,0,0,2,26c.26.64,3.09-.29,2.9-.77a42.42,42.42,0,0,1-2-25.79c.13-.53-2.69-.15-2.85.54Z"/><path d="M84.58,307.45c5.86,3.29,12.12,1,17.6-2a88,88,0,0,0,21.56-16.77c.6-.62-2.13-.3-2.62.22a88.48,88.48,0,0,1-12.46,11C103,304,94.32,310.4,87.31,306.46c-.72-.41-3.1.78-2.73,1Z"/><path d="M48.65,423.38c4,6.59,12.72,9.24,20,10a41.23,41.23,0,0,0,22.06-4.12c1.73-.84-.91-1.05-1.74-.64-10.67,5.15-30.32,5.75-37.4-6-.52-.85-3.26.18-2.9.77Z"/><path d="M102,418.14l-.5,1.5c-.21.63.91.67,1.25.63.59-.07,1.44-.36,1.65-1l.5-1.5c.21-.63-.91-.67-1.25-.63-.59.07-1.44.36-1.65,1Z"/><path d="M90,428.61a36.9,36.9,0,0,0,32.57,25.2c14.54.9,27.13-7,38.26-15.52a140.56,140.56,0,0,0,31.85-34.15A139.07,139.07,0,0,0,204.13,383c3.21-7.4,5.83-14.18,4-22.29-.12-.55-3,.16-2.9.78,2.9,12.69-5.43,26.66-11.71,37.3a139.66,139.66,0,0,1-25.78,31.82c-11.47,10.52-26.78,23.16-43.17,22.11-14.78-.95-27-11-31.7-24.84-.21-.6-3.07.26-2.9.78Z"/><path d="M58.84,422c19.74,2.82,37.11-15.53,28.86-35-.3-.73-3.13.21-2.9.77,6.84,16.17-4.79,35.79-23.59,33.11-.7-.1-3.17,1-2.37,1.15Z"/><path d="M2.86,363.82c1.81-7.16,9.33-10.54,15.65-5.85,3.56,2.64,5.75,6.56,7.88,10.34.38.69,3.11-.38,2.89-.77-3.57-6.37-8.23-13.54-16.47-13.25a13.29,13.29,0,0,0-12.8,10c-.15.57,2.67.19,2.85-.52Z"/><path d="M166.17,45.89c43.55-2.37,86.39,19.23,108.65,57,.4.67,3.1-.44,2.9-.78C255.06,63.66,211.62,42.4,167.45,44.8c-.74,0-3.17,1.19-1.28,1.09Z"/></g></g></svg>