<?xml version="1.0" encoding="UTF-8"?>
<svg width="18px" height="20px" viewBox="0 0 18 20" version="1.1" xmlns="http://www.w3.org/2000/svg" xmlns:xlink="http://www.w3.org/1999/xlink">
    <!-- Generator: Sketch 52.6 (67491) - http://www.bohemiancoding.com/sketch -->
    <title>energy</title>
    <desc>Created with Sketch.</desc>
    <g id="Welcome" stroke="none" stroke-width="1" fill="none" fill-rule="evenodd">
        <g id="Desktop_rez_new_2" transform="translate(-330.000000, -3725.000000)" fill="#000000" fill-rule="nonzero">
            <g id="energy" transform="translate(330.000000, 3725.000000)">
                <path d="M12.5661328,3.30207031 L13.8412891,0.866328125 C13.9381641,0.681289063 13.9314453,0.464101563 13.8232813,0.285351563 C13.7151562,0.106679687 13.5258594,0 13.3169531,0 L7.89867187,0 C7.3440625,0 6.87269531,0.378085938 6.75242187,0.919492188 L6.33503906,2.79765625 C2.60398438,3.88164063 0.0139453125,7.32082031 0.0139453125,11.2249219 C0.0139453125,13.5688281 0.92671875,15.7724609 2.58410156,17.4298437 C4.24148437,19.0872266 6.44515625,20 8.7890625,20 C11.1329688,20 13.3366016,19.0872656 14.9940234,17.4298437 C16.6514453,15.7724219 17.5641797,13.5688281 17.5641797,11.2249219 C17.5641797,7.83054687 15.6129297,4.7553125 12.5661328,3.30207031 Z M8.7890625,19.4012109 C4.280625,19.4012109 0.612734375,15.7333203 0.612734375,11.2249219 C0.612734375,7.69878906 2.88011719,4.57976562 6.18519531,3.471875 L4.61796875,10.5244531 C4.56726562,10.7525781 4.63898437,10.9839844 4.80980469,11.1434375 C4.98066406,11.3029297 5.21644531,11.3585156 5.44058594,11.2923047 L9.08035156,10.2159766 L6.67433594,16.2547266 C6.59199219,16.4613672 6.66664063,16.6874219 6.85585937,16.8044141 C6.93097656,16.8508594 7.01335937,16.8734375 7.09472656,16.8734375 C7.21832031,16.8734375 7.33941406,16.82125 7.42875,16.7211328 L8.88449219,15.0891016 C8.99453125,14.9657031 8.98375,14.7764453 8.86035156,14.6664062 C8.73699219,14.5563281 8.54773438,14.5671484 8.43765625,14.6905469 L7.54214844,15.6944922 L9.68863281,10.3071875 C9.76449219,10.1168359 9.72582031,9.90453125 9.58769531,9.75316406 C9.44960937,9.60179687 9.241875,9.54398437 9.04527344,9.60195312 L5.27085937,10.7180859 C5.25121094,10.7239844 5.23351562,10.7198047 5.21847656,10.7057422 C5.2034375,10.6917187 5.19808594,10.6744531 5.20253906,10.654375 L7.33699219,1.04941406 C7.3959375,0.784101562 7.62695312,0.598828125 7.89875,0.598828125 L13.3055859,0.598828125 L9.97058594,6.9690625 C9.8646875,7.17136719 9.87980469,7.41355469 10.01,7.60109375 C10.1402344,7.78867187 10.3620703,7.88726562 10.5883984,7.85894531 L15.0304297,7.29957031 L14.7405469,7.62457031 C14.7269141,7.63726562 14.7146094,7.65105469 14.7037891,7.66578125 L9.23566406,13.7958984 C9.125625,13.9192969 9.13640625,14.1085547 9.25980469,14.2185938 C9.38324219,14.3287109 9.57246094,14.3178906 9.6825,14.1944531 L14.8771094,8.37082031 C15.2931641,9.25871094 15.5115625,10.236875 15.5115625,11.2249219 C15.5115625,14.9317578 12.4958203,17.9474219 8.78902344,17.9474219 C5.08222656,17.9474219 2.06652344,14.9317578 2.06652344,11.2249219 C2.06652344,8.97039062 3.18832031,6.8771875 5.06738281,5.625625 C5.205,5.53398437 5.24222656,5.34808594 5.15058594,5.21050781 C5.05890625,5.07285156 4.87304688,5.03558594 4.73542969,5.12726562 C2.68929688,6.49011719 1.46773438,8.76960937 1.46773438,11.2249219 C1.46773438,15.261875 4.75207031,18.5462109 8.78902344,18.5462109 C12.8259766,18.5462109 16.1103516,15.261875 16.1103516,11.2249219 C16.1103516,10.0638281 15.833125,8.91507812 15.3073047,7.88851562 L15.5854688,7.57667969 C15.7362109,7.40769531 15.7655469,7.16898437 15.6602344,6.96855469 C15.5548828,6.76804687 15.3417188,6.65679687 15.1169531,6.68511719 L14.5850781,6.75210937 C14.0383984,6.04453125 13.3757031,5.44863281 12.6139062,4.98097656 C12.4729688,4.894375 12.2885938,4.93859375 12.2021094,5.07949219 C12.115625,5.22042969 12.1597266,5.40476562 12.300625,5.49128906 C12.8982422,5.85816406 13.4294141,6.31105469 13.8846875,6.8403125 L10.5134766,7.26480469 C10.5090234,7.26539062 10.5060547,7.26582031 10.5017578,7.25957031 C10.4974609,7.25339844 10.4988672,7.25074219 10.5009766,7.24675781 L12.288125,3.83308594 C15.1385547,5.18328125 16.9653516,8.05464844 16.9653516,11.2249219 C16.9653906,15.7333594 13.2975,19.4012109 8.7890625,19.4012109 Z" id="Shape"></path>
            </g>
        </g>
    </g>
</svg>