<svg xmlns="http://www.w3.org/2000/svg" viewBox="0 0 917.83 369.83"><title>One</title><g id="Слой_2" data-name="Слой 2"><g id="Слой_1-2" data-name="Слой 1"><path d="M18.05,75.29c-5.68-1.53-6.93-9-5.23-13.88,2.29-6.61,9.92-9.67,16-11.77A512.35,512.35,0,0,1,80.71,35.2c35.56-8.21,71.73-13.4,108-17.08,72-7.32,145.26-9.2,216.78,3.67,32.9,5.92,66.84,14.23,96,31.11A150.15,150.15,0,0,1,521,66.23c5.08,4.11,14.08,11.46,12.47,19.08-.84,3.94-4.73,5.07-8.08,6.26-4.13,1.46-8.32,2.78-12.52,4-8.69,2.59-17.51,4.8-26.38,6.68-34.94,7.41-70.83,9.78-106.44,11.55-36.74,1.82-73.54,2.31-110.31,1.18-73.2-2.26-146.56-10.64-217.84-27.72-8.32-2-16.59-4.24-24.11-8.42a8,8,0,0,0-8.29.79c-1.72,1.28-3.27,4.25-.71,5.67C35.18,94.44,55,97.25,73.17,101q28.93,6,58.18,10.32a1149.36,1149.36,0,0,0,117.87,11.11c39.67,1.74,79.41,1.62,119.07-.07,38.66-1.64,77.57-4.06,115.58-11.65,9.51-1.9,19-4.15,28.28-6.83,8.26-2.39,17.74-4.5,25.12-9,6.31-3.89,9.64-10.52,7.1-17.77-2.65-7.59-9-13-15-17.83-27.44-22-62.1-33-95.92-40.65C356.73,1.25,277.3,1.79,199.4,9.15c-39.27,3.71-78.46,9.06-117,17.72A520.25,520.25,0,0,0,26.08,42.41C13.73,46.7-1.75,55,.65,70.5A14.56,14.56,0,0,0,11.27,82.77c2.74.74,6.28,0,8.19-2.19,1.64-1.92,1.24-4.57-1.41-5.29Z"/><path d="M.07,78.63C-1.2,136.07,14,194,45.58,242.17c28.68,43.81,70.53,78.59,119.18,98.08,27.07,10.84,55.81,16.08,84.86,17.57,31,1.59,62.87.53,93.58-4.07,29.6-4.43,57.39-14.41,82.22-31.24,23.63-16,44.38-36.3,64-56.92C509.63,244.34,527,221,536,192.75c8.78-27.52,10.49-56.84,9.91-85.55-.15-7.27-.45-14.52-.83-21.78C545,83,533.31,85,533.5,88.53c1.5,28.72,1.83,57.86-3.84,86.19a167.27,167.27,0,0,1-36.09,75.06,439.15,439.15,0,0,1-59.46,58.85c-22,18-46.48,31.71-74.46,37.78-29.27,6.35-60.33,7.36-90.19,6.77-28.89-.57-57.65-4.31-85-13.85-47.87-16.67-90.17-48.88-120-89.77-36.49-50-54.12-112.42-52.76-174C11.71,73.36.15,75,.07,78.63Z"/><path d="M734,50.52c4.67,40.31,9.36,80.77,9,121.41-.33,40.32-7.1,80.11-10.77,120.17q-3.16,34.48-4.14,69.12c-.13,4.35,8.49,2.95,8.79-.75l.31-4c.35-4.3-8.48-3-8.78.75l-.32,4,8.79-.75c1.19-41.19,5.35-82,10.09-122.87a625.82,625.82,0,0,0,2.78-120.08c-1.75-23.16-4.41-46.25-7.08-69.33-.44-3.76-9.16-1.67-8.7,2.33Z"/><path d="M739,48.94a388,388,0,0,0,174.84-4.41l-4.66-.65c-24,80.44-8,164.55-2.39,246.35,1.66,24.33,2.35,48.73.91,73.09l7.91-2.87a472.35,472.35,0,0,0-189.7,6.09c-.73.18-4.45,1.29-4,2.57s3.92.42,4.72.23a453.31,453.31,0,0,1,181.82-5.47c1.8.31,7.76-.34,7.91-2.87,4.94-83.79-16-166.74-10.43-250.52a310.19,310.19,0,0,1,11.8-68.1c.54-1.82-4.14-.78-4.67-.65a370.67,370.67,0,0,1-167,3.78,9.69,9.69,0,0,0-6.08,1.1c-.67.36-3.05,1.92-1.05,2.33Z"/><path d="M802.05,54.62a124.9,124.9,0,0,1-5.83-15.33l-7.14,3.06a176.21,176.21,0,0,0,61.32-1.56l-3.53-1L843.41,54.9c-.5,2.18,8.07.88,8.6-1.44l3.46-15.16c.36-1.59-2.81-1.19-3.54-1a164.23,164.23,0,0,1-57.27,1.31c-1.22-.19-7.79.94-7.14,3A126.6,126.6,0,0,0,793.36,57c1,2.29,9.49-.59,8.69-2.33Z"/><path d="M817.11,41.56c-.55-7.83-1.17-15.66-1.66-23.5-.12-1.88-.25-3.77-.24-5.66s.72-4.53.51-6.49c-2-.06-2.2-.15-.68-.26L818,5.31l5.85-.67c1.32-.16,4.28-1.12,5.35-.36s1.44,3.59,1.67,4.76a73.24,73.24,0,0,1,1.32,10.75A79.77,79.77,0,0,1,830,42.62c-.52,2.25,8,1,8.61-1.41a82.91,82.91,0,0,0,1.77-29.15c-.39-3.22-.44-9.12-3.56-11.14s-9.22-.17-12.47.2c-7.48.87-17,.19-17.69,9.61-.86,10.88,1,22.3,1.76,33.15.13,1.9,8.88.31,8.69-2.32Z"/><path d="M620.27,145c-1.86,5.78-.95,11.12.19,17q2,10.19,4,20.38,4.09,20.87,8.17,41.73c1.09,5.54,12.7,2.55,11.59-3.11l-7.41-37.85-3.6-18.44c-1.1-5.58-3.61-12.56-1.8-18.2,2.08-6.47-9.48-6.59-11.12-1.48Z"/><path d="M581.82,188.86c6.33,2.19,12.84,2,19.44,1.66q11.55-.57,23.1-1.5,23.07-1.86,46-5.15c2.42-.35,6.15-1.67,6.4-4.62.23-2.77-3-4-5.33-3.69q-21,3-42.15,4.84-10.57.9-21.17,1.51c-6.42.36-13.36,1.42-19.56-.73-4.85-1.67-13.61,5.31-6.73,7.68Z"/><path d="M149,174.11a51.33,51.33,0,0,0,6.78,21c.87,1.51,5.54.21,5.59-1.5.31-12.26-13.25-15.73-23.07-13.83-5.09,1-12.61,2.75-16.34,6.67s-2,9.37,1.84,12.48c5.08,4.1,12.25,6.19,18.17,8.83,5.22,2.34,15.51,4.89,18,10.66,4,9.21-13.15,14.06-19.31,14.09-3.72,0-7.77-.41-8.49-4.77-.5-3,.31-5.31-1.62-8-1.17-1.61-5.13-.14-5.59,1.49a12.3,12.3,0,0,0,2.77,12c1.41,1.59,7-.53,5.37-2.32a10.36,10.36,0,0,1-2.33-10.32l-5.59,1.5c3.07,4.23-.72,9.85,5.2,12.61,4.54,2.13,10.74,1.49,15.47.54,7.3-1.45,24.61-8.47,19.81-18.8-2.27-4.87-8.68-6.91-13.17-8.92-6.62-3-13.38-5.72-19.89-8.92-3.27-1.6-7.18-4.11-6.83-8.31.39-4.6,8.5-6.35,12.18-7.11,7.65-1.58,17.83,1.75,17.6,11.11l5.59-1.5a49.59,49.59,0,0,1-6.35-20.2c-.2-2.06-6-.77-5.8,1.55Z"/><path d="M225.42,205.75c3.08-4.15,1.7-9.56-2.37-12.52-4.69-3.41-11.45-3.32-16.9-2.3-10.91,2-21.84,9.83-25.22,20.78-1.54,5-1.22,11.14,3.43,14.38,4.17,2.91,9.79,2.31,14.33.71,12.08-4.25,20-16.82,20.62-29.27.14-2.61-5.3-1.26-5.81.66-2.95,11.08,4,20.95,10.55,29.24,1.32,1.66,6.9-.4,5.37-2.33-6.19-7.84-12.9-17.08-10.11-27.57l-5.81.66a30.76,30.76,0,0,1-10.25,21.9c-3.79,3.28-10.22,6.84-14.74,2.7-2.85-2.62-3-6.89-2.14-10.4,1.92-8.18,9.21-15,17-17.47,3.7-1.17,8.15-1.64,11.89-.39,4.58,1.54,7.94,6.59,4.68,11-1.62,2.19,4.22,1.87,5.43.25Z"/><path d="M252.09,211.92c1.47-14.46,11.9-26.81,11.25-41.63-.19-4.2-1.07-12.11-7.09-10.4-4.93,1.41-6.7,9.11-8.18,13.25-6.61,18.49-12.51,65.14,17.63,66.52,2.55.11,6-3.65,2.11-3.82-16.1-.74-19.11-20.74-19.13-33.27a88.91,88.91,0,0,1,2.23-19.77,85.85,85.85,0,0,1,3.33-11.1c1-2.55,2.17-7.24,4.35-8.93l-2.92.79c2.33.1,1.75,11.48,1.56,12.88a56.1,56.1,0,0,1-4,13.58c-3,7.35-6.21,14.49-7,22.46-.28,2.71,5.6,1.78,5.83-.56Z"/><path d="M330.82,217.66a23.2,23.2,0,0,0-21.47-22c-10.81-.79-21.55,5.93-26.33,15.52s-2.3,25.35,11.19,24.61,19.08-17.15,20.84-28.16l-5.84,1a35.71,35.71,0,0,0,21.27,24.07c2.54,1,6.74-2.6,3.31-4A31.86,31.86,0,0,1,315,207.09c-.71-2.69-5.48-1.29-5.84,1-1.13,7.05-4.91,23-14.48,23.36-5.63.2-8.46-6.37-8.36-11.05a20.7,20.7,0,0,1,4.11-11.47c4.57-6.27,12.6-10.4,20.39-8.34a19.27,19.27,0,0,1,14.11,17.49c.1,3.11,6,2.29,5.88-.4Z"/><path d="M397.45,206.19c1.62-11-11.88-14.87-20.41-13.64-10.48,1.5-20.26,8.12-24.76,17.84-1.81,3.91-4,11.17-1.37,15.18,2.37,3.64,8,2.92,11.56,2,10.95-2.75,20.09-10.52,25.83-20.07,8.62-14.35,8.78-31.81,6.25-47.87-.22-1.39-5.61,0-5.77,1.25a109.77,109.77,0,0,0,14.9,70.69c.93,1.55,6.38-.58,5.79-1.55a109.19,109.19,0,0,1-15-70.08l-5.77,1.25c3.51,22.27.68,52.72-23.23,63-3.61,1.55-8.36,2.56-9.6-2.27-.65-2.52-.14-5.49.48-8a27.13,27.13,0,0,1,8-13.23c4.71-4.35,11.44-7.26,17.86-5.37,5.23,1.54,10.38,5.75,9.5,11.71-.24,1.62,5.51.59,5.73-.94Z"/><path d="M754.06,145q2.87,14,6.2,28c.41,1.72,6,.28,5.8-1.55-.75-6.12-1.8-13.75.9-19.56,2.06-4.42,6.28-1.21,8.31,1.6a33.32,33.32,0,0,1,4.5,10c.54,1.79,5.37.15,5.78-1.2a68.38,68.38,0,0,1,4.23-10.82c.67-1.34,1.82-4.56,3.05-5.42q.9-2.41,2.28.38c.4.74.77,1.49,1.12,2.26a42.83,42.83,0,0,1,3.29,10.38c.6,3.32.19,7.09,1.8,10.11.93,1.76,6.51-.21,5.8-1.55-1.41-2.62-1.14-5.57-1.54-8.46a42.3,42.3,0,0,0-2-8.15c-1.35-3.87-3-9.45-7.83-9.66-9.47-.4-13.89,14.87-16,21.77l5.78-1.2c-2.49-8.25-8.54-19.35-18.83-14.85-9.27,4.05-7.46,18-6.48,26l5.8-1.55q-3.34-13.92-6.2-28c-.34-1.68-6.17-.28-5.8,1.56Z"/><path d="M833.27,156.26c5-5.86.05-12.53-6.58-13.77-7-1.31-14.89,2.58-17.24,9.47-2,5.77.57,14.88,7.87,14.78,8.39-.11,11.77-9.87,12.59-16.74l-5.82,1.06c.76,5,2.93,12,7.32,15.05,2.7,1.89,7.05,1.62,8.63-1.51,1.39-2.77-4.45-2.53-5.49-.46.93-1.86,1-1.36-.31-3.26a23.18,23.18,0,0,1-2.36-4.14,28.28,28.28,0,0,1-2-7.24c-.37-2.38-5.58-.92-5.82,1.05-.34,2.78-.79,8.42-3.23,10.16l-4.21.73a7.09,7.09,0,0,1-1.37-2.51,10.36,10.36,0,0,1-.56-5c.5-4.17,3.65-8,8.18-7.83,4,.13,9,4.72,5.62,8.71-2.32,2.72,3.24,3.23,4.77,1.42Z"/><path d="M836.92,143.19c-.76,6.34-.61,19.14,8.26,19.47,8.23.3,11.1-7.49,11.46-14.31l-5.82,1.05c2.17,5,6.33,9.64,7.32,15.1,1.37,7.53-5.53,12.17-12.36,12.22l1.33,2.62,3.75-3.93c2.46-2.56-3.15-3.08-4.76-1.4l-3.76,3.92c-1.13,1.19-.2,2.64,1.33,2.62,7-.05,15.18-2.47,18.91-9,4.89-8.52-2.75-16.24-6-23.72-.89-2-5.71-1.19-5.82,1.05-.17,3.13-1.95,15-6.84,6.54-2-3.47-1.65-9.1-1.2-12.81.33-2.7-5.56-1.8-5.84.56Z"/><path d="M870.33,159.41A22.16,22.16,0,0,1,881.69,158c2.66.32,6-3.45,2.09-3.93a31.49,31.49,0,0,0-15.93,2.25c-1,.42-2.22,1.67-1.42,2.78s2.85.75,3.9.32Z"/><path d="M803.15,203.26c-5.22-6.06-15.52-1.08-19.11,4.36-4.68,7.11-1.32,18.23,8.2,18.13a12.71,12.71,0,0,0,11.46-18.4c-1.62-3.31-4.5-5.35-8.25-4.82-3.26.45-6.36,2.54-6.22,6.05.07,1.9,5.88.73,5.79-1.55a1.46,1.46,0,0,1,2.23.77,10.83,10.83,0,0,1,1.39,2.91,11.66,11.66,0,0,1,.31,6.44c-1.22,4.82-6,7-9.39,2.54a10.11,10.11,0,0,1-1.42-9.2c1.17-3.59,6-9.19,9.63-4.94,1.33,1.56,6.89-.53,5.38-2.29Z"/><path d="M813.64,197.43a81.78,81.78,0,0,0,5.61,22c.6,1.47,5.56.15,5.77-1.23.83-5.36,3.34-19.52,11.25-16.59,7.06,2.62,9.23,10.72,11,17.24.41,1.56,6.22,0,5.8-1.55-2.42-9.16-7-20.17-18.47-18.87-10.48,1.19-13.87,11.6-15.27,20.68l5.77-1.23a82.17,82.17,0,0,1-5.62-22c-.15-1.41-6-.23-5.79,1.55Z"/><path d="M864.12,208.25l13.51.92a6.31,6.31,0,0,0,4.1-1.1c.76-.68.89-1.35-.39-1.43l-13.51-.92a6.33,6.33,0,0,0-4.1,1.1c-.76.68-.88,1.35.39,1.43Z"/><path d="M755.21,258.34l.61-2.47L750,257l8,25.69c.59,1.9,6.06.42,5.8-1.55-1-7.24-5.3-24.65,5.82-25.88,3.33-.36,4.71.56,6.63,3.2a18.5,18.5,0,0,1,2.65,5.78c1.27,4.33,1.69,8.84,3.1,13.15.63,1.91,6.4.27,5.8-1.55-2.12-6.46-2-14-6.16-19.6a12.21,12.21,0,0,0-13.31-4.66c-14.61,3.77-11.84,19.87-10.33,31.11l5.8-1.55-8-25.69c-.67-2.16-5.16-.08-5.79,1.16-.87,1.73-.71,1.32-.63,3.25.08,1.71,5.89.59,5.8-1.55Z"/><path d="M817.36,260.61c-1.23-6.66-8.32-10-14.61-8.88-7.38,1.28-12.87,8-13.48,15.33-.57,6.79,4.4,13.56,11.78,11,8.19-2.8,8.74-14.61,8.19-21.74l-5.57,2c3.11,5.51,5.82,11.8,9.61,16.88,2.27,3,5,4.15,8.66,3.14s2.63-4.36-.9-3.38c-2.67.74-10.82-16.9-12-19-1.09-1.93-5.73-.09-5.57,2,.32,4.17.38,10.38-1.91,14.17-4.25,7.09-6.79-3.8-6.25-7,.72-4.31,3.82-10,8.88-9.8,3.87.16,6.74,3.33,7.4,6.91.42,2.29,6.24.86,5.8-1.55Z"/><path d="M831.45,256.74c-.78-1.43-.74-1.37-2.26-2-1.15-.46-5.41.25-5.24,2a85.44,85.44,0,0,0,5.52,23.09c.65,1.66,6.36-.11,5.79-1.55a85.81,85.81,0,0,1-5.52-23.09l-5.24,2,1.16,1c.91,1.66,6.45-.36,5.79-1.55Z"/><path d="M827.41,244.75l.14.06c1.41.59,4-.29,5-1.34a1,1,0,0,0-.34-1.7c-1.42-.54-4.07.32-5.15,1.28s-1.32,2.5-1.77,3.76l-1.76,4.88c-.5,1.36,5.15.71,5.74-.92l1.45-4c.41-1.13.68-2.86,1.44-3.77l-2.35,1.21.33-.11-3,0,.12-.31,5-1.34-.14-.06c-1.17-.5-3,.11-4.07.67-.68.37-1.85,1.25-.64,1.76Z"/><path d="M853.74,251.14a17.88,17.88,0,0,0,2.07,6.36c.9,1.68,4.1.43,5.2-.39,4.33-3.24-3.31-5.85-5.83-6.17-4.15-.52-9.91.4-12.89,3.66-4.69,5.14,4.81,9.71,8.21,12.37,2.29,1.78,6.6,4.17,7,7.4s-2.83,4.54-5.1,5.53a22.22,22.22,0,0,1-4.79,1.44q-4.44-.51.34-3.6c3.4-1.86-1.77-2.46-3.54-1.5-2.66,1.46-7.62,6.24-2.42,8.16,4.61,1.7,12.35-1.85,16.24-4.16,4.52-2.68,7-6.82,2.83-11.24-2.76-3-6.46-5.25-9.63-7.73-1-.79-3.79-2.17-4.12-3.31q1.86-5.86,6.83-3.51,2.19.36,2.28,1.89l5.19-.39a18.09,18.09,0,0,1-2.07-6.36c-.24-1.76-6.08-.46-5.79,1.55Z"/><path d="M871.63,273.46c5.36-3.65,19-12.74,13.82-20.88-4.62-7.26-15.62-.51-19.2,4.32-5.55,7.5-3.7,17.84,3.35,23.71,7.26,6,17.77,5.56,25.8,1.45,3.55-1.82.32-4.16-2.39-2.77-11.26,5.77-26.84-2.52-24-16.29a13.87,13.87,0,0,1,3.65-6.91c2.67-2.72,8.18-3.91,7.91,1.57-.29,5.65-8.56,10.95-12.65,13.74-3.25,2.21,1.65,3.45,3.68,2.06Z"/></g></g></svg>