<svg xmlns="http://www.w3.org/2000/svg" viewBox="0 0 560.87 836.03"><title>Startup</title><g id="Слой_2" data-name="Слой 2"><g id="Слой_1-2" data-name="Слой 1"><path d="M14.64,493.6c-2-75.34,18.65-148.85,47.91-217.65,14.87-35,32-68.94,49.83-102.45,17.46-32.72,34.56-66.27,54.94-97.28,18.81-28.62,44.07-56.29,78.2-65.74,35-9.69,71.21,5.7,98.23,27.68,28.19,22.93,49.9,53.3,70.86,82.67A913.79,913.79,0,0,1,473,213.2c34.31,62.74,60.28,130.79,69.59,202,5.11,39.07,4.72,78.56.5,117.7-3.85,35.72-10.15,71.44-20.12,106C504.85,701.5,472.12,763,414.44,797.21,356.49,831.61,283.32,836,219.07,818.9c-18.08-4.82-35.81-11.81-51.79-21.63-15.11-9.28-28.61-21.08-40.76-34-23.92-25.39-43.81-55-60-85.85-32.07-61.15-50-131.4-43.52-200.63a293.24,293.24,0,0,1,8.9-49.09c1.25-4.63-13.21-2.53-14.44,2C-1.29,499.25,7,573.34,33.07,639.83a427.9,427.9,0,0,0,51.23,93.7c21.38,29.69,46.65,57.35,79.22,74.88,32.39,17.44,70,25,106.44,27.11,34.89,2,70.48-1.91,103.79-12.65,32.76-10.56,63.41-27.52,88.31-51.47,24.33-23.41,42.76-52,56.53-82.69,14.12-31.49,23.4-65,30-98.81C556.31,550.12,561,509.53,560.86,469c-.24-75.88-20.45-149.86-52.43-218.31a808.06,808.06,0,0,0-54.15-96.86C433.89,122.28,412.11,91,387.51,62.55c-24.16-27.9-54-52.2-90.86-60.16-36-7.78-72.58,4.07-101,26.51-29.46,23.26-48.15,56.49-66.07,88.75-19,34.27-37.91,68.63-55.32,103.75C40,290.7,10.75,364.18,2.4,441.63A418.37,418.37,0,0,0,.15,497.48c.1,4,14.62,1.31,14.49-3.88Z"/><path d="M24.45,527.11a677.6,677.6,0,0,1,47-120.21L58,409.56a1105.61,1105.61,0,0,1,61.2,115.08c2,4.47,12.22,2,14-1.74a704.21,704.21,0,0,0,46.2-124.66l-14.49,2.82L211,517.59c2,5.08,13.31,1.4,14.49-2.83A969.3,969.3,0,0,1,263.2,405.64l-14.5,2.83q26.85,54.64,57.42,107.32c2.31,4,11.61.05,13.48-2.66a453.57,453.57,0,0,0,51.46-99L356.56,417a802.05,802.05,0,0,0,40.27,91.05c2.35,4.53,13.53,1.91,14.49-2.83A220.87,220.87,0,0,1,455,411.56l-14,1.75a485.44,485.44,0,0,0,44.78,87.86c2.28,3.53,13.77.43,14-3.74a352,352,0,0,1,20-101.41l-14,3.75a221.18,221.18,0,0,1,24.63,30.87q5.52,8.37,10.2,17.24a18.78,18.78,0,0,1,2.47,6.61,19.89,19.89,0,0,1-.1,3.37l-.25,1q-2.44,4.13,7.19-2.06c-3.35-.62-7.75.28-10.25,2.74-2.08,2.06-1.77,4.66,1.41,5.25,6.49,1.21,14.89-1.48,16.4-8.67s-2.88-13.24-6.19-19a221.34,221.34,0,0,0-32.07-43c-3.37-3.54-12.48-.45-14,3.74a352,352,0,0,0-20,101.41l14-3.75a474.74,474.74,0,0,1-43.73-86c-2-5.18-11.74-1.1-14,1.75A226.66,226.66,0,0,0,396.82,507l14.5-2.83a801.9,801.9,0,0,1-40.27-91c-2-5.39-13-1.07-14.49,2.82a444.14,444.14,0,0,1-50.47,96.79l13.48-2.66q-30-51.75-56.38-105.48c-2.53-5.16-12.79-1.3-14.49,2.82A969.3,969.3,0,0,0,211,516.53l14.5-2.82L179.37,397.18c-2-5.05-13.36-1.44-14.5,2.83a691.43,691.43,0,0,1-45.22,122.5l14-1.75A1124.15,1124.15,0,0,0,71.4,403.84c-2.21-3.63-11.91-.43-13.47,2.66A690.34,690.34,0,0,0,10,528.88c-1.5,5.25,13.07,3.24,14.5-1.77Z"/></g></g></svg>