<svg xmlns="http://www.w3.org/2000/svg" viewBox="0 0 983.23 748.52">
    <title>Studio</title>
    <g id="Слой_2" data-name="Слой 2">
        <g id="Слой_1-2" data-name="Слой 1">
            <path d="M613.72,140.25c1.11-18.59-15.56-31.27-31.15-37.65a132.55,132.55,0,0,0-56-9.4c-37.94,1.69-75.06,19.67-96.34,51.71-20.33,30.62-25.08,70.73-9,104.19,16.38,34.11,49.27,63.92,40,105.14-5.18,23.07-20.5,42.7-35.85,60-17.94,20.25-36.68,39.83-55,59.68-4.71,5.09,6.53,5.44,9.41,2.32q23.69-25.61,47.37-51.2c13.18-14.31,26.26-29.21,35.66-46.35,9-16.43,14.08-34.94,10.86-53.69-3-17.55-12.64-33.07-22.14-47.8-9.89-15.32-20.4-30.65-25.18-48.47a99.89,99.89,0,0,1,.55-51.91A102.84,102.84,0,0,1,499.66,104a118.26,118.26,0,0,1,60.41.13c17.25,4.57,43.31,15.71,42,37.44-.3,5.09,11.38,2.95,11.63-1.3Z"/>
            <path d="M327.53,504c7.93,47.92,40.26,90.18,83.58,111.78,25.51,12.71,53.79,16.46,82,16.62,30,.18,60.51-2.84,88.63-13.69,47.08-18.17,89.26-58.82,102.47-108.47,3.69-13.9,4-28.36-.64-42.07-4.39-13-12.25-24.51-20.62-35.23-19.33-24.77-40-48.46-59.06-73.44-17.41-22.79-35.46-47.15-40.68-76-4-22.15,1.95-48.42,19.73-63.43a36.52,36.52,0,0,1,13.59-7.43c1.28-.37,5.76-1.7,5.21-3.74s-5.27-1-6.38-.63c-21.5,6.1-36.57,23.1-42.35,44.46-6.61,24.43.47,49.11,12.43,70.69,14.35,25.88,34,49.09,52.51,72.08,9.31,11.6,18.91,23,28.36,34.44,9,10.9,17.7,22.28,23.34,35.32,12,27.71,2.65,56.81-12,81.58a165.39,165.39,0,0,1-51.24,53.6c-23.11,15.23-49.46,23-76.9,25.43-30.11,2.7-62.23,2.37-91.12-7.45-51.2-17.42-90.51-64.25-99.32-117.5-.48-2.91-12.16-.31-11.59,3.11Z"/>
            <path d="M600.79,141.5a73.63,73.63,0,0,0,2,68.16c2.29,4.12,13.45.07,10.66-4.92a68,68,0,0,1-1.68-62.26c2.74-5.64-8.93-5.21-11-1Z"/>
            <path d="M602.7,141A228,228,0,0,1,645,159.27q9.85,5.52,19.13,12c2.21,1.54,18.6,12,17.37,14.72l2.32-2-.81.42,8.14-1.36-.74-.32c-2.75-1.2-13.32,3.13-9.43,4.83,3.1,1.35,7.52.08,10.22-1.79,3.62-2.51,1.69-4.77-1-7.07a205.88,205.88,0,0,0-24.61-17.81,235.09,235.09,0,0,0-53.39-24.7c-2.5-.8-5.91.16-8.14,1.36-1.16.63-3.86,2.65-1.3,3.47Z"/>
            <path d="M596.87,212.89c32-2.17,65.94-9.79,93.74-26.17,4.4-2.6.94-5.62-2.87-5.19l-3.86.44c-2.06.23-6.24,1.49-6.56,4s3.28,2.86,5,2.66l3.86-.44L683.36,183c-25.14,14.82-56.15,21.22-85,23.18-2.06.14-6.25,1.55-6.56,4-.34,2.69,3.28,2.77,5,2.65Z"/>
            <path d="M616.84,198l20.47,0c2.3,0,16,.55,16.23-.12-1.32,4.44,10.37,2.9,11.63-1.3,2.13-7.17-12.5-5.66-15.69-5.65l-28.26.06c-2.42,0-6.46.75-7.62,3.27-1.09,2.35.93,3.79,3.24,3.78Z"/>
            <path d="M464.63,632.49l3.48,60.9c.18,3.17,14.37.37,14.49-3.88l.13-4.86c.08-2.72-14.36-.69-14.48,3.89l-.14,4.85,14.49-3.88-3.48-60.9c-.18-3.06-14.74-.51-14.49,3.88Z"/>
            <path d="M563.18,623.24a348.58,348.58,0,0,0,5.44,70.5c1.27,7,15.79,3.29,14.49-3.88a333.73,333.73,0,0,1-5.21-67.6c.19-7.81-14.55-5.89-14.72,1Z"/>
            <path d="M460.6,690.4a208.57,208.57,0,0,0-42.34,31.67c-2.44,2.37-1.13,5.46,1.75,6.51,3.43,1.25,7.74-.32,10.24-2.75a181.64,181.64,0,0,1,36.58-27.59c2.38-1.35,5.66-4,3.54-7-1.91-2.7-7.31-2.23-9.77-.83Z"/>
            <path d="M462.66,695.05a208.7,208.7,0,0,0-12.59,49.66c-.8,6.38,13.87,4,14.56-1.55a208.5,208.5,0,0,1,12.59-49.65c1.27-3.27-4.61-3.9-6.42-3.73-3.39.3-6.87,2-8.14,5.27Z"/>
            <path d="M476.79,695.78a61.08,61.08,0,0,1,25.72,15.08c2.61,2.59,6.62,2.7,9.85,1.1,2.16-1.07,6.06-4.87,3.41-7.5A72.94,72.94,0,0,0,485.14,686c-3.44-1-7.89-.15-10.24,2.75-2,2.51-1.46,6,1.89,7.06Z"/>
            <path d="M575.56,690.36c-13.65,5.29-25,14.26-32.5,26.88-1.52,2.54,5.14,2.11,6,2,2.92-.42,6.79-1.58,8.4-4.29a47.71,47.71,0,0,1,23.4-20.35c1.53-.6,5.95-2.5,4.16-4.71-1.66-2-7.66-.2-9.42.48Z"/>
            <path d="M568.53,689.85l15.63,47.86c2,6,14.57,3.73,14.6-2.46l0-8.78c0-7.7-14.66-5.66-14.7,1l0,8.78,14.59-2.46L583,686c-2.21-6.77-16.67-2.8-14.49,3.88Z"/>
            <path d="M574.24,693.54a145.42,145.42,0,0,1,46.94,12.73c3.07,1.4,7.5.31,10.25-1.4,1.85-1.16,4.48-4,1.31-5.49a162.37,162.37,0,0,0-52.8-13.85c-3-.28-8,1.19-9.58,3.91-1.78,3,1.54,3.88,3.88,4.1Z"/>
            <path d="M327.8,492.09q-77.21,9.27-155,11.67c-25,.75-50.77,2.45-75.67-.32-23.81-2.65-44.26-13.18-62.21-28.79-15.34-13.34-29.44-33.32-20.53-54.29,8.78-20.67,30.22-28.4,51-30.07,23.48-1.88,47.59-.11,71,1.38q38.34,2.43,76.4,7.89c27.45,3.91,55.29,8.25,82,15.85,25.59,7.29,49,19.57,68.91,37.32,2.16,1.93,12.38-2.56,10.95-3.83a172.37,172.37,0,0,0-63.25-35.64C286.33,405.32,260,401,234,397q-39.9-6.18-80.22-9.09c-25.57-1.87-51.6-3.59-77.24-2.28-20.78,1.05-43.32,5.29-59.78,18.95C8.79,411.19,2.51,420.17.59,430.43c-2,10.76,1.32,21.31,7.27,30.26,12.29,18.49,33.58,33.82,54.3,41.32,23.88,8.64,50.3,7.13,75.27,6.78a1767.48,1767.48,0,0,0,185.24-12.42c2-.24,6.58-.79,7.78-2.69s-1-1.78-2.65-1.59Z"/>
            <path d="M36.81,392.91c-23-16.88-23.09-52-7.31-73.59,20-27.49,56.44-33.36,88.12-30,18.48,2,36.65,6.63,54.54,11.54q25.22,6.92,49.87,15.66a719.21,719.21,0,0,1,95.39,41.89,727.57,727.57,0,0,1,99.11,63.12l5.28-6.51-5.52.25c-6,.26-9.4,7.41-1.41,7.06l5.52-.25c2.83-.12,9.17-3.55,5.27-6.5A731.5,731.5,0,0,0,229,309.79q-26.28-9.32-53.23-16.57c-19.19-5.17-38.69-9.86-58.55-11.47-33.7-2.72-71.72,5.13-94.64,32-20.84,24.42-22.53,64.8,5.1,85.1,3.36,2.47,13.94-2.41,9.13-5.94Z"/>
            <path d="M132.1,284.4c-12.22-4.9-15.29-20.33-15.81-32-.67-15,.82-32,8.36-45.31,18-31.68,60.28-26.23,89.2-16.48,62.31,21,111.78,68.14,149.49,120.61,23,32,42.3,66.35,60.77,101.06l5.85-6.69c-2.18,0-3.77-1.46-5-3-3.19-4-14.24.48-10.62,5.06s8.73,6.37,14.56,6.3c3.31,0,7.77-3.09,5.85-6.69C400.09,342.08,361.49,277,303.61,229.81c-26.92-22-57.81-39.74-91.27-49.54-32.26-9.45-74.54-9.71-95.92,21.07-10.5,15.11-12.75,35.31-11.79,53.28.8,15.14,5.46,31.34,20.75,37.47,4.8,1.93,13.51-5,6.72-7.69Z"/>
            <path d="M233.63,188.87c-9.5-11.11-13-25.69-12.46-40.1.56-14.22,4.05-30.36,11.9-42.41,17.06-26.16,55.54-11.27,76.38,1.47,56.51,34.52,77.8,101.61,95.74,161.41l18.09,60.39L432.07,359l4.54,15.14c.67,2.24,5.21,12.47,3.56,14.34l6.17-3.12-.66.07,4.6,1-.33-.07-5,3.68.53-.14c1.74-.45,5.65-2.1,5-4.53s-5-1.85-6.59-1.42l-.53.14c-1.55.41-4.77,1.69-5,3.68-.82,7.06,11.53,4.28,13.45-.1,1.36-3.1-.72-7-1.62-10l-5.1-17q-9.21-30.75-18.43-61.5c-11.51-38.43-21.68-77.86-38.81-114.27-14.63-31.12-35.21-59.9-64-79.35-24.76-16.72-63.1-30-90.34-11-15.3,10.69-21.35,31.2-23.4,48.92s.92,36.16,12.79,50c2.65,3.1,13.76-1,10.75-4.58Z"/>
            <path d="M566.48,102c9.23-27.77,30.15-60.16,61.25-65.65,30.18-5.33,58.61,14.23,72.82,39.67,16.35,29.29,15.63,64.47,7.63,96.15C699.9,205,684.66,236,667.12,264.73c-19.79,32.45-43.2,62.47-67,92.07-4.55,5.66,6.47,7.07,9.62,3.14,45-56.09,91.12-116.09,109.65-186.91,8.85-33.84,9.15-70.74-8.24-102-15.41-27.68-45.72-46.21-77.86-43.34-38.63,3.44-66.41,38.69-77.88,73.2-2.06,6.19,9.49,5.77,11,1.13Z"/>
            <path d="M723.66,160.56c.54.37.48-.27,1.39-1.22,1.31-1.37,3.44-2.32,5.05-3.35q4.86-3.09,9.92-5.82a174.93,174.93,0,0,1,21.25-9.75A167.49,167.49,0,0,1,783,133.87c8-1.86,16.46-3.46,24.36-.47,12.92,4.88,21.29,18.32,27.28,30a125.92,125.92,0,0,1,12.52,40.24c4.06,29.94-4.52,58.46-25,80.74S775.47,324.34,749,338.92c-29.91,16.49-61.5,29.61-93,42.66-2.19.9-4.33,3.64-2.74,5.93,1.68,2.45,5.62,1.78,7.86.85,31.78-13.15,63.64-26.39,93.77-43.06,29.47-16.31,59.24-36.07,81-62.12,21.12-25.22,27.88-57.7,21.62-89.73a130.54,130.54,0,0,0-17.38-44c-8-12.81-19.71-24.33-35.44-25.95-10-1-20.18,1.4-29.76,4a188.83,188.83,0,0,0-27.61,9.82c-5.77,2.56-46.15,20.64-32.62,30,4.19,2.88,14.36-2.94,8.94-6.67Z"/>
            <path d="M859,254a328.45,328.45,0,0,1,45.27,13.2c11.28,4.23,23.72,9,31.14,19,8.44,11.42,5.9,26.65,1.63,39.17a115.25,115.25,0,0,1-18.32,33.23c-16.69,21.48-39.66,37.11-63.94,48.86-26,12.58-54.18,23.31-82.31,30-30,7.1-63.07,1.16-91,16.4-2,1.09-3,3.36-.94,4.81,2.25,1.58,6.17.12,8.23-1,12.84-7,28-7.68,42.25-8.46,15.2-.83,30-2.32,44.87-6,15.16-3.72,29.92-9,44.55-14.34a417.86,417.86,0,0,0,42.2-17.83c24.83-12.39,47.93-28.36,65.43-50.14A123.66,123.66,0,0,0,947.64,327c4.59-12.27,7.84-27.16,2-39.59-6-12.77-19.22-19.4-31.74-24.32a340.88,340.88,0,0,0-51.84-15.67,9.51,9.51,0,0,0-8.2,2.2c-1.68,1.72-1.36,3.84,1.18,4.4Z"/>
            <path d="M855.28,417.85c27.58-11.48,61.28-15.76,87.59,1.3,22.29,14.47,35.56,41.8,25.18,67.64-11.27,28.06-39.39,41.77-67.4,47.63-32.79,6.86-67.6,7.72-100.94,5.81-38.94-2.22-77.4-11.43-116.55-9.75-6.45.28-9,8.49-1.12,8.15,38.41-1.65,76.32,7.68,114.55,9.78,36.46,2,74.62,1,110.31-7.33,29.57-6.9,59.7-23,71.9-52.46,11.39-27.45-.17-56.42-23.38-73.51-30.64-22.56-72-17.56-105.19-3.76-2.11.88-4.38,3.48-2.79,5.75s5.66,1.65,7.84.75Z"/>
            <path d="M509.56,164.47c3.83.14,7,1.64,10.94,1A16.22,16.22,0,0,0,530,160.6c4.07-4.43,4.19-11,1.11-16a14.5,14.5,0,0,0-18-5.48c-5.93,2.58-11.15,10.25-11.74,16.68a11.1,11.1,0,0,0,9.77,12.33A15.88,15.88,0,0,0,522.94,165c2.7-2.21,3-4.65,3-8,0-7.34-4.47-10.92-11.86-9.46-7.89,1.57-12.2,7.37-10.26,15.2,1.31,5.29,15.83,1.51,14.49-3.88-.09-.37-.42-4-.47-4.1L510.9,156a6.78,6.78,0,0,1,.38,1.6c-.44,2,.34,4.08-.48,6.18l1.41-2.19-1,.77,4.82-2.5c2.51.38,3.06.12,1.63-.8a5.62,5.62,0,0,1-1.27-1.95,7,7,0,0,1-.32-4.32c.44-2.22,2.38-7,4.48-8.11l-5.48,1.89c-1.83.13-.73-.08.17.89a20.41,20.41,0,0,1,1.5,1.58,9.79,9.79,0,0,1,2,5.22c0,.73-.25,1.54-.18,2.23a5.71,5.71,0,0,1-.49,1.55l3.93-1c0-.64-6.28-1.17-6.88-1.19-3.12-.11-7.9,1.05-9.55,4s1.41,4.47,4,4.56Z"/>
            <path d="M494.85,167.38a29.92,29.92,0,0,0,32-1.38c3.59-2.47,6.85-6.26,7.06-10.8s-2.74-7.49-7.12-7.7c-3.38-.16-7.53.6-10.25,2.75-2,1.62-2.08,3.65,1,3.8,3.73.18,1,7.85-.07,9.17-2.51,3.08-5.78.9-9-1-2.69-1.58-6.71-.54-9.42.51-.81.32-6.65,3.21-4.17,4.67Z"/>
            <path d="M520.11,140.23c-8.29-.95-15.42.13-18.92,8.5-2.91,7-1.91,16,6.84,17.17,1.21.16,3-1.52,1.09-1.78-7.29-1-7.4-9.21-5.45-14.53,1.05-2.85,2.34-5.67,5.33-7.12s6.79-.83,10-.46c1.21.14,3-1.55,1.09-1.78Z"/>
            <path d="M502.12,166c-7.27,1-9.76-7.12-8.65-12.85a17.6,17.6,0,0,1,8.23-11.66c4.4-2.6,12.4-3.85,17.05-1,4.23,2.62,3.2,8.14,3.66,12.37.14,1.26,3.05.56,2.9-.78-.76-6.89-.3-13.14-8.59-14.69-6.3-1.18-13.42,0-18.56,3.92s-8.47,10.29-7.85,16.76c.58,6.13,5.22,10.78,11.53,9.94,1.56-.2,2.26-2.29.28-2Z"/>
            <path d="M363.31,143.24C347.56,117,343.88,80.7,359.62,53.45c8-13.85,20.37-22.24,36.78-18.78,16,3.37,29.08,15,39.6,26.89a139.23,139.23,0,0,1,27.17,46.77c1.31,3.78,12.83.44,11.59-3.11A143.56,143.56,0,0,0,448.42,59C437,45.64,422.74,33.3,405.28,29.07c-17.25-4.17-35.83.57-48.2,13.44-11.53,12-17.17,28.9-18.65,45.21a97,97,0,0,0,13.29,58.62c2.19,3.66,13.25-.34,11.59-3.1Z"/>
            <path d="M464.1,79.68c1.26-16.52,5.13-33.37,14.16-47.49,8.11-12.69,21.12-24.07,36.51-26.13s30.86,5.56,41.19,16.6c11.19,12,16.55,28,17.4,44.17.15,3,11.8.81,11.59-3.11-1.49-28.32-18.51-55.5-47.31-62.24-27.23-6.38-56.05,8.59-70.49,31.67-9.1,14.55-13.27,31.27-14.57,48.25-.3,4,11.27,1.62,11.52-1.72Z"/>
        </g>
    </g>
</svg>