<svg xmlns="http://www.w3.org/2000/svg" viewBox="0 0 1747.3 787.76"><title>Team</title><g id="Слой_2" data-name="Слой 2"><g id="Слой_1-2" data-name="Слой 1"><path d="M197.73,310.55a283.75,283.75,0,0,1-24-76.63c-3.7-22.84-5.31-47.42,3.13-69.44a66,66,0,0,1,7.74-14.71c2.8-3.92,7.66-10.92,12.87-11.32,5.67-.43,11.92,5.58,15.68,9.13A87.77,87.77,0,0,1,224.62,161C231.7,171,237,182.25,242,193.44c5.49,12.31,10.67,24.77,15.26,37.45,10.17,28.13,17.31,57.42,18,87.43.06,2.57,11.68.63,11.59-3.11-.69-30-7.82-59.3-18-87.42-4.95-13.7-10.58-27.16-16.6-40.43-5.23-11.55-11-23-18.64-33.14-6.79-9-16.54-20-28.56-21.08-12.18-1.08-23.17,6.54-30.17,15.85-14.83,19.73-17.08,45.55-15.1,69.39,2.73,33,12.19,65.47,26.39,95.28,1.55,3.26,12.79-.59,11.59-3.11Z"/><path d="M380,335.69c-31.27-41.84-43.26-97.38-31.68-148.36A77.74,77.74,0,0,1,353,172.19c2-4.3,5.73-11.51,11-12.34,6.21-1,13.34,4.56,17.74,8.21a72.29,72.29,0,0,1,12.44,13.53c7.53,10.42,12.73,22.32,17.76,34.09q9.24,21.6,18.39,43.22L472.07,357l11.2-3.74-8.06-7.9c-2.66-2.6-13.55,1.68-10.81,4.37l8.06,7.9c2,2,12.66-.31,11.2-3.74q-20.48-48.13-41-96.28c-6.69-15.73-13.32-31.49-20.08-47.19-5.25-12.21-10.91-24.44-19-35.06-7.8-10.22-19.51-21.05-33.08-21.54-12.64-.45-22.68,7.23-28.17,18.12-6,11.85-8,26.2-9.2,39.27a185.84,185.84,0,0,0,36,128.84c2.12,2.84,13.31-1,10.8-4.36Z"/><path d="M548.62,335.73c-12.48-31.74-24.77-64.16-29.33-98.16-2.23-16.62-2.42-33.51.56-50,2.39-13.28,6.39-30.85,18-39.35,13.12-9.6,29.82,7.49,38.27,16.27a244.12,244.12,0,0,1,27.16,33.9c16.49,24.7,28.58,52.11,37.73,80.29,10.38,32,17,65.05,21.8,98.28L674,373.07l-5.41-8.47c-2.11-3.33-13.37.46-10.75,4.58l5.41,8.47c2,3.17,11.73.07,11.17-3.84-9.06-62.74-24.76-126.68-60.37-180A241.27,241.27,0,0,0,584.09,157c-11.19-11.2-25.4-21.27-42.05-17.43-14.09,3.26-22.93,15-27.95,27.84-6.26,16-8.34,33.71-8.1,50.81.61,41.92,15.91,82.1,31,120.61,1.63,4.13,13.09.7,11.6-3.11Z"/><path d="M744.65,337.23c-12.83-24.67-25.68-49.62-33.52-76.41-7.19-24.56-11.32-53.21-1-77.54,2.22-5.28,5-10.79,9.07-14.94,2.21-2.28,4.2-3.89,7.49-3.27s6.36,3.2,8.82,5.17c9.83,7.87,18.4,17.61,25.88,27.7,15.36,20.73,26.08,44.47,33.75,69a437.93,437.93,0,0,1,11.71,47.81c1.56,8.07,3,16.18,4.3,24.29q.93,5.63,1.81,11.25c.3,1.87.59,3.74.89,5.62.2,1.3,0,6.57,1.91,5.11l5.85-1.57-.59-.07,3.24,1.43-.09,1.3-7.59,3.41.48.06c5.26.68,12-6.74,4.2-7.75l-.48-.06c-2.43-.31-6.55.94-7.59,3.41-2.72,6.49,6.31,6.91,10.08,4.45,5.68-3.71,2.28-12.14,1.43-17.51-2.71-17.18-5.58-34.35-9.32-51.34-6.89-31.28-17-62.08-33.77-89.55a175.56,175.56,0,0,0-27.73-35c-10.09-9.73-22.47-20.16-37-12.39-12.08,6.47-18.49,21.61-21.7,34.23-3.69,14.5-3.39,29.85-1.24,44.57,5.42,37,23,70.69,40,103.47,2.12,4.08,13.29.14,10.67-4.9Z"/><path d="M914.89,352.76A210.17,210.17,0,0,1,876.08,276c-7.06-26.47-13.17-61.83,4.15-85.65,3.84-5.29,9.09-10.36,15.22-12.87,5.73-2.33,12.42-1.21,18,.89,12.33,4.58,22.14,14.89,29.65,25.34,17.21,23.94,28.46,52.8,37.37,80.7,10.38,32.51,17.25,66,24.06,99.39l11.26-3.51-8.52-7.75c-2.24-2-12.64,2.38-10.92,3.93l8.51,7.75c1.64,1.48,11.81-.84,11.26-3.52-6.63-32.53-13.33-65.14-23.26-96.86-9.33-29.79-21.24-61.37-40.47-86.33-8.08-10.48-18.17-20.13-31.06-24.18-12.62-3.95-27-1.16-38.13,5.58-27.6,16.67-27.63,52.1-23,80.27a209.86,209.86,0,0,0,43.09,96.73c2.2,2.75,12.41-2.08,11.59-3.11Z"/><path d="M914.08,226A601.8,601.8,0,0,1,1003,88.73l-10.42-2.5-4,10.56c-2.41,6.3,9.21,6.4,11.11,1.44l4-10.57c2.4-6.28-7.73-5.63-10.43-2.5A611.91,611.91,0,0,0,903,224.56c-2.83,6,8.86,6.23,11.11,1.44Z"/><path d="M722.21,223.66c8.81-5.51,15.41-13.15,21.69-21.32,7.31-9.5,14.72-18.9,22.43-28.08q23.32-27.78,49.31-53.15l-10.37,0a123.67,123.67,0,0,1-6.21,26.64c-1.23,3.5,10.26,2.07,11.55-1.59a123.17,123.17,0,0,0,6.21-26.65c.52-4.37-8.88-1.43-10.38,0Q781.72,143.72,759.22,170,748,183.14,737.48,196.76c-6.65,8.59-13,18.05-22.34,23.92-1.7,1.06-3.28,2.76-1.11,4.16s6.38-.05,8.18-1.18Z"/><path d="M584.71,219.72q20.87-52.65,44.65-104.07l-11.45-.36,1.6,21.07c.47,6.25,12.18,4.59,11.77-.78l-1.6-21.08c-.44-5.89-9.44-4.71-11.45-.36q-23.78,51.4-44.65,104.07c-2.5,6.31,9.14,6.54,11.13,1.51Z"/><path d="M368.7,211.6c-1.56-5.39,2.28-11.33,4.47-16.12q3.39-7.46,7-14.78,7.23-14.67,15.35-28.89A538.43,538.43,0,0,1,431.72,96.7L421,96.4a108.88,108.88,0,0,1-1.1,29.67c-1,6,10.84,4.66,11.77-.78a117.48,117.48,0,0,0,.92-32c-.5-4.74-8.83-2.78-10.69-.29a559.34,559.34,0,0,0-38.43,58.87q-8.52,15-16.06,30.57c-2.64,5.45-5.21,10.94-7.66,16.48-2.27,5.13-4.31,10.17-2.68,15.79s13.2,2.43,11.59-3.11Z"/><path d="M217.6,177.06c-1.34-1.28,16.26-22.92,18.06-25.33L254.24,127,292,76.57l-11.11.92-4.2,22.15c-.71,3.78,10.87,1.84,11.53-1.68l4.21-22.14c.82-4.36-9.81-.82-11.11.92q-20.67,27.6-41.35,55.18l-20.38,27.19L209.4,172.7c-1.7,2.27-5.47,6-2.62,8.67,2.64,2.51,13.47-1.81,10.82-4.31Z"/><path d="M336.89,121.42l-.12-.3c-.94-2.4-8.82.75-10.19,1.55-3.79,2.22-1.83,6.47-.71,10A39.89,39.89,0,0,0,334.11,147c6.9,7.77,15,11.4,25,7.17,9.23-3.9,12.63-16.12,15.88-24.7,4.3-11.35,7.32-23.45,7.09-35.65-.34-18.77-10.11-38.81-28-46.65-8.38-3.67-19.47-4.86-27.35.76-3.55,2.54-5.34,7-7,10.91a78.68,78.68,0,0,0-4.56,14.85,82.32,82.32,0,0,0,14.61,65.78c2,2.61,12.23-2.25,11.59-3.11a82,82,0,0,1-13.66-69.71,77.29,77.29,0,0,1,3.42-10c.78-1.85,1.62-3.7,2.58-5.46a11.22,11.22,0,0,1,1.65-2.75l-.95.1c.7.09,1.4.21,2.09.35C351.88,52,363.06,65.73,367.74,80c5.95,18.17,1.48,37.85-5.5,55a109.52,109.52,0,0,1-6.49,14.09c-.47.81-1,1.56-1.54,2.33-2.55,3.6.91-.48.94-.24-.06-.48-5.76-3.79-6.54-4.48a38,38,0,0,1-8.51-10.92,38.45,38.45,0,0,1-2.64-6.28c-.2-.63-1.81-7.06-2.09-6.9l-10.19,1.55.12.31c1,2.46,12.33-1.23,11.59-3.11Z"/><path d="M158.9,89.07a79.17,79.17,0,0,0,9.47,27c4,7,9.94,17.58,19.32,16.81s16.42-10.21,21.8-17a89.4,89.4,0,0,0,14.4-24.87c6.05-16.71,5.46-35-4.21-50.31C211,27,190.93,14.89,175.2,24.74c-8.61,5.38-11.76,16.46-13.8,25.8a86.68,86.68,0,0,0,.25,37c1.15,5.21,12.76,2.21,11.6-3.11-3.42-15.57-2.84-33.5,4.19-48.09,1.34-2.78,3.1-5.84,6.33-6.54,3.52-.77,7.69.86,10.8,2.4A36.61,36.61,0,0,1,208.3,44.63c17,25.1,3.85,55.65-14.92,75.43-.74.78-3.11,4-4.19,4-1.46.06-3-2.61-3.81-3.65a74.12,74.12,0,0,1-6.78-10.15A73.52,73.52,0,0,1,170.49,86c-.81-5.19-12.44-2.31-11.59,3.1Z"/><path d="M502.32,90.17c5.43,18.3,13.59,37.92,30.79,48.07,9.2,5.44,20.57,6.68,30.17,1.36,8.82-4.89,13.27-14.23,16.74-23.26a117.87,117.87,0,0,0,7.79-34.8c.61-10-.66-20.2-7.28-28.18-12.92-15.58-37.92-19.71-54.88-8.63-22.18,14.5-19.2,42.88-12.11,64.77,1.19,3.68,12.73.42,11.59-3.1-5.32-16.46-9.45-36,.88-51.48,4.5-6.73,10.74-11.1,19.07-10.34A37.92,37.92,0,0,1,567.67,55.5c12.91,12.86,9,34.26,4.83,50.06-2.29,8.58-5.22,17.89-10.33,25.25-2.16,3.11-4.72,6.25-8.78,6.15-4.71-.12-9.58-2.92-13.31-5.6-14.42-10.4-21.29-27.84-26.17-44.3-1.08-3.66-12.66-.49-11.59,3.11Z"/><path d="M684.21,90.12c2.71,12,5,24.17,8.34,36,2.76,9.94,6.9,19.86,14.32,27.25,6.54,6.52,16,11.34,25.39,9.16,10.66-2.47,14.55-13.57,17-23.1,5.17-20.42,2.13-44.94-6.83-63.94-4.26-9-11.07-16.66-21-19.18a28.18,28.18,0,0,0-25.55,6.34c-7.25,6.66-9.83,16.9-11.26,26.26-1.89,12.43-2.57,25.37,2.32,37.21,1.64,4,13.06.45,11.6-3.1-6.08-14.69-4.57-33.63.67-48.46,2.26-6.41,6.51-14.09,14.39-12.21,8.45,2,14.2,9.46,17.61,17a102.14,102.14,0,0,1,8.39,50.79c-.85,8.21-2.76,17.5-7.19,24.59-1.4,2.23-1.39,2.14-3.71,1.29a29.7,29.7,0,0,1-5.36-2.58,35.38,35.38,0,0,1-9.12-8.52c-5.92-7.61-8.86-17-11.15-26.22-2.6-10.52-4.82-21.15-7.21-31.72-.88-3.9-12.51-1-11.59,3.11Z"/><path d="M850,109.33c4,20.65,7.6,48.89,26.67,61.72,8.15,5.49,20.29,7.24,28.28.39,3.85-3.29,5.56-8.77,7.17-13.37a97.39,97.39,0,0,0,4.51-18.73c3.05-22-.64-46.49-14.13-64.58-5.82-7.81-14.25-14.64-23.89-17-4.72-1.13-10.22-.27-13.94,3.06s-4.58,8.89-5.56,13.56a167.63,167.63,0,0,0-3.28,43.5c.69,12.7,2.81,25.64,11.22,35.67,2.6,3.09,13.72-1,10.76-4.57-12.4-14.77-11.58-38.61-10-56.66.44-5,1.11-9.9,2-14.79.45-2.45.94-4.89,1.5-7.31.07-.3,2-6.41,2-6.46l-2.49.17,1.48.39c.92.45,2,.73,3,1.15a36.57,36.57,0,0,1,5,2.67A43.61,43.61,0,0,1,890,77.06c11.3,13.54,15.84,32.34,16,49.67a96.88,96.88,0,0,1-4.35,29.43c-1,3.27-2.43,10.58-5.45,12.56s-9.37-2.5-11.74-4.47c-16.07-13.37-19.13-38.84-22.84-58-.78-4-12.42-1.19-11.59,3.1Z"/><path d="M1260.26,312.66a290.79,290.79,0,0,1-7.89-81.62c1-20.78,4.58-42,13.77-60.87a82.57,82.57,0,0,1,19.26-25.84c4.11-3.61,9.46-8.13,15.32-6.57,5.14,1.37,9.08,5.83,12,10,6.37,9.1,10.56,20.25,14.17,30.68a237.79,237.79,0,0,1,9.06,35.33c4.94,27.15,6.11,54.8,7.2,82.32l11.59-3.11L1349.08,283c-2.11-3.74-13.25.16-11.59,3.1l5.68,10.06c2,3.53,11.76,1.05,11.59-3.11-1.07-27.23-2.24-54.58-7-81.46a236.43,236.43,0,0,0-10.38-39.45c-4-10.93-8.66-23.24-16.43-32.14-18-20.55-44.25-.91-56.65,15.63-13.94,18.6-20.17,42-22.54,64.78-3.31,31.8-.48,64.37,7,95.41.91,3.78,12.53.8,11.59-3.11Z"/><path d="M1248.19,119.43c-22.85-29.44-32.53-79.12-4.44-108.77,3.66-3.87,7.34-7.5,12.59-4,4.27,2.82,6.83,7.51,8.83,12.08,4.19,9.61,6.16,20.08,7.87,30.37,3.53,21.25,5,43.78-2.2,64.46-1.84,5.3-4.12,10.65-7.7,15-1.82,2.23-4.33,5.07-7.32,5.26-2.64.15-5.42-1.48-7.28-3.21-9.45-8.74-4.36-23-.26-32.93.76-1.83-10.2-.89-11.42,2.07-4.25,10.32-9,23.56-.69,33.28,7.29,8.57,21.15,5.91,29.81,1,10.78-6.13,15.72-18.69,18.54-30.15,3.08-12.53,3.52-25.55,2.55-38.37a200.46,200.46,0,0,0-6.72-39.75c-2.88-10-7.79-23.93-19.8-25.52-23.9-3.16-39.67,24.22-43.68,43.87-5.6,27.49,2.7,56.48,19.72,78.42,2.13,2.74,12.41-2.06,11.6-3.11Z"/><path d="M1283.14,169.77q-37.08,18.25-73.2,38.34-17.14,9.54-34.07,19.51c-10.52,6.25-20.78,13.06-28.75,22.49-.82,1-.56,1.63.56,2.09a27.28,27.28,0,0,0,13.26,1.73c2.16-.22,6.5-.74,7.73-2.87s-1-2.46-2.84-2.27a17.42,17.42,0,0,1-8.7-1.37l.56,2.1c7.78-9.2,17.8-15.65,28.09-21.71q17-10,34.33-19.56,34.47-19.08,69.84-36.47c1.58-.78,3.38-2.2,1.32-3.39s-6.33.5-8.13,1.38Z"/><path d="M1101.54,110.16c-12.63,8.67-27.76,20.78-26.08,37.92.94,9.6,6.87,17.92,11.8,25.9l16.6,26.87c22.16,35.84,44.41,71.62,67.05,107.16,45,70.74,91.65,140.57,141.92,207.73,28.35,37.87,57.87,74.87,88.84,110.64l9.73-6-6.38-5.72c-4-3.61-14,2.33-8.88,6.89l6.38,5.72c3.4,3,13.54-1.66,9.73-6.05-53.44-61.75-102.52-127.12-148.86-194.33s-90.17-136.45-133.29-205.93c-11.91-19.18-23.84-38.35-35.63-57.61-5.34-8.72-10.15-18.38-5.11-28.37,4.19-8.31,12.5-14,20-19.14,2.18-1.5,2.7-4.55.55-6.26-2.39-1.9-6.1-.91-8.33.63Z"/><path d="M1094,116.74c18.82,38,40.4,74.63,61.42,111.45,20.15,35.31,40.41,70.56,61.11,105.55C1258,403.87,1301.3,473,1348.89,539.21c26.69,37.12,54.75,73.26,84.45,108l10.71-4.75-4.79-5c-3.08-3.23-14.12,1.17-10.7,4.75l4.78,5c3,3.11,14.06-.82,10.71-4.75-52.7-61.67-100.09-127.67-144.19-195.71-43.88-67.7-84.57-137.4-124.64-207.41-23.77-41.55-48.38-82.81-69.63-125.73-2.15-4.36-13.51-.78-11.59,3.11Z"/><path d="M1372,656.88q30-61.29,64.55-120.18l-11.18,3q67.88,59.5,134.94,119.92l2.14-2.66-6,3.09c-1.43.74-3.47,1.81-1.44,2.92,1.82,1,6.47-.66,8.09-1.51l6-3.08c.72-.38,3.35-1.58,2.14-2.67q-67.07-60.4-134.93-119.93c-2.14-1.87-9.9.82-11.18,3q-34.54,58.85-64.56,120.18c-.9,1.85,4,1.14,4.62,1,1.87-.31,5.83-1.12,6.81-3.11Z"/><path d="M80.78,277.54a946.64,946.64,0,0,0,263.06,77.1c95.4,13.35,192,12.89,288,9.45q145.62-5.2,291.11-13.85c48.64-2.82,97.28-6.09,145.71-11.51,47.81-5.34,95.2-13.33,142.37-22.73,47.49-9.45,94.79-19.9,142.14-30.05,23.76-5.1,47.55-10.08,71.29-15.28,5.78-1.27,16.21-3.76,17-11.12.67-6.42-7.27-6.19-11.53-4.69-3.91,1.37-9,5.35-4,8.74,3.33,2.26,14-2.57,9.16-5.82.2.13-7.81,5.55-9.64,6.11-2.51.76-5.22,1.12-7.78,1.66l-16.85,3.62-33.7,7.22-64.81,13.89c-43.72,9.37-87.42,18.89-131.42,26.84-88.1,15.9-177.13,22.43-266.41,27.44-90.21,5.06-180.5,9.51-270.8,12.69-89,3.13-178.53,3.73-267.11-7.15A935.53,935.53,0,0,1,118.6,284.32Q104.17,278.26,90,271.71c-3.63-1.66-14.17,3.53-9.17,5.83Z"/><path d="M72.23,276.65c55.4,98.51,116,198.12,207.92,266.94,89.51,67,199.31,102,309.66,113.72,125.12,13.24,252.36-1.66,375.33-25.4,107.16-20.7,215-52.5,306.37-114,47-31.62,87.43-71.12,122.79-115.23,18.6-23.2,35.92-47.46,52.22-72.33,15.69-24,30.16-48.87,40.64-75.59a237.83,237.83,0,0,0,12.17-41.66c.87-4.51-7.76-2.21-9.45-1.19l-15.39,9.35c-2,1.24-2.89,3.14-1,4.76s6.42.07,8.23-1l15.39-9.35-9.45-1.19c-11,56.85-44.36,106.48-77.64,152.71-33.53,46.57-71.46,90.24-116.69,125.82C1208,560.18,1102.57,596,997.54,618.79A1734.34,1734.34,0,0,1,824.7,647c-62.83,7.12-126.2,10.33-189.38,6.73-111.48-6.35-223.51-35.07-317.88-96.32-94.2-61.13-158.6-153.93-214-249.57Q93.06,290,83,272c-2-3.46-13.22.22-10.74,4.63Z"/><path d="M1432.31,266q22-12.82,43.78-25.93,10.89-6.57,21.75-13.2c3.34-2.05,6.67-4.09,10-6.15,2.59-1.59,6.16-3,7-6.18a1,1,0,0,0-.32-1.21c-2.74-1.75-6-.95-8.84.23-1.22.51-3.91,1.6-3.67,3.34l.07.51c.42,3,12.09.5,11.59-3.1l-.07-.51L1510,217.1l.7-.29-7.56.31c-.78-.49-7.8,4.67-8.82,5.29q-5,3.08-10,6.12-9.62,5.85-19.26,11.64-19.71,11.84-39.58,23.41c-1.59.93-3.38,2.39-1.25,3.68,2,1.18,6.41-.29,8.15-1.3Z"/><path d="M148.32,783.19c12.8-50.32,62.71-85.82,113.75-87.13,30.2-.77,54.39,13.4,79.93,27.65,24.05,13.42,50.44,24.71,78.12,15.69,24.81-8.09,42.91-27.54,64.84-40.68,11-6.56,23.07-11.17,36-10.25,12.45.89,24.09,6.24,34.65,12.59,21.21,12.75,39.73,30,62.61,39.91,24.21,10.51,49.23,7.64,72.64-3.61,25.59-12.29,47.93-32.21,75.73-39.67s56.35.9,82.5,10.32,51.65,21,79.1,25.63c28.65,4.85,53.88-1.51,79.06-15.33,12.93-7.09,25.71-15.46,40-19.68,16.79-5,30.43,0,44.62,9.23,26.55,17.38,55,28.21,87,29a154.64,154.64,0,0,0,45.5-5.57c15.51-4.34,29.83-11.7,44.67-17.8,17.15-7.06,34.73-11.16,52.7-4.49,16,6,29.86,16.6,44.88,24.52,27.38,14.44,57.81,24.2,89,24.14,32.89-.07,59.32-14.52,87.5-29.59,13.43-7.17,27.68-14.19,43.09-15.48,17.1-1.43,33.13,5,48.2,12.36,25.61,12.53,51.18,27.59,80.89,22.87a50.78,50.78,0,0,0,30.74-16.47c4.88-5.51-6.14-7.76-9.76-3.66-21.49,24.29-58.71,7.81-82.1-4.13-13.74-7-27.51-14.32-42.65-17.86a82.51,82.51,0,0,0-44.94,2.39c-29.38,9.69-53.72,30.94-84.11,37.95-33.18,7.64-68.14-1-98.35-15.15-28.88-13.52-54.62-38.17-88.72-33.81-15.6,2-30.1,8.48-44.35,14.79-15.88,7-31.7,13.1-49.07,15.18a143.7,143.7,0,0,1-94.63-21.67c-13.05-8.4-25.45-17.12-41.5-17.81-13.18-.57-25.92,3.77-37.66,9.41-13.81,6.62-26.61,15.14-40.54,21.52a87.66,87.66,0,0,1-42.47,8c-28.11-1.77-54.63-13.54-80.67-23.29-25.14-9.42-51.54-18.38-78.75-17.1-28.91,1.36-52.91,16.46-76.9,31.1S659,745.38,630.42,735.12c-23.89-8.59-42.83-26.72-64.16-39.87-20.12-12.41-42.87-20-66.33-12.8-25.26,7.7-43.61,27.56-65.72,40.87-11.8,7.1-24.67,11.69-38.61,10.42-16-1.46-30.88-9.18-44.71-16.89-24-13.38-47.12-27.34-75.19-29.3-48.87-3.42-99.31,21.72-125.26,63.44a116.13,116.13,0,0,0-13.89,33c-1.46,5.74,10.42,4.49,11.77-.8Z"/><path d="M12.07,638.84c-2.31-12.79,4.51-25.38,15.11-32.42,13.18-8.76,31.32-4.73,45.28-.06,27.34,9.14,55.31,29.91,85.21,19.33,12.38-4.37,22.12-13.17,31.58-21.94A314.79,314.79,0,0,1,226,574.26c5.87-4,12.74-9.5,20-10.53,8.08-1.14,15.7,4,22.16,8.19,12.8,8.35,24.63,18.05,37.16,26.78,26.3,18.34,57.85,30.77,89.53,18.81,1.21-.46,4.56-1.64,3.44-3.34-1-1.5-6.42.23-7.47.63-29.88,11.28-61.89-10.49-84.77-27.43-12.43-9.19-25.11-20.65-39.64-26.37-13.37-5.27-27.86-.24-39.65,6.66-13.35,7.83-25.87,17.56-37.6,27.62-10.68,9.15-20.77,21.67-34,27.14-7.76,3.21-16.64,1.06-24.36-1.26a217.46,217.46,0,0,1-24.21-9.39c-14.15-6.18-28.4-12.49-43.86-14.48s-32.61.34-45.57,9.55c-11.24,8-19.18,21-16.62,35.11.44,2.44,12.12-.18,11.59-3.11Z"/><path d="M1170.72,590.27c15.93,8.77,29.5,22.07,46.74,28.42,15.85,5.83,32.22,3.7,47.44-3s28.47-16.83,43.85-22.89a44.82,44.82,0,0,1,24.68-2.73c10.08,1.77,19.58,5.77,29.48,8.26a121.81,121.81,0,0,0,36.12,3c7.86-.46,21-5,18.36-15.35-1-3.93-12.63-.88-11.59,3.11,1.49,5.75-3.73,5.91-7.93,5.85a166.54,166.54,0,0,1-17-.8c-9.24-1.07-18-4.1-26.81-6.83-16.13-5-31.27-5.83-47.29-.11-25.79,9.21-50.74,36.66-80.06,25.91-17.23-6.33-30.81-19.64-46.73-28.41-3.24-1.79-13.92,3-9.25,5.53Z"/><path d="M1467.66,552.32c18.17,2.82,30.86,18.64,44,30,14.22,12.33,29.92,18.92,49,17.2s36.86-9.4,55.27-14.27c18.77-5,37.7-4.25,52.45,9.82,15.56,14.84,21.8,37.44,25.48,57.94.51,2.86,12.18.21,11.59-3.1-3.36-18.71-8.84-38-20.87-53.12s-30.06-21.32-49-19.64c-20.09,1.78-38.59,10.17-58,15-9.29,2.29-19.06,3.52-28.49,1.31S1531.78,586,1524.54,580c-15.36-12.85-28.56-29.59-49.49-32.83-2.43-.38-6.35.52-8.2,2.19-1.65,1.5-1.64,2.63.81,3Z"/><path d="M1332.71,668.44c16.81-5.68,35-11.68,53-8.94,9.26,1.41,17,5.62,24.71,10.63,7,4.51,14,8.41,22.35,9.62,18.27,2.65,36.29-5.32,52.74-12.15,17.19-7.14,34.67-14.7,53.18-17.55,21.09-3.24,41.87,1.89,57.86,16.3,2.56,2.31,13.23-2.06,10.85-4.2-30.7-27.65-72.61-19-107.63-5.56-9.28,3.57-18.4,7.52-27.61,11.25-9.55,3.87-19.8,7.74-30.29,6.75-10.07-1-17.81-7.13-26.15-12.19a60.45,60.45,0,0,0-24.3-8.5c-21.43-2.59-42.87,4.26-62.9,11-1.51.51-4.47,2-3.31,3.85s6.3.09,7.55-.34Z"/><path d="M1439,566.73c1-3.16,1-5.7-1.21-8.36-2.53-3.1-7.85-2.08-10.18.74a345.94,345.94,0,0,0-44.06,68c-2.86,5.8,7.91,6.4,10.47,2.66l53.11-77.27-10.47-2.66-28.21,52.7c-8.6,16.06-18.38,32-22.32,49.94-.57,2.62,2.71,4,4.69,4.07a7.31,7.31,0,0,0,6.77-3.67,279.16,279.16,0,0,1,50.49-64l-8.79-4.73a302.4,302.4,0,0,0-34,58.46c-2.62,6,7.9,6.39,10.47,2.66a396.59,396.59,0,0,1,44.69-53.88l-9.79-3.76a676.44,676.44,0,0,0-39.52,61.36c-1.48,2.59,1.35,4.82,3.63,5.2a7.39,7.39,0,0,0,7.52-3.63,245.47,245.47,0,0,1,35.59-47.55l-9.79-3.77q-19.1,25.49-35.54,52.77c-1.4,2.3,1,4.46,3,5a7.51,7.51,0,0,0,7.52-2.37,376.47,376.47,0,0,1,34.45-38.28l-9.48-3.64Q1434.1,640,1418,666c-4,6.39,6.37,8.16,9.79,3.76q23.26-29.88,48.85-57.81l-9.79-3.76-31.23,46.55c-4.31,6.44,6.19,7.63,9.8,3.76l46.38-49.67-9.8-3.76-30.2,41.56c-4.08,5.61,5.13,8,8.79,4.73L1490.4,625l-8.79-4.73A324.73,324.73,0,0,1,1452,656.23c-4.82,5,5.18,7.7,8.8,4.73q16.62-13.63,31.8-28.89l-9.79-3.76L1471,643.74c-4.58,6,6.26,8,9.79,3.76l0-.33-3.62-5.2-3,8.7c-1.73,5,4.86,6.1,8.2,4.44,5-2.49,52.59-22.36,53-10.82.16,5,6.76,4.74,9.79,2.48l3.18-2.36c2.26-1.68,2.6-4.4.53-6.32-18.24-17-36.53-32.31-59.85-41.82-19.91-8.12-45.34-16.36-51.31-39.86l-10.23,5,67.17,56.63c4.18,3.53,13.8-2.12,8.87-6.93l-47-45.9c-3.35-3.28-13.45,1.65-9.72,6.09a188.67,188.67,0,0,0,53,43.76l1.81-7.12a109.52,109.52,0,0,0-34.8,33.61c-3.69,5.7,5.06,8.2,8.79,4.74l15.74-14.61c5.85-5.43-3-9.26-7.79-5.71a186.14,186.14,0,0,0-26.23,23.72c-4.28,4.67,4,7.56,7.53,5.53l30.2-17.32-7.52-5.53a93.88,93.88,0,0,0-18.45,25.88c-1.62,3.34,2.33,5.52,5.13,5.26a59.83,59.83,0,0,0,29.61-11.09c2-1.43,2.64-4,1-5.89s-5.31-1.63-7.49-.61L1465,661l6.53,6.5,36.74-26.59c5.11-3.7-.5-8.29-5-7.07l-60.53,16.32,7,3.83c.9-18.82,22.32-29.55,22.13-49.06,0-4.59-5.4-4.48-8.52-3.27a197.91,197.91,0,0,0-39.57,20.74l7.8,5.71a80.85,80.85,0,0,0,15.82-17.71c4-6.16-5-7.17-8.79-4.73l-40.55,26,8.79,4.74,2.94-4.45c1.83-2.77.63-6-2.94-6.31-11.83-1.1-23.54,4.85-28.4,15.93a3.41,3.41,0,0,0,1.14,4.25,135.61,135.61,0,0,0,44.08,17l2.4-8.9a56.56,56.56,0,0,1-19.15-2.13c-2.82-.82-6.3-.24-8.2,2.2a3.66,3.66,0,0,0,1.6,6l21.81,8.06c2.93,1.08,6.21,2.91,9.37,3.05,2.84.13,5.38-1.53,7.73-2.92a67.59,67.59,0,0,0,24-24.25c12.44-21.32,10.38-48.5-3.9-68.37l-8.59,6.69c24.65,7.57,46.43,21.29,68,35.07,4.56,2.91,14.54-3.31,8.87-6.94-22.24-14.21-44.85-28.47-70.27-36.28-3.37-1-12.08,1.82-8.59,6.69C1468.3,608,1460.35,647.48,1430,663l5.93-.43-29.08-10.74-6.6,8.15a73.22,73.22,0,0,0,24.85,2.93c5.35-.29,9.47-7.5,2.4-8.9a120.78,120.78,0,0,1-39.11-15.1l1.14,4.25c2.35-5.35,7.3-9.22,13.34-8.65l-2.94-6.31-2.94,4.46c-4.07,6.15,5,7.16,8.79,4.73l40.56-26-8.8-4.74a71.46,71.46,0,0,1-13.83,15.76c-2,1.69-2.83,4.48-.53,6.32s6.06.92,8.33-.61a184.83,184.83,0,0,1,37-19.15l-8.52-3.28c.1,9.57-5.88,17-11.19,24.37s-10.49,15.3-10.93,24.7c-.18,3.69,4.22,4.59,7,3.83l60.52-16.31-5-7.07-36.74,26.59c-2,1.44-2.64,4-1,5.9s5.3,1.63,7.49.6l32.15-15.06-6.53-6.5a42.37,42.37,0,0,1-20.91,7.84l5.12,5.26a86,86,0,0,1,17.09-23.69c4.52-4.46-4-7.52-7.53-5.53l-30.2,17.32,7.53,5.53a171.9,171.9,0,0,1,24.22-21.77l-7.79-5.71-15.75,14.61,8.8,4.73a97.15,97.15,0,0,1,30.26-30.07c2-1.24,5.38-5.14,1.81-7.11a181.87,181.87,0,0,1-51.26-42.07l-9.73,6.08,47,45.9,8.87-6.93-67.17-56.63c-3.24-2.73-11.47.17-10.23,5,5.94,23.37,29.22,34.14,49.66,42.25,12.36,4.91,24.06,10.22,34.87,18.07,10.45,7.58,19.92,16.4,29.35,25.18l.54-6.32-3.18,2.36,9.79,2.48c-.4-12.66-16.28-12.33-25.31-10.71a166.85,166.85,0,0,0-44.68,15l8.21,4.43,3-8.7a3.88,3.88,0,0,0-3.62-5.21c-5.41-.4-10.1,1.2-13.66,5.41l9.79,3.76,11.81-15.43a3.7,3.7,0,0,0-1.59-6c-2.89-1.23-6.15.15-8.2,2.2-9.48,9.48-19.45,18.44-29.81,27l8.79,4.73a324.73,324.73,0,0,0,29.65-35.93c4-5.65-5.12-8-8.8-4.74l-29.8,26.32,8.79,4.74,30.21-41.56c4.54-6.25-6.2-7.62-9.8-3.76l-46.38,49.67,9.8,3.76,31.22-46.55c4.3-6.41-6.2-7.68-9.79-3.76Q1441.28,636.1,1418,666l9.79,3.76q16.82-27,31.35-55.36c2.74-5.34-6.73-6.28-9.47-3.64A395.59,395.59,0,0,0,1413.23,651l10.47,2.67q15.81-26.13,34.18-50.57a3.71,3.71,0,0,0-1.6-6c-2.84-1.21-6.2.1-8.19,2.19a255.74,255.74,0,0,0-36.95,49.75l11.15,1.57a655.12,655.12,0,0,1,38.16-59.17c1.63-2.26,1-4.85-1.6-6-2.88-1.22-6.15.14-8.19,2.2A395.86,395.86,0,0,0,1406,641.58l10.47,2.67A290.63,290.63,0,0,1,1449.11,588c4.1-5.52-5.19-8.13-8.8-4.74a295.94,295.94,0,0,0-53.83,68.12l11.46.41c3.87-17.65,14.19-33.61,22.63-49.37l27.27-50.94c3-5.66-7.89-6.42-10.47-2.67l-53.11,77.27,10.47,2.67a334.51,334.51,0,0,1,42.7-65.86l-10.19.74.64,1.55c-2.13,6.52,9.44,6.79,11.15,1.57Z"/></g></g></svg>