<?xml version="1.0" encoding="UTF-8"?>
<svg width="16px" height="16px" viewBox="0 0 16 16" version="1.1" xmlns="http://www.w3.org/2000/svg" xmlns:xlink="http://www.w3.org/1999/xlink">
    <!-- Generator: Sketch 51.3 (57544) - http://www.bohemiancoding.com/sketch -->
    <desc>Created with Sketch.</desc>
    <defs></defs>
    <g id="Welcome" stroke="none" stroke-width="1" fill="none" fill-rule="evenodd">
        <g id="placeholder-2" fill="#152228" fill-rule="nonzero">
            <path d="M8,6.93333333 C9.02933333,6.93333333 9.86666667,6.09573333 9.86666667,5.06666667 C9.86666667,4.0376 9.02933333,3.2 8,3.2 C6.97066667,3.2 6.13333333,4.0376 6.13333333,5.06666667 C6.13333333,6.09573333 6.97066667,6.93333333 8,6.93333333 Z M8,3.73333333 C8.7352,3.73333333 9.33333333,4.33146667 9.33333333,5.06666667 C9.33333333,5.80186667 8.7352,6.4 8,6.4 C7.2648,6.4 6.66666667,5.80186667 6.66666667,5.06666667 C6.66666667,4.33146667 7.2648,3.73333333 8,3.73333333 Z" id="Shape"></path>
            <path d="M7.9528,14.6018667 L12.0437333,8.69333333 C13.5781333,6.64773333 13.3562667,3.28533333 11.5688,1.49813333 C10.6029333,0.532 9.31866667,0 7.9528,0 C6.58693333,0 5.30266667,0.532 4.3368,1.49786667 C2.54933333,3.28506667 2.32746667,6.64746667 3.85573333,8.68506667 L7.9528,14.6018667 Z M4.71386667,1.87493333 C5.5792,1.00986667 6.72933333,0.533333333 7.9528,0.533333333 C9.17626667,0.533333333 10.3264,1.00986667 11.1917333,1.87493333 C12.8050667,3.488 13.0037333,6.5248 11.6112,8.38133333 L7.9528,13.6648 L4.28853333,8.37333333 C2.90186667,6.5248 3.1008,3.488 4.71386667,1.87493333 Z" id="Shape"></path>
            <path d="M11.2312,11.4685333 C11.0845333,11.4506667 10.9522667,11.5557333 10.9352,11.7021333 C10.9181333,11.8485333 11.0226667,11.9810667 11.1688,11.9981333 C13.9730667,12.3282667 15.4666667,13.2178667 15.4666667,13.7333333 C15.4666667,14.4570667 12.6261333,15.4666667 8,15.4666667 C3.37386667,15.4666667 0.533333333,14.4570667 0.533333333,13.7333333 C0.533333333,13.2178667 2.02693333,12.3282667 4.8312,11.9981333 C4.97733333,11.9810667 5.08186667,11.8482667 5.0648,11.7021333 C5.04746667,11.5557333 4.9152,11.4501333 4.7688,11.4685333 C1.96106667,11.7992 0,12.7304 0,13.7333333 C0,14.8597333 2.748,16 8,16 C13.252,16 16,14.8597333 16,13.7333333 C16,12.7304 14.0389333,11.7992 11.2312,11.4685333 Z" id="Shape"></path>
        </g>
    </g>
</svg>