<?xml version="1.0" encoding="UTF-8"?>
<svg width="16px" height="16px" viewBox="0 0 16 16" version="1.1" xmlns="http://www.w3.org/2000/svg" xmlns:xlink="http://www.w3.org/1999/xlink">
    <!-- Generator: Sketch 51.3 (57544) - http://www.bohemiancoding.com/sketch -->
    <title>foreign</title>
    <desc>Created with Sketch.</desc>
    <defs></defs>
    <g id="Welcome" stroke="none" stroke-width="1" fill="none" fill-rule="evenodd">
        <g id="Desktop_rez_new_pic" transform="translate(-315.000000, -4711.000000)" fill="#FF78A0" fill-rule="nonzero">
            <g id="foreign" transform="translate(315.000000, 4711.000000)">
                <path d="M15.2429474,0 L9.43610136,0 C9.03522807,0 8.71023782,0.324990253 8.71023782,0.725863548 C8.71023782,1.12673684 9.03522807,1.4517271 9.43610136,1.4517271 L13.4905887,1.4517271 L6.01946199,8.92288499 C5.73598441,9.20636257 5.73598441,9.66590253 6.01946199,9.94938012 C6.161154,10.0911033 6.34691618,10.1619649 6.53267836,10.1619649 C6.71844055,10.1619649 6.90423392,10.0911345 7.04595712,9.94934893 L14.517115,2.47822222 L14.517115,6.53270955 C14.517115,6.93358285 14.8421053,7.2585731 15.2429786,7.2585731 C15.6438519,7.2585731 15.9688421,6.93358285 15.9688421,6.53270955 L15.9688421,0.725863548 C15.9688109,0.324990253 15.6438207,0 15.2429474,0 Z" id="Shape"></path>
                <path d="M12.3395244,7.25854191 C11.9386511,7.25854191 11.6136608,7.58353216 11.6136608,7.98440546 L11.6136608,14.517115 L1.45169591,14.517115 L1.45169591,4.35511891 L7.98440546,4.35511891 C8.38527875,4.35511891 8.71026901,4.03012865 8.71026901,3.62925536 C8.71026901,3.22838207 8.38527875,2.903423 7.98440546,2.903423 L0.725863548,2.903423 C0.324990253,2.903423 0,3.22841326 0,3.62928655 L0,15.2429786 C0,15.6438207 0.324990253,15.9688109 0.725863548,15.9688109 L12.3395556,15.9688109 C12.7404288,15.9688109 13.0654191,15.6438207 13.0654191,15.2429474 L13.0654191,7.98440546 C13.0653879,7.58353216 12.7403977,7.25854191 12.3395244,7.25854191 Z" id="Shape"></path>
            </g>
        </g>
    </g>
</svg>